<?xml version="1.0" standalone="no"?>
<!DOCTYPE svg PUBLIC "-//W3C//DTD SVG 1.1//EN" "http://www.w3.org/Graphics/SVG/1.1/DTD/svg11.dtd" >
<svg xmlns="http://www.w3.org/2000/svg" xmlns:xlink="http://www.w3.org/1999/xlink" version="1.1">
<metadata>
Created by FontForge 20170731 at Fri Sep 25 13:10:20 2020
 By Aleksey,,,
Copyright (c) 2020 by Francesco Canovaro, Mariachiara Fantini. All rights reserved.
</metadata>
<defs>
<font id="BogartTrial-Italic" horiz-adv-x="0" >
  <font-face 
    font-family="Bogart Trial"
    font-weight="400"
    font-style="italic"
    font-stretch="normal"
    units-per-em="1000"
    panose-1="0 0 5 0 0 0 0 0 0 0"
    ascent="800"
    descent="-200"
    x-height="478"
    cap-height="701"
    bbox="-689 -328 1752 1059"
    underline-thickness="53"
    underline-position="-252"
    slope="-12"
    unicode-range="U+0020-FB06"
  />
<missing-glyph horiz-adv-x="486" 
 />
    <glyph glyph-name="f_f" unicode="ff" horiz-adv-x="605" 
d="M716.5 693q39.5 -26 39.5 -68q0 -6 -2 -18q-3 -14 -14 -24t-26 -10q-16 0 -22.5 9t-8.5 27q4 33 -16 49.5t-55 16.5q-40 0 -67.5 -23t-35.5 -61q-4 -17 -4 -35q0 -25 7 -51q4 -22 5 -33h118q15 0 15 -10q0 -13 -9 -23.5t-19 -10.5h-80q-13 0 -20 -4.5t-9 -16.5l-81 -382
q-14 -70 -20 -106q-2 -19 -17.5 -25.5t-61.5 -7.5q-11 0 -16 6.5t-3 15.5l7 27q18 73 24 101l78 372l1 5q0 15 -19 15h-160q-13 0 -20.5 -4.5t-9.5 -16.5l-81 -382q-14 -70 -20 -106q-2 -19 -17 -25.5t-62 -7.5q-11 0 -16 6.5t-2 15.5q7 32 13 52q11 42 18 76l78 372v5
q0 15 -18 15h-52q-6 0 -9.5 5t-1.5 12q3 12 11 19.5t15 7.5h66q0 6 -2 30q-4 26 -4 46q0 23 4 43q12 56 57.5 92t108.5 36q49 0 84.5 -23t35.5 -61q0 -5 -2 -17q-3 -15 -13 -24.5t-25 -9.5q-26 0 -28 36q3 28 -13.5 41.5t-43.5 13.5q-33 0 -56.5 -22t-31.5 -57
q-4 -16 -4 -34q0 -29 12 -65l6 -25h213q1 8 -1 27q-2 22 -2 36q0 25 6 56q12 56 61.5 92t122.5 36q55 0 94.5 -26z" />
    <glyph glyph-name="f_f_i" unicode="ffi" horiz-adv-x="883" 
d="M839 138q6 0 10.5 -4.5t4.5 -11.5q0 -8 -4 -16q-18 -52 -52 -84.5t-78 -32.5q-79 0 -79 81q0 27 7 54l54 249q2 14 2 20q0 35 -35 35h-127q-13 0 -20.5 -4.5t-9.5 -16.5l-80 -382q-4 -17 -15 -74l-6 -32q-2 -19 -17 -25.5t-62 -7.5q-11 0 -15.5 6.5t-2.5 15.5
q20 79 31 128l78 372v5q0 15 -18 15h-160q-13 0 -20.5 -4.5t-9.5 -16.5l-81 -382q-14 -70 -20 -106q-2 -19 -17 -25.5t-62 -7.5q-11 0 -16 6.5t-2 15.5q7 32 13 52q11 42 18 76l78 372v5q0 15 -18 15h-52q-6 0 -9.5 5t-1.5 12q3 12 11 19.5t15 7.5h66q0 6 -2 30q-4 26 -4 46
q0 23 4 43q12 56 57.5 92t108.5 36q49 0 84.5 -23t35.5 -61q0 -5 -2 -17q-3 -15 -13 -24.5t-25 -9.5q-26 0 -28 36q3 28 -13.5 41.5t-43.5 13.5q-33 0 -56.5 -22t-31.5 -57q-4 -16 -4 -34q0 -29 12 -65l6 -25h212q1 7 -1 28l-1 34q0 32 6 57q12 56 61 92t122 36q56 0 95 -26
t39 -68q0 -6 -2 -18q-3 -14 -13.5 -24t-25.5 -10q-16 0 -23 9t-9 27l1 11q0 27 -19.5 41t-51.5 14q-40 0 -67.5 -23.5t-35.5 -60.5q-4 -19 -4 -37q0 -20 6 -48q1 -4 3 -14.5t2 -19.5h165q25 0 73 5q18 3 31 3q23 0 23 -20q0 -6 -1 -9l-71 -332q-3 -12 -3 -22q0 -38 31 -38
q35 0 62 72q4 7 13 7z" />
    <glyph glyph-name="f_f_l" unicode="ffl" horiz-adv-x="885" 
d="M630 472q15 0 15 -10q0 -13 -9 -23.5t-19 -10.5h-79q-13 0 -20.5 -4.5t-9.5 -16.5l-81 -382q-14 -70 -20 -106q-2 -19 -17.5 -25.5t-61.5 -7.5q-11 0 -16 6.5t-2 15.5l10 43q9 34 20 85l79 372v5q0 15 -19 15h-155q-13 0 -20.5 -4.5t-9.5 -16.5l-81 -382
q-14 -70 -20 -106q-2 -19 -17 -25.5t-62 -7.5q-11 0 -16 6.5t-2 15.5q7 32 13 52q11 42 18 76l78 372v5q0 15 -18 15h-52q-6 0 -9.5 5t-1.5 12q3 12 11 19.5t15 7.5h66q0 6 -2 30q-4 26 -4 46q0 23 4 43q12 56 57.5 92t108.5 36q49 0 84.5 -23t35.5 -61q0 -5 -2 -17
q-3 -15 -13 -24.5t-25 -9.5q-26 0 -28 36q3 28 -13.5 41.5t-43.5 13.5q-33 0 -56.5 -22t-31.5 -57q-4 -16 -4 -34q0 -29 12 -65l6 -25h208q-1 5 -7 29t-6 53q0 22 4 41q11 55 57.5 89.5t110.5 34.5q50 0 78.5 -23t28.5 -62q0 -7 -2 -21q-3 -16 -14 -26.5t-27 -10.5
q-15 0 -22 8.5t-7 26.5q1 7 1 20q0 23 -10.5 33.5t-33.5 10.5q-33 0 -56.5 -20.5t-31.5 -54.5q-3 -16 -3 -31q0 -20 4.5 -36t12.5 -38l8 -23h115zM843 138q6 0 10.5 -4.5t4.5 -11.5q0 -8 -4 -16q-18 -52 -53 -84.5t-78 -32.5q-77 0 -77 81q0 24 6 54l100 477q3 15 3 24
q0 17 -14 23q-4 4 -11.5 7t-11.5 5t-4 7q0 10 8.5 15.5t23.5 9.5l27 5q43 9 63 9q23 0 23 -16q0 -3 -2 -11l-118 -561q-3 -12 -3 -22q0 -18 8 -27.5t22 -9.5q21 0 35.5 18t28.5 54q5 7 13 7z" />
    <glyph glyph-name="f_i" unicode="fi" horiz-adv-x="586" 
d="M19 -107.5q-5 6.5 -2 15.5q7 32 13 52q11 42 18 76l78 372v5q0 15 -18 15h-52q-6 0 -9.5 5t-1.5 12q3 12 11 19.5t15 7.5h66q1 7 -1 28l-1 32q0 33 6 59q12 56 61 92t122 36q55 0 94.5 -26t39.5 -68q0 -6 -2 -18q-3 -14 -13.5 -24t-26.5 -10q-15 0 -22 9t-9 27
q4 33 -15.5 49.5t-54.5 16.5q-40 0 -68 -23t-36 -61q-4 -17 -4 -35q0 -25 7 -51q4 -22 5 -33h165q26 0 73 5q18 3 31 3q23 0 23 -20q0 -6 -1 -9l-71 -332q-3 -12 -3 -22q0 -38 31 -38q35 0 62 72q4 7 13 7q6 0 10.5 -4.5t4.5 -11.5q0 -8 -4 -16q-18 -52 -52 -84.5t-78 -32.5
q-79 0 -79 81q0 27 7 54l54 249q2 14 2 20q0 35 -35 35h-127q-13 0 -20.5 -4.5t-9.5 -16.5l-81 -382q-14 -70 -20 -106q-2 -19 -17 -25.5t-62 -7.5q-11 0 -16 6.5z" />
    <glyph glyph-name="f_l" unicode="fl" horiz-adv-x="593" 
d="M19 -107.5q-5 6.5 -2 15.5q7 32 13 52q11 42 18 76l78 372v5q0 15 -18 15h-52q-6 0 -9.5 5t-1.5 12q3 12 11 19.5t15 7.5h66q-1 5 -7 29t-6 53q0 22 4 41q12 55 58.5 89.5t109.5 34.5q50 0 78.5 -23t28.5 -61q0 -14 -2 -22q-3 -16 -14 -26.5t-26 -10.5q-16 0 -23 8.5
t-7 26.5q1 7 1 20q0 23 -10.5 33.5t-33.5 10.5q-33 0 -56.5 -20.5t-31.5 -54.5q-3 -16 -3 -31q0 -20 4.5 -36t12.5 -38l8 -23h115q18 0 15 -15q-3 -12 -11 -20.5t-17 -8.5h-79q-13 0 -20.5 -4.5t-9.5 -16.5l-81 -382q-14 -70 -20 -106q-2 -19 -17 -25.5t-62 -7.5
q-11 0 -16 6.5zM353 70q0 24 6 54l100 477q3 15 3 24q0 17 -14 23q-4 4 -11 7t-11.5 5t-4.5 7q0 10 8.5 15.5t23.5 9.5l27 5q43 9 63 9q23 0 23 -16q0 -3 -2 -11l-118 -561q-3 -12 -3 -22q0 -18 8 -27.5t22 -9.5q21 0 35.5 18t28.5 54q5 7 13 7q6 0 10.5 -4.5t4.5 -11.5
q0 -8 -4 -16q-18 -52 -52.5 -84.5t-78.5 -32.5q-77 0 -77 81z" />
    <glyph glyph-name=".notdef" horiz-adv-x="486" 
 />
    <glyph glyph-name=".null" 
 />
    <glyph glyph-name="nonmarkingreturn" horiz-adv-x="333" 
 />
    <glyph glyph-name="space" unicode=" " horiz-adv-x="290" 
 />
    <glyph glyph-name="exclam" unicode="!" horiz-adv-x="237" 
d="M88 199q27 167 43 301q4 29 8.5 61t9.5 66q6 39 24 62.5t47 23.5q41 0 41 -49q0 -15 -5 -37q-26 -91 -32 -109q-52 -174 -90 -319q-12 -22 -28 -22t-18 22zM27 2.5q-14 13.5 -14 34.5q0 4 2 14q6 28 27.5 46.5t49.5 18.5q24 0 39 -14t15 -37q0 -32 -24.5 -54t-57.5 -22
q-23 0 -37 13.5z" />
    <glyph glyph-name="quotedbl" unicode="&#x22;" horiz-adv-x="269" 
d="M139 555q12 94 18 119q4 17 12.5 24.5t25.5 7.5q26 0 26 -20q0 -7 -1 -11q-6 -28 -30 -109q-24 -86 -26 -93q-2 -6 -8 -9t-13 -3q-6 0 -11 3t-5 9zM282 555q12 94 18 119q4 17 12.5 24.5t25.5 7.5q26 0 26 -20q0 -7 -1 -11q-6 -28 -30 -109q-24 -86 -26 -93q-2 -6 -8 -9
t-13 -3q-6 0 -11 3t-5 9z" />
    <glyph glyph-name="numbersign" unicode="#" horiz-adv-x="672" 
d="M63 3q0 5 4 15l91 191q1 2 1 5q0 8 -9 8h-93q-15 0 -20.5 4t-3.5 13q3 18 14.5 28.5t29.5 10.5h97q14 0 21 15l59 121q2 6 2 7q0 9 -10 9h-97q-15 0 -20.5 4t-3.5 13q8 39 44 39h100q17 0 24 15l87 184q6 14 15 19t25 5q12 0 16.5 -3t4.5 -9q0 -7 -6 -19l-84 -178l-2 -6
q0 -8 10 -8h136q13 0 20 15l87 184q6 14 15 19t25 5q21 0 21 -12q0 -8 -6 -19l-84 -175l-2 -9q0 -4 2 -6t4 -2h90q26 0 23 -18q-4 -17 -15 -27.5t-27 -10.5h-95q-13 0 -20 -15l-57 -121q-2 -6 -2 -7q0 -9 11 -9h89q27 0 24 -18q-4 -17 -15.5 -27.5t-27.5 -10.5h-92
q-22 0 -28 -17l-90 -190q-6 -14 -15.5 -19.5t-25.5 -5.5q-19 0 -19 13q0 5 4 15l88 187l2 8q0 9 -8 9h-133q-18 0 -24 -14l-91 -193q-6 -14 -15 -19.5t-25 -5.5q-20 0 -20 13zM394 278q9 0 14.5 4t9.5 13l58 119l2 8q0 8 -7 8h-137q-9 0 -14 -3.5t-9 -11.5l-57 -121
q-2 -6 -2 -8q0 -4 2.5 -6t5.5 -2h134z" />
    <glyph glyph-name="dollar" unicode="$" horiz-adv-x="588" 
d="M589 547q0 -40 -6.5 -56t-23.5 -16q-12 0 -17.5 12t-11.5 54q-7 61 -49.5 90t-92.5 29q-47 0 -84.5 -18.5t-58.5 -49t-21 -66.5q0 -39 33 -68t103 -49q94 -26 141 -68t47 -105q0 -17 -5 -42q-13 -62 -54 -108.5t-101 -71.5t-128 -25h-4l-23 -112q-1 -6 -7.5 -9t-13.5 -3
q-8 0 -12.5 3t-3.5 9l24 114q-52 4 -81 15.5t-46 24t-21 12.5q-7 0 -11 -18q-4 -14 -9 -21.5t-14 -7.5t-13 19.5t-7 76.5q-2 48 -2 62q0 52 8 73t24 21q8 0 12.5 -4.5t8 -20.5t6.5 -51q7 -132 167 -132q72 0 123 37t65 101q3 14 3 27q0 45 -36.5 74.5t-111.5 53.5
q-81 25 -121.5 65t-40.5 98q0 17 5 42q11 53 46.5 92t86 60t107.5 21h5l22 104q3 11 21 11q8 0 12.5 -2.5t3.5 -8.5l-23 -106q38 -5 61.5 -16t44.5 -26q13 -10 18 -10q6 0 10 19q4 14 8 21t12 7q11 0 16 -20.5t8 -75.5q2 -48 2 -61z" />
    <glyph glyph-name="percent" unicode="%" horiz-adv-x="892" 
 />
    <glyph glyph-name="ampersand" unicode="&#x26;" horiz-adv-x="634" 
d="M72.5 38.5q-59.5 49.5 -59.5 130.5q0 20 5 47q16 71 79.5 129.5t143.5 75.5q11 3 11 7q0 3 -6 7q-30 10 -50 35.5t-20 59.5q0 14 2 22q15 69 75 109.5t149 40.5q45 0 90.5 -16t40.5 -41q-2 -7 -10 -12t-18 -5q-7 0 -24 7q-38 18 -83 18q-52 0 -91.5 -27t-48.5 -74
q-2 -12 -2 -18q0 -35 26.5 -58t56.5 -24h6q14 0 18.5 -3.5t1.5 -13.5q-3 -11 -9.5 -16.5t-24.5 -10.5q-86 -21 -140.5 -70t-69.5 -121q-5 -25 -5 -42q0 -61 40 -98t111 -37q98 0 160.5 62.5t83.5 164.5q5 23 5 34q0 18 -9.5 24t-33.5 6q-33 0 -48.5 -14t-19.5 -39
q-8 -17 -25 -17q-12 0 -8 17q1 27 13.5 54.5t40 47t69.5 19.5q20 0 58 -4q32 -5 58 -5q59 0 66 50q11 21 24 21q12 0 12 -19q0 -10 -3 -21q-8 -40 -36 -62.5t-72 -22.5h-7q-20 0 -20 -8q0 -5 4.5 -19.5t4.5 -30.5q0 -5 -2 -19q-17 -78 -63 -139.5t-117 -96t-158 -34.5
q-112 0 -171.5 49.5z" />
    <glyph glyph-name="quotesingle" unicode="'" horiz-adv-x="194" 
d="M141 555q12 94 18 119q4 17 12.5 24.5t25.5 7.5q26 0 26 -20q0 -7 -1 -11q-6 -28 -30 -109q-24 -86 -26 -93q-2 -6 -8 -9t-13 -3q-6 0 -11 3t-5 9z" />
    <glyph glyph-name="parenleft" unicode="(" horiz-adv-x="333" 
d="M242.5 -152q-5.5 -5 -14.5 -5q-3 0 -15 4q-85 54 -132.5 143.5t-47.5 198.5q0 54 12 109q30 144 127 263.5t232 187.5q14 4 17 4q8 0 11.5 -4.5t1.5 -11.5q-1 -5 -5.5 -10t-10.5 -9.5t-9 -6.5q-100 -64 -173.5 -175t-100.5 -238q-14 -65 -14 -125q0 -90 29 -165.5
t83 -123.5q7 -6 11 -11.5t4 -9.5q0 -10 -5.5 -15z" />
    <glyph glyph-name="parenright" unicode=")" horiz-adv-x="334" 
d="M-71 -132.5q4 4.5 22 16.5q99 65 173 176.5t101 237.5q14 65 14 124q0 90 -29.5 165.5t-83.5 123.5q-2 3 -7 8.5t-6.5 9.5t-1.5 8q5 16 20 16q5 0 15 -4q86 -54 133.5 -143t47.5 -199q0 -52 -12 -109q-31 -143 -128 -263t-232 -188q-12 -4 -17 -4q-13 0 -13 12
q0 8 4 12.5z" />
    <glyph glyph-name="asterisk" unicode="*" horiz-adv-x="361" 
d="M111 445q0 9 10 18q27 23 81 65q10 7 12 11t-6 5q-47 11 -87 33q-13 4 -13 14q0 8 6 18q7 18 23 18q2 0 10 -2q34 -18 72 -43q6 -5 12 -5t6 9q2 38 14 100q3 13 10 18.5t20 5.5q26 0 20 -24q-8 -42 -28 -100q-2 -6 -2 -7q0 -3 3 -3q4 0 14 6q33 18 92 43q8 2 10 2
q16 0 16 -23q0 -11 -4.5 -17.5t-16.5 -9.5q-52 -22 -97 -31q-11 -1 -11 -8q0 -3 3 -8q29 -30 56 -67q4 -5 4 -11q0 -12 -16 -22q-13 -8 -20 -8q-8 0 -15 10q-6 9 -15 25.5t-15 26.5l-13 24q-1 7 -6 7q-4 0 -10 -7q-48 -51 -76 -76q-10 -10 -19 -10q-6 0 -16 8q-8 6 -8 15z
" />
    <glyph glyph-name="plus" unicode="+" horiz-adv-x="431" 
d="M159 92q0 4 2 14l22 107v2q0 9 -10 9h-111q-16 0 -23.5 5.5t-4.5 19.5q4 16 14.5 23.5t31.5 7.5h104q13 0 16 13l24 111q3 16 14 23.5t23 7.5q20 0 20 -20q0 -7 -1 -11l-24 -111l-1 -5q0 -8 8 -8h114q13 0 19.5 -7t6.5 -17q0 -32 -38 -32h-114q-10 0 -12 -10l-24 -113
q-3 -16 -10.5 -24.5t-21.5 -8.5q-24 0 -24 24z" />
    <glyph glyph-name="comma" unicode="," horiz-adv-x="241" 
d="M-9.5 -101q-3.5 4 -3.5 9q0 11 13 17q58 24 65 56v4q0 5 -3.5 7.5t-12.5 4.5q-17 2 -27 13.5t-10 30.5q0 32 24.5 54.5t56.5 22.5q28 0 42.5 -14.5t14.5 -41.5q0 -9 -4 -29q-10 -44 -36.5 -75.5t-57.5 -47t-53 -15.5q-5 0 -8.5 4z" />
    <glyph glyph-name="hyphen" unicode="-" horiz-adv-x="330" 
d="M54 218q-13 0 -18.5 4t-3.5 14q3 16 13.5 27t26.5 11h209q25 0 21 -18q-3 -16 -13.5 -27t-25.5 -11h-209z" />
    <glyph glyph-name="period" unicode="." horiz-adv-x="236" 
d="M23 1q-13 12 -13 32q0 9 3 19q8 29 32 47.5t52 18.5q23 0 37 -13t14 -34q0 -33 -27.5 -57.5t-62.5 -24.5q-22 0 -35 12z" />
    <glyph glyph-name="slash" unicode="/" horiz-adv-x="531" 
d="M34 -140q-15 -22 -25.5 -30.5t-33.5 -8.5q-28 0 -28 13q0 9 13 29l551 815q18 25 28 32.5t33 7.5q27 0 27 -14q0 -8 -13 -28z" />
    <glyph glyph-name="zero" unicode="0" horiz-adv-x="640" 
d="M465.5 28.5q66.5 39.5 105 106.5t38.5 146q0 80 -40 146t-106 104.5t-142 38.5q-81 0 -147.5 -40t-104 -107t-37.5 -144q0 -76 38.5 -143t104.5 -107t145 -40t145.5 39.5zM145 475q36 31 81.5 48.5t94.5 17.5q48 0 92.5 -18t78.5 -48h-347zM514 454q66 -80 66 -175
q0 -46 -15.5 -88.5t-43.5 -77.5h-346zM125 104q-31 36 -48 81t-17 94q2 97 58 167h346zM146 84h349q-37 -30 -81.5 -47.5t-92.5 -17.5q-95 0 -175 65z" />
    <glyph glyph-name="one" unicode="1" horiz-adv-x="640" 
d="M465.5 28.5q66.5 39.5 105 106.5t38.5 146q0 80 -40 146t-106 104.5t-142 38.5q-81 0 -147.5 -40t-104 -107t-37.5 -144q0 -76 38.5 -143t104.5 -107t145 -40t145.5 39.5zM145 475q36 31 81.5 48.5t94.5 17.5q48 0 92.5 -18t78.5 -48h-347zM514 454q66 -80 66 -175
q0 -46 -15.5 -88.5t-43.5 -77.5h-346zM125 104q-31 36 -48 81t-17 94q2 97 58 167h346zM146 84h349q-37 -30 -81.5 -47.5t-92.5 -17.5q-95 0 -175 65z" />
    <glyph glyph-name="two" unicode="2" horiz-adv-x="640" 
d="M465.5 28.5q66.5 39.5 105 106.5t38.5 146q0 80 -40 146t-106 104.5t-142 38.5q-81 0 -147.5 -40t-104 -107t-37.5 -144q0 -76 38.5 -143t104.5 -107t145 -40t145.5 39.5zM145 475q36 31 81.5 48.5t94.5 17.5q48 0 92.5 -18t78.5 -48h-347zM514 454q66 -80 66 -175
q0 -46 -15.5 -88.5t-43.5 -77.5h-346zM125 104q-31 36 -48 81t-17 94q2 97 58 167h346zM146 84h349q-37 -30 -81.5 -47.5t-92.5 -17.5q-95 0 -175 65z" />
    <glyph glyph-name="three" unicode="3" horiz-adv-x="640" 
d="M465.5 28.5q66.5 39.5 105 106.5t38.5 146q0 80 -40 146t-106 104.5t-142 38.5q-81 0 -147.5 -40t-104 -107t-37.5 -144q0 -76 38.5 -143t104.5 -107t145 -40t145.5 39.5zM145 475q36 31 81.5 48.5t94.5 17.5q48 0 92.5 -18t78.5 -48h-347zM514 454q66 -80 66 -175
q0 -46 -15.5 -88.5t-43.5 -77.5h-346zM125 104q-31 36 -48 81t-17 94q2 97 58 167h346zM146 84h349q-37 -30 -81.5 -47.5t-92.5 -17.5q-95 0 -175 65z" />
    <glyph glyph-name="four" unicode="4" horiz-adv-x="640" 
d="M465.5 28.5q66.5 39.5 105 106.5t38.5 146q0 80 -40 146t-106 104.5t-142 38.5q-81 0 -147.5 -40t-104 -107t-37.5 -144q0 -76 38.5 -143t104.5 -107t145 -40t145.5 39.5zM145 475q36 31 81.5 48.5t94.5 17.5q48 0 92.5 -18t78.5 -48h-347zM514 454q66 -80 66 -175
q0 -46 -15.5 -88.5t-43.5 -77.5h-346zM125 104q-31 36 -48 81t-17 94q2 97 58 167h346zM146 84h349q-37 -30 -81.5 -47.5t-92.5 -17.5q-95 0 -175 65z" />
    <glyph glyph-name="five" unicode="5" horiz-adv-x="640" 
d="M465.5 28.5q66.5 39.5 105 106.5t38.5 146q0 80 -40 146t-106 104.5t-142 38.5q-81 0 -147.5 -40t-104 -107t-37.5 -144q0 -76 38.5 -143t104.5 -107t145 -40t145.5 39.5zM145 475q36 31 81.5 48.5t94.5 17.5q48 0 92.5 -18t78.5 -48h-347zM514 454q66 -80 66 -175
q0 -46 -15.5 -88.5t-43.5 -77.5h-346zM125 104q-31 36 -48 81t-17 94q2 97 58 167h346zM146 84h349q-37 -30 -81.5 -47.5t-92.5 -17.5q-95 0 -175 65z" />
    <glyph glyph-name="six" unicode="6" horiz-adv-x="640" 
d="M465.5 28.5q66.5 39.5 105 106.5t38.5 146q0 80 -40 146t-106 104.5t-142 38.5q-81 0 -147.5 -40t-104 -107t-37.5 -144q0 -76 38.5 -143t104.5 -107t145 -40t145.5 39.5zM145 475q36 31 81.5 48.5t94.5 17.5q48 0 92.5 -18t78.5 -48h-347zM514 454q66 -80 66 -175
q0 -46 -15.5 -88.5t-43.5 -77.5h-346zM125 104q-31 36 -48 81t-17 94q2 97 58 167h346zM146 84h349q-37 -30 -81.5 -47.5t-92.5 -17.5q-95 0 -175 65z" />
    <glyph glyph-name="seven" unicode="7" horiz-adv-x="640" 
d="M465.5 28.5q66.5 39.5 105 106.5t38.5 146q0 80 -40 146t-106 104.5t-142 38.5q-81 0 -147.5 -40t-104 -107t-37.5 -144q0 -76 38.5 -143t104.5 -107t145 -40t145.5 39.5zM145 475q36 31 81.5 48.5t94.5 17.5q48 0 92.5 -18t78.5 -48h-347zM514 454q66 -80 66 -175
q0 -46 -15.5 -88.5t-43.5 -77.5h-346zM125 104q-31 36 -48 81t-17 94q2 97 58 167h346zM146 84h349q-37 -30 -81.5 -47.5t-92.5 -17.5q-95 0 -175 65z" />
    <glyph glyph-name="eight" unicode="8" horiz-adv-x="640" 
d="M465.5 28.5q66.5 39.5 105 106.5t38.5 146q0 80 -40 146t-106 104.5t-142 38.5q-81 0 -147.5 -40t-104 -107t-37.5 -144q0 -76 38.5 -143t104.5 -107t145 -40t145.5 39.5zM145 475q36 31 81.5 48.5t94.5 17.5q48 0 92.5 -18t78.5 -48h-347zM514 454q66 -80 66 -175
q0 -46 -15.5 -88.5t-43.5 -77.5h-346zM125 104q-31 36 -48 81t-17 94q2 97 58 167h346zM146 84h349q-37 -30 -81.5 -47.5t-92.5 -17.5q-95 0 -175 65z" />
    <glyph glyph-name="nine" unicode="9" horiz-adv-x="640" 
d="M465.5 28.5q66.5 39.5 105 106.5t38.5 146q0 80 -40 146t-106 104.5t-142 38.5q-81 0 -147.5 -40t-104 -107t-37.5 -144q0 -76 38.5 -143t104.5 -107t145 -40t145.5 39.5zM145 475q36 31 81.5 48.5t94.5 17.5q48 0 92.5 -18t78.5 -48h-347zM514 454q66 -80 66 -175
q0 -46 -15.5 -88.5t-43.5 -77.5h-346zM125 104q-31 36 -48 81t-17 94q2 97 58 167h346zM146 84h349q-37 -30 -81.5 -47.5t-92.5 -17.5q-95 0 -175 65z" />
    <glyph glyph-name="colon" unicode=":" horiz-adv-x="236" 
d="M23 2q-13 12 -13 32q0 9 3 19q8 29 32 47.5t52 18.5q23 0 37 -13t14 -34q0 -33 -27.5 -57.5t-62.5 -24.5q-22 0 -35 12zM101 365q-13 12 -13 32q0 9 3 19q8 29 32 47.5t52 18.5q23 0 37 -13t14 -34q0 -33 -27.5 -57.5t-62.5 -24.5q-22 0 -35 12z" />
    <glyph glyph-name="semicolon" unicode=";" horiz-adv-x="242" 
d="M107 364q-13 12 -13 32q0 9 3 19q8 29 32 48t52 19q23 0 36.5 -13t13.5 -34q0 -33 -27 -58t-62 -25q-22 0 -35 12zM-9.5 -95.5q-3.5 3.5 -3.5 8.5q0 11 13 17q57 24 63 54v3q0 10 -16 13q-16 2 -26 13t-10 30q0 31 24 52.5t55 21.5q27 0 40.5 -14.5t13.5 -41.5
q0 -12 -3 -27q-9 -42 -35 -72.5t-56 -45.5t-51 -15q-5 0 -8.5 3.5z" />
    <glyph glyph-name="less" unicode="&#x3c;" horiz-adv-x="470" 
d="M380 64q-4 0 -16 2q-58 15 -138 49t-139 66q-53 29 -53 60q0 7 1 11q5 20 24 37t60 34q80 34 170.5 67t154.5 48q14 2 17 2q16 0 16 -14q0 -5 -1 -9q-3 -15 -12.5 -23t-30.5 -15q-41 -12 -148 -52.5t-149 -59.5q-3 -1 -9 -4t-8 -5.5t-3 -6.5q0 -7 13 -15q33 -17 124 -58
t126 -53q15 -5 21.5 -11.5t6.5 -15.5q0 -34 -27 -34z" />
    <glyph glyph-name="equal" unicode="=" horiz-adv-x="444" 
d="M81 289q-19 0 -28 4t-6 14q3 16 18 27t38 11h296q36 0 33 -19q-3 -16 -18 -26.5t-37 -10.5h-296zM52 152q-19 0 -28 4t-6 14q3 16 18 27t38 11h296q36 0 33 -19q-3 -16 -18 -26.5t-37 -10.5h-296z" />
    <glyph glyph-name="greater" unicode="&#x3e;" horiz-adv-x="470" 
d="M13 110q9 8 31 15q39 12 147.5 52.5t149.5 58.5q19 10 19 15l1 4q0 3 -2.5 5t-5.5 3.5t-6 3.5q-34 19 -124 59.5t-125 52.5q-18 7 -24.5 15t-3.5 23q6 23 26 23q4 0 16 -2q56 -15 133.5 -48t142.5 -67q29 -15 41.5 -29t12.5 -30q0 -24 -17.5 -43t-65.5 -40
q-72 -31 -166.5 -65.5t-158.5 -49.5l-17 -2q-12 0 -15.5 5.5t-1.5 17.5q4 15 13 23z" />
    <glyph glyph-name="question" unicode="?" horiz-adv-x="529" 
d="M218 192q0 6 1 9q9 43 29 75t44.5 53.5t62.5 49.5q50 36 78 66.5t37 75.5q4 19 4 38q0 48 -28.5 75t-77.5 27q-65 0 -116 -42t-65 -104q-5 -25 -19.5 -39t-33.5 -14q-15 0 -24.5 9.5t-9.5 25.5q0 5 2 15q11 54 51.5 99.5t100 72.5t126.5 27q82 0 131 -38t49 -104
q0 -20 -4 -39q-9 -42 -30 -73t-47.5 -52t-68.5 -49q-60 -40 -93.5 -72t-50.5 -83q-9 -11 -16 -17.5t-16 -6.5q-16 0 -16 15zM160 2.5q-14 13.5 -14 34.5q0 4 2 14q6 28 27.5 46.5t49.5 18.5q24 0 39 -13.5t15 -35.5q0 -33 -24 -55.5t-57 -22.5q-24 0 -38 13.5z" />
    <glyph glyph-name="at" unicode="@" horiz-adv-x="707" 
d="M568 455q54 -26 83.5 -71.5t29.5 -102.5q0 -20 -5 -48q-15 -68 -53 -124.5t-88.5 -88.5t-100.5 -32q-65 0 -65 50q0 12 5 30q-28 -37 -63 -58.5t-74 -21.5q-40 0 -63.5 23.5t-23.5 64.5q0 19 4 35q12 56 45 107.5t80.5 83t99.5 31.5q36 0 58 -16.5t26 -46.5l17 40
q4 12 20.5 17.5t35.5 5.5q7 0 10.5 -3.5t0.5 -10.5l-101 -225q-13 -29 -13 -44q0 -23 32 -23q35 0 72 28t65.5 75.5t40.5 101.5q4 19 4 41q0 49 -24.5 89t-72.5 63.5t-118 23.5q-96 0 -178.5 -43.5t-137.5 -116t-73 -157.5q-7 -31 -7 -62q0 -61 27.5 -107t78 -71.5
t119.5 -25.5q72 0 130.5 21t99.5 53q11 7 21 7q15 0 15 -9q0 -5 -7 -11q-48 -41 -118 -67t-149 -26q-76 0 -133 28t-88 79t-31 118q0 30 8 68q21 97 81.5 178t151.5 128.5t199 47.5q73 0 127 -26zM418.5 279q-14.5 17 -40.5 17q-34 0 -66 -25.5t-55 -65t-31 -79.5
q-3 -15 -3 -29q0 -30 14.5 -47.5t40.5 -17.5q37 0 73 37t59 86.5t23 79.5q0 27 -14.5 44z" />
    <glyph glyph-name="A" unicode="A" horiz-adv-x="735" 
d="M-41 19q1 9 10.5 15.5t20.5 8.5q28 3 41.5 8t24.5 17.5t28 41.5l306 512q7 12 7 21q0 15 -18 18q-15 5 -15 17q0 7 8 15.5t26 8.5h53q35 0 47 -13.5t16 -37.5l95 -547q5 -26 10 -36t14.5 -14t35.5 -7q20 -5 16 -25q-6 -23 -36 -23h-121h-61q-25 0 -37 3t-12 13
q0 18 22 23q39 5 53 12.5t14 29.5q0 5 -2 21l-15 87q-2 15 -10 22.5t-24 7.5h-219q-22 0 -31 -4.5t-20 -22.5l-50 -85q-19 -33 -19 -44t11.5 -15t40.5 -7q21 -5 21 -17q0 -14 -11.5 -19.5t-27.5 -5.5q-22 1 -84 1t-84 -1q-30 0 -24 21zM451 265q29 0 25 24l-45 290q0 5 -2 8
t-4 3q-5 0 -11 -11l-126 -213q-14 -25 -25.5 -44.5t-20.5 -34.5q-4 -7 -4 -11q0 -11 23 -11h190z" />
    <glyph glyph-name="B" unicode="B" horiz-adv-x="628" 
d="M-14 14q0 22 28 32q32 6 46.5 13t21.5 19t12 37l99 469q5 22 5 32q0 15 -11 23t-42 16q-23 9 -19 25q3 13 11.5 17t29.5 4l47 -1q41 0 123 2l94 1q97 0 145.5 -33t48.5 -89q0 -61 -36 -109t-87 -70q-9 -3 -9 -8q0 -3 6 -6q46 -13 79.5 -46.5t33.5 -91.5q0 -53 -29 -110.5
t-103 -100t-198 -42.5l-162 1q-42 1 -102 1q-32 0 -32 15zM360 409q55 0 93 25t56.5 62t18.5 73q0 43 -26.5 67t-78.5 24h-90q-20 0 -29.5 -9t-14.5 -32l-38 -175q-2 -12 -2 -15q0 -11 6.5 -15.5t23.5 -4.5h81zM285 47q73 0 124 31t76.5 78t25.5 96q0 56 -39 85t-110 29h-83
q-25 0 -36 -7.5t-15 -24.5l-48 -228q-3 -12 -3 -23q0 -36 39 -36h69z" />
    <glyph glyph-name="C" unicode="C" horiz-adv-x="639" 
d="M168 22.5q-58 33.5 -90 94.5t-32 142q0 104 51 209.5t142 174t206 68.5q62 0 112 -22t79 -61t29 -88q0 -30 -16.5 -54.5t-46.5 -24.5q-19 0 -25.5 14t-15.5 61q-3 55 -38 89.5t-92 34.5q-82 0 -145 -58.5t-97 -145t-34 -166.5q0 -100 49 -159.5t146 -59.5
q75 0 136.5 40.5t87.5 103.5q7 13 20 13q9 0 14 -6.5t2 -17.5q-16 -54 -58 -103t-106 -80.5t-143 -31.5q-77 0 -135 33.5z" />
    <glyph glyph-name="D" unicode="D" horiz-adv-x="708" 
d="M174.5 -3.5q-23.5 0.5 -39.5 0.5q-52 2 -117 2q-32 0 -32 15q0 22 28 32q32 6 47 13t21.5 19.5t11.5 37.5l99 467q5 22 5 31q0 15 -11.5 24t-41.5 17q-23 8 -19 25q3 13 11.5 17t29.5 4h37q31 0 79 2l67 1q169 0 263 -71t94 -202q0 -117 -53.5 -216t-159 -159t-254.5 -60
q-42 0 -65.5 0.5zM449.5 103.5q79.5 58.5 118.5 147t39 178.5q0 109 -69 168.5t-189 59.5q-28 0 -39 -7.5t-17 -31.5l-113 -530q-2 -10 -2 -14q0 -18 16 -23.5t62 -5.5q114 0 193.5 58.5z" />
    <glyph glyph-name="E" unicode="E" horiz-adv-x="634" 
d="M605 209q0 -12 -11 -39t-36 -77q-26 -53 -38.5 -75t-20.5 -29t-18 -7t-17.5 5.5t-16.5 9t-31 3.5q-211 0 -279.5 -0.5t-87.5 -0.5h-31q-18 0 -25.5 3.5t-7.5 12.5q0 19 29 31q33 6 48 13.5t21.5 21t12.5 42.5l97 454q5 25 5 36q0 18 -11.5 26t-43.5 15q-21 9 -17 25
q3 13 12 17.5t30 4.5h101q55 -1 256 -1q31 0 51 11q12 7 23 7q10 0 14 -7t7 -29t6 -75q4 -43 4 -75q0 -34 -6.5 -45.5t-22.5 -11.5q-20 0 -25 26q-7 75 -12.5 104t-17 38.5t-39.5 9.5h-162q-20 0 -29.5 -3.5t-15 -14.5t-10.5 -35l-38 -176q-2 -12 -2 -15q0 -16 18 -16h97
q17 0 24.5 5t10 18.5t1.5 41.5q2 16 7 23.5t17 7.5t17 -7t7 -28.5t5 -80.5l2 -68q0 -33 -5.5 -44t-20.5 -11q-11 0 -15.5 5.5t-6.5 18.5q-2 34 -4.5 48t-9.5 19t-23 5h-107q-17 0 -24.5 -9t-11.5 -29l-46 -216q-3 -16 -3 -25q0 -12 8 -16t31 -4h205q26 0 43.5 11.5t36 41.5
t50.5 98q7 16 15 21.5t19 5.5q18 0 18 -16z" />
    <glyph glyph-name="F" unicode="F" horiz-adv-x="587" 
d="M-7.5 2.5q-7.5 3.5 -7.5 12.5q0 19 29 31q33 6 47.5 13.5t21 20.5t13.5 43l97 454q5 25 5 36q0 18 -11.5 26t-43.5 15q-21 9 -17 25q3 13 12 17.5t30 4.5h97q53 -1 251 -1q32 0 52 11q12 7 23 7t16 -7t7.5 -29.5t5.5 -76.5q2 -50 2 -62q0 -41 -6.5 -54.5t-22.5 -13.5
q-10 0 -16 8.5t-8 22.5q-6 74 -11 102t-16 36.5t-39 8.5h-157q-30 0 -39.5 -9.5t-16.5 -42.5l-40 -188q-3 -10 -3 -17q0 -16 19 -16h93q20 0 28 5.5t10 17.5t2 42q1 16 6.5 23.5t19.5 7.5q12 0 16.5 -8t5.5 -23l7 -167q2 -41 -27 -41q-11 0 -15.5 5.5t-6.5 17.5
q-2 33 -5 47.5t-10.5 19.5t-24.5 5h-101q-20 0 -27 -9t-12 -32l-37 -168q-4 -17 -4 -31q0 -19 15 -27t60 -16q23 -6 23 -22t-12 -22t-41 -6h-211q-18 0 -25.5 3.5z" />
    <glyph glyph-name="G" unicode="G" horiz-adv-x="695" 
d="M172 24q-60 35 -92.5 98t-32.5 144q0 106 53.5 209.5t146.5 169.5t204 66q61 0 111.5 -22t79.5 -61t29 -88q0 -32 -16 -62t-47 -30q-19 0 -27.5 20.5t-13.5 63.5q-3 58 -38 93t-97 35q-85 0 -147.5 -57t-95 -141.5t-32.5 -163.5q0 -71 23 -126.5t65.5 -87t98.5 -31.5
q76 0 120.5 28.5t52.5 67.5l9 45q6 29 6 44q0 22 -13.5 30.5t-52.5 14.5q-17 9 -17 23q0 13 9.5 18.5t29.5 6.5l95 -1l89 1q17 -1 24 -4t7 -11q0 -21 -25 -30q-6 -1 -26 -5t-28 -23.5t-18 -65.5l-10 -49q-15 -69 -88 -111.5t-195 -42.5q-81 0 -141 35z" />
    <glyph glyph-name="H" unicode="H" horiz-adv-x="785" 
d="M-7.5 2.5q-7.5 3.5 -7.5 12.5q0 19 29 31q33 6 47.5 13.5t21 20.5t13.5 43l97 454q5 25 5 36q0 18 -11.5 26t-43.5 15q-21 9 -17 25q3 13 12 17.5t30 4.5h194q17 0 25 -3.5t8 -11.5q0 -20 -29 -32q-33 -6 -47.5 -13.5t-21 -20.5t-12.5 -43l-31 -144q-3 -13 -3 -22
q0 -14 7.5 -18.5t24.5 -4.5h284q22 0 32 9t16 36l31 144q1 6 3.5 18t2.5 19q0 17 -12 25t-44 15q-21 9 -17 25q3 13 12 17.5t30 4.5h194q17 0 25 -3.5t8 -11.5q0 -20 -29 -32q-33 -6 -47.5 -13.5t-21 -20.5t-12.5 -43l-97 -454q-1 -6 -3.5 -18t-2.5 -19q0 -17 12 -25t44 -15
q20 -10 16 -25q-2 -13 -11 -17.5t-30 -4.5h-195q-18 0 -25.5 3.5t-7.5 12.5q0 19 29 31q33 6 47.5 13.5t21 20.5t13.5 43l35 166q3 15 3 23q0 14 -7 18.5t-24 4.5h-284q-23 0 -32.5 -8.5t-16.5 -37.5l-35 -166q-1 -6 -3.5 -18t-2.5 -19q0 -17 12 -25t44 -15q20 -10 16 -25
q-2 -13 -11 -17.5t-30 -4.5h-195q-18 0 -25.5 3.5z" />
    <glyph glyph-name="I" unicode="I" horiz-adv-x="332" 
d="M18 -1q-18 0 -25.5 3.5t-7.5 12.5q0 19 29 31q33 6 48 13.5t21.5 21t12.5 42.5l97 454q5 25 5 36q0 18 -11.5 26t-43.5 15q-21 9 -17 25q3 13 12 17.5t30 4.5q48 0 61 -1h27h16l90 1q17 0 25 -3.5t8 -11.5q0 -21 -28 -32q-33 -6 -48 -13.5t-21.5 -21t-12.5 -42.5
l-97 -454q-5 -25 -5 -37q0 -17 11.5 -25t43.5 -15q21 -9 17 -25q-3 -13 -12 -17.5t-30 -4.5q-49 0 -61 1h-28h-16z" />
    <glyph glyph-name="J" unicode="J" horiz-adv-x="518" 
d="M46 26q-39 37 -39 101q0 27 6 55q5 22 20 36t37 14q18 0 28 -11.5t7 -28.5q-3 -13 -6 -22.5t-5 -18.5q-4 -16 -4 -32q0 -39 23.5 -59t63.5 -20q125 0 162 178q6 23 20 101l33 165l19 89q5 23 5 34q0 18 -13.5 26.5t-53.5 16.5q-25 7 -21 29q3 12 14 17t35 5h196
q15 0 21 -3t6 -11q0 -21 -25 -33q-27 -6 -39.5 -13.5t-18 -20.5t-12.5 -43l-72 -337q-25 -120 -92 -185.5t-174 -65.5q-82 0 -121 37z" />
    <glyph glyph-name="K" unicode="K" horiz-adv-x="734" 
d="M-7.5 2.5q-7.5 3.5 -7.5 12.5q0 19 29 31q33 6 47.5 13.5t21 20.5t13.5 43l97 454q5 25 5 36q0 18 -11.5 26t-43.5 15q-21 9 -17 25q3 13 12 17.5t30 4.5h193q15 0 22 -3.5t7 -11.5q0 -21 -26 -32q-32 -6 -46 -13.5t-20.5 -20.5t-12.5 -43l-41 -191q-1 -3 -1 -8
q0 -8 5 -8q6 0 19 10l281 221q24 20 24 31q0 9 -12 14.5t-37 11.5q-15 9 -12 23q3 13 16 18t39 4q60 -2 87 -2l45 1q13 1 40 1q42 0 37 -24q-5 -21 -34 -26q-30 -2 -46 -4.5t-34 -12.5t-43 -31l-154 -124q-7 -6 -11 -14.5t-4 -17.5t2 -13l136 -338q13 -31 26.5 -41t46.5 -12
q9 -1 14 -6t5 -12q0 -16 -11.5 -22t-33.5 -6h-188q-28 0 -28 16q0 11 7.5 17.5t22.5 10.5q25 3 35.5 8.5t10.5 16.5q0 8 -9 31l-112 263q-7 18 -19 18q-11 0 -26 -13l-82 -65q-12 -10 -19.5 -22t-11.5 -31l-27 -126q-5 -27 -5 -37q0 -17 11 -25t42 -15q17 -8 17 -20
q0 -15 -9.5 -21t-30.5 -6h-195q-18 0 -25.5 3.5z" />
    <glyph glyph-name="L" unicode="L" horiz-adv-x="593" 
d="M429 -12q-8 6 -18 9t-32 3h-271l-90 -1q-18 0 -25.5 3.5t-7.5 12.5q0 19 29 31q33 6 48 13.5t21.5 20.5t12.5 43l97 454q5 25 5 36q0 18 -11.5 26t-43.5 15q-21 9 -17 25q3 13 12 17.5t30 4.5h204q25 0 33.5 -4.5t5.5 -17.5q-3 -16 -31 -25q-39 -6 -56.5 -13.5t-25 -21
t-13.5 -42.5l-102 -476q-3 -16 -3 -26q0 -17 8.5 -22t29.5 -5h168q26 0 44 11.5t37.5 42.5t50.5 96q16 27 35 27q17 0 17 -15q0 -13 -11 -40.5t-37 -78.5q-24 -50 -37 -72.5t-20.5 -29.5t-16.5 -7t-19 6z" />
    <glyph glyph-name="M" unicode="M" horiz-adv-x="896" 
d="M-19.5 4q-8.5 5 -8.5 14q0 11 8.5 17.5t20.5 8.5q32 3 47.5 9t25 21.5t19.5 50.5l135 468q7 26 7 36q0 17 -12.5 23.5t-45.5 9.5q-20 5 -16 21q3 12 12 16t25 4l48 -1q32 -2 49 -2q24 0 29.5 -7t6.5 -27q0 -19 3 -30l92 -489q3 -9 8 -9q7 0 11 9l291 489q9 14 13 35
q5 16 11.5 22.5t27.5 6.5q32 0 49 0.5t27 0.5q11 1 35 1q31 0 31 -17q0 -9 -7.5 -17t-18.5 -10q-33 -3 -46.5 -8t-20.5 -18t-12 -45l-71 -471q-3 -18 -3 -29q0 -23 13 -31.5t49 -10.5q10 -3 15.5 -7t5.5 -11q0 -13 -11 -19.5t-25 -7.5q-145 0 -214 -1q-32 0 -32 18
q0 9 8 16.5t19 9.5q32 3 47 8t22.5 19t12.5 44l68 409v3q0 7 -5 7t-14 -17l-299 -490q-14 -25 -29 -25q-8 0 -13 7t-7 17l-99 491q-3 17 -8 17q-6 0 -9 -10l-111 -416q-6 -21 -6 -33q0 -18 13 -23t51 -8q19 -3 19 -17q0 -27 -42 -27l-85 1l-83 -1q-13 0 -21.5 5z" />
    <glyph glyph-name="N" unicode="N" horiz-adv-x="746" 
d="M-15 12q0 24 26 29q36 5 50.5 13.5t23.5 34.5t24 97l84 397q7 32 7 41q0 17 -11.5 23.5t-42.5 11.5q-12 2 -16.5 7.5t-2.5 15.5q2 11 10 15.5t27 4.5q23 -1 69 -1h48q16 0 23 -13l253 -513q5 -9 12 -9q3 0 6.5 4t4.5 11l85 402q7 32 7 41q0 17 -11.5 23.5t-42.5 11.5
q-12 2 -16.5 7.5t-3.5 15.5q3 11 11 15.5t27 4.5q19 -1 68 -1q69 0 90 1q29 0 29 -14q0 -24 -26 -29q-36 -5 -50.5 -13.5t-23.5 -34.5t-25 -97l-104 -494q-2 -11 -9 -16.5t-17 -5.5q-17 0 -24 16l-288 559q-4 5 -9 5q-3 0 -5.5 -3t-3.5 -7l-95 -451q-7 -31 -7 -41
q0 -17 11.5 -23.5t42.5 -11.5q12 -2 16.5 -7.5t3.5 -15.5q-3 -11 -11 -15.5t-27 -4.5q-26 1 -73 1q-60 0 -85 -1q-29 0 -29 14z" />
    <glyph glyph-name="O" unicode="O" horiz-adv-x="731" 
d="M173.5 21.5q-59.5 32.5 -92.5 93t-33 141.5q0 31 4 58q12 104 68 195t146 146.5t199 55.5q80 0 140 -32.5t93 -92t33 -140.5q0 -30 -4 -57q-12 -105 -68 -197t-146.5 -147.5t-200.5 -55.5q-79 0 -138.5 32.5zM460 90.5q64 50.5 107 132.5t56 173q5 33 5 59q0 91 -46 148
t-128 57q-72 0 -135.5 -50.5t-106.5 -132t-56 -171.5q-5 -35 -5 -61q0 -91 45.5 -148t127.5 -57q72 0 136 50.5z" />
    <glyph glyph-name="P" unicode="P" horiz-adv-x="616" 
d="M-14 14q0 22 28 32q32 7 46.5 14t21.5 19.5t12 37.5l99 466q6 24 6 38q0 16 -11.5 24.5t-41.5 13.5q-12 2 -16.5 7.5t-2.5 15.5q2 11 10 15.5t27 4.5q23 -1 60 -1l78 1q60 2 104 2q123 0 187 -46t64 -128q0 -60 -28 -117t-101 -96.5t-198 -39.5h-72q-25 0 -33 -7.5
t-13 -31.5l-24 -114q-5 -22 -5 -33q0 -18 14.5 -26t55.5 -16q22 -5 22 -20t-9 -22.5t-39 -7.5h-66h-143q-32 0 -32 15zM335 324q75 0 124 27t71.5 70.5t22.5 95.5q0 67 -41 102.5t-124 35.5h-45q-23 0 -35 -10.5t-18 -38.5l-52 -247q-2 -12 -2 -16q0 -10 7 -14.5t26 -4.5h66
z" />
    <glyph glyph-name="Q" unicode="Q" horiz-adv-x="731" 
d="M663.5 200.5q-51.5 -88.5 -135 -145.5t-186.5 -65q62 -23 99 -33.5t78 -10.5q25 0 45.5 6t43.5 17q3 1 15 6t21 5q10 0 15.5 -4.5t5.5 -12.5q0 -14 -17.5 -31t-52.5 -29t-85 -12q-44 0 -83 12t-98 36q-50 22 -83.5 32.5t-68.5 10.5q-26 0 -74 -12q-26 -6 -32 -6
q-13 0 -13 13q0 8 14 18.5t39 19t56 10.5q-56 34 -87.5 93.5t-31.5 138.5q0 30 4 57q12 104 68 195t146 146.5t199 55.5q80 0 140 -32.5t93 -92t33 -140.5q0 -30 -4 -57q-12 -100 -63.5 -188.5zM460 90.5q64 50.5 107 132.5t56 173q5 33 5 59q0 91 -46 148t-128 57
q-72 0 -135.5 -50.5t-106.5 -132t-56 -171.5q-5 -35 -5 -61q0 -91 45.5 -148t127.5 -57q72 0 136 50.5z" />
    <glyph glyph-name="R" unicode="R" horiz-adv-x="707" 
d="M-7 2q-7 3 -7 11q0 23 28 33q32 7 47 14t21.5 19t11.5 37l99 467q5 22 5 32q0 16 -11 24t-42 16q-11 5 -15.5 11t-2.5 16q2 11 10 15.5t27 4.5q16 -1 53 -1l101 1q70 2 103 2q242 0 242 -163q0 -70 -49 -130.5t-151 -87.5q-6 -2 -7.5 -5.5t3.5 -5.5q45 -21 61 -59
t23 -110q5 -58 14.5 -79.5t37.5 -21.5q17 0 27 6t19 15.5t14 9.5q8 0 8 -9q0 -14 -13 -31t-39.5 -29.5t-64.5 -12.5q-42 0 -63.5 18t-28.5 46.5t-8 73.5q-2 85 -28.5 128.5t-90.5 43.5h-63q-23 0 -32.5 -8t-14.5 -33l-30 -143q-5 -22 -5 -31q0 -16 11 -24.5t42 -16.5
q10 -4 15 -9.5t4 -15.5q-3 -11 -11 -16.5t-27 -5.5q-22 1 -99 1h-101q-16 0 -23 3zM341 347q75 0 123.5 27t71 67.5t22.5 82.5q0 66 -38 98.5t-117 32.5h-59q-24 0 -36 -10.5t-18 -39.5l-46 -214q-2 -8 -2 -20t7.5 -18t26.5 -6h65z" />
    <glyph glyph-name="S" unicode="S" horiz-adv-x="575" 
d="M79.5 32q-67.5 43 -67.5 119q0 34 12 60t39 26q16 0 23.5 -10t8.5 -23.5t2 -46.5q1 -56 38.5 -86t113.5 -30q53 0 90.5 20.5t56 53.5t18.5 70q0 48 -35 83t-108 64q-84 34 -121 76.5t-37 104.5q0 89 61.5 143.5t170.5 54.5q66 0 119.5 -21t84 -59.5t30.5 -88.5
q0 -33 -12 -53.5t-39 -20.5q-15 0 -21 9t-7 21.5t-2 45.5q-1 54 -40.5 85t-104.5 31t-102 -32t-37 -93q0 -42 29.5 -69.5t102.5 -56.5q96 -39 139.5 -86t43.5 -116q0 -53 -29.5 -103t-90 -82.5t-149.5 -32.5q-113 0 -180.5 43z" />
    <glyph glyph-name="T" unicode="T" horiz-adv-x="629" 
d="M116.5 2.5q-9.5 3.5 -9.5 13.5q0 18 35 30q42 6 61 13.5t26.5 20.5t13.5 43l101 476q5 22 5 32q0 12 -7 17t-25 5h-67q-24 0 -39 -10.5t-30.5 -37t-48.5 -93.5q-14 -24 -24 -33.5t-23 -9.5q-18 0 -18 16q0 14 10.5 38.5t38.5 83.5q32 67 47 89t30 22q7 0 12.5 -2.5
t7.5 -3.5q9 -6 19 -9t29 -3h300q22 0 34.5 3t24.5 9t20 6q11 0 16 -7.5t7.5 -30t5.5 -73.5t3 -81q0 -32 -6 -44.5t-23 -12.5q-12 0 -18 9.5t-11 33.5q-5 67 -9.5 93.5t-14.5 37t-33 10.5h-68q-26 0 -35 -10.5t-15 -43.5l-101 -472q-5 -27 -5 -38q0 -20 14.5 -28t58.5 -15
q14 -5 20 -11t3 -14q-2 -11 -12.5 -16.5t-35.5 -5.5h-231q-24 0 -33.5 3.5z" />
    <glyph glyph-name="U" unicode="U" horiz-adv-x="740" 
d="M92 168q0 36 9 76l69 323q6 29 6 44q0 20 -11 28.5t-42 14.5q-17 6 -17 22q0 25 40 25l196 -1q17 0 25 -3.5t8 -11.5q0 -22 -28 -31q-33 -7 -48 -14t-22 -20.5t-13 -42.5l-69 -326q-7 -31 -7 -62q0 -68 41.5 -103.5t123.5 -35.5q96 0 158 49t81 139l68 316q9 47 9 58
q0 21 -11.5 28.5t-42.5 12.5q-17 7 -17 22q0 25 42 25h71q47 0 79 1q32 0 32 -17q0 -19 -27 -30q-32 -5 -46.5 -13t-23.5 -26.5t-18 -60.5l-65 -307q-28 -129 -108.5 -193.5t-210.5 -64.5q-231 0 -231 179z" />
    <glyph glyph-name="V" unicode="V" horiz-adv-x="731" 
d="M313 -3q-35 0 -44 43l-66 393l-27 155q-4 27 -11 39.5t-17 16t-34 7.5q-20 7 -16 24q4 15 18.5 20t47.5 5h81q48 0 81 1q27 0 37.5 -4t10.5 -13q0 -10 -6.5 -17.5t-16.5 -10.5q-35 -4 -47.5 -7t-19.5 -9.5t-7 -20.5q0 -13 2 -22l73 -470q3 -13 8 -13q6 0 13 13
q186 320 280 480q11 20 11 27q0 10 -11 13t-30 4.5t-26 2.5q-13 3 -13 16q0 16 10.5 23.5t34.5 7.5q15 0 23 -1l73 -1q15 0 65 2q34 0 30 -23q-3 -11 -9.5 -16.5t-18.5 -8.5q-34 -3 -50.5 -12.5t-35.5 -42.5q-111 -186 -331 -558q-13 -21 -28.5 -32t-31.5 -11h-2z" />
    <glyph glyph-name="W" unicode="W" horiz-adv-x="1053" 
d="M277 -3q-38 0 -43 43l-58 541q-3 30 -9.5 44t-18 19t-35.5 8q-18 6 -15 24q4 15 18.5 20t46.5 5q40 -1 85 -1q43 0 78 1q26 0 34.5 -6t5.5 -19q-1 -6 -7 -12t-14 -8q-42 -2 -54.5 -9t-12.5 -27l2 -32q12 -156 38 -468q2 -12 7 -12q6 0 12 12l216 396q18 30 18 65
q0 13 -1 19q-1 28 -14 38t-49 13q-8 5 -11.5 8.5t-3.5 10.5q0 30 43 30q31 -2 101 -2q58 0 85 1q36 0 36 -17t-25 -29q-37 -3 -52 -7.5t-19 -14t-2 -32.5l37 -479q2 -10 7 -10q6 0 11 10q118 217 198 368l63 117q11 20 11 28q0 10 -14 13.5t-60 7.5q-16 7 -14 22
q3 13 13.5 19t31.5 6q36 -1 86 -1t83 1q30 0 30 -18q0 -14 -7.5 -20t-21.5 -9q-30 -3 -44.5 -7.5t-23.5 -15t-23 -34.5l-301 -557q-24 -43 -61 -43h-3q-19 0 -31 10.5t-13 31.5l-15 207q-10 138 -16 206q0 11 -5 11q-4 0 -11 -11l-226 -412q-24 -43 -60 -43h-3z" />
    <glyph glyph-name="X" unicode="X" horiz-adv-x="739" 
d="M-29 13q0 11 8.5 19t26.5 14q25 2 38.5 6t23.5 12.5t31 31.5l230 246q12 14 12 27q0 4 -2 10l-109 225q-11 24 -16 31t-16 10.5t-40 7.5q-15 3 -15 16q0 20 12 26.5t38 5.5q54 -2 85 -2l57 1q19 1 56 1q30 0 30 -16q0 -21 -25 -29q-37 -3 -51.5 -7.5t-14.5 -16.5
q0 -6 4 -14l86 -179q6 -11 14 -11t17 10l158 174q17 19 17 28q0 15 -57 18q-17 8 -17 20q0 24 42 24q62 -2 79 -2q23 0 87 2q27 0 27 -17q0 -11 -8 -18.5t-25 -13.5q-25 -2 -38 -6t-23.5 -13t-32.5 -31l-192 -208q-18 -20 -11 -33l118 -245q17 -34 24.5 -45.5t19.5 -16.5
t42 -9q7 -3 10.5 -7t3.5 -10q0 -17 -10.5 -24.5t-39.5 -7.5q-29 1 -84 1q-62 0 -108 -1q-18 0 -25.5 5t-5.5 17q2 9 7.5 14.5t17.5 9.5q34 3 45.5 6.5t11.5 15.5q0 10 -14 40l-93 193q-6 12 -13 12t-16 -10l-197 -213q-18 -21 -18 -29q0 -7 12 -11.5t39 -6.5q22 -9 19 -22
q-3 -12 -13.5 -16.5t-29.5 -4.5q-39 1 -96 1q-41 0 -65 -1q-28 0 -28 16z" />
    <glyph glyph-name="Y" unicode="Y" horiz-adv-x="677" 
d="M170 2.5q-8 3.5 -8 11.5q0 20 29 32q33 6 47.5 13.5t21 20.5t12.5 43l27 125q2 10 2 17q0 23 -9 47l-108 292q-10 28 -24 36.5t-46 10.5q-10 4 -14 9.5t-2 16.5q4 14 15.5 19.5t32.5 4.5q18 -1 72 -1q83 0 118 1q24 0 33 -5.5t7 -15.5q-5 -18 -25 -25q-37 -4 -52 -10
t-15 -19q0 -4 4 -16l93 -246q3 -9 9 -9t12 9l200 254q9 12 9 19q0 10 -15 14.5t-51 6.5q-7 4 -9.5 8.5t-0.5 12.5q3 12 12 17t26 5q35 -1 102 -1q45 0 66 1q26 0 26 -15q0 -23 -33 -33q-22 -1 -34 -5.5t-20 -13t-26 -30.5l-230 -287q-25 -32 -32 -68l-25 -116q-7 -35 -7 -45
q0 -19 11.5 -27.5t42.5 -14.5q18 -7 18 -19q0 -28 -39 -28h-198q-17 0 -25 3.5z" />
    <glyph glyph-name="Z" unicode="Z" horiz-adv-x="612" 
d="M439 -12q-46 12 -89 12h-345q-12 0 -19 4.5t-7 11.5q0 16 21 37l529 579q8 10 8 14q0 7 -12 7h-236q-25 0 -40.5 -10t-33.5 -40t-54 -101q-9 -15 -16.5 -21t-18.5 -6q-17 0 -17 17q0 27 46 115l10 18q18 35 30.5 57.5t19.5 29t16 6.5q7 0 21 -6q13 -6 24.5 -9t31.5 -3
h354q8 0 13 -3.5t6 -7.5q0 -13 -12 -25l-540 -583q-17 -19 -17 -27q0 -7 14 -7h279q22 0 38 10.5t36 43t54 101.5q16 24 34 24q15 0 15 -17q0 -32 -46 -117q-22 -43 -36.5 -69.5t-21.5 -33t-16 -6.5q-6 0 -23 5z" />
    <glyph glyph-name="bracketleft" unicode="[" horiz-adv-x="315" 
d="M13 -154q-24 0 -33.5 6.5t-9.5 19.5q0 4 2 18l172 805q5 23 17.5 33.5t42.5 10.5h169q10 0 13.5 -5t1.5 -17q-5 -22 -25 -22h-105q-15 0 -23 -6.5t-11 -18.5l-160 -755q-1 -3 -1 -8q0 -17 23 -17h104q11 0 15 -5t3 -17q-5 -22 -26 -22h-169z" />
    <glyph glyph-name="backslash" unicode="\" horiz-adv-x="548" 
d="M141 676q-2 14 -2 17q0 13 7.5 19t26.5 6q24 0 31 -8t11 -32l206 -815q3 -11 3 -19q0 -12 -8 -17.5t-27 -5.5q-23 0 -30.5 8.5t-13.5 30.5z" />
    <glyph glyph-name="bracketright" unicode="]" horiz-adv-x="317" 
d="M-41 -154q-9 0 -13 3t-4 11q0 5 1 8q2 12 8.5 17t17.5 5h104q28 0 33 25l160 755q1 3 1 9q0 16 -22 16h-106q-17 0 -17 14q0 5 1 8q5 22 25 22h169q24 0 34 -6.5t10 -19.5q0 -7 -3 -18l-171 -805q-5 -24 -17.5 -34t-42.5 -10h-168z" />
    <glyph glyph-name="asciicircum" unicode="^" horiz-adv-x="371" 
d="M98 526.5q-3 3.5 -3 6.5q0 15 60.5 67.5t97.5 73.5q15 8 27 8q10 0 23 -8q24 -19 62 -71t38 -68q0 -4 -4.5 -8t-10.5 -4q-5 0 -18.5 11.5t-25.5 24.5q-68 68 -76 68q-3 0 -35 -20.5t-69 -47.5q-20 -15 -37.5 -25.5t-20.5 -10.5q-5 0 -8 3.5z" />
    <glyph glyph-name="underscore" unicode="_" horiz-adv-x="492" 
d="M-54 -143q-24 0 -24 12q0 13 10 21.5t25 8.5h439q22 0 22 -12q0 -13 -10 -21.5t-23 -8.5h-439z" />
    <glyph glyph-name="grave" unicode="`" horiz-adv-x="255" 
d="M224.5 554q-36.5 31 -68.5 66.5t-32 48.5q0 10 8.5 14t28.5 4t31 -3.5t14 -15.5q-2 3 28 -44q53 -80 52 -90q-1 -11 -14 -11q-11 0 -47.5 31z" />
    <glyph glyph-name="a" unicode="a" horiz-adv-x="573" 
d="M56.5 29.5q-35.5 40.5 -35.5 115.5q0 77 30.5 155.5t89 130t135.5 51.5q40 0 66 -17t47 -41q18 -17 32 -17q7 0 12 5.5t15 25.5q13 27 20 35.5t16 8.5t13 -5.5t2 -13.5l-74 -344q-3 -12 -3 -23q0 -17 7.5 -27t23.5 -10q36 0 62 71q6 8 15 8q6 0 9.5 -4t3.5 -12t-4 -16
q-19 -53 -51.5 -85t-75.5 -32q-37 0 -56 22.5t-19 59.5q0 19 4 35v4q0 4 -1 6.5t-3 2.5q-4 0 -7 -6q-38 -55 -79.5 -89.5t-96.5 -34.5q-62 0 -97.5 40.5zM268.5 90.5q35.5 31.5 61 77t35.5 86.5q8 29 10.5 46t2.5 38q0 45 -25 72.5t-65 27.5q-51 0 -90.5 -43t-61 -106
t-21.5 -117q0 -55 21.5 -84t57.5 -29q39 0 74.5 31.5z" />
    <glyph glyph-name="b" unicode="b" horiz-adv-x="529" 
d="M146 33q-23 20 -37 20q-11 0 -26 -20t-24.5 -28.5t-18.5 -8.5q-14 0 -14 13q0 8 3 15q17 59 31 124l95 454q2 14 2 18q0 22 -20 27q-4 1 -22 4q-16 2 -22.5 4t-6.5 9q1 10 9 15t23 9q98 18 120 18q23 0 23 -17q0 -6 -1 -10l-65 -308q-4 -17 1 -17q3 0 12 13
q81 116 179 116q55 0 88.5 -40t33.5 -118q0 -73 -30.5 -151.5t-88 -131.5t-134.5 -53q-64 0 -110 44zM334 79q39 46 60 109.5t21 110.5q0 56 -20.5 83t-56.5 27q-39 0 -76.5 -31.5t-64.5 -78.5t-37 -93q-10 -42 -10 -72q0 -47 26 -74t68 -27q51 0 90 46z" />
    <glyph glyph-name="c" unicode="c" horiz-adv-x="455" 
d="M72 39.5q-46 50.5 -46 133.5q0 75 34.5 147t97 117.5t141.5 45.5q35 0 68 -15.5t53 -43.5t20 -63q0 -26 -10 -43.5t-30 -17.5q-18 0 -23.5 10.5t-7 26t-2.5 22.5q-7 79 -74 79q-50 0 -89.5 -36.5t-61 -93.5t-21.5 -115q0 -64 28.5 -102.5t85.5 -38.5q71 0 137 70
q10 10 18 10q6 0 9 -4.5t3 -10.5t-3 -12q-33 -50 -84 -83t-115 -33q-82 0 -128 50.5z" />
    <glyph glyph-name="d" unicode="d" horiz-adv-x="570" 
d="M57 29.5q-36 40.5 -36 115.5q0 77 31 155.5t88.5 130t134.5 51.5q43 0 68.5 -18t39 -35.5t15.5 -17.5q3 0 6 17l35 174q2 14 2 19q0 21 -20 26l-23 4q-15 2 -21 4t-6 8q0 11 8 16t24 9q96 18 120 18q23 0 23 -16q0 -3 -2 -11l-119 -565q-2 -14 -2 -20q0 -35 29 -35
q20 0 35 18t29 53q6 7 15 7q12 0 12 -14q0 -8 -4 -17q-19 -53 -51 -85t-75 -32q-37 0 -56 22t-19 59q0 20 4 37v4q0 7 -4 7q-3 0 -9 -6q-35 -53 -77.5 -88t-97.5 -35q-61 0 -97 40.5zM269 91q36 32 61.5 77.5t35.5 84.5q13 46 13 85q0 45 -24.5 72.5t-64.5 27.5
q-51 0 -91 -43t-62 -105.5t-22 -116.5q0 -56 21.5 -85t57.5 -29q39 0 75 32z" />
    <glyph glyph-name="e" unicode="e" horiz-adv-x="426" 
d="M70.5 39q-44.5 50 -44.5 131q0 79 34.5 151.5t96.5 117t139 44.5q54 0 86.5 -29t32.5 -74q0 -78 -63 -123t-219 -62q-6 -1 -8.5 -3.5t-2.5 -11.5q0 -58 26.5 -93t83.5 -35q38 0 67.5 18t60.5 52q9 9 18 9q5 0 9 -4t4 -10t-4 -13q-30 -50 -80 -82.5t-113 -32.5
q-79 0 -123.5 50zM286 276.5q61 28.5 63 94.5q0 31 -15.5 49t-49.5 18q-42 0 -77 -30.5t-56.5 -75.5t-26.5 -86v-3q0 -12 14 -9q87 14 148 42.5z" />
    <glyph glyph-name="f" unicode="f" horiz-adv-x="307" 
d="M19 -107.5q-5 6.5 -2 15.5q7 32 13 52q11 42 18 76l78 372v5q0 15 -18 15h-52q-6 0 -9.5 5t-1.5 12q3 12 11 19.5t15 7.5h66q1 7 -1 28l-1 32q0 33 6 59q12 56 61 92t122 36q55 0 94.5 -26t39.5 -68q0 -6 -2 -18q-3 -14 -13.5 -24t-26.5 -10q-15 0 -22 9t-9 27
q4 33 -15.5 49.5t-54.5 16.5q-40 0 -68 -23t-36 -61q-4 -17 -4 -35q0 -25 7 -51q4 -22 5 -33h118q18 0 15 -15q-3 -12 -11 -20.5t-17 -8.5h-79q-13 0 -20.5 -4.5t-9.5 -16.5l-81 -382q-14 -70 -20 -106q-2 -19 -17 -25.5t-62 -7.5q-11 0 -16 6.5z" />
    <glyph glyph-name="g" unicode="g" horiz-adv-x="507" 
d="M65 -171q-42 15 -69 48q-22 18 -22 40q0 15 9.5 25.5t24.5 10.5t25.5 -6.5t19.5 -21.5q15 -27 40 -45.5t71 -18.5q127 0 166 178l15 72v5q0 7 -3 8.5t-7 -4.5q-37 -53 -79.5 -86.5t-99.5 -33.5q-62 0 -97.5 40.5t-35.5 111.5q0 80 30.5 156t89.5 125t139 49
q39 0 63.5 -16.5t45.5 -41.5q8 -8 16.5 -12.5t13.5 -4.5q7 0 12.5 5.5t15.5 25.5q14 27 21 35.5t15 8.5q9 0 13 -5.5t2 -13.5l-90 -423q-26 -120 -95 -173t-161 -53q-47 0 -89 15zM275 100q34 30 58 73t34 83q8 29 10 44.5t2 37.5q0 44 -24 72t-62 28q-51 0 -91 -41
t-62 -102t-22 -116q0 -53 22 -81t62 -28q39 0 73 30z" />
    <glyph glyph-name="h" unicode="h" horiz-adv-x="587" 
d="M344 71q0 20 7 53l40 173q6 26 6 44q0 34 -16 51t-43 17q-36 0 -73.5 -28t-67 -78t-41.5 -114q-18 -86 -31 -162q-2 -19 -17.5 -25.5t-61.5 -7.5q-11 0 -16 6.5t-3 15.5q4 12 7 29q12 42 24 98l97 458q2 14 2 19q0 22 -20 27q-4 1 -22 4q-16 2 -22.5 4t-6.5 9q1 10 9 15
t23 9q98 18 120 18q23 0 23 -17q0 -6 -1 -10l-66 -310q-4 -17 2 -17q3 0 8 7q77 124 187 124q45 0 73 -28t28 -81q0 -27 -7 -56l-46 -199q-3 -12 -3 -22q0 -18 8 -28t22 -10q19 0 32.5 17.5t27.5 54.5q5 8 14 8q6 0 11 -5t5 -14q0 -6 -3 -14q-18 -52 -51.5 -84.5
t-79.5 -32.5q-78 0 -78 82z" />
    <glyph glyph-name="i" unicode="i" horiz-adv-x="297" 
d="M55 70q0 27 7 54l53 249q3 11 3 19q0 21 -21 27l-23 4q-15 2 -21 4t-6 8q0 10 8 15t24 10q96 18 120 18q23 0 23 -17q0 -2 -2 -10l-70 -332q-3 -12 -3 -22q0 -38 31 -38q35 0 62 72q4 7 13 7q6 0 10.5 -4.5t4.5 -11.5q0 -8 -4 -16q-18 -52 -52 -84.5t-78 -32.5
q-79 0 -79 81zM152.5 569q-10.5 8 -10.5 22q0 27 30.5 47t69.5 20t39 -30q0 -27 -30 -47t-70 -20q-18 0 -28.5 8z" />
    <glyph glyph-name="j" unicode="j" horiz-adv-x="232" 
d="M-89 -176q-11 0 -16.5 5t-5.5 13q0 9 7.5 18t20.5 13q102 29 133 175l68 326q2 7 2 19q0 22 -20 26l-23 3q-16 2 -22 4t-6 8q0 11 8 16t25 10q94 18 119 18q23 0 23 -17q0 -6 -1 -10l-81 -382q-24 -113 -83.5 -171t-138.5 -73q-3 -1 -9 -1zM142.5 569q-10.5 8 -10.5 22
q0 27 30.5 47t69.5 20t39 -30q0 -27 -30 -47t-70 -20q-18 0 -28.5 8z" />
    <glyph glyph-name="k" unicode="k" horiz-adv-x="547" 
d="M291.5 73q-32.5 84 -41.5 187q-1 20 -8 20q-5 0 -17 -15l-55 -76q-11 -16 -16.5 -27.5t-9.5 -26.5q-15 -73 -20 -108q-2 -19 -17.5 -25.5t-61.5 -7.5q-11 0 -16 6.5t-3 15.5q9 33 8 30q14 54 23 97l98 459q2 14 2 18q0 22 -20 27q-4 1 -22 4q-16 2 -22.5 4t-6.5 9
q1 10 9 15t23 9q98 18 120 18q23 0 23 -17q0 -6 -1 -10l-88 -415v-5q0 -5 3 -5t10 7q74 100 137 160t124 60q35 0 57 -19t22 -48q0 -21 -9 -32.5t-25 -11.5q-14 0 -20 8t-8 22q-2 16 -9 23.5t-25 7.5q-38 0 -96 -63q-9 -8 -11.5 -16t-1.5 -23q17 -125 40.5 -200t73.5 -75
q26 0 40.5 18t23.5 49q6 7 12 7q7 0 11 -6t2 -15q-33 -118 -128 -118q-71 0 -103.5 84z" />
    <glyph glyph-name="l" unicode="l" horiz-adv-x="285" 
d="M46 70q0 24 6 54l100 478q2 14 2 18q0 22 -20 27q-4 1 -22 4q-16 2 -22.5 4t-6.5 9q1 10 9 15t24 9q96 18 119 18t23 -17q0 -6 -1 -10l-119 -561q-2 -8 -2 -22q0 -18 8 -27.5t22 -9.5q21 0 35.5 18t27.5 54q7 7 14 7q6 0 10 -4t4 -12t-4 -16q-17 -52 -52 -84.5t-78 -32.5
q-77 0 -77 81z" />
    <glyph glyph-name="m" unicode="m" horiz-adv-x="863" 
d="M622 71q0 24 6 52l36 164q7 31 7 56q0 66 -53 66q-31 0 -65 -28.5t-62 -78.5t-41 -113q-19 -94 -31 -162q-2 -19 -17.5 -25.5t-61.5 -7.5q-11 0 -16 6.5t-2 15.5l11 44q3 12 9 36.5t10 46.5l31 140q7 32 7 59q0 67 -55 67q-30 0 -63.5 -28t-61.5 -79t-41 -114l-7 -34
q-19 -95 -24 -127q-2 -19 -17.5 -25.5t-61.5 -7.5q-11 0 -16 6.5t-3 15.5q9 33 8 30q14 54 23 97l49 230q2 14 2 19q0 22 -20 27l-23 4q-15 2 -21 4t-6 8q0 11 8 16t24 9q96 18 120 18q23 0 23 -16q0 -3 -2 -11l-17 -82q-4 -17 1 -17q4 0 10 8q34 56 76 89.5t91 33.5
q53 0 75.5 -32t22.5 -84q0 -19 4 -19t10 9q30 55 74 90.5t94 35.5q48 0 74 -26t26 -79q0 -28 -7 -60l-43 -200q-3 -12 -3 -22q0 -17 8 -27t23 -10q36 0 62 71q6 8 13 8q6 0 10.5 -4.5t4.5 -12.5q0 -7 -4 -15q-17 -52 -50 -84.5t-81 -32.5q-77 0 -77 82z" />
    <glyph glyph-name="n" unicode="n" horiz-adv-x="600" 
d="M376.5 10.5q-19.5 21.5 -19.5 60.5q0 20 7 53l41 173q6 26 6 45q0 33 -16.5 50t-43.5 17q-36 0 -73 -28t-66.5 -78t-42.5 -114l-12 -61q-18 -93 -19 -101q-2 -19 -17 -25.5t-62 -7.5q-11 0 -16 6.5t-2 15.5q24 97 79 357q2 14 2 19q0 22 -20 27l-23 4q-15 2 -21 4t-6 8
q0 11 8 16t24 9q96 18 120 18q23 0 23 -16q0 -3 -2 -11l-17 -81q-4 -18 2 -18q3 0 8 8q77 123 186 123q46 0 74 -28.5t28 -81.5q0 -27 -7 -55l-46 -199q-3 -12 -3 -23q0 -18 7.5 -27.5t22.5 -9.5q19 0 32.5 17.5t27.5 53.5q6 9 14 9q6 0 11 -5t5 -14q0 -6 -3 -14
q-18 -52 -51.5 -84.5t-79.5 -32.5q-40 0 -59.5 21.5z" />
    <glyph glyph-name="o" unicode="o" horiz-adv-x="505" 
d="M74.5 40.5q-48.5 50.5 -48.5 139.5q0 53 27 124.5t88 125t157 53.5q86 0 134 -50.5t48 -139.5q0 -54 -26.5 -125t-87 -124.5t-155.5 -53.5q-88 0 -136.5 50.5zM311.5 81.5q37.5 47.5 57 112.5t19.5 113q0 61 -25.5 96.5t-77.5 35.5q-53 0 -91 -47.5t-57 -112t-19 -111.5
q0 -63 25.5 -98.5t77.5 -35.5q53 0 90.5 47.5z" />
    <glyph glyph-name="p" unicode="p" horiz-adv-x="538" 
d="M1.5 -176.5q-5.5 6.5 -2.5 15.5q20 79 31 127l85 407q2 14 2 19q0 22 -20 27l-23 4q-15 2 -21 4t-6 8q0 11 8 16t24 9q96 18 120 18q23 0 23 -16q0 -3 -2 -11l-16 -81q-2 -8 -2 -12t2 -4q3 0 12 13q34 47 77 81.5t103 34.5q54 0 87.5 -40.5t33.5 -117.5q0 -72 -30 -151
t-86.5 -132t-131.5 -53q-67 0 -107 46q-12 14 -19 14t-9 -11q-26 -124 -38 -188q-2 -19 -17 -25.5t-61 -7.5q-11 0 -16.5 6.5zM342.5 79q39.5 46 60.5 109.5t21 112.5q0 54 -21 81t-56 27q-40 0 -77.5 -31.5t-64 -78t-35.5 -89.5q-11 -57 -11 -75q0 -47 26 -74.5t67 -27.5
q51 0 90.5 46z" />
    <glyph glyph-name="q" unicode="q" horiz-adv-x="509" 
d="M392 -44q-14 -70 -20 -106q-2 -19 -17.5 -25.5t-61.5 -7.5q-11 0 -16 6.5t-3 15.5q19 72 31 128l29 132q1 3 1 7q0 8 -5 8q-2 0 -7 -6q-35 -52 -76.5 -85.5t-93.5 -33.5q-61 0 -96.5 40.5t-35.5 115.5q0 78 31 156.5t89 129.5t137 51q41 0 64.5 -16t47.5 -42
q8 -8 16.5 -12.5t15.5 -4.5q11 0 27 31q14 28 20 36t15 8t13 -5t2 -14zM269 90q36 31 61.5 77t35.5 87q8 32 10.5 48t2.5 36q0 45 -24 72.5t-63 27.5q-51 0 -91.5 -42.5t-63 -104.5t-22.5 -118q0 -57 21.5 -85.5t58.5 -28.5q38 0 74 31z" />
    <glyph glyph-name="r" unicode="r" horiz-adv-x="448" 
d="M42 0.5q-5 6.5 -2 15.5q16 64 26 107l5 20l49 229q2 8 2 21q0 25 -20 26q-30 3 -40.5 5.5t-10.5 11.5q0 10 9.5 15.5t28.5 9.5q91 17 114 17q24 0 24 -17q0 -3 -2 -11l-19 -86q-4 -16 2 -16q2 0 5 2.5t5 6.5q33 56 77 91t87 35q40 0 61.5 -26t21.5 -66q0 -43 -15 -64
t-38 -21q-26 0 -31 26q0 5 0.5 27t-10 35t-32.5 13q-31 0 -66 -28.5t-63.5 -78t-41.5 -111.5l-8 -41q-19 -94 -23 -121q-2 -19 -17 -25.5t-62 -7.5q-11 0 -16 6.5z" />
    <glyph glyph-name="s" unicode="s" horiz-adv-x="441" 
d="M58.5 25.5q-52.5 36.5 -52.5 93.5q0 21 10 37t28 16q19 0 26 -10t10 -24.5t5 -21.5q5 -43 32.5 -63t80.5 -20q48 0 75 22t27 56q0 30 -23.5 53.5t-76.5 47.5q-68 32 -95.5 64t-27.5 72q0 60 46.5 97.5t121.5 37.5q72 0 125 -33t53 -91q0 -19 -10 -33.5t-28 -14.5
t-24.5 8.5t-10 22.5l-5.5 22q-12 75 -94 75q-37 0 -64.5 -20.5t-27.5 -51.5q0 -26 20.5 -45.5t71.5 -43.5q76 -36 107 -71t31 -79q0 -64 -51.5 -101.5t-131.5 -37.5q-95 0 -147.5 36.5z" />
    <glyph glyph-name="t" unicode="t" horiz-adv-x="366" 
d="M58 94q0 25 6 55l55 260l1 6q0 13 -18 13h-14q-15 0 -15 15q0 12 16 31.5t46 47.5q37 36 60 55t37 19q13 0 13 -13q0 -8 -1 -13l-14 -64q-4 -24 -4 -25q0 -6 2 -7.5t8 -1.5h139q9 0 12.5 -2t3.5 -8q0 -15 -10 -24.5t-24 -9.5h-123q-22 0 -27 -20l-52 -247q-5 -25 -5 -40
q0 -34 16.5 -51t46.5 -17q26 0 55 14t54 44q10 10 18 10q5 0 8 -3.5t3 -8.5q0 -4 -3 -10q-62 -109 -179 -109q-111 0 -111 104z" />
    <glyph glyph-name="u" unicode="u" horiz-adv-x="596" 
d="M93 19.5q-27 30.5 -27 83.5q0 29 7 58l44 212q2 14 2 19q0 22 -20 27l-23 4q-15 2 -21 4t-6 8q0 11 8 16t24 9q96 18 120 18q22 0 22 -17q0 -6 -1 -10l-58 -275q-5 -25 -5 -43q0 -33 14.5 -51.5t43.5 -18.5q37 0 74 29t66 79t41 109l19 93q2 14 2 19q0 22 -20 27
q-4 1 -22 4q-16 2 -22.5 4t-6.5 9q1 10 9 15t23 9q98 18 120 18q23 0 23 -17q0 -6 -1 -10l-71 -336q-2 -7 -2 -20q0 -17 8 -26.5t22 -9.5q35 0 63 72q5 7 13 7q6 0 10 -4.5t4 -11.5q0 -8 -4 -16q-17 -52 -50 -84.5t-77 -32.5q-33 0 -52.5 21.5t-19.5 60.5q0 17 5 42
q0 9 -6 9q-3 0 -6 -5q-34 -54 -81.5 -91t-108.5 -37q-49 0 -76 30.5z" />
    <glyph glyph-name="v" unicode="v" horiz-adv-x="492" 
d="M80.5 19.5q-30.5 30.5 -30.5 84.5q0 23 6 50l51 219q2 14 2 19q0 22 -20 27l-23 4q-15 2 -21 4t-6 8q0 11 8 16t24 9q96 18 120 18q22 0 22 -17q0 -6 -1 -10l-69 -310q-5 -25 -5 -41q0 -59 50 -59q46 0 94 49.5t81 119.5t36 126q3 51 -43 79q-8 5 -13.5 13.5t-5.5 18.5
q0 18 11 26.5t28 8.5q13 0 27 -4.5t22 -12.5q29 -22 40.5 -49.5t10.5 -63.5q-3 -76 -48 -162t-115.5 -143.5t-144.5 -57.5q-57 0 -87.5 30.5z" />
    <glyph glyph-name="w" unicode="w" horiz-adv-x="747" 
d="M79.5 20q-30.5 31 -30.5 85q0 24 6 49l52 219q2 14 2 19q0 22 -20 27l-23 4q-15 2 -21 4t-6 8q0 11 8 16t24 9q96 18 120 18q22 0 22 -17q0 -6 -1 -10l-70 -310q-5 -25 -5 -41q0 -28 13 -43.5t39 -15.5q54 0 98.5 62t70.5 177l38 163q3 17 12.5 25.5t31.5 8.5
q50 0 43 -35l-68 -301q-5 -20 -5 -42q0 -58 51 -58q46 0 90.5 53.5t74 125.5t29.5 117q0 51 -43 78q-9 6 -14.5 16t-3.5 22q3 15 14 22t26 7q13 0 26 -4.5t21 -12.5q27 -22 38.5 -50.5t11.5 -64.5q0 -56 -39.5 -143.5t-105 -152t-141.5 -64.5q-48 0 -74.5 26.5t-24.5 80.5
q0 4 -3 4t-5 -3q-70 -109 -173 -109q-55 0 -85.5 31z" />
    <glyph glyph-name="x" unicode="x" horiz-adv-x="532" 
d="M-2.5 10.5q-16.5 16.5 -16.5 44.5q0 25 14 47t30 22q18 0 23 -26q1 -40 29 -40q49 0 130 160q3 6 3 14q0 7 -1 10l-30 133q-7 26 -17.5 39t-30.5 17q-27 2 -36.5 4t-9.5 11q0 8 7.5 11.5t27.5 8.5q36 5 66 8t46 4q9 0 14.5 -12.5t12.5 -42.5l28 -117q1 -5 3.5 -5t4.5 5
q45 87 93.5 131.5t97.5 44.5q33 0 49.5 -16.5t16.5 -44.5q0 -25 -13.5 -47t-29.5 -22q-19 0 -24 26q-1 22 -7.5 31t-22.5 9q-29 0 -71 -50t-76 -120q-4 -14 -2 -21l20 -86q12 -52 25 -69.5t36 -17.5q42 0 67 68q6 7 12 7q7 0 11.5 -7t2.5 -15q-13 -47 -47 -82t-84 -35
q-40 0 -65.5 27t-44.5 101l-10 46q-1 4 -3.5 4t-4.5 -4q-44 -86 -85.5 -128t-88.5 -42q-33 0 -49.5 16.5z" />
    <glyph glyph-name="y" unicode="y" horiz-adv-x="527" 
d="M16 -168.5q-34 18.5 -52 48.5q-11 12 -11 29q0 16 10.5 27.5t24.5 11.5q15 0 21.5 -7t15.5 -25q14 -31 36 -46t60 -15q63 0 121 65t104 163q-40 -45 -77.5 -63t-80.5 -18q-59 0 -87 31.5t-28 83.5q0 23 7 56l47 200q2 14 2 19q0 22 -20 27l-23 4q-15 2 -21 4t-6 8
q0 11 8 16t24 9q96 18 120 18q23 0 23 -16q0 -3 -2 -11l-65 -288q-7 -33 -7 -52q0 -61 53 -61q69 0 113.5 50.5t66 112t27.5 107.5l1 15q0 55 -45 80q-8 4 -13.5 12t-5.5 17q0 19 12 29.5t30 10.5q28 0 51 -20q27 -19 42 -51t15 -71q0 -72 -37.5 -178.5t-102.5 -196.5
q-51 -71 -115 -112.5t-140 -41.5q-62 0 -96 18.5z" />
    <glyph glyph-name="z" unicode="z" horiz-adv-x="440" 
d="M290 -5q-57 5 -82 5h-189q-23 0 -23 14q0 7 7 17t10 14l288 360q16 21 5 21h-120q-25 0 -36 -4t-18 -14.5t-21 -42.5l-13 -30q-9 -12 -17 -17t-19 -5q-14 0 -14 13q0 9 6 19l47 114q6 13 14 16.5t18 3.5q7 0 31.5 -3.5t81.5 -3.5h180q11 0 13 -9v-2q0 -8 -6 -16
l-303 -380q-6 -7 -8 -13.5t5 -6.5h147q21 0 29.5 3t15 13t18.5 38q6 11 12 24t13 28q16 20 37 20q6 0 9.5 -3t3.5 -9q0 -8 -7 -19l-53 -122q-15 -25 -36 -25z" />
    <glyph glyph-name="braceleft" unicode="{" horiz-adv-x="321" 
d="M74 -126.5q-32 24.5 -32 73.5q0 23 6 50q5 22 24 95q14 50 20 76q6 27 6 48q0 25 -14 39t-51 21q-17 6 -16 19q4 12 25 19q37 7 57.5 20.5t30 33.5t16.5 54q3 15 13 78q6 46 16 94q16 74 60.5 110.5t132.5 36.5q50 0 50 -19q0 -13 -10 -16.5t-36 -3.5q-50 0 -77 -27.5
t-38 -82.5q-6 -30 -14 -83q-8 -52 -14 -80q-11 -52 -33 -84.5t-73 -46.5q-4 -1 -4.5 -3t2.5 -3q58 -18 58 -77q0 -21 -7 -54t-22 -85q-3 -10 -9.5 -34.5t-10.5 -43.5q-5 -27 -5 -44q0 -33 17.5 -49.5t56.5 -16.5q22 0 30.5 -2t8.5 -9q0 -28 -60 -28q-72 0 -104 24.5z" />
    <glyph glyph-name="bar" unicode="|" horiz-adv-x="128" 
d="M-50 -147l183 861q2 9 10.5 12.5t25.5 3.5q32 0 29 -16l-183 -861q-3 -17 -36 -17t-29 17z" />
    <glyph glyph-name="braceright" unicode="}" horiz-adv-x="321" 
d="M-72 -131q0 13 9.5 16t35.5 3q51 0 78 27.5t38 82.5q5 26 13 78q3 17 6.5 38t8.5 47q11 52 33 84.5t74 46.5q2 1 3 3t-2 3q-32 10 -45 29.5t-13 47.5q0 21 7 54q5 24 12.5 51.5t10.5 37.5q9 31 19 74q5 27 5 43q0 33 -17.5 50t-57.5 17q-23 0 -31.5 3t-7.5 12q6 24 60 24
q72 0 104.5 -24.5t32.5 -73.5q0 -22 -6 -49q-7 -29 -12.5 -50.5t-9.5 -36.5q-17 -58 -22 -85q-7 -31 -7 -48q0 -24 14.5 -38.5t51.5 -21.5q15 -6 15 -16q0 -16 -24 -22q-38 -7 -58 -20t-29.5 -33t-16.5 -55q-7 -32 -14 -82q-2 -13 -6.5 -40t-9.5 -49q-16 -75 -60 -111.5
t-132 -36.5q-50 0 -50 20z" />
    <glyph glyph-name="asciitilde" unicode="~" horiz-adv-x="408" 
d="M35 217q-4 4 -4 11q0 5 1 8q13 50 46.5 79t79.5 29q19 0 36 -9t39 -29q21 -17 32.5 -23.5t24.5 -6.5q28 0 45 15.5t25 38.5q8 20 23 20q14 0 14 -14q0 -6 -1 -9q-13 -51 -45.5 -79.5t-77.5 -28.5q-24 0 -43 10t-41 30q-16 15 -27 21.5t-23 6.5q-28 0 -45.5 -15.5
t-25.5 -39.5q-6 -19 -22 -19q-7 0 -11 4z" />
    <glyph glyph-name="uni00A0" unicode="&#xa0;" horiz-adv-x="504" 
 />
    <glyph glyph-name="exclamdown" unicode="&#xa1;" horiz-adv-x="238" 
d="M210.5 470q14.5 -13 14.5 -34q0 -8 -1 -12q-6 -27 -28 -44.5t-50 -17.5q-24 0 -39 13.5t-15 34.5q0 30 23.5 51.5t55.5 21.5q25 0 39.5 -13zM151 281q-19 -119 -36 -263q-6 -54 -15 -115q-6 -36 -24 -58.5t-46 -22.5q-42 0 -42 49q0 17 4 33q15 51 34 108q5 16 29 91.5
t51 177.5q11 21 27 21q18 0 18 -21z" />
    <glyph glyph-name="cent" unicode="&#xa2;" horiz-adv-x="487" 
d="M342 480q54 -9 90 -40.5t36 -77.5q0 -12 -3 -24q-4 -17 -14 -27.5t-26 -10.5q-18 0 -26 10t-10 30q5 81 -60 95l-110 -382q16 -2 27 -2q46 0 87 20.5t73 53.5q11 11 18 11q6 0 9.5 -3.5t3.5 -8.5q0 -6 -3 -12q-36 -55 -94 -89t-132 -34h-7l-13 -44q-1 -4 -5 -6t-10 -2
t-10 2t-3 6l13 46q-72 10 -110 58.5t-38 121.5q0 34 7 65q15 71 57 127t100.5 87.5t120.5 31.5h4l16 55q1 7 16 7q13 0 12 -7zM302 438h-5q-35 0 -69.5 -21t-61 -60t-37.5 -91q-8 -38 -8 -70q0 -49 18 -85t54 -51z" />
    <glyph glyph-name="sterling" unicode="&#xa3;" horiz-adv-x="574" 
d="M548 674.5q41 -36.5 41 -97.5q0 -19 -5 -44q-4 -22 -18 -34.5t-32 -12.5q-14 0 -22.5 8t-8.5 22q0 5 2 13q5 27 5 45q0 41 -21.5 63.5t-64.5 22.5q-53 0 -92 -34t-50 -83q-5 -22 -5 -56q0 -15 2 -51t2 -59q0 -14 -2 -44h91q28 0 25 -14q-2 -12 -13 -20t-28 -8h-80l-4 -20
q-9 -44 -34 -93t-51 -85q-3 -4 -3 -8t5 -6q26 -3 72 -13q59 -13 96 -13q57 0 97 32t60 97q6 12 9.5 16.5t10.5 4.5q13 0 13 -14q0 -6 -1 -9q-18 -85 -73 -137.5t-129 -52.5q-32 0 -65.5 8t-90.5 26q-28 10 -34 11q-6 3 -9 3q-4 0 -9 -5q-21 -20 -37.5 -30t-38.5 -10
q-20 0 -34 12.5t-14 31.5q0 7 1 11q5 23 21.5 36.5t40.5 13.5q18 0 32 -3h4q10 0 14 9q23 32 42.5 77t29.5 90l4 20h-72q-26 0 -26 12q0 13 11.5 21.5t31.5 8.5h59q1 12 1 35l-1 47q-1 15 -1 45q0 45 8 81q17 74 78.5 122t145.5 48q73 0 114 -36.5z" />
    <glyph glyph-name="currency" unicode="&#xa4;" horiz-adv-x="542" 
d="M21.5 134q-8.5 11 -6.5 21q4 17 21 29l67 52q9 7 12.5 12.5t3.5 11.5q0 2 -2 10q-7 28 -7 48q0 16 5 43q6 24 15.5 44t28.5 50q8 13 8 17q0 5 -6 12l-47 55q-12 12 -9 27q2 11 16.5 22.5t25.5 11.5q8 0 13.5 -2.5t10.5 -10.5l46 -61q6 -7 14 -7q5 0 17 4q23 12 45 17
t50 5q24 0 43 -4.5t41 -14.5q10 -5 14 -5q8 0 19 11l65 57q16 13 30 13q10 0 18 -9.5t8 -20.5q0 -9 -4.5 -16t-14.5 -14l-72 -56q-12 -9 -12 -19q0 -3 2 -11q7 -22 7 -46q0 -23 -5 -43q-6 -28 -16.5 -50t-28.5 -45q-8 -13 -8 -18q0 -6 7 -13l47 -55q10 -12 7 -28
q-2 -12 -15.5 -22.5t-24.5 -10.5q-8 0 -13 2t-11 10q-34 49 -47 62q-6 7 -15 7q-4 0 -14 -4q-45 -22 -95 -22q-24 0 -43.5 4.5t-40.5 14.5q-10 5 -15 5q-7 0 -18 -10l-66 -58q-14 -13 -31 -13q-11 0 -19.5 11zM369 272q44 36 56 94q3 17 3 30q0 43 -26 68t-72 25
q-56 0 -99.5 -35.5t-56.5 -92.5q-4 -22 -4 -32q0 -42 26.5 -67.5t71.5 -25.5q57 0 101 36z" />
    <glyph glyph-name="yen" unicode="&#xa5;" horiz-adv-x="677" 
d="M767 686q0 -23 -33 -33q-22 -1 -34 -5.5t-20 -13t-26 -30.5l-230 -287q-2 -2 -2 -3h103q22 0 22 -11t-10.5 -19t-25.5 -8h-111q-6 -18 -8 -27l-10 -45h119q26 0 22 -13q-2 -11 -11.5 -18t-24.5 -7h-113l-7 -33q-7 -35 -7 -45q0 -19 11.5 -27.5t42.5 -14.5q18 -7 18 -19
q0 -28 -39 -28h-198q-17 0 -25 3.5t-8 11.5q0 20 29 32q33 6 47.5 13.5t21 20.5t12.5 43l9 43h-122q-27 0 -24 14q2 10 11.5 17t25.5 7h117l10 44q3 11 1 28h-118q-24 0 -24 11t10.5 19t27.5 8h95l-107 290q-11 28 -24.5 36.5t-45.5 10.5q-10 4 -14 9.5t-2 16.5
q4 14 15.5 19.5t32.5 4.5q18 -1 73 -1q83 0 119 1q24 0 32.5 -5.5t6.5 -15.5q-4 -19 -25 -25q-37 -4 -51.5 -10t-14.5 -20q0 -6 3 -15l93 -246q3 -9 9 -9t12 9l200 254q9 12 9 19q0 9 -15.5 14t-50.5 7q-7 4 -9.5 8.5t-0.5 12.5q3 12 12 17t26 5q35 -1 101 -1q45 0 66 1
q26 0 26 -15z" />
    <glyph glyph-name="brokenbar" unicode="&#xa6;" horiz-adv-x="129" 
d="M56.5 316.5q-6.5 3.5 -5.5 13.5l82 384q2 9 10.5 12.5t25.5 3.5q32 0 29 -16l-82 -384q-3 -17 -35 -17q-18 0 -24.5 3.5zM-48 -142l82 385q3 16 35 16t29 -16l-82 -385q-3 -17 -36 -17q-32 0 -28 17z" />
    <glyph glyph-name="section" unicode="&#xa7;" horiz-adv-x="469" 
d="M111 -74.5q-24 11.5 -40.5 25.5t-20.5 14q-5 0 -8 -6t-6 -13q-5 -14 -9.5 -20.5t-13.5 -6.5q-7 0 -10.5 4.5t-4.5 18.5q3 43 3 98q0 42 1 57q1 11 9 18t15 7q9 0 13.5 -4t7 -17t5.5 -43q4 -51 41.5 -77.5t80.5 -26.5q39 0 71 15t50.5 40.5t18.5 55.5q0 32 -25.5 53.5
t-76.5 39.5q-88 32 -128.5 61.5t-40.5 74.5q0 44 29 82t74 73q-48 31 -48 88q0 15 3 31q14 63 72 103t134 40q45 0 70.5 -12t41.5 -25.5t20 -13.5t7.5 5t5 9t2.5 6q6 13 10 19.5t12 6.5q7 0 10.5 -5t4.5 -19q-2 -48 -2 -81q0 -55 -2 -73q-1 -11 -9 -18t-15 -7q-9 0 -13.5 4
t-7 16.5t-5.5 43.5q-3 51 -42 77.5t-86 26.5q-59 0 -96.5 -32.5t-37.5 -79.5q0 -32 25 -53t78 -40q89 -33 129 -61.5t40 -74.5q0 -74 -105 -155q25 -16 37.5 -36.5t12.5 -49.5q0 -15 -3 -33q-14 -63 -75 -102.5t-138 -39.5q-41 0 -65 11.5zM352 239.5q20 25.5 24 48.5
q2 12 2 17q0 28 -25.5 49t-81.5 41q-50 18 -82 35q-27 -18 -47.5 -43.5t-24.5 -48.5q-2 -12 -2 -17q0 -29 24 -48.5t78 -39.5t87 -38q28 19 48 44.5z" />
    <glyph glyph-name="dieresis" unicode="&#xa8;" horiz-adv-x="383" 
d="M119 576.5q-10 7.5 -10 20.5q0 26 28 41.5t55 15.5q16 0 25.5 -7t9.5 -19q0 -27 -28 -43t-55 -16q-15 0 -25 7.5zM326 576.5q-10 7.5 -10 20.5q0 26 28 41.5t55 15.5q16 0 25.5 -7t9.5 -19q0 -27 -28 -43t-55 -16q-15 0 -25 7.5z" />
    <glyph glyph-name="copyright" unicode="&#xa9;" horiz-adv-x="822" 
d="M201.5 23q-66.5 34 -102 95.5t-35.5 143.5q0 36 10 86q22 105 85.5 187t155.5 128t197 46q90 0 156 -34t101.5 -96.5t35.5 -144.5q0 -41 -9 -86q-22 -104 -85.5 -186t-155.5 -127.5t-197 -45.5q-90 0 -156.5 34zM544 63.5q83 41.5 140.5 115.5t78.5 169q8 36 8 78
q0 75 -32 131t-92 87t-142 31q-95 0 -178.5 -41.5t-141 -116t-77.5 -169.5q-9 -42 -9 -80q0 -74 32.5 -129.5t93 -86t141.5 -30.5q95 0 178 41.5zM280 181q-40 43 -40 113q0 27 6 55q13 60 49 108t85.5 75t102.5 27q55 0 91.5 -28t36.5 -73q0 -12 -3 -24q-4 -15 -14.5 -25
t-26.5 -10q-11 0 -17.5 7.5t-6.5 21.5q0 8 1 13q2 14 2 20q0 30 -17.5 48.5t-56.5 18.5q-47 0 -89.5 -41t-56.5 -110q-7 -31 -7 -62q0 -55 25.5 -87t78.5 -32q78 0 141 67q4 5 7 7t7 2q11 0 11 -10q0 -6 -3 -11q-33 -50 -81.5 -81.5t-110.5 -31.5q-74 0 -114 43z" />
    <glyph glyph-name="guillemotleft" unicode="&#xab;" horiz-adv-x="403" 
d="M107.5 48.5q-6.5 5.5 -20 28.5t-34.5 61q-21 40 -31 65t-10 34q0 7 20 33.5t66 72.5q36 38 59.5 61t33 28.5t18.5 5.5q6 0 11 -4.5t5 -10.5t-2 -9q-18 -24 -78 -94q-26 -31 -43.5 -53t-18.5 -28q-1 -5 7.5 -26.5t21.5 -51.5l11 -27q20 -45 26 -67q1 -9 -7 -16.5t-18 -7.5
t-16.5 5.5zM277.5 48.5q-6.5 5.5 -20 28.5t-34.5 61q-21 40 -31 65t-10 34q0 7 20 33.5t66 72.5q36 38 59.5 61t33 28.5t18.5 5.5q6 0 11 -4.5t5 -10.5t-2 -9q-18 -24 -78 -94q-26 -31 -43.5 -53t-18.5 -28q-1 -5 7.5 -26.5t21.5 -51.5l11 -27q20 -45 26 -67q1 -9 -7 -16.5
t-18 -7.5t-16.5 5.5z" />
    <glyph glyph-name="logicalnot" unicode="&#xac;" horiz-adv-x="523" 
d="M318 167q12 64 18 95q1 3 1 8q0 10 -11 10h-167h-42q-15 2 -22.5 6.5t-7.5 14.5q0 13 9 24t23 12q55 4 144 4q71 0 118 -3q15 -1 20 -9t3 -24l-7 -38q-3 -16 -8 -40q-7 -36 -15 -62q-8 -23 -33 -23q-23 0 -23 25z" />
    <glyph glyph-name="uni00AD" unicode="&#xad;" horiz-adv-x="330" 
d="M54 218q-13 0 -18.5 4t-3.5 14q3 16 13.5 27t26.5 11h209q25 0 21 -18q-3 -16 -13.5 -27t-25.5 -11h-209z" />
    <glyph glyph-name="registered" unicode="&#xae;" horiz-adv-x="576" 
d="M541 656q56 -53 56 -142q0 -31 -7 -62q-16 -74 -61 -132t-110 -90.5t-140 -32.5q-95 0 -151.5 53t-56.5 140q0 31 7 62q16 75 61 133.5t110 91t140 32.5q96 0 152 -53zM561 506q0 76 -48 122t-131 46q-65 0 -121.5 -28.5t-95.5 -79t-52 -114.5q-6 -28 -6 -54
q0 -76 48 -121t131 -45q65 0 121 28t95 78t53 114q6 29 6 54zM444 590.5q28 -16.5 28 -47.5q0 -35 -24 -59t-62 -35q23 -14 31 -62q2 -16 5.5 -24t12.5 -11q6 -3 13 -3.5t9.5 -2t1.5 -7.5q-2 -17 -43 -17q-23 0 -33.5 5.5t-13 17t-0.5 33.5q1 30 -8.5 46.5t-33.5 16.5h-20
q-10 0 -14.5 -3.5t-6.5 -13.5l-9 -46q-2 -10 -2 -12q0 -7 4.5 -10t16.5 -6q7 -5 7 -10q0 -9 -4.5 -12t-15.5 -3h-79q-9 0 -12.5 1.5t-3.5 6.5q0 7 3 10t10 7q16 4 22 10t9 21l36 170q2 12 2 14q0 7 -4.5 10t-16.5 6q-1 1 -4 3.5t-3 7.5q0 14 21 14h37l64 1q52 0 80 -16.5z
M360 581h-21q-19 0 -24 -23l-15 -71l-1 -7q0 -13 14 -13h25q39 0 59.5 18.5t20.5 50.5q0 45 -58 45z" />
    <glyph glyph-name="macron" unicode="&#xaf;" horiz-adv-x="329" 
d="M109.5 577q-3.5 2 -3.5 6t5 16q1 2 6 9.5t9.5 10.5t11.5 3l118 -1l111 1q10 0 10 -7q0 -6 -6 -16q-6 -14 -11.5 -19.5t-16.5 -5.5q-69 1 -222 1q-8 0 -11.5 2z" />
    <glyph glyph-name="degree" unicode="&#xb0;" horiz-adv-x="341" 
d="M131 463.5q-31 28.5 -31 75.5q0 18 4 34q12 61 59 99t109 38q52 0 82.5 -29.5t30.5 -77.5q0 -14 -3 -31q-14 -60 -61 -98.5t-108 -38.5q-51 0 -82 28.5zM299 502.5q33 27.5 43 70.5q2 8 2 22q0 34 -22 54.5t-59 20.5q-44 0 -77.5 -27.5t-42.5 -70.5q-3 -12 -3 -24
q0 -33 22.5 -53t59.5 -20q44 0 77 27.5z" />
    <glyph glyph-name="plusminus" unicode="&#xb1;" horiz-adv-x="444" 
d="M389 301q16 0 22 -9t4 -22q-6 -25 -37 -25h-114q-10 0 -12 -10l-24 -113q-3 -15 -10 -23h129q36 0 33 -19q-3 -16 -18 -26.5t-37 -10.5h-296q-19 0 -28 4t-6 14q3 16 18 27t38 11h123q-3 5 -3 14q0 4 2 14l22 107v3q0 8 -9 8h-111q-17 0 -24 5t-4 19q3 16 13.5 24t31.5 8
h104q14 0 16 13l24 111q3 16 14 23.5t23 7.5q20 0 20 -19q0 -8 -1 -12l-24 -111l-1 -5q0 -8 9 -8h113z" />
    <glyph glyph-name="acute" unicode="&#xb4;" horiz-adv-x="253" 
d="M95 532q1 12 93 95q41 39 43 41q8 12 19 15.5t31 3.5t27 -4t5 -13q-1 -12 -46.5 -47.5t-96.5 -67.5t-63 -32q-13 0 -12 9z" />
    <glyph glyph-name="uni00B5" unicode="&#xb5;" horiz-adv-x="585" 
d="M473 110l-2 -12q-2 -14 -2 -18q0 -22 20 -27q4 -1 22 -4q16 -2 22.5 -4t6.5 -9q-1 -10 -9 -15t-23 -9q-98 -18 -120 -18q-23 0 -23 17q0 6 1 10l11 53l1 4l-1 -1q3 16 -1 16q-1 0 -16.5 -27.5t-51 -51.5t-88.5 -24q-37 0 -61 15t-32 42q-1 5 -3.5 5.5t-4.5 -4.5
q-5 -22 -9 -72q-1 -8 -3.5 -33t-7.5 -45q-6 -33 -48 -33q-35 0 -35 24q0 3 2 13l98 460l1 11q2 14 2 19q0 22 -20 27l-23 4q-15 2 -21 4t-6 8q0 11 8 16t24 9q96 18 120 18q22 0 22 -17q0 -6 -1 -10l-10 -53l-43 -204q-7 -31 -7 -58q0 -85 83 -85q31 0 64 18.5t59.5 57
t38.5 93.5v-1l30 143l2 11q2 14 2 19q0 22 -20 27q-4 1 -22 4q-16 2 -22.5 4t-6.5 9q1 10 9 15t23 9q98 18 120 18q23 0 23 -17q0 -6 -1 -10l-11 -53z" />
    <glyph glyph-name="paragraph" unicode="&#xb6;" horiz-adv-x="705" 
d="M151 -81q0 24 24 32q16 2 22 4q20 2 27 4q15 3 21.5 10t10.5 22l66 310q1 4 1 11q0 9 -5.5 12.5t-19.5 3.5q-114 0 -171.5 32.5t-57.5 108.5q0 24 6 52q20 89 85 137t157 48q39 0 101 -2q68 -2 117 -2l146 1q23 1 52 1q16 0 25.5 -5.5t9.5 -15.5q0 -21 -30 -31
q-9 -2 -19.5 -3.5t-22.5 -4.5q-22 -6 -29 -34l-132 -622q-1 -4 -1 -11q0 -16 15 -19q11 -3 21 -4.5t19 -3.5q14 -6 14 -17q0 -13 -9.5 -21.5t-25.5 -9.5q-71 -3 -193 -3h-130q-58 0 -71 1q-23 3 -23 19zM452.5 -35q14.5 8 19.5 33l128 600q2 7 2 18q0 16 -12 22.5t-40 6.5
q-40 0 -54.5 -8.5t-21.5 -38.5l-127 -601l-2 -16q0 -15 11.5 -19.5t44.5 -4.5q37 0 51.5 8z" />
    <glyph glyph-name="periodcentered" unicode="&#xb7;" horiz-adv-x="235" 
d="M63 189q-13 12 -13 32q0 9 3 19q8 29 32 47.5t52 18.5q23 0 37 -13t14 -34q0 -33 -27.5 -57.5t-62.5 -24.5q-22 0 -35 12z" />
    <glyph glyph-name="cedilla" unicode="&#xb8;" horiz-adv-x="263" 
d="M-14 -176q-23 11 -32 28q-1 2 -1 6q0 5 3 8t7 3q5 0 9 -4q26 -18 68 -18q32 0 51.5 12t19.5 36q0 38 -71 38q-19 0 -19 12q0 13 30 58l41 -3l-26 -45q41 -1 66 -16t25 -43q0 -39 -31 -61t-82 -22q-35 0 -58 11z" />
    <glyph glyph-name="guillemotright" unicode="&#xbb;" horiz-adv-x="403" 
d="M15 47.5q-5 4.5 -5 11.5q0 5 2 8q18 24 47 58l31 36q63 72 63 79q0 14 -30 80l-16 40q-11 26 -21 54q-1 9 7.5 16.5t17.5 7.5t15.5 -5.5t18.5 -24.5t37 -65q47 -85 41 -104q-1 -6 -21.5 -32t-63.5 -69q-36 -38 -59.5 -61t-32.5 -28.5t-19 -5.5q-7 0 -12 4.5zM185 47.5
q-5 4.5 -5 10.5t2 9q18 24 47 58l31 36q27 30 44 51.5t18 26.5q1 6 -7 28t-22 53l-16 40q-11 26 -21 54q-1 9 7.5 16.5t17.5 7.5t15.5 -5.5t18.5 -24.5t37 -65q47 -85 41 -104q-1 -6 -21.5 -31.5t-63.5 -69.5q-36 -38 -59.5 -61t-32.5 -28.5t-19 -5.5q-7 0 -12 4.5z" />
    <glyph glyph-name="questiondown" unicode="&#xbf;" horiz-adv-x="546" 
d="M382 470q14 -13 14 -33q0 -30 -23 -50.5t-54 -20.5q-25 0 -40 13t-15 35q0 29 24 49t56 20q24 0 38 -13zM327 289q-11 -56 -44 -90.5t-90 -72.5q-50 -34 -77 -61.5t-36 -68.5q-3 -17 -3 -31q0 -45 29 -70.5t80 -25.5q65 0 115.5 38t61.5 94q6 24 20 37t33 13
q15 0 24.5 -9.5t9.5 -25.5q0 -8 -1 -12q-10 -49 -49.5 -90.5t-99 -66t-126.5 -24.5q-82 0 -132 35.5t-50 96.5q0 15 3 32q8 39 29 67t46.5 47t68.5 46q59 37 91.5 65.5t49.5 75.5q16 22 31 22q22 0 16 -21z" />
    <glyph glyph-name="Agrave" unicode="&#xc0;" horiz-adv-x="735" 
d="M-41 19q1 9 10.5 15.5t20.5 8.5q28 3 41.5 8t24.5 17.5t28 41.5l306 512q7 12 7 21q0 15 -18 18q-15 5 -15 17q0 7 8 15.5t26 8.5h53q35 0 47 -13.5t16 -37.5l95 -547q5 -26 10 -36t14.5 -14t35.5 -7q20 -5 16 -25q-6 -23 -36 -23h-121h-61q-25 0 -37 3t-12 13
q0 18 22 23q39 5 53 12.5t14 29.5q0 5 -2 21l-15 87q-2 15 -10 22.5t-24 7.5h-219q-22 0 -31 -4.5t-20 -22.5l-50 -85q-19 -33 -19 -44t11.5 -15t40.5 -7q21 -5 21 -17q0 -14 -11.5 -19.5t-27.5 -5.5q-22 1 -84 1t-84 -1q-30 0 -24 21zM451 265q29 0 25 24l-45 290q0 5 -2 8
t-4 3q-5 0 -11 -11l-126 -213q-14 -25 -25.5 -44.5t-20.5 -34.5q-4 -7 -4 -11q0 -11 23 -11h190zM484 760.5q-43 24.5 -79.5 53t-35.5 40.5q1 9 8.5 13.5t26.5 5.5q20 0 31 -3.5t14 -13.5q7 -9 42 -42q22 -21 41 -41t19 -26q0 -11 -13 -11q-11 0 -54 24.5z" />
    <glyph glyph-name="Aacute" unicode="&#xc1;" horiz-adv-x="735" 
d="M-41 19q1 9 10.5 15.5t20.5 8.5q28 3 41.5 8t24.5 17.5t28 41.5l306 512q7 12 7 21q0 15 -18 18q-15 5 -15 17q0 7 8 15.5t26 8.5h53q35 0 47 -13.5t16 -37.5l95 -547q5 -26 10 -36t14.5 -14t35.5 -7q20 -5 16 -25q-6 -23 -36 -23h-121h-61q-25 0 -37 3t-12 13
q0 18 22 23q39 5 53 12.5t14 29.5q0 5 -2 21l-15 87q-2 15 -10 22.5t-24 7.5h-219q-22 0 -31 -4.5t-20 -22.5l-50 -85q-19 -33 -19 -44t11.5 -15t40.5 -7q21 -5 21 -17q0 -14 -11.5 -19.5t-27.5 -5.5q-22 1 -84 1t-84 -1q-30 0 -24 21zM451 265q29 0 25 24l-45 290q0 5 -2 8
t-4 3q-5 0 -11 -11l-126 -213q-14 -25 -25.5 -44.5t-20.5 -34.5q-4 -7 -4 -11q0 -11 23 -11h190zM343 743q1 6 27.5 27.5t45 35t25.5 18.5q34 23 48 35q14 18 47 18q25 0 32.5 -4t5.5 -14q-2 -12 -50.5 -42.5t-103 -57t-66.5 -26.5q-14 0 -11 10z" />
    <glyph glyph-name="Acircumflex" unicode="&#xc2;" horiz-adv-x="735" 
d="M-41 19q1 9 10.5 15.5t20.5 8.5q28 3 41.5 8t24.5 17.5t28 41.5l306 512q7 12 7 21q0 15 -18 18q-15 5 -15 17q0 7 8 15.5t26 8.5h53q35 0 47 -13.5t16 -37.5l95 -547q5 -26 10 -36t14.5 -14t35.5 -7q20 -5 16 -25q-6 -23 -36 -23h-121h-61q-25 0 -37 3t-12 13
q0 18 22 23q39 5 53 12.5t14 29.5q0 5 -2 21l-15 87q-2 15 -10 22.5t-24 7.5h-219q-22 0 -31 -4.5t-20 -22.5l-50 -85q-19 -33 -19 -44t11.5 -15t40.5 -7q21 -5 21 -17q0 -14 -11.5 -19.5t-27.5 -5.5q-22 1 -84 1t-84 -1q-30 0 -24 21zM451 265q29 0 25 24l-45 290q0 5 -2 8
t-4 3q-5 0 -11 -11l-126 -213q-14 -25 -25.5 -44.5t-20.5 -34.5q-4 -7 -4 -11q0 -11 23 -11h190zM299.5 737q-3.5 4 -2.5 8q1 13 62 64.5t96 71.5q18 9 27 9t22 -9q25 -19 62.5 -68.5t37.5 -66.5q0 -4 -5 -8.5t-10 -4.5q-7 0 -43 36q-69 64 -76 64q-6 0 -104 -64
q-21 -15 -38 -25.5t-21 -10.5t-7.5 4z" />
    <glyph glyph-name="Atilde" unicode="&#xc3;" horiz-adv-x="735" 
d="M-41 19q1 9 10.5 15.5t20.5 8.5q28 3 41.5 8t24.5 17.5t28 41.5l306 512q7 12 7 21q0 15 -18 18q-15 5 -15 17q0 7 8 15.5t26 8.5h53q35 0 47 -13.5t16 -37.5l95 -547q5 -26 10 -36t14.5 -14t35.5 -7q20 -5 16 -25q-6 -23 -36 -23h-121h-61q-25 0 -37 3t-12 13
q0 18 22 23q39 5 53 12.5t14 29.5q0 5 -2 21l-15 87q-2 15 -10 22.5t-24 7.5h-219q-22 0 -31 -4.5t-20 -22.5l-50 -85q-19 -33 -19 -44t11.5 -15t40.5 -7q21 -5 21 -17q0 -14 -11.5 -19.5t-27.5 -5.5q-22 1 -84 1t-84 -1q-30 0 -24 21zM451 265q29 0 25 24l-45 290q0 5 -2 8
t-4 3q-5 0 -11 -11l-126 -213q-14 -25 -25.5 -44.5t-20.5 -34.5q-4 -7 -4 -11q0 -11 23 -11h190zM492.5 746q-15.5 7 -35.5 20q-22 13 -36 19.5t-32 6.5q-33 0 -50 -36q-14 -19 -27 -19q-8 0 -13 5t-4 15q4 36 33 59.5t64 23.5q23 0 40 -7.5t42 -22.5q17 -12 30.5 -18
t27.5 -6q31 0 50 36q13 19 27 19q8 0 13 -5.5t5 -14.5q-5 -36 -34.5 -59t-65.5 -23q-19 0 -34.5 7z" />
    <glyph glyph-name="Adieresis" unicode="&#xc4;" horiz-adv-x="735" 
d="M-41 19q1 9 10.5 15.5t20.5 8.5q28 3 41.5 8t24.5 17.5t28 41.5l306 512q7 12 7 21q0 15 -18 18q-15 5 -15 17q0 7 8 15.5t26 8.5h53q35 0 47 -13.5t16 -37.5l95 -547q5 -26 10 -36t14.5 -14t35.5 -7q20 -5 16 -25q-6 -23 -36 -23h-121h-61q-25 0 -37 3t-12 13
q0 18 22 23q39 5 53 12.5t14 29.5q0 5 -2 21l-15 87q-2 15 -10 22.5t-24 7.5h-219q-22 0 -31 -4.5t-20 -22.5l-50 -85q-19 -33 -19 -44t11.5 -15t40.5 -7q21 -5 21 -17q0 -14 -11.5 -19.5t-27.5 -5.5q-22 1 -84 1t-84 -1q-30 0 -24 21zM451 265q29 0 25 24l-45 290q0 5 -2 8
t-4 3q-5 0 -11 -11l-126 -213q-14 -25 -25.5 -44.5t-20.5 -34.5q-4 -7 -4 -11q0 -11 23 -11h190zM298 745.5q-10 7.5 -10 20.5q0 26 28 41.5t55 15.5q16 0 25.5 -7t9.5 -19q0 -27 -28 -43t-55 -16q-15 0 -25 7.5zM505 745.5q-10 7.5 -10 20.5q0 26 28 41.5t55 15.5
q16 0 25.5 -7t9.5 -19q0 -27 -28 -43t-55 -16q-15 0 -25 7.5z" />
    <glyph glyph-name="Aring" unicode="&#xc5;" horiz-adv-x="735" 
d="M-41 19q1 9 10.5 15.5t20.5 8.5q28 3 41.5 8t24.5 17.5t28 41.5l306 512q7 12 7 21q0 15 -18 18q-15 5 -15 17q0 7 8 15.5t26 8.5h53q35 0 47 -13.5t16 -37.5l95 -547q5 -26 10 -36t14.5 -14t35.5 -7q20 -5 16 -25q-6 -23 -36 -23h-121h-61q-25 0 -37 3t-12 13
q0 18 22 23q39 5 53 12.5t14 29.5q0 5 -2 21l-15 87q-2 15 -10 22.5t-24 7.5h-219q-22 0 -31 -4.5t-20 -22.5l-50 -85q-19 -33 -19 -44t11.5 -15t40.5 -7q21 -5 21 -17q0 -14 -11.5 -19.5t-27.5 -5.5q-22 1 -84 1t-84 -1q-30 0 -24 21zM451 265q29 0 25 24l-45 290q0 5 -2 8
t-4 3q-5 0 -11 -11l-126 -213q-14 -25 -25.5 -44.5t-20.5 -34.5q-4 -7 -4 -11q0 -11 23 -11h190zM394 753q-21 16 -21 43q0 6 2 16q8 34 38 55t66 21q31 0 52 -16.5t21 -43.5q0 -40 -32.5 -65.5t-73.5 -25.5q-31 0 -52 16zM487 778q16 13 20 32q2 10 2 14q0 15 -9 25t-25 10
q-19 0 -36 -13.5t-21 -32.5q-1 -4 -1 -12q0 -16 9 -26t25 -10q20 0 36 13z" />
    <glyph glyph-name="AE" unicode="&#xc6;" horiz-adv-x="1042" 
d="M870.5 -12.5q-7.5 5.5 -16 9t-30.5 3.5l-398 -1q-17 0 -25 3.5t-8 11.5q0 20 29 32q32 6 46.5 13t19.5 17t10 31l17 77q1 4 1 11q0 11 -7 15.5t-22 4.5h-210q-18 0 -28 -4t-22 -17l-91 -104q-17 -20 -17 -31q0 -10 16.5 -14.5t54.5 -5.5q17 -6 17 -16q0 -26 -47 -26
q-34 1 -101 1q-46 0 -68 -1q-21 0 -27.5 5.5t-5.5 15.5q3 11 11.5 16.5t23.5 8.5q30 2 49.5 14t46.5 44l439 519q17 20 17 30q0 6 -4 10t-13 10q-4 8 6 16t33 11q44 4 72 4l293 -1q32 0 52 11q11 7 22 7q10 0 14.5 -7t7 -29t6.5 -75q4 -60 4 -72q0 -35 -7 -47.5t-23 -12.5
q-20 0 -25 26q-7 75 -12.5 104t-17 38.5t-39.5 9.5h-161q-20 0 -29.5 -3.5t-15.5 -14.5t-11 -35l-37 -176l-2 -16q0 -8 4 -11.5t14 -3.5h96q17 0 24.5 5t10 18.5t2.5 41.5q1 15 6 23t17 8q13 0 18 -7t7 -28.5t4 -80.5l2 -68q0 -33 -5.5 -44t-20.5 -11q-11 0 -15.5 5.5
t-6.5 18.5q-1 34 -3.5 48t-9.5 19t-23 5h-108q-17 0 -24 -8.5t-12 -29.5l-46 -216q-3 -16 -3 -25q0 -12 8 -16t31 -4h205q26 0 43.5 11.5t35.5 42t51 97.5q8 16 16 21.5t18 5.5q18 0 18 -16q0 -12 -11 -39t-36 -77q-26 -53 -38.5 -75t-20.5 -29t-18 -7t-17.5 5.5zM496 262
q21 0 30.5 8t14.5 29l59 281q2 7 2 19q0 18 -10 18q-11 0 -26 -18l-261 -308q-11 -14 -11 -21q0 -8 16 -8h186z" />
    <glyph glyph-name="Ccedilla" unicode="&#xc7;" horiz-adv-x="639" 
d="M286 601.5q-63 -58.5 -97 -145t-34 -166.5q0 -100 49 -159.5t146 -59.5q75 0 136.5 40.5t87.5 103.5q7 13 20 13q9 0 14 -6.5t2 -17.5q-16 -54 -58 -103t-106 -80.5t-143 -31.5h-3l-20 -34q41 -1 66 -16t25 -43q0 -39 -31 -61t-82 -22q-35 0 -58 11t-32 28q-1 2 -1 6
q0 5 3 8t7 3q5 0 9 -4q26 -18 68 -18q32 0 51.5 12t19.5 36q0 38 -71 38q-19 0 -19 12t23 47q-98 14 -155 85.5t-57 181.5q0 104 51 209.5t142 174t206 68.5q62 0 112 -22t79 -61t29 -88q0 -30 -16.5 -54.5t-46.5 -24.5q-19 0 -25.5 14t-15.5 61q-3 55 -38 89.5t-92 34.5
q-82 0 -145 -58.5z" />
    <glyph glyph-name="Egrave" unicode="&#xc8;" horiz-adv-x="634" 
d="M605 209q0 -12 -11 -39t-36 -77q-26 -53 -38.5 -75t-20.5 -29t-18 -7t-17.5 5.5t-16.5 9t-31 3.5q-211 0 -279.5 -0.5t-87.5 -0.5h-31q-18 0 -25.5 3.5t-7.5 12.5q0 19 29 31q33 6 48 13.5t21.5 21t12.5 42.5l97 454q5 25 5 36q0 18 -11.5 26t-43.5 15q-21 9 -17 25
q3 13 12 17.5t30 4.5h101q55 -1 256 -1q31 0 51 11q12 7 23 7q10 0 14 -7t7 -29t6 -75q4 -43 4 -75q0 -34 -6.5 -45.5t-22.5 -11.5q-20 0 -25 26q-7 75 -12.5 104t-17 38.5t-39.5 9.5h-162q-20 0 -29.5 -3.5t-15 -14.5t-10.5 -35l-38 -176q-2 -12 -2 -15q0 -16 18 -16h97
q17 0 24.5 5t10 18.5t1.5 41.5q2 16 7 23.5t17 7.5t17 -7t7 -28.5t5 -80.5l2 -68q0 -33 -5.5 -44t-20.5 -11q-11 0 -15.5 5.5t-6.5 18.5q-2 34 -4.5 48t-9.5 19t-23 5h-107q-17 0 -24.5 -9t-11.5 -29l-46 -216q-3 -16 -3 -25q0 -12 8 -16t31 -4h205q26 0 43.5 11.5t36 41.5
t50.5 98q7 16 15 21.5t19 5.5q18 0 18 -16zM439 760.5q-43 24.5 -79.5 53t-35.5 40.5q1 9 8.5 13.5t26.5 5.5q20 0 31 -3.5t14 -13.5q7 -9 42 -42q22 -21 41 -41t19 -26q0 -11 -13 -11q-11 0 -54 24.5z" />
    <glyph glyph-name="Eacute" unicode="&#xc9;" horiz-adv-x="634" 
d="M605 209q0 -12 -11 -39t-36 -77q-26 -53 -38.5 -75t-20.5 -29t-18 -7t-17.5 5.5t-16.5 9t-31 3.5q-211 0 -279.5 -0.5t-87.5 -0.5h-31q-18 0 -25.5 3.5t-7.5 12.5q0 19 29 31q33 6 48 13.5t21.5 21t12.5 42.5l97 454q5 25 5 36q0 18 -11.5 26t-43.5 15q-21 9 -17 25
q3 13 12 17.5t30 4.5h101q55 -1 256 -1q31 0 51 11q12 7 23 7q10 0 14 -7t7 -29t6 -75q4 -43 4 -75q0 -34 -6.5 -45.5t-22.5 -11.5q-20 0 -25 26q-7 75 -12.5 104t-17 38.5t-39.5 9.5h-162q-20 0 -29.5 -3.5t-15 -14.5t-10.5 -35l-38 -176q-2 -12 -2 -15q0 -16 18 -16h97
q17 0 24.5 5t10 18.5t1.5 41.5q2 16 7 23.5t17 7.5t17 -7t7 -28.5t5 -80.5l2 -68q0 -33 -5.5 -44t-20.5 -11q-11 0 -15.5 5.5t-6.5 18.5q-2 34 -4.5 48t-9.5 19t-23 5h-107q-17 0 -24.5 -9t-11.5 -29l-46 -216q-3 -16 -3 -25q0 -12 8 -16t31 -4h205q26 0 43.5 11.5t36 41.5
t50.5 98q7 16 15 21.5t19 5.5q18 0 18 -16zM298 743q1 6 27.5 27.5t45 35t25.5 18.5q34 23 48 35q14 18 47 18q25 0 32.5 -4t5.5 -14q-2 -12 -50.5 -42.5t-103 -57t-66.5 -26.5q-14 0 -11 10z" />
    <glyph glyph-name="Ecircumflex" unicode="&#xca;" horiz-adv-x="634" 
d="M605 209q0 -12 -11 -39t-36 -77q-26 -53 -38.5 -75t-20.5 -29t-18 -7t-17.5 5.5t-16.5 9t-31 3.5q-211 0 -279.5 -0.5t-87.5 -0.5h-31q-18 0 -25.5 3.5t-7.5 12.5q0 19 29 31q33 6 48 13.5t21.5 21t12.5 42.5l97 454q5 25 5 36q0 18 -11.5 26t-43.5 15q-21 9 -17 25
q3 13 12 17.5t30 4.5h101q55 -1 256 -1q31 0 51 11q12 7 23 7q10 0 14 -7t7 -29t6 -75q4 -43 4 -75q0 -34 -6.5 -45.5t-22.5 -11.5q-20 0 -25 26q-7 75 -12.5 104t-17 38.5t-39.5 9.5h-162q-20 0 -29.5 -3.5t-15 -14.5t-10.5 -35l-38 -176q-2 -12 -2 -15q0 -16 18 -16h97
q17 0 24.5 5t10 18.5t1.5 41.5q2 16 7 23.5t17 7.5t17 -7t7 -28.5t5 -80.5l2 -68q0 -33 -5.5 -44t-20.5 -11q-11 0 -15.5 5.5t-6.5 18.5q-2 34 -4.5 48t-9.5 19t-23 5h-107q-17 0 -24.5 -9t-11.5 -29l-46 -216q-3 -16 -3 -25q0 -12 8 -16t31 -4h205q26 0 43.5 11.5t36 41.5
t50.5 98q7 16 15 21.5t19 5.5q18 0 18 -16zM254.5 737q-3.5 4 -2.5 8q1 13 62 64.5t96 71.5q18 9 27 9t22 -9q25 -19 62.5 -68.5t37.5 -66.5q0 -4 -5 -8.5t-10 -4.5q-7 0 -43 36q-69 64 -76 64q-6 0 -104 -64q-21 -15 -38 -25.5t-21 -10.5t-7.5 4z" />
    <glyph glyph-name="Edieresis" unicode="&#xcb;" horiz-adv-x="634" 
d="M605 209q0 -12 -11 -39t-36 -77q-26 -53 -38.5 -75t-20.5 -29t-18 -7t-17.5 5.5t-16.5 9t-31 3.5q-211 0 -279.5 -0.5t-87.5 -0.5h-31q-18 0 -25.5 3.5t-7.5 12.5q0 19 29 31q33 6 48 13.5t21.5 21t12.5 42.5l97 454q5 25 5 36q0 18 -11.5 26t-43.5 15q-21 9 -17 25
q3 13 12 17.5t30 4.5h101q55 -1 256 -1q31 0 51 11q12 7 23 7q10 0 14 -7t7 -29t6 -75q4 -43 4 -75q0 -34 -6.5 -45.5t-22.5 -11.5q-20 0 -25 26q-7 75 -12.5 104t-17 38.5t-39.5 9.5h-162q-20 0 -29.5 -3.5t-15 -14.5t-10.5 -35l-38 -176q-2 -12 -2 -15q0 -16 18 -16h97
q17 0 24.5 5t10 18.5t1.5 41.5q2 16 7 23.5t17 7.5t17 -7t7 -28.5t5 -80.5l2 -68q0 -33 -5.5 -44t-20.5 -11q-11 0 -15.5 5.5t-6.5 18.5q-2 34 -4.5 48t-9.5 19t-23 5h-107q-17 0 -24.5 -9t-11.5 -29l-46 -216q-3 -16 -3 -25q0 -12 8 -16t31 -4h205q26 0 43.5 11.5t36 41.5
t50.5 98q7 16 15 21.5t19 5.5q18 0 18 -16zM253 745.5q-10 7.5 -10 20.5q0 26 28 41.5t55 15.5q16 0 25.5 -7t9.5 -19q0 -27 -28 -43t-55 -16q-15 0 -25 7.5zM460 745.5q-10 7.5 -10 20.5q0 26 28 41.5t55 15.5q16 0 25.5 -7t9.5 -19q0 -27 -28 -43t-55 -16q-15 0 -25 7.5z
" />
    <glyph glyph-name="Igrave" unicode="&#xcc;" horiz-adv-x="332" 
d="M18 -1q-18 0 -25.5 3.5t-7.5 12.5q0 19 29 31q33 6 48 13.5t21.5 21t12.5 42.5l97 454q5 25 5 36q0 18 -11.5 26t-43.5 15q-21 9 -17 25q3 13 12 17.5t30 4.5q48 0 61 -1h27h16l90 1q17 0 25 -3.5t8 -11.5q0 -21 -28 -32q-33 -6 -48 -13.5t-21.5 -21t-12.5 -42.5
l-97 -454q-5 -25 -5 -37q0 -17 11.5 -25t43.5 -15q21 -9 17 -25q-3 -13 -12 -17.5t-30 -4.5q-49 0 -61 1h-28h-16zM309 760.5q-43 24.5 -79.5 53t-35.5 40.5q1 9 8.5 13.5t26.5 5.5q20 0 31 -3.5t14 -13.5q7 -9 42 -42q22 -21 41 -41t19 -26q0 -11 -13 -11q-11 0 -54 24.5z
" />
    <glyph glyph-name="Iacute" unicode="&#xcd;" horiz-adv-x="332" 
d="M18 -1q-18 0 -25.5 3.5t-7.5 12.5q0 19 29 31q33 6 48 13.5t21.5 21t12.5 42.5l97 454q5 25 5 36q0 18 -11.5 26t-43.5 15q-21 9 -17 25q3 13 12 17.5t30 4.5q48 0 61 -1h27h16l90 1q17 0 25 -3.5t8 -11.5q0 -21 -28 -32q-33 -6 -48 -13.5t-21.5 -21t-12.5 -42.5
l-97 -454q-5 -25 -5 -37q0 -17 11.5 -25t43.5 -15q21 -9 17 -25q-3 -13 -12 -17.5t-30 -4.5q-49 0 -61 1h-28h-16zM168 743q1 6 27.5 27.5t45 35t25.5 18.5q34 23 48 35q14 18 47 18q25 0 32.5 -4t5.5 -14q-2 -12 -50.5 -42.5t-103 -57t-66.5 -26.5q-14 0 -11 10z" />
    <glyph glyph-name="Icircumflex" unicode="&#xce;" horiz-adv-x="332" 
d="M18 -1q-18 0 -25.5 3.5t-7.5 12.5q0 19 29 31q33 6 48 13.5t21.5 21t12.5 42.5l97 454q5 25 5 36q0 18 -11.5 26t-43.5 15q-21 9 -17 25q3 13 12 17.5t30 4.5q48 0 61 -1h27h16l90 1q17 0 25 -3.5t8 -11.5q0 -21 -28 -32q-33 -6 -48 -13.5t-21.5 -21t-12.5 -42.5
l-97 -454q-5 -25 -5 -37q0 -17 11.5 -25t43.5 -15q21 -9 17 -25q-3 -13 -12 -17.5t-30 -4.5q-49 0 -61 1h-28h-16zM124.5 737q-3.5 4 -2.5 8q1 13 62 64.5t96 71.5q18 9 27 9t22 -9q25 -19 62.5 -68.5t37.5 -66.5q0 -4 -5 -8.5t-10 -4.5q-7 0 -43 36q-69 64 -76 64
q-6 0 -104 -64q-21 -15 -38 -25.5t-21 -10.5t-7.5 4z" />
    <glyph glyph-name="Idieresis" unicode="&#xcf;" horiz-adv-x="332" 
d="M18 -1q-18 0 -25.5 3.5t-7.5 12.5q0 19 29 31q33 6 48 13.5t21.5 21t12.5 42.5l97 454q5 25 5 36q0 18 -11.5 26t-43.5 15q-21 9 -17 25q3 13 12 17.5t30 4.5q48 0 61 -1h27h16l90 1q17 0 25 -3.5t8 -11.5q0 -21 -28 -32q-33 -6 -48 -13.5t-21.5 -21t-12.5 -42.5
l-97 -454q-5 -25 -5 -37q0 -17 11.5 -25t43.5 -15q21 -9 17 -25q-3 -13 -12 -17.5t-30 -4.5q-49 0 -61 1h-28h-16zM123 745.5q-10 7.5 -10 20.5q0 26 28 41.5t55 15.5q16 0 25.5 -7t9.5 -19q0 -27 -28 -43t-55 -16q-15 0 -25 7.5zM330 745.5q-10 7.5 -10 20.5q0 26 28 41.5
t55 15.5q16 0 25.5 -7t9.5 -19q0 -27 -28 -43t-55 -16q-15 0 -25 7.5z" />
    <glyph glyph-name="Eth" unicode="&#xd0;" horiz-adv-x="708" 
d="M613 633q94 -71 94 -202q0 -117 -53.5 -216t-159 -159t-254.5 -60q-42 0 -65.5 0.5t-39.5 0.5q-52 2 -117 2q-32 0 -32 15q0 22 28 32q32 6 47 13t21.5 19.5t11.5 37.5l43 201q-2 8 -10 8h-60q-15 0 -15 14t6.5 22t17.5 8h60q10 0 14 10l43 204q5 22 5 31q0 15 -11.5 24
t-41.5 17q-23 8 -19 25q3 13 11.5 17t29.5 4h37q31 0 79 2l67 1q169 0 263 -71zM449.5 103.5q79.5 58.5 118.5 147t39 178.5q0 109 -69 168.5t-189 59.5q-28 0 -39 -7.5t-17 -31.5l-48 -224v-5l-1 -6l-1 -6q0 -9 9 -9h160q20 0 15 -21q-4 -22 -24 -22h-160q-13 0 -14 -11
l-3 -11v-2l-46 -213q-2 -10 -2 -14q0 -18 16 -23.5t62 -5.5q114 0 193.5 58.5z" />
    <glyph glyph-name="Ntilde" unicode="&#xd1;" horiz-adv-x="746" 
d="M-15 12q0 24 26 29q36 5 50.5 13.5t23.5 34.5t24 97l84 397q7 32 7 41q0 17 -11.5 23.5t-42.5 11.5q-12 2 -16.5 7.5t-2.5 15.5q2 11 10 15.5t27 4.5q23 -1 69 -1h48q16 0 23 -13l253 -513q5 -9 12 -9q3 0 6.5 4t4.5 11l85 402q7 32 7 41q0 17 -11.5 23.5t-42.5 11.5
q-12 2 -16.5 7.5t-3.5 15.5q3 11 11 15.5t27 4.5q19 -1 68 -1q69 0 90 1q29 0 29 -14q0 -24 -26 -29q-36 -5 -50.5 -13.5t-23.5 -34.5t-25 -97l-104 -494q-2 -11 -9 -16.5t-17 -5.5q-17 0 -24 16l-288 559q-4 5 -9 5q-3 0 -5.5 -3t-3.5 -7l-95 -451q-7 -31 -7 -41
q0 -17 11.5 -23.5t42.5 -11.5q12 -2 16.5 -7.5t3.5 -15.5q-3 -11 -11 -15.5t-27 -4.5q-26 1 -73 1q-60 0 -85 -1q-29 0 -29 14zM525.5 746q-15.5 7 -35.5 20q-22 13 -36 19.5t-32 6.5q-33 0 -50 -36q-14 -19 -27 -19q-8 0 -13 5t-4 15q4 36 33 59.5t64 23.5q23 0 40 -7.5
t42 -22.5q17 -12 30.5 -18t27.5 -6q31 0 50 36q13 19 27 19q8 0 13 -5.5t5 -14.5q-5 -36 -34.5 -59t-65.5 -23q-19 0 -34.5 7z" />
    <glyph glyph-name="Ograve" unicode="&#xd2;" horiz-adv-x="731" 
d="M173.5 21.5q-59.5 32.5 -92.5 93t-33 141.5q0 31 4 58q12 104 68 195t146 146.5t199 55.5q80 0 140 -32.5t93 -92t33 -140.5q0 -30 -4 -57q-12 -105 -68 -197t-146.5 -147.5t-200.5 -55.5q-79 0 -138.5 32.5zM460 90.5q64 50.5 107 132.5t56 173q5 33 5 59q0 91 -46 148
t-128 57q-72 0 -135.5 -50.5t-106.5 -132t-56 -171.5q-5 -35 -5 -61q0 -91 45.5 -148t127.5 -57q72 0 136 50.5zM505 760.5q-43 24.5 -79.5 53t-35.5 40.5q1 9 8.5 13.5t26.5 5.5q20 0 31 -3.5t14 -13.5q7 -9 42 -42q22 -21 41 -41t19 -26q0 -11 -13 -11q-11 0 -54 24.5z
" />
    <glyph glyph-name="Oacute" unicode="&#xd3;" horiz-adv-x="731" 
d="M173.5 21.5q-59.5 32.5 -92.5 93t-33 141.5q0 31 4 58q12 104 68 195t146 146.5t199 55.5q80 0 140 -32.5t93 -92t33 -140.5q0 -30 -4 -57q-12 -105 -68 -197t-146.5 -147.5t-200.5 -55.5q-79 0 -138.5 32.5zM460 90.5q64 50.5 107 132.5t56 173q5 33 5 59q0 91 -46 148
t-128 57q-72 0 -135.5 -50.5t-106.5 -132t-56 -171.5q-5 -35 -5 -61q0 -91 45.5 -148t127.5 -57q72 0 136 50.5zM363 743q1 6 27.5 27.5t45 35t25.5 18.5q34 23 48 35q14 18 47 18q25 0 32.5 -4t5.5 -14q-2 -12 -50.5 -42.5t-103 -57t-66.5 -26.5q-14 0 -11 10z" />
    <glyph glyph-name="Ocircumflex" unicode="&#xd4;" horiz-adv-x="731" 
d="M173.5 21.5q-59.5 32.5 -92.5 93t-33 141.5q0 31 4 58q12 104 68 195t146 146.5t199 55.5q80 0 140 -32.5t93 -92t33 -140.5q0 -30 -4 -57q-12 -105 -68 -197t-146.5 -147.5t-200.5 -55.5q-79 0 -138.5 32.5zM460 90.5q64 50.5 107 132.5t56 173q5 33 5 59q0 91 -46 148
t-128 57q-72 0 -135.5 -50.5t-106.5 -132t-56 -171.5q-5 -35 -5 -61q0 -91 45.5 -148t127.5 -57q72 0 136 50.5zM319.5 737q-3.5 4 -2.5 8q1 13 62 64.5t96 71.5q18 9 27 9t22 -9q25 -19 62.5 -68.5t37.5 -66.5q0 -4 -5 -8.5t-10 -4.5q-7 0 -43 36q-69 64 -76 64
q-6 0 -104 -64q-21 -15 -38 -25.5t-21 -10.5t-7.5 4z" />
    <glyph glyph-name="Otilde" unicode="&#xd5;" horiz-adv-x="731" 
d="M173.5 21.5q-59.5 32.5 -92.5 93t-33 141.5q0 31 4 58q12 104 68 195t146 146.5t199 55.5q80 0 140 -32.5t93 -92t33 -140.5q0 -30 -4 -57q-12 -105 -68 -197t-146.5 -147.5t-200.5 -55.5q-79 0 -138.5 32.5zM460 90.5q64 50.5 107 132.5t56 173q5 33 5 59q0 91 -46 148
t-128 57q-72 0 -135.5 -50.5t-106.5 -132t-56 -171.5q-5 -35 -5 -61q0 -91 45.5 -148t127.5 -57q72 0 136 50.5zM512.5 746q-15.5 7 -35.5 20q-22 13 -36 19.5t-32 6.5q-33 0 -50 -36q-14 -19 -27 -19q-8 0 -13 5t-4 15q4 36 33 59.5t64 23.5q23 0 40 -7.5t42 -22.5
q17 -12 30.5 -18t27.5 -6q31 0 50 36q13 19 27 19q8 0 13 -5.5t5 -14.5q-5 -36 -34.5 -59t-65.5 -23q-19 0 -34.5 7z" />
    <glyph glyph-name="Odieresis" unicode="&#xd6;" horiz-adv-x="731" 
d="M173.5 21.5q-59.5 32.5 -92.5 93t-33 141.5q0 31 4 58q12 104 68 195t146 146.5t199 55.5q80 0 140 -32.5t93 -92t33 -140.5q0 -30 -4 -57q-12 -105 -68 -197t-146.5 -147.5t-200.5 -55.5q-79 0 -138.5 32.5zM460 90.5q64 50.5 107 132.5t56 173q5 33 5 59q0 91 -46 148
t-128 57q-72 0 -135.5 -50.5t-106.5 -132t-56 -171.5q-5 -35 -5 -61q0 -91 45.5 -148t127.5 -57q72 0 136 50.5zM318 745.5q-10 7.5 -10 20.5q0 26 28 41.5t55 15.5q16 0 25.5 -7t9.5 -19q0 -27 -28 -43t-55 -16q-15 0 -25 7.5zM525 745.5q-10 7.5 -10 20.5q0 26 28 41.5
t55 15.5q16 0 25.5 -7t9.5 -19q0 -27 -28 -43t-55 -16q-15 0 -25 7.5z" />
    <glyph glyph-name="multiply" unicode="&#xd7;" horiz-adv-x="397" 
d="M36 149q0 13 20 26l91 59q4 3 4 8q0 3 -3 7l-79 78q-13 13 -13 22t11 16q10 7 22 7q15 0 32 -17l74 -74q5 -5 11 -5q4 0 9 3l96 61q13 8 22 8q14 0 26 -12q7 -7 7 -14q0 -10 -16 -21l-95 -62q-5 -3 -6.5 -7t2.5 -7l80 -81q9 -8 9 -18q0 -12 -12 -21q-7 -5 -18 -5
q-15 0 -26 13l-81 81q-4 4 -8 4q-3 0 -8 -3l-96 -63q-18 -9 -27 -9q-11 0 -20 9q-8 10 -8 17z" />
    <glyph glyph-name="Oslash" unicode="&#xd8;" horiz-adv-x="731" 
d="M718 690q6 6 17 6t19.5 -5.5t8.5 -13.5t-10 -18l-63 -59q41 -66 41 -154q0 -30 -4 -57q-12 -105 -68 -197t-146.5 -147.5t-200.5 -55.5q-60 0 -109.5 19.5t-85.5 55.5l-57 -54q-7 -5 -17 -5q-11 0 -20 5t-9 14q0 8 11 18l63 59q-40 65 -40 154q0 32 4 59q12 104 68 195
t146 146.5t199 55.5q61 0 110.5 -19t85.5 -55zM151 245q0 -41 9 -76l439 410q-22 39 -58.5 60t-86.5 21q-72 0 -135.5 -50.5t-106.5 -132t-56 -171.5q-5 -35 -5 -61zM628 455q0 44 -10 77l-439 -410q22 -39 59 -60.5t86 -21.5q72 0 136 50.5t107 132.5t56 173q5 33 5 59z
" />
    <glyph glyph-name="Ugrave" unicode="&#xd9;" horiz-adv-x="740" 
d="M92 168q0 36 9 76l69 323q6 29 6 44q0 20 -11 28.5t-42 14.5q-17 6 -17 22q0 25 40 25l196 -1q17 0 25 -3.5t8 -11.5q0 -22 -28 -31q-33 -7 -48 -14t-22 -20.5t-13 -42.5l-69 -326q-7 -31 -7 -62q0 -68 41.5 -103.5t123.5 -35.5q96 0 158 49t81 139l68 316q9 47 9 58
q0 21 -11.5 28.5t-42.5 12.5q-17 7 -17 22q0 25 42 25h71q47 0 79 1q32 0 32 -17q0 -19 -27 -30q-32 -5 -46.5 -13t-23.5 -26.5t-18 -60.5l-65 -307q-28 -129 -108.5 -193.5t-210.5 -64.5q-231 0 -231 179zM520 760.5q-43 24.5 -79.5 53t-35.5 40.5q1 9 8.5 13.5t26.5 5.5
q20 0 31 -3.5t14 -13.5q7 -9 42 -42q22 -21 41 -41t19 -26q0 -11 -13 -11q-11 0 -54 24.5z" />
    <glyph glyph-name="Uacute" unicode="&#xda;" horiz-adv-x="740" 
d="M92 168q0 36 9 76l69 323q6 29 6 44q0 20 -11 28.5t-42 14.5q-17 6 -17 22q0 25 40 25l196 -1q17 0 25 -3.5t8 -11.5q0 -22 -28 -31q-33 -7 -48 -14t-22 -20.5t-13 -42.5l-69 -326q-7 -31 -7 -62q0 -68 41.5 -103.5t123.5 -35.5q96 0 158 49t81 139l68 316q9 47 9 58
q0 21 -11.5 28.5t-42.5 12.5q-17 7 -17 22q0 25 42 25h71q47 0 79 1q32 0 32 -17q0 -19 -27 -30q-32 -5 -46.5 -13t-23.5 -26.5t-18 -60.5l-65 -307q-28 -129 -108.5 -193.5t-210.5 -64.5q-231 0 -231 179zM378 743q1 6 27.5 27.5t45 35t25.5 18.5q34 23 48 35q14 18 47 18
q25 0 32.5 -4t5.5 -14q-2 -12 -50.5 -42.5t-103 -57t-66.5 -26.5q-14 0 -11 10z" />
    <glyph glyph-name="Ucircumflex" unicode="&#xdb;" horiz-adv-x="740" 
d="M92 168q0 36 9 76l69 323q6 29 6 44q0 20 -11 28.5t-42 14.5q-17 6 -17 22q0 25 40 25l196 -1q17 0 25 -3.5t8 -11.5q0 -22 -28 -31q-33 -7 -48 -14t-22 -20.5t-13 -42.5l-69 -326q-7 -31 -7 -62q0 -68 41.5 -103.5t123.5 -35.5q96 0 158 49t81 139l68 316q9 47 9 58
q0 21 -11.5 28.5t-42.5 12.5q-17 7 -17 22q0 25 42 25h71q47 0 79 1q32 0 32 -17q0 -19 -27 -30q-32 -5 -46.5 -13t-23.5 -26.5t-18 -60.5l-65 -307q-28 -129 -108.5 -193.5t-210.5 -64.5q-231 0 -231 179zM334.5 737q-3.5 4 -2.5 8q1 13 62 64.5t96 71.5q18 9 27 9t22 -9
q25 -19 62.5 -68.5t37.5 -66.5q0 -4 -5 -8.5t-10 -4.5q-7 0 -43 36q-69 64 -76 64q-6 0 -104 -64q-21 -15 -38 -25.5t-21 -10.5t-7.5 4z" />
    <glyph glyph-name="Udieresis" unicode="&#xdc;" horiz-adv-x="740" 
d="M92 168q0 36 9 76l69 323q6 29 6 44q0 20 -11 28.5t-42 14.5q-17 6 -17 22q0 25 40 25l196 -1q17 0 25 -3.5t8 -11.5q0 -22 -28 -31q-33 -7 -48 -14t-22 -20.5t-13 -42.5l-69 -326q-7 -31 -7 -62q0 -68 41.5 -103.5t123.5 -35.5q96 0 158 49t81 139l68 316q9 47 9 58
q0 21 -11.5 28.5t-42.5 12.5q-17 7 -17 22q0 25 42 25h71q47 0 79 1q32 0 32 -17q0 -19 -27 -30q-32 -5 -46.5 -13t-23.5 -26.5t-18 -60.5l-65 -307q-28 -129 -108.5 -193.5t-210.5 -64.5q-231 0 -231 179zM333 745.5q-10 7.5 -10 20.5q0 26 28 41.5t55 15.5q16 0 25.5 -7
t9.5 -19q0 -27 -28 -43t-55 -16q-15 0 -25 7.5zM540 745.5q-10 7.5 -10 20.5q0 26 28 41.5t55 15.5q16 0 25.5 -7t9.5 -19q0 -27 -28 -43t-55 -16q-15 0 -25 7.5z" />
    <glyph glyph-name="Yacute" unicode="&#xdd;" horiz-adv-x="677" 
d="M170 2.5q-8 3.5 -8 11.5q0 20 29 32q33 6 47.5 13.5t21 20.5t12.5 43l27 125q2 10 2 17q0 23 -9 47l-108 292q-10 28 -24 36.5t-46 10.5q-10 4 -14 9.5t-2 16.5q4 14 15.5 19.5t32.5 4.5q18 -1 72 -1q83 0 118 1q24 0 33 -5.5t7 -15.5q-5 -18 -25 -25q-37 -4 -52 -10
t-15 -19q0 -4 4 -16l93 -246q3 -9 9 -9t12 9l200 254q9 12 9 19q0 10 -15 14.5t-51 6.5q-7 4 -9.5 8.5t-0.5 12.5q3 12 12 17t26 5q35 -1 102 -1q45 0 66 1q26 0 26 -15q0 -23 -33 -33q-22 -1 -34 -5.5t-20 -13t-26 -30.5l-230 -287q-25 -32 -32 -68l-25 -116q-7 -35 -7 -45
q0 -19 11.5 -27.5t42.5 -14.5q18 -7 18 -19q0 -28 -39 -28h-198q-17 0 -25 3.5zM355 743q1 6 27.5 27.5t45 35t25.5 18.5q34 23 48 35q14 18 47 18q25 0 32.5 -4t5.5 -14q-2 -12 -50.5 -42.5t-103 -57t-66.5 -26.5q-14 0 -11 10z" />
    <glyph glyph-name="Thorn" unicode="&#xde;" horiz-adv-x="595" 
d="M-7.5 2.5q-7.5 3.5 -7.5 12.5q0 19 29 31q33 6 48 13.5t21.5 21t12.5 42.5l94 444q7 35 7 46q0 18 -11 26t-43 16q-19 10 -17 26q2 10 11 15t28 5h199q17 0 25 -3.5t8 -11.5q0 -21 -28 -32q-33 -6 -47.5 -12t-20 -15t-9.5 -29l-7 -32q-1 -3 -1 -8q0 -16 23 -16h67
q117 0 177 -37.5t60 -108.5q0 -17 -5 -42q-19 -90 -94.5 -135.5t-202.5 -45.5h-79q-31 0 -40 -39l-5 -23q-4 -17 -4 -30q0 -16 10.5 -22t45.5 -13q20 -8 17 -26q-2 -10 -11 -15.5t-28 -5.5h-197q-18 0 -25.5 3.5zM311 220q80 0 129.5 34t64.5 101q4 17 4 36q0 51 -35.5 77.5
t-105.5 26.5h-62q-19 0 -30.5 -9t-16.5 -31l-42 -198q-2 -12 -2 -15q0 -12 7 -17t23 -5h66z" />
    <glyph glyph-name="germandbls" unicode="&#xdf;" horiz-adv-x="584" 
d="M508 358q41 -47 41 -113t-32.5 -125.5t-88.5 -95t-123 -35.5q-60 0 -91.5 27.5t-31.5 71.5q0 18 5 34t18 16q7 0 8.5 -7t1 -15.5t-0.5 -12.5q0 -30 22 -47t60 -17q45 0 81 31t56 77.5t20 90.5q0 66 -40 104.5t-109 38.5q-16 0 -22 4t-6 13q0 13 6.5 18.5t25.5 13.5
q76 20 113.5 66t37.5 97q0 37 -23.5 55t-63.5 18q-57 0 -97 -40t-54 -108l-93 -436q-2 -12 -2 -14q0 -8 4.5 -18t4.5 -21q0 -15 -12 -22.5t-39 -7.5l-24 1q-20 0 -30 -1l-38 -1q-26 0 -36 5t-8 17q6 17 26 21q29 5 43 16.5t23 39t22 91.5l9 42l58 276q21 99 84.5 152
t170.5 53q69 0 112 -33t43 -87q0 -57 -38 -105t-101 -68q67 -13 108 -60z" />
    <glyph glyph-name="agrave" unicode="&#xe0;" horiz-adv-x="573" 
d="M56.5 29.5q-35.5 40.5 -35.5 115.5q0 77 30.5 155.5t89 130t135.5 51.5q40 0 66 -17t47 -41q18 -17 32 -17q7 0 12 5.5t15 25.5q13 27 20 35.5t16 8.5t13 -5.5t2 -13.5l-74 -344q-3 -12 -3 -23q0 -17 7.5 -27t23.5 -10q36 0 62 71q6 8 15 8q6 0 9.5 -4t3.5 -12t-4 -16
q-19 -53 -51.5 -85t-75.5 -32q-37 0 -56 22.5t-19 59.5q0 19 4 35v4q0 4 -1 6.5t-3 2.5q-4 0 -7 -6q-38 -55 -79.5 -89.5t-96.5 -34.5q-62 0 -97.5 40.5zM268.5 90.5q35.5 31.5 61 77t35.5 86.5q8 29 10.5 46t2.5 38q0 45 -25 72.5t-65 27.5q-51 0 -90.5 -43t-61 -106
t-21.5 -117q0 -55 21.5 -84t57.5 -29q39 0 74.5 31.5zM333.5 562q-36.5 31 -68.5 66.5t-32 48.5q0 10 8.5 14t28.5 4t31 -3.5t14 -15.5q-2 3 28 -44q53 -80 52 -90q-1 -11 -14 -11q-11 0 -47.5 31z" />
    <glyph glyph-name="aacute" unicode="&#xe1;" horiz-adv-x="573" 
d="M56.5 29.5q-35.5 40.5 -35.5 115.5q0 77 30.5 155.5t89 130t135.5 51.5q40 0 66 -17t47 -41q18 -17 32 -17q7 0 12 5.5t15 25.5q13 27 20 35.5t16 8.5t13 -5.5t2 -13.5l-74 -344q-3 -12 -3 -23q0 -17 7.5 -27t23.5 -10q36 0 62 71q6 8 15 8q6 0 9.5 -4t3.5 -12t-4 -16
q-19 -53 -51.5 -85t-75.5 -32q-37 0 -56 22.5t-19 59.5q0 19 4 35v4q0 4 -1 6.5t-3 2.5q-4 0 -7 -6q-38 -55 -79.5 -89.5t-96.5 -34.5q-62 0 -97.5 40.5zM268.5 90.5q35.5 31.5 61 77t35.5 86.5q8 29 10.5 46t2.5 38q0 45 -25 72.5t-65 27.5q-51 0 -90.5 -43t-61 -106
t-21.5 -117q0 -55 21.5 -84t57.5 -29q39 0 74.5 31.5zM294 540q1 12 93 95q41 39 43 41q8 12 19 15.5t31 3.5t27 -4t5 -13q-1 -12 -46.5 -47.5t-96.5 -67.5t-63 -32q-13 0 -12 9z" />
    <glyph glyph-name="acircumflex" unicode="&#xe2;" horiz-adv-x="573" 
d="M56.5 29.5q-35.5 40.5 -35.5 115.5q0 77 30.5 155.5t89 130t135.5 51.5q40 0 66 -17t47 -41q18 -17 32 -17q7 0 12 5.5t15 25.5q13 27 20 35.5t16 8.5t13 -5.5t2 -13.5l-74 -344q-3 -12 -3 -23q0 -17 7.5 -27t23.5 -10q36 0 62 71q6 8 15 8q6 0 9.5 -4t3.5 -12t-4 -16
q-19 -53 -51.5 -85t-75.5 -32q-37 0 -56 22.5t-19 59.5q0 19 4 35v4q0 4 -1 6.5t-3 2.5q-4 0 -7 -6q-38 -55 -79.5 -89.5t-96.5 -34.5q-62 0 -97.5 40.5zM268.5 90.5q35.5 31.5 61 77t35.5 86.5q8 29 10.5 46t2.5 38q0 45 -25 72.5t-65 27.5q-51 0 -90.5 -43t-61 -106
t-21.5 -117q0 -55 21.5 -84t57.5 -29q39 0 74.5 31.5zM194 534.5q-3 3.5 -3 6.5q0 15 60.5 67.5t97.5 73.5q15 8 27 8q10 0 23 -8q24 -19 62 -71t38 -68q0 -4 -4.5 -8t-10.5 -4q-5 0 -18.5 11.5t-25.5 24.5q-68 68 -76 68q-3 0 -35 -20.5t-69 -47.5q-20 -15 -37.5 -25.5
t-20.5 -10.5q-5 0 -8 3.5z" />
    <glyph glyph-name="atilde" unicode="&#xe3;" horiz-adv-x="573" 
d="M56.5 29.5q-35.5 40.5 -35.5 115.5q0 77 30.5 155.5t89 130t135.5 51.5q40 0 66 -17t47 -41q18 -17 32 -17q7 0 12 5.5t15 25.5q13 27 20 35.5t16 8.5t13 -5.5t2 -13.5l-74 -344q-3 -12 -3 -23q0 -17 7.5 -27t23.5 -10q36 0 62 71q6 8 15 8q6 0 9.5 -4t3.5 -12t-4 -16
q-19 -53 -51.5 -85t-75.5 -32q-37 0 -56 22.5t-19 59.5q0 19 4 35v4q0 4 -1 6.5t-3 2.5q-4 0 -7 -6q-38 -55 -79.5 -89.5t-96.5 -34.5q-62 0 -97.5 40.5zM268.5 90.5q35.5 31.5 61 77t35.5 86.5q8 29 10.5 46t2.5 38q0 45 -25 72.5t-65 27.5q-51 0 -90.5 -43t-61 -106
t-21.5 -117q0 -55 21.5 -84t57.5 -29q39 0 74.5 31.5zM379.5 567q-15.5 7 -35.5 20q-22 13 -36 19.5t-32 6.5q-33 0 -50 -36q-14 -19 -27 -19q-8 0 -13 5t-4 15q4 36 33 59.5t64 23.5q23 0 40 -7.5t42 -22.5q17 -12 30.5 -18t27.5 -6q31 0 50 36q13 19 27 19q8 0 13 -5.5
t5 -14.5q-5 -36 -34.5 -59t-65.5 -23q-19 0 -34.5 7z" />
    <glyph glyph-name="adieresis" unicode="&#xe4;" horiz-adv-x="573" 
d="M56.5 29.5q-35.5 40.5 -35.5 115.5q0 77 30.5 155.5t89 130t135.5 51.5q40 0 66 -17t47 -41q18 -17 32 -17q7 0 12 5.5t15 25.5q13 27 20 35.5t16 8.5t13 -5.5t2 -13.5l-74 -344q-3 -12 -3 -23q0 -17 7.5 -27t23.5 -10q36 0 62 71q6 8 15 8q6 0 9.5 -4t3.5 -12t-4 -16
q-19 -53 -51.5 -85t-75.5 -32q-37 0 -56 22.5t-19 59.5q0 19 4 35v4q0 4 -1 6.5t-3 2.5q-4 0 -7 -6q-38 -55 -79.5 -89.5t-96.5 -34.5q-62 0 -97.5 40.5zM268.5 90.5q35.5 31.5 61 77t35.5 86.5q8 29 10.5 46t2.5 38q0 45 -25 72.5t-65 27.5q-51 0 -90.5 -43t-61 -106
t-21.5 -117q0 -55 21.5 -84t57.5 -29q39 0 74.5 31.5zM208 584.5q-10 7.5 -10 20.5q0 26 28 41.5t55 15.5q16 0 25.5 -7t9.5 -19q0 -27 -28 -43t-55 -16q-15 0 -25 7.5zM415 584.5q-10 7.5 -10 20.5q0 26 28 41.5t55 15.5q16 0 25.5 -7t9.5 -19q0 -27 -28 -43t-55 -16
q-15 0 -25 7.5z" />
    <glyph glyph-name="aring" unicode="&#xe5;" horiz-adv-x="573" 
d="M56.5 29.5q-35.5 40.5 -35.5 115.5q0 77 30.5 155.5t89 130t135.5 51.5q40 0 66 -17t47 -41q18 -17 32 -17q7 0 12 5.5t15 25.5q13 27 20 35.5t16 8.5t13 -5.5t2 -13.5l-74 -344q-3 -12 -3 -23q0 -17 7.5 -27t23.5 -10q36 0 62 71q6 8 15 8q6 0 9.5 -4t3.5 -12t-4 -16
q-19 -53 -51.5 -85t-75.5 -32q-37 0 -56 22.5t-19 59.5q0 19 4 35v4q0 4 -1 6.5t-3 2.5q-4 0 -7 -6q-38 -55 -79.5 -89.5t-96.5 -34.5q-62 0 -97.5 40.5zM268.5 90.5q35.5 31.5 61 77t35.5 86.5q8 29 10.5 46t2.5 38q0 45 -25 72.5t-65 27.5q-51 0 -90.5 -43t-61 -106
t-21.5 -117q0 -55 21.5 -84t57.5 -29q39 0 74.5 31.5zM290.5 551q-20.5 17 -20.5 46q0 43 32 70t73 27q32 0 53 -18t21 -47q0 -4 -2 -16q-8 -35 -38.5 -57t-65.5 -22q-32 0 -52.5 17zM388 583q18 18 18 42q0 17 -9.5 28t-25.5 11q-23 0 -40.5 -18.5t-17.5 -42.5
q0 -17 9.5 -27.5t25.5 -10.5q22 0 40 18z" />
    <glyph glyph-name="ae" unicode="&#xe6;" horiz-adv-x="747" 
d="M427 186q-1 -64 26 -100t84 -36q46 0 79.5 19.5t64.5 52.5q8 8 18 8q5 0 9 -4t4 -10q0 -7 -4 -12q-33 -52 -83 -83.5t-114 -31.5q-62 0 -104 29t-60 80q-85 -109 -217 -109q-63 0 -94 27.5t-31 74.5q0 20 4 37q13 61 75.5 99.5t161.5 40.5q42 0 61.5 2t28 7t9.5 17l3 36
q2 26 2 37q0 41 -15.5 59.5t-56.5 18.5q-46 0 -81 -27t-47 -73q-13 -36 -51 -36q-11 0 -18 6.5t-7 18.5q0 6 1 10q8 38 40.5 70t80.5 50.5t101 18.5q107 0 132 -77q37 37 83 57t99 20q56 0 91 -33t35 -79q0 -50 -28 -83t-93 -55t-178 -34q-12 0 -11 -13zM516.5 413.5
q-35.5 -28.5 -57.5 -71.5t-29 -85l-2 -16q1 -6 4.5 -7.5t10.5 0.5q65 10 109 21t80.5 38t36.5 75q0 32 -18.5 53t-53.5 21q-45 0 -80.5 -28.5zM246.5 51.5q34.5 17.5 58.5 48.5t30 69v4q0 12 2 34q-1 15 -8 21t-20.5 7t-47.5 1q-72 0 -111.5 -25.5t-47.5 -65.5
q-4 -19 -4 -38q0 -73 78 -73q36 0 70.5 17.5z" />
    <glyph glyph-name="ccedilla" unicode="&#xe7;" horiz-adv-x="455" 
d="M203.5 401.5q-39.5 -36.5 -61 -93.5t-21.5 -115q0 -64 28.5 -102.5t85.5 -38.5q71 0 137 70q10 10 18 10q6 0 9 -4.5t3 -10.5t-3 -12q-27 -42 -68 -73t-92 -40l-22 -37q41 -1 66 -16t25 -43q0 -39 -31 -61t-82 -22q-35 0 -58 11t-32 28q-1 2 -1 6q0 5 3 8t7 3q5 0 9 -4
q26 -18 68 -18q32 0 51.5 12t19.5 36q0 38 -71 38q-19 0 -19 12q0 11 21 44q-79 2 -123 52.5t-44 131.5q0 75 34.5 147t97 117.5t141.5 45.5q35 0 68 -15.5t53 -43.5t20 -63q0 -26 -10 -43.5t-30 -17.5q-18 0 -23.5 10.5t-7 26t-2.5 22.5q-7 79 -74 79q-50 0 -89.5 -36.5z
" />
    <glyph glyph-name="egrave" unicode="&#xe8;" horiz-adv-x="426" 
d="M70.5 39q-44.5 50 -44.5 131q0 79 34.5 151.5t96.5 117t139 44.5q54 0 86.5 -29t32.5 -74q0 -78 -63 -123t-219 -62q-6 -1 -8.5 -3.5t-2.5 -11.5q0 -58 26.5 -93t83.5 -35q38 0 67.5 18t60.5 52q9 9 18 9q5 0 9 -4t4 -10t-4 -13q-30 -50 -80 -82.5t-113 -32.5
q-79 0 -123.5 50zM286 276.5q61 28.5 63 94.5q0 31 -15.5 49t-49.5 18q-42 0 -77 -30.5t-56.5 -75.5t-26.5 -86v-3q0 -12 14 -9q87 14 148 42.5zM284.5 562q-36.5 31 -68.5 66.5t-32 48.5q0 10 8.5 14t28.5 4t31 -3.5t14 -15.5q-2 3 28 -44q53 -80 52 -90q-1 -11 -14 -11
q-11 0 -47.5 31z" />
    <glyph glyph-name="eacute" unicode="&#xe9;" horiz-adv-x="426" 
d="M70.5 39q-44.5 50 -44.5 131q0 79 34.5 151.5t96.5 117t139 44.5q54 0 86.5 -29t32.5 -74q0 -78 -63 -123t-219 -62q-6 -1 -8.5 -3.5t-2.5 -11.5q0 -58 26.5 -93t83.5 -35q38 0 67.5 18t60.5 52q9 9 18 9q5 0 9 -4t4 -10t-4 -13q-30 -50 -80 -82.5t-113 -32.5
q-79 0 -123.5 50zM286 276.5q61 28.5 63 94.5q0 31 -15.5 49t-49.5 18q-42 0 -77 -30.5t-56.5 -75.5t-26.5 -86v-3q0 -12 14 -9q87 14 148 42.5zM245 540q1 12 93 95q41 39 43 41q8 12 19 15.5t31 3.5t27 -4t5 -13q-1 -12 -46.5 -47.5t-96.5 -67.5t-63 -32q-13 0 -12 9z" />
    <glyph glyph-name="ecircumflex" unicode="&#xea;" horiz-adv-x="426" 
d="M70.5 39q-44.5 50 -44.5 131q0 79 34.5 151.5t96.5 117t139 44.5q54 0 86.5 -29t32.5 -74q0 -78 -63 -123t-219 -62q-6 -1 -8.5 -3.5t-2.5 -11.5q0 -58 26.5 -93t83.5 -35q38 0 67.5 18t60.5 52q9 9 18 9q5 0 9 -4t4 -10t-4 -13q-30 -50 -80 -82.5t-113 -32.5
q-79 0 -123.5 50zM286 276.5q61 28.5 63 94.5q0 31 -15.5 49t-49.5 18q-42 0 -77 -30.5t-56.5 -75.5t-26.5 -86v-3q0 -12 14 -9q87 14 148 42.5zM144 534.5q-3 3.5 -3 6.5q0 15 60.5 67.5t97.5 73.5q15 8 27 8q10 0 23 -8q24 -19 62 -71t38 -68q0 -4 -4.5 -8t-10.5 -4
q-5 0 -18.5 11.5t-25.5 24.5q-68 68 -76 68q-3 0 -35 -20.5t-69 -47.5q-20 -15 -37.5 -25.5t-20.5 -10.5q-5 0 -8 3.5z" />
    <glyph glyph-name="edieresis" unicode="&#xeb;" horiz-adv-x="426" 
d="M70.5 39q-44.5 50 -44.5 131q0 79 34.5 151.5t96.5 117t139 44.5q54 0 86.5 -29t32.5 -74q0 -78 -63 -123t-219 -62q-6 -1 -8.5 -3.5t-2.5 -11.5q0 -58 26.5 -93t83.5 -35q38 0 67.5 18t60.5 52q9 9 18 9q5 0 9 -4t4 -10t-4 -13q-30 -50 -80 -82.5t-113 -32.5
q-79 0 -123.5 50zM286 276.5q61 28.5 63 94.5q0 31 -15.5 49t-49.5 18q-42 0 -77 -30.5t-56.5 -75.5t-26.5 -86v-3q0 -12 14 -9q87 14 148 42.5zM159 584.5q-10 7.5 -10 20.5q0 26 28 41.5t55 15.5q16 0 25.5 -7t9.5 -19q0 -27 -28 -43t-55 -16q-15 0 -25 7.5zM366 584.5
q-10 7.5 -10 20.5q0 26 28 41.5t55 15.5q16 0 25.5 -7t9.5 -19q0 -27 -28 -43t-55 -16q-15 0 -25 7.5z" />
    <glyph glyph-name="igrave" unicode="&#xec;" horiz-adv-x="295" 
d="M55 70q0 27 7 54l53 249q3 11 3 19q0 21 -21 27l-23 4q-15 2 -21 4t-6 8q0 10 8 15t24 10q96 18 120 18q23 0 23 -17q0 -2 -2 -10l-70 -332q-3 -12 -3 -22q0 -38 31 -38q35 0 62 72q4 7 13 7q6 0 10.5 -4.5t4.5 -11.5q0 -8 -4 -16q-18 -52 -52 -84.5t-78 -32.5
q-79 0 -79 81zM186.5 562q-36.5 31 -68.5 66.5t-32 48.5q0 10 8.5 14t28.5 4t31 -3.5t14 -15.5q-2 3 28 -44q53 -80 52 -90q-1 -11 -14 -11q-11 0 -47.5 31z" />
    <glyph glyph-name="iacute" unicode="&#xed;" horiz-adv-x="295" 
d="M55 70q0 27 7 54l53 249q3 11 3 19q0 21 -21 27l-23 4q-15 2 -21 4t-6 8q0 10 8 15t24 10q96 18 120 18q23 0 23 -17q0 -2 -2 -10l-70 -332q-3 -12 -3 -22q0 -38 31 -38q35 0 62 72q4 7 13 7q6 0 10.5 -4.5t4.5 -11.5q0 -8 -4 -16q-18 -52 -52 -84.5t-78 -32.5
q-79 0 -79 81zM147 540q1 12 93 95q41 39 43 41q8 12 19 15.5t31 3.5t27 -4t5 -13q-1 -12 -46.5 -47.5t-96.5 -67.5t-63 -32q-13 0 -12 9z" />
    <glyph glyph-name="icircumflex" unicode="&#xee;" horiz-adv-x="295" 
d="M55 70q0 27 7 54l53 249q3 11 3 19q0 21 -21 27l-23 4q-15 2 -21 4t-6 8q0 10 8 15t24 10q96 18 120 18q23 0 23 -17q0 -2 -2 -10l-70 -332q-3 -12 -3 -22q0 -38 31 -38q35 0 62 72q4 7 13 7q6 0 10.5 -4.5t4.5 -11.5q0 -8 -4 -16q-18 -52 -52 -84.5t-78 -32.5
q-79 0 -79 81zM47 534.5q-3 3.5 -3 6.5q0 15 60.5 67.5t97.5 73.5q15 8 27 8q10 0 23 -8q24 -19 62 -71t38 -68q0 -4 -4.5 -8t-10.5 -4q-5 0 -18.5 11.5t-25.5 24.5q-68 68 -76 68q-3 0 -35 -20.5t-69 -47.5q-20 -15 -37.5 -25.5t-20.5 -10.5q-5 0 -8 3.5z" />
    <glyph glyph-name="idieresis" unicode="&#xef;" horiz-adv-x="295" 
d="M55 70q0 27 7 54l53 249q3 11 3 19q0 21 -21 27l-23 4q-15 2 -21 4t-6 8q0 10 8 15t24 10q96 18 120 18q23 0 23 -17q0 -2 -2 -10l-70 -332q-3 -12 -3 -22q0 -38 31 -38q35 0 62 72q4 7 13 7q6 0 10.5 -4.5t4.5 -11.5q0 -8 -4 -16q-18 -52 -52 -84.5t-78 -32.5
q-79 0 -79 81zM61 584.5q-10 7.5 -10 20.5q0 26 28 41.5t55 15.5q16 0 25.5 -7t9.5 -19q0 -27 -28 -43t-55 -16q-15 0 -25 7.5zM268 584.5q-10 7.5 -10 20.5q0 26 28 41.5t55 15.5q16 0 25.5 -7t9.5 -19q0 -27 -28 -43t-55 -16q-15 0 -25 7.5z" />
    <glyph glyph-name="eth" unicode="&#xf0;" horiz-adv-x="552" 
d="M428 644q53 -45 81 -115t28 -158q0 -58 -14 -126q-17 -81 -62.5 -139t-107 -87.5t-128.5 -29.5q-94 0 -147 48.5t-53 136.5q0 30 8 70q15 67 55.5 120.5t96.5 83t115 29.5q48 0 83.5 -20.5t48.5 -51.5q3 -4 5 -4q3 0 5 3.5t1 7.5q2 132 -71 199l-108 -64q-5 -4 -10 -4
q-8 0 -8 14q2 13 11 20l91 54q-42 28 -106 39q-21 4 -21 20q0 9 8.5 16t22.5 6q87 -4 151 -49l115 68q5 4 10 4q8 0 6 -13q0 -8 -2 -12.5t-9 -8.5zM429 275q0 71 -32 117t-89 46q-62 0 -111 -48t-65 -119q-8 -43 -8 -76q0 -73 30.5 -117.5t86.5 -44.5q69 0 115.5 48
t64.5 122q8 33 8 72z" />
    <glyph glyph-name="ntilde" unicode="&#xf1;" horiz-adv-x="600" 
d="M376.5 10.5q-19.5 21.5 -19.5 60.5q0 20 7 53l41 173q6 26 6 45q0 33 -16.5 50t-43.5 17q-36 0 -73 -28t-66.5 -78t-42.5 -114l-12 -61q-18 -93 -19 -101q-2 -19 -17 -25.5t-62 -7.5q-11 0 -16 6.5t-2 15.5q24 97 79 357q2 14 2 19q0 22 -20 27l-23 4q-15 2 -21 4t-6 8
q0 11 8 16t24 9q96 18 120 18q23 0 23 -16q0 -3 -2 -11l-17 -81q-4 -18 2 -18q3 0 8 8q77 123 186 123q46 0 74 -28.5t28 -81.5q0 -27 -7 -55l-46 -199q-3 -12 -3 -23q0 -18 7.5 -27.5t22.5 -9.5q19 0 32.5 17.5t27.5 53.5q6 9 14 9q6 0 11 -5t5 -14q0 -6 -3 -14
q-18 -52 -51.5 -84.5t-79.5 -32.5q-40 0 -59.5 21.5zM407.5 567q-15.5 7 -35.5 20q-22 13 -36 19.5t-32 6.5q-33 0 -50 -36q-14 -19 -27 -19q-8 0 -13 5t-4 15q4 36 33 59.5t64 23.5q23 0 40 -7.5t42 -22.5q17 -12 30.5 -18t27.5 -6q31 0 50 36q13 19 27 19q8 0 13 -5.5
t5 -14.5q-5 -36 -34.5 -59t-65.5 -23q-19 0 -34.5 7z" />
    <glyph glyph-name="ograve" unicode="&#xf2;" horiz-adv-x="505" 
d="M74.5 40.5q-48.5 50.5 -48.5 139.5q0 53 27 124.5t88 125t157 53.5q86 0 134 -50.5t48 -139.5q0 -54 -26.5 -125t-87 -124.5t-155.5 -53.5q-88 0 -136.5 50.5zM311.5 81.5q37.5 47.5 57 112.5t19.5 113q0 61 -25.5 96.5t-77.5 35.5q-53 0 -91 -47.5t-57 -112t-19 -111.5
q0 -63 25.5 -98.5t77.5 -35.5q53 0 90.5 47.5zM319.5 562q-36.5 31 -68.5 66.5t-32 48.5q0 10 8.5 14t28.5 4t31 -3.5t14 -15.5q-2 3 28 -44q53 -80 52 -90q-1 -11 -14 -11q-11 0 -47.5 31z" />
    <glyph glyph-name="oacute" unicode="&#xf3;" horiz-adv-x="505" 
d="M74.5 40.5q-48.5 50.5 -48.5 139.5q0 53 27 124.5t88 125t157 53.5q86 0 134 -50.5t48 -139.5q0 -54 -26.5 -125t-87 -124.5t-155.5 -53.5q-88 0 -136.5 50.5zM311.5 81.5q37.5 47.5 57 112.5t19.5 113q0 61 -25.5 96.5t-77.5 35.5q-53 0 -91 -47.5t-57 -112t-19 -111.5
q0 -63 25.5 -98.5t77.5 -35.5q53 0 90.5 47.5zM279 540q1 12 93 95q41 39 43 41q8 12 19 15.5t31 3.5t27 -4t5 -13q-1 -12 -46.5 -47.5t-96.5 -67.5t-63 -32q-13 0 -12 9z" />
    <glyph glyph-name="ocircumflex" unicode="&#xf4;" horiz-adv-x="505" 
d="M74.5 40.5q-48.5 50.5 -48.5 139.5q0 53 27 124.5t88 125t157 53.5q86 0 134 -50.5t48 -139.5q0 -54 -26.5 -125t-87 -124.5t-155.5 -53.5q-88 0 -136.5 50.5zM311.5 81.5q37.5 47.5 57 112.5t19.5 113q0 61 -25.5 96.5t-77.5 35.5q-53 0 -91 -47.5t-57 -112t-19 -111.5
q0 -63 25.5 -98.5t77.5 -35.5q53 0 90.5 47.5zM179 534.5q-3 3.5 -3 6.5q0 15 60.5 67.5t97.5 73.5q15 8 27 8q10 0 23 -8q24 -19 62 -71t38 -68q0 -4 -4.5 -8t-10.5 -4q-5 0 -18.5 11.5t-25.5 24.5q-68 68 -76 68q-3 0 -35 -20.5t-69 -47.5q-20 -15 -37.5 -25.5
t-20.5 -10.5q-5 0 -8 3.5z" />
    <glyph glyph-name="otilde" unicode="&#xf5;" horiz-adv-x="505" 
d="M74.5 40.5q-48.5 50.5 -48.5 139.5q0 53 27 124.5t88 125t157 53.5q86 0 134 -50.5t48 -139.5q0 -54 -26.5 -125t-87 -124.5t-155.5 -53.5q-88 0 -136.5 50.5zM311.5 81.5q37.5 47.5 57 112.5t19.5 113q0 61 -25.5 96.5t-77.5 35.5q-53 0 -91 -47.5t-57 -112t-19 -111.5
q0 -63 25.5 -98.5t77.5 -35.5q53 0 90.5 47.5zM365.5 567q-15.5 7 -35.5 20q-22 13 -36 19.5t-32 6.5q-33 0 -50 -36q-14 -19 -27 -19q-8 0 -13 5t-4 15q4 36 33 59.5t64 23.5q23 0 40 -7.5t42 -22.5q17 -12 30.5 -18t27.5 -6q31 0 50 36q13 19 27 19q8 0 13 -5.5t5 -14.5
q-5 -36 -34.5 -59t-65.5 -23q-19 0 -34.5 7z" />
    <glyph glyph-name="odieresis" unicode="&#xf6;" horiz-adv-x="505" 
d="M74.5 40.5q-48.5 50.5 -48.5 139.5q0 53 27 124.5t88 125t157 53.5q86 0 134 -50.5t48 -139.5q0 -54 -26.5 -125t-87 -124.5t-155.5 -53.5q-88 0 -136.5 50.5zM311.5 81.5q37.5 47.5 57 112.5t19.5 113q0 61 -25.5 96.5t-77.5 35.5q-53 0 -91 -47.5t-57 -112t-19 -111.5
q0 -63 25.5 -98.5t77.5 -35.5q53 0 90.5 47.5zM194 584.5q-10 7.5 -10 20.5q0 26 28 41.5t55 15.5q16 0 25.5 -7t9.5 -19q0 -27 -28 -43t-55 -16q-15 0 -25 7.5zM401 584.5q-10 7.5 -10 20.5q0 26 28 41.5t55 15.5q16 0 25.5 -7t9.5 -19q0 -27 -28 -43t-55 -16
q-15 0 -25 7.5z" />
    <glyph glyph-name="divide" unicode="&#xf7;" horiz-adv-x="444" 
d="M232.5 358.5q-12.5 11.5 -12.5 29.5q0 9 3 18q8 27 30 44t49 17q22 0 34.5 -11.5t12.5 -31.5q0 -32 -25.5 -54.5t-57.5 -22.5q-21 0 -33.5 11.5zM67 222q-19 0 -28 4t-6 14q3 16 18 27t38 11h296q36 0 33 -19q-3 -16 -18 -26.5t-37 -10.5h-296zM168.5 59.5
q-12.5 11.5 -12.5 29.5q0 8 3 17q8 27 30.5 44.5t48.5 17.5q22 0 34.5 -12t12.5 -32q0 -31 -25.5 -53.5t-57.5 -22.5q-21 0 -33.5 11.5z" />
    <glyph glyph-name="oslash" unicode="&#xf8;" horiz-adv-x="505" 
d="M493 474q7 5 12 5q8 0 14.5 -7t6.5 -15t-7 -14l-58 -54q19 -39 19 -96q0 -54 -26.5 -125t-87 -124.5t-155.5 -53.5q-81 0 -130 44l-39 -37q-5 -5 -12 -5q-8 0 -14.5 7t-6.5 15q0 9 6 14l40 37q-29 47 -29 115q0 53 27 124.5t88 125t157 53.5q93 0 141 -59zM121 127
l259 241q-23 71 -95 71q-53 0 -91 -47.5t-57 -112t-19 -111.5q0 -21 3 -41zM388 320l-253 -236q25 -50 86 -50q53 0 90.5 47.5t57 112.5t19.5 113v13z" />
    <glyph glyph-name="ugrave" unicode="&#xf9;" horiz-adv-x="596" 
d="M93 19.5q-27 30.5 -27 83.5q0 29 7 58l44 212q2 14 2 19q0 22 -20 27l-23 4q-15 2 -21 4t-6 8q0 11 8 16t24 9q96 18 120 18q22 0 22 -17q0 -6 -1 -10l-58 -275q-5 -25 -5 -43q0 -33 14.5 -51.5t43.5 -18.5q37 0 74 29t66 79t41 109l19 93q2 14 2 19q0 22 -20 27
q-4 1 -22 4q-16 2 -22.5 4t-6.5 9q1 10 9 15t23 9q98 18 120 18q23 0 23 -17q0 -6 -1 -10l-71 -336q-2 -7 -2 -20q0 -17 8 -26.5t22 -9.5q35 0 63 72q5 7 13 7q6 0 10 -4.5t4 -11.5q0 -8 -4 -16q-17 -52 -50 -84.5t-77 -32.5q-33 0 -52.5 21.5t-19.5 60.5q0 17 5 42
q0 9 -6 9q-3 0 -6 -5q-34 -54 -81.5 -91t-108.5 -37q-49 0 -76 30.5zM322.5 562q-36.5 31 -68.5 66.5t-32 48.5q0 10 8.5 14t28.5 4t31 -3.5t14 -15.5q-2 3 28 -44q53 -80 52 -90q-1 -11 -14 -11q-11 0 -47.5 31z" />
    <glyph glyph-name="uacute" unicode="&#xfa;" horiz-adv-x="596" 
d="M93 19.5q-27 30.5 -27 83.5q0 29 7 58l44 212q2 14 2 19q0 22 -20 27l-23 4q-15 2 -21 4t-6 8q0 11 8 16t24 9q96 18 120 18q22 0 22 -17q0 -6 -1 -10l-58 -275q-5 -25 -5 -43q0 -33 14.5 -51.5t43.5 -18.5q37 0 74 29t66 79t41 109l19 93q2 14 2 19q0 22 -20 27
q-4 1 -22 4q-16 2 -22.5 4t-6.5 9q1 10 9 15t23 9q98 18 120 18q23 0 23 -17q0 -6 -1 -10l-71 -336q-2 -7 -2 -20q0 -17 8 -26.5t22 -9.5q35 0 63 72q5 7 13 7q6 0 10 -4.5t4 -11.5q0 -8 -4 -16q-17 -52 -50 -84.5t-77 -32.5q-33 0 -52.5 21.5t-19.5 60.5q0 17 5 42
q0 9 -6 9q-3 0 -6 -5q-34 -54 -81.5 -91t-108.5 -37q-49 0 -76 30.5zM283 540q1 12 93 95q41 39 43 41q8 12 19 15.5t31 3.5t27 -4t5 -13q-1 -12 -46.5 -47.5t-96.5 -67.5t-63 -32q-13 0 -12 9z" />
    <glyph glyph-name="ucircumflex" unicode="&#xfb;" horiz-adv-x="596" 
d="M93 19.5q-27 30.5 -27 83.5q0 29 7 58l44 212q2 14 2 19q0 22 -20 27l-23 4q-15 2 -21 4t-6 8q0 11 8 16t24 9q96 18 120 18q22 0 22 -17q0 -6 -1 -10l-58 -275q-5 -25 -5 -43q0 -33 14.5 -51.5t43.5 -18.5q37 0 74 29t66 79t41 109l19 93q2 14 2 19q0 22 -20 27
q-4 1 -22 4q-16 2 -22.5 4t-6.5 9q1 10 9 15t23 9q98 18 120 18q23 0 23 -17q0 -6 -1 -10l-71 -336q-2 -7 -2 -20q0 -17 8 -26.5t22 -9.5q35 0 63 72q5 7 13 7q6 0 10 -4.5t4 -11.5q0 -8 -4 -16q-17 -52 -50 -84.5t-77 -32.5q-33 0 -52.5 21.5t-19.5 60.5q0 17 5 42
q0 9 -6 9q-3 0 -6 -5q-34 -54 -81.5 -91t-108.5 -37q-49 0 -76 30.5zM183 534.5q-3 3.5 -3 6.5q0 15 60.5 67.5t97.5 73.5q15 8 27 8q10 0 23 -8q24 -19 62 -71t38 -68q0 -4 -4.5 -8t-10.5 -4q-5 0 -18.5 11.5t-25.5 24.5q-68 68 -76 68q-3 0 -35 -20.5t-69 -47.5
q-20 -15 -37.5 -25.5t-20.5 -10.5q-5 0 -8 3.5z" />
    <glyph glyph-name="udieresis" unicode="&#xfc;" horiz-adv-x="596" 
d="M93 19.5q-27 30.5 -27 83.5q0 29 7 58l44 212q2 14 2 19q0 22 -20 27l-23 4q-15 2 -21 4t-6 8q0 11 8 16t24 9q96 18 120 18q22 0 22 -17q0 -6 -1 -10l-58 -275q-5 -25 -5 -43q0 -33 14.5 -51.5t43.5 -18.5q37 0 74 29t66 79t41 109l19 93q2 14 2 19q0 22 -20 27
q-4 1 -22 4q-16 2 -22.5 4t-6.5 9q1 10 9 15t23 9q98 18 120 18q23 0 23 -17q0 -6 -1 -10l-71 -336q-2 -7 -2 -20q0 -17 8 -26.5t22 -9.5q35 0 63 72q5 7 13 7q6 0 10 -4.5t4 -11.5q0 -8 -4 -16q-17 -52 -50 -84.5t-77 -32.5q-33 0 -52.5 21.5t-19.5 60.5q0 17 5 42
q0 9 -6 9q-3 0 -6 -5q-34 -54 -81.5 -91t-108.5 -37q-49 0 -76 30.5zM197 584.5q-10 7.5 -10 20.5q0 26 28 41.5t55 15.5q16 0 25.5 -7t9.5 -19q0 -27 -28 -43t-55 -16q-15 0 -25 7.5zM404 584.5q-10 7.5 -10 20.5q0 26 28 41.5t55 15.5q16 0 25.5 -7t9.5 -19q0 -27 -28 -43
t-55 -16q-15 0 -25 7.5z" />
    <glyph glyph-name="yacute" unicode="&#xfd;" horiz-adv-x="527" 
d="M16 -168.5q-34 18.5 -52 48.5q-11 12 -11 29q0 16 10.5 27.5t24.5 11.5q15 0 21.5 -7t15.5 -25q14 -31 36 -46t60 -15q63 0 121 65t104 163q-40 -45 -77.5 -63t-80.5 -18q-59 0 -87 31.5t-28 83.5q0 23 7 56l47 200q2 14 2 19q0 22 -20 27l-23 4q-15 2 -21 4t-6 8
q0 11 8 16t24 9q96 18 120 18q23 0 23 -16q0 -3 -2 -11l-65 -288q-7 -33 -7 -52q0 -61 53 -61q69 0 113.5 50.5t66 112t27.5 107.5l1 15q0 55 -45 80q-8 4 -13.5 12t-5.5 17q0 19 12 29.5t30 10.5q28 0 51 -20q27 -19 42 -51t15 -71q0 -72 -37.5 -178.5t-102.5 -196.5
q-51 -71 -115 -112.5t-140 -41.5q-62 0 -96 18.5zM292 540q1 12 93 95q41 39 43 41q8 12 19 15.5t31 3.5t27 -4t5 -13q-1 -12 -46.5 -47.5t-96.5 -67.5t-63 -32q-13 0 -12 9z" />
    <glyph glyph-name="thorn" unicode="&#xfe;" horiz-adv-x="538" 
d="M1 -176.5q-5 6.5 -2 15.5l11 45q16 67 19 82l135 636q2 14 2 18q0 22 -20 27q-4 1 -22 4q-16 2 -22.5 4t-6.5 9q1 10 9 15t23 9q96 18 120 18q12 0 17.5 -4t5.5 -14q0 -6 -1 -10l-66 -310q-3 -17 1 -17q1 0 26.5 35t70 66t95.5 31q58 0 89.5 -41.5t31.5 -115.5
q0 -73 -31.5 -152t-90 -132t-137.5 -53q-37 0 -60.5 12.5t-41.5 36.5q-7 15 -12 15q-7 0 -12 -22l-17 -78l-12 -62q-5 -30 -7 -41q-2 -19 -17 -25.5t-62 -7.5q-11 0 -16 6.5zM342 78q39 45 60 108t21 112q0 52 -20 81.5t-61 29.5q-38 0 -73.5 -29t-61.5 -74t-36 -91
q-13 -61 -13 -83q0 -44 25.5 -71.5t68.5 -27.5q51 0 90 45z" />
    <glyph glyph-name="ydieresis" unicode="&#xff;" horiz-adv-x="527" 
d="M16 -168.5q-34 18.5 -52 48.5q-11 12 -11 29q0 16 10.5 27.5t24.5 11.5q15 0 21.5 -7t15.5 -25q14 -31 36 -46t60 -15q63 0 121 65t104 163q-40 -45 -77.5 -63t-80.5 -18q-59 0 -87 31.5t-28 83.5q0 23 7 56l47 200q2 14 2 19q0 22 -20 27l-23 4q-15 2 -21 4t-6 8
q0 11 8 16t24 9q96 18 120 18q23 0 23 -16q0 -3 -2 -11l-65 -288q-7 -33 -7 -52q0 -61 53 -61q69 0 113.5 50.5t66 112t27.5 107.5l1 15q0 55 -45 80q-8 4 -13.5 12t-5.5 17q0 19 12 29.5t30 10.5q28 0 51 -20q27 -19 42 -51t15 -71q0 -72 -37.5 -178.5t-102.5 -196.5
q-51 -71 -115 -112.5t-140 -41.5q-62 0 -96 18.5zM206 584.5q-10 7.5 -10 20.5q0 26 28 41.5t55 15.5q16 0 25.5 -7t9.5 -19q0 -27 -28 -43t-55 -16q-15 0 -25 7.5zM413 584.5q-10 7.5 -10 20.5q0 26 28 41.5t55 15.5q16 0 25.5 -7t9.5 -19q0 -27 -28 -43t-55 -16
q-15 0 -25 7.5z" />
    <glyph glyph-name="Amacron" unicode="&#x100;" horiz-adv-x="735" 
d="M-41 19q1 9 10.5 15.5t20.5 8.5q28 3 41.5 8t24.5 17.5t28 41.5l306 512q7 12 7 21q0 15 -18 18q-15 5 -15 17q0 7 8 15.5t26 8.5h53q35 0 47 -13.5t16 -37.5l95 -547q5 -26 10 -36t14.5 -14t35.5 -7q20 -5 16 -25q-6 -23 -36 -23h-121h-61q-25 0 -37 3t-12 13
q0 18 22 23q39 5 53 12.5t14 29.5q0 5 -2 21l-15 87q-2 15 -10 22.5t-24 7.5h-219q-22 0 -31 -4.5t-20 -22.5l-50 -85q-19 -33 -19 -44t11.5 -15t40.5 -7q21 -5 21 -17q0 -14 -11.5 -19.5t-27.5 -5.5q-22 1 -84 1t-84 -1q-30 0 -24 21zM451 265q29 0 25 24l-45 290q0 5 -2 8
t-4 3q-5 0 -11 -11l-126 -213q-14 -25 -25.5 -44.5t-20.5 -34.5q-4 -7 -4 -11q0 -11 23 -11h190zM315.5 754q-3.5 2 -3.5 6t5 16q1 2 6 9.5t9.5 10.5t11.5 3l118 -1l111 1q10 0 10 -7q0 -6 -6 -16q-6 -14 -11.5 -19.5t-16.5 -5.5q-69 1 -222 1q-8 0 -11.5 2z" />
    <glyph glyph-name="amacron" unicode="&#x101;" horiz-adv-x="573" 
d="M56.5 29.5q-35.5 40.5 -35.5 115.5q0 77 30.5 155.5t89 130t135.5 51.5q40 0 66 -17t47 -41q18 -17 32 -17q7 0 12 5.5t15 25.5q13 27 20 35.5t16 8.5t13 -5.5t2 -13.5l-74 -344q-3 -12 -3 -23q0 -17 7.5 -27t23.5 -10q36 0 62 71q6 8 15 8q6 0 9.5 -4t3.5 -12t-4 -16
q-19 -53 -51.5 -85t-75.5 -32q-37 0 -56 22.5t-19 59.5q0 19 4 35v4q0 4 -1 6.5t-3 2.5q-4 0 -7 -6q-38 -55 -79.5 -89.5t-96.5 -34.5q-62 0 -97.5 40.5zM268.5 90.5q35.5 31.5 61 77t35.5 86.5q8 29 10.5 46t2.5 38q0 45 -25 72.5t-65 27.5q-51 0 -90.5 -43t-61 -106
t-21.5 -117q0 -55 21.5 -84t57.5 -29q39 0 74.5 31.5zM226.5 585q-3.5 2 -3.5 6t5 16q1 2 6 9.5t9.5 10.5t11.5 3l118 -1l111 1q10 0 10 -7q0 -6 -6 -16q-6 -14 -11.5 -19.5t-16.5 -5.5q-69 1 -222 1q-8 0 -11.5 2z" />
    <glyph glyph-name="Abreve" unicode="&#x102;" horiz-adv-x="735" 
d="M-41 19q1 9 10.5 15.5t20.5 8.5q28 3 41.5 8t24.5 17.5t28 41.5l306 512q7 12 7 21q0 15 -18 18q-15 5 -15 17q0 7 8 15.5t26 8.5h53q35 0 47 -13.5t16 -37.5l95 -547q5 -26 10 -36t14.5 -14t35.5 -7q20 -5 16 -25q-6 -23 -36 -23h-121h-61q-25 0 -37 3t-12 13
q0 18 22 23q39 5 53 12.5t14 29.5q0 5 -2 21l-15 87q-2 15 -10 22.5t-24 7.5h-219q-22 0 -31 -4.5t-20 -22.5l-50 -85q-19 -33 -19 -44t11.5 -15t40.5 -7q21 -5 21 -17q0 -14 -11.5 -19.5t-27.5 -5.5q-22 1 -84 1t-84 -1q-30 0 -24 21zM451 265q29 0 25 24l-45 290q0 5 -2 8
t-4 3q-5 0 -11 -11l-126 -213q-14 -25 -25.5 -44.5t-20.5 -34.5q-4 -7 -4 -11q0 -11 23 -11h190zM348 760.5q-33 30.5 -33 82.5q0 13 1 20q3 16 14 16q7 0 10 -11q5 -40 32.5 -64.5t74.5 -24.5q45 0 82 22t59 64q10 14 20 14q14 0 9 -16q-17 -58 -66 -95.5t-113 -37.5
q-57 0 -90 30.5z" />
    <glyph glyph-name="abreve" unicode="&#x103;" horiz-adv-x="573" 
d="M56.5 29.5q-35.5 40.5 -35.5 115.5q0 77 30.5 155.5t89 130t135.5 51.5q40 0 66 -17t47 -41q18 -17 32 -17q7 0 12 5.5t15 25.5q13 27 20 35.5t16 8.5t13 -5.5t2 -13.5l-74 -344q-3 -12 -3 -23q0 -17 7.5 -27t23.5 -10q36 0 62 71q6 8 15 8q6 0 9.5 -4t3.5 -12t-4 -16
q-19 -53 -51.5 -85t-75.5 -32q-37 0 -56 22.5t-19 59.5q0 19 4 35v4q0 4 -1 6.5t-3 2.5q-4 0 -7 -6q-38 -55 -79.5 -89.5t-96.5 -34.5q-62 0 -97.5 40.5zM268.5 90.5q35.5 31.5 61 77t35.5 86.5q8 29 10.5 46t2.5 38q0 45 -25 72.5t-65 27.5q-51 0 -90.5 -43t-61 -106
t-21.5 -117q0 -55 21.5 -84t57.5 -29q39 0 74.5 31.5zM252 563.5q-33 30.5 -33 82.5q0 13 1 20q3 16 14 16q7 0 10 -11q5 -40 32.5 -64.5t74.5 -24.5q45 0 82 22t59 64q10 14 20 14q14 0 9 -16q-17 -58 -66 -95.5t-113 -37.5q-57 0 -90 30.5z" />
    <glyph glyph-name="Aogonek" unicode="&#x104;" horiz-adv-x="735" 
d="M685 22q-6 -23 -36 -23q-28 0 -45 1q-84 -43 -96 -95q-2 -9 -1 -13q0 -17 9.5 -27t27.5 -10q19 0 39 7.5t34 20.5q7 5 11 5q8 0 8 -8q0 -4 -3 -10q-15 -23 -44 -39t-66 -16q-33 0 -51.5 17t-18.5 45q0 33 24 65.5t70 57.5l-80 -1q-25 0 -37 3t-12 13q0 18 22 23
q39 5 53 12.5t14 29.5q0 5 -2 21l-15 87q-2 15 -10 22.5t-24 7.5h-219q-22 0 -31 -4.5t-20 -22.5l-50 -85q-19 -33 -19 -44t11.5 -15t40.5 -7q21 -5 21 -17q0 -14 -11.5 -19.5t-27.5 -5.5q-22 1 -84 1t-84 -1q-30 0 -24 21q1 9 10.5 15.5t20.5 8.5q28 3 41.5 8t24.5 17.5
t28 41.5l306 512q7 12 7 21q0 15 -18 18q-15 5 -15 17q0 7 8 15.5t26 8.5h53q35 0 47 -13.5t16 -37.5l95 -547q5 -26 10 -36t14.5 -14t35.5 -7q20 -5 16 -25zM451 265q29 0 25 24l-45 290q0 5 -2 8t-4 3q-5 0 -11 -11l-126 -213q-14 -25 -25.5 -44.5t-20.5 -34.5
q-4 -7 -4 -11q0 -11 23 -11h190z" />
    <glyph glyph-name="aogonek" unicode="&#x105;" horiz-adv-x="573" 
d="M464 3h1q-87 -43 -99 -96q-2 -9 -1 -13q0 -17 9.5 -27t27.5 -10q19 0 39 7.5t34 20.5q7 5 11 5q8 0 8 -8q0 -4 -3 -10q-15 -23 -44 -39t-66 -16q-33 0 -51.5 17t-18.5 45q0 30 19.5 59.5t57.5 53.5q-26 6 -38.5 27t-12.5 52q0 11 4 35v4q0 4 -1 6.5t-3 2.5q-4 0 -7 -6
q-38 -55 -79.5 -89.5t-96.5 -34.5q-62 0 -97.5 40.5t-35.5 115.5q0 77 30.5 155.5t89 130t135.5 51.5q40 0 66 -17t47 -41q18 -17 32 -17q7 0 12 5.5t15 25.5q13 27 20 35.5t16 8.5t13 -5.5t2 -13.5l-74 -344q-3 -12 -3 -23q0 -17 7.5 -27t23.5 -10q36 0 62 71q6 8 15 8
q6 0 9.5 -4t3.5 -12t-4 -16q-26 -74 -75 -103zM375.5 300q2.5 17 2.5 38q0 45 -25 72.5t-65 27.5q-51 0 -90.5 -43t-61 -106t-21.5 -117q0 -55 21.5 -84t57.5 -29q39 0 74.5 31.5t61 77t35.5 86.5q8 29 10.5 46z" />
    <glyph glyph-name="Cacute" unicode="&#x106;" horiz-adv-x="639" 
d="M168 22.5q-58 33.5 -90 94.5t-32 142q0 104 51 209.5t142 174t206 68.5q62 0 112 -22t79 -61t29 -88q0 -30 -16.5 -54.5t-46.5 -24.5q-19 0 -25.5 14t-15.5 61q-3 55 -38 89.5t-92 34.5q-82 0 -145 -58.5t-97 -145t-34 -166.5q0 -100 49 -159.5t146 -59.5
q75 0 136.5 40.5t87.5 103.5q7 13 20 13q9 0 14 -6.5t2 -17.5q-16 -54 -58 -103t-106 -80.5t-143 -31.5q-77 0 -135 33.5zM341 743q1 6 27.5 27.5t45 35t25.5 18.5q34 23 48 35q14 18 47 18q25 0 32.5 -4t5.5 -14q-2 -12 -50.5 -42.5t-103 -57t-66.5 -26.5q-14 0 -11 10z
" />
    <glyph glyph-name="cacute" unicode="&#x107;" horiz-adv-x="455" 
d="M72 39.5q-46 50.5 -46 133.5q0 75 34.5 147t97 117.5t141.5 45.5q35 0 68 -15.5t53 -43.5t20 -63q0 -26 -10 -43.5t-30 -17.5q-18 0 -23.5 10.5t-7 26t-2.5 22.5q-7 79 -74 79q-50 0 -89.5 -36.5t-61 -93.5t-21.5 -115q0 -64 28.5 -102.5t85.5 -38.5q71 0 137 70
q10 10 18 10q6 0 9 -4.5t3 -10.5t-3 -12q-33 -50 -84 -83t-115 -33q-82 0 -128 50.5zM247 540q1 12 93 95q41 39 43 41q8 12 19 15.5t31 3.5t27 -4t5 -13q-1 -12 -46.5 -47.5t-96.5 -67.5t-63 -32q-13 0 -12 9z" />
    <glyph glyph-name="Ccircumflex" unicode="&#x108;" horiz-adv-x="639" 
d="M168 22.5q-58 33.5 -90 94.5t-32 142q0 104 51 209.5t142 174t206 68.5q62 0 112 -22t79 -61t29 -88q0 -30 -16.5 -54.5t-46.5 -24.5q-19 0 -25.5 14t-15.5 61q-3 55 -38 89.5t-92 34.5q-82 0 -145 -58.5t-97 -145t-34 -166.5q0 -100 49 -159.5t146 -59.5
q75 0 136.5 40.5t87.5 103.5q7 13 20 13q9 0 14 -6.5t2 -17.5q-16 -54 -58 -103t-106 -80.5t-143 -31.5q-77 0 -135 33.5zM297.5 737q-3.5 4 -2.5 8q1 13 62 64.5t96 71.5q18 9 27 9t22 -9q25 -19 62.5 -68.5t37.5 -66.5q0 -4 -5 -8.5t-10 -4.5q-7 0 -43 36q-69 64 -76 64
q-6 0 -104 -64q-21 -15 -38 -25.5t-21 -10.5t-7.5 4z" />
    <glyph glyph-name="ccircumflex" unicode="&#x109;" horiz-adv-x="455" 
d="M72 39.5q-46 50.5 -46 133.5q0 75 34.5 147t97 117.5t141.5 45.5q35 0 68 -15.5t53 -43.5t20 -63q0 -26 -10 -43.5t-30 -17.5q-18 0 -23.5 10.5t-7 26t-2.5 22.5q-7 79 -74 79q-50 0 -89.5 -36.5t-61 -93.5t-21.5 -115q0 -64 28.5 -102.5t85.5 -38.5q71 0 137 70
q10 10 18 10q6 0 9 -4.5t3 -10.5t-3 -12q-33 -50 -84 -83t-115 -33q-82 0 -128 50.5zM147 534.5q-3 3.5 -3 6.5q0 15 60.5 67.5t97.5 73.5q15 8 27 8q10 0 23 -8q24 -19 62 -71t38 -68q0 -4 -4.5 -8t-10.5 -4q-5 0 -18.5 11.5t-25.5 24.5q-68 68 -76 68q-3 0 -35 -20.5
t-69 -47.5q-20 -15 -37.5 -25.5t-20.5 -10.5q-5 0 -8 3.5z" />
    <glyph glyph-name="Cdotaccent" unicode="&#x10a;" horiz-adv-x="639" 
d="M168 22.5q-58 33.5 -90 94.5t-32 142q0 104 51 209.5t142 174t206 68.5q62 0 112 -22t79 -61t29 -88q0 -30 -16.5 -54.5t-46.5 -24.5q-19 0 -25.5 14t-15.5 61q-3 55 -38 89.5t-92 34.5q-82 0 -145 -58.5t-97 -145t-34 -166.5q0 -100 49 -159.5t146 -59.5
q75 0 136.5 40.5t87.5 103.5q7 13 20 13q9 0 14 -6.5t2 -17.5q-16 -54 -58 -103t-106 -80.5t-143 -31.5q-77 0 -135 33.5zM398.5 738.5q-9.5 7.5 -9.5 19.5q0 26 28 44.5t66 18.5q17 0 26 -7t9 -20q0 -26 -28 -44.5t-65 -18.5q-17 0 -26.5 7.5z" />
    <glyph glyph-name="cdotaccent" unicode="&#x10b;" horiz-adv-x="455" 
d="M72 39.5q-46 50.5 -46 133.5q0 75 34.5 147t97 117.5t141.5 45.5q35 0 68 -15.5t53 -43.5t20 -63q0 -26 -10 -43.5t-30 -17.5q-18 0 -23.5 10.5t-7 26t-2.5 22.5q-7 79 -74 79q-50 0 -89.5 -36.5t-61 -93.5t-21.5 -115q0 -64 28.5 -102.5t85.5 -38.5q71 0 137 70
q10 10 18 10q6 0 9 -4.5t3 -10.5t-3 -12q-33 -50 -84 -83t-115 -33q-82 0 -128 50.5zM254.5 576q-10.5 8 -10.5 22q0 27 30.5 47t69.5 20t39 -30q0 -27 -30 -47t-70 -20q-18 0 -28.5 8z" />
    <glyph glyph-name="Ccaron" unicode="&#x10c;" horiz-adv-x="639" 
d="M168 22.5q-58 33.5 -90 94.5t-32 142q0 104 51 209.5t142 174t206 68.5q62 0 112 -22t79 -61t29 -88q0 -30 -16.5 -54.5t-46.5 -24.5q-19 0 -25.5 14t-15.5 61q-3 55 -38 89.5t-92 34.5q-82 0 -145 -58.5t-97 -145t-34 -166.5q0 -100 49 -159.5t146 -59.5
q75 0 136.5 40.5t87.5 103.5q7 13 20 13q9 0 14 -6.5t2 -17.5q-16 -54 -58 -103t-106 -80.5t-143 -31.5q-77 0 -135 33.5zM356.5 869.5q17.5 -16.5 20.5 -19.5q67 -65 74 -65t105 65q13 8 22 15q8 5 21 13t16 8q4 0 7 -3.5t3 -7.5q0 -13 -60.5 -64t-96.5 -73q-17 -9 -28 -9
t-22 9q-25 20 -62.5 69.5t-37.5 64.5q0 5 5 9.5t10 4.5q6 0 23.5 -16.5z" />
    <glyph glyph-name="ccaron" unicode="&#x10d;" horiz-adv-x="455" 
d="M72 39.5q-46 50.5 -46 133.5q0 75 34.5 147t97 117.5t141.5 45.5q35 0 68 -15.5t53 -43.5t20 -63q0 -26 -10 -43.5t-30 -17.5q-18 0 -23.5 10.5t-7 26t-2.5 22.5q-7 79 -74 79q-50 0 -89.5 -36.5t-61 -93.5t-21.5 -115q0 -64 28.5 -102.5t85.5 -38.5q71 0 137 70
q10 10 18 10q6 0 9 -4.5t3 -10.5t-3 -12q-33 -50 -84 -83t-115 -33q-82 0 -128 50.5zM230 650q27 -28 48.5 -48t24.5 -20q4 0 35 19.5t72 48.5q51 36 58 36q5 0 8 -3t3 -8q-2 -16 -62.5 -67.5t-96.5 -72.5q-13 -8 -26 -8q-15 0 -23 8q-25 19 -62.5 71.5t-37.5 66.5q0 5 4 9
t9 4q12 0 46 -36z" />
    <glyph glyph-name="Dcaron" unicode="&#x10e;" horiz-adv-x="708" 
d="M174.5 -3.5q-23.5 0.5 -39.5 0.5q-52 2 -117 2q-32 0 -32 15q0 22 28 32q32 6 47 13t21.5 19.5t11.5 37.5l99 467q5 22 5 31q0 15 -11.5 24t-41.5 17q-23 8 -19 25q3 13 11.5 17t29.5 4h37q31 0 79 2l67 1q169 0 263 -71t94 -202q0 -117 -53.5 -216t-159 -159t-254.5 -60
q-42 0 -65.5 0.5zM449.5 103.5q79.5 58.5 118.5 147t39 178.5q0 109 -69 168.5t-189 59.5q-28 0 -39 -7.5t-17 -31.5l-113 -530q-2 -10 -2 -14q0 -18 16 -23.5t62 -5.5q114 0 193.5 58.5zM308.5 869.5q17.5 -16.5 20.5 -19.5q67 -65 74 -65t105 65q13 8 22 15q8 5 21 13
t16 8q4 0 7 -3.5t3 -7.5q0 -13 -60.5 -64t-96.5 -73q-17 -9 -28 -9t-22 9q-25 20 -62.5 69.5t-37.5 64.5q0 5 5 9.5t10 4.5q6 0 23.5 -16.5z" />
    <glyph glyph-name="dcaron" unicode="&#x10f;" horiz-adv-x="594" 
d="M57 29.5q-36 40.5 -36 115.5q0 77 31 155.5t88.5 130t134.5 51.5q43 0 68.5 -18t39 -35.5t15.5 -17.5q3 0 6 17l35 174q2 14 2 19q0 21 -20 26l-23 4q-15 2 -21 4t-6 8q0 11 8 16t24 9q96 18 120 18q23 0 23 -16q0 -3 -2 -11l-119 -565q-2 -14 -2 -20q0 -35 29 -35
q20 0 35 18t29 53q6 7 15 7q12 0 12 -14q0 -8 -4 -17q-19 -53 -51 -85t-75 -32q-37 0 -56 22t-19 59q0 20 4 37v4q0 7 -4 7q-3 0 -9 -6q-35 -53 -77.5 -88t-97.5 -35q-61 0 -97 40.5zM269 91q36 32 61.5 77.5t35.5 84.5q13 46 13 85q0 45 -24.5 72.5t-64.5 27.5
q-51 0 -91 -43t-62 -105.5t-22 -116.5q0 -56 21.5 -85t57.5 -29q39 0 75 32zM587 555q12 94 18 119q4 17 12.5 24.5t25.5 7.5q26 0 26 -20q0 -7 -1 -11q-6 -28 -30 -109q-24 -86 -26 -93q-2 -6 -8 -9t-13 -3q-6 0 -11 3t-5 9z" />
    <glyph glyph-name="Dcroat" unicode="&#x110;" horiz-adv-x="708" 
d="M613 633q94 -71 94 -202q0 -117 -53.5 -216t-159 -159t-254.5 -60q-42 0 -65.5 0.5t-39.5 0.5q-52 2 -117 2q-32 0 -32 15q0 22 28 32q32 6 47 13t21.5 19.5t11.5 37.5l43 201q-2 8 -10 8h-60q-15 0 -15 14t6.5 22t17.5 8h60q10 0 14 10l43 204q5 22 5 31q0 15 -11.5 24
t-41.5 17q-23 8 -19 25q3 13 11.5 17t29.5 4h37q31 0 79 2l67 1q169 0 263 -71zM449.5 103.5q79.5 58.5 118.5 147t39 178.5q0 109 -69 168.5t-189 59.5q-28 0 -39 -7.5t-17 -31.5l-48 -224v-5l-1 -6l-1 -6q0 -9 9 -9h160q20 0 15 -21q-4 -22 -24 -22h-160q-13 0 -14 -11
l-3 -11v-2l-46 -213q-2 -10 -2 -14q0 -18 16 -23.5t62 -5.5q114 0 193.5 58.5z" />
    <glyph glyph-name="dcroat" unicode="&#x111;" horiz-adv-x="570" 
d="M595 567q0 -3 -2 -7l-3 -6q-7 -11 -13 -15.5t-16 -4.5q-31 0 -47 1l-89 -421q-2 -14 -2 -20q0 -35 29 -35q20 0 35 18t29 53q6 7 15 7q12 0 12 -14q0 -8 -4 -17q-19 -53 -51 -85t-75 -32q-37 0 -56 22t-19 59q0 20 4 37v4q0 7 -4 7q-3 0 -9 -6q-35 -53 -77.5 -88
t-97.5 -35q-61 0 -97 40.5t-36 115.5q0 77 31 155.5t88.5 130t134.5 51.5q43 0 68.5 -18t39 -35.5t15.5 -17.5q3 0 6 17l21 107l-102 -1q-16 0 -16 6q0 3 2.5 7.5t3.5 6.5q6 10 11 14.5t15 4.5h94l6 29q2 14 2 19q0 21 -20 26l-23 4q-15 2 -21 4t-6 8q0 11 8 16t24 9
q96 18 120 18q23 0 23 -16q0 -3 -2 -11l-22 -106h62q11 0 11 -6zM379 338q0 45 -24.5 72.5t-64.5 27.5q-51 0 -91 -43t-62 -105.5t-22 -116.5q0 -56 21.5 -85t57.5 -29q39 0 75 32t61.5 77.5t35.5 84.5q13 46 13 85z" />
    <glyph glyph-name="Emacron" unicode="&#x112;" horiz-adv-x="634" 
d="M605 209q0 -12 -11 -39t-36 -77q-26 -53 -38.5 -75t-20.5 -29t-18 -7t-17.5 5.5t-16.5 9t-31 3.5q-211 0 -279.5 -0.5t-87.5 -0.5h-31q-18 0 -25.5 3.5t-7.5 12.5q0 19 29 31q33 6 48 13.5t21.5 21t12.5 42.5l97 454q5 25 5 36q0 18 -11.5 26t-43.5 15q-21 9 -17 25
q3 13 12 17.5t30 4.5h101q55 -1 256 -1q31 0 51 11q12 7 23 7q10 0 14 -7t7 -29t6 -75q4 -43 4 -75q0 -34 -6.5 -45.5t-22.5 -11.5q-20 0 -25 26q-7 75 -12.5 104t-17 38.5t-39.5 9.5h-162q-20 0 -29.5 -3.5t-15 -14.5t-10.5 -35l-38 -176q-2 -12 -2 -15q0 -16 18 -16h97
q17 0 24.5 5t10 18.5t1.5 41.5q2 16 7 23.5t17 7.5t17 -7t7 -28.5t5 -80.5l2 -68q0 -33 -5.5 -44t-20.5 -11q-11 0 -15.5 5.5t-6.5 18.5q-2 34 -4.5 48t-9.5 19t-23 5h-107q-17 0 -24.5 -9t-11.5 -29l-46 -216q-3 -16 -3 -25q0 -12 8 -16t31 -4h205q26 0 43.5 11.5t36 41.5
t50.5 98q7 16 15 21.5t19 5.5q18 0 18 -16zM270.5 754q-3.5 2 -3.5 6t5 16q1 2 6 9.5t9.5 10.5t11.5 3l118 -1l111 1q10 0 10 -7q0 -6 -6 -16q-6 -14 -11.5 -19.5t-16.5 -5.5q-69 1 -222 1q-8 0 -11.5 2z" />
    <glyph glyph-name="emacron" unicode="&#x113;" horiz-adv-x="426" 
d="M70.5 39q-44.5 50 -44.5 131q0 79 34.5 151.5t96.5 117t139 44.5q54 0 86.5 -29t32.5 -74q0 -78 -63 -123t-219 -62q-6 -1 -8.5 -3.5t-2.5 -11.5q0 -58 26.5 -93t83.5 -35q38 0 67.5 18t60.5 52q9 9 18 9q5 0 9 -4t4 -10t-4 -13q-30 -50 -80 -82.5t-113 -32.5
q-79 0 -123.5 50zM286 276.5q61 28.5 63 94.5q0 31 -15.5 49t-49.5 18q-42 0 -77 -30.5t-56.5 -75.5t-26.5 -86v-3q0 -12 14 -9q87 14 148 42.5zM177.5 585q-3.5 2 -3.5 6t5 16q1 2 6 9.5t9.5 10.5t11.5 3l118 -1l111 1q10 0 10 -7q0 -6 -6 -16q-6 -14 -11.5 -19.5
t-16.5 -5.5q-69 1 -222 1q-8 0 -11.5 2z" />
    <glyph glyph-name="Ebreve" unicode="&#x114;" horiz-adv-x="634" 
d="M605 209q0 -12 -11 -39t-36 -77q-26 -53 -38.5 -75t-20.5 -29t-18 -7t-17.5 5.5t-16.5 9t-31 3.5q-211 0 -279.5 -0.5t-87.5 -0.5h-31q-18 0 -25.5 3.5t-7.5 12.5q0 19 29 31q33 6 48 13.5t21.5 21t12.5 42.5l97 454q5 25 5 36q0 18 -11.5 26t-43.5 15q-21 9 -17 25
q3 13 12 17.5t30 4.5h101q55 -1 256 -1q31 0 51 11q12 7 23 7q10 0 14 -7t7 -29t6 -75q4 -43 4 -75q0 -34 -6.5 -45.5t-22.5 -11.5q-20 0 -25 26q-7 75 -12.5 104t-17 38.5t-39.5 9.5h-162q-20 0 -29.5 -3.5t-15 -14.5t-10.5 -35l-38 -176q-2 -12 -2 -15q0 -16 18 -16h97
q17 0 24.5 5t10 18.5t1.5 41.5q2 16 7 23.5t17 7.5t17 -7t7 -28.5t5 -80.5l2 -68q0 -33 -5.5 -44t-20.5 -11q-11 0 -15.5 5.5t-6.5 18.5q-2 34 -4.5 48t-9.5 19t-23 5h-107q-17 0 -24.5 -9t-11.5 -29l-46 -216q-3 -16 -3 -25q0 -12 8 -16t31 -4h205q26 0 43.5 11.5t36 41.5
t50.5 98q7 16 15 21.5t19 5.5q18 0 18 -16zM303 760.5q-33 30.5 -33 82.5q0 13 1 20q3 16 14 16q7 0 10 -11q5 -40 32.5 -64.5t74.5 -24.5q45 0 82 22t59 64q10 14 20 14q14 0 9 -16q-17 -58 -66 -95.5t-113 -37.5q-57 0 -90 30.5z" />
    <glyph glyph-name="ebreve" unicode="&#x115;" horiz-adv-x="426" 
d="M70.5 39q-44.5 50 -44.5 131q0 79 34.5 151.5t96.5 117t139 44.5q54 0 86.5 -29t32.5 -74q0 -78 -63 -123t-219 -62q-6 -1 -8.5 -3.5t-2.5 -11.5q0 -58 26.5 -93t83.5 -35q38 0 67.5 18t60.5 52q9 9 18 9q5 0 9 -4t4 -10t-4 -13q-30 -50 -80 -82.5t-113 -32.5
q-79 0 -123.5 50zM286 276.5q61 28.5 63 94.5q0 31 -15.5 49t-49.5 18q-42 0 -77 -30.5t-56.5 -75.5t-26.5 -86v-3q0 -12 14 -9q87 14 148 42.5zM202 563.5q-33 30.5 -33 82.5q0 13 1 20q3 16 14 16q7 0 10 -11q5 -40 32.5 -64.5t74.5 -24.5q45 0 82 22t59 64q10 14 20 14
q14 0 9 -16q-17 -58 -66 -95.5t-113 -37.5q-57 0 -90 30.5z" />
    <glyph glyph-name="Edotaccent" unicode="&#x116;" horiz-adv-x="634" 
d="M605 209q0 -12 -11 -39t-36 -77q-26 -53 -38.5 -75t-20.5 -29t-18 -7t-17.5 5.5t-16.5 9t-31 3.5q-211 0 -279.5 -0.5t-87.5 -0.5h-31q-18 0 -25.5 3.5t-7.5 12.5q0 19 29 31q33 6 48 13.5t21.5 21t12.5 42.5l97 454q5 25 5 36q0 18 -11.5 26t-43.5 15q-21 9 -17 25
q3 13 12 17.5t30 4.5h101q55 -1 256 -1q31 0 51 11q12 7 23 7q10 0 14 -7t7 -29t6 -75q4 -43 4 -75q0 -34 -6.5 -45.5t-22.5 -11.5q-20 0 -25 26q-7 75 -12.5 104t-17 38.5t-39.5 9.5h-162q-20 0 -29.5 -3.5t-15 -14.5t-10.5 -35l-38 -176q-2 -12 -2 -15q0 -16 18 -16h97
q17 0 24.5 5t10 18.5t1.5 41.5q2 16 7 23.5t17 7.5t17 -7t7 -28.5t5 -80.5l2 -68q0 -33 -5.5 -44t-20.5 -11q-11 0 -15.5 5.5t-6.5 18.5q-2 34 -4.5 48t-9.5 19t-23 5h-107q-17 0 -24.5 -9t-11.5 -29l-46 -216q-3 -16 -3 -25q0 -12 8 -16t31 -4h205q26 0 43.5 11.5t36 41.5
t50.5 98q7 16 15 21.5t19 5.5q18 0 18 -16zM355.5 738.5q-9.5 7.5 -9.5 19.5q0 26 28 44.5t66 18.5q17 0 26 -7t9 -20q0 -26 -28 -44.5t-65 -18.5q-17 0 -26.5 7.5z" />
    <glyph glyph-name="edotaccent" unicode="&#x117;" horiz-adv-x="426" 
d="M70.5 39q-44.5 50 -44.5 131q0 79 34.5 151.5t96.5 117t139 44.5q54 0 86.5 -29t32.5 -74q0 -78 -63 -123t-219 -62q-6 -1 -8.5 -3.5t-2.5 -11.5q0 -58 26.5 -93t83.5 -35q38 0 67.5 18t60.5 52q9 9 18 9q5 0 9 -4t4 -10t-4 -13q-30 -50 -80 -82.5t-113 -32.5
q-79 0 -123.5 50zM286 276.5q61 28.5 63 94.5q0 31 -15.5 49t-49.5 18q-42 0 -77 -30.5t-56.5 -75.5t-26.5 -86v-3q0 -12 14 -9q87 14 148 42.5zM252.5 576q-10.5 8 -10.5 22q0 27 30.5 47t69.5 20t39 -30q0 -27 -30 -47t-70 -20q-18 0 -28.5 8z" />
    <glyph glyph-name="Eogonek" unicode="&#x118;" horiz-adv-x="634" 
d="M252 424q-2 -12 -2 -15q0 -16 18 -16h97q17 0 24.5 5t10 18.5t1.5 41.5q2 16 7 23.5t17 7.5t17 -7t7 -28.5t5 -80.5l2 -68q0 -33 -5.5 -44t-20.5 -11q-11 0 -15.5 5.5t-6.5 18.5q-2 34 -4.5 48t-9.5 19t-23 5h-107q-17 0 -24.5 -9t-11.5 -29l-46 -216q-3 -16 -3 -25
q0 -12 8 -16t31 -4h205q26 0 43.5 11.5t36 41.5t50.5 98q7 16 15 21.5t19 5.5q18 0 18 -16q0 -12 -11 -39t-36 -77q-25 -49 -37 -71.5t-20 -30.5t-17 -9q-79 -41 -91 -92q-2 -9 -1 -13q0 -17 9.5 -27t27.5 -10q19 0 39 7.5t34 20.5q7 5 11 5q8 0 8 -8q0 -4 -3 -10
q-15 -23 -44 -39t-66 -16q-33 0 -51.5 17t-18.5 45q0 37 29 72.5t85 60.5q-12 5 -36 5q-211 0 -279.5 -0.5t-87.5 -0.5h-31q-18 0 -25.5 3.5t-7.5 12.5q0 19 29 31q33 6 48 13.5t21.5 21t12.5 42.5l97 454q5 25 5 36q0 18 -11.5 26t-43.5 15q-21 9 -17 25q3 13 12 17.5
t30 4.5h101q55 -1 256 -1q31 0 51 11q12 7 23 7q10 0 14 -7t7 -29t6 -75q4 -43 4 -75q0 -34 -6.5 -45.5t-22.5 -11.5q-20 0 -25 26q-7 75 -12.5 104t-17 38.5t-39.5 9.5h-162q-20 0 -29.5 -3.5t-15 -14.5t-10.5 -35z" />
    <glyph glyph-name="eogonek" unicode="&#x119;" horiz-adv-x="426" 
d="M124.5 191.5q-2.5 -2.5 -2.5 -11.5q0 -58 26.5 -93t83.5 -35q38 0 67.5 18t60.5 52q9 9 18 9q5 0 9 -4t4 -10t-4 -13q-20 -33 -49 -59.5t-65 -40.5q-70 -39 -80 -86q-2 -9 -1 -13q0 -17 9.5 -27t27.5 -10q19 0 39 7.5t34 20.5q7 5 11 5q8 0 8 -8q0 -4 -3 -10
q-15 -23 -44 -39t-66 -16q-33 0 -51.5 17t-18.5 45q0 26 14.5 51.5t42.5 47.5h-1q-79 0 -123.5 50t-44.5 131q0 79 34.5 151.5t96.5 117t139 44.5q54 0 86.5 -29t32.5 -74q0 -78 -63 -123t-219 -62q-6 -1 -8.5 -3.5zM124 243q0 -12 14 -9q87 14 148 42.5t63 94.5
q0 31 -15.5 49t-49.5 18q-42 0 -77 -30.5t-56.5 -75.5t-26.5 -86v-3z" />
    <glyph glyph-name="Ecaron" unicode="&#x11a;" horiz-adv-x="634" 
d="M605 209q0 -12 -11 -39t-36 -77q-26 -53 -38.5 -75t-20.5 -29t-18 -7t-17.5 5.5t-16.5 9t-31 3.5q-211 0 -279.5 -0.5t-87.5 -0.5h-31q-18 0 -25.5 3.5t-7.5 12.5q0 19 29 31q33 6 48 13.5t21.5 21t12.5 42.5l97 454q5 25 5 36q0 18 -11.5 26t-43.5 15q-21 9 -17 25
q3 13 12 17.5t30 4.5h101q55 -1 256 -1q31 0 51 11q12 7 23 7q10 0 14 -7t7 -29t6 -75q4 -43 4 -75q0 -34 -6.5 -45.5t-22.5 -11.5q-20 0 -25 26q-7 75 -12.5 104t-17 38.5t-39.5 9.5h-162q-20 0 -29.5 -3.5t-15 -14.5t-10.5 -35l-38 -176q-2 -12 -2 -15q0 -16 18 -16h97
q17 0 24.5 5t10 18.5t1.5 41.5q2 16 7 23.5t17 7.5t17 -7t7 -28.5t5 -80.5l2 -68q0 -33 -5.5 -44t-20.5 -11q-11 0 -15.5 5.5t-6.5 18.5q-2 34 -4.5 48t-9.5 19t-23 5h-107q-17 0 -24.5 -9t-11.5 -29l-46 -216q-3 -16 -3 -25q0 -12 8 -16t31 -4h205q26 0 43.5 11.5t36 41.5
t50.5 98q7 16 15 21.5t19 5.5q18 0 18 -16zM313.5 869.5q17.5 -16.5 20.5 -19.5q67 -65 74 -65t105 65q13 8 22 15q8 5 21 13t16 8q4 0 7 -3.5t3 -7.5q0 -13 -60.5 -64t-96.5 -73q-17 -9 -28 -9t-22 9q-25 20 -62.5 69.5t-37.5 64.5q0 5 5 9.5t10 4.5q6 0 23.5 -16.5z" />
    <glyph glyph-name="ecaron" unicode="&#x11b;" horiz-adv-x="426" 
d="M70.5 39q-44.5 50 -44.5 131q0 79 34.5 151.5t96.5 117t139 44.5q54 0 86.5 -29t32.5 -74q0 -78 -63 -123t-219 -62q-6 -1 -8.5 -3.5t-2.5 -11.5q0 -58 26.5 -93t83.5 -35q38 0 67.5 18t60.5 52q9 9 18 9q5 0 9 -4t4 -10t-4 -13q-30 -50 -80 -82.5t-113 -32.5
q-79 0 -123.5 50zM286 276.5q61 28.5 63 94.5q0 31 -15.5 49t-49.5 18q-42 0 -77 -30.5t-56.5 -75.5t-26.5 -86v-3q0 -12 14 -9q87 14 148 42.5zM228 650q27 -28 48.5 -48t24.5 -20q4 0 35 19.5t72 48.5q51 36 58 36q5 0 8 -3t3 -8q-2 -16 -62.5 -67.5t-96.5 -72.5
q-13 -8 -26 -8q-15 0 -23 8q-25 19 -62.5 71.5t-37.5 66.5q0 5 4 9t9 4q12 0 46 -36z" />
    <glyph glyph-name="Gcircumflex" unicode="&#x11c;" horiz-adv-x="695" 
d="M172 24q-60 35 -92.5 98t-32.5 144q0 106 53.5 209.5t146.5 169.5t204 66q61 0 111.5 -22t79.5 -61t29 -88q0 -32 -16 -62t-47 -30q-19 0 -27.5 20.5t-13.5 63.5q-3 58 -38 93t-97 35q-85 0 -147.5 -57t-95 -141.5t-32.5 -163.5q0 -71 23 -126.5t65.5 -87t98.5 -31.5
q76 0 120.5 28.5t52.5 67.5l9 45q6 29 6 44q0 22 -13.5 30.5t-52.5 14.5q-17 9 -17 23q0 13 9.5 18.5t29.5 6.5l95 -1l89 1q17 -1 24 -4t7 -11q0 -21 -25 -30q-6 -1 -26 -5t-28 -23.5t-18 -65.5l-10 -49q-15 -69 -88 -111.5t-195 -42.5q-81 0 -141 35zM297.5 737
q-3.5 4 -2.5 8q1 13 62 64.5t96 71.5q18 9 27 9t22 -9q25 -19 62.5 -68.5t37.5 -66.5q0 -4 -5 -8.5t-10 -4.5q-7 0 -43 36q-69 64 -76 64q-6 0 -104 -64q-21 -15 -38 -25.5t-21 -10.5t-7.5 4z" />
    <glyph glyph-name="gcircumflex" unicode="&#x11d;" horiz-adv-x="507" 
d="M65 -171q-42 15 -69 48q-22 18 -22 40q0 15 9.5 25.5t24.5 10.5t25.5 -6.5t19.5 -21.5q15 -27 40 -45.5t71 -18.5q127 0 166 178l15 72v5q0 7 -3 8.5t-7 -4.5q-37 -53 -79.5 -86.5t-99.5 -33.5q-62 0 -97.5 40.5t-35.5 111.5q0 80 30.5 156t89.5 125t139 49
q39 0 63.5 -16.5t45.5 -41.5q8 -8 16.5 -12.5t13.5 -4.5q7 0 12.5 5.5t15.5 25.5q14 27 21 35.5t15 8.5q9 0 13 -5.5t2 -13.5l-90 -423q-26 -120 -95 -173t-161 -53q-47 0 -89 15zM275 100q34 30 58 73t34 83q8 29 10 44.5t2 37.5q0 44 -24 72t-62 28q-51 0 -91 -41
t-62 -102t-22 -116q0 -53 22 -81t62 -28q39 0 73 30zM208 534.5q-3 3.5 -3 6.5q0 15 60.5 67.5t97.5 73.5q15 8 27 8q10 0 23 -8q24 -19 62 -71t38 -68q0 -4 -4.5 -8t-10.5 -4q-5 0 -18.5 11.5t-25.5 24.5q-68 68 -76 68q-3 0 -35 -20.5t-69 -47.5q-20 -15 -37.5 -25.5
t-20.5 -10.5q-5 0 -8 3.5z" />
    <glyph glyph-name="Gbreve" unicode="&#x11e;" horiz-adv-x="695" 
d="M172 24q-60 35 -92.5 98t-32.5 144q0 106 53.5 209.5t146.5 169.5t204 66q61 0 111.5 -22t79.5 -61t29 -88q0 -32 -16 -62t-47 -30q-19 0 -27.5 20.5t-13.5 63.5q-3 58 -38 93t-97 35q-85 0 -147.5 -57t-95 -141.5t-32.5 -163.5q0 -71 23 -126.5t65.5 -87t98.5 -31.5
q76 0 120.5 28.5t52.5 67.5l9 45q6 29 6 44q0 22 -13.5 30.5t-52.5 14.5q-17 9 -17 23q0 13 9.5 18.5t29.5 6.5l95 -1l89 1q17 -1 24 -4t7 -11q0 -21 -25 -30q-6 -1 -26 -5t-28 -23.5t-18 -65.5l-10 -49q-15 -69 -88 -111.5t-195 -42.5q-81 0 -141 35zM346 760.5
q-33 30.5 -33 82.5q0 13 1 20q3 16 14 16q7 0 10 -11q5 -40 32.5 -64.5t74.5 -24.5q45 0 82 22t59 64q10 14 20 14q14 0 9 -16q-17 -58 -66 -95.5t-113 -37.5q-57 0 -90 30.5z" />
    <glyph glyph-name="gbreve" unicode="&#x11f;" horiz-adv-x="507" 
d="M65 -171q-42 15 -69 48q-22 18 -22 40q0 15 9.5 25.5t24.5 10.5t25.5 -6.5t19.5 -21.5q15 -27 40 -45.5t71 -18.5q127 0 166 178l15 72v5q0 7 -3 8.5t-7 -4.5q-37 -53 -79.5 -86.5t-99.5 -33.5q-62 0 -97.5 40.5t-35.5 111.5q0 80 30.5 156t89.5 125t139 49
q39 0 63.5 -16.5t45.5 -41.5q8 -8 16.5 -12.5t13.5 -4.5q7 0 12.5 5.5t15.5 25.5q14 27 21 35.5t15 8.5q9 0 13 -5.5t2 -13.5l-90 -423q-26 -120 -95 -173t-161 -53q-47 0 -89 15zM275 100q34 30 58 73t34 83q8 29 10 44.5t2 37.5q0 44 -24 72t-62 28q-51 0 -91 -41
t-62 -102t-22 -116q0 -53 22 -81t62 -28q39 0 73 30zM266 563.5q-33 30.5 -33 82.5q0 13 1 20q3 16 14 16q7 0 10 -11q5 -40 32.5 -64.5t74.5 -24.5q45 0 82 22t59 64q10 14 20 14q14 0 9 -16q-17 -58 -66 -95.5t-113 -37.5q-57 0 -90 30.5z" />
    <glyph glyph-name="Gdotaccent" unicode="&#x120;" horiz-adv-x="695" 
d="M172 24q-60 35 -92.5 98t-32.5 144q0 106 53.5 209.5t146.5 169.5t204 66q61 0 111.5 -22t79.5 -61t29 -88q0 -32 -16 -62t-47 -30q-19 0 -27.5 20.5t-13.5 63.5q-3 58 -38 93t-97 35q-85 0 -147.5 -57t-95 -141.5t-32.5 -163.5q0 -71 23 -126.5t65.5 -87t98.5 -31.5
q76 0 120.5 28.5t52.5 67.5l9 45q6 29 6 44q0 22 -13.5 30.5t-52.5 14.5q-17 9 -17 23q0 13 9.5 18.5t29.5 6.5l95 -1l89 1q17 -1 24 -4t7 -11q0 -21 -25 -30q-6 -1 -26 -5t-28 -23.5t-18 -65.5l-10 -49q-15 -69 -88 -111.5t-195 -42.5q-81 0 -141 35zM398.5 738.5
q-9.5 7.5 -9.5 19.5q0 26 28 44.5t66 18.5q17 0 26 -7t9 -20q0 -26 -28 -44.5t-65 -18.5q-17 0 -26.5 7.5z" />
    <glyph glyph-name="gdotaccent" unicode="&#x121;" horiz-adv-x="507" 
d="M65 -171q-42 15 -69 48q-22 18 -22 40q0 15 9.5 25.5t24.5 10.5t25.5 -6.5t19.5 -21.5q15 -27 40 -45.5t71 -18.5q127 0 166 178l15 72v5q0 7 -3 8.5t-7 -4.5q-37 -53 -79.5 -86.5t-99.5 -33.5q-62 0 -97.5 40.5t-35.5 111.5q0 80 30.5 156t89.5 125t139 49
q39 0 63.5 -16.5t45.5 -41.5q8 -8 16.5 -12.5t13.5 -4.5q7 0 12.5 5.5t15.5 25.5q14 27 21 35.5t15 8.5q9 0 13 -5.5t2 -13.5l-90 -423q-26 -120 -95 -173t-161 -53q-47 0 -89 15zM275 100q34 30 58 73t34 83q8 29 10 44.5t2 37.5q0 44 -24 72t-62 28q-51 0 -91 -41
t-62 -102t-22 -116q0 -53 22 -81t62 -28q39 0 73 30zM315.5 576q-10.5 8 -10.5 22q0 27 30.5 47t69.5 20t39 -30q0 -27 -30 -47t-70 -20q-18 0 -28.5 8z" />
    <glyph glyph-name="uni0122" unicode="&#x122;" horiz-adv-x="695" 
d="M172 24q-60 35 -92.5 98t-32.5 144q0 106 53.5 209.5t146.5 169.5t204 66q61 0 111.5 -22t79.5 -61t29 -88q0 -32 -16 -62t-47 -30q-19 0 -27.5 20.5t-13.5 63.5q-3 58 -38 93t-97 35q-85 0 -147.5 -57t-95 -141.5t-32.5 -163.5q0 -71 23 -126.5t65.5 -87t98.5 -31.5
q76 0 120.5 28.5t52.5 67.5l9 45q6 29 6 44q0 22 -13.5 30.5t-52.5 14.5q-17 9 -17 23q0 13 9.5 18.5t29.5 6.5l95 -1l89 1q17 -1 24 -4t7 -11q0 -21 -25 -30q-6 -1 -26 -5t-28 -23.5t-18 -65.5l-10 -49q-15 -69 -88 -111.5t-195 -42.5q-81 0 -141 35zM232 -153q0 6 7 9
q33 14 36 31v2q0 6 -9 7t-15 7t-6 17q0 17 14 29.5t32 12.5q14 0 22 -8.5t8 -22.5q0 -4 -2 -16q-5 -24 -19.5 -41t-31.5 -25.5t-29 -8.5q-7 0 -7 7z" />
    <glyph glyph-name="uni0123" unicode="&#x123;" horiz-adv-x="507" 
d="M65 -171q-42 15 -69 48q-22 18 -22 40q0 15 9.5 25.5t24.5 10.5t25.5 -6.5t19.5 -21.5q15 -27 40 -45.5t71 -18.5q127 0 166 178l15 72v5q0 7 -3 8.5t-7 -4.5q-37 -53 -79.5 -86.5t-99.5 -33.5q-62 0 -97.5 40.5t-35.5 111.5q0 80 30.5 156t89.5 125t139 49
q39 0 63.5 -16.5t45.5 -41.5q8 -8 16.5 -12.5t13.5 -4.5q7 0 12.5 5.5t15.5 25.5q14 27 21 35.5t15 8.5q9 0 13 -5.5t2 -13.5l-90 -423q-26 -120 -95 -173t-161 -53q-47 0 -89 15zM275 100q34 30 58 73t34 83q8 29 10 44.5t2 37.5q0 44 -24 72t-62 28q-51 0 -91 -41
t-62 -102t-22 -116q0 -53 22 -81t62 -28q39 0 73 30zM428.5 693.5q2.5 -2.5 2.5 -6.5q0 -6 -9 -11q-43 -16 -49 -41v-2q0 -7 12 -10q12 -1 19.5 -8.5t7.5 -21.5q0 -22 -16.5 -38t-39.5 -16q-19 0 -29 10.5t-10 29.5q0 13 2 20q6 31 25 53t41 33t37 11q4 0 6.5 -2.5z" />
    <glyph glyph-name="Hcircumflex" unicode="&#x124;" horiz-adv-x="785" 
d="M-7.5 2.5q-7.5 3.5 -7.5 12.5q0 19 29 31q33 6 47.5 13.5t21 20.5t13.5 43l97 454q5 25 5 36q0 18 -11.5 26t-43.5 15q-21 9 -17 25q3 13 12 17.5t30 4.5h194q17 0 25 -3.5t8 -11.5q0 -20 -29 -32q-33 -6 -47.5 -13.5t-21 -20.5t-12.5 -43l-31 -144q-3 -13 -3 -22
q0 -14 7.5 -18.5t24.5 -4.5h284q22 0 32 9t16 36l31 144q1 6 3.5 18t2.5 19q0 17 -12 25t-44 15q-21 9 -17 25q3 13 12 17.5t30 4.5h194q17 0 25 -3.5t8 -11.5q0 -20 -29 -32q-33 -6 -47.5 -13.5t-21 -20.5t-12.5 -43l-97 -454q-1 -6 -3.5 -18t-2.5 -19q0 -17 12 -25t44 -15
q20 -10 16 -25q-2 -13 -11 -17.5t-30 -4.5h-195q-18 0 -25.5 3.5t-7.5 12.5q0 19 29 31q33 6 47.5 13.5t21 20.5t13.5 43l35 166q3 15 3 23q0 14 -7 18.5t-24 4.5h-284q-23 0 -32.5 -8.5t-16.5 -37.5l-35 -166q-1 -6 -3.5 -18t-2.5 -19q0 -17 12 -25t44 -15q20 -10 16 -25
q-2 -13 -11 -17.5t-30 -4.5h-195q-18 0 -25.5 3.5zM350.5 737q-3.5 4 -2.5 8q1 13 62 64.5t96 71.5q18 9 27 9t22 -9q25 -19 62.5 -68.5t37.5 -66.5q0 -4 -5 -8.5t-10 -4.5q-7 0 -43 36q-69 64 -76 64q-6 0 -104 -64q-21 -15 -38 -25.5t-21 -10.5t-7.5 4z" />
    <glyph glyph-name="hcircumflex" unicode="&#x125;" horiz-adv-x="587" 
d="M344 71q0 20 7 53l40 173q6 26 6 44q0 34 -16 51t-43 17q-36 0 -73.5 -28t-67 -78t-41.5 -114q-18 -86 -31 -162q-2 -19 -17.5 -25.5t-61.5 -7.5q-11 0 -16 6.5t-3 15.5q4 12 7 29q12 42 24 98l97 458q2 14 2 19q0 22 -20 27q-4 1 -22 4q-16 2 -22.5 4t-6.5 9q1 10 9 15
t23 9q98 18 120 18q23 0 23 -17q0 -6 -1 -10l-66 -310q-4 -17 2 -17q3 0 8 7q77 124 187 124q45 0 73 -28t28 -81q0 -27 -7 -56l-46 -199q-3 -12 -3 -22q0 -18 8 -28t22 -10q19 0 32.5 17.5t27.5 54.5q5 8 14 8q6 0 11 -5t5 -14q0 -6 -3 -14q-18 -52 -51.5 -84.5
t-79.5 -32.5q-78 0 -78 82zM52.5 710q-3.5 4 -2.5 8q1 13 62 64.5t96 71.5q18 9 27 9t22 -9q25 -19 62.5 -68.5t37.5 -66.5q0 -4 -5 -8.5t-10 -4.5q-7 0 -43 36q-69 64 -76 64q-6 0 -104 -64q-21 -15 -38 -25.5t-21 -10.5t-7.5 4z" />
    <glyph glyph-name="Hbar" unicode="&#x126;" horiz-adv-x="785" 
d="M840 697.5q8 -3.5 8 -11.5q0 -20 -29 -32q-33 -6 -47.5 -13.5t-21 -20.5t-12.5 -43l-4 -18h52q11 0 11 -14q0 -9 -5.5 -17t-13.5 -8h-52l-85 -397q-1 -6 -3.5 -18t-2.5 -19q0 -17 12 -25t44 -15q20 -10 16 -25q-2 -13 -11 -17.5t-30 -4.5h-195q-18 0 -25.5 3.5t-7.5 12.5
q0 19 29 31q33 6 47.5 13.5t21 20.5t13.5 43l35 166q3 15 3 23q0 14 -7 18.5t-24 4.5h-284q-23 0 -32.5 -8.5t-16.5 -37.5l-35 -166q-1 -6 -3.5 -18t-2.5 -19q0 -17 12 -25t44 -15q20 -10 16 -25q-2 -13 -11 -17.5t-30 -4.5h-195q-18 0 -25.5 3.5t-7.5 12.5q0 19 29 31
q33 6 47.5 13.5t21 20.5t13.5 43l85 397h-54q-11 0 -11 14q0 9 5.5 17t13.5 8h54l4 18q5 25 5 36q0 18 -11.5 26t-43.5 15q-21 9 -17 25q3 13 12 17.5t30 4.5h194q17 0 25 -3.5t8 -11.5q0 -20 -29 -32q-33 -6 -47.5 -13.5t-21 -20.5t-12.5 -43l-4 -18h361l4 18q1 6 3.5 18
t2.5 19q0 17 -12 25t-44 15q-21 9 -17 25q3 13 12 17.5t30 4.5h194q17 0 25 -3.5zM634 520h-361l-19 -87q-3 -13 -3 -22q0 -14 7.5 -18.5t24.5 -4.5h284q22 0 32 9t16 36z" />
    <glyph glyph-name="hbar" unicode="&#x127;" horiz-adv-x="587" 
d="M540 139q6 0 11 -5t5 -14q0 -6 -3 -14q-18 -52 -51.5 -84.5t-79.5 -32.5q-78 0 -78 82q0 20 7 53l40 173q6 26 6 44q0 34 -16 51t-43 17q-36 0 -73.5 -28t-67 -78t-41.5 -114q-18 -86 -31 -162q-2 -19 -17.5 -25.5t-61.5 -7.5q-11 0 -16 6.5t-3 15.5q4 12 7 29
q12 42 24 98l81 381l-74 -1q-16 0 -16 7q0 3 7 15q6 12 11.5 17t15.5 5q41 0 65 -1l7 35q2 14 2 19q0 22 -20 27q-4 1 -22 4q-16 2 -22.5 4t-6.5 9q1 10 9 15t23 9q98 18 120 18q23 0 23 -17q0 -6 -1 -10l-24 -113l92 1q10 0 10 -6q0 -5 -6 -15q-7 -13 -12 -18t-15 -5l-78 1
l-33 -155q-4 -17 2 -17q3 0 8 7q77 124 187 124q45 0 73 -28t28 -81q0 -27 -7 -56l-46 -199q-3 -12 -3 -22q0 -18 8 -28t22 -10q19 0 32.5 17.5t27.5 54.5q5 8 14 8z" />
    <glyph glyph-name="Itilde" unicode="&#x128;" horiz-adv-x="332" 
d="M18 -1q-18 0 -25.5 3.5t-7.5 12.5q0 19 29 31q33 6 48 13.5t21.5 21t12.5 42.5l97 454q5 25 5 36q0 18 -11.5 26t-43.5 15q-21 9 -17 25q3 13 12 17.5t30 4.5q48 0 61 -1h27h16l90 1q17 0 25 -3.5t8 -11.5q0 -21 -28 -32q-33 -6 -48 -13.5t-21.5 -21t-12.5 -42.5
l-97 -454q-5 -25 -5 -37q0 -17 11.5 -25t43.5 -15q21 -9 17 -25q-3 -13 -12 -17.5t-30 -4.5q-49 0 -61 1h-28h-16zM317.5 746q-15.5 7 -35.5 20q-22 13 -36 19.5t-32 6.5q-33 0 -50 -36q-14 -19 -27 -19q-8 0 -13 5t-4 15q4 36 33 59.5t64 23.5q23 0 40 -7.5t42 -22.5
q17 -12 30.5 -18t27.5 -6q31 0 50 36q13 19 27 19q8 0 13 -5.5t5 -14.5q-5 -36 -34.5 -59t-65.5 -23q-19 0 -34.5 7z" />
    <glyph glyph-name="itilde" unicode="&#x129;" horiz-adv-x="295" 
d="M55 70q0 27 7 54l53 249q3 11 3 19q0 21 -21 27l-23 4q-15 2 -21 4t-6 8q0 10 8 15t24 10q96 18 120 18q23 0 23 -17q0 -2 -2 -10l-70 -332q-3 -12 -3 -22q0 -38 31 -38q35 0 62 72q4 7 13 7q6 0 10.5 -4.5t4.5 -11.5q0 -8 -4 -16q-18 -52 -52 -84.5t-78 -32.5
q-79 0 -79 81zM232.5 567q-15.5 7 -35.5 20q-22 13 -36 19.5t-32 6.5q-33 0 -50 -36q-14 -19 -27 -19q-8 0 -13 5t-4 15q4 36 33 59.5t64 23.5q23 0 40 -7.5t42 -22.5q17 -12 30.5 -18t27.5 -6q31 0 50 36q13 19 27 19q8 0 13 -5.5t5 -14.5q-5 -36 -34.5 -59t-65.5 -23
q-19 0 -34.5 7z" />
    <glyph glyph-name="Imacron" unicode="&#x12a;" horiz-adv-x="332" 
d="M18 -1q-18 0 -25.5 3.5t-7.5 12.5q0 19 29 31q33 6 48 13.5t21.5 21t12.5 42.5l97 454q5 25 5 36q0 18 -11.5 26t-43.5 15q-21 9 -17 25q3 13 12 17.5t30 4.5q48 0 61 -1h27h16l90 1q17 0 25 -3.5t8 -11.5q0 -21 -28 -32q-33 -6 -48 -13.5t-21.5 -21t-12.5 -42.5
l-97 -454q-5 -25 -5 -37q0 -17 11.5 -25t43.5 -15q21 -9 17 -25q-3 -13 -12 -17.5t-30 -4.5q-49 0 -61 1h-28h-16zM140.5 754q-3.5 2 -3.5 6t5 16q1 2 6 9.5t9.5 10.5t11.5 3l118 -1l111 1q10 0 10 -7q0 -6 -6 -16q-6 -14 -11.5 -19.5t-16.5 -5.5q-69 1 -222 1q-8 0 -11.5 2
z" />
    <glyph glyph-name="imacron" unicode="&#x12b;" horiz-adv-x="295" 
d="M55 70q0 27 7 54l53 249q3 11 3 19q0 21 -21 27l-23 4q-15 2 -21 4t-6 8q0 10 8 15t24 10q96 18 120 18q23 0 23 -17q0 -2 -2 -10l-70 -332q-3 -12 -3 -22q0 -38 31 -38q35 0 62 72q4 7 13 7q6 0 10.5 -4.5t4.5 -11.5q0 -8 -4 -16q-18 -52 -52 -84.5t-78 -32.5
q-79 0 -79 81zM79.5 585q-3.5 2 -3.5 6t5 16q1 2 6 9.5t9.5 10.5t11.5 3l118 -1l111 1q10 0 10 -7q0 -6 -6 -16q-6 -14 -11.5 -19.5t-16.5 -5.5q-69 1 -222 1q-8 0 -11.5 2z" />
    <glyph glyph-name="Ibreve" unicode="&#x12c;" horiz-adv-x="332" 
d="M18 -1q-18 0 -25.5 3.5t-7.5 12.5q0 19 29 31q33 6 48 13.5t21.5 21t12.5 42.5l97 454q5 25 5 36q0 18 -11.5 26t-43.5 15q-21 9 -17 25q3 13 12 17.5t30 4.5q48 0 61 -1h27h16l90 1q17 0 25 -3.5t8 -11.5q0 -21 -28 -32q-33 -6 -48 -13.5t-21.5 -21t-12.5 -42.5
l-97 -454q-5 -25 -5 -37q0 -17 11.5 -25t43.5 -15q21 -9 17 -25q-3 -13 -12 -17.5t-30 -4.5q-49 0 -61 1h-28h-16zM173 760.5q-33 30.5 -33 82.5q0 13 1 20q3 16 14 16q7 0 10 -11q5 -40 32.5 -64.5t74.5 -24.5q45 0 82 22t59 64q10 14 20 14q14 0 9 -16q-17 -58 -66 -95.5
t-113 -37.5q-57 0 -90 30.5z" />
    <glyph glyph-name="ibreve" unicode="&#x12d;" horiz-adv-x="295" 
d="M55 70q0 27 7 54l53 249q3 11 3 19q0 21 -21 27l-23 4q-15 2 -21 4t-6 8q0 10 8 15t24 10q96 18 120 18q23 0 23 -17q0 -2 -2 -10l-70 -332q-3 -12 -3 -22q0 -38 31 -38q35 0 62 72q4 7 13 7q6 0 10.5 -4.5t4.5 -11.5q0 -8 -4 -16q-18 -52 -52 -84.5t-78 -32.5
q-79 0 -79 81zM104 563.5q-33 30.5 -33 82.5q0 13 1 20q3 16 14 16q7 0 10 -11q5 -40 32.5 -64.5t74.5 -24.5q45 0 82 22t59 64q10 14 20 14q14 0 9 -16q-17 -58 -66 -95.5t-113 -37.5q-57 0 -90 30.5z" />
    <glyph glyph-name="Iogonek" unicode="&#x12e;" horiz-adv-x="332" 
d="M387 697.5q8 -3.5 8 -11.5q0 -21 -28 -32q-33 -6 -48 -13.5t-21.5 -21t-12.5 -42.5l-97 -454q-5 -25 -5 -37q0 -17 11.5 -25t43.5 -15q21 -9 17 -25q-3 -13 -12 -17.5t-30 -4.5q-34 0 -49.5 0.5t-25.5 0.5q-44 -22 -67.5 -45t-29.5 -50q-2 -9 -1 -13q0 -17 9.5 -27
t27.5 -10q19 0 39 7.5t34 20.5q7 5 11 5q8 0 8 -8q0 -4 -3 -10q-15 -23 -44 -39t-66 -16q-33 0 -51.5 17t-18.5 45q0 33 24 65.5t69 57.5q-16 -1 -61 -1q-18 0 -25.5 3.5t-7.5 12.5q0 19 29 31q33 6 48 13.5t21.5 21t12.5 42.5l97 454q5 25 5 36q0 18 -11.5 26t-43.5 15
q-21 9 -17 25q3 13 12 17.5t30 4.5q48 0 61 -1h27h16l90 1q17 0 25 -3.5z" />
    <glyph glyph-name="iogonek" unicode="&#x12f;" horiz-adv-x="297" 
d="M280 630q0 -27 -29 -48t-69 -21q-20 0 -30.5 7.5t-10.5 21.5q0 29 30.5 49t70.5 20q38 0 38 -29zM253 138q6 0 10.5 -4.5t4.5 -11.5q0 -8 -4 -16q-15 -42 -40 -71.5t-57 -40.5q-83 -45 -83 -100q0 -17 9.5 -27t27.5 -10q19 0 39 7.5t34 20.5q7 5 11 5q8 0 8 -8
q0 -4 -3 -10q-15 -23 -44 -39t-66 -16q-33 0 -51.5 17t-18.5 45q0 30 19.5 59.5t57.5 53.5q-52 13 -52 78q0 27 7 54l53 249q3 11 3 19q0 21 -21 27l-23 4q-15 2 -21 4t-6 8q0 10 8 15t24 10q96 18 120 18q23 0 23 -17q0 -2 -2 -10l-70 -332q-3 -12 -3 -22q0 -38 31 -38
q35 0 62 72q4 7 13 7z" />
    <glyph glyph-name="Idotaccent" unicode="&#x130;" horiz-adv-x="332" 
d="M18 -1q-18 0 -25.5 3.5t-7.5 12.5q0 19 29 31q33 6 48 13.5t21.5 21t12.5 42.5l97 454q5 25 5 36q0 18 -11.5 26t-43.5 15q-21 9 -17 25q3 13 12 17.5t30 4.5q48 0 61 -1h27h16l90 1q17 0 25 -3.5t8 -11.5q0 -21 -28 -32q-33 -6 -48 -13.5t-21.5 -21t-12.5 -42.5
l-97 -454q-5 -25 -5 -37q0 -17 11.5 -25t43.5 -15q21 -9 17 -25q-3 -13 -12 -17.5t-30 -4.5q-49 0 -61 1h-28h-16zM225.5 738.5q-9.5 7.5 -9.5 19.5q0 26 28 44.5t66 18.5q17 0 26 -7t9 -20q0 -26 -28 -44.5t-65 -18.5q-17 0 -26.5 7.5z" />
    <glyph glyph-name="dotlessi" unicode="&#x131;" horiz-adv-x="295" 
d="M55 70q0 27 7 54l53 249q3 11 3 19q0 21 -21 27l-23 4q-15 2 -21 4t-6 8q0 10 8 15t24 10q96 18 120 18q23 0 23 -17q0 -2 -2 -10l-70 -332q-3 -12 -3 -22q0 -38 31 -38q35 0 62 72q4 7 13 7q6 0 10.5 -4.5t4.5 -11.5q0 -8 -4 -16q-18 -52 -52 -84.5t-78 -32.5
q-79 0 -79 81z" />
    <glyph glyph-name="IJ" unicode="&#x132;" horiz-adv-x="833" 
d="M18 -1q-18 0 -25.5 3.5t-7.5 12.5q0 19 29 31q33 6 48 13.5t21.5 21t12.5 42.5l97 454q5 25 5 36q0 18 -11.5 26t-43.5 15q-21 9 -17 25q3 13 12 17.5t30 4.5q48 0 61 -1h27h16l90 1q17 0 25 -3.5t8 -11.5q0 -21 -28 -32q-33 -6 -48 -13.5t-21.5 -21t-12.5 -42.5
l-97 -454q-5 -25 -5 -37q0 -17 11.5 -25t43.5 -15q21 -9 17 -25q-3 -13 -12 -17.5t-30 -4.5q-49 0 -61 1h-28h-16zM361 26q-39 37 -39 101q0 27 6 55q5 22 20 36t37 14q18 0 28 -11.5t7 -28.5q-3 -13 -6 -22.5t-5 -18.5q-4 -16 -4 -32q0 -39 23.5 -59t63.5 -20
q125 0 162 178q6 23 20 101l33 165l19 89q5 23 5 34q0 18 -13.5 26.5t-53.5 16.5q-25 7 -21 29q3 12 14 17t35 5h196q15 0 21 -3t6 -11q0 -21 -25 -33q-27 -6 -39.5 -13.5t-18 -20.5t-12.5 -43l-72 -337q-25 -120 -92 -185.5t-174 -65.5q-82 0 -121 37z" />
    <glyph glyph-name="ij" unicode="&#x133;" horiz-adv-x="529" 
d="M55 70q0 27 7 54l53 249q3 11 3 19q0 21 -21 27l-23 4q-15 2 -21 4t-6 8q0 10 8 15t24 10q96 18 120 18q23 0 23 -17q0 -2 -2 -10l-70 -332q-3 -12 -3 -22q0 -38 31 -38q35 0 62 72q4 7 13 7q6 0 10.5 -4.5t4.5 -11.5q0 -8 -4 -16q-18 -52 -52 -84.5t-78 -32.5
q-79 0 -79 81zM152.5 569q-10.5 8 -10.5 22q0 27 30.5 47t69.5 20t39 -30q0 -27 -30 -47t-70 -20q-18 0 -28.5 8zM208 -176q-11 0 -16.5 5t-5.5 13q0 9 7.5 18t20.5 13q102 29 133 175l68 326q2 7 2 19q0 22 -20 26l-23 3q-16 2 -22 4t-6 8q0 11 8 16t25 10q94 18 119 18
q23 0 23 -17q0 -6 -1 -10l-81 -382q-24 -113 -83.5 -171t-138.5 -73q-3 -1 -9 -1zM439.5 569q-10.5 8 -10.5 22q0 27 30.5 47t69.5 20t39 -30q0 -27 -30 -47t-70 -20q-18 0 -28.5 8z" />
    <glyph glyph-name="Jcircumflex" unicode="&#x134;" horiz-adv-x="518" 
d="M46 26q-39 37 -39 101q0 27 6 55q5 22 20 36t37 14q18 0 28 -11.5t7 -28.5q-3 -13 -6 -22.5t-5 -18.5q-4 -16 -4 -32q0 -39 23.5 -59t63.5 -20q125 0 162 178q6 23 20 101l33 165l19 89q5 23 5 34q0 18 -13.5 26.5t-53.5 16.5q-25 7 -21 29q3 12 14 17t35 5h196
q15 0 21 -3t6 -11q0 -21 -25 -33q-27 -6 -39.5 -13.5t-18 -20.5t-12.5 -43l-72 -337q-25 -120 -92 -185.5t-174 -65.5q-82 0 -121 37zM320.5 737q-3.5 4 -2.5 8q1 13 62 64.5t96 71.5q18 9 27 9t22 -9q25 -19 62.5 -68.5t37.5 -66.5q0 -4 -5 -8.5t-10 -4.5q-7 0 -43 36
q-69 64 -76 64q-6 0 -104 -64q-21 -15 -38 -25.5t-21 -10.5t-7.5 4z" />
    <glyph glyph-name="jcircumflex" unicode="&#x135;" horiz-adv-x="232" 
d="M-89 -176q-11 0 -16.5 5t-5.5 13q0 9 7.5 18t20.5 13q102 29 133 175l68 326q2 7 2 19q0 22 -20 26l-23 3q-16 2 -22 4t-6 8q0 11 8 16t25 10q94 18 119 18q23 0 23 -17q0 -6 -1 -10l-81 -382q-24 -113 -83.5 -171t-138.5 -73q-3 -1 -9 -1zM48 534.5q-3 3.5 -3 6.5
q0 15 60.5 67.5t97.5 73.5q15 8 27 8q10 0 23 -8q24 -19 62 -71t38 -68q0 -4 -4.5 -8t-10.5 -4q-5 0 -18.5 11.5t-25.5 24.5q-68 68 -76 68q-3 0 -35 -20.5t-69 -47.5q-20 -15 -37.5 -25.5t-20.5 -10.5q-5 0 -8 3.5z" />
    <glyph glyph-name="uni0136" unicode="&#x136;" horiz-adv-x="734" 
d="M-7.5 2.5q-7.5 3.5 -7.5 12.5q0 19 29 31q33 6 47.5 13.5t21 20.5t13.5 43l97 454q5 25 5 36q0 18 -11.5 26t-43.5 15q-21 9 -17 25q3 13 12 17.5t30 4.5h193q15 0 22 -3.5t7 -11.5q0 -21 -26 -32q-32 -6 -46 -13.5t-20.5 -20.5t-12.5 -43l-41 -191q-1 -3 -1 -8
q0 -8 5 -8q6 0 19 10l281 221q24 20 24 31q0 9 -12 14.5t-37 11.5q-15 9 -12 23q3 13 16 18t39 4q60 -2 87 -2l45 1q13 1 40 1q42 0 37 -24q-5 -21 -34 -26q-30 -2 -46 -4.5t-34 -12.5t-43 -31l-154 -124q-7 -6 -11 -14.5t-4 -17.5t2 -13l136 -338q13 -31 26.5 -41t46.5 -12
q9 -1 14 -6t5 -12q0 -16 -11.5 -22t-33.5 -6h-188q-28 0 -28 16q0 11 7.5 17.5t22.5 10.5q25 3 35.5 8.5t10.5 16.5q0 8 -9 31l-112 263q-7 18 -19 18q-11 0 -26 -13l-82 -65q-12 -10 -19.5 -22t-11.5 -31l-27 -126q-5 -27 -5 -37q0 -17 11 -25t42 -15q17 -8 17 -20
q0 -15 -9.5 -21t-30.5 -6h-195q-18 0 -25.5 3.5zM265 -153q0 6 7 9q33 14 36 31v2q0 6 -9 7t-15 7t-6 17q0 17 14 29.5t32 12.5q14 0 22 -8.5t8 -22.5q0 -4 -2 -16q-5 -24 -19.5 -41t-31.5 -25.5t-29 -8.5q-7 0 -7 7z" />
    <glyph glyph-name="uni0137" unicode="&#x137;" horiz-adv-x="547" 
d="M291.5 73q-32.5 84 -41.5 187q-1 20 -8 20q-5 0 -17 -15l-55 -76q-11 -16 -16.5 -27.5t-9.5 -26.5q-15 -73 -20 -108q-2 -19 -17.5 -25.5t-61.5 -7.5q-11 0 -16 6.5t-3 15.5q9 33 8 30q14 54 23 97l98 459q2 14 2 18q0 22 -20 27q-4 1 -22 4q-16 2 -22.5 4t-6.5 9
q1 10 9 15t23 9q98 18 120 18q23 0 23 -17q0 -6 -1 -10l-88 -415v-5q0 -5 3 -5t10 7q74 100 137 160t124 60q35 0 57 -19t22 -48q0 -21 -9 -32.5t-25 -11.5q-14 0 -20 8t-8 22q-2 16 -9 23.5t-25 7.5q-38 0 -96 -63q-9 -8 -11.5 -16t-1.5 -23q17 -125 40.5 -200t73.5 -75
q26 0 40.5 18t23.5 49q6 7 12 7q7 0 11 -6t2 -15q-33 -118 -128 -118q-71 0 -103.5 84zM169 -153q0 6 7 9q33 14 36 31v2q0 6 -9 7t-15 7t-6 17q0 17 14 29.5t32 12.5q14 0 22 -8.5t8 -22.5q0 -4 -2 -16q-5 -24 -19.5 -41t-31.5 -25.5t-29 -8.5q-7 0 -7 7z" />
    <glyph glyph-name="kgreenlandic" unicode="&#x138;" horiz-adv-x="568" 
d="M-30 14q0 17 22 24q29 4 43 12t20 21.5t12 43.5l52 247l1 11q2 14 2 19q0 22 -20 27l-23 4q-15 2 -21 4t-6 8q0 11 8 16t24 9q96 18 120 18q23 0 23 -16q0 -3 -2 -11l-10 -53l-27 -130q-1 -3 -1 -8q0 -10 8 -10q7 0 17 9l181 146q18 14 18 23q0 4 -9 6t-37 3q-3 0 -5.5 3
t-2.5 9q0 15 14 19.5t37 4.5l70 -1l70 1q15 0 22.5 -4.5t5.5 -16.5q-5 -20 -27 -22q-36 -1 -58.5 -10.5t-46.5 -29.5l-84 -65q-18 -13 -18 -28q0 -4 4 -14l96 -189q16 -31 26.5 -39.5t36.5 -11.5q11 -4 16 -7.5t5 -11.5q0 -13 -11 -20t-29 -7q-28 1 -73 1q-46 0 -77 -1
q-24 0 -32 6t-6 17q1 7 8 10t20 6q15 4 22.5 8.5t7.5 13.5q0 8 -5 17l-76 147q-7 14 -19 14q-7 0 -14 -5l-61 -49q-10 -8 -14 -18.5t-11 -44.5q-2 -14 -4 -20q-4 -22 -4 -27q0 -13 10.5 -21t39.5 -12q15 -7 15 -17q0 -13 -10 -19t-35 -6q-29 1 -80 1q-50 0 -78 -1
q-40 0 -40 17z" />
    <glyph glyph-name="Lacute" unicode="&#x139;" horiz-adv-x="593" 
d="M429 -12q-8 6 -18 9t-32 3h-271l-90 -1q-18 0 -25.5 3.5t-7.5 12.5q0 19 29 31q33 6 48 13.5t21.5 20.5t12.5 43l97 454q5 25 5 36q0 18 -11.5 26t-43.5 15q-21 9 -17 25q3 13 12 17.5t30 4.5h204q25 0 33.5 -4.5t5.5 -17.5q-3 -16 -31 -25q-39 -6 -56.5 -13.5t-25 -21
t-13.5 -42.5l-102 -476q-3 -16 -3 -26q0 -17 8.5 -22t29.5 -5h168q26 0 44 11.5t37.5 42.5t50.5 96q16 27 35 27q17 0 17 -15q0 -13 -11 -40.5t-37 -78.5q-24 -50 -37 -72.5t-20.5 -29.5t-16.5 -7t-19 6zM178 743q1 6 27.5 27.5t45 35t25.5 18.5q34 23 48 35q14 18 47 18
q25 0 32.5 -4t5.5 -14q-2 -12 -50.5 -42.5t-103 -57t-66.5 -26.5q-14 0 -11 10z" />
    <glyph glyph-name="lacute" unicode="&#x13a;" horiz-adv-x="285" 
d="M46 70q0 24 6 54l100 478q2 14 2 18q0 22 -20 27q-4 1 -22 4q-16 2 -22.5 4t-6.5 9q1 10 9 15t24 9q96 18 119 18t23 -17q0 -6 -1 -10l-119 -561q-2 -8 -2 -22q0 -18 8 -27.5t22 -9.5q21 0 35.5 18t27.5 54q7 7 14 7q6 0 10 -4t4 -12t-4 -16q-17 -52 -52 -84.5t-78 -32.5
q-77 0 -77 81zM128 770q1 6 27.5 27.5t45 35t25.5 18.5q34 23 48 35q14 18 47 18q25 0 32.5 -4t5.5 -14q-2 -12 -50.5 -42.5t-103 -57t-66.5 -26.5q-14 0 -11 10z" />
    <glyph glyph-name="uni013B" unicode="&#x13b;" horiz-adv-x="593" 
d="M429 -12q-8 6 -18 9t-32 3h-271l-90 -1q-18 0 -25.5 3.5t-7.5 12.5q0 19 29 31q33 6 48 13.5t21.5 20.5t12.5 43l97 454q5 25 5 36q0 18 -11.5 26t-43.5 15q-21 9 -17 25q3 13 12 17.5t30 4.5h204q25 0 33.5 -4.5t5.5 -17.5q-3 -16 -31 -25q-39 -6 -56.5 -13.5t-25 -21
t-13.5 -42.5l-102 -476q-3 -16 -3 -26q0 -17 8.5 -22t29.5 -5h168q26 0 44 11.5t37.5 42.5t50.5 96q16 27 35 27q17 0 17 -15q0 -13 -11 -40.5t-37 -78.5q-24 -50 -37 -72.5t-20.5 -29.5t-16.5 -7t-19 6zM198 -153q0 6 7 9q33 14 36 31v2q0 6 -9 7t-15 7t-6 17q0 17 14 29.5
t32 12.5q14 0 22 -8.5t8 -22.5q0 -4 -2 -16q-5 -24 -19.5 -41t-31.5 -25.5t-29 -8.5q-7 0 -7 7z" />
    <glyph glyph-name="uni013C" unicode="&#x13c;" horiz-adv-x="285" 
d="M46 70q0 24 6 54l100 478q2 14 2 18q0 22 -20 27q-4 1 -22 4q-16 2 -22.5 4t-6.5 9q1 10 9 15t24 9q96 18 119 18t23 -17q0 -6 -1 -10l-119 -561q-2 -8 -2 -22q0 -18 8 -27.5t22 -9.5q21 0 35.5 18t27.5 54q7 7 14 7q6 0 10 -4t4 -12t-4 -16q-17 -52 -52 -84.5t-78 -32.5
q-77 0 -77 81zM12 -153q0 6 7 9q33 14 36 31v2q0 6 -9 7t-15 7t-6 17q0 17 14 29.5t32 12.5q14 0 22 -8.5t8 -22.5q0 -4 -2 -16q-5 -24 -19.5 -41t-31.5 -25.5t-29 -8.5q-7 0 -7 7z" />
    <glyph glyph-name="Lcaron" unicode="&#x13d;" horiz-adv-x="593" 
d="M429 -12q-8 6 -18 9t-32 3h-271l-90 -1q-18 0 -25.5 3.5t-7.5 12.5q0 19 29 31q33 6 48 13.5t21.5 20.5t12.5 43l97 454q5 25 5 36q0 18 -11.5 26t-43.5 15q-21 9 -17 25q3 13 12 17.5t30 4.5h204q25 0 33.5 -4.5t5.5 -17.5q-3 -16 -31 -25q-39 -6 -56.5 -13.5t-25 -21
t-13.5 -42.5l-102 -476q-3 -16 -3 -26q0 -17 8.5 -22t29.5 -5h168q26 0 44 11.5t37.5 42.5t50.5 96q16 27 35 27q17 0 17 -15q0 -13 -11 -40.5t-37 -78.5q-24 -50 -37 -72.5t-20.5 -29.5t-16.5 -7t-19 6zM533 555q12 94 18 119q4 17 12.5 24.5t25.5 7.5q26 0 26 -20
q0 -7 -1 -11q-6 -28 -30 -109q-24 -86 -26 -93q-2 -6 -8 -9t-13 -3q-6 0 -11 3t-5 9z" />
    <glyph glyph-name="lcaron" unicode="&#x13e;" horiz-adv-x="309" 
d="M46 70q0 24 6 54l100 478q2 14 2 18q0 22 -20 27q-4 1 -22 4q-16 2 -22.5 4t-6.5 9q1 10 9 15t24 9q96 18 119 18t23 -17q0 -6 -1 -10l-119 -561q-2 -8 -2 -22q0 -18 8 -27.5t22 -9.5q21 0 35.5 18t27.5 54q7 7 14 7q6 0 10 -4t4 -12t-4 -16q-17 -52 -52 -84.5t-78 -32.5
q-77 0 -77 81zM324 555q12 94 18 119q4 17 12.5 24.5t25.5 7.5q26 0 26 -20q0 -7 -1 -11q-6 -28 -30 -109q-24 -86 -26 -93q-2 -6 -8 -9t-13 -3q-6 0 -11 3t-5 9z" />
    <glyph glyph-name="Ldot" unicode="&#x13f;" horiz-adv-x="593" 
d="M429 -12q-8 6 -18 9t-32 3h-271l-90 -1q-18 0 -25.5 3.5t-7.5 12.5q0 19 29 31q33 6 48 13.5t21.5 20.5t12.5 43l97 454q5 25 5 36q0 18 -11.5 26t-43.5 15q-21 9 -17 25q3 13 12 17.5t30 4.5h204q25 0 33.5 -4.5t5.5 -17.5q-3 -16 -31 -25q-39 -6 -56.5 -13.5t-25 -21
t-13.5 -42.5l-102 -476q-3 -16 -3 -26q0 -17 8.5 -22t29.5 -5h168q26 0 44 11.5t37.5 42.5t50.5 96q16 27 35 27q17 0 17 -15q0 -13 -11 -40.5t-37 -78.5q-24 -50 -37 -72.5t-20.5 -29.5t-16.5 -7t-19 6zM357.5 311.5q-9.5 8.5 -9.5 23.5q0 24 19.5 43t43.5 19q17 0 27 -9.5
t10 -24.5q0 -25 -20 -42.5t-45 -17.5q-16 0 -25.5 8.5z" />
    <glyph glyph-name="ldot" unicode="&#x140;" horiz-adv-x="322" 
d="M46 70q0 24 6 54l100 478q2 14 2 18q0 22 -20 27q-4 1 -22 4q-16 2 -22.5 4t-6.5 9q1 10 9 15t24 9q96 18 119 18t23 -17q0 -6 -1 -10l-119 -561q-2 -8 -2 -22q0 -18 8 -27.5t22 -9.5q21 0 35.5 18t27.5 54q7 7 14 7q6 0 10 -4t4 -12t-4 -16q-17 -52 -52 -84.5t-78 -32.5
q-77 0 -77 81zM287 320.5q-8 7.5 -8 18.5q0 3 2 11q5 17 19.5 28t30.5 11q13 0 21.5 -8t8.5 -20q0 -20 -16 -34t-37 -14q-13 0 -21 7.5z" />
    <glyph glyph-name="Lslash" unicode="&#x141;" horiz-adv-x="593" 
d="M570 210q0 -13 -11 -40.5t-37 -78.5q-24 -50 -37 -72.5t-20.5 -29.5t-16.5 -7t-19 6q-8 6 -18 9t-32 3h-271l-90 -1q-18 0 -25.5 3.5t-7.5 12.5q0 19 29 31q33 6 48 13.5t21.5 20.5t12.5 43l38 176l-98 -44q-13 -5 -19 -5q-8 0 -8 11q0 3 2 15q3 15 6.5 20t11.5 8l117 53
l47 220q5 25 5 36q0 18 -11.5 26t-43.5 15q-21 9 -17 25q3 13 12 17.5t30 4.5h204q25 0 33.5 -4.5t5.5 -17.5q-3 -16 -31 -25q-39 -6 -56.5 -13.5t-25 -21t-13.5 -42.5l-37 -174l85 38q15 5 19 5q6 0 6 -8q0 -3 -2 -15q-3 -16 -6.5 -22t-10.5 -9l-104 -47l-52 -244
q-3 -16 -3 -26q0 -17 8.5 -22t29.5 -5h168q26 0 44 11.5t37.5 42.5t50.5 96q16 27 35 27q17 0 17 -15z" />
    <glyph glyph-name="lslash" unicode="&#x142;" horiz-adv-x="285" 
d="M297 457q15 5 19 5q6 0 6 -8q0 -3 -2 -15q-3 -16 -6.5 -22t-10.5 -9l-114 -52l-51 -238q-2 -8 -2 -22q0 -18 8 -27.5t22 -9.5q21 0 35.5 18t27.5 54q7 7 14 7q6 0 10 -4t4 -12t-4 -16q-17 -52 -52 -84.5t-78 -32.5q-77 0 -77 81q0 24 6 54l39 188l-91 -41q-13 -5 -19 -5
q-8 0 -8 11q0 3 2 15q3 15 6.5 20t11.5 8l110 50l49 232q2 14 2 18q0 22 -20 27q-4 1 -22 4q-16 2 -22.5 4t-6.5 9q1 10 9 15t24 9q96 18 119 18t23 -17q0 -6 -1 -10l-56 -265z" />
    <glyph glyph-name="Nacute" unicode="&#x143;" horiz-adv-x="746" 
d="M-15 12q0 24 26 29q36 5 50.5 13.5t23.5 34.5t24 97l84 397q7 32 7 41q0 17 -11.5 23.5t-42.5 11.5q-12 2 -16.5 7.5t-2.5 15.5q2 11 10 15.5t27 4.5q23 -1 69 -1h48q16 0 23 -13l253 -513q5 -9 12 -9q3 0 6.5 4t4.5 11l85 402q7 32 7 41q0 17 -11.5 23.5t-42.5 11.5
q-12 2 -16.5 7.5t-3.5 15.5q3 11 11 15.5t27 4.5q19 -1 68 -1q69 0 90 1q29 0 29 -14q0 -24 -26 -29q-36 -5 -50.5 -13.5t-23.5 -34.5t-25 -97l-104 -494q-2 -11 -9 -16.5t-17 -5.5q-17 0 -24 16l-288 559q-4 5 -9 5q-3 0 -5.5 -3t-3.5 -7l-95 -451q-7 -31 -7 -41
q0 -17 11.5 -23.5t42.5 -11.5q12 -2 16.5 -7.5t3.5 -15.5q-3 -11 -11 -15.5t-27 -4.5q-26 1 -73 1q-60 0 -85 -1q-29 0 -29 14zM376 743q1 6 27.5 27.5t45 35t25.5 18.5q34 23 48 35q14 18 47 18q25 0 32.5 -4t5.5 -14q-2 -12 -50.5 -42.5t-103 -57t-66.5 -26.5
q-14 0 -11 10z" />
    <glyph glyph-name="nacute" unicode="&#x144;" horiz-adv-x="600" 
d="M376.5 10.5q-19.5 21.5 -19.5 60.5q0 20 7 53l41 173q6 26 6 45q0 33 -16.5 50t-43.5 17q-36 0 -73 -28t-66.5 -78t-42.5 -114l-12 -61q-18 -93 -19 -101q-2 -19 -17 -25.5t-62 -7.5q-11 0 -16 6.5t-2 15.5q24 97 79 357q2 14 2 19q0 22 -20 27l-23 4q-15 2 -21 4t-6 8
q0 11 8 16t24 9q96 18 120 18q23 0 23 -16q0 -3 -2 -11l-17 -81q-4 -18 2 -18q3 0 8 8q77 123 186 123q46 0 74 -28.5t28 -81.5q0 -27 -7 -55l-46 -199q-3 -12 -3 -23q0 -18 7.5 -27.5t22.5 -9.5q19 0 32.5 17.5t27.5 53.5q6 9 14 9q6 0 11 -5t5 -14q0 -6 -3 -14
q-18 -52 -51.5 -84.5t-79.5 -32.5q-40 0 -59.5 21.5zM321 540q1 12 93 95q41 39 43 41q8 12 19 15.5t31 3.5t27 -4t5 -13q-1 -12 -46.5 -47.5t-96.5 -67.5t-63 -32q-13 0 -12 9z" />
    <glyph glyph-name="uni0145" unicode="&#x145;" horiz-adv-x="746" 
d="M-15 12q0 24 26 29q36 5 50.5 13.5t23.5 34.5t24 97l84 397q7 32 7 41q0 17 -11.5 23.5t-42.5 11.5q-12 2 -16.5 7.5t-2.5 15.5q2 11 10 15.5t27 4.5q23 -1 69 -1h48q16 0 23 -13l253 -513q5 -9 12 -9q3 0 6.5 4t4.5 11l85 402q7 32 7 41q0 17 -11.5 23.5t-42.5 11.5
q-12 2 -16.5 7.5t-3.5 15.5q3 11 11 15.5t27 4.5q19 -1 68 -1q69 0 90 1q29 0 29 -14q0 -24 -26 -29q-36 -5 -50.5 -13.5t-23.5 -34.5t-25 -97l-104 -494q-2 -11 -9 -16.5t-17 -5.5q-17 0 -24 16l-288 559q-4 5 -9 5q-3 0 -5.5 -3t-3.5 -7l-95 -451q-7 -31 -7 -41
q0 -17 11.5 -23.5t42.5 -11.5q12 -2 16.5 -7.5t3.5 -15.5q-3 -11 -11 -15.5t-27 -4.5q-26 1 -73 1q-60 0 -85 -1q-29 0 -29 14zM267 -153q0 6 7 9q33 14 36 31v2q0 6 -9 7t-15 7t-6 17q0 17 14 29.5t32 12.5q14 0 22 -8.5t8 -22.5q0 -4 -2 -16q-5 -24 -19.5 -41t-31.5 -25.5
t-29 -8.5q-7 0 -7 7z" />
    <glyph glyph-name="uni0146" unicode="&#x146;" horiz-adv-x="600" 
d="M376.5 10.5q-19.5 21.5 -19.5 60.5q0 20 7 53l41 173q6 26 6 45q0 33 -16.5 50t-43.5 17q-36 0 -73 -28t-66.5 -78t-42.5 -114l-12 -61q-18 -93 -19 -101q-2 -19 -17 -25.5t-62 -7.5q-11 0 -16 6.5t-2 15.5q24 97 79 357q2 14 2 19q0 22 -20 27l-23 4q-15 2 -21 4t-6 8
q0 11 8 16t24 9q96 18 120 18q23 0 23 -16q0 -3 -2 -11l-17 -81q-4 -18 2 -18q3 0 8 8q77 123 186 123q46 0 74 -28.5t28 -81.5q0 -27 -7 -55l-46 -199q-3 -12 -3 -23q0 -18 7.5 -27.5t22.5 -9.5q19 0 32.5 17.5t27.5 53.5q6 9 14 9q6 0 11 -5t5 -14q0 -6 -3 -14
q-18 -52 -51.5 -84.5t-79.5 -32.5q-40 0 -59.5 21.5zM199 -153q0 6 7 9q33 14 36 31v2q0 6 -9 7t-15 7t-6 17q0 17 14 29.5t32 12.5q14 0 22 -8.5t8 -22.5q0 -4 -2 -16q-5 -24 -19.5 -41t-31.5 -25.5t-29 -8.5q-7 0 -7 7z" />
    <glyph glyph-name="Ncaron" unicode="&#x147;" horiz-adv-x="746" 
d="M-15 12q0 24 26 29q36 5 50.5 13.5t23.5 34.5t24 97l84 397q7 32 7 41q0 17 -11.5 23.5t-42.5 11.5q-12 2 -16.5 7.5t-2.5 15.5q2 11 10 15.5t27 4.5q23 -1 69 -1h48q16 0 23 -13l253 -513q5 -9 12 -9q3 0 6.5 4t4.5 11l85 402q7 32 7 41q0 17 -11.5 23.5t-42.5 11.5
q-12 2 -16.5 7.5t-3.5 15.5q3 11 11 15.5t27 4.5q19 -1 68 -1q69 0 90 1q29 0 29 -14q0 -24 -26 -29q-36 -5 -50.5 -13.5t-23.5 -34.5t-25 -97l-104 -494q-2 -11 -9 -16.5t-17 -5.5q-17 0 -24 16l-288 559q-4 5 -9 5q-3 0 -5.5 -3t-3.5 -7l-95 -451q-7 -31 -7 -41
q0 -17 11.5 -23.5t42.5 -11.5q12 -2 16.5 -7.5t3.5 -15.5q-3 -11 -11 -15.5t-27 -4.5q-26 1 -73 1q-60 0 -85 -1q-29 0 -29 14zM390.5 869.5q17.5 -16.5 20.5 -19.5q67 -65 74 -65t105 65q13 8 22 15q8 5 21 13t16 8q4 0 7 -3.5t3 -7.5q0 -13 -60.5 -64t-96.5 -73
q-17 -9 -28 -9t-22 9q-25 20 -62.5 69.5t-37.5 64.5q0 5 5 9.5t10 4.5q6 0 23.5 -16.5z" />
    <glyph glyph-name="ncaron" unicode="&#x148;" horiz-adv-x="600" 
d="M376.5 10.5q-19.5 21.5 -19.5 60.5q0 20 7 53l41 173q6 26 6 45q0 33 -16.5 50t-43.5 17q-36 0 -73 -28t-66.5 -78t-42.5 -114l-12 -61q-18 -93 -19 -101q-2 -19 -17 -25.5t-62 -7.5q-11 0 -16 6.5t-2 15.5q24 97 79 357q2 14 2 19q0 22 -20 27l-23 4q-15 2 -21 4t-6 8
q0 11 8 16t24 9q96 18 120 18q23 0 23 -16q0 -3 -2 -11l-17 -81q-4 -18 2 -18q3 0 8 8q77 123 186 123q46 0 74 -28.5t28 -81.5q0 -27 -7 -55l-46 -199q-3 -12 -3 -23q0 -18 7.5 -27.5t22.5 -9.5q19 0 32.5 17.5t27.5 53.5q6 9 14 9q6 0 11 -5t5 -14q0 -6 -3 -14
q-18 -52 -51.5 -84.5t-79.5 -32.5q-40 0 -59.5 21.5zM305 650q27 -28 48.5 -48t24.5 -20q4 0 35 19.5t72 48.5q51 36 58 36q5 0 8 -3t3 -8q-2 -16 -62.5 -67.5t-96.5 -72.5q-13 -8 -26 -8q-15 0 -23 8q-25 19 -62.5 71.5t-37.5 66.5q0 5 4 9t9 4q12 0 46 -36z" />
    <glyph glyph-name="Eng" unicode="&#x14a;" horiz-adv-x="746" 
d="M823 688q0 -24 -26 -29q-36 -5 -50.5 -13.5t-23.5 -34.5t-25 -97l-81 -386l-11 -49l-12 -59l-1 -5l-14 -63q-12 -56 -47.5 -89.5t-81.5 -33.5q-39 0 -61.5 18.5t-22.5 48.5q0 11 3 23q2 12 10 20t17 9q9 0 16.5 -7t11.5 -16q3 -18 7.5 -26.5t18.5 -8.5q8 0 12 1
q53 14 69 96l8 37l-283 549q-4 5 -9 5q-3 0 -5.5 -3t-3.5 -7l-95 -451q-7 -31 -7 -41q0 -17 11.5 -23.5t42.5 -11.5q12 -2 16.5 -7.5t3.5 -15.5q-3 -11 -11 -15.5t-27 -4.5q-26 1 -73 1q-60 0 -85 -1q-29 0 -29 14q0 24 26 29q36 5 50.5 13.5t23.5 34.5t24 97l84 397
q7 32 7 41q0 17 -11.5 23.5t-42.5 11.5q-12 2 -16.5 7.5t-2.5 15.5q2 11 10 15.5t27 4.5q23 -1 69 -1h48q16 0 23 -13l253 -513q5 -9 12 -9q3 0 6.5 4t4.5 11l85 402q7 32 7 41q0 17 -11.5 23.5t-42.5 11.5q-12 2 -16.5 7.5t-3.5 15.5q3 11 11 15.5t27 4.5q19 -1 68 -1
q69 0 90 1q29 0 29 -14z" />
    <glyph glyph-name="eng" unicode="&#x14b;" horiz-adv-x="537" 
d="M485.5 454.5q32.5 -28.5 32.5 -83.5q0 -18 -5 -43l-58 -272l-15 -71q-33 -156 -158 -156q-42 0 -67.5 20t-25.5 52q0 12 2 19q3 13 11.5 21t16.5 9q9 0 17 -7t11 -16q3 -18 8.5 -27.5t20.5 -9.5q7 0 11 1q24 8 40 33.5t27 77.5l12 54l53 250q5 25 5 41q0 74 -80 74
q-46 0 -91 -38.5t-65 -111.5l-29 -139q-13 -62 -20 -105q-2 -19 -17.5 -25.5t-61.5 -7.5q-11 0 -16 6.5t-2 15.5l11 44q3 12 9 36.5t10 46.5l47 219l1 12q2 14 2 19q0 22 -20 27q-5 1 -25 4q-14 2 -19.5 4t-5.5 7q0 11 8 16t24 10q91 17 120 17q23 0 23 -16q0 -3 -2 -11
l-7 -37l1 2q-6 -30 -6 -34q0 -8 19.5 19.5t60 54.5t104.5 27q56 0 88.5 -28.5z" />
    <glyph glyph-name="Omacron" unicode="&#x14c;" horiz-adv-x="731" 
d="M173.5 21.5q-59.5 32.5 -92.5 93t-33 141.5q0 31 4 58q12 104 68 195t146 146.5t199 55.5q80 0 140 -32.5t93 -92t33 -140.5q0 -30 -4 -57q-12 -105 -68 -197t-146.5 -147.5t-200.5 -55.5q-79 0 -138.5 32.5zM460 90.5q64 50.5 107 132.5t56 173q5 33 5 59q0 91 -46 148
t-128 57q-72 0 -135.5 -50.5t-106.5 -132t-56 -171.5q-5 -35 -5 -61q0 -91 45.5 -148t127.5 -57q72 0 136 50.5zM336.5 754q-3.5 2 -3.5 6t5 16q1 2 6 9.5t9.5 10.5t11.5 3l118 -1l111 1q10 0 10 -7q0 -6 -6 -16q-6 -14 -11.5 -19.5t-16.5 -5.5q-69 1 -222 1q-8 0 -11.5 2z
" />
    <glyph glyph-name="omacron" unicode="&#x14d;" horiz-adv-x="505" 
d="M74.5 40.5q-48.5 50.5 -48.5 139.5q0 53 27 124.5t88 125t157 53.5q86 0 134 -50.5t48 -139.5q0 -54 -26.5 -125t-87 -124.5t-155.5 -53.5q-88 0 -136.5 50.5zM311.5 81.5q37.5 47.5 57 112.5t19.5 113q0 61 -25.5 96.5t-77.5 35.5q-53 0 -91 -47.5t-57 -112t-19 -111.5
q0 -63 25.5 -98.5t77.5 -35.5q53 0 90.5 47.5zM211.5 585q-3.5 2 -3.5 6t5 16q1 2 6 9.5t9.5 10.5t11.5 3l118 -1l111 1q10 0 10 -7q0 -6 -6 -16q-6 -14 -11.5 -19.5t-16.5 -5.5q-69 1 -222 1q-8 0 -11.5 2z" />
    <glyph glyph-name="Obreve" unicode="&#x14e;" horiz-adv-x="731" 
d="M173.5 21.5q-59.5 32.5 -92.5 93t-33 141.5q0 31 4 58q12 104 68 195t146 146.5t199 55.5q80 0 140 -32.5t93 -92t33 -140.5q0 -30 -4 -57q-12 -105 -68 -197t-146.5 -147.5t-200.5 -55.5q-79 0 -138.5 32.5zM460 90.5q64 50.5 107 132.5t56 173q5 33 5 59q0 91 -46 148
t-128 57q-72 0 -135.5 -50.5t-106.5 -132t-56 -171.5q-5 -35 -5 -61q0 -91 45.5 -148t127.5 -57q72 0 136 50.5zM368 760.5q-33 30.5 -33 82.5q0 13 1 20q3 16 14 16q7 0 10 -11q5 -40 32.5 -64.5t74.5 -24.5q45 0 82 22t59 64q10 14 20 14q14 0 9 -16q-17 -58 -66 -95.5
t-113 -37.5q-57 0 -90 30.5z" />
    <glyph glyph-name="obreve" unicode="&#x14f;" horiz-adv-x="505" 
d="M74.5 40.5q-48.5 50.5 -48.5 139.5q0 53 27 124.5t88 125t157 53.5q86 0 134 -50.5t48 -139.5q0 -54 -26.5 -125t-87 -124.5t-155.5 -53.5q-88 0 -136.5 50.5zM311.5 81.5q37.5 47.5 57 112.5t19.5 113q0 61 -25.5 96.5t-77.5 35.5q-53 0 -91 -47.5t-57 -112t-19 -111.5
q0 -63 25.5 -98.5t77.5 -35.5q53 0 90.5 47.5zM237 563.5q-33 30.5 -33 82.5q0 13 1 20q3 16 14 16q7 0 10 -11q5 -40 32.5 -64.5t74.5 -24.5q45 0 82 22t59 64q10 14 20 14q14 0 9 -16q-17 -58 -66 -95.5t-113 -37.5q-57 0 -90 30.5z" />
    <glyph glyph-name="Ohungarumlaut" unicode="&#x150;" horiz-adv-x="731" 
d="M173.5 21.5q-59.5 32.5 -92.5 93t-33 141.5q0 31 4 58q12 104 68 195t146 146.5t199 55.5q80 0 140 -32.5t93 -92t33 -140.5q0 -30 -4 -57q-12 -105 -68 -197t-146.5 -147.5t-200.5 -55.5q-79 0 -138.5 32.5zM460 90.5q64 50.5 107 132.5t56 173q5 33 5 59q0 91 -46 148
t-128 57q-72 0 -135.5 -50.5t-106.5 -132t-56 -171.5q-5 -35 -5 -61q0 -91 45.5 -148t127.5 -57q72 0 136 50.5zM356 737q0 6 11 18l35 35q42 40 57 58q9 12 21 15.5t31 3.5q11 0 17 -3.5t6 -8.5q0 -4 -7 -15q-12 -16 -47 -42.5t-69 -46.5t-45 -20q-10 0 -10 6zM500 736
q0 6 12 19q74 74 91 93q9 12 21.5 15.5t30.5 3.5q23 0 23 -12q0 -6 -6 -15q-12 -16 -47 -42t-69.5 -46.5t-45.5 -20.5q-10 0 -10 5z" />
    <glyph glyph-name="ohungarumlaut" unicode="&#x151;" horiz-adv-x="505" 
d="M74.5 40.5q-48.5 50.5 -48.5 139.5q0 53 27 124.5t88 125t157 53.5q86 0 134 -50.5t48 -139.5q0 -54 -26.5 -125t-87 -124.5t-155.5 -53.5q-88 0 -136.5 50.5zM311.5 81.5q37.5 47.5 57 112.5t19.5 113q0 61 -25.5 96.5t-77.5 35.5q-53 0 -91 -47.5t-57 -112t-19 -111.5
q0 -63 25.5 -98.5t77.5 -35.5q53 0 90.5 47.5zM228 537q0 5 4 10q72 88 98 127q8 12 16.5 16t27.5 4q32 0 30 -14q-2 -13 -38.5 -49t-77.5 -68.5t-50 -32.5q-10 0 -10 7zM372 537q0 2 4 10q72 87 99 127q8 12 16.5 16t27.5 4q32 0 30 -14q-2 -13 -39 -49t-77.5 -68.5
t-50.5 -32.5t-10 7z" />
    <glyph glyph-name="OE" unicode="&#x152;" horiz-adv-x="976" 
d="M804.5 -12.5q-7.5 5.5 -16.5 9t-31 3.5l-356 -1q-47 -10 -89 -10q-80 0 -140 33t-93 94t-33 143q0 46 10 93q21 101 80 183t145 129t185 47q42 0 84 -10l316 -1q31 0 51 11q12 7 23 7q10 0 14.5 -7t7 -29t6.5 -75q4 -60 4 -72q0 -35 -7 -47.5t-23 -12.5q-20 0 -25 26
q-7 75 -12.5 104t-17 38.5t-39.5 9.5h-162q-20 0 -29.5 -3.5t-15 -14.5t-10.5 -35l-37 -176q-3 -9 -3 -16q0 -15 19 -15h96q17 0 24.5 5t10 18.5t1.5 41.5q2 16 7 23.5t17 7.5t17 -7t7 -28.5t5 -80.5l2 -68q0 -33 -5.5 -44t-20.5 -11q-11 0 -15.5 5.5t-6.5 18.5
q-2 34 -4.5 48t-9.5 19t-23 5h-107q-17 0 -24 -8.5t-12 -29.5l-46 -216q-3 -16 -3 -25q0 -12 8 -16t31 -4h205q26 0 43.5 11.5t35.5 42t51 97.5q8 16 16 21.5t18 5.5q18 0 18 -16q0 -12 -11 -39t-36 -77q-26 -53 -38.5 -75t-20.5 -29t-18 -7t-17.5 5.5zM437 123l97 454
q3 14 3 25q0 60 -81 60q-65 0 -125 -38t-104.5 -108t-64.5 -164q-12 -55 -12 -103q0 -97 45 -154t128 -57q95 0 114 85z" />
    <glyph glyph-name="oe" unicode="&#x153;" horiz-adv-x="795" 
d="M474 186q0 -64 27 -100t84 -36q46 0 79 19t65 53q8 8 18 8q5 0 9 -4t4 -10q0 -7 -4 -12q-33 -52 -83.5 -83.5t-114.5 -31.5q-56 0 -96 24t-60 66q-73 -89 -191 -89q-88 0 -136.5 50.5t-48.5 139.5q0 53 27 124.5t88 125t157 53.5q59 0 100.5 -24.5t62.5 -69.5
q37 44 88 69t110 25q56 0 90.5 -33.5t34.5 -78.5q0 -49 -28 -82.5t-93 -55.5t-177 -34q-12 0 -12 -13zM476 242q0 -11 15 -8q65 10 108.5 20.5t80 37.5t37.5 73q0 33 -18 55t-54 22q-48 0 -84.5 -31.5t-58 -77t-26.5 -88.5v-3zM311.5 81.5q37.5 47.5 57 112.5t19.5 113
q0 61 -25.5 96.5t-77.5 35.5q-53 0 -91 -47.5t-57 -112t-19 -111.5q0 -63 25.5 -98.5t77.5 -35.5q53 0 90.5 47.5z" />
    <glyph glyph-name="Racute" unicode="&#x154;" horiz-adv-x="707" 
d="M-7 2q-7 3 -7 11q0 23 28 33q32 7 47 14t21.5 19t11.5 37l99 467q5 22 5 32q0 16 -11 24t-42 16q-11 5 -15.5 11t-2.5 16q2 11 10 15.5t27 4.5q16 -1 53 -1l101 1q70 2 103 2q242 0 242 -163q0 -70 -49 -130.5t-151 -87.5q-6 -2 -7.5 -5.5t3.5 -5.5q45 -21 61 -59
t23 -110q5 -58 14.5 -79.5t37.5 -21.5q17 0 27 6t19 15.5t14 9.5q8 0 8 -9q0 -14 -13 -31t-39.5 -29.5t-64.5 -12.5q-42 0 -63.5 18t-28.5 46.5t-8 73.5q-2 85 -28.5 128.5t-90.5 43.5h-63q-23 0 -32.5 -8t-14.5 -33l-30 -143q-5 -22 -5 -31q0 -16 11 -24.5t42 -16.5
q10 -4 15 -9.5t4 -15.5q-3 -11 -11 -16.5t-27 -5.5q-22 1 -99 1h-101q-16 0 -23 3zM341 347q75 0 123.5 27t71 67.5t22.5 82.5q0 66 -38 98.5t-117 32.5h-59q-24 0 -36 -10.5t-18 -39.5l-46 -214q-2 -8 -2 -20t7.5 -18t26.5 -6h65zM332 743q1 6 27.5 27.5t45 35t25.5 18.5
q34 23 48 35q14 18 47 18q25 0 32.5 -4t5.5 -14q-2 -12 -50.5 -42.5t-103 -57t-66.5 -26.5q-14 0 -11 10z" />
    <glyph glyph-name="racute" unicode="&#x155;" horiz-adv-x="448" 
d="M42 0.5q-5 6.5 -2 15.5q16 64 26 107l5 20l49 229q2 8 2 21q0 25 -20 26q-30 3 -40.5 5.5t-10.5 11.5q0 10 9.5 15.5t28.5 9.5q91 17 114 17q24 0 24 -17q0 -3 -2 -11l-19 -86q-4 -16 2 -16q2 0 5 2.5t5 6.5q33 56 77 91t87 35q40 0 61.5 -26t21.5 -66q0 -43 -15 -64
t-38 -21q-26 0 -31 26q0 5 0.5 27t-10 35t-32.5 13q-31 0 -66 -28.5t-63.5 -78t-41.5 -111.5l-8 -41q-19 -94 -23 -121q-2 -19 -17 -25.5t-62 -7.5q-11 0 -16 6.5zM225 540q1 12 93 95q41 39 43 41q8 12 19 15.5t31 3.5t27 -4t5 -13q-1 -12 -46.5 -47.5t-96.5 -67.5t-63 -32
q-13 0 -12 9z" />
    <glyph glyph-name="uni0156" unicode="&#x156;" horiz-adv-x="707" 
d="M-7 2q-7 3 -7 11q0 23 28 33q32 7 47 14t21.5 19t11.5 37l99 467q5 22 5 32q0 16 -11 24t-42 16q-11 5 -15.5 11t-2.5 16q2 11 10 15.5t27 4.5q16 -1 53 -1l101 1q70 2 103 2q242 0 242 -163q0 -70 -49 -130.5t-151 -87.5q-6 -2 -7.5 -5.5t3.5 -5.5q45 -21 61 -59
t23 -110q5 -58 14.5 -79.5t37.5 -21.5q17 0 27 6t19 15.5t14 9.5q8 0 8 -9q0 -14 -13 -31t-39.5 -29.5t-64.5 -12.5q-42 0 -63.5 18t-28.5 46.5t-8 73.5q-2 85 -28.5 128.5t-90.5 43.5h-63q-23 0 -32.5 -8t-14.5 -33l-30 -143q-5 -22 -5 -31q0 -16 11 -24.5t42 -16.5
q10 -4 15 -9.5t4 -15.5q-3 -11 -11 -16.5t-27 -5.5q-22 1 -99 1h-101q-16 0 -23 3zM341 347q75 0 123.5 27t71 67.5t22.5 82.5q0 66 -38 98.5t-117 32.5h-59q-24 0 -36 -10.5t-18 -39.5l-46 -214q-2 -8 -2 -20t7.5 -18t26.5 -6h65zM270 -153q0 6 7 9q33 14 36 31v2q0 6 -9 7
t-15 7t-6 17q0 17 14 29.5t32 12.5q14 0 22 -8.5t8 -22.5q0 -4 -2 -16q-5 -24 -19.5 -41t-31.5 -25.5t-29 -8.5q-7 0 -7 7z" />
    <glyph glyph-name="uni0157" unicode="&#x157;" horiz-adv-x="448" 
d="M42 0.5q-5 6.5 -2 15.5q16 64 26 107l5 20l49 229q2 8 2 21q0 25 -20 26q-30 3 -40.5 5.5t-10.5 11.5q0 10 9.5 15.5t28.5 9.5q91 17 114 17q24 0 24 -17q0 -3 -2 -11l-19 -86q-4 -16 2 -16q2 0 5 2.5t5 6.5q33 56 77 91t87 35q40 0 61.5 -26t21.5 -66q0 -43 -15 -64
t-38 -21q-26 0 -31 26q0 5 0.5 27t-10 35t-32.5 13q-31 0 -66 -28.5t-63.5 -78t-41.5 -111.5l-8 -41q-19 -94 -23 -121q-2 -19 -17 -25.5t-62 -7.5q-11 0 -16 6.5zM33 -153q0 6 7 9q33 14 36 31v2q0 6 -9 7t-15 7t-6 17q0 17 14 29.5t32 12.5q14 0 22 -8.5t8 -22.5
q0 -4 -2 -16q-5 -24 -19.5 -41t-31.5 -25.5t-29 -8.5q-7 0 -7 7z" />
    <glyph glyph-name="Rcaron" unicode="&#x158;" horiz-adv-x="707" 
d="M-7 2q-7 3 -7 11q0 23 28 33q32 7 47 14t21.5 19t11.5 37l99 467q5 22 5 32q0 16 -11 24t-42 16q-11 5 -15.5 11t-2.5 16q2 11 10 15.5t27 4.5q16 -1 53 -1l101 1q70 2 103 2q242 0 242 -163q0 -70 -49 -130.5t-151 -87.5q-6 -2 -7.5 -5.5t3.5 -5.5q45 -21 61 -59
t23 -110q5 -58 14.5 -79.5t37.5 -21.5q17 0 27 6t19 15.5t14 9.5q8 0 8 -9q0 -14 -13 -31t-39.5 -29.5t-64.5 -12.5q-42 0 -63.5 18t-28.5 46.5t-8 73.5q-2 85 -28.5 128.5t-90.5 43.5h-63q-23 0 -32.5 -8t-14.5 -33l-30 -143q-5 -22 -5 -31q0 -16 11 -24.5t42 -16.5
q10 -4 15 -9.5t4 -15.5q-3 -11 -11 -16.5t-27 -5.5q-22 1 -99 1h-101q-16 0 -23 3zM341 347q75 0 123.5 27t71 67.5t22.5 82.5q0 66 -38 98.5t-117 32.5h-59q-24 0 -36 -10.5t-18 -39.5l-46 -214q-2 -8 -2 -20t7.5 -18t26.5 -6h65zM347.5 869.5q17.5 -16.5 20.5 -19.5
q67 -65 74 -65t105 65q13 8 22 15q8 5 21 13t16 8q4 0 7 -3.5t3 -7.5q0 -13 -60.5 -64t-96.5 -73q-17 -9 -28 -9t-22 9q-25 20 -62.5 69.5t-37.5 64.5q0 5 5 9.5t10 4.5q6 0 23.5 -16.5z" />
    <glyph glyph-name="rcaron" unicode="&#x159;" horiz-adv-x="448" 
d="M42 0.5q-5 6.5 -2 15.5q16 64 26 107l5 20l49 229q2 8 2 21q0 25 -20 26q-30 3 -40.5 5.5t-10.5 11.5q0 10 9.5 15.5t28.5 9.5q91 17 114 17q24 0 24 -17q0 -3 -2 -11l-19 -86q-4 -16 2 -16q2 0 5 2.5t5 6.5q33 56 77 91t87 35q40 0 61.5 -26t21.5 -66q0 -43 -15 -64
t-38 -21q-26 0 -31 26q0 5 0.5 27t-10 35t-32.5 13q-31 0 -66 -28.5t-63.5 -78t-41.5 -111.5l-8 -41q-19 -94 -23 -121q-2 -19 -17 -25.5t-62 -7.5q-11 0 -16 6.5zM209 650q27 -28 48.5 -48t24.5 -20q4 0 35 19.5t72 48.5q51 36 58 36q5 0 8 -3t3 -8q-2 -16 -62.5 -67.5
t-96.5 -72.5q-13 -8 -26 -8q-15 0 -23 8q-25 19 -62.5 71.5t-37.5 66.5q0 5 4 9t9 4q12 0 46 -36z" />
    <glyph glyph-name="Sacute" unicode="&#x15a;" horiz-adv-x="575" 
d="M79.5 32q-67.5 43 -67.5 119q0 34 12 60t39 26q16 0 23.5 -10t8.5 -23.5t2 -46.5q1 -56 38.5 -86t113.5 -30q53 0 90.5 20.5t56 53.5t18.5 70q0 48 -35 83t-108 64q-84 34 -121 76.5t-37 104.5q0 89 61.5 143.5t170.5 54.5q66 0 119.5 -21t84 -59.5t30.5 -88.5
q0 -33 -12 -53.5t-39 -20.5q-15 0 -21 9t-7 21.5t-2 45.5q-1 54 -40.5 85t-104.5 31t-102 -32t-37 -93q0 -42 29.5 -69.5t102.5 -56.5q96 -39 139.5 -86t43.5 -116q0 -53 -29.5 -103t-90 -82.5t-149.5 -32.5q-113 0 -180.5 43zM254 743q1 6 27.5 27.5t45 35t25.5 18.5
q34 23 48 35q14 18 47 18q25 0 32.5 -4t5.5 -14q-2 -12 -50.5 -42.5t-103 -57t-66.5 -26.5q-14 0 -11 10z" />
    <glyph glyph-name="sacute" unicode="&#x15b;" horiz-adv-x="441" 
d="M58.5 25.5q-52.5 36.5 -52.5 93.5q0 21 10 37t28 16q19 0 26 -10t10 -24.5t5 -21.5q5 -43 32.5 -63t80.5 -20q48 0 75 22t27 56q0 30 -23.5 53.5t-76.5 47.5q-68 32 -95.5 64t-27.5 72q0 60 46.5 97.5t121.5 37.5q72 0 125 -33t53 -91q0 -19 -10 -33.5t-28 -14.5
t-24.5 8.5t-10 22.5l-5.5 22q-12 75 -94 75q-37 0 -64.5 -20.5t-27.5 -51.5q0 -26 20.5 -45.5t71.5 -43.5q76 -36 107 -71t31 -79q0 -64 -51.5 -101.5t-131.5 -37.5q-95 0 -147.5 36.5zM214 540q1 12 93 95q41 39 43 41q8 12 19 15.5t31 3.5t27 -4t5 -13q-1 -12 -46.5 -47.5
t-96.5 -67.5t-63 -32q-13 0 -12 9z" />
    <glyph glyph-name="Scircumflex" unicode="&#x15c;" horiz-adv-x="575" 
d="M79.5 32q-67.5 43 -67.5 119q0 34 12 60t39 26q16 0 23.5 -10t8.5 -23.5t2 -46.5q1 -56 38.5 -86t113.5 -30q53 0 90.5 20.5t56 53.5t18.5 70q0 48 -35 83t-108 64q-84 34 -121 76.5t-37 104.5q0 89 61.5 143.5t170.5 54.5q66 0 119.5 -21t84 -59.5t30.5 -88.5
q0 -33 -12 -53.5t-39 -20.5q-15 0 -21 9t-7 21.5t-2 45.5q-1 54 -40.5 85t-104.5 31t-102 -32t-37 -93q0 -42 29.5 -69.5t102.5 -56.5q96 -39 139.5 -86t43.5 -116q0 -53 -29.5 -103t-90 -82.5t-149.5 -32.5q-113 0 -180.5 43zM210.5 737q-3.5 4 -2.5 8q1 13 62 64.5
t96 71.5q18 9 27 9t22 -9q25 -19 62.5 -68.5t37.5 -66.5q0 -4 -5 -8.5t-10 -4.5q-7 0 -43 36q-69 64 -76 64q-6 0 -104 -64q-21 -15 -38 -25.5t-21 -10.5t-7.5 4z" />
    <glyph glyph-name="scircumflex" unicode="&#x15d;" horiz-adv-x="441" 
d="M58.5 25.5q-52.5 36.5 -52.5 93.5q0 21 10 37t28 16q19 0 26 -10t10 -24.5t5 -21.5q5 -43 32.5 -63t80.5 -20q48 0 75 22t27 56q0 30 -23.5 53.5t-76.5 47.5q-68 32 -95.5 64t-27.5 72q0 60 46.5 97.5t121.5 37.5q72 0 125 -33t53 -91q0 -19 -10 -33.5t-28 -14.5
t-24.5 8.5t-10 22.5l-5.5 22q-12 75 -94 75q-37 0 -64.5 -20.5t-27.5 -51.5q0 -26 20.5 -45.5t71.5 -43.5q76 -36 107 -71t31 -79q0 -64 -51.5 -101.5t-131.5 -37.5q-95 0 -147.5 36.5zM113 534.5q-3 3.5 -3 6.5q0 15 60.5 67.5t97.5 73.5q15 8 27 8q10 0 23 -8
q24 -19 62 -71t38 -68q0 -4 -4.5 -8t-10.5 -4q-5 0 -18.5 11.5t-25.5 24.5q-68 68 -76 68q-3 0 -35 -20.5t-69 -47.5q-20 -15 -37.5 -25.5t-20.5 -10.5q-5 0 -8 3.5z" />
    <glyph glyph-name="Scedilla" unicode="&#x15e;" horiz-adv-x="575" 
d="M251 628q-37 -32 -37 -93q0 -42 29.5 -69.5t102.5 -56.5q96 -39 139.5 -86t43.5 -116q0 -51 -26.5 -99t-82 -81t-136.5 -37l-20 -35q41 -1 66 -16t25 -43q0 -39 -31 -61t-82 -22q-35 0 -58 11t-32 28q-1 2 -1 6q0 5 3 8t7 3q5 0 9 -4q26 -18 68 -18q32 0 51.5 12t19.5 36
q0 38 -71 38q-19 0 -19 12q0 11 21 44q-105 4 -166.5 46.5t-61.5 115.5q0 34 12 60t39 26q16 0 23.5 -10t8.5 -23.5t2 -46.5q1 -56 38.5 -86t113.5 -30q53 0 90.5 20.5t56 53.5t18.5 70q0 48 -35 83t-108 64q-84 34 -121 76.5t-37 104.5q0 89 61.5 143.5t170.5 54.5
q66 0 119.5 -21t84 -59.5t30.5 -88.5q0 -33 -12 -53.5t-39 -20.5q-15 0 -21 9t-7 21.5t-2 45.5q-1 54 -40.5 85t-104.5 31t-102 -32z" />
    <glyph glyph-name="scedilla" unicode="&#x15f;" horiz-adv-x="441" 
d="M186.5 418.5q-27.5 -20.5 -27.5 -51.5q0 -26 20.5 -45.5t71.5 -43.5q76 -36 107 -71t31 -79q0 -64 -51.5 -101.5t-131.5 -37.5q-14 0 -36 2l-21 -36q41 -1 66 -16t25 -43q0 -39 -31 -61t-82 -22q-35 0 -58 11t-32 28q-1 2 -1 6q0 5 3 8t7 3q5 0 9 -4q26 -18 68 -18
q32 0 51.5 12t19.5 36q0 38 -71 38q-19 0 -19 12q0 13 26 52q-60 13 -92 45.5t-32 76.5q0 21 10 37t28 16q19 0 26 -10t10 -24.5t5 -21.5q5 -43 32.5 -63t80.5 -20q48 0 75 22t27 56q0 30 -23.5 53.5t-76.5 47.5q-68 32 -95.5 64t-27.5 72q0 60 46.5 97.5t121.5 37.5
q72 0 125 -33t53 -91q0 -19 -10 -33.5t-28 -14.5t-24.5 8.5t-10 22.5l-5.5 22q-12 75 -94 75q-37 0 -64.5 -20.5z" />
    <glyph glyph-name="Scaron" unicode="&#x160;" horiz-adv-x="575" 
d="M79.5 32q-67.5 43 -67.5 119q0 34 12 60t39 26q16 0 23.5 -10t8.5 -23.5t2 -46.5q1 -56 38.5 -86t113.5 -30q53 0 90.5 20.5t56 53.5t18.5 70q0 48 -35 83t-108 64q-84 34 -121 76.5t-37 104.5q0 89 61.5 143.5t170.5 54.5q66 0 119.5 -21t84 -59.5t30.5 -88.5
q0 -33 -12 -53.5t-39 -20.5q-15 0 -21 9t-7 21.5t-2 45.5q-1 54 -40.5 85t-104.5 31t-102 -32t-37 -93q0 -42 29.5 -69.5t102.5 -56.5q96 -39 139.5 -86t43.5 -116q0 -53 -29.5 -103t-90 -82.5t-149.5 -32.5q-113 0 -180.5 43zM269.5 869.5q17.5 -16.5 20.5 -19.5
q67 -65 74 -65t105 65q13 8 22 15q8 5 21 13t16 8q4 0 7 -3.5t3 -7.5q0 -13 -60.5 -64t-96.5 -73q-17 -9 -28 -9t-22 9q-25 20 -62.5 69.5t-37.5 64.5q0 5 5 9.5t10 4.5q6 0 23.5 -16.5z" />
    <glyph glyph-name="scaron" unicode="&#x161;" horiz-adv-x="441" 
d="M58.5 25.5q-52.5 36.5 -52.5 93.5q0 21 10 37t28 16q19 0 26 -10t10 -24.5t5 -21.5q5 -43 32.5 -63t80.5 -20q48 0 75 22t27 56q0 30 -23.5 53.5t-76.5 47.5q-68 32 -95.5 64t-27.5 72q0 60 46.5 97.5t121.5 37.5q72 0 125 -33t53 -91q0 -19 -10 -33.5t-28 -14.5
t-24.5 8.5t-10 22.5l-5.5 22q-12 75 -94 75q-37 0 -64.5 -20.5t-27.5 -51.5q0 -26 20.5 -45.5t71.5 -43.5q76 -36 107 -71t31 -79q0 -64 -51.5 -101.5t-131.5 -37.5q-95 0 -147.5 36.5zM197 650q27 -28 48.5 -48t24.5 -20q4 0 35 19.5t72 48.5q51 36 58 36q5 0 8 -3t3 -8
q-2 -16 -62.5 -67.5t-96.5 -72.5q-13 -8 -26 -8q-15 0 -23 8q-25 19 -62.5 71.5t-37.5 66.5q0 5 4 9t9 4q12 0 46 -36z" />
    <glyph glyph-name="uni0162" unicode="&#x162;" horiz-adv-x="629" 
d="M672 526q0 -32 -6 -44.5t-23 -12.5q-12 0 -18 9.5t-11 33.5q-5 67 -9.5 93.5t-14.5 37t-33 10.5h-68q-26 0 -35 -10.5t-15 -43.5l-101 -472q-5 -27 -5 -38q0 -20 14.5 -28t58.5 -15q14 -5 20 -11t3 -14q-2 -11 -12.5 -16.5t-35.5 -5.5h-87l-25 -44q41 -1 66 -16t25 -43
q0 -39 -31 -61t-82 -22q-35 0 -58 11t-32 28q-1 2 -1 6q0 5 3 8t7 3q5 0 9 -4q26 -18 68 -18q32 0 51.5 12t19.5 36q0 38 -71 38q-19 0 -19 12t27 54h-101q-24 0 -33.5 3.5t-9.5 13.5q0 18 35 30q42 6 61 13.5t26.5 20.5t13.5 43l101 476q5 22 5 32q0 12 -7 17t-25 5h-67
q-24 0 -39 -10.5t-30.5 -37t-48.5 -93.5q-14 -24 -24 -33.5t-23 -9.5q-18 0 -18 16q0 14 10.5 38.5t38.5 83.5q32 67 47 89t30 22q7 0 12.5 -2.5t7.5 -3.5q9 -6 19 -9t29 -3h300q22 0 34.5 3t24.5 9t20 6q11 0 16 -7.5t7.5 -30t5.5 -73.5t3 -81z" />
    <glyph glyph-name="uni0163" unicode="&#x163;" horiz-adv-x="366" 
d="M375 472q9 0 12.5 -2t3.5 -8q0 -15 -10 -24.5t-24 -9.5h-123q-22 0 -27 -20l-52 -247q-5 -25 -5 -40q0 -34 16.5 -51t46.5 -17q26 0 55 14t54 44q10 10 18 10q5 0 8 -3.5t3 -8.5q0 -4 -3 -10q-56 -99 -156 -108l-21 -36q41 -1 66 -16t25 -43q0 -39 -31 -61t-82 -22
q-35 0 -58 11t-32 28q-1 2 -1 6q0 5 3 8t7 3q5 0 9 -4q26 -18 68 -18q32 0 51.5 12t19.5 36q0 38 -71 38q-19 0 -19 12t22 46q-90 10 -90 103q0 25 6 55l55 260l1 6q0 13 -18 13h-14q-15 0 -15 15q0 12 16 31.5t46 47.5q37 36 60 55t37 19q13 0 13 -13q0 -8 -1 -13l-14 -64
q-4 -24 -4 -25q0 -6 2 -7.5t8 -1.5h139z" />
    <glyph glyph-name="Tcaron" unicode="&#x164;" horiz-adv-x="629" 
d="M116.5 2.5q-9.5 3.5 -9.5 13.5q0 18 35 30q42 6 61 13.5t26.5 20.5t13.5 43l101 476q5 22 5 32q0 12 -7 17t-25 5h-67q-24 0 -39 -10.5t-30.5 -37t-48.5 -93.5q-14 -24 -24 -33.5t-23 -9.5q-18 0 -18 16q0 14 10.5 38.5t38.5 83.5q32 67 47 89t30 22q7 0 12.5 -2.5
t7.5 -3.5q9 -6 19 -9t29 -3h300q22 0 34.5 3t24.5 9t20 6q11 0 16 -7.5t7.5 -30t5.5 -73.5t3 -81q0 -32 -6 -44.5t-23 -12.5q-12 0 -18 9.5t-11 33.5q-5 67 -9.5 93.5t-14.5 37t-33 10.5h-68q-26 0 -35 -10.5t-15 -43.5l-101 -472q-5 -27 -5 -38q0 -20 14.5 -28t58.5 -15
q14 -5 20 -11t3 -14q-2 -11 -12.5 -16.5t-35.5 -5.5h-231q-24 0 -33.5 3.5zM336.5 869.5q17.5 -16.5 20.5 -19.5q67 -65 74 -65t105 65q13 8 22 15q8 5 21 13t16 8q4 0 7 -3.5t3 -7.5q0 -13 -60.5 -64t-96.5 -73q-17 -9 -28 -9t-22 9q-25 20 -62.5 69.5t-37.5 64.5
q0 5 5 9.5t10 4.5q6 0 23.5 -16.5z" />
    <glyph glyph-name="tcaron" unicode="&#x165;" horiz-adv-x="366" 
d="M58 94q0 25 6 55l55 260l1 6q0 13 -18 13h-14q-15 0 -15 15q0 12 16 31.5t46 47.5q37 36 60 55t37 19q13 0 13 -13q0 -8 -1 -13l-14 -64q-4 -24 -4 -25q0 -6 2 -7.5t8 -1.5h139q9 0 12.5 -2t3.5 -8q0 -15 -10 -24.5t-24 -9.5h-123q-22 0 -27 -20l-52 -247q-5 -25 -5 -40
q0 -34 16.5 -51t46.5 -17q26 0 55 14t54 44q10 10 18 10q5 0 8 -3.5t3 -8.5q0 -4 -3 -10q-62 -109 -179 -109q-111 0 -111 104zM332 628q12 94 18 119q4 17 12.5 24.5t25.5 7.5q26 0 26 -20q0 -7 -1 -11q-6 -28 -30 -109q-24 -86 -26 -93q-2 -6 -8 -9t-13 -3q-6 0 -11 3
t-5 9z" />
    <glyph glyph-name="Tbar" unicode="&#x166;" horiz-adv-x="629" 
d="M672 526q0 -32 -6 -44.5t-23 -12.5q-12 0 -18 9.5t-11 33.5q-5 67 -9.5 93.5t-14.5 37t-33 10.5h-68q-26 0 -35 -10.5t-15 -43.5l-48 -222q2 -9 9 -9h110q16 0 16 -15q0 -28 -25 -28h-110q-10 0 -13 -12l-1 -2l-39 -184q-5 -27 -5 -38q0 -20 14.5 -28t58.5 -15
q14 -5 20 -11t3 -14q-2 -11 -12.5 -16.5t-35.5 -5.5h-231q-24 0 -33.5 3.5t-9.5 13.5q0 18 35 30q42 6 61 13.5t26.5 20.5t13.5 43l38 181l2 8l1 4q0 8 -10 8h-109q-15 0 -15 14q0 15 6.5 23t17.5 8h109q12 0 15 14v1l46 215q5 22 5 32q0 12 -7 17t-25 5h-67
q-24 0 -39 -10.5t-30.5 -37t-48.5 -93.5q-14 -24 -24 -33.5t-23 -9.5q-18 0 -18 16q0 14 10.5 38.5t38.5 83.5q32 67 47 89t30 22q7 0 12.5 -2.5t7.5 -3.5q9 -6 19 -9t29 -3h300q22 0 34.5 3t24.5 9t20 6q11 0 16 -7.5t7.5 -30t5.5 -73.5t3 -81z" />
    <glyph glyph-name="tbar" unicode="&#x167;" horiz-adv-x="366" 
d="M375 472q9 0 12.5 -2t3.5 -8q0 -15 -10 -24.5t-24 -9.5h-123q-22 0 -27 -20l-23 -110h114q10 0 10 -6t-6 -16q-6 -14 -12 -19.5t-17 -5.5l-99 1l-19 -91q-5 -25 -5 -40q0 -34 16.5 -51t46.5 -17q26 0 55 14t54 44q10 10 18 10q5 0 8 -3.5t3 -8.5q0 -4 -3 -10
q-62 -109 -179 -109q-111 0 -111 104q0 25 6 55l22 103q-18 -1 -51 -1q-16 0 -16 8q0 4 7 16q6 13 11.5 18.5t15.5 5.5h43l23 110l1 6q0 13 -18 13h-14q-15 0 -15 15q0 12 16 31.5t46 47.5q37 36 60 55t37 19q13 0 13 -13q0 -8 -1 -13l-14 -64q-4 -24 -4 -25q0 -6 2 -7.5
t8 -1.5h139z" />
    <glyph glyph-name="Utilde" unicode="&#x168;" horiz-adv-x="740" 
d="M92 168q0 36 9 76l69 323q6 29 6 44q0 20 -11 28.5t-42 14.5q-17 6 -17 22q0 25 40 25l196 -1q17 0 25 -3.5t8 -11.5q0 -22 -28 -31q-33 -7 -48 -14t-22 -20.5t-13 -42.5l-69 -326q-7 -31 -7 -62q0 -68 41.5 -103.5t123.5 -35.5q96 0 158 49t81 139l68 316q9 47 9 58
q0 21 -11.5 28.5t-42.5 12.5q-17 7 -17 22q0 25 42 25h71q47 0 79 1q32 0 32 -17q0 -19 -27 -30q-32 -5 -46.5 -13t-23.5 -26.5t-18 -60.5l-65 -307q-28 -129 -108.5 -193.5t-210.5 -64.5q-231 0 -231 179zM527.5 746q-15.5 7 -35.5 20q-22 13 -36 19.5t-32 6.5
q-33 0 -50 -36q-14 -19 -27 -19q-8 0 -13 5t-4 15q4 36 33 59.5t64 23.5q23 0 40 -7.5t42 -22.5q17 -12 30.5 -18t27.5 -6q31 0 50 36q13 19 27 19q8 0 13 -5.5t5 -14.5q-5 -36 -34.5 -59t-65.5 -23q-19 0 -34.5 7z" />
    <glyph glyph-name="utilde" unicode="&#x169;" horiz-adv-x="596" 
d="M93 19.5q-27 30.5 -27 83.5q0 29 7 58l44 212q2 14 2 19q0 22 -20 27l-23 4q-15 2 -21 4t-6 8q0 11 8 16t24 9q96 18 120 18q22 0 22 -17q0 -6 -1 -10l-58 -275q-5 -25 -5 -43q0 -33 14.5 -51.5t43.5 -18.5q37 0 74 29t66 79t41 109l19 93q2 14 2 19q0 22 -20 27
q-4 1 -22 4q-16 2 -22.5 4t-6.5 9q1 10 9 15t23 9q98 18 120 18q23 0 23 -17q0 -6 -1 -10l-71 -336q-2 -7 -2 -20q0 -17 8 -26.5t22 -9.5q35 0 63 72q5 7 13 7q6 0 10 -4.5t4 -11.5q0 -8 -4 -16q-17 -52 -50 -84.5t-77 -32.5q-33 0 -52.5 21.5t-19.5 60.5q0 17 5 42
q0 9 -6 9q-3 0 -6 -5q-34 -54 -81.5 -91t-108.5 -37q-49 0 -76 30.5zM368.5 567q-15.5 7 -35.5 20q-22 13 -36 19.5t-32 6.5q-33 0 -50 -36q-14 -19 -27 -19q-8 0 -13 5t-4 15q4 36 33 59.5t64 23.5q23 0 40 -7.5t42 -22.5q17 -12 30.5 -18t27.5 -6q31 0 50 36q13 19 27 19
q8 0 13 -5.5t5 -14.5q-5 -36 -34.5 -59t-65.5 -23q-19 0 -34.5 7z" />
    <glyph glyph-name="Umacron" unicode="&#x16a;" horiz-adv-x="740" 
d="M92 168q0 36 9 76l69 323q6 29 6 44q0 20 -11 28.5t-42 14.5q-17 6 -17 22q0 25 40 25l196 -1q17 0 25 -3.5t8 -11.5q0 -22 -28 -31q-33 -7 -48 -14t-22 -20.5t-13 -42.5l-69 -326q-7 -31 -7 -62q0 -68 41.5 -103.5t123.5 -35.5q96 0 158 49t81 139l68 316q9 47 9 58
q0 21 -11.5 28.5t-42.5 12.5q-17 7 -17 22q0 25 42 25h71q47 0 79 1q32 0 32 -17q0 -19 -27 -30q-32 -5 -46.5 -13t-23.5 -26.5t-18 -60.5l-65 -307q-28 -129 -108.5 -193.5t-210.5 -64.5q-231 0 -231 179zM351.5 754q-3.5 2 -3.5 6t5 16q1 2 6 9.5t9.5 10.5t11.5 3l118 -1
l111 1q10 0 10 -7q0 -6 -6 -16q-6 -14 -11.5 -19.5t-16.5 -5.5q-69 1 -222 1q-8 0 -11.5 2z" />
    <glyph glyph-name="umacron" unicode="&#x16b;" horiz-adv-x="596" 
d="M93 19.5q-27 30.5 -27 83.5q0 29 7 58l44 212q2 14 2 19q0 22 -20 27l-23 4q-15 2 -21 4t-6 8q0 11 8 16t24 9q96 18 120 18q22 0 22 -17q0 -6 -1 -10l-58 -275q-5 -25 -5 -43q0 -33 14.5 -51.5t43.5 -18.5q37 0 74 29t66 79t41 109l19 93q2 14 2 19q0 22 -20 27
q-4 1 -22 4q-16 2 -22.5 4t-6.5 9q1 10 9 15t23 9q98 18 120 18q23 0 23 -17q0 -6 -1 -10l-71 -336q-2 -7 -2 -20q0 -17 8 -26.5t22 -9.5q35 0 63 72q5 7 13 7q6 0 10 -4.5t4 -11.5q0 -8 -4 -16q-17 -52 -50 -84.5t-77 -32.5q-33 0 -52.5 21.5t-19.5 60.5q0 17 5 42
q0 9 -6 9q-3 0 -6 -5q-34 -54 -81.5 -91t-108.5 -37q-49 0 -76 30.5zM215.5 585q-3.5 2 -3.5 6t5 16q1 2 6 9.5t9.5 10.5t11.5 3l118 -1l111 1q10 0 10 -7q0 -6 -6 -16q-6 -14 -11.5 -19.5t-16.5 -5.5q-69 1 -222 1q-8 0 -11.5 2z" />
    <glyph glyph-name="Ubreve" unicode="&#x16c;" horiz-adv-x="740" 
d="M92 168q0 36 9 76l69 323q6 29 6 44q0 20 -11 28.5t-42 14.5q-17 6 -17 22q0 25 40 25l196 -1q17 0 25 -3.5t8 -11.5q0 -22 -28 -31q-33 -7 -48 -14t-22 -20.5t-13 -42.5l-69 -326q-7 -31 -7 -62q0 -68 41.5 -103.5t123.5 -35.5q96 0 158 49t81 139l68 316q9 47 9 58
q0 21 -11.5 28.5t-42.5 12.5q-17 7 -17 22q0 25 42 25h71q47 0 79 1q32 0 32 -17q0 -19 -27 -30q-32 -5 -46.5 -13t-23.5 -26.5t-18 -60.5l-65 -307q-28 -129 -108.5 -193.5t-210.5 -64.5q-231 0 -231 179zM383 760.5q-33 30.5 -33 82.5q0 13 1 20q3 16 14 16q7 0 10 -11
q5 -40 32.5 -64.5t74.5 -24.5q45 0 82 22t59 64q10 14 20 14q14 0 9 -16q-17 -58 -66 -95.5t-113 -37.5q-57 0 -90 30.5z" />
    <glyph glyph-name="ubreve" unicode="&#x16d;" horiz-adv-x="596" 
d="M93 19.5q-27 30.5 -27 83.5q0 29 7 58l44 212q2 14 2 19q0 22 -20 27l-23 4q-15 2 -21 4t-6 8q0 11 8 16t24 9q96 18 120 18q22 0 22 -17q0 -6 -1 -10l-58 -275q-5 -25 -5 -43q0 -33 14.5 -51.5t43.5 -18.5q37 0 74 29t66 79t41 109l19 93q2 14 2 19q0 22 -20 27
q-4 1 -22 4q-16 2 -22.5 4t-6.5 9q1 10 9 15t23 9q98 18 120 18q23 0 23 -17q0 -6 -1 -10l-71 -336q-2 -7 -2 -20q0 -17 8 -26.5t22 -9.5q35 0 63 72q5 7 13 7q6 0 10 -4.5t4 -11.5q0 -8 -4 -16q-17 -52 -50 -84.5t-77 -32.5q-33 0 -52.5 21.5t-19.5 60.5q0 17 5 42
q0 9 -6 9q-3 0 -6 -5q-34 -54 -81.5 -91t-108.5 -37q-49 0 -76 30.5zM241 563.5q-33 30.5 -33 82.5q0 13 1 20q3 16 14 16q7 0 10 -11q5 -40 32.5 -64.5t74.5 -24.5q45 0 82 22t59 64q10 14 20 14q14 0 9 -16q-17 -58 -66 -95.5t-113 -37.5q-57 0 -90 30.5z" />
    <glyph glyph-name="Uring" unicode="&#x16e;" horiz-adv-x="740" 
d="M92 168q0 36 9 76l69 323q6 29 6 44q0 20 -11 28.5t-42 14.5q-17 6 -17 22q0 25 40 25l196 -1q17 0 25 -3.5t8 -11.5q0 -22 -28 -31q-33 -7 -48 -14t-22 -20.5t-13 -42.5l-69 -326q-7 -31 -7 -62q0 -68 41.5 -103.5t123.5 -35.5q96 0 158 49t81 139l68 316q9 47 9 58
q0 21 -11.5 28.5t-42.5 12.5q-17 7 -17 22q0 25 42 25h71q47 0 79 1q32 0 32 -17q0 -19 -27 -30q-32 -5 -46.5 -13t-23.5 -26.5t-18 -60.5l-65 -307q-28 -129 -108.5 -193.5t-210.5 -64.5q-231 0 -231 179zM429 753q-21 16 -21 43q0 6 2 16q8 34 38 55t66 21q31 0 52 -16.5
t21 -43.5q0 -40 -32.5 -65.5t-73.5 -25.5q-31 0 -52 16zM522 778q16 13 20 32q2 10 2 14q0 15 -9 25t-25 10q-19 0 -36 -13.5t-21 -32.5q-1 -4 -1 -12q0 -16 9 -26t25 -10q20 0 36 13z" />
    <glyph glyph-name="uring" unicode="&#x16f;" horiz-adv-x="596" 
d="M93 19.5q-27 30.5 -27 83.5q0 29 7 58l44 212q2 14 2 19q0 22 -20 27l-23 4q-15 2 -21 4t-6 8q0 11 8 16t24 9q96 18 120 18q22 0 22 -17q0 -6 -1 -10l-58 -275q-5 -25 -5 -43q0 -33 14.5 -51.5t43.5 -18.5q37 0 74 29t66 79t41 109l19 93q2 14 2 19q0 22 -20 27
q-4 1 -22 4q-16 2 -22.5 4t-6.5 9q1 10 9 15t23 9q98 18 120 18q23 0 23 -17q0 -6 -1 -10l-71 -336q-2 -7 -2 -20q0 -17 8 -26.5t22 -9.5q35 0 63 72q5 7 13 7q6 0 10 -4.5t4 -11.5q0 -8 -4 -16q-17 -52 -50 -84.5t-77 -32.5q-33 0 -52.5 21.5t-19.5 60.5q0 17 5 42
q0 9 -6 9q-3 0 -6 -5q-34 -54 -81.5 -91t-108.5 -37q-49 0 -76 30.5zM279.5 551q-20.5 17 -20.5 46q0 43 32 70t73 27q32 0 53 -18t21 -47q0 -4 -2 -16q-8 -35 -38.5 -57t-65.5 -22q-32 0 -52.5 17zM377 583q18 18 18 42q0 17 -9.5 28t-25.5 11q-23 0 -40.5 -18.5
t-17.5 -42.5q0 -17 9.5 -27.5t25.5 -10.5q22 0 40 18z" />
    <glyph glyph-name="Uhungarumlaut" unicode="&#x170;" horiz-adv-x="740" 
d="M92 168q0 36 9 76l69 323q6 29 6 44q0 20 -11 28.5t-42 14.5q-17 6 -17 22q0 25 40 25l196 -1q17 0 25 -3.5t8 -11.5q0 -22 -28 -31q-33 -7 -48 -14t-22 -20.5t-13 -42.5l-69 -326q-7 -31 -7 -62q0 -68 41.5 -103.5t123.5 -35.5q96 0 158 49t81 139l68 316q9 47 9 58
q0 21 -11.5 28.5t-42.5 12.5q-17 7 -17 22q0 25 42 25h71q47 0 79 1q32 0 32 -17q0 -19 -27 -30q-32 -5 -46.5 -13t-23.5 -26.5t-18 -60.5l-65 -307q-28 -129 -108.5 -193.5t-210.5 -64.5q-231 0 -231 179zM371 737q0 6 11 18l35 35q42 40 57 58q9 12 21 15.5t31 3.5
q11 0 17 -3.5t6 -8.5q0 -4 -7 -15q-12 -16 -47 -42.5t-69 -46.5t-45 -20q-10 0 -10 6zM515 736q0 6 12 19q74 74 91 93q9 12 21.5 15.5t30.5 3.5q23 0 23 -12q0 -6 -6 -15q-12 -16 -47 -42t-69.5 -46.5t-45.5 -20.5q-10 0 -10 5z" />
    <glyph glyph-name="uhungarumlaut" unicode="&#x171;" horiz-adv-x="596" 
d="M93 19.5q-27 30.5 -27 83.5q0 29 7 58l44 212q2 14 2 19q0 22 -20 27l-23 4q-15 2 -21 4t-6 8q0 11 8 16t24 9q96 18 120 18q22 0 22 -17q0 -6 -1 -10l-58 -275q-5 -25 -5 -43q0 -33 14.5 -51.5t43.5 -18.5q37 0 74 29t66 79t41 109l19 93q2 14 2 19q0 22 -20 27
q-4 1 -22 4q-16 2 -22.5 4t-6.5 9q1 10 9 15t23 9q98 18 120 18q23 0 23 -17q0 -6 -1 -10l-71 -336q-2 -7 -2 -20q0 -17 8 -26.5t22 -9.5q35 0 63 72q5 7 13 7q6 0 10 -4.5t4 -11.5q0 -8 -4 -16q-17 -52 -50 -84.5t-77 -32.5q-33 0 -52.5 21.5t-19.5 60.5q0 17 5 42
q0 9 -6 9q-3 0 -6 -5q-34 -54 -81.5 -91t-108.5 -37q-49 0 -76 30.5zM231 537q0 5 4 10q72 88 98 127q8 12 16.5 16t27.5 4q32 0 30 -14q-2 -13 -38.5 -49t-77.5 -68.5t-50 -32.5q-10 0 -10 7zM375 537q0 2 4 10q72 87 99 127q8 12 16.5 16t27.5 4q32 0 30 -14
q-2 -13 -39 -49t-77.5 -68.5t-50.5 -32.5t-10 7z" />
    <glyph glyph-name="Uogonek" unicode="&#x172;" horiz-adv-x="740" 
d="M822 684q0 -19 -27 -30q-32 -5 -46.5 -13t-23.5 -26.5t-18 -60.5l-65 -307q-35 -164 -155 -223l2 -1q-87 -43 -99 -96q-2 -9 -1 -13q0 -17 9.5 -27t27.5 -10q19 0 39 7.5t34 20.5q7 5 11 5q8 0 8 -8q0 -4 -3 -10q-15 -23 -44 -39t-66 -16q-33 0 -51.5 17t-18.5 45
q0 24 13.5 48.5t37.5 45.5q-27 -4 -63 -4q-231 0 -231 179q0 36 9 76l69 323q6 29 6 44q0 20 -11 28.5t-42 14.5q-17 6 -17 22q0 25 40 25l196 -1q17 0 25 -3.5t8 -11.5q0 -22 -28 -31q-33 -7 -48 -14t-22 -20.5t-13 -42.5l-69 -326q-7 -31 -7 -62q0 -68 41.5 -103.5
t123.5 -35.5q96 0 158 49t81 139l68 316q9 47 9 58q0 21 -11.5 28.5t-42.5 12.5q-17 7 -17 22q0 25 42 25h71q47 0 79 1q32 0 32 -17z" />
    <glyph glyph-name="uogonek" unicode="&#x173;" horiz-adv-x="596" 
d="M555 138q6 0 10 -4.5t4 -11.5q0 -8 -4 -16q-13 -39 -35.5 -68t-51.5 -41q-77 -41 -89 -91q-2 -9 -1 -13q0 -17 9.5 -27t27.5 -10q19 0 39 7.5t34 20.5q7 5 11 5q8 0 8 -8q0 -4 -3 -10q-15 -23 -44 -39t-66 -16q-33 0 -51.5 17t-18.5 45q0 30 20 60.5t59 54.5
q-22 7 -34.5 27t-12.5 52q0 16 5 41q0 9 -6 9q-3 0 -6 -5q-34 -54 -81.5 -91t-108.5 -37q-49 0 -76 30.5t-27 83.5q0 29 7 58l44 212q2 14 2 19q0 22 -20 27l-23 4q-15 2 -21 4t-6 8q0 11 8 16t24 9q96 18 120 18q22 0 22 -17q0 -6 -1 -10l-58 -275q-5 -25 -5 -43
q0 -33 14.5 -51.5t43.5 -18.5q37 0 74 29t66 79t41 109l19 93q2 14 2 19q0 22 -20 27q-4 1 -22 4q-16 2 -22.5 4t-6.5 9q1 10 9 15t23 9q98 18 120 18q23 0 23 -17q0 -6 -1 -10l-71 -336q-2 -7 -2 -20q0 -17 8 -26.5t22 -9.5q35 0 63 72q5 7 13 7z" />
    <glyph glyph-name="Wcircumflex" unicode="&#x174;" horiz-adv-x="1053" 
d="M277 -3q-38 0 -43 43l-58 541q-3 30 -9.5 44t-18 19t-35.5 8q-18 6 -15 24q4 15 18.5 20t46.5 5q40 -1 85 -1q43 0 78 1q26 0 34.5 -6t5.5 -19q-1 -6 -7 -12t-14 -8q-42 -2 -54.5 -9t-12.5 -27l2 -32q12 -156 38 -468q2 -12 7 -12q6 0 12 12l216 396q18 30 18 65
q0 13 -1 19q-1 28 -14 38t-49 13q-8 5 -11.5 8.5t-3.5 10.5q0 30 43 30q31 -2 101 -2q58 0 85 1q36 0 36 -17t-25 -29q-37 -3 -52 -7.5t-19 -14t-2 -32.5l37 -479q2 -10 7 -10q6 0 11 10q118 217 198 368l63 117q11 20 11 28q0 10 -14 13.5t-60 7.5q-16 7 -14 22
q3 13 13.5 19t31.5 6q36 -1 86 -1t83 1q30 0 30 -18q0 -14 -7.5 -20t-21.5 -9q-30 -3 -44.5 -7.5t-23.5 -15t-23 -34.5l-301 -557q-24 -43 -61 -43h-3q-19 0 -31 10.5t-13 31.5l-15 207q-10 138 -16 206q0 11 -5 11q-4 0 -11 -11l-226 -412q-24 -43 -60 -43h-3zM501.5 737
q-3.5 4 -2.5 8q1 13 62 64.5t96 71.5q18 9 27 9t22 -9q25 -19 62.5 -68.5t37.5 -66.5q0 -4 -5 -8.5t-10 -4.5q-7 0 -43 36q-69 64 -76 64q-6 0 -104 -64q-21 -15 -38 -25.5t-21 -10.5t-7.5 4z" />
    <glyph glyph-name="wcircumflex" unicode="&#x175;" horiz-adv-x="747" 
d="M79.5 20q-30.5 31 -30.5 85q0 24 6 49l52 219q2 14 2 19q0 22 -20 27l-23 4q-15 2 -21 4t-6 8q0 11 8 16t24 9q96 18 120 18q22 0 22 -17q0 -6 -1 -10l-70 -310q-5 -25 -5 -41q0 -28 13 -43.5t39 -15.5q54 0 98.5 62t70.5 177l38 163q3 17 12.5 25.5t31.5 8.5
q50 0 43 -35l-68 -301q-5 -20 -5 -42q0 -58 51 -58q46 0 90.5 53.5t74 125.5t29.5 117q0 51 -43 78q-9 6 -14.5 16t-3.5 22q3 15 14 22t26 7q13 0 26 -4.5t21 -12.5q27 -22 38.5 -50.5t11.5 -64.5q0 -56 -39.5 -143.5t-105 -152t-141.5 -64.5q-48 0 -74.5 26.5t-24.5 80.5
q0 4 -3 4t-5 -3q-70 -109 -173 -109q-55 0 -85.5 31zM310 534.5q-3 3.5 -3 6.5q0 15 60.5 67.5t97.5 73.5q15 8 27 8q10 0 23 -8q24 -19 62 -71t38 -68q0 -4 -4.5 -8t-10.5 -4q-5 0 -18.5 11.5t-25.5 24.5q-68 68 -76 68q-3 0 -35 -20.5t-69 -47.5q-20 -15 -37.5 -25.5
t-20.5 -10.5q-5 0 -8 3.5z" />
    <glyph glyph-name="Ycircumflex" unicode="&#x176;" horiz-adv-x="677" 
d="M170 2.5q-8 3.5 -8 11.5q0 20 29 32q33 6 47.5 13.5t21 20.5t12.5 43l27 125q2 10 2 17q0 23 -9 47l-108 292q-10 28 -24 36.5t-46 10.5q-10 4 -14 9.5t-2 16.5q4 14 15.5 19.5t32.5 4.5q18 -1 72 -1q83 0 118 1q24 0 33 -5.5t7 -15.5q-5 -18 -25 -25q-37 -4 -52 -10
t-15 -19q0 -4 4 -16l93 -246q3 -9 9 -9t12 9l200 254q9 12 9 19q0 10 -15 14.5t-51 6.5q-7 4 -9.5 8.5t-0.5 12.5q3 12 12 17t26 5q35 -1 102 -1q45 0 66 1q26 0 26 -15q0 -23 -33 -33q-22 -1 -34 -5.5t-20 -13t-26 -30.5l-230 -287q-25 -32 -32 -68l-25 -116q-7 -35 -7 -45
q0 -19 11.5 -27.5t42.5 -14.5q18 -7 18 -19q0 -28 -39 -28h-198q-17 0 -25 3.5zM311.5 737q-3.5 4 -2.5 8q1 13 62 64.5t96 71.5q18 9 27 9t22 -9q25 -19 62.5 -68.5t37.5 -66.5q0 -4 -5 -8.5t-10 -4.5q-7 0 -43 36q-69 64 -76 64q-6 0 -104 -64q-21 -15 -38 -25.5
t-21 -10.5t-7.5 4z" />
    <glyph glyph-name="ycircumflex" unicode="&#x177;" horiz-adv-x="527" 
d="M16 -168.5q-34 18.5 -52 48.5q-11 12 -11 29q0 16 10.5 27.5t24.5 11.5q15 0 21.5 -7t15.5 -25q14 -31 36 -46t60 -15q63 0 121 65t104 163q-40 -45 -77.5 -63t-80.5 -18q-59 0 -87 31.5t-28 83.5q0 23 7 56l47 200q2 14 2 19q0 22 -20 27l-23 4q-15 2 -21 4t-6 8
q0 11 8 16t24 9q96 18 120 18q23 0 23 -16q0 -3 -2 -11l-65 -288q-7 -33 -7 -52q0 -61 53 -61q69 0 113.5 50.5t66 112t27.5 107.5l1 15q0 55 -45 80q-8 4 -13.5 12t-5.5 17q0 19 12 29.5t30 10.5q28 0 51 -20q27 -19 42 -51t15 -71q0 -72 -37.5 -178.5t-102.5 -196.5
q-51 -71 -115 -112.5t-140 -41.5q-62 0 -96 18.5zM191 534.5q-3 3.5 -3 6.5q0 15 60.5 67.5t97.5 73.5q15 8 27 8q10 0 23 -8q24 -19 62 -71t38 -68q0 -4 -4.5 -8t-10.5 -4q-5 0 -18.5 11.5t-25.5 24.5q-68 68 -76 68q-3 0 -35 -20.5t-69 -47.5q-20 -15 -37.5 -25.5
t-20.5 -10.5q-5 0 -8 3.5z" />
    <glyph glyph-name="Ydieresis" unicode="&#x178;" horiz-adv-x="677" 
d="M170 2.5q-8 3.5 -8 11.5q0 20 29 32q33 6 47.5 13.5t21 20.5t12.5 43l27 125q2 10 2 17q0 23 -9 47l-108 292q-10 28 -24 36.5t-46 10.5q-10 4 -14 9.5t-2 16.5q4 14 15.5 19.5t32.5 4.5q18 -1 72 -1q83 0 118 1q24 0 33 -5.5t7 -15.5q-5 -18 -25 -25q-37 -4 -52 -10
t-15 -19q0 -4 4 -16l93 -246q3 -9 9 -9t12 9l200 254q9 12 9 19q0 10 -15 14.5t-51 6.5q-7 4 -9.5 8.5t-0.5 12.5q3 12 12 17t26 5q35 -1 102 -1q45 0 66 1q26 0 26 -15q0 -23 -33 -33q-22 -1 -34 -5.5t-20 -13t-26 -30.5l-230 -287q-25 -32 -32 -68l-25 -116q-7 -35 -7 -45
q0 -19 11.5 -27.5t42.5 -14.5q18 -7 18 -19q0 -28 -39 -28h-198q-17 0 -25 3.5zM310 745.5q-10 7.5 -10 20.5q0 26 28 41.5t55 15.5q16 0 25.5 -7t9.5 -19q0 -27 -28 -43t-55 -16q-15 0 -25 7.5zM517 745.5q-10 7.5 -10 20.5q0 26 28 41.5t55 15.5q16 0 25.5 -7t9.5 -19
q0 -27 -28 -43t-55 -16q-15 0 -25 7.5z" />
    <glyph glyph-name="Zacute" unicode="&#x179;" horiz-adv-x="612" 
d="M439 -12q-46 12 -89 12h-345q-12 0 -19 4.5t-7 11.5q0 16 21 37l529 579q8 10 8 14q0 7 -12 7h-236q-25 0 -40.5 -10t-33.5 -40t-54 -101q-9 -15 -16.5 -21t-18.5 -6q-17 0 -17 17q0 27 46 115l10 18q18 35 30.5 57.5t19.5 29t16 6.5q7 0 21 -6q13 -6 24.5 -9t31.5 -3
h354q8 0 13 -3.5t6 -7.5q0 -13 -12 -25l-540 -583q-17 -19 -17 -27q0 -7 14 -7h279q22 0 38 10.5t36 43t54 101.5q16 24 34 24q15 0 15 -17q0 -32 -46 -117q-22 -43 -36.5 -69.5t-21.5 -33t-16 -6.5q-6 0 -23 5zM364 743q1 6 27.5 27.5t45 35t25.5 18.5q34 23 48 35
q14 18 47 18q25 0 32.5 -4t5.5 -14q-2 -12 -50.5 -42.5t-103 -57t-66.5 -26.5q-14 0 -11 10z" />
    <glyph glyph-name="zacute" unicode="&#x17a;" horiz-adv-x="440" 
d="M290 -5q-57 5 -82 5h-189q-23 0 -23 14q0 7 7 17t10 14l288 360q16 21 5 21h-120q-25 0 -36 -4t-18 -14.5t-21 -42.5l-13 -30q-9 -12 -17 -17t-19 -5q-14 0 -14 13q0 9 6 19l47 114q6 13 14 16.5t18 3.5q7 0 31.5 -3.5t81.5 -3.5h180q11 0 13 -9v-2q0 -8 -6 -16
l-303 -380q-6 -7 -8 -13.5t5 -6.5h147q21 0 29.5 3t15 13t18.5 38q6 11 12 24t13 28q16 20 37 20q6 0 9.5 -3t3.5 -9q0 -8 -7 -19l-53 -122q-15 -25 -36 -25zM265 540q1 12 93 95q41 39 43 41q8 12 19 15.5t31 3.5t27 -4t5 -13q-1 -12 -46.5 -47.5t-96.5 -67.5t-63 -32
q-13 0 -12 9z" />
    <glyph glyph-name="Zdotaccent" unicode="&#x17b;" horiz-adv-x="612" 
d="M439 -12q-46 12 -89 12h-345q-12 0 -19 4.5t-7 11.5q0 16 21 37l529 579q8 10 8 14q0 7 -12 7h-236q-25 0 -40.5 -10t-33.5 -40t-54 -101q-9 -15 -16.5 -21t-18.5 -6q-17 0 -17 17q0 27 46 115l10 18q18 35 30.5 57.5t19.5 29t16 6.5q7 0 21 -6q13 -6 24.5 -9t31.5 -3
h354q8 0 13 -3.5t6 -7.5q0 -13 -12 -25l-540 -583q-17 -19 -17 -27q0 -7 14 -7h279q22 0 38 10.5t36 43t54 101.5q16 24 34 24q15 0 15 -17q0 -32 -46 -117q-22 -43 -36.5 -69.5t-21.5 -33t-16 -6.5q-6 0 -23 5zM421.5 738.5q-9.5 7.5 -9.5 19.5q0 26 28 44.5t66 18.5
q17 0 26 -7t9 -20q0 -26 -28 -44.5t-65 -18.5q-17 0 -26.5 7.5z" />
    <glyph glyph-name="zdotaccent" unicode="&#x17c;" horiz-adv-x="440" 
d="M290 -5q-57 5 -82 5h-189q-23 0 -23 14q0 7 7 17t10 14l288 360q16 21 5 21h-120q-25 0 -36 -4t-18 -14.5t-21 -42.5l-13 -30q-9 -12 -17 -17t-19 -5q-14 0 -14 13q0 9 6 19l47 114q6 13 14 16.5t18 3.5q7 0 31.5 -3.5t81.5 -3.5h180q11 0 13 -9v-2q0 -8 -6 -16
l-303 -380q-6 -7 -8 -13.5t5 -6.5h147q21 0 29.5 3t15 13t18.5 38q6 11 12 24t13 28q16 20 37 20q6 0 9.5 -3t3.5 -9q0 -8 -7 -19l-53 -122q-15 -25 -36 -25zM272.5 576q-10.5 8 -10.5 22q0 27 30.5 47t69.5 20t39 -30q0 -27 -30 -47t-70 -20q-18 0 -28.5 8z" />
    <glyph glyph-name="Zcaron" unicode="&#x17d;" horiz-adv-x="612" 
d="M439 -12q-46 12 -89 12h-345q-12 0 -19 4.5t-7 11.5q0 16 21 37l529 579q8 10 8 14q0 7 -12 7h-236q-25 0 -40.5 -10t-33.5 -40t-54 -101q-9 -15 -16.5 -21t-18.5 -6q-17 0 -17 17q0 27 46 115l10 18q18 35 30.5 57.5t19.5 29t16 6.5q7 0 21 -6q13 -6 24.5 -9t31.5 -3
h354q8 0 13 -3.5t6 -7.5q0 -13 -12 -25l-540 -583q-17 -19 -17 -27q0 -7 14 -7h279q22 0 38 10.5t36 43t54 101.5q16 24 34 24q15 0 15 -17q0 -32 -46 -117q-22 -43 -36.5 -69.5t-21.5 -33t-16 -6.5q-6 0 -23 5zM379.5 869.5q17.5 -16.5 20.5 -19.5q67 -65 74 -65t105 65
q13 8 22 15q8 5 21 13t16 8q4 0 7 -3.5t3 -7.5q0 -13 -60.5 -64t-96.5 -73q-17 -9 -28 -9t-22 9q-25 20 -62.5 69.5t-37.5 64.5q0 5 5 9.5t10 4.5q6 0 23.5 -16.5z" />
    </font>
</defs>
</svg>
