<?xml version="1.0" standalone="no"?>
<!DOCTYPE svg PUBLIC "-//W3C//DTD SVG 1.1//EN" "http://www.w3.org/Graphics/SVG/1.1/DTD/svg11.dtd" >
<svg xmlns="http://www.w3.org/2000/svg" xmlns:xlink="http://www.w3.org/1999/xlink" version="1.1">
<metadata>
Created by FontForge 20170731 at Fri Sep 25 13:10:24 2020
 By Aleksey,,,
Copyright (c) 2020 by Francesco Canovaro, Mariachiara Fantini. All rights reserved.
</metadata>
<defs>
<font id="BogartTrial-BoldItalic" horiz-adv-x="0" >
  <font-face 
    font-family="Bogart Trial"
    font-weight="700"
    font-style="italic"
    font-stretch="normal"
    units-per-em="1000"
    panose-1="0 0 8 0 0 0 0 0 0 0"
    ascent="800"
    descent="-200"
    x-height="500"
    cap-height="701"
    bbox="-764 -369 1871 1059"
    underline-thickness="100"
    underline-position="-300"
    slope="-12"
    unicode-range="U+0020-FB06"
  />
<missing-glyph horiz-adv-x="595" 
 />
    <glyph glyph-name="f_f" unicode="ff" horiz-adv-x="695" 
d="M783 702q48 -30 48 -78q0 -6 -2 -20q-4 -20 -22.5 -36.5t-44.5 -16.5q-28 0 -40 13t-20 42q-3 23 -16.5 36t-37.5 13t-41 -18t-17 -45q0 -21 16 -55q2 -6 7.5 -19t8.5 -24h98q14 0 20 -2.5t6 -11.5q0 -6 -1 -9q-5 -24 -19.5 -40t-30.5 -16h-37q-13 0 -23 -6.5t-13 -21.5
l-69 -333q-8 -37 -15 -93q-3 -28 -16 -42t-49 -20.5t-108 -7.5q-17 0 -26 8t-9 22q0 3 2 13q4 14 7.5 24.5t5.5 18.5q14 47 27 103l63 303q1 4 1 10q0 22 -25 22h-88q-13 0 -23 -6.5t-13 -21.5l-69 -333q-8 -37 -15 -93q-3 -28 -16 -42t-49 -20.5t-108 -7.5q-17 0 -26 8
t-9 22q0 3 2 13q4 14 7.5 24.5t5.5 18.5q14 47 27 103l63 303q1 4 1 10q0 22 -25 22h-30q-9 0 -13.5 7.5t-2.5 18.5q5 24 20 38.5t27 14.5h41l-3 24q-5 22 -5 43q0 24 5 46q11 54 62.5 89.5t124.5 35.5q65 0 104.5 -24t39.5 -70q0 -14 -2 -22q-4 -21 -20.5 -36.5
t-42.5 -15.5q-23 0 -34 13t-17 41q-5 22 -12 29.5t-21 7.5q-29 0 -36 -34q-2 -7 -2 -22q0 -44 34 -105h160l-3 24q-5 22 -5 43q0 24 5 46q11 54 69.5 89.5t145.5 35.5q70 0 118 -30z" />
    <glyph glyph-name="f_f_i" unicode="ffi" horiz-adv-x="1022" 
d="M972 159q9 0 15.5 -7t6.5 -20t-9 -31q-21 -46 -68 -79.5t-102 -33.5q-60 0 -86 26.5t-26 75.5q0 37 15 95l34 144q5 22 5 36q0 50 -43 50h-57q-13 0 -23 -6.5t-13 -21.5l-69 -333q-8 -37 -15 -93q-3 -28 -16 -42t-49 -20.5t-108 -7.5q-17 0 -26 8t-9 22q0 3 2 13
q4 14 7.5 24.5t5.5 18.5q14 47 27 103l63 303q1 4 1 10q0 22 -25 22h-87q-13 0 -23 -6.5t-13 -21.5l-69 -333q-8 -37 -15 -93q-3 -28 -16 -42t-49 -20.5t-108 -7.5q-17 0 -26 8t-9 22q0 3 2 13q4 14 7.5 24.5t5.5 18.5q14 47 27 103l63 303q1 4 1 10q0 22 -25 22h-30
q-9 0 -13.5 7.5t-2.5 18.5q5 24 20 38.5t27 14.5h41l-3 24q-5 22 -5 43q0 24 5 46q11 54 62.5 89.5t124.5 35.5q65 0 104.5 -24t39.5 -70q0 -14 -2 -22q-4 -21 -20.5 -36.5t-42.5 -15.5q-23 0 -34 13t-17 41q-5 22 -12 29.5t-21 7.5q-29 0 -36 -34q-2 -7 -2 -22
q0 -44 34 -105h159l-3 24q-5 22 -5 43q0 24 5 46q11 54 69.5 89.5t145.5 35.5q70 0 118 -30t48 -78q0 -6 -2 -20q-4 -20 -22.5 -36.5t-44.5 -16.5q-28 0 -40 13t-20 42q-3 23 -16.5 36t-37.5 13t-41 -18t-17 -45q0 -21 16 -55q2 -6 7.5 -19t8.5 -24h178q37 0 72 7
q7 1 23.5 3t31.5 2q40 0 40 -30q0 -4 -2 -16l-63 -287q-2 -8 -2 -20q0 -25 18 -25q7 0 13 3.5t12.5 9.5t10.5 10q10 8 19 8z" />
    <glyph glyph-name="f_f_l" unicode="ffl" horiz-adv-x="1038" 
d="M720 494q14 0 20 -2.5t6 -11.5q0 -6 -1 -9q-5 -24 -19.5 -40t-30.5 -16h-37q-13 0 -23 -6.5t-13 -21.5l-69 -333q-8 -37 -15 -93q-3 -28 -16 -42t-49 -20.5t-108 -7.5q-17 0 -26 8t-9 22q0 3 2 13q4 14 7.5 24.5t5.5 18.5q14 47 27 103l63 303q1 4 1 10q0 22 -25 22h-88
q-13 0 -23 -6.5t-13 -21.5l-69 -333q-8 -37 -15 -93q-3 -28 -16 -42t-49 -20.5t-108 -7.5q-17 0 -26 8t-9 22q0 3 2 13q4 14 7.5 24.5t5.5 18.5q14 47 27 103l63 303q1 4 1 10q0 22 -25 22h-30q-9 0 -13.5 7.5t-2.5 18.5q5 24 20 38.5t27 14.5h41l-3 24q-5 22 -5 43
q0 24 5 46q11 54 62.5 89.5t124.5 35.5q65 0 104.5 -24t39.5 -70q0 -14 -2 -22q-4 -21 -20.5 -36.5t-42.5 -15.5q-23 0 -34 13t-17 41q-5 22 -12 29.5t-21 7.5q-29 0 -36 -34q-2 -7 -2 -22q0 -44 34 -105h160q-2 7 -7 26.5t-5 39.5q0 19 6 47q11 53 65 89t127 36
q63 0 98.5 -27t35.5 -68q0 -31 -19.5 -55.5t-51.5 -24.5q-29 0 -41 13t-14 41q-2 23 -6 33.5t-16 10.5q-13 0 -22 -10.5t-12 -25.5q-2 -8 -2 -22q0 -17 5.5 -32t16.5 -35t17 -36h92zM917 172q-2 -7 -2 -19q0 -25 18 -25q10 0 15.5 3t11.5 9t11 10q10 8 19 8q10 0 16.5 -7
t6.5 -20q0 -12 -9 -30q-22 -46 -70 -79.5t-103 -33.5q-59 0 -83.5 26t-24.5 74q0 32 13 97l73 349q6 30 6 43q0 11 -4 18t-12 17q-9 13 -9 19q0 17 14 26.5t43 19.5q47 15 77 22t59 7q21 0 30.5 -5.5t9.5 -19.5q0 -3 -2 -15z" />
    <glyph glyph-name="f_i" unicode="fi" horiz-adv-x="688" 
d="M4 -101q-9 8 -9 22q0 3 2 13q4 14 7.5 24.5t5.5 18.5q14 47 27 103l63 303q1 4 1 10q0 22 -25 22h-30q-9 0 -13.5 7.5t-2.5 18.5q5 24 20 38.5t27 14.5h41l-3 24q-5 22 -5 43q0 24 5 46q11 54 69.5 89.5t145.5 35.5q70 0 118 -30t48 -78q0 -6 -2 -20q-4 -20 -22.5 -36.5
t-44.5 -16.5q-28 0 -40 13t-20 42q-3 23 -16.5 36t-37.5 13t-41 -18t-17 -45q0 -21 16 -55q2 -6 7.5 -19t8.5 -24h178q37 0 72 7q7 1 23.5 3t31.5 2q40 0 40 -30q0 -4 -2 -16l-63 -287q-2 -8 -2 -20q0 -25 18 -25q7 0 13 3.5t12.5 9.5t10.5 10q10 8 19 8t15.5 -7t6.5 -20
t-9 -31q-21 -46 -68 -79.5t-102 -33.5q-60 0 -86 26.5t-26 75.5q0 37 15 95l34 144q5 22 5 36q0 50 -43 50h-57q-13 0 -23 -6.5t-13 -21.5l-69 -333q-8 -37 -15 -93q-3 -28 -16 -42t-49 -20.5t-108 -7.5q-17 0 -26 8z" />
    <glyph glyph-name="f_l" unicode="fl" horiz-adv-x="703" 
d="M4 -101q-9 8 -9 22q0 3 2 13q4 14 7.5 24.5t5.5 18.5q14 47 27 103l63 303q1 4 1 10q0 22 -25 22h-30q-9 0 -13.5 7.5t-2.5 18.5q5 24 20 38.5t27 14.5h41q-2 7 -7 26.5t-5 39.5q0 19 6 47q11 53 65 89t127 36q63 0 98.5 -27t35.5 -68q0 -31 -19.5 -55.5t-51.5 -24.5
q-29 0 -41 13t-14 41q-2 23 -6 33.5t-16 10.5q-13 0 -22 -10.5t-12 -25.5q-2 -8 -2 -22q0 -17 5.5 -32t16.5 -35t17 -36h92q13 0 19.5 -2.5t6.5 -11.5q0 -6 -1 -9q-5 -24 -19.5 -40t-30.5 -16h-37q-13 0 -23 -6.5t-13 -21.5l-69 -333q-8 -37 -15 -93q-3 -28 -16 -42
t-49 -20.5t-108 -7.5q-17 0 -26 8zM412.5 14q-24.5 26 -24.5 74q0 32 13 97l73 349q6 30 6 43q0 11 -4 18t-12 17q-9 13 -9 19q0 17 14 26.5t43 19.5q47 15 77 22t59 7q21 0 30.5 -5.5t9.5 -19.5q0 -3 -2 -15l-104 -494q-2 -7 -2 -19q0 -25 18 -25q10 0 15.5 3t11.5 9t11 10
q10 8 19 8q10 0 16.5 -7t6.5 -20q0 -12 -9 -30q-22 -46 -70 -79.5t-103 -33.5q-59 0 -83.5 26z" />
    <glyph glyph-name=".notdef" horiz-adv-x="595" 
 />
    <glyph glyph-name=".null" 
 />
    <glyph glyph-name="nonmarkingreturn" horiz-adv-x="333" 
 />
    <glyph glyph-name="space" unicode=" " horiz-adv-x="305" 
 />
    <glyph glyph-name="exclam" unicode="!" horiz-adv-x="293" 
d="M120 241q-8 10 -12 28q-7 110 -7 170q0 91 12 151q11 57 46 90t86 33q42 0 63.5 -22t21.5 -62q0 -19 -4 -38q-23 -96 -132 -322q-25 -38 -51 -38q-15 0 -23 10zM30 9.5q-22 20.5 -22 53.5q0 11 3 23q10 45 43.5 73.5t77.5 28.5q38 0 61 -21t23 -56q0 -52 -37.5 -87
t-89.5 -35q-37 0 -59 20.5z" />
    <glyph glyph-name="quotedbl" unicode="&#x22;" horiz-adv-x="333" 
d="M126 489q5 123 15 169q6 24 21 35.5t48 11.5q49 0 49 -35q0 -8 -1 -13q-10 -47 -55 -164q-3 -7 -13 -33q-4 -10 -14.5 -15.5t-22.5 -5.5t-20 5.5t-8 15.5zM302 489q5 123 15 169q6 24 21 35.5t48 11.5q49 0 49 -35q0 -8 -1 -13q-10 -47 -55 -164q-3 -7 -13 -33
q-4 -10 -14.5 -15.5t-22.5 -5.5t-20 5.5t-8 15.5z" />
    <glyph glyph-name="numbersign" unicode="#" horiz-adv-x="645" 
d="M23 10q0 8 5 18l70 150q1 3 1 7q0 10 -11 10h-39q-19 0 -27 4t-8 15q0 6 1 9q8 38 27 59t48 21h44q11 0 17 4.5t11 15.5l29 60q2 4 2 10q0 5 -3 8t-8 3h-46q-22 0 -29.5 6t-4.5 22q8 38 27 59t48 21h51q12 0 18.5 4.5t10.5 13.5l67 144q8 18 24 27t48 9q41 0 41 -20
q0 -9 -7 -25l-62 -134q-2 -3 -2 -8q0 -11 12 -11h85q10 0 16 5.5t11 17.5l65 139q8 18 24 27t48 9q41 0 41 -20q0 -9 -7 -25l-61 -129q-3 -7 -3 -12q0 -12 9 -12h36q18 0 26 -4t8 -15q0 -6 -1 -10q-8 -37 -27 -58t-46 -21h-39q-13 0 -19.5 -5.5t-12.5 -17.5l-27 -59
q-2 -3 -2 -8t4 -8t9 -3h40q18 0 26.5 -4.5t8.5 -16.5q0 -6 -1 -9q-8 -37 -27.5 -57.5t-46.5 -20.5h-42q-15 0 -23 -5t-13 -16l-68 -147q-9 -20 -25 -29t-49 -9q-41 0 -41 21q0 8 5 18l66 144q3 8 3 12q0 11 -10 11h-79q-13 0 -20.5 -4.5t-12.5 -14.5l-68 -149
q-9 -20 -25 -29t-49 -9q-41 0 -41 21zM364 303q21 0 29 19l28 57q3 8 3 13q0 12 -9 12h-79q-14 0 -21.5 -4.5t-12.5 -14.5l-29 -62q-2 -4 -2 -9t3 -8t8 -3h82z" />
    <glyph glyph-name="dollar" unicode="$" horiz-adv-x="630" 
d="M343.5 593.5q-25.5 -24.5 -25.5 -62.5q0 -28 24.5 -50.5t84.5 -39.5q89 -27 132.5 -71.5t43.5 -110.5q0 -24 -6 -51q-14 -67 -61 -117t-113 -76.5t-136 -26.5h-2l-22 -106q-2 -9 -12 -14.5t-22 -5.5t-20 5.5t-6 14.5l23 108q-54 5 -95 17q-26 6 -32 6q-8 0 -22 -8
q-8 -4 -17.5 -7.5t-20.5 -3.5q-27 0 -35 92q-3 32 -3 58q0 61 16 95t47 34q13 0 20.5 -6t13 -23t11.5 -54q8 -54 39 -81t90 -27q43 0 74.5 22.5t40.5 65.5q2 8 2 22q0 31 -23 51t-77 41q-74 28 -112.5 72t-38.5 108q0 25 6 52q20 92 90 144t162 52h17l23 108q2 9 12 13.5
t22 4.5t20 -5t6 -13l-24 -113q35 -5 63 -14q4 -1 13 -3.5t17 -2.5t22 8q7 4 15.5 7.5t17.5 3.5q15 0 25 -26t15 -66q4 -40 4 -58q0 -45 -13.5 -70.5t-45.5 -25.5q-18 0 -28.5 14.5t-22.5 55.5q-24 88 -108 88q-43 0 -68.5 -24.5z" />
    <glyph glyph-name="percent" unicode="%" horiz-adv-x="1048" 
 />
    <glyph glyph-name="ampersand" unicode="&#x26;" horiz-adv-x="753" 
d="M138 15q-66 27 -98 72.5t-32 102.5q0 20 5 45q16 73 75 119t121 66q13 6 13 9q0 2 -9 11q-39 26 -39 74q0 42 28.5 86.5t88 75t147.5 30.5q55 0 99 -20t44 -58q0 -8 -1 -12q-3 -11 -17 -21t-31 -10q-12 0 -31 12q-16 9 -29 14t-33 5q-39 0 -65.5 -23.5t-32.5 -53.5
q-2 -10 -2 -16q0 -25 15.5 -42t35.5 -15q12 2 15 2q19 0 19 -15q0 -7 -2 -12q-5 -16 -14 -26.5t-31 -17.5q-58 -18 -95 -56t-51 -103q-4 -17 -4 -37q0 -52 32.5 -85.5t89.5 -33.5q88 0 136 55.5t63 128.5q3 12 3 22q0 16 -9 23.5t-30 7.5q-25 0 -40 -10.5t-25 -30.5
q-8 -12 -17 -18.5t-25 -6.5q-15 0 -15 17q0 3 2 15q11 62 51 114.5t112 52.5q17 0 36 -2t26 -3q42 -6 69 -6q44 0 60 33q14 18 23 26t20 8q17 0 17 -25q0 -11 -3 -25q-12 -60 -45.5 -89t-81.5 -29q-13 0 -13 -5q0 -3 8.5 -14.5t14 -24t5.5 -29.5q0 -11 -3 -23
q-14 -63 -65 -122t-134 -96.5t-186 -37.5q-99 0 -165 27z" />
    <glyph glyph-name="quotesingle" unicode="'" horiz-adv-x="237" 
d="M132 489q5 123 15 169q6 24 21 35.5t48 11.5q49 0 49 -35q0 -8 -1 -13q-10 -47 -55 -164q-3 -7 -13 -33q-4 -10 -14.5 -15.5t-22.5 -5.5t-20 5.5t-8 15.5z" />
    <glyph glyph-name="parenleft" unicode="(" horiz-adv-x="398" 
d="M305 -145q-9 -8 -24 -8q-14 0 -27 5q-108 45 -170.5 135.5t-62.5 213.5q0 54 11 103q22 107 82 197t146 155.5t186 100.5q15 5 29 5q23 0 23 -17q0 -12 -5.5 -19t-20.5 -18l-22 -16q-79 -57 -140 -154.5t-90 -233.5q-17 -76 -17 -146q0 -154 83 -242l15 -17q6 -6 9.5 -11
t3.5 -10q0 -15 -9 -23z" />
    <glyph glyph-name="parenright" unicode=")" horiz-adv-x="399" 
d="M-67.5 -114.5q5.5 5.5 19.5 15.5l21 15q79 59 140 156t90 232q17 77 17 147q0 80 -22 140.5t-61 100.5l-15 17q-9 10 -11.5 15t-1.5 13q6 25 33 25q14 0 26 -5q108 -45 171 -135.5t63 -213.5q0 -54 -11 -104q-23 -106 -83 -196t-146 -155.5t-185 -100.5q-15 -5 -29 -5
q-28 0 -23 25q2 8 7.5 13.5z" />
    <glyph glyph-name="asterisk" unicode="*" horiz-adv-x="379" 
d="M97 419q0 14 18 32q26 25 60 47q3 2 11 8.5t8 9.5q0 2 -8 2q-27 -1 -43 2.5t-31 9.5q-26 7 -26 24q0 12 9 30q8 18 18 26.5t24 8.5q4 0 16 -2q35 -14 58 -33q12 -9 15 -9t3.5 4t-0.5 11q-1 10 -1 26q0 24 6 52q5 23 17 32.5t36 9.5q20 0 29 -6.5t9 -20.5q0 -5 -2 -15
q-4 -20 -9.5 -36t-18.5 -42q-5 -10 -5 -12t2 -2q4 0 18 8q37 21 73 33q12 2 17 2q28 0 28 -39q0 -21 -9 -32.5t-32 -17.5q-19 -6 -36 -9t-43 -2h-2q-9 0 -9 -5t9 -12q16 -14 24 -24t19 -27q7 -12 7 -21q0 -19 -30 -39q-20 -13 -33 -13q-16 0 -27 20q-10 14 -24 67q0 8 -5 8
q-4 0 -8 -8q-9 -15 -25.5 -36t-27.5 -31q-20 -20 -35 -20q-14 0 -28 13q-16 14 -16 28z" />
    <glyph glyph-name="plus" unicode="+" horiz-adv-x="453" 
d="M159.5 69.5q-14.5 9.5 -14.5 33.5q0 9 3 21l15 73v3q0 13 -15 13h-84q-21 0 -32.5 6t-11.5 24q0 5 2 15q7 32 25 46.5t53 14.5h69q20 0 23 17l19 86q5 27 26 38.5t45 11.5q21 0 29 -8t8 -22q0 -5 -2 -19l-19 -89l-1 -4q0 -11 12 -11h89q40 0 40 -41q0 -6 -2 -18
q-6 -28 -22 -37.5t-38 -9.5h-91q-12 0 -15 -13l-19 -89q-5 -25 -17 -38t-40 -13q-20 0 -34.5 9.5z" />
    <glyph glyph-name="comma" unicode="," horiz-adv-x="294" 
d="M-21 -125q-6 6 -6 15q0 8 6 15.5t17 11.5q28 10 48.5 27.5t24.5 35.5l1 6q0 12 -19 17q-47 14 -47 63q0 32 18 60.5t48 45.5t65 17q41 0 63 -21.5t22 -62.5q0 -16 -5 -41q-13 -60 -51.5 -104t-86 -67.5t-83.5 -23.5q-9 0 -15 6z" />
    <glyph glyph-name="hyphen" unicode="-" horiz-adv-x="322" 
d="M45 198q-17 0 -24.5 6t-4.5 23q7 33 24.5 55t41.5 22h197q35 0 29 -29q-7 -33 -25 -55t-42 -22h-196z" />
    <glyph glyph-name="period" unicode="." horiz-adv-x="284" 
d="M21 6.5q-20 17.5 -20 47.5q0 18 5 32q14 46 50 74.5t80 28.5q37 0 57.5 -19t20.5 -51q0 -13 -5 -33q-13 -43 -50 -70t-83 -27q-35 0 -55 17.5z" />
    <glyph glyph-name="slash" unicode="/" horiz-adv-x="553" 
d="M106 -109q-21 -32 -31.5 -44.5t-29 -20t-50.5 -7.5t-45.5 6.5t-13.5 20.5q0 17 21 49l497 746q22 33 33 46t29.5 20t50.5 7q31 0 45 -6.5t14 -20.5t-22 -50z" />
    <glyph glyph-name="zero" unicode="0" horiz-adv-x="617" 
d="M453.5 28.5q66.5 39.5 105 106.5t38.5 146q0 80 -40 146t-106 104.5t-142 38.5q-81 0 -147.5 -40t-104 -107t-37.5 -144q0 -76 38.5 -143t104.5 -107t145 -40t145.5 39.5zM133 475q36 31 81.5 48.5t94.5 17.5q48 0 92.5 -18t78.5 -48h-347zM502 454q66 -79 66 -175
q0 -46 -15.5 -88.5t-43.5 -77.5h-346zM113 104q-31 36 -48 81t-17 94q2 97 58 167h346zM134 84h349q-37 -30 -81.5 -47.5t-92.5 -17.5q-95 0 -175 65z" />
    <glyph glyph-name="one" unicode="1" horiz-adv-x="617" 
d="M453.5 28.5q66.5 39.5 105 106.5t38.5 146q0 80 -40 146t-106 104.5t-142 38.5q-81 0 -147.5 -40t-104 -107t-37.5 -144q0 -76 38.5 -143t104.5 -107t145 -40t145.5 39.5zM133 475q36 31 81.5 48.5t94.5 17.5q48 0 92.5 -18t78.5 -48h-347zM502 454q66 -79 66 -175
q0 -46 -15.5 -88.5t-43.5 -77.5h-346zM113 104q-31 36 -48 81t-17 94q2 97 58 167h346zM134 84h349q-37 -30 -81.5 -47.5t-92.5 -17.5q-95 0 -175 65z" />
    <glyph glyph-name="two" unicode="2" horiz-adv-x="617" 
d="M453.5 28.5q66.5 39.5 105 106.5t38.5 146q0 80 -40 146t-106 104.5t-142 38.5q-81 0 -147.5 -40t-104 -107t-37.5 -144q0 -76 38.5 -143t104.5 -107t145 -40t145.5 39.5zM133 475q36 31 81.5 48.5t94.5 17.5q48 0 92.5 -18t78.5 -48h-347zM502 454q66 -79 66 -175
q0 -46 -15.5 -88.5t-43.5 -77.5h-346zM113 104q-31 36 -48 81t-17 94q2 97 58 167h346zM134 84h349q-37 -30 -81.5 -47.5t-92.5 -17.5q-95 0 -175 65z" />
    <glyph glyph-name="three" unicode="3" horiz-adv-x="617" 
d="M453.5 28.5q66.5 39.5 105 106.5t38.5 146q0 80 -40 146t-106 104.5t-142 38.5q-81 0 -147.5 -40t-104 -107t-37.5 -144q0 -76 38.5 -143t104.5 -107t145 -40t145.5 39.5zM133 475q36 31 81.5 48.5t94.5 17.5q48 0 92.5 -18t78.5 -48h-347zM502 454q66 -79 66 -175
q0 -46 -15.5 -88.5t-43.5 -77.5h-346zM113 104q-31 36 -48 81t-17 94q2 97 58 167h346zM134 84h349q-37 -30 -81.5 -47.5t-92.5 -17.5q-95 0 -175 65z" />
    <glyph glyph-name="four" unicode="4" horiz-adv-x="617" 
d="M453.5 28.5q66.5 39.5 105 106.5t38.5 146q0 80 -40 146t-106 104.5t-142 38.5q-81 0 -147.5 -40t-104 -107t-37.5 -144q0 -76 38.5 -143t104.5 -107t145 -40t145.5 39.5zM133 475q36 31 81.5 48.5t94.5 17.5q48 0 92.5 -18t78.5 -48h-347zM502 454q66 -79 66 -175
q0 -46 -15.5 -88.5t-43.5 -77.5h-346zM113 104q-31 36 -48 81t-17 94q2 97 58 167h346zM134 84h349q-37 -30 -81.5 -47.5t-92.5 -17.5q-95 0 -175 65z" />
    <glyph glyph-name="five" unicode="5" horiz-adv-x="617" 
d="M453.5 28.5q66.5 39.5 105 106.5t38.5 146q0 80 -40 146t-106 104.5t-142 38.5q-81 0 -147.5 -40t-104 -107t-37.5 -144q0 -76 38.5 -143t104.5 -107t145 -40t145.5 39.5zM133 475q36 31 81.5 48.5t94.5 17.5q48 0 92.5 -18t78.5 -48h-347zM502 454q66 -79 66 -175
q0 -46 -15.5 -88.5t-43.5 -77.5h-346zM113 104q-31 36 -48 81t-17 94q2 97 58 167h346zM134 84h349q-37 -30 -81.5 -47.5t-92.5 -17.5q-95 0 -175 65z" />
    <glyph glyph-name="six" unicode="6" horiz-adv-x="617" 
d="M453.5 28.5q66.5 39.5 105 106.5t38.5 146q0 80 -40 146t-106 104.5t-142 38.5q-81 0 -147.5 -40t-104 -107t-37.5 -144q0 -76 38.5 -143t104.5 -107t145 -40t145.5 39.5zM133 475q36 31 81.5 48.5t94.5 17.5q48 0 92.5 -18t78.5 -48h-347zM502 454q66 -79 66 -175
q0 -46 -15.5 -88.5t-43.5 -77.5h-346zM113 104q-31 36 -48 81t-17 94q2 97 58 167h346zM134 84h349q-37 -30 -81.5 -47.5t-92.5 -17.5q-95 0 -175 65z" />
    <glyph glyph-name="seven" unicode="7" horiz-adv-x="617" 
d="M453.5 28.5q66.5 39.5 105 106.5t38.5 146q0 80 -40 146t-106 104.5t-142 38.5q-81 0 -147.5 -40t-104 -107t-37.5 -144q0 -76 38.5 -143t104.5 -107t145 -40t145.5 39.5zM133 475q36 31 81.5 48.5t94.5 17.5q48 0 92.5 -18t78.5 -48h-347zM502 454q66 -79 66 -175
q0 -46 -15.5 -88.5t-43.5 -77.5h-346zM113 104q-31 36 -48 81t-17 94q2 97 58 167h346zM134 84h349q-37 -30 -81.5 -47.5t-92.5 -17.5q-95 0 -175 65z" />
    <glyph glyph-name="eight" unicode="8" horiz-adv-x="617" 
d="M453.5 28.5q66.5 39.5 105 106.5t38.5 146q0 80 -40 146t-106 104.5t-142 38.5q-81 0 -147.5 -40t-104 -107t-37.5 -144q0 -76 38.5 -143t104.5 -107t145 -40t145.5 39.5zM133 475q36 31 81.5 48.5t94.5 17.5q48 0 92.5 -18t78.5 -48h-347zM502 454q66 -79 66 -175
q0 -46 -15.5 -88.5t-43.5 -77.5h-346zM113 104q-31 36 -48 81t-17 94q2 97 58 167h346zM134 84h349q-37 -30 -81.5 -47.5t-92.5 -17.5q-95 0 -175 65z" />
    <glyph glyph-name="nine" unicode="9" horiz-adv-x="617" 
d="M453.5 28.5q66.5 39.5 105 106.5t38.5 146q0 80 -40 146t-106 104.5t-142 38.5q-81 0 -147.5 -40t-104 -107t-37.5 -144q0 -76 38.5 -143t104.5 -107t145 -40t145.5 39.5zM133 475q36 31 81.5 48.5t94.5 17.5q48 0 92.5 -18t78.5 -48h-347zM502 454q66 -79 66 -175
q0 -46 -15.5 -88.5t-43.5 -77.5h-346zM113 104q-31 36 -48 81t-17 94q2 97 58 167h346zM134 84h349q-37 -30 -81.5 -47.5t-92.5 -17.5q-95 0 -175 65z" />
    <glyph glyph-name="colon" unicode=":" horiz-adv-x="285" 
d="M22 5.5q-20 17.5 -20 47.5q0 18 5 32q14 46 50 74.5t80 28.5q37 0 57.5 -19t20.5 -51q0 -13 -5 -33q-13 -43 -50 -70t-83 -27q-35 0 -55 17.5zM89 323.5q-20 17.5 -20 47.5q0 18 5 32q14 46 50 74.5t80 28.5q37 0 57.5 -19t20.5 -51q0 -13 -5 -33q-13 -43 -50 -70
t-83 -27q-35 0 -55 17.5z" />
    <glyph glyph-name="semicolon" unicode=";" horiz-adv-x="289" 
d="M94 322.5q-20 17.5 -20 47.5q0 18 5 32q14 46 50 74.5t80 28.5q37 0 57.5 -19t20.5 -51q0 -13 -5 -33q-13 -43 -50 -70t-83 -27q-35 0 -55 17.5zM-19 -104.5q-5 5.5 -5 13.5q0 18 21 25q25 10 44.5 26t22.5 32l1 5q0 11 -17 16q-44 13 -44 56q0 30 16.5 56t44 42t60.5 16
q37 0 57.5 -19.5t20.5 -56.5q0 -15 -5 -38q-11 -55 -46.5 -95.5t-79 -62t-77.5 -21.5q-9 0 -14 5.5z" />
    <glyph glyph-name="less" unicode="&#x3c;" horiz-adv-x="485" 
d="M374 44q-57 7 -141.5 40t-151.5 70q-61 33 -61 83q0 6 2 20q15 65 102 102q83 37 183 70t157 40q40 4 40 -29q0 -4 -2 -18q-6 -27 -21 -42.5t-47 -25.5q-192 -66 -237 -85q-10 -4 -13 -6t-4 -7q0 -8 12 -13q43 -19 100 -43t100 -41q22 -8 31.5 -19t9.5 -29q0 -12 -2 -20
q-10 -50 -57 -47z" />
    <glyph glyph-name="equal" unicode="=" horiz-adv-x="473" 
d="M83 283q-25 0 -38.5 6t-10.5 23q7 33 32.5 55.5t61.5 22.5h301q25 0 38 -6.5t10 -23.5q-6 -32 -31.5 -54.5t-62.5 -22.5h-300zM49 123q-25 0 -38.5 6t-10.5 23q7 33 32.5 55.5t61.5 22.5h301q25 0 38 -6.5t10 -23.5q-6 -32 -31.5 -54.5t-62.5 -22.5h-300z" />
    <glyph glyph-name="greater" unicode="&#x3e;" horiz-adv-x="485" 
d="M7.5 133q15.5 15 48.5 26q50 17 117 41t118 43q16 6 16 13l1 4q0 2 -2.5 4t-5 3t-3.5 2q-46 24 -201 85q-22 8 -31.5 19.5t-9.5 28.5q0 6 2 20q7 29 21.5 39t36.5 8q54 -7 140 -40t153 -70q61 -31 61 -83q0 -37 -26.5 -68t-77.5 -54q-84 -37 -182 -70t-158 -40
q-40 -3 -40 29q0 11 2 18q5 27 20.5 42z" />
    <glyph glyph-name="question" unicode="?" horiz-adv-x="538" 
d="M227 257q0 8 1 13q9 45 32.5 76t64.5 70q32 30 49.5 52t23.5 50q5 20 5 42q0 59 -51 59q-30 0 -53.5 -22t-31.5 -56q-9 -46 -37.5 -70t-65.5 -24q-29 0 -47.5 16.5t-18.5 46.5q0 13 2 21q10 48 48.5 89.5t98 66.5t129.5 25q92 0 148 -36t56 -102q0 -19 -4 -35
q-7 -37 -28 -65.5t-46.5 -49t-68.5 -49.5q-45 -30 -72.5 -52.5t-47.5 -51.5q-18 -20 -30.5 -30t-27.5 -10q-28 0 -28 26zM149.5 9.5q-21.5 20.5 -21.5 53.5q0 15 2 23q10 45 43.5 73.5t77.5 28.5q39 0 62 -21t23 -56q0 -34 -17.5 -62t-46.5 -44t-63 -16q-38 0 -59.5 20.5z
" />
    <glyph glyph-name="at" unicode="@" horiz-adv-x="694" 
d="M559 479q56 -25 88.5 -71.5t32.5 -107.5q0 -29 -5 -50q-16 -74 -58.5 -126.5t-97.5 -79t-108 -26.5q-46 0 -65.5 17t-17.5 51q-18 -31 -48 -50t-65 -19q-41 0 -64 21.5t-23 59.5q0 9 4 31q11 51 42.5 98.5t77.5 77t97 29.5q54 0 73 -32q13 16 45 24t65 8q6 0 11 -3t5 -9
q0 -3 -2 -9l-74 -163q-15 -34 -15 -46q0 -17 20 -17q25 0 54.5 19.5t54.5 56t35 84.5q4 17 4 38q0 46 -23.5 84.5t-70 61t-112.5 22.5q-83 0 -160.5 -40t-132 -108t-71.5 -148q-7 -29 -7 -60q0 -60 27 -106.5t75 -72t110 -25.5q78 0 136.5 26t107.5 65q12 9 26 9
q13 0 20.5 -5t7.5 -11t-5 -11q-27 -29 -74 -57.5t-106.5 -47.5t-120.5 -19q-77 0 -136 29.5t-92 83t-33 123.5q0 35 7 67q21 100 85 182t156.5 129.5t196.5 47.5q67 0 123 -25zM368 260q-6 11 -17 11q-25 0 -46 -37t-29 -74q-3 -12 -3 -23q0 -17 6 -28.5t17 -11.5
q16 0 34.5 23.5t31 56t12.5 56.5q0 16 -6 27z" />
    <glyph glyph-name="A" unicode="A" horiz-adv-x="784" 
d="M-41 25q0 7 1 10q2 13 17 25t34 19q28 10 46 27.5t39 53.5l124 207q42 69 124 207q9 15 9 32q0 21 -13 28q-17 9 -17 27q0 7 1 10q2 12 15 23.5t40 11.5h91q49 0 76 -15t37.5 -36t15.5 -50l28 -161q20 -115 53 -299q4 -24 11 -35.5t25 -21.5q20 -13 20 -34q0 -54 -72 -54
h-177q-53 0 -74.5 4.5t-21.5 23.5q0 14 5.5 22.5t18.5 16.5q24 15 33.5 29.5t6.5 40.5l-3 24q-2 17 -13.5 27.5t-26.5 10.5h-160q-21 0 -32 -5t-22 -23l-11 -21q-19 -35 -19 -54t19 -26q31 -12 25 -36q-7 -35 -62 -35h-148q-43 0 -43 26zM399 284q15 0 26.5 6.5t10.5 16.5
l-21 194q-1 8 -4 12.5t-7 4.5q-9 0 -18 -17l-110 -193q-3 -6 -3 -9q0 -15 31 -15h95z" />
    <glyph glyph-name="B" unicode="B" horiz-adv-x="698" 
d="M-4.5 5.5q-13.5 5.5 -13.5 20.5q0 18 10.5 30t30.5 27q31 22 45.5 43.5t22.5 61.5l69 324q6 29 6 45t-6.5 29.5t-23.5 30.5q-11 11 -17.5 21.5t-3.5 23.5q5 22 20.5 30t52.5 8q79 0 167 5q25 1 53 2t56 1q126 0 180.5 -35.5t54.5 -93.5q0 -65 -32.5 -106t-85.5 -71
q-10 -5 -10 -12q0 -5 8 -8q40 -13 72.5 -47t32.5 -91q0 -56 -28 -112.5t-109.5 -98t-228.5 -41.5q-55 0 -141 4t-137 4q-31 0 -44.5 5.5zM373 414q39 0 67.5 22.5t43 56.5t14.5 70q0 34 -18 51.5t-49 17.5h-35q-15 0 -23 -9t-12 -27l-33 -154q-1 -4 -1 -11q0 -9 4.5 -13
t16.5 -4h25zM323 84q47 0 81 25.5t51 65.5t17 82q0 41 -23 61.5t-65 20.5h-30q-22 0 -36.5 -10t-18.5 -27l-36 -169q-2 -14 -2 -19q0 -15 8 -22.5t28 -7.5h26z" />
    <glyph glyph-name="C" unicode="C" horiz-adv-x="671" 
d="M165 23q-63 35 -97 98.5t-34 146.5q0 108 54.5 211t151 168t216.5 65q67 0 125 -21.5t92.5 -60t34.5 -86.5q0 -28 -13.5 -56t-40.5 -46t-64 -18q-34 0 -55 22t-38 88q-8 40 -27 62t-56 22q-49 0 -82.5 -47t-50 -112t-16.5 -119q0 -85 37 -134.5t116 -49.5
q59 0 105.5 26.5t70.5 64.5q13 16 32 16q12 0 20.5 -7.5t8.5 -21.5q0 -6 -1 -10q-12 -51 -58.5 -106.5t-120 -92.5t-163.5 -37q-84 0 -147 35z" />
    <glyph glyph-name="D" unicode="D" horiz-adv-x="779" 
d="M181 -4q-94 4 -141 4q-31 0 -44.5 5.5t-13.5 20.5q0 18 10.5 30t30.5 27q33 23 47 45t22 63l68 318q6 32 6 43q0 35 -30 65q-12 13 -18 23t-3 22q5 22 20.5 30t52.5 8q52 0 152 5q45 3 85 3q167 0 264.5 -70.5t97.5 -206.5q0 -126 -58.5 -225.5t-171.5 -156.5t-270 -57
q-26 0 -106 4zM466.5 141q54.5 58 81 139.5t26.5 152.5q0 88 -43.5 139.5t-116.5 51.5q-18 0 -29 -8.5t-15 -28.5l-96 -453q-2 -14 -2 -18q0 -19 14.5 -26t47.5 -7q78 0 132.5 58z" />
    <glyph glyph-name="E" unicode="E" horiz-adv-x="666" 
d="M645 207q0 -38 -49 -122q-39 -65 -58 -86t-40 -21q-10 0 -17 2.5t-13 5.5q-15 7 -28.5 10.5t-42.5 3.5h-357q-31 0 -44.5 5.5t-13.5 20.5l2 12q4 20 39 45q33 23 47 45t22 63l68 318q6 27 6 44q0 19 -7 33.5t-23 30.5q-12 13 -18 23t-3 22q5 22 20.5 30t52.5 8h333
q29 0 44.5 3.5t32.5 10.5q20 8 35 8q20 0 29.5 -21.5t19.5 -85.5q7 -45 7 -68q0 -87 -58 -87q-17 0 -28.5 11t-16.5 29q-15 57 -23.5 78.5t-24 29.5t-50.5 8h-69q-23 0 -34 -9t-18 -41l-28 -130q-1 -4 -1 -10t3 -9t11 -3h39q18 0 24 8t8 33q2 24 11 36t28 12q20 0 30 -9
t14.5 -32t8.5 -76q3 -39 3 -66q0 -39 -10 -54t-37 -15q-20 0 -28.5 9t-10.5 29q-3 24 -9.5 31.5t-29.5 7.5h-46q-30 0 -39 -38l-35 -163q-2 -14 -2 -19q0 -14 8 -19t29 -5h104q43 0 73 26.5t64 88.5q22 41 61 41q35 0 35 -33z" />
    <glyph glyph-name="F" unicode="F" horiz-adv-x="622" 
d="M-4.5 5.5q-13.5 5.5 -13.5 20.5l2 12q4 20 39 45q32 23 46 45t23 63l68 318q6 27 6 44q0 19 -7 33.5t-23 30.5q-12 13 -18 23t-3 22q5 22 20.5 30t52.5 8h314q30 0 45.5 3.5t32.5 10.5q20 8 35 8q16 0 24.5 -9t14 -31.5t11.5 -68.5q5 -32 5 -66q0 -45 -13.5 -66
t-41.5 -21q-17 0 -29.5 11.5t-16.5 30.5q-12 58 -19 78.5t-22 28t-50 7.5h-57q-26 0 -37 -10.5t-17 -38.5l-31 -145l-2 -12q0 -14 16 -14h30q23 0 30 9t9 32q3 26 12.5 37t34.5 11q21 0 29.5 -13.5t10.5 -40.5l9 -120q2 -38 -8 -58t-40 -20q-19 0 -27.5 8.5t-11.5 29.5
q-5 39 -47 39h-31q-23 0 -32.5 -11t-14.5 -35l-16 -73q-4 -17 -4 -33q0 -20 9.5 -34t34.5 -32q13 -9 21 -19t8 -25q0 -6 -1 -9q-5 -22 -25.5 -30.5t-67.5 -8.5h-222q-31 0 -44.5 5.5z" />
    <glyph glyph-name="G" unicode="G" horiz-adv-x="734" 
d="M178.5 23.5q-67.5 35.5 -105.5 101t-38 150.5q0 106 56.5 207.5t153.5 165.5t211 64q67 0 125 -21.5t93 -60.5t35 -88q0 -28 -13 -56.5t-39.5 -47t-64.5 -18.5q-37 0 -61 20.5t-34 85.5q-7 45 -25.5 68.5t-57.5 23.5q-52 0 -84.5 -43.5t-46.5 -105.5t-14 -122
q0 -98 34 -165.5t97 -67.5q35 0 57 15.5t26 37.5l3 16q3 15 3 24q0 13 -7 20.5t-28 22.5q-13 9 -20.5 22t-4.5 27q4 21 19.5 28.5t52.5 9.5q21 1 90 1q70 0 92 -1q32 -2 44.5 -7.5t12.5 -19.5q0 -19 -10 -30t-29 -24q-25 -16 -33.5 -28t-16.5 -48l-5 -23
q-17 -82 -96.5 -125.5t-217.5 -43.5q-86 0 -153.5 35.5z" />
    <glyph glyph-name="H" unicode="H" horiz-adv-x="834" 
d="M-4.5 5.5q-13.5 5.5 -13.5 20.5l2 12q4 20 39 45q32 23 46 45t23 63l68 318q6 27 6 44q0 19 -7 33.5t-23 30.5q-12 13 -18 23t-3 22q5 22 20.5 30t52.5 8h217q32 0 45.5 -5.5t13.5 -20.5q0 -4 -2 -12q-4 -20 -39 -45q-32 -23 -46 -45t-23 -63l-9 -42q-3 -13 -3 -24
q0 -19 10 -26.5t30 -7.5h139q25 0 40 13.5t22 46.5l9 40q6 27 6 44q0 19 -7 33.5t-23 30.5q-12 13 -18 23t-3 22q5 22 20.5 30t52.5 8h217q32 0 45.5 -5.5t13.5 -20.5q0 -4 -2 -12q-4 -20 -39 -45q-32 -23 -46 -45t-23 -63l-68 -318q-6 -27 -6 -44q0 -19 7 -33.5t23 -30.5
q12 -13 18 -23t3 -22q-5 -22 -21 -30t-53 -8h-217q-31 0 -44.5 5.5t-13.5 20.5l2 12q4 20 39 45q32 23 46 45t23 63l12 56q3 17 3 27q0 20 -9.5 27.5t-29.5 7.5h-139q-27 0 -41 -12t-22 -50l-12 -56q-6 -27 -6 -44q0 -19 7 -33.5t23 -30.5q12 -13 18 -23t3 -22
q-5 -22 -21 -30t-53 -8h-217q-31 0 -44.5 5.5z" />
    <glyph glyph-name="I" unicode="I" horiz-adv-x="403" 
d="M40 0q-31 0 -44.5 5.5t-13.5 20.5l2 12q4 20 39 45q33 23 47 45t22 63l68 318q6 27 6 44q0 19 -7 33.5t-23 30.5q-12 13 -18 23t-3 22q5 22 20.5 30t52.5 8h102h14h102q32 0 45.5 -5.5t13.5 -20.5q0 -4 -2 -12q-4 -20 -39 -45q-33 -23 -47 -45t-22 -63l-68 -318
q-6 -27 -6 -44q0 -19 7 -33.5t23 -30.5q12 -13 18 -23t3 -22q-5 -22 -21 -30t-53 -8h-102h-14h-102z" />
    <glyph glyph-name="J" unicode="J" horiz-adv-x="593" 
d="M45 32q-45 44 -45 109q0 23 5 46q9 45 37 72t72 27q29 0 49 -16t20 -41q0 -8 -1 -12q-5 -22 -12 -46q-6 -20 -8 -31q-2 -12 -2 -16q0 -42 57 -42q74 0 98 111q4 20 14 82q18 109 36 197l6 27q5 25 5 39q0 21 -8.5 36t-29.5 33q-13 12 -19.5 20.5t-6.5 22.5q0 7 1 11
q5 22 24 30.5t63 8.5h220q28 0 39 -5.5t11 -20.5q0 -7 -1 -12q-4 -20 -37 -45q-29 -23 -41.5 -45t-21.5 -63l-56 -265q-27 -126 -108.5 -191t-205.5 -65q-109 0 -154 44z" />
    <glyph glyph-name="K" unicode="K" horiz-adv-x="794" 
d="M-4.5 5.5q-13.5 5.5 -13.5 20.5l2 12q4 20 39 45q32 23 46 45t23 63l68 318q6 27 6 44q0 19 -7 33.5t-23 30.5q-12 13 -18 23t-3 22q5 22 20.5 30t52.5 8h216q26 0 37.5 -5.5t11.5 -19.5l-2 -13q-4 -20 -34 -45q-28 -23 -41 -45t-21 -63l-13 -62l-2 -16q0 -11 6 -11
t20 11l117 96q51 43 51 74q0 11 -6 23q-1 3 -5 10.5t-5 14.5t0 14q6 24 30.5 32t77.5 8l49 -1l45 1q40 0 61 -7t21 -27q0 -6 -1 -9q-5 -22 -20 -32t-41 -16q-29 -5 -51 -16.5t-61 -47.5l-51 -47q-11 -10 -11 -28q0 -9 3 -17l99 -322q7 -22 19.5 -33t32.5 -19q21 -9 21 -31
q0 -7 -1 -10q-5 -23 -25 -32t-52 -9h-208q-24 0 -38 6t-14 22q0 20 8.5 29t26.5 22q10 7 14.5 14.5t4.5 18.5q0 13 -6 32l-45 149q-10 30 -25 30q-9 0 -23 -12l-25 -22q-15 -12 -24 -24t-13 -31l-9 -43q-6 -27 -6 -45t6 -32.5t20 -30.5q11 -14 16.5 -23.5t2.5 -21.5
q-5 -22 -20 -30t-49 -8h-217q-31 0 -44.5 5.5z" />
    <glyph glyph-name="L" unicode="L" horiz-adv-x="636" 
d="M452.5 -18.5q-8.5 3.5 -9.5 4.5q-16 7 -31.5 10.5t-48.5 3.5h-221h-102q-31 0 -44.5 5.5t-13.5 20.5l2 12q4 20 39 45q33 23 47 45t22 63l68 318q6 27 6 44q0 18 -7 32.5t-23 31.5q-12 13 -18 23t-3 22q5 22 20.5 30t52.5 8h220q39 0 55 -6t16 -21q0 -7 -1 -11
q-4 -21 -45 -45q-38 -22 -54 -44.5t-24 -63.5l-81 -378l-2 -16q0 -16 9.5 -21.5t27.5 -5.5h70q45 0 78 26t66 85q26 41 60 41q33 0 33 -33q0 -39 -48 -125q-35 -62 -54.5 -83t-39.5 -21q-13 0 -21.5 3.5z" />
    <glyph glyph-name="M" unicode="M" horiz-adv-x="949" 
d="M-9 8q-15 8 -15 24q0 30 43 46q26 9 40.5 30t30.5 66l140 383q7 20 7 34t-7 23.5t-20 17.5q-10 6 -15 15.5t-2 21.5q4 21 19.5 27t39.5 6l55 -1q15 -1 41 -1q32 0 46 -5.5t17.5 -16t4.5 -33.5q0 -4 1 -20.5t5 -34.5l60 -280q3 -14 12 -14q4 0 8.5 4t7.5 10l173 281
q15 23 26 60q6 20 12 29t20 14.5t43 5.5t42.5 0.5t20.5 0.5q11 1 46 1q57 0 57 -31q0 -13 -13 -26.5t-27 -19.5q-24 -10 -32.5 -23.5t-12.5 -47.5l-38 -389q-1 -10 -1 -27q0 -25 6.5 -38.5t24.5 -20.5q34 -13 29 -38q-5 -22 -23 -31.5t-32 -9.5h-239q-64 0 -56 41
q3 12 15 22.5t24 14.5q27 10 39 24.5t15 43.5l28 231q0 5 -2 9t-6 4q-5 0 -16 -15l-230 -349q-16 -25 -29 -25t-20 23l-86 351q-4 15 -11 15q-4 0 -8 -3.5t-5 -9.5l-78 -234q-5 -17 -5 -26q0 -17 10.5 -25t30.5 -14q23 -7 23 -30q0 -20 -17.5 -34t-51.5 -14h-127
q-23 0 -38 8z" />
    <glyph glyph-name="N" unicode="N" horiz-adv-x="766" 
d="M-7.5 5q-11.5 6 -11.5 18q0 34 39 51q25 11 36.5 23t21.5 43.5t26 107.5l56 261q10 44 10 69q0 18 -7 28.5t-24 19.5q-28 13 -23 41q4 18 18 26t48 8l142 -1q17 0 27 -4.5t16 -13.5l209 -320q4 -6 9.5 -9t11.5 -3t11.5 5.5t7.5 15.5l30 138q10 44 10 69q0 18 -7 28.5
t-24 19.5q-28 13 -23 41q4 18 18 26t48 8h123q29 0 40.5 -5.5t11.5 -18.5q0 -34 -39 -51q-26 -12 -37 -24t-20.5 -42t-26.5 -108l-89 -417q-4 -18 -15 -28t-25 -10q-21 0 -32 17l-295 433q-6 9 -16 9q-12 0 -17 -19l-52 -246q-10 -44 -10 -69q0 -19 7 -29t24 -19
q28 -13 23 -41q-4 -18 -18 -26t-48 -8h-124q-29 0 -40.5 6z" />
    <glyph glyph-name="O" unicode="O" horiz-adv-x="785" 
d="M174.5 20.5q-68.5 32.5 -105.5 94t-37 145.5q0 111 56.5 215.5t160.5 170.5t241 66q94 0 163.5 -32.5t106.5 -93.5t37 -145q0 -111 -56.5 -216t-161 -171t-242.5 -66q-94 0 -162.5 32.5zM472.5 143.5q49.5 61.5 75.5 150t26 163.5q0 73 -26.5 117t-78.5 44
q-66 0 -115 -61.5t-74.5 -150t-25.5 -164.5q0 -72 26.5 -116t77.5 -44q65 0 114.5 61.5z" />
    <glyph glyph-name="P" unicode="P" horiz-adv-x="694" 
d="M-4.5 5.5q-13.5 5.5 -13.5 20.5q0 18 10.5 30t30.5 27q32 24 46 46t23 63l68 317q11 48 11 65q0 18 -7.5 30.5t-24.5 21.5q-28 13 -23 41q4 18 18 26t48 8q71 0 149 4q14 0 50.5 1.5t78.5 1.5q139 0 210 -47t71 -131q0 -60 -32.5 -120t-113 -102.5t-214.5 -42.5h-48
q-22 0 -28.5 -6.5t-11.5 -29.5l-8 -38q-4 -17 -4 -33q0 -20 10.5 -34.5t36.5 -31.5q27 -17 27 -42q0 -24 -17.5 -37t-70.5 -14l-227 1q-31 0 -44.5 5.5zM378 350q75 0 108.5 47.5t33.5 109.5q0 51 -27.5 80t-71.5 29h-15q-17 0 -25 -7t-13 -30l-43 -200q-2 -10 -2 -14
q0 -9 6.5 -12t24.5 -3h24z" />
    <glyph glyph-name="Q" unicode="Q" horiz-adv-x="785" 
d="M727 -40q0 -22 -21 -48t-62 -44.5t-98 -18.5q-53 0 -91 12.5t-87 36.5q-42 21 -72.5 31t-68.5 10q-16 0 -29.5 -1t-22.5 -2q-27 -3 -51 -3q-28 0 -43 7.5t-12 26.5q2 16 34 30t84 18q-75 31 -115 93.5t-40 151.5q0 111 56.5 215.5t160.5 170.5t241 66q94 0 163.5 -32.5
t106.5 -93.5t37 -145q0 -104 -50 -203.5t-143 -167.5t-217 -80q14 -4 20 -7q43 -14 77 -21.5t78 -7.5q24 0 41.5 5t45.5 16q12 5 23.5 9t20.5 4q14 0 27 -10q7 -6 7 -18zM354 556.5q-49 -61.5 -74.5 -150t-25.5 -164.5q0 -72 26.5 -116t77.5 -44q65 0 114.5 61.5t75.5 150
t26 163.5q0 73 -26.5 117t-78.5 44q-66 0 -115 -61.5z" />
    <glyph glyph-name="R" unicode="R" horiz-adv-x="774" 
d="M-7 5q-11 5 -11 18q0 19 11 33t30 27q33 24 47 45.5t22 62.5l68 318q6 27 6 44t-7 32t-23 31q-12 13 -17.5 24.5t-2.5 26.5q4 18 18 26t48 8q41 0 159 4q34 1 66.5 2t58.5 1q138 0 208 -44.5t70 -123.5q0 -69 -44 -125t-134 -93q-7 -2 -8 -7t4 -7q34 -13 51.5 -30
t25.5 -41.5t13 -68.5q6 -46 13.5 -66.5t23.5 -20.5q9 0 18.5 2.5t13.5 2.5q12 0 12 -13q0 -18 -15 -37.5t-50.5 -33t-92.5 -13.5t-85 19.5t-35 50.5t-7 82q0 140 -82 140h-25q-20 0 -29.5 -7.5t-15.5 -32.5l-11 -50q-6 -25 -6 -44q0 -18 6.5 -33t22.5 -31q12 -12 18 -21.5
t3 -23.5q-4 -19 -18.5 -29t-47.5 -10l-229 1q-30 0 -41 5zM386 365q70 0 102.5 41.5t32.5 99.5q0 47 -23.5 78.5t-69.5 31.5h-21q-19 0 -27 -7t-13 -31l-35 -164q-3 -13 -3 -24q0 -14 7.5 -19.5t26.5 -5.5h23z" />
    <glyph glyph-name="S" unicode="S" horiz-adv-x="619" 
d="M73.5 29.5q-76.5 41.5 -76.5 116.5q0 43 20 75t61 32q30 0 51 -17t22 -53q2 -50 26 -74.5t63 -24.5q42 0 71 26t29 66t-23 61.5t-75 44.5q-77 34 -113.5 83t-36.5 116q0 68 31.5 120.5t91 81.5t142.5 29q77 0 138.5 -21t97 -60t35.5 -90q0 -36 -19.5 -57t-59.5 -21
q-27 0 -45 12.5t-20 46.5q-3 47 -32.5 71.5t-68.5 24.5q-77 0 -77 -78q0 -31 23 -53.5t85 -47.5q64 -26 101.5 -54t54.5 -65t17 -92q0 -57 -34.5 -112t-105.5 -91.5t-174 -36.5q-123 0 -199.5 41.5z" />
    <glyph glyph-name="T" unicode="T" horiz-adv-x="699" 
d="M123.5 6q-17.5 6 -17.5 22q0 6 1 10q3 12 16 23t32 22q41 23 58 45t25 63l83 388l2 16q0 12 -5.5 16.5t-16.5 4.5h-24q-25 0 -42.5 -19.5t-56.5 -78.5q-27 -41 -46.5 -58t-41.5 -17q-35 0 -35 32q0 23 14 56.5t39 81.5q57 109 96 109q11 0 21 -3.5t13 -4.5q30 -14 66 -14
h275q29 0 46.5 3.5t36.5 10.5q22 8 34 8q19 0 30 -24t18 -85q6 -45 6 -84q0 -42 -12.5 -64t-42.5 -22q-21 0 -34.5 17t-23.5 58q-11 43 -16 60t-14.5 27.5t-26.5 10.5h-24q-16 0 -24 -8t-12 -29l-83 -388q-5 -27 -5 -41q0 -21 9.5 -35.5t32.5 -31.5q18 -13 25 -22.5t4 -23.5
q-3 -18 -21 -28t-61 -10l-238 1q-42 0 -59.5 6z" />
    <glyph glyph-name="U" unicode="U" horiz-adv-x="779" 
d="M87 195q0 42 10 88l48 226q6 29 6 48q0 18 -6.5 31.5t-23.5 28.5q-21 18 -21 37q0 22 15 34.5t54 12.5l222 -1q31 0 44.5 -6t13.5 -22q0 -7 -1 -11q-4 -20 -40 -44q-33 -23 -47 -45t-22 -63l-46 -217q-7 -37 -7 -58q0 -60 33.5 -94t96.5 -34q79 0 128 44t66 122l50 232
q7 29 7 51t-7 35t-22 26q-26 24 -21 45q4 21 21.5 30t52.5 9h104q31 0 46 -7t15 -23q0 -14 -12 -28t-30 -26q-28 -19 -43 -41t-25 -71l-48 -223q-32 -147 -115.5 -220t-224.5 -73q-271 0 -271 207z" />
    <glyph glyph-name="V" unicode="V" horiz-adv-x="781" 
d="M335 -5q-32 0 -53.5 18.5t-28.5 54.5l-88 466q-6 34 -17 50t-36 27q-11 6 -16.5 13t-5.5 17q0 3 2 13q4 20 18.5 30t41 13t75.5 3h149q59 0 80 -7.5t21 -24.5q0 -7 -1 -11q-2 -11 -11 -21t-20 -15q-34 -13 -47.5 -25t-13.5 -35q0 -11 1 -17l42 -278q5 -26 15 -26
q11 0 25 25q110 194 166 291q10 17 10 28q0 10 -9.5 17t-32.5 15q-18 10 -18 30q0 6 1 9q5 24 25 34.5t62 10.5l66 -1l72 1q29 0 43.5 -10.5t10.5 -31.5q-3 -18 -13 -27t-30 -17q-30 -10 -49 -25t-39 -48q-112 -186 -208 -343l-79 -130q-19 -33 -48.5 -53t-57.5 -20h-4z" />
    <glyph glyph-name="W" unicode="W" horiz-adv-x="1124" 
d="M313 -5q-70 0 -82 74l-66 463q-5 37 -16.5 53t-36.5 26q-21 11 -21 31q0 8 1 12q4 20 18.5 30t41 13t75.5 3h149q49 0 67 -7.5t18 -24.5q0 -8 -1 -12q-2 -11 -11 -20.5t-20 -14.5q-25 -7 -34.5 -20t-9.5 -37q0 -14 1 -22l21 -293q1 -10 4 -16t8 -6q11 0 21 21l116 212
q22 38 22 69q0 7 -2 25q-2 19 -10 34.5t-23 22.5q-2 3 -8 9.5t-8.5 12.5t-2.5 14q0 53 81 53l90 -1l84 1q37 0 53.5 -8t16.5 -25t-9 -28t-28 -23q-32 -12 -41.5 -24.5t-6.5 -44.5l24 -300q3 -18 12 -18q10 0 20 18l170 309q10 17 10 28q0 10 -9.5 16.5t-34.5 16.5
q-19 11 -19 30q0 6 1 9q5 24 24.5 34t62.5 10h126q56 0 56 -33q0 -6 -1 -9q-3 -17 -14 -26.5t-30 -16.5q-34 -10 -52.5 -25.5t-36.5 -47.5l-262 -473q-20 -36 -47.5 -55t-59.5 -19h-4q-34 0 -57 18.5t-26 52.5l-20 262q-1 19 -9 19q-6 0 -18 -19q-62 -111 -73 -130l-73 -131
q-20 -35 -48.5 -53.5t-57.5 -18.5h-5z" />
    <glyph glyph-name="X" unicode="X" horiz-adv-x="786" 
d="M-23 22q0 6 1 9q4 17 18 29t44 25q19 8 35.5 19t42.5 39l166 176q16 16 16 38q0 9 -3 15l-84 175q-13 27 -24.5 38.5t-35.5 25.5q-11 6 -16.5 13t-5.5 18q0 4 2 14q6 26 26 35t63 9h231q35 0 49.5 -6.5t14.5 -21.5q0 -19 -9.5 -31t-29.5 -21q-23 -11 -33 -18.5t-10 -20.5
q0 -8 4 -16l37 -77q6 -12 15 -12t20 13l63 70q19 20 19 40q0 16 -15 26q-18 11 -25 20.5t-5 20.5q4 21 24 28t59 7h133q53 0 53 -27q0 -6 -1 -9q-4 -17 -18 -29t-44 -25q-17 -7 -34 -18.5t-44 -39.5l-131 -137q-16 -18 -16 -33q0 -6 3 -12l107 -222q14 -29 24.5 -40
t33.5 -25q12 -7 17.5 -13.5t5.5 -17.5q0 -4 -2 -14q-6 -23 -25.5 -33.5t-69.5 -10.5h-225q-32 0 -48 6.5t-16 22.5q0 6 1 10q3 15 12.5 24.5t29.5 18.5q4 2 15 6.5t17 11.5t6 17q0 11 -7 26l-50 104q-9 19 -18 19q-8 0 -22 -15l-98 -109q-20 -21 -20 -40q0 -15 16 -26
q18 -11 25 -20.5t5 -20.5q-5 -21 -24.5 -28t-58.5 -7h-133q-53 0 -53 27z" />
    <glyph glyph-name="Y" unicode="Y" horiz-adv-x="702" 
d="M150.5 5.5q-13.5 5.5 -13.5 20.5l2 12q4 20 39 45q33 23 47 45t22 63l6 29q3 15 3 31q0 39 -13 78l-74 222q-7 20 -19 31t-23 17.5t-15 9.5q-12 8 -17 14.5t-5 18.5q0 3 2 15q6 26 26.5 34.5t64.5 8.5h202q50 0 66 -10.5t13 -27.5q-3 -16 -12.5 -26t-25.5 -19
q-35 -19 -35 -44q0 -8 3 -17l40 -117q6 -15 15 -15q10 0 20 15l95 130q12 17 12 27q0 9 -6 16t-18 16q-13 10 -13 22q0 3 2 11q5 23 21.5 31t50.5 8h124q50 0 50 -26q0 -22 -15.5 -34t-42.5 -25q-15 -8 -26 -19.5t-40 -48.5l-163 -207q-36 -45 -52 -120l-6 -29
q-6 -27 -6 -44q0 -19 6.5 -33.5t22.5 -30.5q12 -12 18 -21.5t3 -23.5q-4 -19 -18.5 -29t-47.5 -10l-225 1q-31 0 -44.5 5.5z" />
    <glyph glyph-name="Z" unicode="Z" horiz-adv-x="667" 
d="M456 -16q-71 16 -145 16h-295q-23 0 -34 7t-11 18q0 23 35 61l423 489q15 17 15 28q0 13 -22 13h-101q-25 0 -43 -9.5t-37 -32.5t-51 -73q-16 -22 -29.5 -31.5t-32.5 -9.5q-15 0 -24.5 8.5t-9.5 27.5q0 42 48 117q35 57 47.5 76t23 26t25.5 7q14 0 33 -7q17 -7 36 -11
t52 -4h351q13 0 20 -4.5t8 -11.5q2 -10 -1 -20.5t-11 -18.5l-453 -500q-31 -34 -31 -48q0 -12 23 -12h144q34 0 62 26t67 90q15 22 29.5 31t32.5 9q13 0 22.5 -8.5t9.5 -28.5q0 -42 -49 -120q-33 -55 -46 -74t-22 -25t-24 -6q-8 0 -35 5z" />
    <glyph glyph-name="bracketleft" unicode="[" horiz-adv-x="402" 
d="M32 -149q-34 0 -47 7.5t-13 25.5q0 6 4 28l164 773q5 23 12.5 35.5t23.5 19t47 6.5h220q12 0 17.5 -4t5.5 -17q0 -12 -2 -20q-4 -21 -13.5 -30t-24.5 -9h-74q-22 0 -31 -8t-12 -24l-142 -670q-2 -10 -2 -13q0 -10 6.5 -15t23.5 -5h70q14 0 21 -6t7 -19q0 -9 -1 -14
q-6 -25 -15 -33t-25 -8h-220z" />
    <glyph glyph-name="backslash" unicode="\" horiz-adv-x="564" 
d="M121 637q-4 15 -4 31q0 24 16.5 35t56.5 11q33 0 48 -7t20.5 -20.5t12.5 -45.5l180 -746q4 -15 4 -30q0 -23 -16.5 -34.5t-56.5 -11.5q-32 0 -47 7.5t-20.5 20t-14.5 44.5z" />
    <glyph glyph-name="bracketright" unicode="]" horiz-adv-x="392" 
d="M-39 -149q-12 0 -18 4t-6 16q0 7 3 21q4 21 14 30t28 9h70q22 0 31 8t11 25l143 670q2 10 2 13q0 10 -6.5 14.5t-23.5 4.5h-74q-25 0 -25 23q0 4 2 16q6 25 14.5 33t24.5 8h220q35 0 48 -8t13 -25q0 -6 -4 -28l-164 -773q-5 -24 -12.5 -36.5t-23.5 -18.5t-47 -6h-220z
" />
    <glyph glyph-name="asciicircum" unicode="^" horiz-adv-x="386" 
d="M90 531.5q-6 6.5 -6 14.5q0 23 48.5 65t101.5 74q28 16 55 16q26 0 47 -16q34 -27 64 -70t30 -65q0 -9 -8.5 -17t-19.5 -8q-23 0 -54 25q-35 27 -55 39t-26 12q-5 0 -31 -12.5t-70 -38.5q-20 -13 -36 -19t-24 -6q-10 0 -16 6.5z" />
    <glyph glyph-name="underscore" unicode="_" horiz-adv-x="517" 
d="M-50 -154q-35 0 -30 26q5 22 19.5 35.5t32.5 13.5h442q34 0 28 -25q-4 -22 -18.5 -36t-31.5 -14h-442z" />
    <glyph glyph-name="grave" unicode="`" horiz-adv-x="264" 
d="M215.5 560q-42.5 28 -75 63t-28.5 55q3 17 19.5 24.5t55.5 7.5q42 0 63.5 -6.5t26.5 -29.5q1 -3 8 -22q27 -79 24 -99q-6 -21 -31 -21q-20 0 -62.5 28z" />
    <glyph glyph-name="a" unicode="a" horiz-adv-x="638" 
d="M42.5 30q-35.5 42 -35.5 113q0 86 34 169.5t98.5 137.5t152.5 54q48 0 96 -21q34 -15 62 -15q10 0 19 3t16.5 6.5t12.5 5.5q17 7 22 11q9 4 18 7.5t16 3.5q13 0 19.5 -7t6.5 -17q0 -6 -1 -9l-64 -299q-3 -12 -3 -21q0 -24 19 -24q8 0 15 4.5t21 16.5q12 9 22 9q9 0 14 -6
t5 -17q0 -17 -9 -34q-24 -47 -66 -80t-96 -33t-82 29t-25 73q0 12 -6 12q-4 0 -12 -9q-35 -46 -73 -75.5t-88 -29.5q-73 0 -108.5 42zM305.5 164.5q28.5 36.5 41.5 85.5t17.5 74.5t4.5 42.5q0 59 -47 59q-32 0 -59 -37t-42.5 -88.5t-15.5 -91.5q0 -38 10 -59.5t30 -21.5
q32 0 60.5 36.5z" />
    <glyph glyph-name="b" unicode="b" horiz-adv-x="589" 
d="M245.5 -6q-26.5 6 -46.5 15q-37 15 -64 15q-18 0 -41 -10l-19 -9q-5 -2 -20.5 -8.5t-26.5 -6.5q-26 0 -26 24q0 6 2 14q23 85 36 145l75 362q3 14 3 25q0 23 -17 33q-6 3 -16.5 7.5t-15.5 9t-5 11.5q0 18 13 26.5t46 20.5q118 38 166 38q21 0 30.5 -5.5t9.5 -19.5
q0 -3 -2 -15l-52 -245q-3 -13 -3.5 -20t2.5 -7q4 0 10 7t7 9q70 96 165 96q62 0 93.5 -41.5t31.5 -117.5q0 -87 -34 -170t-98.5 -136t-150.5 -53q-26 0 -52.5 6zM325 104.5q27 38.5 42.5 91t15.5 88.5q0 37 -7.5 54.5t-30.5 17.5q-34 0 -66 -37.5t-47 -101.5t-15 -91
q0 -28 12.5 -44t37.5 -16q31 0 58 38.5z" />
    <glyph glyph-name="c" unicode="c" horiz-adv-x="503" 
d="M69 41q-56 53 -56 141q0 80 41.5 155t114.5 122t162 47q46 0 86.5 -17.5t65 -48.5t24.5 -70q0 -37 -17 -58.5t-47 -21.5q-33 0 -45.5 16.5t-22.5 55.5q-12 64 -52 64q-31 0 -56 -28.5t-38.5 -73.5t-13.5 -92q0 -56 22.5 -89.5t66.5 -33.5q31 0 61 14.5t50 32.5
q12 11 24 11q8 0 13 -6.5t5 -16.5q0 -8 -3 -17q-15 -34 -47 -66t-79.5 -52.5t-105.5 -20.5q-97 0 -153 53z" />
    <glyph glyph-name="d" unicode="d" horiz-adv-x="632" 
d="M44 30.5q-36 42.5 -36 112.5q0 85 33.5 169t97 138t147.5 54q31 0 52 -5.5t36.5 -12.5t19.5 -7q3 0 6 11l9 45q3 14 3 25q0 23 -17 33q-6 3 -16.5 7.5t-15.5 9t-5 11.5q0 18 13 26.5t46 20.5q118 38 166 38q21 0 30.5 -5.5t9.5 -19.5q0 -3 -2 -15l-106 -504
q-2 -10 -2 -16q0 -18 16 -18q10 0 16.5 3t13.5 9t11 9q11 8 20 8t14.5 -6t5.5 -17q0 -14 -10 -33q-25 -47 -67 -80t-95 -33t-80.5 29.5t-25.5 74.5v3q0 9 -5 9t-12 -10q-35 -45 -74 -75.5t-89 -30.5q-72 0 -108 42.5zM307 164.5q29 36.5 43 85.5q22 77 22 117q0 59 -48 59
q-32 0 -59 -36.5t-43 -88t-16 -91.5q0 -39 10.5 -60.5t30.5 -21.5q31 0 60 36.5z" />
    <glyph glyph-name="e" unicode="e" horiz-adv-x="488" 
d="M69 41q-56 53 -56 140q0 84 42.5 159t117 120.5t165.5 45.5q42 0 75.5 -16t52.5 -43t19 -60q0 -50 -20.5 -84t-76 -58.5t-156.5 -37.5q-9 -2 -13 -4.5t-4 -10.5q0 -6 1 -9q19 -74 95 -74q49 0 102 47q12 9 23 9q9 0 15 -6t6 -16q0 -9 -4 -17q-26 -60 -85.5 -99
t-144.5 -39q-98 0 -154 53zM320 308.5q30 22.5 31 67.5q0 27 -8.5 38.5t-27.5 11.5q-23 0 -45.5 -23.5t-37 -57t-16.5 -60.5q0 -14 8 -14q2 0 10 2q56 13 86 35.5z" />
    <glyph glyph-name="f" unicode="f" horiz-adv-x="360" 
d="M4 -101q-9 8 -9 22q0 3 2 13q4 14 7.5 24.5t5.5 18.5q14 47 27 103l63 303q1 4 1 10q0 22 -25 22h-30q-9 0 -13.5 7.5t-2.5 18.5q5 24 20 38.5t27 14.5h41l-3 24q-5 22 -5 43q0 24 5 46q11 54 69.5 89.5t145.5 35.5q70 0 118 -30t48 -78q0 -6 -2 -20q-4 -20 -22.5 -36.5
t-44.5 -16.5q-28 0 -40 13t-20 42q-3 23 -16.5 36t-37.5 13t-41 -18t-17 -45q0 -21 16 -55q2 -6 7.5 -19t8.5 -24h98q13 0 19.5 -2.5t6.5 -11.5q0 -6 -1 -9q-5 -24 -19.5 -40t-30.5 -16h-37q-13 0 -23 -6.5t-13 -21.5l-69 -333q-8 -37 -15 -93q-3 -28 -16 -42t-49 -20.5
t-108 -7.5q-17 0 -26 8z" />
    <glyph glyph-name="g" unicode="g" horiz-adv-x="579" 
d="M9 -145q-23 12 -34 30.5t-11 40.5q0 28 18 48.5t46 20.5q47 0 78 -45q15 -24 35 -36t55 -12q54 0 85 39.5t48 117.5l10 46q1 3 1 8q0 8 -5 8q-4 0 -12 -9q-33 -43 -72 -71t-96 -28q-73 0 -108.5 39t-35.5 107q0 86 33 165.5t97.5 129.5t153.5 50q29 0 49.5 -5.5
t47.5 -16.5q13 -5 30.5 -9.5t27.5 -4.5t20 3t17.5 6.5t11.5 5.5l25 11q8 4 16 7.5t15 3.5q16 0 22.5 -9.5t3.5 -23.5l-87 -407q-30 -139 -121 -193.5t-197 -54.5q-109 0 -167 38zM315 184q25 30 36 74q12 48 16 69.5t4 39.5q0 59 -45 59q-32 0 -58.5 -34t-42 -82.5
t-15.5 -86.5q0 -69 49 -69q31 0 56 30z" />
    <glyph glyph-name="h" unicode="h" horiz-adv-x="655" 
d="M360 15q-25 27 -25 77q0 35 14 94l26 105q4 13 4 27q0 38 -35 38q-22 0 -46 -15t-43.5 -48t-26.5 -82q-19 -116 -22 -146q-3 -28 -16 -42t-49 -20.5t-108 -7.5q-17 0 -26 8t-9 22q0 3 2 13l12 42q19 63 28 105l75 349q3 14 3 25q0 24 -17 34q-6 3 -16.5 7.5t-15.5 9
t-5 11.5q0 18 13 26.5t46 20.5q118 38 166 38q21 0 30.5 -5.5t9.5 -19.5q0 -3 -2 -15l-56 -258q-4 -17 3 -17q5 0 12 11q35 48 76 76t104 28q50 0 81 -26.5t31 -83.5q0 -23 -8 -60l-38 -163q-2 -7 -2 -20q0 -25 17 -25q10 0 15.5 4t20.5 18q7 7 18 7q10 0 16.5 -7t6.5 -20
q0 -14 -8 -29q-21 -45 -66.5 -79t-106.5 -34q-58 0 -83 27z" />
    <glyph glyph-name="i" unicode="i" horiz-adv-x="358" 
d="M65 14.5q-26 26.5 -26 75.5q0 37 15 95l34 144q3 14 3 24q0 23 -17 34q-6 3 -16.5 7.5t-15.5 9t-5 11.5q0 17 13 25.5t46 20.5q115 39 166 39q21 0 30.5 -6t9.5 -19q0 -3 -2 -15l-63 -287q-2 -8 -2 -20q0 -25 18 -25q7 0 13 3.5t12.5 9.5t10.5 10q10 8 19 8t15.5 -7
t6.5 -20t-9 -31q-21 -46 -68 -79.5t-102 -33.5q-60 0 -86 26.5zM131.5 560.5q-17.5 12.5 -17.5 32.5q0 7 1 11q8 42 61 70.5t120 28.5q32 0 48.5 -13t16.5 -33q0 -7 -1 -11q-6 -27 -32 -49.5t-64.5 -35.5t-80.5 -13q-34 0 -51.5 12.5z" />
    <glyph glyph-name="j" unicode="j" horiz-adv-x="298" 
d="M-94 -180q-19 0 -29.5 9t-10.5 23q0 17 13.5 33t37.5 24q84 26 108 137l59 283q3 15 3 27q0 22 -17 29q-5 2 -15.5 5.5t-16 8.5t-5.5 12q0 18 13 26.5t45 20.5q117 42 166 42q22 0 31.5 -5.5t9.5 -20.5q0 -9 -1 -14l-78 -365q-26 -124 -106 -190.5t-194 -83.5
q-4 -1 -13 -1zM111.5 560.5q-17.5 12.5 -17.5 32.5q0 7 1 11q8 42 61 70.5t120 28.5q32 0 48.5 -13t16.5 -33q0 -7 -1 -11q-6 -27 -32 -49.5t-64.5 -35.5t-80.5 -13q-34 0 -51.5 12.5z" />
    <glyph glyph-name="k" unicode="k" horiz-adv-x="630" 
d="M329.5 57.5q-32.5 69.5 -43.5 178.5q-1 6 -3.5 10t-5.5 4q-5 0 -11 -8l-25 -35q-10 -13 -14 -23t-8 -29q-8 -33 -14 -90q-3 -28 -16 -42t-49 -20.5t-108 -7.5q-17 0 -26 8t-9 22q0 3 2 13q4 14 7.5 24.5t5.5 18.5q14 47 27 103l76 351q3 14 3 25q0 23 -17 33
q-6 3 -16.5 7.5t-15.5 9t-5 11.5q0 18 13 26.5t46 20.5q118 38 166 38q21 0 30.5 -5.5t9.5 -19.5q0 -3 -2 -15l-65 -312q-1 -4 -1 -10q0 -9 5 -9q4 0 15 11q71 81 123 120t114 39q45 0 73.5 -25.5t28.5 -61.5q0 -30 -15 -47.5t-43 -17.5q-37 0 -46 35q-5 14 -11 19.5
t-18 5.5q-15 0 -44 -24q-16 -13 -16 -31q0 -4 2 -16q25 -102 36.5 -143t26 -62.5t35.5 -21.5q15 0 22.5 4t20.5 15q8 8 18 8q9 0 14.5 -7.5t5.5 -16.5q0 -6 -1 -9q-19 -53 -59 -87t-107 -34q-79 0 -111.5 69.5z" />
    <glyph glyph-name="l" unicode="l" horiz-adv-x="343" 
d="M52.5 14q-24.5 26 -24.5 74q0 32 13 97l73 350q3 14 3 25q0 23 -17 33q-6 3 -16.5 7.5t-15.5 9t-5 11.5q0 18 13 26.5t46 20.5q118 38 166 38q21 0 30.5 -5.5t9.5 -19.5q0 -3 -2 -15l-104 -494q-2 -7 -2 -19q0 -25 18 -25q10 0 15.5 3t11.5 9t11 10q10 8 19 8
q10 0 16.5 -7t6.5 -20q0 -12 -9 -30q-22 -46 -70 -79.5t-103 -33.5q-59 0 -83.5 26z" />
    <glyph glyph-name="m" unicode="m" horiz-adv-x="964" 
d="M646 95q0 40 12 89l20 84q8 35 8 52q0 36 -28 36q-19 0 -41 -15.5t-40.5 -48.5t-27.5 -81q-16 -87 -23 -146q-3 -28 -16 -42t-49 -20.5t-108 -7.5q-17 0 -26 8t-9 22q0 3 2 13q4 14 7.5 24.5t5.5 18.5q14 47 27 103l18 83q7 31 7 52q0 20 -7.5 28.5t-23.5 8.5
q-17 0 -37.5 -15.5t-39 -48.5t-28.5 -81q-16 -87 -23 -146q-3 -28 -16 -42t-49 -20.5t-108 -7.5q-17 0 -26 8t-9 22q0 3 2 13q4 14 7.5 24.5t5.5 18.5q14 47 27 103l33 145q3 14 3 25q0 23 -17 33q-6 3 -16.5 7.5t-15.5 9t-5 11.5q0 18 13 26.5t46 20.5q118 38 166 38
q21 0 30.5 -5.5t9.5 -19.5q0 -3 -2 -15l-12 -52q-4 -17 3 -17q4 0 12 11q72 104 165 104q51 0 80.5 -28.5t29.5 -79.5q0 -17 5 -17q4 0 6.5 2t6.5 10q23 46 68 79.5t101 33.5q52 0 83.5 -25t31.5 -83q0 -25 -8 -62l-36 -163q-2 -8 -2 -20q0 -26 18 -26q9 0 16 4.5t20 17.5
q9 9 19 9q9 0 15.5 -7t6.5 -19q0 -13 -9 -31q-20 -45 -64 -79t-109 -34q-106 0 -106 107z" />
    <glyph glyph-name="n" unicode="n" horiz-adv-x="677" 
d="M381.5 15.5q-25.5 27.5 -25.5 77.5q0 40 14 93l27 105q4 15 4 28q0 18 -9.5 27.5t-25.5 9.5q-35 0 -69.5 -36.5t-46.5 -108.5q-19 -111 -23 -146q-3 -28 -16 -42t-49 -20.5t-108 -7.5q-17 0 -26 8t-9 22q0 3 2 13l10 37q16 57 27.5 103.5t34.5 150.5q3 14 3 25
q0 25 -17 33q-6 3 -16.5 7.5t-15.5 9t-5 11.5q0 18 13 26.5t46 20.5q118 38 166 38q21 0 30.5 -5.5t9.5 -19.5q0 -3 -2 -15l-12 -51q-4 -17 3 -17q3 0 12 11q34 47 75 75t104 28q50 0 81 -26.5t31 -83.5q0 -23 -8 -60l-37 -163q-3 -12 -3 -21q0 -24 18 -24q9 0 16.5 4.5
t19.5 16.5q9 10 20 10q9 0 15.5 -7.5t6.5 -19.5q0 -13 -9 -31q-21 -45 -66.5 -79t-106.5 -34q-58 0 -83.5 27.5z" />
    <glyph glyph-name="o" unicode="o" horiz-adv-x="596" 
d="M74.5 43q-61.5 54 -61.5 145q0 64 35.5 138t112.5 127t194 53q109 0 168.5 -55t59.5 -146q0 -64 -34.5 -137.5t-109.5 -126t-189 -52.5t-175.5 54zM333 118.5q28 52.5 42 118.5t14 102q0 42 -13.5 65.5t-42.5 23.5q-42 0 -70 -52.5t-42 -118.5t-14 -102q0 -89 57 -89
q41 0 69 52.5z" />
    <glyph glyph-name="p" unicode="p" horiz-adv-x="604" 
d="M-12 -169q-9 8 -9 21q0 9 2 14q4 14 7.5 24.5t5.5 18.5q16 53 27 103l67 317q3 14 3 25q0 23 -17 33q-6 3 -16.5 7.5t-15.5 9t-5 11.5q0 18 13 26.5t46 20.5q118 38 166 38q21 0 30.5 -5.5t9.5 -19.5q0 -3 -2 -15l-9 -43q-3 -11 -3.5 -17t2.5 -6q4 0 10 7t7 9
q70 96 165 96q61 0 92.5 -41.5t31.5 -117.5q0 -86 -33.5 -169.5t-95.5 -136.5t-142 -53q-59 0 -95 26q-8 7 -15 7t-9 -10q-13 -68 -20 -118q-3 -28 -16 -42t-48.5 -20.5t-107.5 -7.5q-17 0 -26 8zM339 105q27 39 43.5 92t16.5 89q0 34 -9 52t-30 18q-34 0 -65.5 -37
t-43.5 -91q-1 -7 -5 -23q-14 -58 -14 -81q0 -27 12.5 -42.5t36.5 -15.5q31 0 58 39z" />
    <glyph glyph-name="q" unicode="q" horiz-adv-x="586" 
d="M479 -14q-1 -7 -6.5 -37.5t-8.5 -55.5q-3 -28 -16 -42t-49 -20.5t-108 -7.5q-17 0 -26 8t-9 22q0 3 2 13q4 14 7.5 25t5.5 19l28 103l16 62q1 2 1 6q0 8 -6 8q-5 0 -13 -9q-69 -92 -146 -92q-72 0 -107.5 42.5t-35.5 112.5q0 86 33.5 169.5t96.5 137.5t148 54
q35 0 58 -5.5t46 -15.5q34 -15 62 -15q13 0 48 15q13 5 25 12q17 10 29 10q14 0 21.5 -9t4.5 -24zM308 164.5q29 36.5 41 85.5q22 93 22 120q0 57 -47 57q-32 0 -59 -36t-43 -87.5t-16 -94.5q0 -81 41 -81q32 0 61 36.5z" />
    <glyph glyph-name="r" unicode="r" horiz-adv-x="509" 
d="M27 3q-9 8 -9 22q0 3 2 13q25 82 40 147l33 143q4 20 4 28q0 25 -18 31t-27 12t-9 17q0 17 13.5 26t44.5 21q115 37 166 37q21 0 30.5 -6t9.5 -20q0 -3 -2 -15l-15 -63q-1 -3 -1 -8q0 -7 4 -7q6 0 15 15q69 110 146 110q40 0 61 -28.5t21 -72.5q0 -58 -29 -91.5
t-68 -33.5q-22 0 -34.5 8t-20.5 24q-3 7 -7.5 18.5t-10 17t-16.5 5.5q-29 0 -58.5 -37.5t-42.5 -104.5q-17 -91 -23 -146q-3 -28 -16 -42t-49 -20.5t-108 -7.5q-17 0 -26 8z" />
    <glyph glyph-name="s" unicode="s" horiz-adv-x="495" 
d="M94.5 8q-54.5 20 -78.5 50.5t-24 64.5q0 27 17 47.5t41 20.5q31 0 49 -16.5t35 -50.5q12 -31 31.5 -44.5t49.5 -13.5q25 0 40 11.5t15 31.5q0 24 -17 37.5t-69 39.5q-67 35 -96 71.5t-29 81.5q0 79 56.5 123t146.5 44q91 0 155 -34.5t64 -98.5q0 -24 -15.5 -40t-41.5 -16
q-21 0 -35 7t-22.5 17.5t-24.5 34.5q-16 29 -29.5 40.5t-36.5 11.5q-20 0 -35 -12t-15 -31q0 -17 15.5 -31.5t55.5 -33.5q85 -39 122 -78t37 -92q0 -81 -62 -121.5t-159 -40.5q-86 0 -140.5 20z" />
    <glyph glyph-name="t" unicode="t" horiz-adv-x="420" 
d="M42 105q0 18 7 55l49 230q1 3 1 8q0 17 -19 17h-17q-13 0 -19.5 8t-6.5 20q0 23 28.5 51t81.5 68q110 81 159 81q23 0 23 -20q0 -9 -3 -23l-11 -54q-6 -28 -6 -39q0 -8 3.5 -10.5t13.5 -2.5h109q13 0 18.5 -2.5t5.5 -11.5q0 -3 -2 -15q-5 -24 -20.5 -37t-35.5 -13h-86
q-28 0 -33 -27l-42 -200q-3 -15 -3 -26q0 -24 12 -37t35 -13q17 0 38.5 7t40.5 24q12 9 23 9q18 0 18 -17q0 -7 -2 -11q-26 -66 -81.5 -100.5t-134.5 -34.5q-144 0 -144 116z" />
    <glyph glyph-name="u" unicode="u" horiz-adv-x="664" 
d="M79.5 22.5q-31.5 34.5 -31.5 94.5q0 30 7 59l33 153q3 14 3 25q0 23 -17 33q-6 3 -16.5 7.5t-15.5 9t-5 11.5q0 18 13 26.5t46 20.5q118 38 166 38q21 0 30.5 -5.5t9.5 -19.5q0 -3 -2 -15l-54 -257q-3 -13 -3 -26q0 -39 32 -39q35 0 67 37t45 102l10 52q3 14 3 25
q0 23 -17 33q-6 3 -16.5 7.5t-15.5 9t-5 11.5q0 18 13 26.5t46 20.5q118 38 166 38q21 0 30.5 -5.5t9.5 -19.5q0 -3 -2 -15l-62 -297q-1 -5 -1 -12q0 -23 18 -23q8 0 14.5 4t13.5 10t10 8q7 7 18 7q9 0 15 -6.5t6 -18.5q0 -15 -8 -31q-21 -47 -65 -80t-98 -33
q-51 0 -75 31.5t-25 80.5q-2 10 -7 10q-4 0 -10 -8q-32 -47 -79.5 -80.5t-108.5 -33.5q-54 0 -85.5 34.5z" />
    <glyph glyph-name="v" unicode="v" horiz-adv-x="549" 
d="M77 22.5q-40 34.5 -40 96.5q0 25 6 53l35 157q3 14 3 25q0 23 -17 33q-6 3 -16.5 7.5t-15.5 9t-5 11.5q0 18 13 26.5t46 20.5q118 38 166 38q21 0 30.5 -5.5t9.5 -19.5q0 -3 -2 -15l-69 -326q-3 -12 -3 -22q0 -28 21 -28q27 0 61 39.5t58.5 93.5t24.5 89q0 44 -25 77
q-16 23 -16 50q0 34 22.5 51.5t54.5 17.5q20 0 38.5 -6.5t30.5 -18.5q30 -28 41 -62t11 -73q0 -77 -50 -160t-130 -138.5t-166 -55.5q-77 0 -117 34.5z" />
    <glyph glyph-name="w" unicode="w" horiz-adv-x="827" 
d="M76 22.5q-40 34.5 -40 97.5q0 24 6 52l36 157q3 14 3 25q0 23 -17 33q-6 3 -16.5 7.5t-15.5 9t-5 11.5q0 18 13 26.5t46 20.5q118 38 166 38q21 0 30.5 -5.5t9.5 -19.5q0 -3 -2 -15l-70 -325q-3 -13 -3 -23q0 -28 22 -28q75 0 119 205l30 139q7 35 25 51t67 16
q53 0 73 -15.5t20 -38.5q0 -7 -2 -15l-62 -291q-3 -12 -3 -22q0 -14 5.5 -21.5t14.5 -7.5q28 0 59.5 40t53.5 94.5t22 92.5q0 42 -24 72q-17 23 -17 49q0 35 22 53t55 18q20 0 38.5 -7t31.5 -20q27 -27 39 -63t12 -72q0 -75 -46.5 -158t-122 -138.5t-156.5 -55.5
q-51 0 -82.5 24t-31.5 65q0 4 -4 4q-5 0 -8 -4q-71 -90 -180 -90q-71 0 -111 34.5z" />
    <glyph glyph-name="x" unicode="x" horiz-adv-x="592" 
d="M-3.5 5.5q-20.5 16.5 -20.5 46.5q0 26 12 54.5t31 47.5t37 19q24 0 36 -31q5 -17 9.5 -22.5t14.5 -5.5q14 0 32.5 28t42.5 77q4 12 4 21q0 6 -2 14l-26 89q-8 29 -23 44.5t-38 25.5q-15 6 -20.5 11.5t-4.5 15.5t15.5 18t42.5 17q38 11 86 18t68 7q28 0 40 -44l26 -94
q4 -7 5 -7q3 0 5 7q30 67 73 105t94 38q39 0 59.5 -16t20.5 -46q0 -27 -12.5 -55.5t-31 -47.5t-36.5 -19q-24 0 -36 31q-5 17 -9.5 22.5t-15.5 5.5q-15 0 -36.5 -31t-44.5 -78q-3 -7 -3 -17q0 -5 2 -13l19 -69q9 -32 19 -44.5t26 -12.5q12 0 21.5 5t21.5 15q8 6 15 6
q9 0 15.5 -7.5t6.5 -18.5q0 -6 -1 -9q-12 -48 -57.5 -82.5t-106.5 -34.5q-53 0 -85 29t-58 108l-2 6q-1 5 -3.5 5t-4.5 -5q-30 -67 -71.5 -105t-91.5 -38q-39 0 -59.5 16.5z" />
    <glyph glyph-name="y" unicode="y" horiz-adv-x="597" 
d="M60 -166q-41 17 -62 44q-22 23 -22 56q0 28 17.5 48.5t44.5 20.5q25 0 38 -12.5t26 -40.5q15 -32 32 -45.5t47 -13.5q46 0 92.5 57.5t74.5 134.5q-67 -63 -144 -63q-151 0 -151 132q0 29 8 67l26 110q3 14 3 25q0 23 -17 33q-6 3 -16.5 7.5t-15.5 9t-5 11.5q0 18 13 26.5
t46 20.5q118 38 166 38q21 0 30.5 -5.5t9.5 -19.5q0 -3 -2 -15l-58 -272q-7 -28 -7 -48q0 -18 7 -26t22 -8q42 0 68 25t38 55.5t26 78.5q7 25 7 46q0 45 -30 72q-11 9 -16.5 24.5t-3.5 32.5q2 31 24.5 49t54.5 18q44 0 80 -33q31 -29 48.5 -77.5t15.5 -103.5
q-4 -91 -38 -186t-92 -163q-52 -61 -123 -94t-159 -33q-62 0 -103 17z" />
    <glyph glyph-name="z" unicode="z" horiz-adv-x="495" 
d="M308 -8q-69 8 -109 8h-172q-44 0 -39 28q2 9 13 24t15 22l210 301q3 5 11 16.5t9.5 16.5t-4.5 5h-50q-17 0 -26.5 -5t-20 -19.5t-24.5 -35.5q-15 -17 -30.5 -25.5t-34.5 -8.5q-24 0 -24 23q0 14 12 35l51 95q12 21 26 27t31 6q10 0 23 -3q48 -8 107 -8h190q11 0 16 -3.5
t8 -11.5q1 -5 -2 -15t-8 -17l-232 -333q-26 -33 -12 -33h57q23 0 31.5 6t24.5 30l19 28q15 17 33 24.5t35 7.5q24 0 24 -19q0 -15 -15 -37l-56 -92q-18 -26 -31 -33t-26 -7q-10 0 -30 3z" />
    <glyph glyph-name="braceleft" unicode="{" horiz-adv-x="371" 
d="M58.5 -124.5q-34.5 25.5 -34.5 75.5q0 20 7 55q9 45 28 111q13 46 21 80q4 24 4 31q0 16 -9.5 24.5t-33.5 16.5q-14 7 -19.5 13t-5.5 15q0 11 9 19t30 16q36 10 48.5 23.5t20.5 48.5q7 35 13 79q13 81 19 112q11 51 33 85t65 52.5t115 18.5q95 0 95 -36q0 -20 -13.5 -25
t-50.5 -5q-34 0 -50 -23t-26 -71q-7 -31 -16 -96q-5 -46 -11 -71q-11 -54 -35 -80.5t-74 -39.5q-4 -1 -5 -4t3 -4q35 -9 50 -26t15 -47q0 -19 -6 -46t-18 -66q-17 -56 -26 -101q-7 -35 -7 -51q0 -21 9.5 -32t32.5 -11q34 0 46 -4t9 -19q-5 -20 -33 -31.5t-81 -11.5
q-84 0 -118.5 25.5z" />
    <glyph glyph-name="bar" unicode="|" horiz-adv-x="168" 
d="M-51.5 -158q-13.5 7 -9.5 24l178 837q4 18 20 25.5t51 7.5q34 0 47.5 -8t9.5 -25l-178 -837q-4 -17 -20 -24t-50 -7q-35 0 -48.5 7z" />
    <glyph glyph-name="braceright" unicode="}" horiz-adv-x="371" 
d="M-47 -140q-24 10 -24 27q0 19 14 24t50 5q34 0 50 23t26 71q7 31 16 96q10 60 12 71q11 54 34.5 80.5t74.5 38.5q4 1 4.5 4t-3.5 4q-34 10 -49 27t-15 46q0 20 6 47q3 15 19 74q13 40 25 93q7 33 7 51q0 21 -10 32t-33 11q-33 0 -45 4t-9 19q10 43 113 43
q84 0 118.5 -25.5t34.5 -75.5q0 -20 -7 -55q-10 -51 -29 -115q-15 -55 -19 -76q-5 -22 -5 -31q0 -16 9.5 -24.5t33.5 -16.5q14 -7 20 -13t6 -13q0 -12 -9 -20.5t-31 -16.5q-36 -10 -48.5 -23.5t-20.5 -48.5q-7 -35 -13 -79q-13 -81 -19 -112q-11 -51 -32.5 -85t-64.5 -52.5
t-115 -18.5q-48 0 -72 10z" />
    <glyph glyph-name="asciitilde" unicode="~" horiz-adv-x="435" 
d="M19.5 192q-6.5 6 -6.5 17q0 4 2 12q20 69 61 105t102 36q22 0 40.5 -9t43.5 -32q21 -16 30.5 -21.5t20.5 -5.5q24 0 38 10t24 32q7 14 15 20t20 6q24 0 24 -21q0 -9 -2 -15q-39 -140 -157 -140q-29 0 -50 9.5t-46 33.5q-15 14 -24.5 19.5t-19.5 5.5q-23 0 -37.5 -11
t-25.5 -33q-5 -13 -13 -18.5t-21 -5.5q-12 0 -18.5 6z" />
    <glyph glyph-name="uni00A0" unicode="&#xa0;" horiz-adv-x="369" 
 />
    <glyph glyph-name="exclamdown" unicode="&#xa1;" horiz-adv-x="294" 
d="M263.5 486.5q23.5 -19.5 23.5 -51.5q0 -5 -2 -19q-9 -42 -43.5 -68.5t-80.5 -26.5q-37 0 -59 20t-22 53q0 48 35 80t85 32q40 0 63.5 -19.5zM190 246q9 -110 9 -182q0 -68 -9 -116q-11 -53 -45 -83t-85 -30q-42 0 -64.5 21t-22.5 59q0 18 4 34q14 59 45 128t82 169
q12 17 23.5 26t27.5 9q26 0 35 -35z" />
    <glyph glyph-name="cent" unicode="&#xa2;" horiz-adv-x="530" 
d="M351 503q46 -2 85.5 -19.5t62.5 -46t23 -63.5q0 -32 -19 -58t-52 -26t-48 16t-23 50q-9 59 -46 68l-66 -304q22 -11 52 -11q36 0 70 14.5t55 33.5q14 11 22 11q22 0 22 -20q0 -6 -4 -18q-25 -56 -89.5 -98t-155.5 -44l-6 -27q-1 -6 -7 -9.5t-14 -3.5t-13 3.5t-4 9.5l6 28
q-89 8 -139 60.5t-50 134.5q0 32 7 61q15 70 59.5 127t106.5 91.5t127 39.5l11 53q3 11 21 11q20 0 17 -11zM215 237q0 -56 22 -88l58 273q-24 -9 -43 -37t-28 -71q-9 -42 -9 -77z" />
    <glyph glyph-name="sterling" unicode="&#xa3;" horiz-adv-x="593" 
d="M526 692.5q43 -19.5 65.5 -52t22.5 -72.5q0 -49 -28.5 -77t-66.5 -28q-28 0 -45.5 14t-17.5 39q0 5 2 17q3 15 3 30q0 55 -55 55q-33 0 -58.5 -24.5t-33.5 -58.5q-3 -15 -3 -29q0 -17 4.5 -37t9.5 -39q12 -36 16 -69h63q42 0 38 -20q-5 -22 -24 -37t-48 -15h-32
q-1 -1 -1 -3q-6 -30 -28.5 -66.5t-46.5 -64.5q-6 -7 -6 -14q0 -9 11 -12l34 -5q54 -10 86 -10q47 0 79 18.5t55 62.5q10 16 15.5 22t17.5 6q21 0 21 -18q0 -3 -2 -13q-11 -53 -40.5 -99t-74.5 -75t-101 -29q-43 0 -82.5 15t-79.5 43q-8 8 -14 8t-13 -7q-30 -26 -53 -39
t-52 -13q-31 0 -52 21t-21 52q0 6 2 18q8 39 31 59.5t56 20.5q16 0 32 -3q12 -1 18.5 2.5t13.5 13.5q29 43 42 106q0 2 1 3h-56q-20 0 -30.5 4t-7.5 16q4 22 23.5 37t48.5 15h20q-5 25 -7 34q-12 62 -12 94q0 22 4 41q12 53 48 94t89.5 64.5t116.5 23.5q60 0 103 -19.5z" />
    <glyph glyph-name="currency" unicode="&#xa4;" horiz-adv-x="524" 
d="M20 125.5q-17 17.5 -17 38.5q0 20 22 39l33 27q12 10 16.5 17.5t4.5 16.5t-1 14q-2 20 -2 27q0 16 5 39q7 33 29 72q11 19 11 26q0 8 -10 19l-25 29q-8 9 -8 21q0 7 1 11q4 20 32 43t48 23q15 0 27 -14l27 -34q9 -12 20 -12q7 0 17 3q45 14 82 14q22 0 37.5 -2t32.5 -10
q8 -4 15 -4q6 0 12.5 4.5t15.5 11.5l33 29q16 15 33 15q18 0 35.5 -19.5t17.5 -39.5q0 -10 -5 -18t-16 -19l-36 -30q-11 -9 -15.5 -16t-4.5 -16l2 -13q2 -22 2 -29q0 -19 -4 -35q-4 -19 -10.5 -35t-19.5 -38q-11 -19 -11 -27t10 -19l25 -29q8 -9 8 -21q0 -6 -1 -10
q-4 -20 -31.5 -42.5t-48.5 -22.5q-15 0 -26 14l-26 33q-10 12 -23 12q-8 0 -15 -3q-45 -15 -82 -15q-22 0 -37.5 2t-32.5 10q-8 4 -15 4q-9 0 -25 -13l-36 -31q-16 -15 -33 -15q-20 0 -37 17.5zM335 283.5q31 25.5 40 67.5q2 8 2 22q0 30 -19 48t-53 18q-41 0 -71 -25
t-40 -68q-2 -8 -2 -22q0 -30 19 -48t52 -18q41 0 72 25.5z" />
    <glyph glyph-name="yen" unicode="&#xa5;" horiz-adv-x="702" 
d="M787 674q0 -22 -15.5 -34t-42.5 -25q-15 -8 -26 -19.5t-40 -48.5l-163 -207l-11 -15h57q35 0 31 -18q-5 -20 -21 -33t-39 -13h-58q-8 -26 -11 -41l-1 -5h75q36 0 31 -18q-4 -20 -20 -33t-39 -13h-58q-1 -20 6 -35.5t23 -32.5q12 -12 18 -21.5t3 -23.5q-4 -19 -18.5 -29
t-47.5 -10l-225 1q-31 0 -44.5 5.5t-13.5 20.5l2 12q4 20 39 45q24 17 37 32t21 36h-86q-37 0 -33 18q5 20 20.5 33t39.5 13h75l1 5q5 20 3 41h-83q-36 0 -32 18q4 20 20 33t40 13h43l-1 4l-74 222q-7 20 -19 31.5t-23 17.5t-15 9q-12 8 -17 14.5t-5 18.5q0 3 2 15
q6 26 26.5 34.5t64.5 8.5h202q50 0 66 -10.5t13 -27.5q-3 -16 -12.5 -26t-25.5 -19q-35 -19 -35 -44q0 -8 3 -17l40 -117q6 -15 15 -15q10 0 20 15l95 130q12 17 12 27q0 9 -6 16t-18 16q-13 10 -13 22q0 3 2 11q5 23 21.5 31t50.5 8h124q50 0 50 -26z" />
    <glyph glyph-name="brokenbar" unicode="&#xa6;" horiz-adv-x="169" 
d="M52 328q-13 7 -10 24l75 351q4 18 20 25.5t51 7.5q34 0 47.5 -8t9.5 -25l-75 -351q-3 -17 -19 -24t-51 -7t-48 7zM-50 -151q-13 7 -9 24l75 352q4 17 20 24.5t51 7.5q34 0 47 -7.5t10 -24.5l-75 -352q-4 -17 -20 -24t-51 -7t-48 7z" />
    <glyph glyph-name="section" unicode="&#xa7;" horiz-adv-x="529" 
d="M157 -94.5q-20 6.5 -41 17.5q-3 1 -12 5.5t-17 4.5q-14 0 -26 -14q-8 -8 -14.5 -12t-18.5 -4t-18.5 6t-9.5 27q-5 99 -4 141q1 19 16.5 31.5t29.5 12.5q23 0 33 -12t20 -50q12 -44 41 -65.5t64 -21.5t59.5 15.5t30.5 44.5q1 4 1 11q0 43 -79 71q-73 29 -107.5 45t-59 42
t-24.5 64q0 12 3 27q9 39 33 66.5t46.5 45t29.5 23.5q-17 14 -29.5 36t-12.5 53q0 18 4 34q10 47 45 83.5t86.5 57.5t108.5 21q31 0 50.5 -6.5t41.5 -17.5q3 -1 12 -5.5t17 -4.5q9 0 14.5 3.5t11.5 9.5q8 8 14.5 12t18.5 4t19 -6t9 -27q7 -88 4 -140q-1 -19 -16.5 -31.5
t-29.5 -12.5q-23 0 -33 11.5t-20 49.5q-11 44 -40.5 65.5t-65.5 21.5q-34 0 -58.5 -16.5t-30.5 -43.5q-1 -4 -1 -12q0 -23 19 -37.5t61 -32.5l37 -15q54 -22 84 -37.5t50 -39t20 -57.5q0 -48 -26.5 -82t-71.5 -71q2 1 -16 -13q21 -17 33 -36t12 -49q0 -17 -4 -36
q-10 -48 -45.5 -84.5t-87.5 -56.5t-110 -20q-30 0 -50 6.5zM366 245q12 16 15 32q1 4 1 12q0 20 -15 33t-44 24l-21 9q-68 29 -87 39q-14 -7 -27 -25t-16 -34q-2 -10 -2 -14q0 -18 12.5 -29t35.5 -20q41 -18 119 -54q17 11 29 27z" />
    <glyph glyph-name="dieresis" unicode="&#xa8;" horiz-adv-x="478" 
d="M113 575.5q-16 11.5 -16 30.5q0 28 24.5 46.5t57.5 27.5t58 9t41 -9.5t16 -28.5q0 -7 -1 -10q-6 -26 -30.5 -43.5t-56 -25.5t-55.5 -8q-22 0 -38 11.5zM362 575.5q-16 11.5 -16 30.5q0 28 24.5 46.5t57.5 27.5t58 9t41 -9.5t16 -28.5q0 -7 -1 -10q-6 -26 -30.5 -43.5
t-56 -25.5t-55.5 -8q-22 0 -38 11.5z" />
    <glyph glyph-name="copyright" unicode="&#xa9;" horiz-adv-x="811" 
d="M194 22q-67 34 -103 96.5t-36 144.5q0 36 10 86q22 105 85.5 187.5t156 128.5t198.5 46q90 0 157 -34t102.5 -96t35.5 -145q0 -37 -10 -87q-22 -105 -85.5 -187t-155.5 -128t-198 -46q-90 0 -157 34zM531 79q79 39 133.5 109.5t73.5 160.5q8 35 8 75q0 70 -30.5 123.5
t-87.5 82.5t-134 29q-90 0 -169.5 -39.5t-134 -110t-73.5 -160.5q-8 -35 -8 -75q0 -70 30.5 -123t87.5 -82t135 -29q90 0 169 39zM266 183q-46 43 -46 114q0 24 6 51q13 60 52 108t92 75t107 27q61 0 99.5 -27.5t38.5 -74.5q0 -12 -3 -24q-6 -24 -25.5 -41.5t-48.5 -17.5
q-44 0 -44 54q0 12 1 19t1 19q0 42 -32 42q-23 0 -43.5 -24t-30.5 -71q-8 -40 -8 -68q0 -90 77 -90q34 0 62 14.5t45 31.5q8 7 16 7q18 0 18 -16q0 -7 -3 -15q-24 -52 -76.5 -94t-130.5 -42t-124 43z" />
    <glyph glyph-name="guillemotleft" unicode="&#xab;" horiz-adv-x="483" 
d="M111 35q-11 6 -23.5 24.5t-36.5 61.5q-48 87 -48 115q0 15 22.5 46t78.5 87q40 41 62.5 60.5t36.5 25.5t29 6q14 0 27.5 -11.5t9.5 -24.5q-6 -16 -19.5 -34.5t-54.5 -69.5q-33 -39 -44 -57.5t-11 -28.5q0 -9 14 -44q5 -10 9 -22q18 -49 23.5 -68.5t5.5 -35.5
q-1 -13 -20 -24.5t-33 -11.5q-17 0 -28 6zM323 35q-11 6 -23.5 24.5t-36.5 61.5q-48 87 -48 115q0 15 22.5 46t78.5 87q40 41 62.5 60.5t36.5 25.5t29 6q14 0 27.5 -11.5t9.5 -24.5q-6 -16 -19.5 -34.5t-54.5 -69.5q-33 -39 -44 -57.5t-11 -28.5q0 -9 14 -44q5 -10 9 -22
q18 -49 23.5 -68.5t5.5 -35.5q-1 -13 -20 -24.5t-33 -11.5q-17 0 -28 6z" />
    <glyph glyph-name="logicalnot" unicode="&#xac;" horiz-adv-x="495" 
d="M310 145q3 38 14 95l1 6q0 8 -10 8q-82 0 -110 -1h-47q-34 0 -55 1q-28 2 -40.5 10t-12.5 28q0 28 14.5 48t37.5 23q75 9 181 9q93 0 139 -7q35 -5 31 -49q-9 -72 -15 -95q-13 -57 -21 -79q-19 -39 -63 -39t-44 42z" />
    <glyph glyph-name="uni00AD" unicode="&#xad;" horiz-adv-x="322" 
d="M45 198q-17 0 -24.5 6t-4.5 23q7 33 24.5 55t41.5 22h197q35 0 29 -29q-7 -33 -25 -55t-42 -22h-196z" />
    <glyph glyph-name="registered" unicode="&#xae;" horiz-adv-x="574" 
d="M545 656q58 -55 58 -147q0 -33 -7 -65q-17 -77 -64 -137.5t-114.5 -94.5t-144.5 -34q-100 0 -159 55.5t-59 146.5q0 33 7 64q16 78 63 138.5t115 94.5t146 34q101 0 159 -55zM546 495q0 72 -46.5 116t-125.5 44q-61 0 -115 -27t-91 -75t-50 -109q-5 -22 -5 -50
q0 -73 46 -116.5t125 -43.5q62 0 115.5 27t90.5 74.5t50 108.5q6 27 6 51zM452.5 579.5q32.5 -17.5 32.5 -49.5q0 -56 -77 -87q24 -13 33 -50q1 -15 9 -31q4 -8 9.5 -11t7.5 -5.5t1 -10.5q-1 -11 -15.5 -15t-37.5 -4q-40 0 -54 5.5t-14 21.5q0 9 5 31q2 14 2 19
q0 17 -6.5 26t-18.5 9h-6q-8 0 -12.5 -4t-6.5 -15l-3 -16q-1 -5 -1 -13q0 -14 10 -24q1 -1 6 -7t3 -13q-2 -10 -9 -13.5t-23 -3.5h-88q-14 0 -20 2.5t-6 9.5q0 8 4.5 13t13.5 12q12 8 17.5 18t8.5 27l25 114q3 14 3 20q0 13 -11 24q-1 2 -5.5 8t-2.5 13q2 9 9 13t23 4h42h62
q58 0 90.5 -17.5zM322 491q-1 -4 -1 -11q0 -14 12 -14h9q22 0 33 15t11 42q0 36 -25 36h-7q-7 0 -13.5 -5t-8.5 -16z" />
    <glyph glyph-name="macron" unicode="&#xaf;" horiz-adv-x="345" 
d="M98.5 569q-7.5 3 -7.5 10q0 9 11 29q14 26 22.5 34t25.5 8q93 -1 240 -1q17 0 17 -12q0 -8 -10 -28q-12 -27 -20.5 -35.5t-27.5 -8.5l-226 1q-17 0 -24.5 3z" />
    <glyph glyph-name="degree" unicode="&#xb0;" horiz-adv-x="349" 
d="M116 435q-34 32 -34 86q0 20 4 37q14 67 67 110t121 43q58 0 91.5 -32t33.5 -86q0 -20 -4 -37q-14 -67 -66.5 -110t-120.5 -43q-58 0 -92 32zM290 495.5q29 24.5 37 62.5q2 7 2 20q0 29 -19 47t-51 18q-38 0 -68 -24t-38 -63q-2 -7 -2 -20q0 -30 19.5 -47.5t52.5 -17.5
q38 0 67 24.5z" />
    <glyph glyph-name="plusminus" unicode="&#xb1;" horiz-adv-x="473" 
d="M414 345q40 0 40 -41q0 -6 -2 -18q-6 -28 -22 -37.5t-38 -9.5h-91q-12 0 -15 -13l-19 -89v-2h108q25 0 38 -6.5t10 -23.5q-6 -32 -31.5 -54.5t-62.5 -22.5h-300q-25 0 -38.5 6t-10.5 23q7 33 32.5 55.5t61.5 22.5h88q0 5 2 15l15 73v3q0 13 -15 13h-84q-21 0 -32.5 6
t-11.5 24q0 5 2 15q7 32 25 46.5t53 14.5h69q20 0 23 17l19 86q5 27 26 38.5t45 11.5q21 0 29 -8t8 -22q0 -5 -2 -19l-19 -89l-1 -4q0 -11 12 -11h89z" />
    <glyph glyph-name="acute" unicode="&#xb4;" horiz-adv-x="252" 
d="M85 552q3 20 56 89l23 33q14 23 35 29.5t61 6.5q39 0 52.5 -7t11.5 -25q-3 -20 -47 -55t-96 -63t-72 -28q-27 0 -24 20z" />
    <glyph glyph-name="uni00B5" unicode="&#xb5;" horiz-adv-x="654" 
d="M623.5 494.5q9.5 -5.5 9.5 -19.5q0 -3 -2 -15l-10 -53l-51 -235v-7q-3 -13 -3 -25q0 -23 17 -33q6 -3 16.5 -7.5t15.5 -9t5 -11.5q0 -18 -13 -26.5t-46 -20.5q-118 -38 -166 -38q-21 0 -30.5 5.5t-9.5 19.5q0 3 2 15l7 37l-1 -1q3 19 -1 19q-3 0 -16.5 -28t-38.5 -50
t-69 -22q-27 0 -44.5 12.5t-19.5 29.5q-1 5 -4 6t-5 -4q-3 -15 -3 -29q0 -21 3 -42q2 -28 2 -41q0 -42 -21.5 -63t-79.5 -21q-41 0 -56.5 11t-15.5 32q0 12 3 26l90 416v7q3 14 3 25q0 23 -17 33q-6 3 -16.5 7.5t-15.5 9t-5 11.5q0 18 13 26.5t46 20.5q118 38 166 38
q21 0 30.5 -5.5t9.5 -19.5q0 -3 -2 -15l-10 -53l-43 -202q-6 -30 -6 -49q0 -26 11 -37t34 -11q34 0 68 37t47 98l0.5 -0.5l0.5 -0.5l17 80v7q3 14 3 25q0 23 -17 33q-6 3 -16.5 7.5t-15.5 9t-5 11.5q0 18 13 26.5t46 20.5q118 38 166 38q21 0 30.5 -5.5z" />
    <glyph glyph-name="paragraph" unicode="&#xb6;" horiz-adv-x="811" 
d="M150 -111q-10 8 -10 21q0 7 1 11q3 16 11.5 26t25.5 19q23 11 35 20q17 12 23 35l52 242q1 4 1 9q0 8 -4.5 11.5t-15.5 3.5q-109 0 -162 36t-53 113q0 27 8 65q21 97 87.5 152t161.5 55q75 0 129 -3q70 -2 120 -2l254 1q28 0 43 -10.5t15 -28.5q0 -7 -1 -10
q-4 -15 -12.5 -25t-25.5 -19q-23 -12 -34 -20q-16 -11 -21 -36l-114 -533l-2 -16q0 -14 7 -21q6 -7 26 -17q20 -13 20 -30q0 -25 -16.5 -40.5t-46.5 -20.5q-78 -8 -238 -8q-193 0 -232 7q-22 5 -32 13zM518.5 -6.5q14.5 13.5 22.5 53.5l103 480q5 23 5 34q0 19 -10.5 26.5
t-35.5 7.5q-24 0 -37 -5t-21 -19t-15 -44l-101 -480q-5 -27 -5 -37q0 -18 10 -24t36 -6q34 0 48.5 13.5z" />
    <glyph glyph-name="periodcentered" unicode="&#xb7;" horiz-adv-x="284" 
d="M55 165.5q-20 17.5 -20 47.5q0 18 5 32q14 46 50 74.5t80 28.5q37 0 57.5 -19t20.5 -51q0 -13 -5 -33q-13 -43 -50 -70t-83 -27q-35 0 -55 17.5z" />
    <glyph glyph-name="cedilla" unicode="&#xb8;" horiz-adv-x="232" 
d="M-39 -169q-21 14 -22 32q1 9 7.5 12.5t13.5 0.5q28 -7 43 -7q23 0 37 10.5t14 27.5q0 12 -10 18.5t-29 6.5q-21 0 -21 12q0 16 34 60l68 -3l-26 -42q67 -5 67 -54q0 -36 -30.5 -62t-86.5 -26q-38 0 -59 14z" />
    <glyph glyph-name="guillemotright" unicode="&#xbb;" horiz-adv-x="483" 
d="M11.5 40.5q-13.5 11.5 -10.5 24.5q6 16 19.5 34.5t54.5 69.5q39 48 46 58t7 20q0 20 -21 74q-18 49 -23.5 68.5t-5.5 35.5q1 13 19.5 24.5t33.5 11.5t25.5 -6t24.5 -25t38 -61q53 -96 46 -129q-3 -10 -27 -40t-72 -79q-41 -42 -62 -60.5t-35 -25t-31 -6.5
q-13 0 -26.5 11.5zM223.5 40.5q-13.5 11.5 -10.5 24.5q6 16 19.5 34.5t54.5 69.5q39 48 46 58t7 20q0 20 -21 74q-18 49 -23.5 68.5t-5.5 35.5q1 13 19.5 24.5t33.5 11.5t25.5 -6t24.5 -25t38 -61q53 -96 46 -129q-3 -10 -27 -40t-72 -79q-41 -42 -62 -60.5t-35 -25
t-31 -6.5q-13 0 -26.5 11.5z" />
    <glyph glyph-name="questiondown" unicode="&#xbf;" horiz-adv-x="520" 
d="M388 488q22 -19 22 -51q0 -6 -2 -20q-8 -42 -41.5 -68t-77.5 -26q-40 0 -63 20t-23 54q0 47 36.5 78.5t88.5 31.5q38 0 60 -19zM315 259q0 -8 -1 -12q-9 -42 -32 -71t-63 -65q-32 -28 -49 -48t-23 -45q-4 -19 -4 -36q0 -57 52 -57q30 0 53.5 20.5t29.5 51.5
q9 42 37.5 64.5t64.5 22.5q29 0 48.5 -16t19.5 -44q0 -6 -2 -18q-10 -45 -47.5 -83t-96.5 -61t-129 -23q-93 0 -149.5 34t-56.5 95q0 15 3 30q7 34 27.5 60.5t46 45.5t67.5 46q46 29 72.5 49t45.5 47q17 18 29.5 27.5t27.5 9.5q29 0 29 -24z" />
    <glyph glyph-name="Agrave" unicode="&#xc0;" horiz-adv-x="784" 
d="M-41 25q0 7 1 10q2 13 17 25t34 19q28 10 46 27.5t39 53.5l124 207q42 69 124 207q9 15 9 32q0 21 -13 28q-17 9 -17 27q0 7 1 10q2 12 15 23.5t40 11.5h91q49 0 76 -15t37.5 -36t15.5 -50l28 -161q20 -115 53 -299q4 -24 11 -35.5t25 -21.5q20 -13 20 -34q0 -54 -72 -54
h-177q-53 0 -74.5 4.5t-21.5 23.5q0 14 5.5 22.5t18.5 16.5q24 15 33.5 29.5t6.5 40.5l-3 24q-2 17 -13.5 27.5t-26.5 10.5h-160q-21 0 -32 -5t-22 -23l-11 -21q-19 -35 -19 -54t19 -26q31 -12 25 -36q-7 -35 -62 -35h-148q-43 0 -43 26zM399 284q15 0 26.5 6.5t10.5 16.5
l-21 194q-1 8 -4 12.5t-7 4.5q-9 0 -18 -17l-110 -193q-3 -6 -3 -9q0 -15 31 -15h95zM466 750.5q-45 22.5 -79.5 52t-30.5 49.5q3 17 19.5 24.5t55.5 7.5q42 0 63.5 -6.5t26.5 -28.5q3 -9 9.5 -22t9.5 -18q12 -23 17.5 -37t4.5 -23q-4 -21 -30 -21q-21 0 -66 22.5z" />
    <glyph glyph-name="Aacute" unicode="&#xc1;" horiz-adv-x="784" 
d="M-41 25q0 7 1 10q2 13 17 25t34 19q28 10 46 27.5t39 53.5l124 207q42 69 124 207q9 15 9 32q0 21 -13 28q-17 9 -17 27q0 7 1 10q2 12 15 23.5t40 11.5h91q49 0 76 -15t37.5 -36t15.5 -50l28 -161q20 -115 53 -299q4 -24 11 -35.5t25 -21.5q20 -13 20 -34q0 -54 -72 -54
h-177q-53 0 -74.5 4.5t-21.5 23.5q0 14 5.5 22.5t18.5 16.5q24 15 33.5 29.5t6.5 40.5l-3 24q-2 17 -13.5 27.5t-26.5 10.5h-160q-21 0 -32 -5t-22 -23l-11 -21q-19 -35 -19 -54t19 -26q31 -12 25 -36q-7 -35 -62 -35h-148q-43 0 -43 26zM399 284q15 0 26.5 6.5t10.5 16.5
l-21 194q-1 8 -4 12.5t-7 4.5q-9 0 -18 -17l-110 -193q-3 -6 -3 -9q0 -15 31 -15h95zM334 748q2 10 12.5 23t34.5 39q26 28 35 40q15 21 37.5 28t56.5 7q48 0 63 -6.5t11 -25.5q-4 -20 -50 -49.5t-101.5 -53t-76.5 -23.5q-28 0 -22 21z" />
    <glyph glyph-name="Acircumflex" unicode="&#xc2;" horiz-adv-x="784" 
d="M-41 25q0 7 1 10q2 13 17 25t34 19q28 10 46 27.5t39 53.5l124 207q42 69 124 207q9 15 9 32q0 21 -13 28q-17 9 -17 27q0 7 1 10q2 12 15 23.5t40 11.5h91q49 0 76 -15t37.5 -36t15.5 -50l28 -161q20 -115 53 -299q4 -24 11 -35.5t25 -21.5q20 -13 20 -34q0 -54 -72 -54
h-177q-53 0 -74.5 4.5t-21.5 23.5q0 14 5.5 22.5t18.5 16.5q24 15 33.5 29.5t6.5 40.5l-3 24q-2 17 -13.5 27.5t-26.5 10.5h-160q-21 0 -32 -5t-22 -23l-11 -21q-19 -35 -19 -54t19 -26q31 -12 25 -36q-7 -35 -62 -35h-148q-43 0 -43 26zM399 284q15 0 26.5 6.5t10.5 16.5
l-21 194q-1 8 -4 12.5t-7 4.5q-9 0 -18 -17l-110 -193q-3 -6 -3 -9q0 -15 31 -15h95zM282 736.5q-6 8.5 -4 16.5q3 20 50 58t99 69q33 20 55 20q12 0 22.5 -5t24.5 -15q38 -31 68 -68.5t26 -58.5q-2 -8 -11 -16.5t-18 -8.5q-8 0 -20 6t-20.5 11.5t-12.5 7.5q-70 43 -82 43
q-10 0 -99 -43q-48 -25 -63 -25q-9 0 -15 8.5z" />
    <glyph glyph-name="Atilde" unicode="&#xc3;" horiz-adv-x="784" 
d="M-41 25q0 7 1 10q2 13 17 25t34 19q28 10 46 27.5t39 53.5l124 207q42 69 124 207q9 15 9 32q0 21 -13 28q-17 9 -17 27q0 7 1 10q2 12 15 23.5t40 11.5h91q49 0 76 -15t37.5 -36t15.5 -50l28 -161q20 -115 53 -299q4 -24 11 -35.5t25 -21.5q20 -13 20 -34q0 -54 -72 -54
h-177q-53 0 -74.5 4.5t-21.5 23.5q0 14 5.5 22.5t18.5 16.5q24 15 33.5 29.5t6.5 40.5l-3 24q-2 17 -13.5 27.5t-26.5 10.5h-160q-21 0 -32 -5t-22 -23l-11 -21q-19 -35 -19 -54t19 -26q31 -12 25 -36q-7 -35 -62 -35h-148q-43 0 -43 26zM399 284q15 0 26.5 6.5t10.5 16.5
l-21 194q-1 8 -4 12.5t-7 4.5q-9 0 -18 -17l-110 -193q-3 -6 -3 -9q0 -15 31 -15h95zM481 746.5q-20 7.5 -47 21.5q-24 12 -37.5 17t-25.5 5q-10 0 -16.5 -5t-13.5 -15q-14 -18 -26 -24.5t-24 -6.5q-16 0 -24.5 8.5t-8.5 23.5q0 32 17 56t43.5 37t53.5 13q25 0 46 -8t49 -22
q24 -12 35 -16.5t23 -4.5q15 0 29 20q14 18 25 24.5t24 6.5q16 0 25.5 -9t9.5 -25q-1 -31 -18.5 -55t-44.5 -36.5t-54 -12.5q-20 0 -40 7.5z" />
    <glyph glyph-name="Adieresis" unicode="&#xc4;" horiz-adv-x="784" 
d="M-41 25q0 7 1 10q2 13 17 25t34 19q28 10 46 27.5t39 53.5l124 207q42 69 124 207q9 15 9 32q0 21 -13 28q-17 9 -17 27q0 7 1 10q2 12 15 23.5t40 11.5h91q49 0 76 -15t37.5 -36t15.5 -50l28 -161q20 -115 53 -299q4 -24 11 -35.5t25 -21.5q20 -13 20 -34q0 -54 -72 -54
h-177q-53 0 -74.5 4.5t-21.5 23.5q0 14 5.5 22.5t18.5 16.5q24 15 33.5 29.5t6.5 40.5l-3 24q-2 17 -13.5 27.5t-26.5 10.5h-160q-21 0 -32 -5t-22 -23l-11 -21q-19 -35 -19 -54t19 -26q31 -12 25 -36q-7 -35 -62 -35h-148q-43 0 -43 26zM399 284q15 0 26.5 6.5t10.5 16.5
l-21 194q-1 8 -4 12.5t-7 4.5q-9 0 -18 -17l-110 -193q-3 -6 -3 -9q0 -15 31 -15h95zM245 745.5q-16 11.5 -16 30.5q0 28 24.5 46.5t57.5 27.5t58 9t41 -9.5t16 -28.5q0 -7 -1 -10q-6 -26 -30.5 -43.5t-56 -25.5t-55.5 -8q-22 0 -38 11.5zM494 745.5q-16 11.5 -16 30.5
q0 28 24.5 46.5t57.5 27.5t58 9t41 -9.5t16 -28.5q0 -7 -1 -10q-6 -26 -30.5 -43.5t-56 -25.5t-55.5 -8q-22 0 -38 11.5z" />
    <glyph glyph-name="Aring" unicode="&#xc5;" horiz-adv-x="784" 
d="M-41 25q0 7 1 10q2 13 17 25t34 19q28 10 46 27.5t39 53.5l124 207q42 69 124 207q9 15 9 32q0 21 -13 28q-17 9 -17 27q0 7 1 10q2 12 15 23.5t40 11.5h91q49 0 76 -15t37.5 -36t15.5 -50l28 -161q20 -115 53 -299q4 -24 11 -35.5t25 -21.5q20 -13 20 -34q0 -54 -72 -54
h-177q-53 0 -74.5 4.5t-21.5 23.5q0 14 5.5 22.5t18.5 16.5q24 15 33.5 29.5t6.5 40.5l-3 24q-2 17 -13.5 27.5t-26.5 10.5h-160q-21 0 -32 -5t-22 -23l-11 -21q-19 -35 -19 -54t19 -26q31 -12 25 -36q-7 -35 -62 -35h-148q-43 0 -43 26zM399 284q15 0 26.5 6.5t10.5 16.5
l-21 194q-1 8 -4 12.5t-7 4.5q-9 0 -18 -17l-110 -193q-3 -6 -3 -9q0 -15 31 -15h95zM389.5 747q-26.5 16 -26.5 45q0 4 2 16q9 37 44 56.5t79 19.5q38 0 65 -16.5t27 -46.5q0 -43 -38.5 -66.5t-86.5 -23.5q-39 0 -65.5 16zM491 786q10 12 10 29q0 12 -5.5 19.5t-16.5 7.5
q-17 0 -27 -13t-10 -29q0 -11 6 -18.5t17 -7.5q16 0 26 12z" />
    <glyph glyph-name="AE" unicode="&#xc6;" horiz-adv-x="1050" 
d="M865 -19.5q-7 2.5 -13 5.5q-15 7 -28.5 10.5t-42.5 3.5h-357q-31 0 -44.5 5.5t-13.5 20.5l2 12q4 20 39 45q30 22 42 38.5t16 32.5l2 7q5 26 -26 26h-165q-19 0 -30 -3.5t-21 -15.5l-33 -42q-16 -19 -16 -33q0 -19 35 -27q14 -5 21 -12.5t4 -21.5q-5 -23 -27 -30t-62 -7
h-122q-44 0 -56.5 10t-9.5 27q4 19 18.5 28t42.5 17q25 6 41 19t51 58l336 429q16 19 16 42l-1 17q0 25 27.5 44.5t89.5 19.5q76 0 114 -4q24 -2 32 -2h179q29 0 44.5 3.5t32.5 10.5q20 8 35 8q20 0 29.5 -21.5t19.5 -85.5q7 -45 7 -68q0 -87 -58 -87q-17 0 -28 11t-17 29
q-15 57 -23.5 78.5t-24 29.5t-50.5 8h-69q-23 0 -34 -9t-18 -41l-28 -130q-1 -4 -1 -10t3 -9t11 -3h39q18 0 24 8t8 33q2 24 11 36t28 12q20 0 30 -9t14.5 -32t8.5 -76q3 -39 3 -66q0 -39 -10 -54t-37 -15q-20 0 -28.5 9t-10.5 29q-3 24 -9.5 31.5t-29.5 7.5h-46
q-30 0 -39 -38l-35 -163q-2 -14 -2 -19q0 -14 8 -19t29 -5h104q43 0 73 26.5t64 88.5q15 24 30 32.5t31 8.5q35 0 35 -33q0 -38 -49 -122q-39 -65 -58 -86t-40 -21q-10 0 -17 2.5zM459 271q19 0 28.5 9t13.5 27l43 202q4 24 4 30q0 20 -10 20t-26 -20l-191 -246
q-4 -5 -4 -10t5 -8t12 -3z" />
    <glyph glyph-name="Ccedilla" unicode="&#xc7;" horiz-adv-x="671" 
d="M331.5 571q-33.5 -47 -50 -112t-16.5 -119q0 -85 37 -134.5t116 -49.5q59 0 105.5 26.5t70.5 64.5q13 16 32 16q12 0 20.5 -7.5t8.5 -21.5q0 -6 -1 -10q-12 -50 -56.5 -104t-115.5 -91.5t-157 -40.5l-18 -29q67 -5 67 -54q0 -36 -30.5 -62t-86.5 -26q-38 0 -59 14t-22 32
q1 9 7.5 12.5t13.5 0.5q28 -7 43 -7q23 0 37 10.5t14 27.5q0 12 -10 18.5t-29 6.5q-21 0 -21 12q0 13 25 48q-103 16 -162.5 90.5t-59.5 185.5q0 108 54.5 211t151 168t216.5 65q67 0 125 -21.5t92.5 -60t34.5 -86.5q0 -28 -13.5 -56t-40.5 -46t-64 -18q-34 0 -55 22t-38 88
q-8 40 -27 62t-56 22q-49 0 -82.5 -47z" />
    <glyph glyph-name="Egrave" unicode="&#xc8;" horiz-adv-x="666" 
d="M645 207q0 -38 -49 -122q-39 -65 -58 -86t-40 -21q-10 0 -17 2.5t-13 5.5q-15 7 -28.5 10.5t-42.5 3.5h-357q-31 0 -44.5 5.5t-13.5 20.5l2 12q4 20 39 45q33 23 47 45t22 63l68 318q6 27 6 44q0 19 -7 33.5t-23 30.5q-12 13 -18 23t-3 22q5 22 20.5 30t52.5 8h333
q29 0 44.5 3.5t32.5 10.5q20 8 35 8q20 0 29.5 -21.5t19.5 -85.5q7 -45 7 -68q0 -87 -58 -87q-17 0 -28.5 11t-16.5 29q-15 57 -23.5 78.5t-24 29.5t-50.5 8h-69q-23 0 -34 -9t-18 -41l-28 -130q-1 -4 -1 -10t3 -9t11 -3h39q18 0 24 8t8 33q2 24 11 36t28 12q20 0 30 -9
t14.5 -32t8.5 -76q3 -39 3 -66q0 -39 -10 -54t-37 -15q-20 0 -28.5 9t-10.5 29q-3 24 -9.5 31.5t-29.5 7.5h-46q-30 0 -39 -38l-35 -163q-2 -14 -2 -19q0 -14 8 -19t29 -5h104q43 0 73 26.5t64 88.5q22 41 61 41q35 0 35 -33zM424 750.5q-45 22.5 -79.5 52t-30.5 49.5
q3 17 19.5 24.5t55.5 7.5q42 0 63.5 -6.5t26.5 -28.5q3 -9 9.5 -22t9.5 -18q12 -23 17.5 -37t4.5 -23q-4 -21 -30 -21q-21 0 -66 22.5z" />
    <glyph glyph-name="Eacute" unicode="&#xc9;" horiz-adv-x="666" 
d="M645 207q0 -38 -49 -122q-39 -65 -58 -86t-40 -21q-10 0 -17 2.5t-13 5.5q-15 7 -28.5 10.5t-42.5 3.5h-357q-31 0 -44.5 5.5t-13.5 20.5l2 12q4 20 39 45q33 23 47 45t22 63l68 318q6 27 6 44q0 19 -7 33.5t-23 30.5q-12 13 -18 23t-3 22q5 22 20.5 30t52.5 8h333
q29 0 44.5 3.5t32.5 10.5q20 8 35 8q20 0 29.5 -21.5t19.5 -85.5q7 -45 7 -68q0 -87 -58 -87q-17 0 -28.5 11t-16.5 29q-15 57 -23.5 78.5t-24 29.5t-50.5 8h-69q-23 0 -34 -9t-18 -41l-28 -130q-1 -4 -1 -10t3 -9t11 -3h39q18 0 24 8t8 33q2 24 11 36t28 12q20 0 30 -9
t14.5 -32t8.5 -76q3 -39 3 -66q0 -39 -10 -54t-37 -15q-20 0 -28.5 9t-10.5 29q-3 24 -9.5 31.5t-29.5 7.5h-46q-30 0 -39 -38l-35 -163q-2 -14 -2 -19q0 -14 8 -19t29 -5h104q43 0 73 26.5t64 88.5q22 41 61 41q35 0 35 -33zM292 748q2 10 12.5 23t34.5 39q26 28 35 40
q15 21 37.5 28t56.5 7q48 0 63 -6.5t11 -25.5q-4 -20 -50 -49.5t-101.5 -53t-76.5 -23.5q-28 0 -22 21z" />
    <glyph glyph-name="Ecircumflex" unicode="&#xca;" horiz-adv-x="666" 
d="M645 207q0 -38 -49 -122q-39 -65 -58 -86t-40 -21q-10 0 -17 2.5t-13 5.5q-15 7 -28.5 10.5t-42.5 3.5h-357q-31 0 -44.5 5.5t-13.5 20.5l2 12q4 20 39 45q33 23 47 45t22 63l68 318q6 27 6 44q0 19 -7 33.5t-23 30.5q-12 13 -18 23t-3 22q5 22 20.5 30t52.5 8h333
q29 0 44.5 3.5t32.5 10.5q20 8 35 8q20 0 29.5 -21.5t19.5 -85.5q7 -45 7 -68q0 -87 -58 -87q-17 0 -28.5 11t-16.5 29q-15 57 -23.5 78.5t-24 29.5t-50.5 8h-69q-23 0 -34 -9t-18 -41l-28 -130q-1 -4 -1 -10t3 -9t11 -3h39q18 0 24 8t8 33q2 24 11 36t28 12q20 0 30 -9
t14.5 -32t8.5 -76q3 -39 3 -66q0 -39 -10 -54t-37 -15q-20 0 -28.5 9t-10.5 29q-3 24 -9.5 31.5t-29.5 7.5h-46q-30 0 -39 -38l-35 -163q-2 -14 -2 -19q0 -14 8 -19t29 -5h104q43 0 73 26.5t64 88.5q22 41 61 41q35 0 35 -33zM240 736.5q-6 8.5 -4 16.5q3 20 50 58t99 69
q33 20 55 20q12 0 22.5 -5t24.5 -15q38 -31 68 -68.5t26 -58.5q-2 -8 -11 -16.5t-18 -8.5q-8 0 -20 6t-20.5 11.5t-12.5 7.5q-70 43 -82 43q-10 0 -99 -43q-48 -25 -63 -25q-9 0 -15 8.5z" />
    <glyph glyph-name="Edieresis" unicode="&#xcb;" horiz-adv-x="666" 
d="M645 207q0 -38 -49 -122q-39 -65 -58 -86t-40 -21q-10 0 -17 2.5t-13 5.5q-15 7 -28.5 10.5t-42.5 3.5h-357q-31 0 -44.5 5.5t-13.5 20.5l2 12q4 20 39 45q33 23 47 45t22 63l68 318q6 27 6 44q0 19 -7 33.5t-23 30.5q-12 13 -18 23t-3 22q5 22 20.5 30t52.5 8h333
q29 0 44.5 3.5t32.5 10.5q20 8 35 8q20 0 29.5 -21.5t19.5 -85.5q7 -45 7 -68q0 -87 -58 -87q-17 0 -28.5 11t-16.5 29q-15 57 -23.5 78.5t-24 29.5t-50.5 8h-69q-23 0 -34 -9t-18 -41l-28 -130q-1 -4 -1 -10t3 -9t11 -3h39q18 0 24 8t8 33q2 24 11 36t28 12q20 0 30 -9
t14.5 -32t8.5 -76q3 -39 3 -66q0 -39 -10 -54t-37 -15q-20 0 -28.5 9t-10.5 29q-3 24 -9.5 31.5t-29.5 7.5h-46q-30 0 -39 -38l-35 -163q-2 -14 -2 -19q0 -14 8 -19t29 -5h104q43 0 73 26.5t64 88.5q22 41 61 41q35 0 35 -33zM203 745.5q-16 11.5 -16 30.5q0 28 24.5 46.5
t57.5 27.5t58 9t41 -9.5t16 -28.5q0 -7 -1 -10q-6 -26 -30.5 -43.5t-56 -25.5t-55.5 -8q-22 0 -38 11.5zM452 745.5q-16 11.5 -16 30.5q0 28 24.5 46.5t57.5 27.5t58 9t41 -9.5t16 -28.5q0 -7 -1 -10q-6 -26 -30.5 -43.5t-56 -25.5t-55.5 -8q-22 0 -38 11.5z" />
    <glyph glyph-name="Igrave" unicode="&#xcc;" horiz-adv-x="403" 
d="M40 0q-31 0 -44.5 5.5t-13.5 20.5l2 12q4 20 39 45q33 23 47 45t22 63l68 318q6 27 6 44q0 19 -7 33.5t-23 30.5q-12 13 -18 23t-3 22q5 22 20.5 30t52.5 8h102h14h102q32 0 45.5 -5.5t13.5 -20.5q0 -4 -2 -12q-4 -20 -39 -45q-33 -23 -47 -45t-22 -63l-68 -318
q-6 -27 -6 -44q0 -19 7 -33.5t23 -30.5q12 -13 18 -23t3 -22q-5 -22 -21 -30t-53 -8h-102h-14h-102zM326 750.5q-45 22.5 -79.5 52t-30.5 49.5q3 17 19.5 24.5t55.5 7.5q42 0 63.5 -6.5t26.5 -28.5q3 -9 9.5 -22t9.5 -18q12 -23 17.5 -37t4.5 -23q-4 -21 -30 -21
q-21 0 -66 22.5z" />
    <glyph glyph-name="Iacute" unicode="&#xcd;" horiz-adv-x="403" 
d="M40 0q-31 0 -44.5 5.5t-13.5 20.5l2 12q4 20 39 45q33 23 47 45t22 63l68 318q6 27 6 44q0 19 -7 33.5t-23 30.5q-12 13 -18 23t-3 22q5 22 20.5 30t52.5 8h102h14h102q32 0 45.5 -5.5t13.5 -20.5q0 -4 -2 -12q-4 -20 -39 -45q-33 -23 -47 -45t-22 -63l-68 -318
q-6 -27 -6 -44q0 -19 7 -33.5t23 -30.5q12 -13 18 -23t3 -22q-5 -22 -21 -30t-53 -8h-102h-14h-102zM194 748q2 10 12.5 23t34.5 39q26 28 35 40q15 21 37.5 28t56.5 7q48 0 63 -6.5t11 -25.5q-4 -20 -50 -49.5t-101.5 -53t-76.5 -23.5q-28 0 -22 21z" />
    <glyph glyph-name="Icircumflex" unicode="&#xce;" horiz-adv-x="403" 
d="M40 0q-31 0 -44.5 5.5t-13.5 20.5l2 12q4 20 39 45q33 23 47 45t22 63l68 318q6 27 6 44q0 19 -7 33.5t-23 30.5q-12 13 -18 23t-3 22q5 22 20.5 30t52.5 8h102h14h102q32 0 45.5 -5.5t13.5 -20.5q0 -4 -2 -12q-4 -20 -39 -45q-33 -23 -47 -45t-22 -63l-68 -318
q-6 -27 -6 -44q0 -19 7 -33.5t23 -30.5q12 -13 18 -23t3 -22q-5 -22 -21 -30t-53 -8h-102h-14h-102zM142 736.5q-6 8.5 -4 16.5q3 20 50 58t99 69q33 20 55 20q12 0 22.5 -5t24.5 -15q38 -31 68 -68.5t26 -58.5q-2 -8 -11 -16.5t-18 -8.5q-8 0 -20 6t-20.5 11.5t-12.5 7.5
q-70 43 -82 43q-10 0 -99 -43q-48 -25 -63 -25q-9 0 -15 8.5z" />
    <glyph glyph-name="Idieresis" unicode="&#xcf;" horiz-adv-x="403" 
d="M40 0q-31 0 -44.5 5.5t-13.5 20.5l2 12q4 20 39 45q33 23 47 45t22 63l68 318q6 27 6 44q0 19 -7 33.5t-23 30.5q-12 13 -18 23t-3 22q5 22 20.5 30t52.5 8h102h14h102q32 0 45.5 -5.5t13.5 -20.5q0 -4 -2 -12q-4 -20 -39 -45q-33 -23 -47 -45t-22 -63l-68 -318
q-6 -27 -6 -44q0 -19 7 -33.5t23 -30.5q12 -13 18 -23t3 -22q-5 -22 -21 -30t-53 -8h-102h-14h-102zM105 745.5q-16 11.5 -16 30.5q0 28 24.5 46.5t57.5 27.5t58 9t41 -9.5t16 -28.5q0 -7 -1 -10q-6 -26 -30.5 -43.5t-56 -25.5t-55.5 -8q-22 0 -38 11.5zM354 745.5
q-16 11.5 -16 30.5q0 28 24.5 46.5t57.5 27.5t58 9t41 -9.5t16 -28.5q0 -7 -1 -10q-6 -26 -30.5 -43.5t-56 -25.5t-55.5 -8q-22 0 -38 11.5z" />
    <glyph glyph-name="Eth" unicode="&#xd0;" horiz-adv-x="779" 
d="M689.5 637.5q97.5 -70.5 97.5 -206.5q0 -126 -58.5 -225.5t-171.5 -156.5t-270 -57q-26 0 -106 4q-94 4 -141 4q-31 0 -44.5 5.5t-13.5 20.5q0 18 10.5 30t30.5 27q33 23 47 45t22 63l19 90l1 4l1 6q0 14 -15 14h-37q-24 0 -24 23l2 16q7 38 38 38h37q17 0 23 19l23 108
q6 32 6 43q0 35 -30 65q-12 13 -18 23t-3 22q5 22 20.5 30t52.5 8q52 0 152 5q45 3 85 3q167 0 264.5 -70.5zM466.5 141q54.5 58 81 139.5t26.5 152.5q0 88 -43.5 139.5t-116.5 51.5q-18 0 -29 -8.5t-15 -28.5l-35 -167l-1 -6l-2 -9q-1 -4 -1 -10q0 -14 13 -14h107
q26 0 26 -23q0 -4 -2 -14q-4 -20 -13.5 -29t-26.5 -9h-107q-17 0 -21 -19l-4 -17l-1 -2l-28 -134q-2 -14 -2 -18q0 -19 14.5 -26t47.5 -7q78 0 132.5 58z" />
    <glyph glyph-name="Ntilde" unicode="&#xd1;" horiz-adv-x="766" 
d="M-7.5 5q-11.5 6 -11.5 18q0 34 39 51q25 11 36.5 23t21.5 43.5t26 107.5l56 261q10 44 10 69q0 18 -7 28.5t-24 19.5q-28 13 -23 41q4 18 18 26t48 8l142 -1q17 0 27 -4.5t16 -13.5l209 -320q4 -6 9.5 -9t11.5 -3t11.5 5.5t7.5 15.5l30 138q10 44 10 69q0 18 -7 28.5
t-24 19.5q-28 13 -23 41q4 18 18 26t48 8h123q29 0 40.5 -5.5t11.5 -18.5q0 -34 -39 -51q-26 -12 -37 -24t-20.5 -42t-26.5 -108l-89 -417q-4 -18 -15 -28t-25 -10q-21 0 -32 17l-295 433q-6 9 -16 9q-12 0 -17 -19l-52 -246q-10 -44 -10 -69q0 -19 7 -29t24 -19
q28 -13 23 -41q-4 -18 -18 -26t-48 -8h-124q-29 0 -40.5 6zM526 746.5q-20 7.5 -47 21.5q-24 12 -37.5 17t-25.5 5q-10 0 -16.5 -5t-13.5 -15q-14 -18 -26 -24.5t-24 -6.5q-16 0 -24.5 8.5t-8.5 23.5q0 32 17 56t43.5 37t53.5 13q25 0 46 -8t49 -22q24 -12 35 -16.5t23 -4.5
q15 0 29 20q14 18 25 24.5t24 6.5q16 0 25.5 -9t9.5 -25q-1 -31 -18.5 -55t-44.5 -36.5t-54 -12.5q-20 0 -40 7.5z" />
    <glyph glyph-name="Ograve" unicode="&#xd2;" horiz-adv-x="785" 
d="M174.5 20.5q-68.5 32.5 -105.5 94t-37 145.5q0 111 56.5 215.5t160.5 170.5t241 66q94 0 163.5 -32.5t106.5 -93.5t37 -145q0 -111 -56.5 -216t-161 -171t-242.5 -66q-94 0 -162.5 32.5zM472.5 143.5q49.5 61.5 75.5 150t26 163.5q0 73 -26.5 117t-78.5 44
q-66 0 -115 -61.5t-74.5 -150t-25.5 -164.5q0 -72 26.5 -116t77.5 -44q65 0 114.5 61.5zM508 750.5q-45 22.5 -79.5 52t-30.5 49.5q3 17 19.5 24.5t55.5 7.5q42 0 63.5 -6.5t26.5 -28.5q3 -9 9.5 -22t9.5 -18q12 -23 17.5 -37t4.5 -23q-4 -21 -30 -21q-21 0 -66 22.5z" />
    <glyph glyph-name="Oacute" unicode="&#xd3;" horiz-adv-x="785" 
d="M174.5 20.5q-68.5 32.5 -105.5 94t-37 145.5q0 111 56.5 215.5t160.5 170.5t241 66q94 0 163.5 -32.5t106.5 -93.5t37 -145q0 -111 -56.5 -216t-161 -171t-242.5 -66q-94 0 -162.5 32.5zM472.5 143.5q49.5 61.5 75.5 150t26 163.5q0 73 -26.5 117t-78.5 44
q-66 0 -115 -61.5t-74.5 -150t-25.5 -164.5q0 -72 26.5 -116t77.5 -44q65 0 114.5 61.5zM376 748q2 10 12.5 23t34.5 39q26 28 35 40q15 21 37.5 28t56.5 7q48 0 63 -6.5t11 -25.5q-4 -20 -50 -49.5t-101.5 -53t-76.5 -23.5q-28 0 -22 21z" />
    <glyph glyph-name="Ocircumflex" unicode="&#xd4;" horiz-adv-x="785" 
d="M174.5 20.5q-68.5 32.5 -105.5 94t-37 145.5q0 111 56.5 215.5t160.5 170.5t241 66q94 0 163.5 -32.5t106.5 -93.5t37 -145q0 -111 -56.5 -216t-161 -171t-242.5 -66q-94 0 -162.5 32.5zM472.5 143.5q49.5 61.5 75.5 150t26 163.5q0 73 -26.5 117t-78.5 44
q-66 0 -115 -61.5t-74.5 -150t-25.5 -164.5q0 -72 26.5 -116t77.5 -44q65 0 114.5 61.5zM324 736.5q-6 8.5 -4 16.5q3 20 50 58t99 69q33 20 55 20q12 0 22.5 -5t24.5 -15q38 -31 68 -68.5t26 -58.5q-2 -8 -11 -16.5t-18 -8.5q-8 0 -20 6t-20.5 11.5t-12.5 7.5
q-70 43 -82 43q-10 0 -99 -43q-48 -25 -63 -25q-9 0 -15 8.5z" />
    <glyph glyph-name="Otilde" unicode="&#xd5;" horiz-adv-x="785" 
d="M174.5 20.5q-68.5 32.5 -105.5 94t-37 145.5q0 111 56.5 215.5t160.5 170.5t241 66q94 0 163.5 -32.5t106.5 -93.5t37 -145q0 -111 -56.5 -216t-161 -171t-242.5 -66q-94 0 -162.5 32.5zM472.5 143.5q49.5 61.5 75.5 150t26 163.5q0 73 -26.5 117t-78.5 44
q-66 0 -115 -61.5t-74.5 -150t-25.5 -164.5q0 -72 26.5 -116t77.5 -44q65 0 114.5 61.5zM523 746.5q-20 7.5 -47 21.5q-24 12 -37.5 17t-25.5 5q-10 0 -16.5 -5t-13.5 -15q-14 -18 -26 -24.5t-24 -6.5q-16 0 -24.5 8.5t-8.5 23.5q0 32 17 56t43.5 37t53.5 13q25 0 46 -8
t49 -22q24 -12 35 -16.5t23 -4.5q15 0 29 20q14 18 25 24.5t24 6.5q16 0 25.5 -9t9.5 -25q-1 -31 -18.5 -55t-44.5 -36.5t-54 -12.5q-20 0 -40 7.5z" />
    <glyph glyph-name="Odieresis" unicode="&#xd6;" horiz-adv-x="785" 
d="M174.5 20.5q-68.5 32.5 -105.5 94t-37 145.5q0 111 56.5 215.5t160.5 170.5t241 66q94 0 163.5 -32.5t106.5 -93.5t37 -145q0 -111 -56.5 -216t-161 -171t-242.5 -66q-94 0 -162.5 32.5zM472.5 143.5q49.5 61.5 75.5 150t26 163.5q0 73 -26.5 117t-78.5 44
q-66 0 -115 -61.5t-74.5 -150t-25.5 -164.5q0 -72 26.5 -116t77.5 -44q65 0 114.5 61.5zM287 745.5q-16 11.5 -16 30.5q0 28 24.5 46.5t57.5 27.5t58 9t41 -9.5t16 -28.5q0 -7 -1 -10q-6 -26 -30.5 -43.5t-56 -25.5t-55.5 -8q-22 0 -38 11.5zM536 745.5q-16 11.5 -16 30.5
q0 28 24.5 46.5t57.5 27.5t58 9t41 -9.5t16 -28.5q0 -7 -1 -10q-6 -26 -30.5 -43.5t-56 -25.5t-55.5 -8q-22 0 -38 11.5z" />
    <glyph glyph-name="multiply" unicode="&#xd7;" horiz-adv-x="432" 
d="M33 178q0 24 30 42l63 41q6 5 6 11q0 5 -6 11l-59 59q-19 19 -19 33q0 15 21 29q24 16 44 16q26 0 54 -28l49 -49q8 -8 17 -8q5 0 11 4l75 47q15 11 32 11q27 0 53 -26q15 -15 15 -28q0 -16 -25 -31l-76 -50q-7 -3 -7 -10q0 -4 4 -8l63 -63q14 -14 14 -28q0 -21 -29 -40
q-19 -12 -34 -12q-21 0 -42 21l-64 64q-5 5 -11 5q-5 0 -9 -3l-76 -50q-23 -15 -38 -15q-19 0 -38 19q-18 18 -18 36z" />
    <glyph glyph-name="Oslash" unicode="&#xd8;" horiz-adv-x="785" 
d="M743 711q11 9 32 9q22 0 38.5 -9t16.5 -24q0 -17 -20 -34l-59 -54q46 -64 46 -158q0 -111 -56.5 -216t-161 -171t-242.5 -66q-119 0 -197 52l-56 -52q-10 -10 -35 -10q-21 0 -38 8.5t-17 23.5q0 17 22 36l61 56q-45 65 -45 158q0 111 56.5 215.5t160.5 170.5t241 66
q120 0 198 -52zM359 562q-47 -56 -73.5 -138.5t-30.5 -159.5l306 281q-12 35 -35 54t-57 19q-63 0 -110 -56zM468 138.5q48 56.5 75 139t30 158.5l-306 -281q12 -35 34.5 -54t56.5 -19q62 0 110 56.5z" />
    <glyph glyph-name="Ugrave" unicode="&#xd9;" horiz-adv-x="779" 
d="M87 195q0 42 10 88l48 226q6 29 6 48q0 18 -6.5 31.5t-23.5 28.5q-21 18 -21 37q0 22 15 34.5t54 12.5l222 -1q31 0 44.5 -6t13.5 -22q0 -7 -1 -11q-4 -20 -40 -44q-33 -23 -47 -45t-22 -63l-46 -217q-7 -37 -7 -58q0 -60 33.5 -94t96.5 -34q79 0 128 44t66 122l50 232
q7 29 7 51t-7 35t-22 26q-26 24 -21 45q4 21 21.5 30t52.5 9h104q31 0 46 -7t15 -23q0 -14 -12 -28t-30 -26q-28 -19 -43 -41t-25 -71l-48 -223q-32 -147 -115.5 -220t-224.5 -73q-271 0 -271 207zM533 750.5q-45 22.5 -79.5 52t-30.5 49.5q3 17 19.5 24.5t55.5 7.5
q42 0 63.5 -6.5t26.5 -28.5q3 -9 9.5 -22t9.5 -18q12 -23 17.5 -37t4.5 -23q-4 -21 -30 -21q-21 0 -66 22.5z" />
    <glyph glyph-name="Uacute" unicode="&#xda;" horiz-adv-x="779" 
d="M87 195q0 42 10 88l48 226q6 29 6 48q0 18 -6.5 31.5t-23.5 28.5q-21 18 -21 37q0 22 15 34.5t54 12.5l222 -1q31 0 44.5 -6t13.5 -22q0 -7 -1 -11q-4 -20 -40 -44q-33 -23 -47 -45t-22 -63l-46 -217q-7 -37 -7 -58q0 -60 33.5 -94t96.5 -34q79 0 128 44t66 122l50 232
q7 29 7 51t-7 35t-22 26q-26 24 -21 45q4 21 21.5 30t52.5 9h104q31 0 46 -7t15 -23q0 -14 -12 -28t-30 -26q-28 -19 -43 -41t-25 -71l-48 -223q-32 -147 -115.5 -220t-224.5 -73q-271 0 -271 207zM401 748q2 10 12.5 23t34.5 39q26 28 35 40q15 21 37.5 28t56.5 7
q48 0 63 -6.5t11 -25.5q-4 -20 -50 -49.5t-101.5 -53t-76.5 -23.5q-28 0 -22 21z" />
    <glyph glyph-name="Ucircumflex" unicode="&#xdb;" horiz-adv-x="779" 
d="M87 195q0 42 10 88l48 226q6 29 6 48q0 18 -6.5 31.5t-23.5 28.5q-21 18 -21 37q0 22 15 34.5t54 12.5l222 -1q31 0 44.5 -6t13.5 -22q0 -7 -1 -11q-4 -20 -40 -44q-33 -23 -47 -45t-22 -63l-46 -217q-7 -37 -7 -58q0 -60 33.5 -94t96.5 -34q79 0 128 44t66 122l50 232
q7 29 7 51t-7 35t-22 26q-26 24 -21 45q4 21 21.5 30t52.5 9h104q31 0 46 -7t15 -23q0 -14 -12 -28t-30 -26q-28 -19 -43 -41t-25 -71l-48 -223q-32 -147 -115.5 -220t-224.5 -73q-271 0 -271 207zM349 736.5q-6 8.5 -4 16.5q3 20 50 58t99 69q33 20 55 20q12 0 22.5 -5
t24.5 -15q38 -31 68 -68.5t26 -58.5q-2 -8 -11 -16.5t-18 -8.5q-8 0 -20 6t-20.5 11.5t-12.5 7.5q-70 43 -82 43q-10 0 -99 -43q-48 -25 -63 -25q-9 0 -15 8.5z" />
    <glyph glyph-name="Udieresis" unicode="&#xdc;" horiz-adv-x="779" 
d="M87 195q0 42 10 88l48 226q6 29 6 48q0 18 -6.5 31.5t-23.5 28.5q-21 18 -21 37q0 22 15 34.5t54 12.5l222 -1q31 0 44.5 -6t13.5 -22q0 -7 -1 -11q-4 -20 -40 -44q-33 -23 -47 -45t-22 -63l-46 -217q-7 -37 -7 -58q0 -60 33.5 -94t96.5 -34q79 0 128 44t66 122l50 232
q7 29 7 51t-7 35t-22 26q-26 24 -21 45q4 21 21.5 30t52.5 9h104q31 0 46 -7t15 -23q0 -14 -12 -28t-30 -26q-28 -19 -43 -41t-25 -71l-48 -223q-32 -147 -115.5 -220t-224.5 -73q-271 0 -271 207zM312 745.5q-16 11.5 -16 30.5q0 28 24.5 46.5t57.5 27.5t58 9t41 -9.5
t16 -28.5q0 -7 -1 -10q-6 -26 -30.5 -43.5t-56 -25.5t-55.5 -8q-22 0 -38 11.5zM561 745.5q-16 11.5 -16 30.5q0 28 24.5 46.5t57.5 27.5t58 9t41 -9.5t16 -28.5q0 -7 -1 -10q-6 -26 -30.5 -43.5t-56 -25.5t-55.5 -8q-22 0 -38 11.5z" />
    <glyph glyph-name="Yacute" unicode="&#xdd;" horiz-adv-x="702" 
d="M150.5 5.5q-13.5 5.5 -13.5 20.5l2 12q4 20 39 45q33 23 47 45t22 63l6 29q3 15 3 31q0 39 -13 78l-74 222q-7 20 -19 31t-23 17.5t-15 9.5q-12 8 -17 14.5t-5 18.5q0 3 2 15q6 26 26.5 34.5t64.5 8.5h202q50 0 66 -10.5t13 -27.5q-3 -16 -12.5 -26t-25.5 -19
q-35 -19 -35 -44q0 -8 3 -17l40 -117q6 -15 15 -15q10 0 20 15l95 130q12 17 12 27q0 9 -6 16t-18 16q-13 10 -13 22q0 3 2 11q5 23 21.5 31t50.5 8h124q50 0 50 -26q0 -22 -15.5 -34t-42.5 -25q-15 -8 -26 -19.5t-40 -48.5l-163 -207q-36 -45 -52 -120l-6 -29
q-6 -27 -6 -44q0 -19 6.5 -33.5t22.5 -30.5q12 -12 18 -21.5t3 -23.5q-4 -19 -18.5 -29t-47.5 -10l-225 1q-31 0 -44.5 5.5zM373 748q2 10 12.5 23t34.5 39q26 28 35 40q15 21 37.5 28t56.5 7q48 0 63 -6.5t11 -25.5q-4 -20 -50 -49.5t-101.5 -53t-76.5 -23.5q-28 0 -22 21z
" />
    <glyph glyph-name="Thorn" unicode="&#xde;" horiz-adv-x="676" 
d="M-4.5 5.5q-13.5 5.5 -13.5 20.5l2 12q4 20 39 45q33 23 47 45t22 63l68 318q6 27 6 45q0 19 -6.5 33t-22.5 31q-13 15 -18.5 25t-2.5 24q4 18 18 26t48 8l225 -1q32 0 45.5 -5.5t13.5 -20.5q0 -4 -2 -12q-4 -20 -39 -45q-53 -38 -59 -58v-2l-1 -6q0 -12 20 -12h25
q140 0 212.5 -39t72.5 -111q0 -10 -4 -34q-19 -88 -102 -132.5t-227 -44.5h-50q-29 0 -37 -36l-1 -5q-2 -10 1.5 -16t15.5 -19l17 -18q12 -12 18 -23.5t3 -25.5q-4 -18 -18 -27t-48 -9l-223 1q-31 0 -44.5 5.5zM363 263q44 0 73.5 24.5t39.5 71.5q3 15 3 28q0 32 -19 50
t-57 18h-20q-17 0 -31 -12t-20 -40l-19 -89q-3 -15 -3 -26q0 -14 7 -19.5t24 -5.5h22z" />
    <glyph glyph-name="germandbls" unicode="&#xdf;" horiz-adv-x="670" 
d="M607 359q38 -46 38 -108q0 -72 -38 -132.5t-101 -95.5t-134 -35q-63 0 -92.5 26t-29.5 68q0 22 8 41.5t25 19.5q9 0 13.5 -7.5t2.5 -17.5q-3 -18 9 -28.5t34 -10.5q29 0 52.5 26.5t36.5 65t13 69.5q0 50 -29 81.5t-75 31.5q-18 0 -26.5 6.5t-8.5 22.5q0 22 9 32.5
t37 27.5q53 26 75 61t22 79q0 24 -12.5 37t-35.5 13q-39 0 -67.5 -33t-37.5 -77l-80 -378q-4 -23 -4 -35q0 -7 3 -21.5t3 -35.5q0 -30 -22 -41t-69 -11h-37l-68 -1q-50 0 -68.5 8.5t-13.5 29.5q3 13 10.5 20t20.5 13q22 11 34.5 25.5t20 38t16.5 70.5l7 33l53 249
q22 107 99.5 166.5t219.5 59.5q88 0 140 -38t52 -99q0 -51 -27.5 -90.5t-82.5 -62.5q67 -17 105 -63z" />
    <glyph glyph-name="agrave" unicode="&#xe0;" horiz-adv-x="638" 
d="M42.5 30q-35.5 42 -35.5 113q0 86 34 169.5t98.5 137.5t152.5 54q48 0 96 -21q34 -15 62 -15q10 0 19 3t16.5 6.5t12.5 5.5q17 7 22 11q9 4 18 7.5t16 3.5q13 0 19.5 -7t6.5 -17q0 -6 -1 -9l-64 -299q-3 -12 -3 -21q0 -24 19 -24q8 0 15 4.5t21 16.5q12 9 22 9q9 0 14 -6
t5 -17q0 -17 -9 -34q-24 -47 -66 -80t-96 -33t-82 29t-25 73q0 12 -6 12q-4 0 -12 -9q-35 -46 -73 -75.5t-88 -29.5q-73 0 -108.5 42zM305.5 164.5q28.5 36.5 41.5 85.5t17.5 74.5t4.5 42.5q0 59 -47 59q-32 0 -59 -37t-42.5 -88.5t-15.5 -91.5q0 -38 10 -59.5t30 -21.5
q32 0 60.5 36.5zM357.5 579q-42.5 28 -75 63t-28.5 55q3 17 19.5 24.5t55.5 7.5q42 0 63.5 -6.5t26.5 -29.5q1 -3 8 -22q27 -79 24 -99q-6 -21 -31 -21q-20 0 -62.5 28z" />
    <glyph glyph-name="aacute" unicode="&#xe1;" horiz-adv-x="638" 
d="M42.5 30q-35.5 42 -35.5 113q0 86 34 169.5t98.5 137.5t152.5 54q48 0 96 -21q34 -15 62 -15q10 0 19 3t16.5 6.5t12.5 5.5q17 7 22 11q9 4 18 7.5t16 3.5q13 0 19.5 -7t6.5 -17q0 -6 -1 -9l-64 -299q-3 -12 -3 -21q0 -24 19 -24q8 0 15 4.5t21 16.5q12 9 22 9q9 0 14 -6
t5 -17q0 -17 -9 -34q-24 -47 -66 -80t-96 -33t-82 29t-25 73q0 12 -6 12q-4 0 -12 -9q-35 -46 -73 -75.5t-88 -29.5q-73 0 -108.5 42zM305.5 164.5q28.5 36.5 41.5 85.5t17.5 74.5t4.5 42.5q0 59 -47 59q-32 0 -59 -37t-42.5 -88.5t-15.5 -91.5q0 -38 10 -59.5t30 -21.5
q32 0 60.5 36.5zM322 571q3 20 56 89l23 33q14 23 35 29.5t61 6.5q39 0 52.5 -7t11.5 -25q-3 -20 -47 -55t-96 -63t-72 -28q-27 0 -24 20z" />
    <glyph glyph-name="acircumflex" unicode="&#xe2;" horiz-adv-x="638" 
d="M42.5 30q-35.5 42 -35.5 113q0 86 34 169.5t98.5 137.5t152.5 54q48 0 96 -21q34 -15 62 -15q10 0 19 3t16.5 6.5t12.5 5.5q17 7 22 11q9 4 18 7.5t16 3.5q13 0 19.5 -7t6.5 -17q0 -6 -1 -9l-64 -299q-3 -12 -3 -21q0 -24 19 -24q8 0 15 4.5t21 16.5q12 9 22 9q9 0 14 -6
t5 -17q0 -17 -9 -34q-24 -47 -66 -80t-96 -33t-82 29t-25 73q0 12 -6 12q-4 0 -12 -9q-35 -46 -73 -75.5t-88 -29.5q-73 0 -108.5 42zM305.5 164.5q28.5 36.5 41.5 85.5t17.5 74.5t4.5 42.5q0 59 -47 59q-32 0 -59 -37t-42.5 -88.5t-15.5 -91.5q0 -38 10 -59.5t30 -21.5
q32 0 60.5 36.5zM218 550.5q-6 6.5 -6 14.5q0 23 48.5 65t101.5 74q28 16 55 16q26 0 47 -16q34 -27 64 -70t30 -65q0 -9 -8.5 -17t-19.5 -8q-23 0 -54 25q-35 27 -55 39t-26 12q-5 0 -31 -12.5t-70 -38.5q-20 -13 -36 -19t-24 -6q-10 0 -16 6.5z" />
    <glyph glyph-name="atilde" unicode="&#xe3;" horiz-adv-x="638" 
d="M42.5 30q-35.5 42 -35.5 113q0 86 34 169.5t98.5 137.5t152.5 54q48 0 96 -21q34 -15 62 -15q10 0 19 3t16.5 6.5t12.5 5.5q17 7 22 11q9 4 18 7.5t16 3.5q13 0 19.5 -7t6.5 -17q0 -6 -1 -9l-64 -299q-3 -12 -3 -21q0 -24 19 -24q8 0 15 4.5t21 16.5q12 9 22 9q9 0 14 -6
t5 -17q0 -17 -9 -34q-24 -47 -66 -80t-96 -33t-82 29t-25 73q0 12 -6 12q-4 0 -12 -9q-35 -46 -73 -75.5t-88 -29.5q-73 0 -108.5 42zM305.5 164.5q28.5 36.5 41.5 85.5t17.5 74.5t4.5 42.5q0 59 -47 59q-32 0 -59 -37t-42.5 -88.5t-15.5 -91.5q0 -38 10 -59.5t30 -21.5
q32 0 60.5 36.5zM423 574.5q-20 7.5 -47 21.5q-24 12 -37.5 17t-25.5 5q-10 0 -16.5 -5t-13.5 -15q-14 -18 -26 -24.5t-24 -6.5q-16 0 -24.5 8.5t-8.5 23.5q0 32 17 56t43.5 37t53.5 13q25 0 46 -8t49 -22q24 -12 35 -16.5t23 -4.5q15 0 29 20q14 18 25 24.5t24 6.5
q16 0 25.5 -9t9.5 -25q-1 -31 -18.5 -55t-44.5 -36.5t-54 -12.5q-20 0 -40 7.5z" />
    <glyph glyph-name="adieresis" unicode="&#xe4;" horiz-adv-x="638" 
d="M42.5 30q-35.5 42 -35.5 113q0 86 34 169.5t98.5 137.5t152.5 54q48 0 96 -21q34 -15 62 -15q10 0 19 3t16.5 6.5t12.5 5.5q17 7 22 11q9 4 18 7.5t16 3.5q13 0 19.5 -7t6.5 -17q0 -6 -1 -9l-64 -299q-3 -12 -3 -21q0 -24 19 -24q8 0 15 4.5t21 16.5q12 9 22 9q9 0 14 -6
t5 -17q0 -17 -9 -34q-24 -47 -66 -80t-96 -33t-82 29t-25 73q0 12 -6 12q-4 0 -12 -9q-35 -46 -73 -75.5t-88 -29.5q-73 0 -108.5 42zM305.5 164.5q28.5 36.5 41.5 85.5t17.5 74.5t4.5 42.5q0 59 -47 59q-32 0 -59 -37t-42.5 -88.5t-15.5 -91.5q0 -38 10 -59.5t30 -21.5
q32 0 60.5 36.5zM194 594.5q-16 11.5 -16 30.5q0 28 24.5 46.5t57.5 27.5t58 9t41 -9.5t16 -28.5q0 -7 -1 -10q-6 -26 -30.5 -43.5t-56 -25.5t-55.5 -8q-22 0 -38 11.5zM443 594.5q-16 11.5 -16 30.5q0 28 24.5 46.5t57.5 27.5t58 9t41 -9.5t16 -28.5q0 -7 -1 -10
q-6 -26 -30.5 -43.5t-56 -25.5t-55.5 -8q-22 0 -38 11.5z" />
    <glyph glyph-name="aring" unicode="&#xe5;" horiz-adv-x="638" 
d="M42.5 30q-35.5 42 -35.5 113q0 86 34 169.5t98.5 137.5t152.5 54q48 0 96 -21q34 -15 62 -15q10 0 19 3t16.5 6.5t12.5 5.5q17 7 22 11q9 4 18 7.5t16 3.5q13 0 19.5 -7t6.5 -17q0 -6 -1 -9l-64 -299q-3 -12 -3 -21q0 -24 19 -24q8 0 15 4.5t21 16.5q12 9 22 9q9 0 14 -6
t5 -17q0 -17 -9 -34q-24 -47 -66 -80t-96 -33t-82 29t-25 73q0 12 -6 12q-4 0 -12 -9q-35 -46 -73 -75.5t-88 -29.5q-73 0 -108.5 42zM305.5 164.5q28.5 36.5 41.5 85.5t17.5 74.5t4.5 42.5q0 59 -47 59q-32 0 -59 -37t-42.5 -88.5t-15.5 -91.5q0 -38 10 -59.5t30 -21.5
q32 0 60.5 36.5zM316 571q-26 18 -26 52q0 6 2 18q9 42 44 64.5t79 22.5q38 0 65 -19t27 -53q0 -49 -38.5 -76t-86.5 -27q-40 0 -66 18zM418 616q10 14 10 34q0 13 -5.5 21.5t-16.5 8.5q-17 0 -27 -15t-10 -33q0 -13 6 -21.5t17 -8.5q16 0 26 14z" />
    <glyph glyph-name="ae" unicode="&#xe6;" horiz-adv-x="803" 
d="M752 165q9 0 14.5 -6t5.5 -16q0 -5 -4 -17q-28 -61 -86.5 -99.5t-143.5 -38.5q-63 0 -110 23t-73 65q-83 -88 -217 -88q-76 0 -110.5 31t-34.5 82q0 19 5 42q14 65 84 104t170 44q52 2 69 6t18 22l3 43q2 24 2 32q0 26 -9 37t-34 11q-53 0 -80 -72q-14 -30 -37 -44
t-56 -14q-19 0 -32.5 11t-13.5 32q0 4 2 14q9 40 46 71t92.5 48.5t117.5 17.5q106 0 148 -45q76 45 165 45q43 0 77 -16.5t53 -45t19 -60.5q-1 -48 -24.5 -79.5t-81 -53t-161.5 -34.5q-9 -2 -12.5 -4.5t-3.5 -8.5q0 -43 19.5 -71t62.5 -28q42 0 72.5 14.5t56.5 36.5
q12 9 22 9zM570.5 410.5q-23.5 -25.5 -36.5 -61t-15 -65.5q0 -7 1.5 -10t6.5 -3q2 0 10 2q62 14 96 35.5t35 65.5q0 62 -44 62q-30 0 -53.5 -25.5zM295 93q28 25 32 74v15q0 11 2 31q-2 18 -12 23.5t-36 5.5q-39 0 -61 -19t-29 -49q-5 -25 -5 -42q0 -31 12.5 -47.5
t35.5 -16.5q33 0 61 25z" />
    <glyph glyph-name="ccedilla" unicode="&#xe7;" horiz-adv-x="503" 
d="M267 397.5q-25 -28.5 -38.5 -73.5t-13.5 -92q0 -56 22.5 -89.5t66.5 -33.5q31 0 61 14.5t50 32.5q12 11 24 11q8 0 13 -6.5t5 -16.5q0 -8 -3 -17q-18 -43 -63.5 -81t-107.5 -51l-22 -36q67 -5 67 -54q0 -36 -30.5 -62t-86.5 -26q-38 0 -59 14t-22 32q1 9 7.5 12.5
t13.5 0.5q28 -7 43 -7q23 0 37 10.5t14 27.5q0 12 -10 18.5t-29 6.5q-21 0 -21 12q0 13 22 44q-90 4 -142 56.5t-52 137.5q0 80 41.5 155t114.5 122t162 47q46 0 86.5 -17.5t65 -48.5t24.5 -70q0 -37 -17 -58.5t-47 -21.5q-33 0 -45.5 16.5t-22.5 55.5q-12 64 -52 64
q-31 0 -56 -28.5z" />
    <glyph glyph-name="egrave" unicode="&#xe8;" horiz-adv-x="488" 
d="M69 41q-56 53 -56 140q0 84 42.5 159t117 120.5t165.5 45.5q42 0 75.5 -16t52.5 -43t19 -60q0 -50 -20.5 -84t-76 -58.5t-156.5 -37.5q-9 -2 -13 -4.5t-4 -10.5q0 -6 1 -9q19 -74 95 -74q49 0 102 47q12 9 23 9q9 0 15 -6t6 -16q0 -9 -4 -17q-26 -60 -85.5 -99
t-144.5 -39q-98 0 -154 53zM320 308.5q30 22.5 31 67.5q0 27 -8.5 38.5t-27.5 11.5q-23 0 -45.5 -23.5t-37 -57t-16.5 -60.5q0 -14 8 -14q2 0 10 2q56 13 86 35.5zM300.5 579q-42.5 28 -75 63t-28.5 55q3 17 19.5 24.5t55.5 7.5q42 0 63.5 -6.5t26.5 -29.5q1 -3 8 -22
q27 -79 24 -99q-6 -21 -31 -21q-20 0 -62.5 28z" />
    <glyph glyph-name="eacute" unicode="&#xe9;" horiz-adv-x="488" 
d="M69 41q-56 53 -56 140q0 84 42.5 159t117 120.5t165.5 45.5q42 0 75.5 -16t52.5 -43t19 -60q0 -50 -20.5 -84t-76 -58.5t-156.5 -37.5q-9 -2 -13 -4.5t-4 -10.5q0 -6 1 -9q19 -74 95 -74q49 0 102 47q12 9 23 9q9 0 15 -6t6 -16q0 -9 -4 -17q-26 -60 -85.5 -99
t-144.5 -39q-98 0 -154 53zM320 308.5q30 22.5 31 67.5q0 27 -8.5 38.5t-27.5 11.5q-23 0 -45.5 -23.5t-37 -57t-16.5 -60.5q0 -14 8 -14q2 0 10 2q56 13 86 35.5zM265 571q3 20 56 89l23 33q14 23 35 29.5t61 6.5q39 0 52.5 -7t11.5 -25q-3 -20 -47 -55t-96 -63t-72 -28
q-27 0 -24 20z" />
    <glyph glyph-name="ecircumflex" unicode="&#xea;" horiz-adv-x="488" 
d="M69 41q-56 53 -56 140q0 84 42.5 159t117 120.5t165.5 45.5q42 0 75.5 -16t52.5 -43t19 -60q0 -50 -20.5 -84t-76 -58.5t-156.5 -37.5q-9 -2 -13 -4.5t-4 -10.5q0 -6 1 -9q19 -74 95 -74q49 0 102 47q12 9 23 9q9 0 15 -6t6 -16q0 -9 -4 -17q-26 -60 -85.5 -99
t-144.5 -39q-98 0 -154 53zM320 308.5q30 22.5 31 67.5q0 27 -8.5 38.5t-27.5 11.5q-23 0 -45.5 -23.5t-37 -57t-16.5 -60.5q0 -14 8 -14q2 0 10 2q56 13 86 35.5zM161 550.5q-6 6.5 -6 14.5q0 23 48.5 65t101.5 74q28 16 55 16q26 0 47 -16q34 -27 64 -70t30 -65
q0 -9 -8.5 -17t-19.5 -8q-23 0 -54 25q-35 27 -55 39t-26 12q-5 0 -31 -12.5t-70 -38.5q-20 -13 -36 -19t-24 -6q-10 0 -16 6.5z" />
    <glyph glyph-name="edieresis" unicode="&#xeb;" horiz-adv-x="488" 
d="M69 41q-56 53 -56 140q0 84 42.5 159t117 120.5t165.5 45.5q42 0 75.5 -16t52.5 -43t19 -60q0 -50 -20.5 -84t-76 -58.5t-156.5 -37.5q-9 -2 -13 -4.5t-4 -10.5q0 -6 1 -9q19 -74 95 -74q49 0 102 47q12 9 23 9q9 0 15 -6t6 -16q0 -9 -4 -17q-26 -60 -85.5 -99
t-144.5 -39q-98 0 -154 53zM320 308.5q30 22.5 31 67.5q0 27 -8.5 38.5t-27.5 11.5q-23 0 -45.5 -23.5t-37 -57t-16.5 -60.5q0 -14 8 -14q2 0 10 2q56 13 86 35.5zM137 594.5q-16 11.5 -16 30.5q0 28 24.5 46.5t57.5 27.5t58 9t41 -9.5t16 -28.5q0 -7 -1 -10
q-6 -26 -30.5 -43.5t-56 -25.5t-55.5 -8q-22 0 -38 11.5zM386 594.5q-16 11.5 -16 30.5q0 28 24.5 46.5t57.5 27.5t58 9t41 -9.5t16 -28.5q0 -7 -1 -10q-6 -26 -30.5 -43.5t-56 -25.5t-55.5 -8q-22 0 -38 11.5z" />
    <glyph glyph-name="igrave" unicode="&#xec;" horiz-adv-x="355" 
d="M65 14.5q-26 26.5 -26 75.5q0 37 15 95l34 144q3 14 3 24q0 23 -17 34q-6 3 -16.5 7.5t-15.5 9t-5 11.5q0 17 13 25.5t46 20.5q115 39 166 39q21 0 30.5 -6t9.5 -19q0 -3 -2 -15l-63 -287q-2 -8 -2 -20q0 -25 18 -25q7 0 13 3.5t12.5 9.5t10.5 10q10 8 19 8t15.5 -7
t6.5 -20t-9 -31q-21 -46 -68 -79.5t-102 -33.5q-60 0 -86 26.5zM198.5 579q-42.5 28 -75 63t-28.5 55q3 17 19.5 24.5t55.5 7.5q42 0 63.5 -6.5t26.5 -29.5q1 -3 8 -22q27 -79 24 -99q-6 -21 -31 -21q-20 0 -62.5 28z" />
    <glyph glyph-name="iacute" unicode="&#xed;" horiz-adv-x="355" 
d="M65 14.5q-26 26.5 -26 75.5q0 37 15 95l34 144q3 14 3 24q0 23 -17 34q-6 3 -16.5 7.5t-15.5 9t-5 11.5q0 17 13 25.5t46 20.5q115 39 166 39q21 0 30.5 -6t9.5 -19q0 -3 -2 -15l-63 -287q-2 -8 -2 -20q0 -25 18 -25q7 0 13 3.5t12.5 9.5t10.5 10q10 8 19 8t15.5 -7
t6.5 -20t-9 -31q-21 -46 -68 -79.5t-102 -33.5q-60 0 -86 26.5zM163 571q3 20 56 89l23 33q14 23 35 29.5t61 6.5q39 0 52.5 -7t11.5 -25q-3 -20 -47 -55t-96 -63t-72 -28q-27 0 -24 20z" />
    <glyph glyph-name="icircumflex" unicode="&#xee;" horiz-adv-x="355" 
d="M65 14.5q-26 26.5 -26 75.5q0 37 15 95l34 144q3 14 3 24q0 23 -17 34q-6 3 -16.5 7.5t-15.5 9t-5 11.5q0 17 13 25.5t46 20.5q115 39 166 39q21 0 30.5 -6t9.5 -19q0 -3 -2 -15l-63 -287q-2 -8 -2 -20q0 -25 18 -25q7 0 13 3.5t12.5 9.5t10.5 10q10 8 19 8t15.5 -7
t6.5 -20t-9 -31q-21 -46 -68 -79.5t-102 -33.5q-60 0 -86 26.5zM59 550.5q-6 6.5 -6 14.5q0 23 48.5 65t101.5 74q28 16 55 16q26 0 47 -16q34 -27 64 -70t30 -65q0 -9 -8.5 -17t-19.5 -8q-23 0 -54 25q-35 27 -55 39t-26 12q-5 0 -31 -12.5t-70 -38.5q-20 -13 -36 -19
t-24 -6q-10 0 -16 6.5z" />
    <glyph glyph-name="idieresis" unicode="&#xef;" horiz-adv-x="355" 
d="M65 14.5q-26 26.5 -26 75.5q0 37 15 95l34 144q3 14 3 24q0 23 -17 34q-6 3 -16.5 7.5t-15.5 9t-5 11.5q0 17 13 25.5t46 20.5q115 39 166 39q21 0 30.5 -6t9.5 -19q0 -3 -2 -15l-63 -287q-2 -8 -2 -20q0 -25 18 -25q7 0 13 3.5t12.5 9.5t10.5 10q10 8 19 8t15.5 -7
t6.5 -20t-9 -31q-21 -46 -68 -79.5t-102 -33.5q-60 0 -86 26.5zM35 594.5q-16 11.5 -16 30.5q0 28 24.5 46.5t57.5 27.5t58 9t41 -9.5t16 -28.5q0 -7 -1 -10q-6 -26 -30.5 -43.5t-56 -25.5t-55.5 -8q-22 0 -38 11.5zM284 594.5q-16 11.5 -16 30.5q0 28 24.5 46.5t57.5 27.5
t58 9t41 -9.5t16 -28.5q0 -7 -1 -10q-6 -26 -30.5 -43.5t-56 -25.5t-55.5 -8q-22 0 -38 11.5z" />
    <glyph glyph-name="eth" unicode="&#xf0;" horiz-adv-x="624" 
d="M442 659q82 -50 128.5 -134.5t46.5 -180.5q0 -39 -9 -80q-19 -93 -75 -155t-129 -91.5t-146 -29.5q-115 0 -179.5 52.5t-64.5 148.5q0 30 8 68q16 74 61 127.5t104.5 81t117.5 27.5q32 0 60 -10.5t38 -25.5q3 -3 7 -3t6 4.5t1 9.5q-6 76 -70 123l-92 -67q-7 -5 -15 -5
q-11 0 -13 20q0 11 4 19t14 16l59 42q-32 15 -75 25q-17 4 -26.5 14t-9.5 22q0 15 14.5 26.5t38.5 11.5q81 -1 151 -32l89 64q8 7 15 7q11 0 11 -16t-3.5 -24t-14.5 -17zM406 270q0 66 -19 111.5t-57 45.5q-34 0 -62 -29t-38 -77q-10 -50 -10 -101q0 -66 17.5 -110.5
t53.5 -44.5q42 0 68 32.5t37 77.5q10 47 10 95z" />
    <glyph glyph-name="ntilde" unicode="&#xf1;" horiz-adv-x="677" 
d="M381.5 15.5q-25.5 27.5 -25.5 77.5q0 40 14 93l27 105q4 15 4 28q0 18 -9.5 27.5t-25.5 9.5q-35 0 -69.5 -36.5t-46.5 -108.5q-19 -111 -23 -146q-3 -28 -16 -42t-49 -20.5t-108 -7.5q-17 0 -26 8t-9 22q0 3 2 13l10 37q16 57 27.5 103.5t34.5 150.5q3 14 3 25
q0 25 -17 33q-6 3 -16.5 7.5t-15.5 9t-5 11.5q0 18 13 26.5t46 20.5q118 38 166 38q21 0 30.5 -5.5t9.5 -19.5q0 -3 -2 -15l-12 -51q-4 -17 3 -17q3 0 12 11q34 47 75 75t104 28q50 0 81 -26.5t31 -83.5q0 -23 -8 -60l-37 -163q-3 -12 -3 -21q0 -24 18 -24q9 0 16.5 4.5
t19.5 16.5q9 10 20 10q9 0 15.5 -7.5t6.5 -19.5q0 -13 -9 -31q-21 -45 -66.5 -79t-106.5 -34q-58 0 -83.5 27.5zM454 574.5q-20 7.5 -47 21.5q-24 12 -37.5 17t-25.5 5q-10 0 -16.5 -5t-13.5 -15q-14 -18 -26 -24.5t-24 -6.5q-16 0 -24.5 8.5t-8.5 23.5q0 32 17 56t43.5 37
t53.5 13q25 0 46 -8t49 -22q24 -12 35 -16.5t23 -4.5q15 0 29 20q14 18 25 24.5t24 6.5q16 0 25.5 -9t9.5 -25q-1 -31 -18.5 -55t-44.5 -36.5t-54 -12.5q-20 0 -40 7.5z" />
    <glyph glyph-name="ograve" unicode="&#xf2;" horiz-adv-x="596" 
d="M74.5 43q-61.5 54 -61.5 145q0 64 35.5 138t112.5 127t194 53q109 0 168.5 -55t59.5 -146q0 -64 -34.5 -137.5t-109.5 -126t-189 -52.5t-175.5 54zM333 118.5q28 52.5 42 118.5t14 102q0 42 -13.5 65.5t-42.5 23.5q-42 0 -70 -52.5t-42 -118.5t-14 -102q0 -89 57 -89
q41 0 69 52.5zM347.5 579q-42.5 28 -75 63t-28.5 55q3 17 19.5 24.5t55.5 7.5q42 0 63.5 -6.5t26.5 -29.5q1 -3 8 -22q27 -79 24 -99q-6 -21 -31 -21q-20 0 -62.5 28z" />
    <glyph glyph-name="oacute" unicode="&#xf3;" horiz-adv-x="596" 
d="M74.5 43q-61.5 54 -61.5 145q0 64 35.5 138t112.5 127t194 53q109 0 168.5 -55t59.5 -146q0 -64 -34.5 -137.5t-109.5 -126t-189 -52.5t-175.5 54zM333 118.5q28 52.5 42 118.5t14 102q0 42 -13.5 65.5t-42.5 23.5q-42 0 -70 -52.5t-42 -118.5t-14 -102q0 -89 57 -89
q41 0 69 52.5zM312 571q3 20 56 89l23 33q14 23 35 29.5t61 6.5q39 0 52.5 -7t11.5 -25q-3 -20 -47 -55t-96 -63t-72 -28q-27 0 -24 20z" />
    <glyph glyph-name="ocircumflex" unicode="&#xf4;" horiz-adv-x="596" 
d="M74.5 43q-61.5 54 -61.5 145q0 64 35.5 138t112.5 127t194 53q109 0 168.5 -55t59.5 -146q0 -64 -34.5 -137.5t-109.5 -126t-189 -52.5t-175.5 54zM333 118.5q28 52.5 42 118.5t14 102q0 42 -13.5 65.5t-42.5 23.5q-42 0 -70 -52.5t-42 -118.5t-14 -102q0 -89 57 -89
q41 0 69 52.5zM208 550.5q-6 6.5 -6 14.5q0 23 48.5 65t101.5 74q28 16 55 16q26 0 47 -16q34 -27 64 -70t30 -65q0 -9 -8.5 -17t-19.5 -8q-23 0 -54 25q-35 27 -55 39t-26 12q-5 0 -31 -12.5t-70 -38.5q-20 -13 -36 -19t-24 -6q-10 0 -16 6.5z" />
    <glyph glyph-name="otilde" unicode="&#xf5;" horiz-adv-x="596" 
d="M74.5 43q-61.5 54 -61.5 145q0 64 35.5 138t112.5 127t194 53q109 0 168.5 -55t59.5 -146q0 -64 -34.5 -137.5t-109.5 -126t-189 -52.5t-175.5 54zM333 118.5q28 52.5 42 118.5t14 102q0 42 -13.5 65.5t-42.5 23.5q-42 0 -70 -52.5t-42 -118.5t-14 -102q0 -89 57 -89
q41 0 69 52.5zM413 574.5q-20 7.5 -47 21.5q-24 12 -37.5 17t-25.5 5q-10 0 -16.5 -5t-13.5 -15q-14 -18 -26 -24.5t-24 -6.5q-16 0 -24.5 8.5t-8.5 23.5q0 32 17 56t43.5 37t53.5 13q25 0 46 -8t49 -22q24 -12 35 -16.5t23 -4.5q15 0 29 20q14 18 25 24.5t24 6.5
q16 0 25.5 -9t9.5 -25q-1 -31 -18.5 -55t-44.5 -36.5t-54 -12.5q-20 0 -40 7.5z" />
    <glyph glyph-name="odieresis" unicode="&#xf6;" horiz-adv-x="596" 
d="M74.5 43q-61.5 54 -61.5 145q0 64 35.5 138t112.5 127t194 53q109 0 168.5 -55t59.5 -146q0 -64 -34.5 -137.5t-109.5 -126t-189 -52.5t-175.5 54zM333 118.5q28 52.5 42 118.5t14 102q0 42 -13.5 65.5t-42.5 23.5q-42 0 -70 -52.5t-42 -118.5t-14 -102q0 -89 57 -89
q41 0 69 52.5zM184 594.5q-16 11.5 -16 30.5q0 28 24.5 46.5t57.5 27.5t58 9t41 -9.5t16 -28.5q0 -7 -1 -10q-6 -26 -30.5 -43.5t-56 -25.5t-55.5 -8q-22 0 -38 11.5zM433 594.5q-16 11.5 -16 30.5q0 28 24.5 46.5t57.5 27.5t58 9t41 -9.5t16 -28.5q0 -7 -1 -10
q-6 -26 -30.5 -43.5t-56 -25.5t-55.5 -8q-22 0 -38 11.5z" />
    <glyph glyph-name="divide" unicode="&#xf7;" horiz-adv-x="473" 
d="M230.5 362.5q-16.5 14.5 -16.5 39.5q0 14 4 26q11 38 41 62t67 24q30 0 47 -16t17 -42q0 -45 -34 -76.5t-80 -31.5q-29 0 -45.5 14.5zM67 207q-25 0 -38.5 6t-10.5 23q7 33 32.5 55.5t61.5 22.5h301q25 0 38 -6.5t10 -23.5q-6 -32 -31.5 -54.5t-62.5 -22.5h-300z
M159.5 29.5q-16.5 14.5 -16.5 39.5q0 14 4 26q11 38 41 62t67 24q30 0 47 -16t17 -42q0 -45 -34 -76.5t-80 -31.5q-29 0 -45.5 14.5z" />
    <glyph glyph-name="oslash" unicode="&#xf8;" horiz-adv-x="596" 
d="M544 512q8 8 20 8q15 0 26.5 -12.5t11.5 -27.5q0 -14 -12 -26l-39 -35q32 -49 32 -114q0 -64 -34.5 -137.5t-109.5 -126t-189 -52.5q-80 0 -136 28l-42 -38q-11 -9 -21 -9q-15 0 -26.5 12.5t-11.5 28.5q0 14 12 26l29 27q-41 50 -41 124q0 64 35.5 138t112.5 127t194 53
q87 0 143 -36zM254.5 359q-30.5 -69 -42.5 -151l175 160q-8 60 -54 60q-48 0 -78.5 -69zM336.5 125q29.5 59 43.5 136l-167 -153q11 -42 51 -42q43 0 72.5 59z" />
    <glyph glyph-name="ugrave" unicode="&#xf9;" horiz-adv-x="664" 
d="M79.5 22.5q-31.5 34.5 -31.5 94.5q0 30 7 59l33 153q3 14 3 25q0 23 -17 33q-6 3 -16.5 7.5t-15.5 9t-5 11.5q0 18 13 26.5t46 20.5q118 38 166 38q21 0 30.5 -5.5t9.5 -19.5q0 -3 -2 -15l-54 -257q-3 -13 -3 -26q0 -39 32 -39q35 0 67 37t45 102l10 52q3 14 3 25
q0 23 -17 33q-6 3 -16.5 7.5t-15.5 9t-5 11.5q0 18 13 26.5t46 20.5q118 38 166 38q21 0 30.5 -5.5t9.5 -19.5q0 -3 -2 -15l-62 -297q-1 -5 -1 -12q0 -23 18 -23q8 0 14.5 4t13.5 10t10 8q7 7 18 7q9 0 15 -6.5t6 -18.5q0 -15 -8 -31q-21 -47 -65 -80t-98 -33
q-51 0 -75 31.5t-25 80.5q-2 10 -7 10q-4 0 -10 -8q-32 -47 -79.5 -80.5t-108.5 -33.5q-54 0 -85.5 34.5zM350.5 579q-42.5 28 -75 63t-28.5 55q3 17 19.5 24.5t55.5 7.5q42 0 63.5 -6.5t26.5 -29.5q1 -3 8 -22q27 -79 24 -99q-6 -21 -31 -21q-20 0 -62.5 28z" />
    <glyph glyph-name="uacute" unicode="&#xfa;" horiz-adv-x="664" 
d="M79.5 22.5q-31.5 34.5 -31.5 94.5q0 30 7 59l33 153q3 14 3 25q0 23 -17 33q-6 3 -16.5 7.5t-15.5 9t-5 11.5q0 18 13 26.5t46 20.5q118 38 166 38q21 0 30.5 -5.5t9.5 -19.5q0 -3 -2 -15l-54 -257q-3 -13 -3 -26q0 -39 32 -39q35 0 67 37t45 102l10 52q3 14 3 25
q0 23 -17 33q-6 3 -16.5 7.5t-15.5 9t-5 11.5q0 18 13 26.5t46 20.5q118 38 166 38q21 0 30.5 -5.5t9.5 -19.5q0 -3 -2 -15l-62 -297q-1 -5 -1 -12q0 -23 18 -23q8 0 14.5 4t13.5 10t10 8q7 7 18 7q9 0 15 -6.5t6 -18.5q0 -15 -8 -31q-21 -47 -65 -80t-98 -33
q-51 0 -75 31.5t-25 80.5q-2 10 -7 10q-4 0 -10 -8q-32 -47 -79.5 -80.5t-108.5 -33.5q-54 0 -85.5 34.5zM315 571q3 20 56 89l23 33q14 23 35 29.5t61 6.5q39 0 52.5 -7t11.5 -25q-3 -20 -47 -55t-96 -63t-72 -28q-27 0 -24 20z" />
    <glyph glyph-name="ucircumflex" unicode="&#xfb;" horiz-adv-x="664" 
d="M79.5 22.5q-31.5 34.5 -31.5 94.5q0 30 7 59l33 153q3 14 3 25q0 23 -17 33q-6 3 -16.5 7.5t-15.5 9t-5 11.5q0 18 13 26.5t46 20.5q118 38 166 38q21 0 30.5 -5.5t9.5 -19.5q0 -3 -2 -15l-54 -257q-3 -13 -3 -26q0 -39 32 -39q35 0 67 37t45 102l10 52q3 14 3 25
q0 23 -17 33q-6 3 -16.5 7.5t-15.5 9t-5 11.5q0 18 13 26.5t46 20.5q118 38 166 38q21 0 30.5 -5.5t9.5 -19.5q0 -3 -2 -15l-62 -297q-1 -5 -1 -12q0 -23 18 -23q8 0 14.5 4t13.5 10t10 8q7 7 18 7q9 0 15 -6.5t6 -18.5q0 -15 -8 -31q-21 -47 -65 -80t-98 -33
q-51 0 -75 31.5t-25 80.5q-2 10 -7 10q-4 0 -10 -8q-32 -47 -79.5 -80.5t-108.5 -33.5q-54 0 -85.5 34.5zM211 550.5q-6 6.5 -6 14.5q0 23 48.5 65t101.5 74q28 16 55 16q26 0 47 -16q34 -27 64 -70t30 -65q0 -9 -8.5 -17t-19.5 -8q-23 0 -54 25q-35 27 -55 39t-26 12
q-5 0 -31 -12.5t-70 -38.5q-20 -13 -36 -19t-24 -6q-10 0 -16 6.5z" />
    <glyph glyph-name="udieresis" unicode="&#xfc;" horiz-adv-x="664" 
d="M79.5 22.5q-31.5 34.5 -31.5 94.5q0 30 7 59l33 153q3 14 3 25q0 23 -17 33q-6 3 -16.5 7.5t-15.5 9t-5 11.5q0 18 13 26.5t46 20.5q118 38 166 38q21 0 30.5 -5.5t9.5 -19.5q0 -3 -2 -15l-54 -257q-3 -13 -3 -26q0 -39 32 -39q35 0 67 37t45 102l10 52q3 14 3 25
q0 23 -17 33q-6 3 -16.5 7.5t-15.5 9t-5 11.5q0 18 13 26.5t46 20.5q118 38 166 38q21 0 30.5 -5.5t9.5 -19.5q0 -3 -2 -15l-62 -297q-1 -5 -1 -12q0 -23 18 -23q8 0 14.5 4t13.5 10t10 8q7 7 18 7q9 0 15 -6.5t6 -18.5q0 -15 -8 -31q-21 -47 -65 -80t-98 -33
q-51 0 -75 31.5t-25 80.5q-2 10 -7 10q-4 0 -10 -8q-32 -47 -79.5 -80.5t-108.5 -33.5q-54 0 -85.5 34.5zM187 594.5q-16 11.5 -16 30.5q0 28 24.5 46.5t57.5 27.5t58 9t41 -9.5t16 -28.5q0 -7 -1 -10q-6 -26 -30.5 -43.5t-56 -25.5t-55.5 -8q-22 0 -38 11.5zM436 594.5
q-16 11.5 -16 30.5q0 28 24.5 46.5t57.5 27.5t58 9t41 -9.5t16 -28.5q0 -7 -1 -10q-6 -26 -30.5 -43.5t-56 -25.5t-55.5 -8q-22 0 -38 11.5z" />
    <glyph glyph-name="yacute" unicode="&#xfd;" horiz-adv-x="597" 
d="M60 -166q-41 17 -62 44q-22 23 -22 56q0 28 17.5 48.5t44.5 20.5q25 0 38 -12.5t26 -40.5q15 -32 32 -45.5t47 -13.5q46 0 92.5 57.5t74.5 134.5q-67 -63 -144 -63q-151 0 -151 132q0 29 8 67l26 110q3 14 3 25q0 23 -17 33q-6 3 -16.5 7.5t-15.5 9t-5 11.5q0 18 13 26.5
t46 20.5q118 38 166 38q21 0 30.5 -5.5t9.5 -19.5q0 -3 -2 -15l-58 -272q-7 -28 -7 -48q0 -18 7 -26t22 -8q42 0 68 25t38 55.5t26 78.5q7 25 7 46q0 45 -30 72q-11 9 -16.5 24.5t-3.5 32.5q2 31 24.5 49t54.5 18q44 0 80 -33q31 -29 48.5 -77.5t15.5 -103.5
q-4 -91 -38 -186t-92 -163q-52 -61 -123 -94t-159 -33q-62 0 -103 17zM326 571q3 20 56 89l23 33q14 23 35 29.5t61 6.5q39 0 52.5 -7t11.5 -25q-3 -20 -47 -55t-96 -63t-72 -28q-27 0 -24 20z" />
    <glyph glyph-name="thorn" unicode="&#xfe;" horiz-adv-x="605" 
d="M-12 -169q-9 8 -9 22q0 3 2 13l10 33q19 55 30 113l111 523q3 15 3 26q0 23 -16 32q-6 3 -17.5 8t-16 10.5t-3.5 14.5q3 15 16 23t42 19q118 38 167 38q21 0 30.5 -5.5t9.5 -20.5q0 -4 -2 -14l-54 -254q-6 -25 1 -25q2 0 14 15q35 43 74 73.5t93 30.5q63 0 94 -41.5
t31 -113.5q0 -87 -36 -171t-104.5 -138t-159.5 -54q-26 0 -42.5 6.5t-29.5 19.5q-7 10 -10 10q-6 0 -11 -19l-6 -26q-3 -15 -7 -49l-5 -37q-3 -28 -16 -42t-48.5 -20.5t-108.5 -7.5q-17 0 -26 8zM341.5 104q26.5 38 42 90t15.5 89q0 73 -48 73q-33 0 -59 -32.5t-37 -81.5
q-22 -95 -22 -116q0 -60 51 -60q31 0 57.5 38z" />
    <glyph glyph-name="ydieresis" unicode="&#xff;" horiz-adv-x="597" 
d="M60 -166q-41 17 -62 44q-22 23 -22 56q0 28 17.5 48.5t44.5 20.5q25 0 38 -12.5t26 -40.5q15 -32 32 -45.5t47 -13.5q46 0 92.5 57.5t74.5 134.5q-67 -63 -144 -63q-151 0 -151 132q0 29 8 67l26 110q3 14 3 25q0 23 -17 33q-6 3 -16.5 7.5t-15.5 9t-5 11.5q0 18 13 26.5
t46 20.5q118 38 166 38q21 0 30.5 -5.5t9.5 -19.5q0 -3 -2 -15l-58 -272q-7 -28 -7 -48q0 -18 7 -26t22 -8q42 0 68 25t38 55.5t26 78.5q7 25 7 46q0 45 -30 72q-11 9 -16.5 24.5t-3.5 32.5q2 31 24.5 49t54.5 18q44 0 80 -33q31 -29 48.5 -77.5t15.5 -103.5
q-4 -91 -38 -186t-92 -163q-52 -61 -123 -94t-159 -33q-62 0 -103 17zM198 594.5q-16 11.5 -16 30.5q0 28 24.5 46.5t57.5 27.5t58 9t41 -9.5t16 -28.5q0 -7 -1 -10q-6 -26 -30.5 -43.5t-56 -25.5t-55.5 -8q-22 0 -38 11.5zM447 594.5q-16 11.5 -16 30.5q0 28 24.5 46.5
t57.5 27.5t58 9t41 -9.5t16 -28.5q0 -7 -1 -10q-6 -26 -30.5 -43.5t-56 -25.5t-55.5 -8q-22 0 -38 11.5z" />
    <glyph glyph-name="Amacron" unicode="&#x100;" horiz-adv-x="784" 
d="M-41 25q0 7 1 10q2 13 17 25t34 19q28 10 46 27.5t39 53.5l124 207q42 69 124 207q9 15 9 32q0 21 -13 28q-17 9 -17 27q0 7 1 10q2 12 15 23.5t40 11.5h91q49 0 76 -15t37.5 -36t15.5 -50l28 -161q20 -115 53 -299q4 -24 11 -35.5t25 -21.5q20 -13 20 -34q0 -54 -72 -54
h-177q-53 0 -74.5 4.5t-21.5 23.5q0 14 5.5 22.5t18.5 16.5q24 15 33.5 29.5t6.5 40.5l-3 24q-2 17 -13.5 27.5t-26.5 10.5h-160q-21 0 -32 -5t-22 -23l-11 -21q-19 -35 -19 -54t19 -26q31 -12 25 -36q-7 -35 -62 -35h-148q-43 0 -43 26zM399 284q15 0 26.5 6.5t10.5 16.5
l-21 194q-1 8 -4 12.5t-7 4.5q-9 0 -18 -17l-110 -193q-3 -6 -3 -9q0 -15 31 -15h95zM300.5 750q-7.5 3 -7.5 10q0 9 11 29q14 26 22.5 34t25.5 8q93 -1 240 -1q17 0 17 -12q0 -8 -10 -28q-12 -27 -20.5 -35.5t-27.5 -8.5l-226 1q-17 0 -24.5 3z" />
    <glyph glyph-name="amacron" unicode="&#x101;" horiz-adv-x="638" 
d="M42.5 30q-35.5 42 -35.5 113q0 86 34 169.5t98.5 137.5t152.5 54q48 0 96 -21q34 -15 62 -15q10 0 19 3t16.5 6.5t12.5 5.5q17 7 22 11q9 4 18 7.5t16 3.5q13 0 19.5 -7t6.5 -17q0 -6 -1 -9l-64 -299q-3 -12 -3 -21q0 -24 19 -24q8 0 15 4.5t21 16.5q12 9 22 9q9 0 14 -6
t5 -17q0 -17 -9 -34q-24 -47 -66 -80t-96 -33t-82 29t-25 73q0 12 -6 12q-4 0 -12 -9q-35 -46 -73 -75.5t-88 -29.5q-73 0 -108.5 42zM305.5 164.5q28.5 36.5 41.5 85.5t17.5 74.5t4.5 42.5q0 59 -47 59q-32 0 -59 -37t-42.5 -88.5t-15.5 -91.5q0 -38 10 -59.5t30 -21.5
q32 0 60.5 36.5zM246.5 588q-7.5 3 -7.5 10q0 9 11 29q14 26 22.5 34t25.5 8q93 -1 240 -1q17 0 17 -12q0 -8 -10 -28q-12 -27 -20.5 -35.5t-27.5 -8.5l-226 1q-17 0 -24.5 3z" />
    <glyph glyph-name="Abreve" unicode="&#x102;" horiz-adv-x="784" 
d="M-41 25q0 7 1 10q2 13 17 25t34 19q28 10 46 27.5t39 53.5l124 207q42 69 124 207q9 15 9 32q0 21 -13 28q-17 9 -17 27q0 7 1 10q2 12 15 23.5t40 11.5h91q49 0 76 -15t37.5 -36t15.5 -50l28 -161q20 -115 53 -299q4 -24 11 -35.5t25 -21.5q20 -13 20 -34q0 -54 -72 -54
h-177q-53 0 -74.5 4.5t-21.5 23.5q0 14 5.5 22.5t18.5 16.5q24 15 33.5 29.5t6.5 40.5l-3 24q-2 17 -13.5 27.5t-26.5 10.5h-160q-21 0 -32 -5t-22 -23l-11 -21q-19 -35 -19 -54t19 -26q31 -12 25 -36q-7 -35 -62 -35h-148q-43 0 -43 26zM399 284q15 0 26.5 6.5t10.5 16.5
l-21 194q-1 8 -4 12.5t-7 4.5q-9 0 -18 -17l-110 -193q-3 -6 -3 -9q0 -15 31 -15h95zM336 762.5q-40 35.5 -40 89.5q0 14 3 27q5 22 21 22q7 0 16 -12q41 -73 121 -73q77 0 139 65q10 9 19.5 14.5t15.5 5.5q17 0 12 -20q-10 -42 -40.5 -77.5t-73.5 -56t-90 -20.5
q-63 0 -103 35.5z" />
    <glyph glyph-name="abreve" unicode="&#x103;" horiz-adv-x="638" 
d="M42.5 30q-35.5 42 -35.5 113q0 86 34 169.5t98.5 137.5t152.5 54q48 0 96 -21q34 -15 62 -15q10 0 19 3t16.5 6.5t12.5 5.5q17 7 22 11q9 4 18 7.5t16 3.5q13 0 19.5 -7t6.5 -17q0 -6 -1 -9l-64 -299q-3 -12 -3 -21q0 -24 19 -24q8 0 15 4.5t21 16.5q12 9 22 9q9 0 14 -6
t5 -17q0 -17 -9 -34q-24 -47 -66 -80t-96 -33t-82 29t-25 73q0 12 -6 12q-4 0 -12 -9q-35 -46 -73 -75.5t-88 -29.5q-73 0 -108.5 42zM305.5 164.5q28.5 36.5 41.5 85.5t17.5 74.5t4.5 42.5q0 59 -47 59q-32 0 -59 -37t-42.5 -88.5t-15.5 -91.5q0 -38 10 -59.5t30 -21.5
q32 0 60.5 36.5zM277 580.5q-40 35.5 -40 89.5q0 14 3 27q5 22 21 22q7 0 16 -12q41 -73 121 -73q77 0 139 65q10 9 19.5 14.5t15.5 5.5q17 0 12 -20q-10 -42 -40.5 -77.5t-73.5 -56t-90 -20.5q-63 0 -103 35.5z" />
    <glyph glyph-name="Aogonek" unicode="&#x104;" horiz-adv-x="784" 
d="M736 54q0 -54 -72 -54h-75q-36 -23 -56.5 -45t-20.5 -46t26 -24q24 0 53 17q5 3 9 3q7 0 11 -5t1 -15q-7 -26 -41.5 -47t-83.5 -21q-35 0 -54.5 16t-19.5 44q0 34 23 65.5t68 57.5h-17q-53 0 -74.5 4.5t-21.5 23.5q0 14 5.5 22.5t18.5 16.5q24 15 33.5 29.5t6.5 40.5
l-3 24q-2 17 -13.5 27.5t-26.5 10.5h-160q-21 0 -32 -5t-22 -23l-11 -21q-19 -35 -19 -54t19 -26q31 -12 25 -36q-7 -35 -62 -35h-148q-43 0 -43 26q0 7 1 10q2 13 17 25t34 19q28 10 46 27.5t39 53.5l124 207q42 69 124 207q9 15 9 32q0 21 -13 28q-17 9 -17 27q0 7 1 10
q2 12 15 23.5t40 11.5h91q49 0 76 -15t37.5 -36t15.5 -50l28 -161q20 -115 53 -299q4 -24 11 -35.5t25 -21.5q20 -13 20 -34zM399 284q15 0 26.5 6.5t10.5 16.5l-21 194q-1 8 -4 12.5t-7 4.5q-9 0 -18 -17l-110 -193q-3 -6 -3 -9q0 -15 31 -15h95z" />
    <glyph glyph-name="aogonek" unicode="&#x105;" horiz-adv-x="638" 
d="M589 158q9 0 14 -6t5 -17q0 -17 -9 -34q-31 -62 -86 -93q-36 -23 -56.5 -45t-20.5 -46t26 -24q24 0 53 17q5 3 9 3q7 0 11 -5t1 -15q-7 -26 -41.5 -47t-83.5 -21q-35 0 -54.5 16t-19.5 44q0 59 66 107q-38 9 -56.5 35.5t-16.5 62.5q0 12 -6 12q-4 0 -12 -9
q-35 -46 -73 -75.5t-88 -29.5q-73 0 -108.5 42t-35.5 113q0 86 34 169.5t98.5 137.5t152.5 54q48 0 96 -21q34 -15 62 -15q10 0 19 3t16.5 6.5t12.5 5.5q17 7 22 11q9 4 18 7.5t16 3.5q13 0 19.5 -7t6.5 -17q0 -6 -1 -9l-64 -299q-3 -12 -3 -21q0 -24 19 -24q8 0 15 4.5
t21 16.5q12 9 22 9zM364.5 324.5q4.5 25.5 4.5 42.5q0 59 -47 59q-32 0 -59 -37t-42.5 -88.5t-15.5 -91.5q0 -38 10 -59.5t30 -21.5q32 0 60.5 36.5t41.5 85.5t17.5 74.5z" />
    <glyph glyph-name="Cacute" unicode="&#x106;" horiz-adv-x="671" 
d="M165 23q-63 35 -97 98.5t-34 146.5q0 108 54.5 211t151 168t216.5 65q67 0 125 -21.5t92.5 -60t34.5 -86.5q0 -28 -13.5 -56t-40.5 -46t-64 -18q-34 0 -55 22t-38 88q-8 40 -27 62t-56 22q-49 0 -82.5 -47t-50 -112t-16.5 -119q0 -85 37 -134.5t116 -49.5
q59 0 105.5 26.5t70.5 64.5q13 16 32 16q12 0 20.5 -7.5t8.5 -21.5q0 -6 -1 -10q-12 -51 -58.5 -106.5t-120 -92.5t-163.5 -37q-84 0 -147 35zM354 748q2 10 12.5 23t34.5 39q26 28 35 40q15 21 37.5 28t56.5 7q48 0 63 -6.5t11 -25.5q-4 -20 -50 -49.5t-101.5 -53
t-76.5 -23.5q-28 0 -22 21z" />
    <glyph glyph-name="cacute" unicode="&#x107;" horiz-adv-x="503" 
d="M69 41q-56 53 -56 141q0 80 41.5 155t114.5 122t162 47q46 0 86.5 -17.5t65 -48.5t24.5 -70q0 -37 -17 -58.5t-47 -21.5q-33 0 -45.5 16.5t-22.5 55.5q-12 64 -52 64q-31 0 -56 -28.5t-38.5 -73.5t-13.5 -92q0 -56 22.5 -89.5t66.5 -33.5q31 0 61 14.5t50 32.5
q12 11 24 11q8 0 13 -6.5t5 -16.5q0 -8 -3 -17q-15 -34 -47 -66t-79.5 -52.5t-105.5 -20.5q-97 0 -153 53zM241 571q3 20 56 89l23 33q14 23 35 29.5t61 6.5q39 0 52.5 -7t11.5 -25q-3 -20 -47 -55t-96 -63t-72 -28q-27 0 -24 20z" />
    <glyph glyph-name="Ccircumflex" unicode="&#x108;" horiz-adv-x="671" 
d="M165 23q-63 35 -97 98.5t-34 146.5q0 108 54.5 211t151 168t216.5 65q67 0 125 -21.5t92.5 -60t34.5 -86.5q0 -28 -13.5 -56t-40.5 -46t-64 -18q-34 0 -55 22t-38 88q-8 40 -27 62t-56 22q-49 0 -82.5 -47t-50 -112t-16.5 -119q0 -85 37 -134.5t116 -49.5
q59 0 105.5 26.5t70.5 64.5q13 16 32 16q12 0 20.5 -7.5t8.5 -21.5q0 -6 -1 -10q-12 -51 -58.5 -106.5t-120 -92.5t-163.5 -37q-84 0 -147 35zM302 736.5q-6 8.5 -4 16.5q3 20 50 58t99 69q33 20 55 20q12 0 22.5 -5t24.5 -15q38 -31 68 -68.5t26 -58.5q-2 -8 -11 -16.5
t-18 -8.5q-8 0 -20 6t-20.5 11.5t-12.5 7.5q-70 43 -82 43q-10 0 -99 -43q-48 -25 -63 -25q-9 0 -15 8.5z" />
    <glyph glyph-name="ccircumflex" unicode="&#x109;" horiz-adv-x="503" 
d="M69 41q-56 53 -56 141q0 80 41.5 155t114.5 122t162 47q46 0 86.5 -17.5t65 -48.5t24.5 -70q0 -37 -17 -58.5t-47 -21.5q-33 0 -45.5 16.5t-22.5 55.5q-12 64 -52 64q-31 0 -56 -28.5t-38.5 -73.5t-13.5 -92q0 -56 22.5 -89.5t66.5 -33.5q31 0 61 14.5t50 32.5
q12 11 24 11q8 0 13 -6.5t5 -16.5q0 -8 -3 -17q-15 -34 -47 -66t-79.5 -52.5t-105.5 -20.5q-97 0 -153 53zM137 550.5q-6 6.5 -6 14.5q0 23 48.5 65t101.5 74q28 16 55 16q26 0 47 -16q34 -27 64 -70t30 -65q0 -9 -8.5 -17t-19.5 -8q-23 0 -54 25q-35 27 -55 39t-26 12
q-5 0 -31 -12.5t-70 -38.5q-20 -13 -36 -19t-24 -6q-10 0 -16 6.5z" />
    <glyph glyph-name="Cdotaccent" unicode="&#x10a;" horiz-adv-x="671" 
d="M165 23q-63 35 -97 98.5t-34 146.5q0 108 54.5 211t151 168t216.5 65q67 0 125 -21.5t92.5 -60t34.5 -86.5q0 -28 -13.5 -56t-40.5 -46t-64 -18q-34 0 -55 22t-38 88q-8 40 -27 62t-56 22q-49 0 -82.5 -47t-50 -112t-16.5 -119q0 -85 37 -134.5t116 -49.5
q59 0 105.5 26.5t70.5 64.5q13 16 32 16q12 0 20.5 -7.5t8.5 -21.5q0 -6 -1 -10q-12 -51 -58.5 -106.5t-120 -92.5t-163.5 -37q-84 0 -147 35zM397.5 738q-14.5 10 -14.5 27q0 24 21.5 45t56 33.5t73.5 12.5q30 0 43 -13t9 -34q-7 -34 -50.5 -57.5t-96.5 -23.5
q-27 0 -41.5 10z" />
    <glyph glyph-name="cdotaccent" unicode="&#x10b;" horiz-adv-x="503" 
d="M69 41q-56 53 -56 141q0 80 41.5 155t114.5 122t162 47q46 0 86.5 -17.5t65 -48.5t24.5 -70q0 -37 -17 -58.5t-47 -21.5q-33 0 -45.5 16.5t-22.5 55.5q-12 64 -52 64q-31 0 -56 -28.5t-38.5 -73.5t-13.5 -92q0 -56 22.5 -89.5t66.5 -33.5q31 0 61 14.5t50 32.5
q12 11 24 11q8 0 13 -6.5t5 -16.5q0 -8 -3 -17q-15 -34 -47 -66t-79.5 -52.5t-105.5 -20.5q-97 0 -153 53zM213.5 575.5q-17.5 12.5 -17.5 32.5q0 7 1 11q8 42 61 70.5t120 28.5q32 0 48.5 -13t16.5 -33q0 -7 -1 -11q-6 -27 -32 -49.5t-64.5 -35.5t-80.5 -13
q-34 0 -51.5 12.5z" />
    <glyph glyph-name="Ccaron" unicode="&#x10c;" horiz-adv-x="671" 
d="M165 23q-63 35 -97 98.5t-34 146.5q0 108 54.5 211t151 168t216.5 65q67 0 125 -21.5t92.5 -60t34.5 -86.5q0 -28 -13.5 -56t-40.5 -46t-64 -18q-34 0 -55 22t-38 88q-8 40 -27 62t-56 22q-49 0 -82.5 -47t-50 -112t-16.5 -119q0 -85 37 -134.5t116 -49.5
q59 0 105.5 26.5t70.5 64.5q13 16 32 16q12 0 20.5 -7.5t8.5 -21.5q0 -6 -1 -10q-12 -51 -58.5 -106.5t-120 -92.5t-163.5 -37q-84 0 -147 35zM403 872q70 -43 81 -43t100 43q4 2 20.5 10t26.5 11.5t17 3.5q8 0 14.5 -8.5t4.5 -16.5q-5 -21 -51 -58.5t-98 -68.5
q-35 -20 -56 -20t-46 20q-36 29 -65.5 65.5t-29.5 57.5q0 9 9.5 19t20.5 10q14 0 52 -25z" />
    <glyph glyph-name="ccaron" unicode="&#x10d;" horiz-adv-x="503" 
d="M69 41q-56 53 -56 141q0 80 41.5 155t114.5 122t162 47q46 0 86.5 -17.5t65 -48.5t24.5 -70q0 -37 -17 -58.5t-47 -21.5q-33 0 -45.5 16.5t-22.5 55.5q-12 64 -52 64q-31 0 -56 -28.5t-38.5 -73.5t-13.5 -92q0 -56 22.5 -89.5t66.5 -33.5q31 0 61 14.5t50 32.5
q12 11 24 11q8 0 13 -6.5t5 -16.5q0 -8 -3 -17q-15 -34 -47 -66t-79.5 -52.5t-105.5 -20.5q-97 0 -153 53zM209 711.5q15 -6.5 30 -18.5q34 -26 54 -38.5t24 -12.5q6 0 32.5 12t71.5 39q42 25 63 25q9 0 14 -6t5 -14q-1 -25 -49 -66t-102 -74q-28 -16 -54 -16q-29 0 -48 16
q-34 27 -63.5 70t-29.5 65q0 10 7.5 17.5t18.5 7.5t26 -6.5z" />
    <glyph glyph-name="Dcaron" unicode="&#x10e;" horiz-adv-x="779" 
d="M181 -4q-94 4 -141 4q-31 0 -44.5 5.5t-13.5 20.5q0 18 10.5 30t30.5 27q33 23 47 45t22 63l68 318q6 32 6 43q0 35 -30 65q-12 13 -18 23t-3 22q5 22 20.5 30t52.5 8q52 0 152 5q45 3 85 3q167 0 264.5 -70.5t97.5 -206.5q0 -126 -58.5 -225.5t-171.5 -156.5t-270 -57
q-26 0 -106 4zM466.5 141q54.5 58 81 139.5t26.5 152.5q0 88 -43.5 139.5t-116.5 51.5q-18 0 -29 -8.5t-15 -28.5l-96 -453q-2 -14 -2 -18q0 -19 14.5 -26t47.5 -7q78 0 132.5 58zM372 872q70 -43 81 -43t100 43q4 2 20.5 10t26.5 11.5t17 3.5q8 0 14.5 -8.5t4.5 -16.5
q-5 -21 -51 -58.5t-98 -68.5q-35 -20 -56 -20t-46 20q-36 29 -65.5 65.5t-29.5 57.5q0 9 9.5 19t20.5 10q14 0 52 -25z" />
    <glyph glyph-name="dcaron" unicode="&#x10f;" horiz-adv-x="696" 
d="M44 30.5q-36 42.5 -36 112.5q0 85 33.5 169t97 138t147.5 54q31 0 52 -5.5t36.5 -12.5t19.5 -7q3 0 6 11l9 45q3 14 3 25q0 23 -17 33q-6 3 -16.5 7.5t-15.5 9t-5 11.5q0 18 13 26.5t46 20.5q118 38 166 38q21 0 30.5 -5.5t9.5 -19.5q0 -3 -2 -15l-106 -504
q-2 -10 -2 -16q0 -18 16 -18q10 0 16.5 3t13.5 9t11 9q11 8 20 8t14.5 -6t5.5 -17q0 -14 -10 -33q-25 -47 -67 -80t-95 -33t-80.5 29.5t-25.5 74.5v3q0 9 -5 9t-12 -10q-35 -45 -74 -75.5t-89 -30.5q-72 0 -108 42.5zM307 164.5q29 36.5 43 85.5q22 77 22 117q0 59 -48 59
q-32 0 -59 -36.5t-43 -88t-16 -91.5q0 -39 10.5 -60.5t30.5 -21.5q31 0 60 36.5zM624 489q5 123 15 169q6 24 21 35.5t48 11.5q49 0 49 -35q0 -8 -1 -13q-10 -47 -55 -164q-3 -7 -13 -33q-4 -10 -14.5 -15.5t-22.5 -5.5t-20 5.5t-8 15.5z" />
    <glyph glyph-name="Dcroat" unicode="&#x110;" horiz-adv-x="779" 
d="M689.5 637.5q97.5 -70.5 97.5 -206.5q0 -126 -58.5 -225.5t-171.5 -156.5t-270 -57q-26 0 -106 4q-94 4 -141 4q-31 0 -44.5 5.5t-13.5 20.5q0 18 10.5 30t30.5 27q33 23 47 45t22 63l19 90l1 4l1 6q0 14 -15 14h-37q-24 0 -24 23l2 16q7 38 38 38h37q17 0 23 19l23 108
q6 32 6 43q0 35 -30 65q-12 13 -18 23t-3 22q5 22 20.5 30t52.5 8q52 0 152 5q45 3 85 3q167 0 264.5 -70.5zM466.5 141q54.5 58 81 139.5t26.5 152.5q0 88 -43.5 139.5t-116.5 51.5q-18 0 -29 -8.5t-15 -28.5l-35 -167l-1 -6l-2 -9q-1 -4 -1 -10q0 -14 13 -14h107
q26 0 26 -23q0 -4 -2 -14q-4 -20 -13.5 -29t-26.5 -9h-107q-17 0 -21 -19l-4 -17l-1 -2l-28 -134q-2 -14 -2 -18q0 -19 14.5 -26t47.5 -7q78 0 132.5 58z" />
    <glyph glyph-name="dcroat" unicode="&#x111;" horiz-adv-x="632" 
d="M643 560q0 -4 -8 -16q-9 -16 -17.5 -21t-27.5 -5l-75 -356q-2 -10 -2 -16q0 -18 16 -18q10 0 16.5 3t13.5 9t11 9q11 8 20 8t14.5 -6t5.5 -17q0 -14 -10 -33q-25 -47 -67 -80t-95 -33t-80.5 29.5t-25.5 74.5v3q0 9 -5 9t-12 -10q-35 -45 -74 -75.5t-89 -30.5
q-72 0 -108 42.5t-36 112.5q0 85 33.5 169t97 138t147.5 54q31 0 52 -5.5t36.5 -12.5t19.5 -7q3 0 6 11l6 29h-82q-33 0 -33 8q0 3 3.5 8.5t5.5 8.5q11 14 19.5 19t25.5 5h66q-1 16 -16 25q-6 3 -16.5 7.5t-15.5 9t-5 11.5q0 18 13 26.5t46 20.5q118 38 166 38
q21 0 30.5 -5.5t9.5 -19.5q0 -3 -2 -15l-21 -98h25q18 0 18 -8zM372 367q0 59 -48 59q-32 0 -59 -36.5t-43 -88t-16 -91.5q0 -39 10.5 -60.5t30.5 -21.5q31 0 60 36.5t43 85.5q22 77 22 117z" />
    <glyph glyph-name="Emacron" unicode="&#x112;" horiz-adv-x="666" 
d="M645 207q0 -38 -49 -122q-39 -65 -58 -86t-40 -21q-10 0 -17 2.5t-13 5.5q-15 7 -28.5 10.5t-42.5 3.5h-357q-31 0 -44.5 5.5t-13.5 20.5l2 12q4 20 39 45q33 23 47 45t22 63l68 318q6 27 6 44q0 19 -7 33.5t-23 30.5q-12 13 -18 23t-3 22q5 22 20.5 30t52.5 8h333
q29 0 44.5 3.5t32.5 10.5q20 8 35 8q20 0 29.5 -21.5t19.5 -85.5q7 -45 7 -68q0 -87 -58 -87q-17 0 -28.5 11t-16.5 29q-15 57 -23.5 78.5t-24 29.5t-50.5 8h-69q-23 0 -34 -9t-18 -41l-28 -130q-1 -4 -1 -10t3 -9t11 -3h39q18 0 24 8t8 33q2 24 11 36t28 12q20 0 30 -9
t14.5 -32t8.5 -76q3 -39 3 -66q0 -39 -10 -54t-37 -15q-20 0 -28.5 9t-10.5 29q-3 24 -9.5 31.5t-29.5 7.5h-46q-30 0 -39 -38l-35 -163q-2 -14 -2 -19q0 -14 8 -19t29 -5h104q43 0 73 26.5t64 88.5q22 41 61 41q35 0 35 -33zM258.5 750q-7.5 3 -7.5 10q0 9 11 29
q14 26 22.5 34t25.5 8q93 -1 240 -1q17 0 17 -12q0 -8 -10 -28q-12 -27 -20.5 -35.5t-27.5 -8.5l-226 1q-17 0 -24.5 3z" />
    <glyph glyph-name="emacron" unicode="&#x113;" horiz-adv-x="488" 
d="M69 41q-56 53 -56 140q0 84 42.5 159t117 120.5t165.5 45.5q42 0 75.5 -16t52.5 -43t19 -60q0 -50 -20.5 -84t-76 -58.5t-156.5 -37.5q-9 -2 -13 -4.5t-4 -10.5q0 -6 1 -9q19 -74 95 -74q49 0 102 47q12 9 23 9q9 0 15 -6t6 -16q0 -9 -4 -17q-26 -60 -85.5 -99
t-144.5 -39q-98 0 -154 53zM320 308.5q30 22.5 31 67.5q0 27 -8.5 38.5t-27.5 11.5q-23 0 -45.5 -23.5t-37 -57t-16.5 -60.5q0 -14 8 -14q2 0 10 2q56 13 86 35.5zM189.5 588q-7.5 3 -7.5 10q0 9 11 29q14 26 22.5 34t25.5 8q93 -1 240 -1q17 0 17 -12q0 -8 -10 -28
q-12 -27 -20.5 -35.5t-27.5 -8.5l-226 1q-17 0 -24.5 3z" />
    <glyph glyph-name="Ebreve" unicode="&#x114;" horiz-adv-x="666" 
d="M645 207q0 -38 -49 -122q-39 -65 -58 -86t-40 -21q-10 0 -17 2.5t-13 5.5q-15 7 -28.5 10.5t-42.5 3.5h-357q-31 0 -44.5 5.5t-13.5 20.5l2 12q4 20 39 45q33 23 47 45t22 63l68 318q6 27 6 44q0 19 -7 33.5t-23 30.5q-12 13 -18 23t-3 22q5 22 20.5 30t52.5 8h333
q29 0 44.5 3.5t32.5 10.5q20 8 35 8q20 0 29.5 -21.5t19.5 -85.5q7 -45 7 -68q0 -87 -58 -87q-17 0 -28.5 11t-16.5 29q-15 57 -23.5 78.5t-24 29.5t-50.5 8h-69q-23 0 -34 -9t-18 -41l-28 -130q-1 -4 -1 -10t3 -9t11 -3h39q18 0 24 8t8 33q2 24 11 36t28 12q20 0 30 -9
t14.5 -32t8.5 -76q3 -39 3 -66q0 -39 -10 -54t-37 -15q-20 0 -28.5 9t-10.5 29q-3 24 -9.5 31.5t-29.5 7.5h-46q-30 0 -39 -38l-35 -163q-2 -14 -2 -19q0 -14 8 -19t29 -5h104q43 0 73 26.5t64 88.5q22 41 61 41q35 0 35 -33zM294 762.5q-40 35.5 -40 89.5q0 14 3 27
q5 22 21 22q7 0 16 -12q41 -73 121 -73q77 0 139 65q10 9 19.5 14.5t15.5 5.5q17 0 12 -20q-10 -42 -40.5 -77.5t-73.5 -56t-90 -20.5q-63 0 -103 35.5z" />
    <glyph glyph-name="ebreve" unicode="&#x115;" horiz-adv-x="488" 
d="M69 41q-56 53 -56 140q0 84 42.5 159t117 120.5t165.5 45.5q42 0 75.5 -16t52.5 -43t19 -60q0 -50 -20.5 -84t-76 -58.5t-156.5 -37.5q-9 -2 -13 -4.5t-4 -10.5q0 -6 1 -9q19 -74 95 -74q49 0 102 47q12 9 23 9q9 0 15 -6t6 -16q0 -9 -4 -17q-26 -60 -85.5 -99
t-144.5 -39q-98 0 -154 53zM320 308.5q30 22.5 31 67.5q0 27 -8.5 38.5t-27.5 11.5q-23 0 -45.5 -23.5t-37 -57t-16.5 -60.5q0 -14 8 -14q2 0 10 2q56 13 86 35.5zM220 580.5q-40 35.5 -40 89.5q0 14 3 27q5 22 21 22q7 0 16 -12q41 -73 121 -73q77 0 139 65q10 9 19.5 14.5
t15.5 5.5q17 0 12 -20q-10 -42 -40.5 -77.5t-73.5 -56t-90 -20.5q-63 0 -103 35.5z" />
    <glyph glyph-name="Edotaccent" unicode="&#x116;" horiz-adv-x="666" 
d="M645 207q0 -38 -49 -122q-39 -65 -58 -86t-40 -21q-10 0 -17 2.5t-13 5.5q-15 7 -28.5 10.5t-42.5 3.5h-357q-31 0 -44.5 5.5t-13.5 20.5l2 12q4 20 39 45q33 23 47 45t22 63l68 318q6 27 6 44q0 19 -7 33.5t-23 30.5q-12 13 -18 23t-3 22q5 22 20.5 30t52.5 8h333
q29 0 44.5 3.5t32.5 10.5q20 8 35 8q20 0 29.5 -21.5t19.5 -85.5q7 -45 7 -68q0 -87 -58 -87q-17 0 -28.5 11t-16.5 29q-15 57 -23.5 78.5t-24 29.5t-50.5 8h-69q-23 0 -34 -9t-18 -41l-28 -130q-1 -4 -1 -10t3 -9t11 -3h39q18 0 24 8t8 33q2 24 11 36t28 12q20 0 30 -9
t14.5 -32t8.5 -76q3 -39 3 -66q0 -39 -10 -54t-37 -15q-20 0 -28.5 9t-10.5 29q-3 24 -9.5 31.5t-29.5 7.5h-46q-30 0 -39 -38l-35 -163q-2 -14 -2 -19q0 -14 8 -19t29 -5h104q43 0 73 26.5t64 88.5q22 41 61 41q35 0 35 -33zM335.5 738q-14.5 10 -14.5 27q0 24 21.5 45
t56 33.5t73.5 12.5q30 0 43 -13t9 -34q-7 -34 -50.5 -57.5t-96.5 -23.5q-27 0 -41.5 10z" />
    <glyph glyph-name="edotaccent" unicode="&#x117;" horiz-adv-x="488" 
d="M69 41q-56 53 -56 140q0 84 42.5 159t117 120.5t165.5 45.5q42 0 75.5 -16t52.5 -43t19 -60q0 -50 -20.5 -84t-76 -58.5t-156.5 -37.5q-9 -2 -13 -4.5t-4 -10.5q0 -6 1 -9q19 -74 95 -74q49 0 102 47q12 9 23 9q9 0 15 -6t6 -16q0 -9 -4 -17q-26 -60 -85.5 -99
t-144.5 -39q-98 0 -154 53zM320 308.5q30 22.5 31 67.5q0 27 -8.5 38.5t-27.5 11.5q-23 0 -45.5 -23.5t-37 -57t-16.5 -60.5q0 -14 8 -14q2 0 10 2q56 13 86 35.5zM237.5 575.5q-17.5 12.5 -17.5 32.5q0 7 1 11q8 42 61 70.5t120 28.5q32 0 48.5 -13t16.5 -33q0 -7 -1 -11
q-6 -27 -32 -49.5t-64.5 -35.5t-80.5 -13q-34 0 -51.5 12.5z" />
    <glyph glyph-name="Eogonek" unicode="&#x118;" horiz-adv-x="666" 
d="M339 436q-1 -4 -1 -10t3 -9t11 -3h39q18 0 24 8t8 33q2 24 11 36t28 12q20 0 30 -9t14.5 -32t8.5 -76q3 -39 3 -66q0 -39 -10 -54t-37 -15q-20 0 -28.5 9t-10.5 29q-3 24 -9.5 31.5t-29.5 7.5h-46q-30 0 -39 -38l-35 -163q-2 -14 -2 -19q0 -14 8 -19t29 -5h104
q43 0 73 26.5t64 88.5q22 41 61 41q35 0 35 -33q0 -38 -49 -122q-27 -45 -42.5 -67t-27.5 -31q-36 -23 -56.5 -45t-20.5 -46t26 -24q24 0 53 17q5 3 9 3q7 0 11 -5t1 -15q-7 -26 -41.5 -47t-83.5 -21q-35 0 -54.5 16t-19.5 44q0 36 25.5 69.5t76.5 59.5q-19 7 -55 7h-357
q-31 0 -44.5 5.5t-13.5 20.5l2 12q4 20 39 45q33 23 47 45t22 63l68 318q6 27 6 44q0 19 -7 33.5t-23 30.5q-12 13 -18 23t-3 22q5 22 20.5 30t52.5 8h333q29 0 44.5 3.5t32.5 10.5q20 8 35 8q20 0 29.5 -21.5t19.5 -85.5q7 -45 7 -68q0 -87 -58 -87q-17 0 -28.5 11
t-16.5 29q-15 57 -23.5 78.5t-24 29.5t-50.5 8h-69q-23 0 -34 -9t-18 -41z" />
    <glyph glyph-name="eogonek" unicode="&#x119;" horiz-adv-x="488" 
d="M219 202.5q-4 -2.5 -4 -10.5q0 -6 1 -9q19 -74 95 -74q49 0 102 47q12 9 23 9q9 0 15 -6t6 -16q0 -9 -4 -17q-16 -38 -46.5 -68.5t-73.5 -48.5q-61 -41 -61 -80q0 -24 26 -24q24 0 53 17q5 3 9 3q7 0 11 -5t1 -15q-7 -26 -41.5 -47t-83.5 -21q-35 0 -54.5 16t-19.5 44
q0 48 46 91q-96 1 -151 54t-55 139q0 84 42.5 159t117 120.5t165.5 45.5q42 0 75.5 -16t52.5 -43t19 -60q0 -50 -20.5 -84t-76 -58.5t-156.5 -37.5q-9 -2 -13 -4.5zM269.5 402.5q-22.5 -23.5 -37 -57t-16.5 -60.5q0 -14 8 -14q2 0 10 2q56 13 86 35.5t31 67.5
q0 27 -8.5 38.5t-27.5 11.5q-23 0 -45.5 -23.5z" />
    <glyph glyph-name="Ecaron" unicode="&#x11a;" horiz-adv-x="666" 
d="M645 207q0 -38 -49 -122q-39 -65 -58 -86t-40 -21q-10 0 -17 2.5t-13 5.5q-15 7 -28.5 10.5t-42.5 3.5h-357q-31 0 -44.5 5.5t-13.5 20.5l2 12q4 20 39 45q33 23 47 45t22 63l68 318q6 27 6 44q0 19 -7 33.5t-23 30.5q-12 13 -18 23t-3 22q5 22 20.5 30t52.5 8h333
q29 0 44.5 3.5t32.5 10.5q20 8 35 8q20 0 29.5 -21.5t19.5 -85.5q7 -45 7 -68q0 -87 -58 -87q-17 0 -28.5 11t-16.5 29q-15 57 -23.5 78.5t-24 29.5t-50.5 8h-69q-23 0 -34 -9t-18 -41l-28 -130q-1 -4 -1 -10t3 -9t11 -3h39q18 0 24 8t8 33q2 24 11 36t28 12q20 0 30 -9
t14.5 -32t8.5 -76q3 -39 3 -66q0 -39 -10 -54t-37 -15q-20 0 -28.5 9t-10.5 29q-3 24 -9.5 31.5t-29.5 7.5h-46q-30 0 -39 -38l-35 -163q-2 -14 -2 -19q0 -14 8 -19t29 -5h104q43 0 73 26.5t64 88.5q22 41 61 41q35 0 35 -33zM341 872q70 -43 81 -43t100 43q4 2 20.5 10
t26.5 11.5t17 3.5q8 0 14.5 -8.5t4.5 -16.5q-5 -21 -51 -58.5t-98 -68.5q-35 -20 -56 -20t-46 20q-36 29 -65.5 65.5t-29.5 57.5q0 9 9.5 19t20.5 10q14 0 52 -25z" />
    <glyph glyph-name="ecaron" unicode="&#x11b;" horiz-adv-x="488" 
d="M69 41q-56 53 -56 140q0 84 42.5 159t117 120.5t165.5 45.5q42 0 75.5 -16t52.5 -43t19 -60q0 -50 -20.5 -84t-76 -58.5t-156.5 -37.5q-9 -2 -13 -4.5t-4 -10.5q0 -6 1 -9q19 -74 95 -74q49 0 102 47q12 9 23 9q9 0 15 -6t6 -16q0 -9 -4 -17q-26 -60 -85.5 -99
t-144.5 -39q-98 0 -154 53zM320 308.5q30 22.5 31 67.5q0 27 -8.5 38.5t-27.5 11.5q-23 0 -45.5 -23.5t-37 -57t-16.5 -60.5q0 -14 8 -14q2 0 10 2q56 13 86 35.5zM233 711.5q15 -6.5 30 -18.5q34 -26 54 -38.5t24 -12.5q6 0 32.5 12t71.5 39q42 25 63 25q9 0 14 -6t5 -14
q-1 -25 -49 -66t-102 -74q-28 -16 -54 -16q-29 0 -48 16q-34 27 -63.5 70t-29.5 65q0 10 7.5 17.5t18.5 7.5t26 -6.5z" />
    <glyph glyph-name="Gcircumflex" unicode="&#x11c;" horiz-adv-x="734" 
d="M178.5 23.5q-67.5 35.5 -105.5 101t-38 150.5q0 106 56.5 207.5t153.5 165.5t211 64q67 0 125 -21.5t93 -60.5t35 -88q0 -28 -13 -56.5t-39.5 -47t-64.5 -18.5q-37 0 -61 20.5t-34 85.5q-7 45 -25.5 68.5t-57.5 23.5q-52 0 -84.5 -43.5t-46.5 -105.5t-14 -122
q0 -98 34 -165.5t97 -67.5q35 0 57 15.5t26 37.5l3 16q3 15 3 24q0 13 -7 20.5t-28 22.5q-13 9 -20.5 22t-4.5 27q4 21 19.5 28.5t52.5 9.5q21 1 90 1q70 0 92 -1q32 -2 44.5 -7.5t12.5 -19.5q0 -19 -10 -30t-29 -24q-25 -16 -33.5 -28t-16.5 -48l-5 -23
q-17 -82 -96.5 -125.5t-217.5 -43.5q-86 0 -153.5 35.5zM311 736.5q-6 8.5 -4 16.5q3 20 50 58t99 69q33 20 55 20q12 0 22.5 -5t24.5 -15q38 -31 68 -68.5t26 -58.5q-2 -8 -11 -16.5t-18 -8.5q-8 0 -20 6t-20.5 11.5t-12.5 7.5q-70 43 -82 43q-10 0 -99 -43
q-48 -25 -63 -25q-9 0 -15 8.5z" />
    <glyph glyph-name="gcircumflex" unicode="&#x11d;" horiz-adv-x="579" 
d="M9 -145q-23 12 -34 30.5t-11 40.5q0 28 18 48.5t46 20.5q47 0 78 -45q15 -24 35 -36t55 -12q54 0 85 39.5t48 117.5l10 46q1 3 1 8q0 8 -5 8q-4 0 -12 -9q-33 -43 -72 -71t-96 -28q-73 0 -108.5 39t-35.5 107q0 86 33 165.5t97.5 129.5t153.5 50q29 0 49.5 -5.5
t47.5 -16.5q13 -5 30.5 -9.5t27.5 -4.5t20 3t17.5 6.5t11.5 5.5l25 11q8 4 16 7.5t15 3.5q16 0 22.5 -9.5t3.5 -23.5l-87 -407q-30 -139 -121 -193.5t-197 -54.5q-109 0 -167 38zM315 184q25 30 36 74q12 48 16 69.5t4 39.5q0 59 -45 59q-32 0 -58.5 -34t-42 -82.5
t-15.5 -86.5q0 -69 49 -69q31 0 56 30zM214 550.5q-6 6.5 -6 14.5q0 23 48.5 65t101.5 74q28 16 55 16q26 0 47 -16q34 -27 64 -70t30 -65q0 -9 -8.5 -17t-19.5 -8q-23 0 -54 25q-35 27 -55 39t-26 12q-5 0 -31 -12.5t-70 -38.5q-20 -13 -36 -19t-24 -6q-10 0 -16 6.5z" />
    <glyph glyph-name="Gbreve" unicode="&#x11e;" horiz-adv-x="734" 
d="M178.5 23.5q-67.5 35.5 -105.5 101t-38 150.5q0 106 56.5 207.5t153.5 165.5t211 64q67 0 125 -21.5t93 -60.5t35 -88q0 -28 -13 -56.5t-39.5 -47t-64.5 -18.5q-37 0 -61 20.5t-34 85.5q-7 45 -25.5 68.5t-57.5 23.5q-52 0 -84.5 -43.5t-46.5 -105.5t-14 -122
q0 -98 34 -165.5t97 -67.5q35 0 57 15.5t26 37.5l3 16q3 15 3 24q0 13 -7 20.5t-28 22.5q-13 9 -20.5 22t-4.5 27q4 21 19.5 28.5t52.5 9.5q21 1 90 1q70 0 92 -1q32 -2 44.5 -7.5t12.5 -19.5q0 -19 -10 -30t-29 -24q-25 -16 -33.5 -28t-16.5 -48l-5 -23
q-17 -82 -96.5 -125.5t-217.5 -43.5q-86 0 -153.5 35.5zM365 762.5q-40 35.5 -40 89.5q0 14 3 27q5 22 21 22q7 0 16 -12q41 -73 121 -73q77 0 139 65q10 9 19.5 14.5t15.5 5.5q17 0 12 -20q-10 -42 -40.5 -77.5t-73.5 -56t-90 -20.5q-63 0 -103 35.5z" />
    <glyph glyph-name="gbreve" unicode="&#x11f;" horiz-adv-x="579" 
d="M9 -145q-23 12 -34 30.5t-11 40.5q0 28 18 48.5t46 20.5q47 0 78 -45q15 -24 35 -36t55 -12q54 0 85 39.5t48 117.5l10 46q1 3 1 8q0 8 -5 8q-4 0 -12 -9q-33 -43 -72 -71t-96 -28q-73 0 -108.5 39t-35.5 107q0 86 33 165.5t97.5 129.5t153.5 50q29 0 49.5 -5.5
t47.5 -16.5q13 -5 30.5 -9.5t27.5 -4.5t20 3t17.5 6.5t11.5 5.5l25 11q8 4 16 7.5t15 3.5q16 0 22.5 -9.5t3.5 -23.5l-87 -407q-30 -139 -121 -193.5t-197 -54.5q-109 0 -167 38zM315 184q25 30 36 74q12 48 16 69.5t4 39.5q0 59 -45 59q-32 0 -58.5 -34t-42 -82.5
t-15.5 -86.5q0 -69 49 -69q31 0 56 30zM273 580.5q-40 35.5 -40 89.5q0 14 3 27q5 22 21 22q7 0 16 -12q41 -73 121 -73q77 0 139 65q10 9 19.5 14.5t15.5 5.5q17 0 12 -20q-10 -42 -40.5 -77.5t-73.5 -56t-90 -20.5q-63 0 -103 35.5z" />
    <glyph glyph-name="Gdotaccent" unicode="&#x120;" horiz-adv-x="734" 
d="M178.5 23.5q-67.5 35.5 -105.5 101t-38 150.5q0 106 56.5 207.5t153.5 165.5t211 64q67 0 125 -21.5t93 -60.5t35 -88q0 -28 -13 -56.5t-39.5 -47t-64.5 -18.5q-37 0 -61 20.5t-34 85.5q-7 45 -25.5 68.5t-57.5 23.5q-52 0 -84.5 -43.5t-46.5 -105.5t-14 -122
q0 -98 34 -165.5t97 -67.5q35 0 57 15.5t26 37.5l3 16q3 15 3 24q0 13 -7 20.5t-28 22.5q-13 9 -20.5 22t-4.5 27q4 21 19.5 28.5t52.5 9.5q21 1 90 1q70 0 92 -1q32 -2 44.5 -7.5t12.5 -19.5q0 -19 -10 -30t-29 -24q-25 -16 -33.5 -28t-16.5 -48l-5 -23
q-17 -82 -96.5 -125.5t-217.5 -43.5q-86 0 -153.5 35.5zM406.5 738q-14.5 10 -14.5 27q0 24 21.5 45t56 33.5t73.5 12.5q30 0 43 -13t9 -34q-7 -34 -50.5 -57.5t-96.5 -23.5q-27 0 -41.5 10z" />
    <glyph glyph-name="gdotaccent" unicode="&#x121;" horiz-adv-x="579" 
d="M9 -145q-23 12 -34 30.5t-11 40.5q0 28 18 48.5t46 20.5q47 0 78 -45q15 -24 35 -36t55 -12q54 0 85 39.5t48 117.5l10 46q1 3 1 8q0 8 -5 8q-4 0 -12 -9q-33 -43 -72 -71t-96 -28q-73 0 -108.5 39t-35.5 107q0 86 33 165.5t97.5 129.5t153.5 50q29 0 49.5 -5.5
t47.5 -16.5q13 -5 30.5 -9.5t27.5 -4.5t20 3t17.5 6.5t11.5 5.5l25 11q8 4 16 7.5t15 3.5q16 0 22.5 -9.5t3.5 -23.5l-87 -407q-30 -139 -121 -193.5t-197 -54.5q-109 0 -167 38zM315 184q25 30 36 74q12 48 16 69.5t4 39.5q0 59 -45 59q-32 0 -58.5 -34t-42 -82.5
t-15.5 -86.5q0 -69 49 -69q31 0 56 30zM290.5 575.5q-17.5 12.5 -17.5 32.5q0 7 1 11q8 42 61 70.5t120 28.5q32 0 48.5 -13t16.5 -33q0 -7 -1 -11q-6 -27 -32 -49.5t-64.5 -35.5t-80.5 -13q-34 0 -51.5 12.5z" />
    <glyph glyph-name="uni0122" unicode="&#x122;" horiz-adv-x="734" 
d="M178.5 23.5q-67.5 35.5 -105.5 101t-38 150.5q0 106 56.5 207.5t153.5 165.5t211 64q67 0 125 -21.5t93 -60.5t35 -88q0 -28 -13 -56.5t-39.5 -47t-64.5 -18.5q-37 0 -61 20.5t-34 85.5q-7 45 -25.5 68.5t-57.5 23.5q-52 0 -84.5 -43.5t-46.5 -105.5t-14 -122
q0 -98 34 -165.5t97 -67.5q35 0 57 15.5t26 37.5l3 16q3 15 3 24q0 13 -7 20.5t-28 22.5q-13 9 -20.5 22t-4.5 27q4 21 19.5 28.5t52.5 9.5q21 1 90 1q70 0 92 -1q32 -2 44.5 -7.5t12.5 -19.5q0 -19 -10 -30t-29 -24q-25 -16 -33.5 -28t-16.5 -48l-5 -23
q-17 -82 -96.5 -125.5t-217.5 -43.5q-86 0 -153.5 35.5zM247 -179q-3 3 -3 7q0 10 11 13q13 6 23.5 14t12.5 17v3q0 5 -9 8q-10 3 -16.5 10.5t-6.5 20.5q0 24 19 42t45 18q20 0 30.5 -10.5t10.5 -30.5q0 -13 -2 -20q-6 -29 -25 -50.5t-42 -33t-41 -11.5q-4 0 -7 3z" />
    <glyph glyph-name="uni0123" unicode="&#x123;" horiz-adv-x="579" 
d="M9 -145q-23 12 -34 30.5t-11 40.5q0 28 18 48.5t46 20.5q47 0 78 -45q15 -24 35 -36t55 -12q54 0 85 39.5t48 117.5l10 46q1 3 1 8q0 8 -5 8q-4 0 -12 -9q-33 -43 -72 -71t-96 -28q-73 0 -108.5 39t-35.5 107q0 86 33 165.5t97.5 129.5t153.5 50q29 0 49.5 -5.5
t47.5 -16.5q13 -5 30.5 -9.5t27.5 -4.5t20 3t17.5 6.5t11.5 5.5l25 11q8 4 16 7.5t15 3.5q16 0 22.5 -9.5t3.5 -23.5l-87 -407q-30 -139 -121 -193.5t-197 -54.5q-109 0 -167 38zM315 184q25 30 36 74q12 48 16 69.5t4 39.5q0 59 -45 59q-32 0 -58.5 -34t-42 -82.5
t-15.5 -86.5q0 -69 49 -69q31 0 56 30zM475.5 756.5q3.5 -3.5 3.5 -9.5q0 -11 -14 -17q-18 -6 -32.5 -17.5t-16.5 -23.5v-3q0 -9 12 -13q13 -3 22 -12.5t9 -27.5q0 -30 -25 -54t-59 -24q-26 0 -40 14t-14 40q0 11 3 26q8 38 33 66.5t55 43.5t53 15q7 0 10.5 -3.5z" />
    <glyph glyph-name="Hcircumflex" unicode="&#x124;" horiz-adv-x="834" 
d="M-4.5 5.5q-13.5 5.5 -13.5 20.5l2 12q4 20 39 45q32 23 46 45t23 63l68 318q6 27 6 44q0 19 -7 33.5t-23 30.5q-12 13 -18 23t-3 22q5 22 20.5 30t52.5 8h217q32 0 45.5 -5.5t13.5 -20.5q0 -4 -2 -12q-4 -20 -39 -45q-32 -23 -46 -45t-23 -63l-9 -42q-3 -13 -3 -24
q0 -19 10 -26.5t30 -7.5h139q25 0 40 13.5t22 46.5l9 40q6 27 6 44q0 19 -7 33.5t-23 30.5q-12 13 -18 23t-3 22q5 22 20.5 30t52.5 8h217q32 0 45.5 -5.5t13.5 -20.5q0 -4 -2 -12q-4 -20 -39 -45q-32 -23 -46 -45t-23 -63l-68 -318q-6 -27 -6 -44q0 -19 7 -33.5t23 -30.5
q12 -13 18 -23t3 -22q-5 -22 -21 -30t-53 -8h-217q-31 0 -44.5 5.5t-13.5 20.5l2 12q4 20 39 45q32 23 46 45t23 63l12 56q3 17 3 27q0 20 -9.5 27.5t-29.5 7.5h-139q-27 0 -41 -12t-22 -50l-12 -56q-6 -27 -6 -44q0 -19 7 -33.5t23 -30.5q12 -13 18 -23t3 -22
q-5 -22 -21 -30t-53 -8h-217q-31 0 -44.5 5.5zM357 736.5q-6 8.5 -4 16.5q3 20 50 58t99 69q33 20 55 20q12 0 22.5 -5t24.5 -15q38 -31 68 -68.5t26 -58.5q-2 -8 -11 -16.5t-18 -8.5q-8 0 -20 6t-20.5 11.5t-12.5 7.5q-70 43 -82 43q-10 0 -99 -43q-48 -25 -63 -25
q-9 0 -15 8.5z" />
    <glyph glyph-name="hcircumflex" unicode="&#x125;" horiz-adv-x="655" 
d="M360 15q-25 27 -25 77q0 35 14 94l26 105q4 13 4 27q0 38 -35 38q-22 0 -46 -15t-43.5 -48t-26.5 -82q-19 -116 -22 -146q-3 -28 -16 -42t-49 -20.5t-108 -7.5q-17 0 -26 8t-9 22q0 3 2 13l12 42q19 63 28 105l75 349q3 14 3 25q0 24 -17 34q-6 3 -16.5 7.5t-15.5 9
t-5 11.5q0 18 13 26.5t46 20.5q118 38 166 38q21 0 30.5 -5.5t9.5 -19.5q0 -3 -2 -15l-56 -258q-4 -17 3 -17q5 0 12 11q35 48 76 76t104 28q50 0 81 -26.5t31 -83.5q0 -23 -8 -60l-38 -163q-2 -7 -2 -20q0 -25 17 -25q10 0 15.5 4t20.5 18q7 7 18 7q10 0 16.5 -7t6.5 -20
q0 -14 -8 -29q-21 -45 -66.5 -79t-106.5 -34q-58 0 -83 27zM82 716.5q-6 8.5 -4 16.5q3 20 50 58t99 69q33 20 55 20q12 0 22.5 -5t24.5 -15q38 -31 68 -68.5t26 -58.5q-2 -8 -11 -16.5t-18 -8.5q-8 0 -20 6t-20.5 11.5t-12.5 7.5q-70 43 -82 43q-10 0 -99 -43
q-48 -25 -63 -25q-9 0 -15 8.5z" />
    <glyph glyph-name="Hbar" unicode="&#x126;" horiz-adv-x="834" 
d="M882.5 694.5q13.5 -5.5 13.5 -20.5q0 -4 -2 -12q-4 -20 -39 -45q-24 -17 -37 -32t-20 -35h40q18 0 18 -23q0 -15 -9.5 -29t-22.5 -14h-43l-63 -293q-6 -27 -6 -44q0 -19 7 -33.5t23 -30.5q12 -13 18 -23t3 -22q-5 -22 -21 -30t-53 -8h-217q-31 0 -44.5 5.5t-13.5 20.5
l2 12q4 20 39 45q32 23 46 45t23 63l12 56q3 17 3 27q0 20 -9.5 27.5t-29.5 7.5h-139q-27 0 -41 -12t-22 -50l-12 -56q-6 -27 -6 -44q0 -19 7 -33.5t23 -30.5q12 -13 18 -23t3 -22q-5 -22 -21 -30t-53 -8h-217q-31 0 -44.5 5.5t-13.5 20.5l2 12q4 20 39 45q32 23 46 45
t23 63l63 293h-47q-18 0 -18 23q0 15 9.5 29t22.5 14h44q1 20 -6 35t-24 32q-12 13 -18 23t-3 22q5 22 20.5 30t52.5 8h217q32 0 45.5 -5.5t13.5 -20.5q0 -4 -2 -12q-4 -20 -39 -45q-24 -17 -37 -32t-20 -35h232q1 20 -6 35t-24 32q-12 13 -18 23t-3 22q5 22 20.5 30t52.5 8
h217q32 0 45.5 -5.5zM586 484h-237l-4 -17q-3 -13 -3 -24q0 -19 10 -26.5t30 -7.5h139q25 0 40 13.5t22 46.5z" />
    <glyph glyph-name="hbar" unicode="&#x127;" horiz-adv-x="655" 
d="M601 157q10 0 16.5 -7t6.5 -20q0 -14 -8 -29q-21 -45 -66.5 -79t-106.5 -34q-58 0 -83 27t-25 77q0 35 14 94l26 105q4 13 4 27q0 38 -35 38q-22 0 -46 -15t-43.5 -48t-26.5 -82q-19 -116 -22 -146q-3 -28 -16 -42t-49 -20.5t-108 -7.5q-17 0 -26 8t-9 22q0 3 2 13l12 42
q19 63 28 105l64 297h-48q-32 0 -32 11q0 7 11 24q13 21 22 28t26 7h35q2 29 -17 41q-6 3 -16.5 7.5t-15.5 9t-5 11.5q0 18 13 26.5t46 20.5q118 38 166 38q21 0 30.5 -5.5t9.5 -19.5q0 -3 -2 -15l-25 -115h61q17 0 17 -10q0 -5 -10 -23q-12 -23 -22 -30.5t-30 -6.5h-31
l-16 -73q-4 -17 3 -17q5 0 12 11q35 48 76 76t104 28q50 0 81 -26.5t31 -83.5q0 -23 -8 -60l-38 -163q-2 -7 -2 -20q0 -25 17 -25q10 0 15.5 4t20.5 18q7 7 18 7z" />
    <glyph glyph-name="Itilde" unicode="&#x128;" horiz-adv-x="403" 
d="M40 0q-31 0 -44.5 5.5t-13.5 20.5l2 12q4 20 39 45q33 23 47 45t22 63l68 318q6 27 6 44q0 19 -7 33.5t-23 30.5q-12 13 -18 23t-3 22q5 22 20.5 30t52.5 8h102h14h102q32 0 45.5 -5.5t13.5 -20.5q0 -4 -2 -12q-4 -20 -39 -45q-33 -23 -47 -45t-22 -63l-68 -318
q-6 -27 -6 -44q0 -19 7 -33.5t23 -30.5q12 -13 18 -23t3 -22q-5 -22 -21 -30t-53 -8h-102h-14h-102zM341 746.5q-20 7.5 -47 21.5q-24 12 -37.5 17t-25.5 5q-10 0 -16.5 -5t-13.5 -15q-14 -18 -26 -24.5t-24 -6.5q-16 0 -24.5 8.5t-8.5 23.5q0 32 17 56t43.5 37t53.5 13
q25 0 46 -8t49 -22q24 -12 35 -16.5t23 -4.5q15 0 29 20q14 18 25 24.5t24 6.5q16 0 25.5 -9t9.5 -25q-1 -31 -18.5 -55t-44.5 -36.5t-54 -12.5q-20 0 -40 7.5z" />
    <glyph glyph-name="itilde" unicode="&#x129;" horiz-adv-x="355" 
d="M65 14.5q-26 26.5 -26 75.5q0 37 15 95l34 144q3 14 3 24q0 23 -17 34q-6 3 -16.5 7.5t-15.5 9t-5 11.5q0 17 13 25.5t46 20.5q115 39 166 39q21 0 30.5 -6t9.5 -19q0 -3 -2 -15l-63 -287q-2 -8 -2 -20q0 -25 18 -25q7 0 13 3.5t12.5 9.5t10.5 10q10 8 19 8t15.5 -7
t6.5 -20t-9 -31q-21 -46 -68 -79.5t-102 -33.5q-60 0 -86 26.5zM264 574.5q-20 7.5 -47 21.5q-24 12 -37.5 17t-25.5 5q-10 0 -16.5 -5t-13.5 -15q-14 -18 -26 -24.5t-24 -6.5q-16 0 -24.5 8.5t-8.5 23.5q0 32 17 56t43.5 37t53.5 13q25 0 46 -8t49 -22q24 -12 35 -16.5
t23 -4.5q15 0 29 20q14 18 25 24.5t24 6.5q16 0 25.5 -9t9.5 -25q-1 -31 -18.5 -55t-44.5 -36.5t-54 -12.5q-20 0 -40 7.5z" />
    <glyph glyph-name="Imacron" unicode="&#x12a;" horiz-adv-x="403" 
d="M40 0q-31 0 -44.5 5.5t-13.5 20.5l2 12q4 20 39 45q33 23 47 45t22 63l68 318q6 27 6 44q0 19 -7 33.5t-23 30.5q-12 13 -18 23t-3 22q5 22 20.5 30t52.5 8h102h14h102q32 0 45.5 -5.5t13.5 -20.5q0 -4 -2 -12q-4 -20 -39 -45q-33 -23 -47 -45t-22 -63l-68 -318
q-6 -27 -6 -44q0 -19 7 -33.5t23 -30.5q12 -13 18 -23t3 -22q-5 -22 -21 -30t-53 -8h-102h-14h-102zM160.5 750q-7.5 3 -7.5 10q0 9 11 29q14 26 22.5 34t25.5 8q93 -1 240 -1q17 0 17 -12q0 -8 -10 -28q-12 -27 -20.5 -35.5t-27.5 -8.5l-226 1q-17 0 -24.5 3z" />
    <glyph glyph-name="imacron" unicode="&#x12b;" horiz-adv-x="355" 
d="M65 14.5q-26 26.5 -26 75.5q0 37 15 95l34 144q3 14 3 24q0 23 -17 34q-6 3 -16.5 7.5t-15.5 9t-5 11.5q0 17 13 25.5t46 20.5q115 39 166 39q21 0 30.5 -6t9.5 -19q0 -3 -2 -15l-63 -287q-2 -8 -2 -20q0 -25 18 -25q7 0 13 3.5t12.5 9.5t10.5 10q10 8 19 8t15.5 -7
t6.5 -20t-9 -31q-21 -46 -68 -79.5t-102 -33.5q-60 0 -86 26.5zM87.5 588q-7.5 3 -7.5 10q0 9 11 29q14 26 22.5 34t25.5 8q93 -1 240 -1q17 0 17 -12q0 -8 -10 -28q-12 -27 -20.5 -35.5t-27.5 -8.5l-226 1q-17 0 -24.5 3z" />
    <glyph glyph-name="Ibreve" unicode="&#x12c;" horiz-adv-x="403" 
d="M40 0q-31 0 -44.5 5.5t-13.5 20.5l2 12q4 20 39 45q33 23 47 45t22 63l68 318q6 27 6 44q0 19 -7 33.5t-23 30.5q-12 13 -18 23t-3 22q5 22 20.5 30t52.5 8h102h14h102q32 0 45.5 -5.5t13.5 -20.5q0 -4 -2 -12q-4 -20 -39 -45q-33 -23 -47 -45t-22 -63l-68 -318
q-6 -27 -6 -44q0 -19 7 -33.5t23 -30.5q12 -13 18 -23t3 -22q-5 -22 -21 -30t-53 -8h-102h-14h-102zM196 762.5q-40 35.5 -40 89.5q0 14 3 27q5 22 21 22q7 0 16 -12q41 -73 121 -73q77 0 139 65q10 9 19.5 14.5t15.5 5.5q17 0 12 -20q-10 -42 -40.5 -77.5t-73.5 -56
t-90 -20.5q-63 0 -103 35.5z" />
    <glyph glyph-name="ibreve" unicode="&#x12d;" horiz-adv-x="355" 
d="M65 14.5q-26 26.5 -26 75.5q0 37 15 95l34 144q3 14 3 24q0 23 -17 34q-6 3 -16.5 7.5t-15.5 9t-5 11.5q0 17 13 25.5t46 20.5q115 39 166 39q21 0 30.5 -6t9.5 -19q0 -3 -2 -15l-63 -287q-2 -8 -2 -20q0 -25 18 -25q7 0 13 3.5t12.5 9.5t10.5 10q10 8 19 8t15.5 -7
t6.5 -20t-9 -31q-21 -46 -68 -79.5t-102 -33.5q-60 0 -86 26.5zM118 580.5q-40 35.5 -40 89.5q0 14 3 27q5 22 21 22q7 0 16 -12q41 -73 121 -73q77 0 139 65q10 9 19.5 14.5t15.5 5.5q17 0 12 -20q-10 -42 -40.5 -77.5t-73.5 -56t-90 -20.5q-63 0 -103 35.5z" />
    <glyph glyph-name="Iogonek" unicode="&#x12e;" horiz-adv-x="403" 
d="M451.5 694.5q13.5 -5.5 13.5 -20.5q0 -4 -2 -12q-4 -20 -39 -45q-33 -23 -47 -45t-22 -63l-68 -318q-6 -27 -6 -44q0 -19 7 -33.5t23 -30.5q12 -13 18 -23t3 -22q-5 -22 -21 -30t-53 -8h-70q-36 -23 -56.5 -45t-20.5 -46t26 -24q24 0 53 17q5 3 9 3q7 0 11 -5t1 -15
q-7 -26 -41.5 -47t-83.5 -21q-35 0 -54.5 16t-19.5 44q0 34 23 65.5t68 57.5h-63q-31 0 -44.5 5.5t-13.5 20.5l2 12q4 20 39 45q33 23 47 45t22 63l68 318q6 27 6 44q0 19 -7 33.5t-23 30.5q-12 13 -18 23t-3 22q5 22 20.5 30t52.5 8h102h14h102q32 0 45.5 -5.5z" />
    <glyph glyph-name="iogonek" unicode="&#x12f;" horiz-adv-x="358" 
d="M344.5 690q16.5 -13 16.5 -33q0 -7 -1 -11q-6 -27 -32 -49.5t-64.5 -35.5t-80.5 -13q-34 0 -51.5 12.5t-17.5 32.5q0 7 1 11q8 42 61 70.5t120 28.5q32 0 48.5 -13zM308 159q9 0 15.5 -7t6.5 -20t-9 -31q-12 -27 -35.5 -51.5t-53.5 -40.5l5 -1q-36 -23 -56.5 -45
t-20.5 -46t26 -24q24 0 53 17q4 3 9 3q7 0 11 -5t1 -15q-7 -26 -41.5 -47t-83.5 -21q-35 0 -54.5 16t-19.5 44q0 58 63 105q-85 11 -85 100q0 37 15 95l34 144q3 14 3 24q0 23 -17 34q-6 3 -16.5 7.5t-15.5 9t-5 11.5q0 17 13 25.5t46 20.5q115 39 166 39q21 0 30.5 -6
t9.5 -19q0 -3 -2 -15l-63 -287q-2 -8 -2 -20q0 -25 18 -25q7 0 13 3.5t12.5 9.5t10.5 10q10 8 19 8z" />
    <glyph glyph-name="Idotaccent" unicode="&#x130;" horiz-adv-x="403" 
d="M40 0q-31 0 -44.5 5.5t-13.5 20.5l2 12q4 20 39 45q33 23 47 45t22 63l68 318q6 27 6 44q0 19 -7 33.5t-23 30.5q-12 13 -18 23t-3 22q5 22 20.5 30t52.5 8h102h14h102q32 0 45.5 -5.5t13.5 -20.5q0 -4 -2 -12q-4 -20 -39 -45q-33 -23 -47 -45t-22 -63l-68 -318
q-6 -27 -6 -44q0 -19 7 -33.5t23 -30.5q12 -13 18 -23t3 -22q-5 -22 -21 -30t-53 -8h-102h-14h-102zM237.5 738q-14.5 10 -14.5 27q0 24 21.5 45t56 33.5t73.5 12.5q30 0 43 -13t9 -34q-7 -34 -50.5 -57.5t-96.5 -23.5q-27 0 -41.5 10z" />
    <glyph glyph-name="dotlessi" unicode="&#x131;" horiz-adv-x="355" 
d="M65 14.5q-26 26.5 -26 75.5q0 37 15 95l34 144q3 14 3 24q0 23 -17 34q-6 3 -16.5 7.5t-15.5 9t-5 11.5q0 17 13 25.5t46 20.5q115 39 166 39q21 0 30.5 -6t9.5 -19q0 -3 -2 -15l-63 -287q-2 -8 -2 -20q0 -25 18 -25q7 0 13 3.5t12.5 9.5t10.5 10q10 8 19 8t15.5 -7
t6.5 -20t-9 -31q-21 -46 -68 -79.5t-102 -33.5q-60 0 -86 26.5z" />
    <glyph glyph-name="IJ" unicode="&#x132;" horiz-adv-x="961" 
d="M40 0q-31 0 -44.5 5.5t-13.5 20.5l2 12q4 20 39 45q33 23 47 45t22 63l68 318q6 27 6 44q0 19 -7 33.5t-23 30.5q-12 13 -18 23t-3 22q5 22 20.5 30t52.5 8h102h14h102q32 0 45.5 -5.5t13.5 -20.5q0 -4 -2 -12q-4 -20 -39 -45q-33 -23 -47 -45t-22 -63l-68 -318
q-6 -27 -6 -44q0 -19 7 -33.5t23 -30.5q12 -13 18 -23t3 -22q-5 -22 -21 -30t-53 -8h-102h-14h-102zM413 32q-45 44 -45 109q0 23 5 46q9 45 37 72t72 27q29 0 49 -16t20 -41q0 -8 -1 -12q-5 -22 -12 -46q-6 -20 -8 -31q-2 -12 -2 -16q0 -42 57 -42q74 0 98 111q4 20 14 82
q18 109 36 197l6 27q5 25 5 39q0 21 -8.5 36t-29.5 33q-13 12 -19.5 20.5t-6.5 22.5q0 7 1 11q5 22 24 30.5t63 8.5h220q28 0 39 -5.5t11 -20.5q0 -7 -1 -12q-4 -20 -37 -45q-29 -23 -41.5 -45t-21.5 -63l-56 -265q-27 -126 -108.5 -191t-205.5 -65q-109 0 -154 44z" />
    <glyph glyph-name="ij" unicode="&#x133;" horiz-adv-x="656" 
d="M65 14.5q-26 26.5 -26 75.5q0 37 15 95l34 144q3 14 3 24q0 23 -17 34q-6 3 -16.5 7.5t-15.5 9t-5 11.5q0 17 13 25.5t46 20.5q115 39 166 39q21 0 30.5 -6t9.5 -19q0 -3 -2 -15l-63 -287q-2 -8 -2 -20q0 -25 18 -25q7 0 13 3.5t12.5 9.5t10.5 10q10 8 19 8t15.5 -7
t6.5 -20t-9 -31q-21 -46 -68 -79.5t-102 -33.5q-60 0 -86 26.5zM131.5 560.5q-17.5 12.5 -17.5 32.5q0 7 1 11q8 42 61 70.5t120 28.5q32 0 48.5 -13t16.5 -33q0 -7 -1 -11q-6 -27 -32 -49.5t-64.5 -35.5t-80.5 -13q-34 0 -51.5 12.5zM264 -180q-19 0 -29.5 9t-10.5 23
q0 17 13.5 33t37.5 24q84 26 108 137l59 283q3 15 3 27q0 22 -17 29q-5 2 -15.5 5.5t-16 8.5t-5.5 12q0 18 13 26.5t45 20.5q117 42 166 42q22 0 31.5 -5.5t9.5 -20.5q0 -9 -1 -14l-78 -365q-26 -124 -106 -190.5t-194 -83.5q-4 -1 -13 -1zM469.5 560.5
q-17.5 12.5 -17.5 32.5q0 7 1 11q8 42 61 70.5t120 28.5q32 0 48.5 -13t16.5 -33q0 -7 -1 -11q-6 -27 -32 -49.5t-64.5 -35.5t-80.5 -13q-34 0 -51.5 12.5z" />
    <glyph glyph-name="Jcircumflex" unicode="&#x134;" horiz-adv-x="593" 
d="M45 32q-45 44 -45 109q0 23 5 46q9 45 37 72t72 27q29 0 49 -16t20 -41q0 -8 -1 -12q-5 -22 -12 -46q-6 -20 -8 -31q-2 -12 -2 -16q0 -42 57 -42q74 0 98 111q4 20 14 82q18 109 36 197l6 27q5 25 5 39q0 21 -8.5 36t-29.5 33q-13 12 -19.5 20.5t-6.5 22.5q0 7 1 11
q5 22 24 30.5t63 8.5h220q28 0 39 -5.5t11 -20.5q0 -7 -1 -12q-4 -20 -37 -45q-29 -23 -41.5 -45t-21.5 -63l-56 -265q-27 -126 -108.5 -191t-205.5 -65q-109 0 -154 44zM326 736.5q-6 8.5 -4 16.5q3 20 50 58t99 69q33 20 55 20q12 0 22.5 -5t24.5 -15q38 -31 68 -68.5
t26 -58.5q-2 -8 -11 -16.5t-18 -8.5q-8 0 -20 6t-20.5 11.5t-12.5 7.5q-70 43 -82 43q-10 0 -99 -43q-48 -25 -63 -25q-9 0 -15 8.5z" />
    <glyph glyph-name="jcircumflex" unicode="&#x135;" horiz-adv-x="298" 
d="M-94 -180q-19 0 -29.5 9t-10.5 23q0 17 13.5 33t37.5 24q84 26 108 137l59 283q3 15 3 27q0 22 -17 29q-5 2 -15.5 5.5t-16 8.5t-5.5 12q0 18 13 26.5t45 20.5q117 42 166 42q22 0 31.5 -5.5t9.5 -20.5q0 -9 -1 -14l-78 -365q-26 -124 -106 -190.5t-194 -83.5
q-4 -1 -13 -1zM66 550.5q-6 6.5 -6 14.5q0 23 48.5 65t101.5 74q28 16 55 16q26 0 47 -16q34 -27 64 -70t30 -65q0 -9 -8.5 -17t-19.5 -8q-23 0 -54 25q-35 27 -55 39t-26 12q-5 0 -31 -12.5t-70 -38.5q-20 -13 -36 -19t-24 -6q-10 0 -16 6.5z" />
    <glyph glyph-name="uni0136" unicode="&#x136;" horiz-adv-x="794" 
d="M-4.5 5.5q-13.5 5.5 -13.5 20.5l2 12q4 20 39 45q32 23 46 45t23 63l68 318q6 27 6 44q0 19 -7 33.5t-23 30.5q-12 13 -18 23t-3 22q5 22 20.5 30t52.5 8h216q26 0 37.5 -5.5t11.5 -19.5l-2 -13q-4 -20 -34 -45q-28 -23 -41 -45t-21 -63l-13 -62l-2 -16q0 -11 6 -11
t20 11l117 96q51 43 51 74q0 11 -6 23q-1 3 -5 10.5t-5 14.5t0 14q6 24 30.5 32t77.5 8l49 -1l45 1q40 0 61 -7t21 -27q0 -6 -1 -9q-5 -22 -20 -32t-41 -16q-29 -5 -51 -16.5t-61 -47.5l-51 -47q-11 -10 -11 -28q0 -9 3 -17l99 -322q7 -22 19.5 -33t32.5 -19q21 -9 21 -31
q0 -7 -1 -10q-5 -23 -25 -32t-52 -9h-208q-24 0 -38 6t-14 22q0 20 8.5 29t26.5 22q10 7 14.5 14.5t4.5 18.5q0 13 -6 32l-45 149q-10 30 -25 30q-9 0 -23 -12l-25 -22q-15 -12 -24 -24t-13 -31l-9 -43q-6 -27 -6 -45t6 -32.5t20 -30.5q11 -14 16.5 -23.5t2.5 -21.5
q-5 -22 -20 -30t-49 -8h-217q-31 0 -44.5 5.5zM273 -179q-3 3 -3 7q0 10 11 13q13 6 23.5 14t12.5 17v3q0 5 -9 8q-10 3 -16.5 10.5t-6.5 20.5q0 24 19 42t45 18q20 0 30.5 -10.5t10.5 -30.5q0 -13 -2 -20q-6 -29 -25 -50.5t-42 -33t-41 -11.5q-4 0 -7 3z" />
    <glyph glyph-name="uni0137" unicode="&#x137;" horiz-adv-x="630" 
d="M329.5 57.5q-32.5 69.5 -43.5 178.5q-1 6 -3.5 10t-5.5 4q-5 0 -11 -8l-25 -35q-10 -13 -14 -23t-8 -29q-8 -33 -14 -90q-3 -28 -16 -42t-49 -20.5t-108 -7.5q-17 0 -26 8t-9 22q0 3 2 13q4 14 7.5 24.5t5.5 18.5q14 47 27 103l76 351q3 14 3 25q0 23 -17 33
q-6 3 -16.5 7.5t-15.5 9t-5 11.5q0 18 13 26.5t46 20.5q118 38 166 38q21 0 30.5 -5.5t9.5 -19.5q0 -3 -2 -15l-65 -312q-1 -4 -1 -10q0 -9 5 -9q4 0 15 11q71 81 123 120t114 39q45 0 73.5 -25.5t28.5 -61.5q0 -30 -15 -47.5t-43 -17.5q-37 0 -46 35q-5 14 -11 19.5
t-18 5.5q-15 0 -44 -24q-16 -13 -16 -31q0 -4 2 -16q25 -102 36.5 -143t26 -62.5t35.5 -21.5q15 0 22.5 4t20.5 15q8 8 18 8q9 0 14.5 -7.5t5.5 -16.5q0 -6 -1 -9q-19 -53 -59 -87t-107 -34q-79 0 -111.5 69.5zM187 -179q-3 3 -3 7q0 10 11 13q13 6 23.5 14t12.5 17v3
q0 5 -9 8q-10 3 -16.5 10.5t-6.5 20.5q0 24 19 42t45 18q20 0 30.5 -10.5t10.5 -30.5q0 -13 -2 -20q-6 -29 -25 -50.5t-42 -33t-41 -11.5q-4 0 -7 3z" />
    <glyph glyph-name="kgreenlandic" unicode="&#x138;" horiz-adv-x="641" 
d="M-21.5 3q-18.5 7 -18.5 23t8 24t24 17q33 15 46.5 39.5t23.5 75.5l31 140v7q3 14 3 25q0 23 -17 33q-6 3 -16.5 7.5t-15.5 9t-5 11.5q0 18 13 26.5t46 20.5q118 38 166 38q21 0 30.5 -5.5t9.5 -19.5q0 -3 -2 -15l-10 -53l-12 -58q-2 -10 -2 -14q0 -13 9 -13t22 11l79 66
q15 12 17 23v2q0 9 -22 12q-3 2 -6 9t-2 17q4 17 20 24t32 8t53 1h98q27 0 40.5 -4.5t13.5 -21.5q0 -7 -1 -11q-4 -21 -16.5 -29.5t-31.5 -10.5q-27 -1 -46 -8.5t-38 -21.5l-34 -27q-16 -12 -16 -23q0 -7 4 -15l88 -196q12 -27 18 -34.5t20 -15.5q12 -9 17.5 -15t5.5 -16
q0 -24 -22 -37t-57 -13l-56 1l-57 -1q-52 0 -68.5 10.5t-12.5 31.5q1 9 12 20q6 7 9.5 13t3.5 14q0 9 -4 17l-43 95q-7 20 -19 20q-3 0 -9 -4l-23 -19q-8 -6 -11 -15t-9 -37q-3 -21 -3 -23q0 -32 33 -50q2 -2 8.5 -7.5t9 -12.5t0.5 -15q-5 -21 -24 -29.5t-68 -8.5l-78 1
l-76 -1q-44 0 -62.5 7z" />
    <glyph glyph-name="Lacute" unicode="&#x139;" horiz-adv-x="636" 
d="M452.5 -18.5q-8.5 3.5 -9.5 4.5q-16 7 -31.5 10.5t-48.5 3.5h-221h-102q-31 0 -44.5 5.5t-13.5 20.5l2 12q4 20 39 45q33 23 47 45t22 63l68 318q6 27 6 44q0 18 -7 32.5t-23 31.5q-12 13 -18 23t-3 22q5 22 20.5 30t52.5 8h220q39 0 55 -6t16 -21q0 -7 -1 -11
q-4 -21 -45 -45q-38 -22 -54 -44.5t-24 -63.5l-81 -378l-2 -16q0 -16 9.5 -21.5t27.5 -5.5h70q45 0 78 26t66 85q26 41 60 41q33 0 33 -33q0 -39 -48 -125q-35 -62 -54.5 -83t-39.5 -21q-13 0 -21.5 3.5zM208 748q2 10 12.5 23t34.5 39q26 28 35 40q15 21 37.5 28t56.5 7
q48 0 63 -6.5t11 -25.5q-4 -20 -50 -49.5t-101.5 -53t-76.5 -23.5q-28 0 -22 21z" />
    <glyph glyph-name="lacute" unicode="&#x13a;" horiz-adv-x="343" 
d="M52.5 14q-24.5 26 -24.5 74q0 32 13 97l73 350q3 14 3 25q0 23 -17 33q-6 3 -16.5 7.5t-15.5 9t-5 11.5q0 18 13 26.5t46 20.5q118 38 166 38q21 0 30.5 -5.5t9.5 -19.5q0 -3 -2 -15l-104 -494q-2 -7 -2 -19q0 -25 18 -25q10 0 15.5 3t11.5 9t11 10q10 8 19 8
q10 0 16.5 -7t6.5 -20q0 -12 -9 -30q-22 -46 -70 -79.5t-103 -33.5q-59 0 -83.5 26zM147 781q2 10 12.5 23t34.5 39q26 28 35 40q15 21 37.5 28t56.5 7q48 0 63 -6.5t11 -25.5q-4 -20 -50 -49.5t-101.5 -53t-76.5 -23.5q-28 0 -22 21z" />
    <glyph glyph-name="uni013B" unicode="&#x13b;" horiz-adv-x="636" 
d="M452.5 -18.5q-8.5 3.5 -9.5 4.5q-16 7 -31.5 10.5t-48.5 3.5h-221h-102q-31 0 -44.5 5.5t-13.5 20.5l2 12q4 20 39 45q33 23 47 45t22 63l68 318q6 27 6 44q0 18 -7 32.5t-23 31.5q-12 13 -18 23t-3 22q5 22 20.5 30t52.5 8h220q39 0 55 -6t16 -21q0 -7 -1 -11
q-4 -21 -45 -45q-38 -22 -54 -44.5t-24 -63.5l-81 -378l-2 -16q0 -16 9.5 -21.5t27.5 -5.5h70q45 0 78 26t66 85q26 41 60 41q33 0 33 -33q0 -39 -48 -125q-35 -62 -54.5 -83t-39.5 -21q-13 0 -21.5 3.5zM196 -179q-3 3 -3 7q0 10 11 13q13 6 23.5 14t12.5 17v3q0 5 -9 8
q-10 3 -16.5 10.5t-6.5 20.5q0 24 19 42t45 18q20 0 30.5 -10.5t10.5 -30.5q0 -13 -2 -20q-6 -29 -25 -50.5t-42 -33t-41 -11.5q-4 0 -7 3z" />
    <glyph glyph-name="uni013C" unicode="&#x13c;" horiz-adv-x="343" 
d="M52.5 14q-24.5 26 -24.5 74q0 32 13 97l73 350q3 14 3 25q0 23 -17 33q-6 3 -16.5 7.5t-15.5 9t-5 11.5q0 18 13 26.5t46 20.5q118 38 166 38q21 0 30.5 -5.5t9.5 -19.5q0 -3 -2 -15l-104 -494q-2 -7 -2 -19q0 -25 18 -25q10 0 15.5 3t11.5 9t11 10q10 8 19 8
q10 0 16.5 -7t6.5 -20q0 -12 -9 -30q-22 -46 -70 -79.5t-103 -33.5q-59 0 -83.5 26zM23 -179q-3 3 -3 7q0 10 11 13q13 6 23.5 14t12.5 17v3q0 5 -9 8q-10 3 -16.5 10.5t-6.5 20.5q0 24 19 42t45 18q20 0 30.5 -10.5t10.5 -30.5q0 -13 -2 -20q-6 -29 -25 -50.5t-42 -33
t-41 -11.5q-4 0 -7 3z" />
    <glyph glyph-name="Lcaron" unicode="&#x13d;" horiz-adv-x="636" 
d="M452.5 -18.5q-8.5 3.5 -9.5 4.5q-16 7 -31.5 10.5t-48.5 3.5h-221h-102q-31 0 -44.5 5.5t-13.5 20.5l2 12q4 20 39 45q33 23 47 45t22 63l68 318q6 27 6 44q0 18 -7 32.5t-23 31.5q-12 13 -18 23t-3 22q5 22 20.5 30t52.5 8h220q39 0 55 -6t16 -21q0 -7 -1 -11
q-4 -21 -45 -45q-38 -22 -54 -44.5t-24 -63.5l-81 -378l-2 -16q0 -16 9.5 -21.5t27.5 -5.5h70q45 0 78 26t66 85q26 41 60 41q33 0 33 -33q0 -39 -48 -125q-35 -62 -54.5 -83t-39.5 -21q-13 0 -21.5 3.5zM574 489q5 123 15 169q6 24 21 35.5t48 11.5q49 0 49 -35
q0 -8 -1 -13q-10 -47 -55 -164q-3 -7 -13 -33q-4 -10 -14.5 -15.5t-22.5 -5.5t-20 5.5t-8 15.5z" />
    <glyph glyph-name="lcaron" unicode="&#x13e;" horiz-adv-x="416" 
d="M52.5 14q-24.5 26 -24.5 74q0 32 13 97l73 350q3 14 3 25q0 23 -17 33q-6 3 -16.5 7.5t-15.5 9t-5 11.5q0 18 13 26.5t46 20.5q118 38 166 38q21 0 30.5 -5.5t9.5 -19.5q0 -3 -2 -15l-104 -494q-2 -7 -2 -19q0 -25 18 -25q10 0 15.5 3t11.5 9t11 10q10 8 19 8
q10 0 16.5 -7t6.5 -20q0 -12 -9 -30q-22 -46 -70 -79.5t-103 -33.5q-59 0 -83.5 26zM373 489q5 123 15 169q6 24 21 35.5t48 11.5q49 0 49 -35q0 -8 -1 -13q-10 -47 -55 -164q-3 -7 -13 -33q-4 -10 -14.5 -15.5t-22.5 -5.5t-20 5.5t-8 15.5z" />
    <glyph glyph-name="Ldot" unicode="&#x13f;" horiz-adv-x="636" 
d="M452.5 -18.5q-8.5 3.5 -9.5 4.5q-16 7 -31.5 10.5t-48.5 3.5h-221h-102q-31 0 -44.5 5.5t-13.5 20.5l2 12q4 20 39 45q33 23 47 45t22 63l68 318q6 27 6 44q0 18 -7 32.5t-23 31.5q-12 13 -18 23t-3 22q5 22 20.5 30t52.5 8h220q39 0 55 -6t16 -21q0 -7 -1 -11
q-4 -21 -45 -45q-38 -22 -54 -44.5t-24 -63.5l-81 -378l-2 -16q0 -16 9.5 -21.5t27.5 -5.5h70q45 0 78 26t66 85q26 41 60 41q33 0 33 -33q0 -39 -48 -125q-35 -62 -54.5 -83t-39.5 -21q-13 0 -21.5 3.5zM427.5 312.5q-15.5 13.5 -15.5 36.5q0 13 4 25q11 35 38.5 57.5
t61.5 22.5q28 0 44.5 -15t16.5 -40q0 -42 -32 -71t-75 -29q-27 0 -42.5 13.5z" />
    <glyph glyph-name="ldot" unicode="&#x140;" horiz-adv-x="406" 
d="M52.5 14q-24.5 26 -24.5 74q0 32 13 97l73 350q3 14 3 25q0 23 -17 33q-6 3 -16.5 7.5t-15.5 9t-5 11.5q0 18 13 26.5t46 20.5q118 38 166 38q21 0 30.5 -5.5t9.5 -19.5q0 -3 -2 -15l-104 -494q-2 -7 -2 -19q0 -25 18 -25q10 0 15.5 3t11.5 9t11 10q10 8 19 8
q10 0 16.5 -7t6.5 -20q0 -12 -9 -30q-22 -46 -70 -79.5t-103 -33.5q-59 0 -83.5 26zM338.5 305q-11.5 10 -11.5 27q0 9 3 18q7 26 28 42.5t46 16.5q21 0 33 -11t12 -29q0 -31 -23.5 -52.5t-55.5 -21.5q-20 0 -31.5 10z" />
    <glyph glyph-name="Lslash" unicode="&#x141;" horiz-adv-x="636" 
d="M616 207q0 -39 -48 -125q-35 -62 -54.5 -83t-39.5 -21q-13 0 -21.5 3.5t-9.5 4.5q-16 7 -31.5 10.5t-48.5 3.5h-221h-102q-31 0 -44.5 5.5t-13.5 20.5l2 12q4 20 39 45q33 23 47 45t22 63l14 63l-51 -19q-22 -8 -32 -8q-15 0 -15 19q0 9 5 31q6 30 12 39.5t23 14.5l81 31
l31 147q6 27 6 44q0 18 -7 32.5t-23 31.5q-12 13 -18 23t-3 22q5 22 20.5 30t52.5 8h220q39 0 55 -6t16 -21q0 -7 -1 -11q-4 -21 -45 -45q-38 -22 -54 -44.5t-24 -63.5l-14 -66l51 20q24 8 33 8q13 0 13 -16q0 -3 -4 -27q-7 -32 -13.5 -44t-20.5 -17l-82 -31l-44 -205
l-2 -16q0 -16 9.5 -21.5t27.5 -5.5h70q45 0 78 26t66 85q26 41 60 41q33 0 33 -33z" />
    <glyph glyph-name="lslash" unicode="&#x142;" horiz-adv-x="343" 
d="M341 481q24 8 33 8q13 0 13 -16q0 -3 -4 -27q-7 -32 -13.5 -44t-20.5 -17l-89 -34l-38 -179q-2 -7 -2 -19q0 -25 18 -25q10 0 15.5 3t11.5 9t11 10q10 8 19 8q10 0 16.5 -7t6.5 -20q0 -12 -9 -30q-22 -46 -70 -79.5t-103 -33.5q-59 0 -83.5 26t-24.5 74q0 32 13 97l19 89
l-56 -21q-22 -8 -32 -8q-15 0 -15 19q0 9 5 31q6 30 12 39.5t23 14.5l85 33l32 153q3 14 3 25q0 23 -17 33q-6 3 -16.5 7.5t-15.5 9t-5 11.5q0 18 13 26.5t46 20.5q118 38 166 38q21 0 30.5 -5.5t9.5 -19.5q0 -3 -2 -15l-44 -208z" />
    <glyph glyph-name="Nacute" unicode="&#x143;" horiz-adv-x="766" 
d="M-7.5 5q-11.5 6 -11.5 18q0 34 39 51q25 11 36.5 23t21.5 43.5t26 107.5l56 261q10 44 10 69q0 18 -7 28.5t-24 19.5q-28 13 -23 41q4 18 18 26t48 8l142 -1q17 0 27 -4.5t16 -13.5l209 -320q4 -6 9.5 -9t11.5 -3t11.5 5.5t7.5 15.5l30 138q10 44 10 69q0 18 -7 28.5
t-24 19.5q-28 13 -23 41q4 18 18 26t48 8h123q29 0 40.5 -5.5t11.5 -18.5q0 -34 -39 -51q-26 -12 -37 -24t-20.5 -42t-26.5 -108l-89 -417q-4 -18 -15 -28t-25 -10q-21 0 -32 17l-295 433q-6 9 -16 9q-12 0 -17 -19l-52 -246q-10 -44 -10 -69q0 -19 7 -29t24 -19
q28 -13 23 -41q-4 -18 -18 -26t-48 -8h-124q-29 0 -40.5 6zM379 748q2 10 12.5 23t34.5 39q26 28 35 40q15 21 37.5 28t56.5 7q48 0 63 -6.5t11 -25.5q-4 -20 -50 -49.5t-101.5 -53t-76.5 -23.5q-28 0 -22 21z" />
    <glyph glyph-name="nacute" unicode="&#x144;" horiz-adv-x="677" 
d="M381.5 15.5q-25.5 27.5 -25.5 77.5q0 40 14 93l27 105q4 15 4 28q0 18 -9.5 27.5t-25.5 9.5q-35 0 -69.5 -36.5t-46.5 -108.5q-19 -111 -23 -146q-3 -28 -16 -42t-49 -20.5t-108 -7.5q-17 0 -26 8t-9 22q0 3 2 13l10 37q16 57 27.5 103.5t34.5 150.5q3 14 3 25
q0 25 -17 33q-6 3 -16.5 7.5t-15.5 9t-5 11.5q0 18 13 26.5t46 20.5q118 38 166 38q21 0 30.5 -5.5t9.5 -19.5q0 -3 -2 -15l-12 -51q-4 -17 3 -17q3 0 12 11q34 47 75 75t104 28q50 0 81 -26.5t31 -83.5q0 -23 -8 -60l-37 -163q-3 -12 -3 -21q0 -24 18 -24q9 0 16.5 4.5
t19.5 16.5q9 10 20 10q9 0 15.5 -7.5t6.5 -19.5q0 -13 -9 -31q-21 -45 -66.5 -79t-106.5 -34q-58 0 -83.5 27.5zM353 571q3 20 56 89l23 33q14 23 35 29.5t61 6.5q39 0 52.5 -7t11.5 -25q-3 -20 -47 -55t-96 -63t-72 -28q-27 0 -24 20z" />
    <glyph glyph-name="uni0145" unicode="&#x145;" horiz-adv-x="766" 
d="M-7.5 5q-11.5 6 -11.5 18q0 34 39 51q25 11 36.5 23t21.5 43.5t26 107.5l56 261q10 44 10 69q0 18 -7 28.5t-24 19.5q-28 13 -23 41q4 18 18 26t48 8l142 -1q17 0 27 -4.5t16 -13.5l209 -320q4 -6 9.5 -9t11.5 -3t11.5 5.5t7.5 15.5l30 138q10 44 10 69q0 18 -7 28.5
t-24 19.5q-28 13 -23 41q4 18 18 26t48 8h123q29 0 40.5 -5.5t11.5 -18.5q0 -34 -39 -51q-26 -12 -37 -24t-20.5 -42t-26.5 -108l-89 -417q-4 -18 -15 -28t-25 -10q-21 0 -32 17l-295 433q-6 9 -16 9q-12 0 -17 -19l-52 -246q-10 -44 -10 -69q0 -19 7 -29t24 -19
q28 -13 23 -41q-4 -18 -18 -26t-48 -8h-124q-29 0 -40.5 6zM263 -179q-3 3 -3 7q0 10 11 13q13 6 23.5 14t12.5 17v3q0 5 -9 8q-10 3 -16.5 10.5t-6.5 20.5q0 24 19 42t45 18q20 0 30.5 -10.5t10.5 -30.5q0 -13 -2 -20q-6 -29 -25 -50.5t-42 -33t-41 -11.5q-4 0 -7 3z" />
    <glyph glyph-name="uni0146" unicode="&#x146;" horiz-adv-x="677" 
d="M381.5 15.5q-25.5 27.5 -25.5 77.5q0 40 14 93l27 105q4 15 4 28q0 18 -9.5 27.5t-25.5 9.5q-35 0 -69.5 -36.5t-46.5 -108.5q-19 -111 -23 -146q-3 -28 -16 -42t-49 -20.5t-108 -7.5q-17 0 -26 8t-9 22q0 3 2 13l10 37q16 57 27.5 103.5t34.5 150.5q3 14 3 25
q0 25 -17 33q-6 3 -16.5 7.5t-15.5 9t-5 11.5q0 18 13 26.5t46 20.5q118 38 166 38q21 0 30.5 -5.5t9.5 -19.5q0 -3 -2 -15l-12 -51q-4 -17 3 -17q3 0 12 11q34 47 75 75t104 28q50 0 81 -26.5t31 -83.5q0 -23 -8 -60l-37 -163q-3 -12 -3 -21q0 -24 18 -24q9 0 16.5 4.5
t19.5 16.5q9 10 20 10q9 0 15.5 -7.5t6.5 -19.5q0 -13 -9 -31q-21 -45 -66.5 -79t-106.5 -34q-58 0 -83.5 27.5zM224 -179q-3 3 -3 7q0 10 11 13q13 6 23.5 14t12.5 17v3q0 5 -9 8q-10 3 -16.5 10.5t-6.5 20.5q0 24 19 42t45 18q20 0 30.5 -10.5t10.5 -30.5q0 -13 -2 -20
q-6 -29 -25 -50.5t-42 -33t-41 -11.5q-4 0 -7 3z" />
    <glyph glyph-name="Ncaron" unicode="&#x147;" horiz-adv-x="766" 
d="M-7.5 5q-11.5 6 -11.5 18q0 34 39 51q25 11 36.5 23t21.5 43.5t26 107.5l56 261q10 44 10 69q0 18 -7 28.5t-24 19.5q-28 13 -23 41q4 18 18 26t48 8l142 -1q17 0 27 -4.5t16 -13.5l209 -320q4 -6 9.5 -9t11.5 -3t11.5 5.5t7.5 15.5l30 138q10 44 10 69q0 18 -7 28.5
t-24 19.5q-28 13 -23 41q4 18 18 26t48 8h123q29 0 40.5 -5.5t11.5 -18.5q0 -34 -39 -51q-26 -12 -37 -24t-20.5 -42t-26.5 -108l-89 -417q-4 -18 -15 -28t-25 -10q-21 0 -32 17l-295 433q-6 9 -16 9q-12 0 -17 -19l-52 -246q-10 -44 -10 -69q0 -19 7 -29t24 -19
q28 -13 23 -41q-4 -18 -18 -26t-48 -8h-124q-29 0 -40.5 6zM428 872q70 -43 81 -43t100 43q4 2 20.5 10t26.5 11.5t17 3.5q8 0 14.5 -8.5t4.5 -16.5q-5 -21 -51 -58.5t-98 -68.5q-35 -20 -56 -20t-46 20q-36 29 -65.5 65.5t-29.5 57.5q0 9 9.5 19t20.5 10q14 0 52 -25z" />
    <glyph glyph-name="ncaron" unicode="&#x148;" horiz-adv-x="677" 
d="M381.5 15.5q-25.5 27.5 -25.5 77.5q0 40 14 93l27 105q4 15 4 28q0 18 -9.5 27.5t-25.5 9.5q-35 0 -69.5 -36.5t-46.5 -108.5q-19 -111 -23 -146q-3 -28 -16 -42t-49 -20.5t-108 -7.5q-17 0 -26 8t-9 22q0 3 2 13l10 37q16 57 27.5 103.5t34.5 150.5q3 14 3 25
q0 25 -17 33q-6 3 -16.5 7.5t-15.5 9t-5 11.5q0 18 13 26.5t46 20.5q118 38 166 38q21 0 30.5 -5.5t9.5 -19.5q0 -3 -2 -15l-12 -51q-4 -17 3 -17q3 0 12 11q34 47 75 75t104 28q50 0 81 -26.5t31 -83.5q0 -23 -8 -60l-37 -163q-3 -12 -3 -21q0 -24 18 -24q9 0 16.5 4.5
t19.5 16.5q9 10 20 10q9 0 15.5 -7.5t6.5 -19.5q0 -13 -9 -31q-21 -45 -66.5 -79t-106.5 -34q-58 0 -83.5 27.5zM321 711.5q15 -6.5 30 -18.5q34 -26 54 -38.5t24 -12.5q6 0 32.5 12t71.5 39q42 25 63 25q9 0 14 -6t5 -14q-1 -25 -49 -66t-102 -74q-28 -16 -54 -16
q-29 0 -48 16q-34 27 -63.5 70t-29.5 65q0 10 7.5 17.5t18.5 7.5t26 -6.5z" />
    <glyph glyph-name="Eng" unicode="&#x14a;" horiz-adv-x="766" 
d="M831.5 695.5q11.5 -5.5 11.5 -18.5q0 -34 -39 -51q-26 -12 -37 -24t-20.5 -42t-26.5 -108l-73 -343l-32 -149q-14 -63 -55 -99.5t-91 -36.5q-38 0 -65.5 17t-27.5 52q0 9 3 21q2 14 12 25.5t21 11.5q9 0 27 -11q2 -1 8.5 -5t12.5 -5q5 -2 12 -2t11.5 4t12.5 14
q11 20 17 34.5t11 43.5l7 31l-267 392q-6 9 -16 9q-12 0 -17 -19l-52 -246q-10 -44 -10 -69q0 -19 7 -29t24 -19q28 -13 23 -41q-4 -18 -18 -26t-48 -8h-124q-29 0 -40.5 6t-11.5 18q0 34 39 51q25 11 36.5 23t21.5 43.5t26 107.5l56 261q10 44 10 69q0 18 -7 28.5t-24 19.5
q-28 13 -23 41q4 18 18 26t48 8l142 -1q17 0 27 -4.5t16 -13.5l209 -320q4 -6 9.5 -9t11.5 -3t11.5 5.5t7.5 15.5l30 138q10 44 10 69q0 18 -7 28.5t-24 19.5q-28 13 -23 41q4 18 18 26t48 8h123q29 0 40.5 -5.5z" />
    <glyph glyph-name="eng" unicode="&#x14b;" horiz-adv-x="632" 
d="M578.5 478.5q37.5 -27.5 37.5 -83.5q0 -19 -4 -38l-57 -269l-10 -47q-16 -73 -39.5 -119.5t-66 -72t-110.5 -25.5q-44 0 -79 19t-35 56q0 12 2 18q3 16 13 27t20 11q12 0 28 -10t21 -12q12 -4 15 -4q13 0 24 17q7 15 13 50q2 19 12 64l5 28l49 224q3 15 3 26q0 48 -49 48
q-26 0 -56.5 -29t-46.5 -80l-24 -119q-1 -7 -6.5 -37.5t-8.5 -55.5q-3 -28 -16 -42t-49 -20.5t-108 -7.5q-17 0 -26 8t-9 22q0 3 2 13q4 14 7.5 24.5t5.5 18.5q14 47 27 103l30 138v7q3 14 3 25q0 23 -17 33q-6 3 -16.5 7.5t-15.5 9t-5 11.5q0 18 13 26.5t46 20.5
q118 38 166 38q21 0 30.5 -5.5t9.5 -19.5q0 -3 -2 -15l-4 -24l1 2q-4 -20 -4.5 -26.5t2.5 -6.5q2 0 24.5 27.5t63.5 50.5t99 23q54 0 91.5 -27.5z" />
    <glyph glyph-name="Omacron" unicode="&#x14c;" horiz-adv-x="785" 
d="M174.5 20.5q-68.5 32.5 -105.5 94t-37 145.5q0 111 56.5 215.5t160.5 170.5t241 66q94 0 163.5 -32.5t106.5 -93.5t37 -145q0 -111 -56.5 -216t-161 -171t-242.5 -66q-94 0 -162.5 32.5zM472.5 143.5q49.5 61.5 75.5 150t26 163.5q0 73 -26.5 117t-78.5 44
q-66 0 -115 -61.5t-74.5 -150t-25.5 -164.5q0 -72 26.5 -116t77.5 -44q65 0 114.5 61.5zM342.5 750q-7.5 3 -7.5 10q0 9 11 29q14 26 22.5 34t25.5 8q93 -1 240 -1q17 0 17 -12q0 -8 -10 -28q-12 -27 -20.5 -35.5t-27.5 -8.5l-226 1q-17 0 -24.5 3z" />
    <glyph glyph-name="omacron" unicode="&#x14d;" horiz-adv-x="596" 
d="M74.5 43q-61.5 54 -61.5 145q0 64 35.5 138t112.5 127t194 53q109 0 168.5 -55t59.5 -146q0 -64 -34.5 -137.5t-109.5 -126t-189 -52.5t-175.5 54zM333 118.5q28 52.5 42 118.5t14 102q0 42 -13.5 65.5t-42.5 23.5q-42 0 -70 -52.5t-42 -118.5t-14 -102q0 -89 57 -89
q41 0 69 52.5zM236.5 588q-7.5 3 -7.5 10q0 9 11 29q14 26 22.5 34t25.5 8q93 -1 240 -1q17 0 17 -12q0 -8 -10 -28q-12 -27 -20.5 -35.5t-27.5 -8.5l-226 1q-17 0 -24.5 3z" />
    <glyph glyph-name="Obreve" unicode="&#x14e;" horiz-adv-x="785" 
d="M174.5 20.5q-68.5 32.5 -105.5 94t-37 145.5q0 111 56.5 215.5t160.5 170.5t241 66q94 0 163.5 -32.5t106.5 -93.5t37 -145q0 -111 -56.5 -216t-161 -171t-242.5 -66q-94 0 -162.5 32.5zM472.5 143.5q49.5 61.5 75.5 150t26 163.5q0 73 -26.5 117t-78.5 44
q-66 0 -115 -61.5t-74.5 -150t-25.5 -164.5q0 -72 26.5 -116t77.5 -44q65 0 114.5 61.5zM378 762.5q-40 35.5 -40 89.5q0 14 3 27q5 22 21 22q7 0 16 -12q41 -73 121 -73q77 0 139 65q10 9 19.5 14.5t15.5 5.5q17 0 12 -20q-10 -42 -40.5 -77.5t-73.5 -56t-90 -20.5
q-63 0 -103 35.5z" />
    <glyph glyph-name="obreve" unicode="&#x14f;" horiz-adv-x="596" 
d="M74.5 43q-61.5 54 -61.5 145q0 64 35.5 138t112.5 127t194 53q109 0 168.5 -55t59.5 -146q0 -64 -34.5 -137.5t-109.5 -126t-189 -52.5t-175.5 54zM333 118.5q28 52.5 42 118.5t14 102q0 42 -13.5 65.5t-42.5 23.5q-42 0 -70 -52.5t-42 -118.5t-14 -102q0 -89 57 -89
q41 0 69 52.5zM267 580.5q-40 35.5 -40 89.5q0 14 3 27q5 22 21 22q7 0 16 -12q41 -73 121 -73q77 0 139 65q10 9 19.5 14.5t15.5 5.5q17 0 12 -20q-10 -42 -40.5 -77.5t-73.5 -56t-90 -20.5q-63 0 -103 35.5z" />
    <glyph glyph-name="Ohungarumlaut" unicode="&#x150;" horiz-adv-x="785" 
d="M174.5 20.5q-68.5 32.5 -105.5 94t-37 145.5q0 111 56.5 215.5t160.5 170.5t241 66q94 0 163.5 -32.5t106.5 -93.5t37 -145q0 -111 -56.5 -216t-161 -171t-242.5 -66q-94 0 -162.5 32.5zM472.5 143.5q49.5 61.5 75.5 150t26 163.5q0 73 -26.5 117t-78.5 44
q-66 0 -115 -61.5t-74.5 -150t-25.5 -164.5q0 -72 26.5 -116t77.5 -44q65 0 114.5 61.5zM305 739q0 4 3 11q11 19 37 55q13 15 25 34q14 21 36 27t60 6q30 0 42.5 -5.5t12.5 -16.5q0 -3 -2 -11q-7 -20 -46 -46t-84.5 -46t-64.5 -20t-19 12zM502 739q0 4 3 11q13 23 37 54
l25 35q14 21 36.5 27t59.5 6q30 0 43 -5.5t13 -16.5q0 -3 -2 -11q-7 -20 -46.5 -46t-85 -46t-64.5 -20t-19 12z" />
    <glyph glyph-name="ohungarumlaut" unicode="&#x151;" horiz-adv-x="596" 
d="M74.5 43q-61.5 54 -61.5 145q0 64 35.5 138t112.5 127t194 53q109 0 168.5 -55t59.5 -146q0 -64 -34.5 -137.5t-109.5 -126t-189 -52.5t-175.5 54zM333 118.5q28 52.5 42 118.5t14 102q0 42 -13.5 65.5t-42.5 23.5q-42 0 -70 -52.5t-42 -118.5t-14 -102q0 -89 57 -89
q41 0 69 52.5zM242 562q0 5 4 12q37 58 62 105q13 24 27.5 29t57.5 5q59 0 59 -21t-38.5 -55t-86 -60.5t-68.5 -26.5q-17 0 -17 12zM440 562q0 5 3 12q25 38 42.5 68.5t20.5 36.5q13 24 27.5 29t56.5 5q59 0 59 -21t-38.5 -54.5t-86 -60.5t-68.5 -27q-16 0 -16 12z" />
    <glyph glyph-name="OE" unicode="&#x152;" horiz-adv-x="1034" 
d="M849 -19.5q-7 2.5 -13 5.5q-15 7 -28.5 10.5t-42.5 3.5h-322q-51 -12 -106 -12q-93 0 -162 34t-106 96t-37 146q0 44 10 88q22 104 86 186t158 128t205 46q55 0 102 -12h296q29 0 44.5 3.5t32.5 10.5q20 8 35 8q20 0 29.5 -21.5t19.5 -85.5q7 -45 7 -68q0 -87 -58 -87
q-17 0 -28 11t-17 29q-15 57 -23.5 78.5t-24 29.5t-50.5 8h-69q-23 0 -34 -9t-18 -41l-28 -130q-1 -4 -1 -10t3 -9t11 -3h39q18 0 24 8t8 33q2 24 11 36t28 12q20 0 30 -9t14.5 -32t8.5 -76q3 -39 3 -66q0 -39 -10 -54t-37 -15q-20 0 -28.5 9t-10.5 29q-3 24 -9.5 31.5
t-29.5 7.5h-46q-30 0 -39 -38l-35 -163q-2 -14 -2 -19q0 -14 8 -19t29 -5h104q43 0 73 26.5t64 88.5q15 24 30 32.5t31 8.5q35 0 35 -33q0 -38 -49 -122q-39 -65 -58 -86t-40 -21q-10 0 -17 2.5zM423 112q27 35 37 79l68 318q6 32 6 47q0 67 -62 67q-68 0 -122.5 -71
t-81.5 -201q-15 -70 -15 -125q0 -72 26 -110.5t77 -38.5q40 0 67 35z" />
    <glyph glyph-name="oe" unicode="&#x153;" horiz-adv-x="867" 
d="M816 165q9 0 14.5 -6t5.5 -16q0 -5 -4 -17q-28 -61 -86.5 -99.5t-143.5 -38.5q-101 0 -158 57q-81 -56 -194 -56q-114 0 -175.5 54t-61.5 145q0 64 35.5 138t112.5 127t194 53q112 0 174 -60q84 60 188 60q43 0 77 -16.5t53 -45t19 -60.5q-1 -48 -24.5 -79.5t-81 -53
t-161.5 -34.5q-9 -2 -12.5 -4.5t-3.5 -8.5q0 -43 19.5 -71t62.5 -28q42 0 72.5 14.5t56.5 36.5q12 9 22 9zM634.5 410.5q-23.5 -25.5 -36.5 -61t-15 -65.5q0 -7 1.5 -10t6.5 -3q2 0 10 2q62 14 96 35.5t35 65.5q0 62 -44 62q-30 0 -53.5 -25.5zM333 118.5q28 52.5 42 118.5
t14 102q0 42 -13.5 65.5t-42.5 23.5q-42 0 -70 -52.5t-42 -118.5t-14 -102q0 -89 57 -89q41 0 69 52.5z" />
    <glyph glyph-name="Racute" unicode="&#x154;" horiz-adv-x="774" 
d="M-7 5q-11 5 -11 18q0 19 11 33t30 27q33 24 47 45.5t22 62.5l68 318q6 27 6 44t-7 32t-23 31q-12 13 -17.5 24.5t-2.5 26.5q4 18 18 26t48 8q41 0 159 4q34 1 66.5 2t58.5 1q138 0 208 -44.5t70 -123.5q0 -69 -44 -125t-134 -93q-7 -2 -8 -7t4 -7q34 -13 51.5 -30
t25.5 -41.5t13 -68.5q6 -46 13.5 -66.5t23.5 -20.5q9 0 18.5 2.5t13.5 2.5q12 0 12 -13q0 -18 -15 -37.5t-50.5 -33t-92.5 -13.5t-85 19.5t-35 50.5t-7 82q0 140 -82 140h-25q-20 0 -29.5 -7.5t-15.5 -32.5l-11 -50q-6 -25 -6 -44q0 -18 6.5 -33t22.5 -31q12 -12 18 -21.5
t3 -23.5q-4 -19 -18.5 -29t-47.5 -10l-229 1q-30 0 -41 5zM386 365q70 0 102.5 41.5t32.5 99.5q0 47 -23.5 78.5t-69.5 31.5h-21q-19 0 -27 -7t-13 -31l-35 -164q-3 -13 -3 -24q0 -14 7.5 -19.5t26.5 -5.5h23zM339 748q2 10 12.5 23t34.5 39q26 28 35 40q15 21 37.5 28
t56.5 7q48 0 63 -6.5t11 -25.5q-4 -20 -50 -49.5t-101.5 -53t-76.5 -23.5q-28 0 -22 21z" />
    <glyph glyph-name="racute" unicode="&#x155;" horiz-adv-x="509" 
d="M27 3q-9 8 -9 22q0 3 2 13q25 82 40 147l33 143q4 20 4 28q0 25 -18 31t-27 12t-9 17q0 17 13.5 26t44.5 21q115 37 166 37q21 0 30.5 -6t9.5 -20q0 -3 -2 -15l-15 -63q-1 -3 -1 -8q0 -7 4 -7q6 0 15 15q69 110 146 110q40 0 61 -28.5t21 -72.5q0 -58 -29 -91.5
t-68 -33.5q-22 0 -34.5 8t-20.5 24q-3 7 -7.5 18.5t-10 17t-16.5 5.5q-29 0 -58.5 -37.5t-42.5 -104.5q-17 -91 -23 -146q-3 -28 -16 -42t-49 -20.5t-108 -7.5q-17 0 -26 8zM249 571q3 20 56 89l23 33q14 23 35 29.5t61 6.5q39 0 52.5 -7t11.5 -25q-3 -20 -47 -55t-96 -63
t-72 -28q-27 0 -24 20z" />
    <glyph glyph-name="uni0156" unicode="&#x156;" horiz-adv-x="774" 
d="M-7 5q-11 5 -11 18q0 19 11 33t30 27q33 24 47 45.5t22 62.5l68 318q6 27 6 44t-7 32t-23 31q-12 13 -17.5 24.5t-2.5 26.5q4 18 18 26t48 8q41 0 159 4q34 1 66.5 2t58.5 1q138 0 208 -44.5t70 -123.5q0 -69 -44 -125t-134 -93q-7 -2 -8 -7t4 -7q34 -13 51.5 -30
t25.5 -41.5t13 -68.5q6 -46 13.5 -66.5t23.5 -20.5q9 0 18.5 2.5t13.5 2.5q12 0 12 -13q0 -18 -15 -37.5t-50.5 -33t-92.5 -13.5t-85 19.5t-35 50.5t-7 82q0 140 -82 140h-25q-20 0 -29.5 -7.5t-15.5 -32.5l-11 -50q-6 -25 -6 -44q0 -18 6.5 -33t22.5 -31q12 -12 18 -21.5
t3 -23.5q-4 -19 -18.5 -29t-47.5 -10l-229 1q-30 0 -41 5zM386 365q70 0 102.5 41.5t32.5 99.5q0 47 -23.5 78.5t-69.5 31.5h-21q-19 0 -27 -7t-13 -31l-35 -164q-3 -13 -3 -24q0 -14 7.5 -19.5t26.5 -5.5h23zM279 -179q-3 3 -3 7q0 10 11 13q13 6 23.5 14t12.5 17v3
q0 5 -9 8q-10 3 -16.5 10.5t-6.5 20.5q0 24 19 42t45 18q20 0 30.5 -10.5t10.5 -30.5q0 -13 -2 -20q-6 -29 -25 -50.5t-42 -33t-41 -11.5q-4 0 -7 3z" />
    <glyph glyph-name="uni0157" unicode="&#x157;" horiz-adv-x="509" 
d="M27 3q-9 8 -9 22q0 3 2 13q25 82 40 147l33 143q4 20 4 28q0 25 -18 31t-27 12t-9 17q0 17 13.5 26t44.5 21q115 37 166 37q21 0 30.5 -6t9.5 -20q0 -3 -2 -15l-15 -63q-1 -3 -1 -8q0 -7 4 -7q6 0 15 15q69 110 146 110q40 0 61 -28.5t21 -72.5q0 -58 -29 -91.5
t-68 -33.5q-22 0 -34.5 8t-20.5 24q-3 7 -7.5 18.5t-10 17t-16.5 5.5q-29 0 -58.5 -37.5t-42.5 -104.5q-17 -91 -23 -146q-3 -28 -16 -42t-49 -20.5t-108 -7.5q-17 0 -26 8zM50 -179q-3 3 -3 7q0 10 11 13q13 6 23.5 14t12.5 17v3q0 5 -9 8q-10 3 -16.5 10.5t-6.5 20.5
q0 24 19 42t45 18q20 0 30.5 -10.5t10.5 -30.5q0 -13 -2 -20q-6 -29 -25 -50.5t-42 -33t-41 -11.5q-4 0 -7 3z" />
    <glyph glyph-name="Rcaron" unicode="&#x158;" horiz-adv-x="774" 
d="M-7 5q-11 5 -11 18q0 19 11 33t30 27q33 24 47 45.5t22 62.5l68 318q6 27 6 44t-7 32t-23 31q-12 13 -17.5 24.5t-2.5 26.5q4 18 18 26t48 8q41 0 159 4q34 1 66.5 2t58.5 1q138 0 208 -44.5t70 -123.5q0 -69 -44 -125t-134 -93q-7 -2 -8 -7t4 -7q34 -13 51.5 -30
t25.5 -41.5t13 -68.5q6 -46 13.5 -66.5t23.5 -20.5q9 0 18.5 2.5t13.5 2.5q12 0 12 -13q0 -18 -15 -37.5t-50.5 -33t-92.5 -13.5t-85 19.5t-35 50.5t-7 82q0 140 -82 140h-25q-20 0 -29.5 -7.5t-15.5 -32.5l-11 -50q-6 -25 -6 -44q0 -18 6.5 -33t22.5 -31q12 -12 18 -21.5
t3 -23.5q-4 -19 -18.5 -29t-47.5 -10l-229 1q-30 0 -41 5zM386 365q70 0 102.5 41.5t32.5 99.5q0 47 -23.5 78.5t-69.5 31.5h-21q-19 0 -27 -7t-13 -31l-35 -164q-3 -13 -3 -24q0 -14 7.5 -19.5t26.5 -5.5h23zM388 872q70 -43 81 -43t100 43q4 2 20.5 10t26.5 11.5t17 3.5
q8 0 14.5 -8.5t4.5 -16.5q-5 -21 -51 -58.5t-98 -68.5q-35 -20 -56 -20t-46 20q-36 29 -65.5 65.5t-29.5 57.5q0 9 9.5 19t20.5 10q14 0 52 -25z" />
    <glyph glyph-name="rcaron" unicode="&#x159;" horiz-adv-x="509" 
d="M27 3q-9 8 -9 22q0 3 2 13q25 82 40 147l33 143q4 20 4 28q0 25 -18 31t-27 12t-9 17q0 17 13.5 26t44.5 21q115 37 166 37q21 0 30.5 -6t9.5 -20q0 -3 -2 -15l-15 -63q-1 -3 -1 -8q0 -7 4 -7q6 0 15 15q69 110 146 110q40 0 61 -28.5t21 -72.5q0 -58 -29 -91.5
t-68 -33.5q-22 0 -34.5 8t-20.5 24q-3 7 -7.5 18.5t-10 17t-16.5 5.5q-29 0 -58.5 -37.5t-42.5 -104.5q-17 -91 -23 -146q-3 -28 -16 -42t-49 -20.5t-108 -7.5q-17 0 -26 8zM217 711.5q15 -6.5 30 -18.5q34 -26 54 -38.5t24 -12.5q6 0 32.5 12t71.5 39q42 25 63 25
q9 0 14 -6t5 -14q-1 -25 -49 -66t-102 -74q-28 -16 -54 -16q-29 0 -48 16q-34 27 -63.5 70t-29.5 65q0 10 7.5 17.5t18.5 7.5t26 -6.5z" />
    <glyph glyph-name="Sacute" unicode="&#x15a;" horiz-adv-x="619" 
d="M73.5 29.5q-76.5 41.5 -76.5 116.5q0 43 20 75t61 32q30 0 51 -17t22 -53q2 -50 26 -74.5t63 -24.5q42 0 71 26t29 66t-23 61.5t-75 44.5q-77 34 -113.5 83t-36.5 116q0 68 31.5 120.5t91 81.5t142.5 29q77 0 138.5 -21t97 -60t35.5 -90q0 -36 -19.5 -57t-59.5 -21
q-27 0 -45 12.5t-20 46.5q-3 47 -32.5 71.5t-68.5 24.5q-77 0 -77 -78q0 -31 23 -53.5t85 -47.5q64 -26 101.5 -54t54.5 -65t17 -92q0 -57 -34.5 -112t-105.5 -91.5t-174 -36.5q-123 0 -199.5 41.5zM263 748q2 10 12.5 23t34.5 39q26 28 35 40q15 21 37.5 28t56.5 7
q48 0 63 -6.5t11 -25.5q-4 -20 -50 -49.5t-101.5 -53t-76.5 -23.5q-28 0 -22 21z" />
    <glyph glyph-name="sacute" unicode="&#x15b;" horiz-adv-x="495" 
d="M94.5 8q-54.5 20 -78.5 50.5t-24 64.5q0 27 17 47.5t41 20.5q31 0 49 -16.5t35 -50.5q12 -31 31.5 -44.5t49.5 -13.5q25 0 40 11.5t15 31.5q0 24 -17 37.5t-69 39.5q-67 35 -96 71.5t-29 81.5q0 79 56.5 123t146.5 44q91 0 155 -34.5t64 -98.5q0 -24 -15.5 -40t-41.5 -16
q-21 0 -35 7t-22.5 17.5t-24.5 34.5q-16 29 -29.5 40.5t-36.5 11.5q-20 0 -35 -12t-15 -31q0 -17 15.5 -31.5t55.5 -33.5q85 -39 122 -78t37 -92q0 -81 -62 -121.5t-159 -40.5q-86 0 -140.5 20zM238 571q3 20 56 89l23 33q14 23 35 29.5t61 6.5q39 0 52.5 -7t11.5 -25
q-3 -20 -47 -55t-96 -63t-72 -28q-27 0 -24 20z" />
    <glyph glyph-name="Scircumflex" unicode="&#x15c;" horiz-adv-x="619" 
d="M73.5 29.5q-76.5 41.5 -76.5 116.5q0 43 20 75t61 32q30 0 51 -17t22 -53q2 -50 26 -74.5t63 -24.5q42 0 71 26t29 66t-23 61.5t-75 44.5q-77 34 -113.5 83t-36.5 116q0 68 31.5 120.5t91 81.5t142.5 29q77 0 138.5 -21t97 -60t35.5 -90q0 -36 -19.5 -57t-59.5 -21
q-27 0 -45 12.5t-20 46.5q-3 47 -32.5 71.5t-68.5 24.5q-77 0 -77 -78q0 -31 23 -53.5t85 -47.5q64 -26 101.5 -54t54.5 -65t17 -92q0 -57 -34.5 -112t-105.5 -91.5t-174 -36.5q-123 0 -199.5 41.5zM211 736.5q-6 8.5 -4 16.5q3 20 50 58t99 69q33 20 55 20q12 0 22.5 -5
t24.5 -15q38 -31 68 -68.5t26 -58.5q-2 -8 -11 -16.5t-18 -8.5q-8 0 -20 6t-20.5 11.5t-12.5 7.5q-70 43 -82 43q-10 0 -99 -43q-48 -25 -63 -25q-9 0 -15 8.5z" />
    <glyph glyph-name="scircumflex" unicode="&#x15d;" horiz-adv-x="495" 
d="M94.5 8q-54.5 20 -78.5 50.5t-24 64.5q0 27 17 47.5t41 20.5q31 0 49 -16.5t35 -50.5q12 -31 31.5 -44.5t49.5 -13.5q25 0 40 11.5t15 31.5q0 24 -17 37.5t-69 39.5q-67 35 -96 71.5t-29 81.5q0 79 56.5 123t146.5 44q91 0 155 -34.5t64 -98.5q0 -24 -15.5 -40t-41.5 -16
q-21 0 -35 7t-22.5 17.5t-24.5 34.5q-16 29 -29.5 40.5t-36.5 11.5q-20 0 -35 -12t-15 -31q0 -17 15.5 -31.5t55.5 -33.5q85 -39 122 -78t37 -92q0 -81 -62 -121.5t-159 -40.5q-86 0 -140.5 20zM134 550.5q-6 6.5 -6 14.5q0 23 48.5 65t101.5 74q28 16 55 16q26 0 47 -16
q34 -27 64 -70t30 -65q0 -9 -8.5 -17t-19.5 -8q-23 0 -54 25q-35 27 -55 39t-26 12q-5 0 -31 -12.5t-70 -38.5q-20 -13 -36 -19t-24 -6q-10 0 -16 6.5z" />
    <glyph glyph-name="Scedilla" unicode="&#x15e;" horiz-adv-x="619" 
d="M306 540q0 -31 23 -53.5t85 -47.5q64 -26 101.5 -54t54.5 -65t17 -92q0 -53 -30.5 -105.5t-93.5 -89.5t-154 -44l-19 -30q67 -5 67 -54q0 -36 -30.5 -62t-86.5 -26q-38 0 -59 14t-22 32q1 9 7.5 12.5t13.5 0.5q28 -7 43 -7q23 0 37 10.5t14 27.5q0 12 -10 18.5t-29 6.5
q-21 0 -21 12q0 11 23 45q-109 6 -174.5 47t-65.5 110q0 43 20 75t61 32q30 0 51 -17t22 -53q2 -50 26 -74.5t63 -24.5q42 0 71 26t29 66t-23 61.5t-75 44.5q-77 34 -113.5 83t-36.5 116q0 68 31.5 120.5t91 81.5t142.5 29q77 0 138.5 -21t97 -60t35.5 -90q0 -36 -19.5 -57
t-59.5 -21q-27 0 -45 12.5t-20 46.5q-3 47 -32.5 71.5t-68.5 24.5q-77 0 -77 -78z" />
    <glyph glyph-name="scedilla" unicode="&#x15f;" horiz-adv-x="495" 
d="M241 416q-15 -12 -15 -31q0 -17 15.5 -31.5t55.5 -33.5q85 -39 122 -78t37 -92q0 -81 -62 -121.5t-159 -40.5h-14l-18 -29q67 -5 67 -54q0 -36 -30.5 -62t-86.5 -26q-38 0 -59 14t-22 32q1 9 7.5 12.5t13.5 0.5q28 -7 43 -7q23 0 37 10.5t14 27.5q0 12 -10 18.5t-29 6.5
q-21 0 -21 12q0 13 26 50q-83 12 -122 49t-39 80q0 27 17 47.5t41 20.5q31 0 49 -16.5t35 -50.5q12 -31 31.5 -44.5t49.5 -13.5q25 0 40 11.5t15 31.5q0 24 -17 37.5t-69 39.5q-67 35 -96 71.5t-29 81.5q0 79 56.5 123t146.5 44q91 0 155 -34.5t64 -98.5q0 -24 -15.5 -40
t-41.5 -16q-21 0 -35 7t-22.5 17.5t-24.5 34.5q-16 29 -29.5 40.5t-36.5 11.5q-20 0 -35 -12z" />
    <glyph glyph-name="Scaron" unicode="&#x160;" horiz-adv-x="619" 
d="M73.5 29.5q-76.5 41.5 -76.5 116.5q0 43 20 75t61 32q30 0 51 -17t22 -53q2 -50 26 -74.5t63 -24.5q42 0 71 26t29 66t-23 61.5t-75 44.5q-77 34 -113.5 83t-36.5 116q0 68 31.5 120.5t91 81.5t142.5 29q77 0 138.5 -21t97 -60t35.5 -90q0 -36 -19.5 -57t-59.5 -21
q-27 0 -45 12.5t-20 46.5q-3 47 -32.5 71.5t-68.5 24.5q-77 0 -77 -78q0 -31 23 -53.5t85 -47.5q64 -26 101.5 -54t54.5 -65t17 -92q0 -57 -34.5 -112t-105.5 -91.5t-174 -36.5q-123 0 -199.5 41.5zM312 872q70 -43 81 -43t100 43q4 2 20.5 10t26.5 11.5t17 3.5
q8 0 14.5 -8.5t4.5 -16.5q-5 -21 -51 -58.5t-98 -68.5q-35 -20 -56 -20t-46 20q-36 29 -65.5 65.5t-29.5 57.5q0 9 9.5 19t20.5 10q14 0 52 -25z" />
    <glyph glyph-name="scaron" unicode="&#x161;" horiz-adv-x="495" 
d="M94.5 8q-54.5 20 -78.5 50.5t-24 64.5q0 27 17 47.5t41 20.5q31 0 49 -16.5t35 -50.5q12 -31 31.5 -44.5t49.5 -13.5q25 0 40 11.5t15 31.5q0 24 -17 37.5t-69 39.5q-67 35 -96 71.5t-29 81.5q0 79 56.5 123t146.5 44q91 0 155 -34.5t64 -98.5q0 -24 -15.5 -40t-41.5 -16
q-21 0 -35 7t-22.5 17.5t-24.5 34.5q-16 29 -29.5 40.5t-36.5 11.5q-20 0 -35 -12t-15 -31q0 -17 15.5 -31.5t55.5 -33.5q85 -39 122 -78t37 -92q0 -81 -62 -121.5t-159 -40.5q-86 0 -140.5 20zM206 711.5q15 -6.5 30 -18.5q34 -26 54 -38.5t24 -12.5q6 0 32.5 12t71.5 39
q42 25 63 25q9 0 14 -6t5 -14q-1 -25 -49 -66t-102 -74q-28 -16 -54 -16q-29 0 -48 16q-34 27 -63.5 70t-29.5 65q0 10 7.5 17.5t18.5 7.5t26 -6.5z" />
    <glyph glyph-name="uni0162" unicode="&#x162;" horiz-adv-x="699" 
d="M750 529q0 -42 -12.5 -64t-42.5 -22q-21 0 -34.5 17t-23.5 58q-11 43 -16 60t-14.5 27.5t-26.5 10.5h-24q-16 0 -24 -8t-12 -29l-83 -388q-5 -27 -5 -41q0 -21 9.5 -35.5t32.5 -31.5q18 -13 25 -22.5t4 -23.5q-3 -18 -21 -28t-61 -10h-74l-25 -40q67 -5 67 -54
q0 -36 -30.5 -62t-86.5 -26q-38 0 -59 14t-22 32q1 9 7.5 12.5t13.5 0.5q28 -7 43 -7q23 0 37 10.5t14 27.5q0 12 -10 18.5t-29 6.5q-21 0 -21 12q0 15 31 56h-94q-42 0 -59.5 6t-17.5 22q0 6 1 10q3 12 16 23t32 22q41 23 58 45t25 63l83 388l2 16q0 12 -5.5 16.5
t-16.5 4.5h-24q-25 0 -42.5 -19.5t-56.5 -78.5q-27 -41 -46.5 -58t-41.5 -17q-35 0 -35 32q0 23 14 56.5t39 81.5q57 109 96 109q11 0 21 -3.5t13 -4.5q30 -14 66 -14h275q29 0 46.5 3.5t36.5 10.5q22 8 34 8q19 0 30 -24t18 -85q6 -45 6 -84z" />
    <glyph glyph-name="uni0163" unicode="&#x163;" horiz-adv-x="420" 
d="M435 494q13 0 18.5 -2.5t5.5 -11.5q0 -3 -2 -15q-5 -24 -20.5 -37t-35.5 -13h-86q-28 0 -33 -27l-42 -200q-3 -15 -3 -26q0 -24 12 -37t35 -13q17 0 38.5 7t40.5 24q12 9 23 9q18 0 18 -17q0 -7 -2 -11q-22 -55 -64.5 -88.5t-102.5 -42.5l-21 -34q67 -5 67 -54
q0 -36 -30.5 -62t-86.5 -26q-38 0 -59 14t-22 32q1 9 7.5 12.5t13.5 0.5q28 -7 43 -7q23 0 37 10.5t14 27.5q0 12 -10 18.5t-29 6.5q-21 0 -21 12q0 13 24 46q-120 10 -120 114q0 19 7 56l49 230q1 3 1 8q0 17 -19 17h-17q-13 0 -19.5 8t-6.5 20q0 23 28.5 51t81.5 68
q110 81 159 81q23 0 23 -20q0 -9 -3 -23l-11 -54q-6 -28 -6 -39q0 -8 3.5 -10.5t13.5 -2.5h109z" />
    <glyph glyph-name="Tcaron" unicode="&#x164;" horiz-adv-x="699" 
d="M123.5 6q-17.5 6 -17.5 22q0 6 1 10q3 12 16 23t32 22q41 23 58 45t25 63l83 388l2 16q0 12 -5.5 16.5t-16.5 4.5h-24q-25 0 -42.5 -19.5t-56.5 -78.5q-27 -41 -46.5 -58t-41.5 -17q-35 0 -35 32q0 23 14 56.5t39 81.5q57 109 96 109q11 0 21 -3.5t13 -4.5q30 -14 66 -14
h275q29 0 46.5 3.5t36.5 10.5q22 8 34 8q19 0 30 -24t18 -85q6 -45 6 -84q0 -42 -12.5 -64t-42.5 -22q-21 0 -34.5 17t-23.5 58q-11 43 -16 60t-14.5 27.5t-26.5 10.5h-24q-16 0 -24 -8t-12 -29l-83 -388q-5 -27 -5 -41q0 -21 9.5 -35.5t32.5 -31.5q18 -13 25 -22.5t4 -23.5
q-3 -18 -21 -28t-61 -10l-238 1q-42 0 -59.5 6zM395 872q70 -43 81 -43t100 43q4 2 20.5 10t26.5 11.5t17 3.5q8 0 14.5 -8.5t4.5 -16.5q-5 -21 -51 -58.5t-98 -68.5q-35 -20 -56 -20t-46 20q-36 29 -65.5 65.5t-29.5 57.5q0 9 9.5 19t20.5 10q14 0 52 -25z" />
    <glyph glyph-name="tcaron" unicode="&#x165;" horiz-adv-x="420" 
d="M42 105q0 18 7 55l49 230q1 3 1 8q0 17 -19 17h-17q-13 0 -19.5 8t-6.5 20q0 23 28.5 51t81.5 68q110 81 159 81q23 0 23 -20q0 -9 -3 -23l-11 -54q-6 -28 -6 -39q0 -8 3.5 -10.5t13.5 -2.5h109q13 0 18.5 -2.5t5.5 -11.5q0 -3 -2 -15q-5 -24 -20.5 -37t-35.5 -13h-86
q-28 0 -33 -27l-42 -200q-3 -15 -3 -26q0 -24 12 -37t35 -13q17 0 38.5 7t40.5 24q12 9 23 9q18 0 18 -17q0 -7 -2 -11q-26 -66 -81.5 -100.5t-134.5 -34.5q-144 0 -144 116zM418 603q5 123 15 169q6 24 21 35.5t48 11.5q49 0 49 -35q0 -8 -1 -13q-10 -47 -55 -164
q-3 -7 -13 -33q-4 -10 -14.5 -15.5t-22.5 -5.5t-20 5.5t-8 15.5z" />
    <glyph glyph-name="Tbar" unicode="&#x166;" horiz-adv-x="699" 
d="M750 529q0 -42 -12.5 -64t-42.5 -22q-21 0 -34.5 17t-23.5 58q-11 43 -16 60t-14.5 27.5t-26.5 10.5h-24q-16 0 -24 -8t-12 -29l-39 -185v-2q0 -11 13 -11h71q26 0 26 -23q0 -4 -2 -14q-4 -20 -13.5 -29t-26.5 -9h-71q-14 0 -19 -14l-22 -101q-5 -27 -5 -41
q0 -21 9.5 -35.5t32.5 -31.5q18 -13 25 -22.5t4 -23.5q-3 -18 -21 -28t-61 -10l-238 1q-42 0 -59.5 6t-17.5 22q0 6 1 10q3 12 16 23t32 22q41 23 58 45t25 63l19 90l1 4l1 6q0 14 -15 14h-69q-24 0 -24 23l2 16q7 38 38 38h69q17 0 23 19l38 178l2 16q0 12 -5.5 16.5
t-16.5 4.5h-24q-25 0 -42.5 -19.5t-56.5 -78.5q-27 -41 -46.5 -58t-41.5 -17q-35 0 -35 32q0 23 14 56.5t39 81.5q57 109 96 109q11 0 21 -3.5t13 -4.5q30 -14 66 -14h275q29 0 46.5 3.5t36.5 10.5q22 8 34 8q19 0 30 -24t18 -85q6 -45 6 -84z" />
    <glyph glyph-name="tbar" unicode="&#x167;" horiz-adv-x="420" 
d="M435 494q13 0 18.5 -2.5t5.5 -11.5q0 -3 -2 -15q-5 -24 -20.5 -37t-35.5 -13h-86q-28 0 -33 -27l-16 -74h78q17 0 17 -12q0 -8 -10 -28q-12 -28 -22 -36.5t-30 -7.5h-50l-9 -42q-3 -15 -3 -26q0 -24 12 -37t35 -13q17 0 38.5 7t40.5 24q12 9 23 9q18 0 18 -17
q0 -7 -2 -11q-26 -66 -81.5 -100.5t-134.5 -34.5q-144 0 -144 116q0 18 7 55l15 71h-27q-17 0 -24.5 3t-7.5 10q0 9 11 29q13 25 22 33.5t26 8.5h18l16 75q1 3 1 8q0 17 -19 17h-17q-13 0 -19.5 8t-6.5 20q0 23 28.5 51t81.5 68q110 81 159 81q23 0 23 -20q0 -9 -3 -23
l-11 -54q-6 -28 -6 -39q0 -8 3.5 -10.5t13.5 -2.5h109z" />
    <glyph glyph-name="Utilde" unicode="&#x168;" horiz-adv-x="779" 
d="M87 195q0 42 10 88l48 226q6 29 6 48q0 18 -6.5 31.5t-23.5 28.5q-21 18 -21 37q0 22 15 34.5t54 12.5l222 -1q31 0 44.5 -6t13.5 -22q0 -7 -1 -11q-4 -20 -40 -44q-33 -23 -47 -45t-22 -63l-46 -217q-7 -37 -7 -58q0 -60 33.5 -94t96.5 -34q79 0 128 44t66 122l50 232
q7 29 7 51t-7 35t-22 26q-26 24 -21 45q4 21 21.5 30t52.5 9h104q31 0 46 -7t15 -23q0 -14 -12 -28t-30 -26q-28 -19 -43 -41t-25 -71l-48 -223q-32 -147 -115.5 -220t-224.5 -73q-271 0 -271 207zM548 746.5q-20 7.5 -47 21.5q-24 12 -37.5 17t-25.5 5q-10 0 -16.5 -5
t-13.5 -15q-14 -18 -26 -24.5t-24 -6.5q-16 0 -24.5 8.5t-8.5 23.5q0 32 17 56t43.5 37t53.5 13q25 0 46 -8t49 -22q24 -12 35 -16.5t23 -4.5q15 0 29 20q14 18 25 24.5t24 6.5q16 0 25.5 -9t9.5 -25q-1 -31 -18.5 -55t-44.5 -36.5t-54 -12.5q-20 0 -40 7.5z" />
    <glyph glyph-name="utilde" unicode="&#x169;" horiz-adv-x="664" 
d="M79.5 22.5q-31.5 34.5 -31.5 94.5q0 30 7 59l33 153q3 14 3 25q0 23 -17 33q-6 3 -16.5 7.5t-15.5 9t-5 11.5q0 18 13 26.5t46 20.5q118 38 166 38q21 0 30.5 -5.5t9.5 -19.5q0 -3 -2 -15l-54 -257q-3 -13 -3 -26q0 -39 32 -39q35 0 67 37t45 102l10 52q3 14 3 25
q0 23 -17 33q-6 3 -16.5 7.5t-15.5 9t-5 11.5q0 18 13 26.5t46 20.5q118 38 166 38q21 0 30.5 -5.5t9.5 -19.5q0 -3 -2 -15l-62 -297q-1 -5 -1 -12q0 -23 18 -23q8 0 14.5 4t13.5 10t10 8q7 7 18 7q9 0 15 -6.5t6 -18.5q0 -15 -8 -31q-21 -47 -65 -80t-98 -33
q-51 0 -75 31.5t-25 80.5q-2 10 -7 10q-4 0 -10 -8q-32 -47 -79.5 -80.5t-108.5 -33.5q-54 0 -85.5 34.5zM416 574.5q-20 7.5 -47 21.5q-24 12 -37.5 17t-25.5 5q-10 0 -16.5 -5t-13.5 -15q-14 -18 -26 -24.5t-24 -6.5q-16 0 -24.5 8.5t-8.5 23.5q0 32 17 56t43.5 37
t53.5 13q25 0 46 -8t49 -22q24 -12 35 -16.5t23 -4.5q15 0 29 20q14 18 25 24.5t24 6.5q16 0 25.5 -9t9.5 -25q-1 -31 -18.5 -55t-44.5 -36.5t-54 -12.5q-20 0 -40 7.5z" />
    <glyph glyph-name="Umacron" unicode="&#x16a;" horiz-adv-x="779" 
d="M87 195q0 42 10 88l48 226q6 29 6 48q0 18 -6.5 31.5t-23.5 28.5q-21 18 -21 37q0 22 15 34.5t54 12.5l222 -1q31 0 44.5 -6t13.5 -22q0 -7 -1 -11q-4 -20 -40 -44q-33 -23 -47 -45t-22 -63l-46 -217q-7 -37 -7 -58q0 -60 33.5 -94t96.5 -34q79 0 128 44t66 122l50 232
q7 29 7 51t-7 35t-22 26q-26 24 -21 45q4 21 21.5 30t52.5 9h104q31 0 46 -7t15 -23q0 -14 -12 -28t-30 -26q-28 -19 -43 -41t-25 -71l-48 -223q-32 -147 -115.5 -220t-224.5 -73q-271 0 -271 207zM367.5 750q-7.5 3 -7.5 10q0 9 11 29q14 26 22.5 34t25.5 8q93 -1 240 -1
q17 0 17 -12q0 -8 -10 -28q-12 -27 -20.5 -35.5t-27.5 -8.5l-226 1q-17 0 -24.5 3z" />
    <glyph glyph-name="umacron" unicode="&#x16b;" horiz-adv-x="664" 
d="M79.5 22.5q-31.5 34.5 -31.5 94.5q0 30 7 59l33 153q3 14 3 25q0 23 -17 33q-6 3 -16.5 7.5t-15.5 9t-5 11.5q0 18 13 26.5t46 20.5q118 38 166 38q21 0 30.5 -5.5t9.5 -19.5q0 -3 -2 -15l-54 -257q-3 -13 -3 -26q0 -39 32 -39q35 0 67 37t45 102l10 52q3 14 3 25
q0 23 -17 33q-6 3 -16.5 7.5t-15.5 9t-5 11.5q0 18 13 26.5t46 20.5q118 38 166 38q21 0 30.5 -5.5t9.5 -19.5q0 -3 -2 -15l-62 -297q-1 -5 -1 -12q0 -23 18 -23q8 0 14.5 4t13.5 10t10 8q7 7 18 7q9 0 15 -6.5t6 -18.5q0 -15 -8 -31q-21 -47 -65 -80t-98 -33
q-51 0 -75 31.5t-25 80.5q-2 10 -7 10q-4 0 -10 -8q-32 -47 -79.5 -80.5t-108.5 -33.5q-54 0 -85.5 34.5zM239.5 588q-7.5 3 -7.5 10q0 9 11 29q14 26 22.5 34t25.5 8q93 -1 240 -1q17 0 17 -12q0 -8 -10 -28q-12 -27 -20.5 -35.5t-27.5 -8.5l-226 1q-17 0 -24.5 3z" />
    <glyph glyph-name="Ubreve" unicode="&#x16c;" horiz-adv-x="779" 
d="M87 195q0 42 10 88l48 226q6 29 6 48q0 18 -6.5 31.5t-23.5 28.5q-21 18 -21 37q0 22 15 34.5t54 12.5l222 -1q31 0 44.5 -6t13.5 -22q0 -7 -1 -11q-4 -20 -40 -44q-33 -23 -47 -45t-22 -63l-46 -217q-7 -37 -7 -58q0 -60 33.5 -94t96.5 -34q79 0 128 44t66 122l50 232
q7 29 7 51t-7 35t-22 26q-26 24 -21 45q4 21 21.5 30t52.5 9h104q31 0 46 -7t15 -23q0 -14 -12 -28t-30 -26q-28 -19 -43 -41t-25 -71l-48 -223q-32 -147 -115.5 -220t-224.5 -73q-271 0 -271 207zM403 762.5q-40 35.5 -40 89.5q0 14 3 27q5 22 21 22q7 0 16 -12
q41 -73 121 -73q77 0 139 65q10 9 19.5 14.5t15.5 5.5q17 0 12 -20q-10 -42 -40.5 -77.5t-73.5 -56t-90 -20.5q-63 0 -103 35.5z" />
    <glyph glyph-name="ubreve" unicode="&#x16d;" horiz-adv-x="664" 
d="M79.5 22.5q-31.5 34.5 -31.5 94.5q0 30 7 59l33 153q3 14 3 25q0 23 -17 33q-6 3 -16.5 7.5t-15.5 9t-5 11.5q0 18 13 26.5t46 20.5q118 38 166 38q21 0 30.5 -5.5t9.5 -19.5q0 -3 -2 -15l-54 -257q-3 -13 -3 -26q0 -39 32 -39q35 0 67 37t45 102l10 52q3 14 3 25
q0 23 -17 33q-6 3 -16.5 7.5t-15.5 9t-5 11.5q0 18 13 26.5t46 20.5q118 38 166 38q21 0 30.5 -5.5t9.5 -19.5q0 -3 -2 -15l-62 -297q-1 -5 -1 -12q0 -23 18 -23q8 0 14.5 4t13.5 10t10 8q7 7 18 7q9 0 15 -6.5t6 -18.5q0 -15 -8 -31q-21 -47 -65 -80t-98 -33
q-51 0 -75 31.5t-25 80.5q-2 10 -7 10q-4 0 -10 -8q-32 -47 -79.5 -80.5t-108.5 -33.5q-54 0 -85.5 34.5zM270 580.5q-40 35.5 -40 89.5q0 14 3 27q5 22 21 22q7 0 16 -12q41 -73 121 -73q77 0 139 65q10 9 19.5 14.5t15.5 5.5q17 0 12 -20q-10 -42 -40.5 -77.5t-73.5 -56
t-90 -20.5q-63 0 -103 35.5z" />
    <glyph glyph-name="Uring" unicode="&#x16e;" horiz-adv-x="779" 
d="M87 195q0 42 10 88l48 226q6 29 6 48q0 18 -6.5 31.5t-23.5 28.5q-21 18 -21 37q0 22 15 34.5t54 12.5l222 -1q31 0 44.5 -6t13.5 -22q0 -7 -1 -11q-4 -20 -40 -44q-33 -23 -47 -45t-22 -63l-46 -217q-7 -37 -7 -58q0 -60 33.5 -94t96.5 -34q79 0 128 44t66 122l50 232
q7 29 7 51t-7 35t-22 26q-26 24 -21 45q4 21 21.5 30t52.5 9h104q31 0 46 -7t15 -23q0 -14 -12 -28t-30 -26q-28 -19 -43 -41t-25 -71l-48 -223q-32 -147 -115.5 -220t-224.5 -73q-271 0 -271 207zM456.5 747q-26.5 16 -26.5 45q0 4 2 16q9 37 44 56.5t79 19.5
q38 0 65 -16.5t27 -46.5q0 -43 -38.5 -66.5t-86.5 -23.5q-39 0 -65.5 16zM558 786q10 12 10 29q0 12 -5.5 19.5t-16.5 7.5q-17 0 -27 -13t-10 -29q0 -11 6 -18.5t17 -7.5q16 0 26 12z" />
    <glyph glyph-name="uring" unicode="&#x16f;" horiz-adv-x="664" 
d="M79.5 22.5q-31.5 34.5 -31.5 94.5q0 30 7 59l33 153q3 14 3 25q0 23 -17 33q-6 3 -16.5 7.5t-15.5 9t-5 11.5q0 18 13 26.5t46 20.5q118 38 166 38q21 0 30.5 -5.5t9.5 -19.5q0 -3 -2 -15l-54 -257q-3 -13 -3 -26q0 -39 32 -39q35 0 67 37t45 102l10 52q3 14 3 25
q0 23 -17 33q-6 3 -16.5 7.5t-15.5 9t-5 11.5q0 18 13 26.5t46 20.5q118 38 166 38q21 0 30.5 -5.5t9.5 -19.5q0 -3 -2 -15l-62 -297q-1 -5 -1 -12q0 -23 18 -23q8 0 14.5 4t13.5 10t10 8q7 7 18 7q9 0 15 -6.5t6 -18.5q0 -15 -8 -31q-21 -47 -65 -80t-98 -33
q-51 0 -75 31.5t-25 80.5q-2 10 -7 10q-4 0 -10 -8q-32 -47 -79.5 -80.5t-108.5 -33.5q-54 0 -85.5 34.5zM309 571q-26 18 -26 52q0 6 2 18q9 42 44 64.5t79 22.5q38 0 65 -19t27 -53q0 -49 -38.5 -76t-86.5 -27q-40 0 -66 18zM411 616q10 14 10 34q0 13 -5.5 21.5
t-16.5 8.5q-17 0 -27 -15t-10 -33q0 -13 6 -21.5t17 -8.5q16 0 26 14z" />
    <glyph glyph-name="Uhungarumlaut" unicode="&#x170;" horiz-adv-x="779" 
d="M87 195q0 42 10 88l48 226q6 29 6 48q0 18 -6.5 31.5t-23.5 28.5q-21 18 -21 37q0 22 15 34.5t54 12.5l222 -1q31 0 44.5 -6t13.5 -22q0 -7 -1 -11q-4 -20 -40 -44q-33 -23 -47 -45t-22 -63l-46 -217q-7 -37 -7 -58q0 -60 33.5 -94t96.5 -34q79 0 128 44t66 122l50 232
q7 29 7 51t-7 35t-22 26q-26 24 -21 45q4 21 21.5 30t52.5 9h104q31 0 46 -7t15 -23q0 -14 -12 -28t-30 -26q-28 -19 -43 -41t-25 -71l-48 -223q-32 -147 -115.5 -220t-224.5 -73q-271 0 -271 207zM330 739q0 4 3 11q11 19 37 55q13 15 25 34q14 21 36 27t60 6
q30 0 42.5 -5.5t12.5 -16.5q0 -3 -2 -11q-7 -20 -46 -46t-84.5 -46t-64.5 -20t-19 12zM527 739q0 4 3 11q13 23 37 54l25 35q14 21 36.5 27t59.5 6q30 0 43 -5.5t13 -16.5q0 -3 -2 -11q-7 -20 -46.5 -46t-85 -46t-64.5 -20t-19 12z" />
    <glyph glyph-name="uhungarumlaut" unicode="&#x171;" horiz-adv-x="664" 
d="M79.5 22.5q-31.5 34.5 -31.5 94.5q0 30 7 59l33 153q3 14 3 25q0 23 -17 33q-6 3 -16.5 7.5t-15.5 9t-5 11.5q0 18 13 26.5t46 20.5q118 38 166 38q21 0 30.5 -5.5t9.5 -19.5q0 -3 -2 -15l-54 -257q-3 -13 -3 -26q0 -39 32 -39q35 0 67 37t45 102l10 52q3 14 3 25
q0 23 -17 33q-6 3 -16.5 7.5t-15.5 9t-5 11.5q0 18 13 26.5t46 20.5q118 38 166 38q21 0 30.5 -5.5t9.5 -19.5q0 -3 -2 -15l-62 -297q-1 -5 -1 -12q0 -23 18 -23q8 0 14.5 4t13.5 10t10 8q7 7 18 7q9 0 15 -6.5t6 -18.5q0 -15 -8 -31q-21 -47 -65 -80t-98 -33
q-51 0 -75 31.5t-25 80.5q-2 10 -7 10q-4 0 -10 -8q-32 -47 -79.5 -80.5t-108.5 -33.5q-54 0 -85.5 34.5zM245 562q0 5 4 12q37 58 62 105q13 24 27.5 29t57.5 5q59 0 59 -21t-38.5 -55t-86 -60.5t-68.5 -26.5q-17 0 -17 12zM443 562q0 5 3 12q25 38 42.5 68.5t20.5 36.5
q13 24 27.5 29t56.5 5q59 0 59 -21t-38.5 -54.5t-86 -60.5t-68.5 -27q-16 0 -16 12z" />
    <glyph glyph-name="Uogonek" unicode="&#x172;" horiz-adv-x="779" 
d="M841 693q15 -7 15 -23q0 -14 -12 -28t-30 -26q-28 -19 -43 -41t-25 -71l-48 -223q-39 -185 -161 -253h3q-36 -23 -56.5 -45t-20.5 -46t26 -24q24 0 53 17q5 3 9 3q7 0 11 -5t1 -15q-7 -26 -41.5 -47t-83.5 -21q-35 0 -54.5 16t-19.5 44q0 46 40 85q-30 -2 -46 -2
q-271 0 -271 207q0 42 10 88l48 226q6 29 6 48q0 18 -6.5 31.5t-23.5 28.5q-21 18 -21 37q0 22 15 34.5t54 12.5l222 -1q31 0 44.5 -6t13.5 -22q0 -7 -1 -11q-4 -20 -40 -44q-33 -23 -47 -45t-22 -63l-46 -217q-7 -37 -7 -58q0 -60 33.5 -94t96.5 -34q79 0 128 44t66 122
l50 232q7 29 7 51t-7 35t-22 26q-26 24 -21 45q4 21 21.5 30t52.5 9h104q31 0 46 -7z" />
    <glyph glyph-name="uogonek" unicode="&#x173;" horiz-adv-x="664" 
d="M620 157q9 0 15 -6.5t6 -18.5q0 -15 -8 -31q-15 -34 -43 -61.5t-63 -40.5q-32 -22 -51 -43t-19 -44q0 -24 26 -24q24 0 53 17q5 3 9 3q7 0 11 -5t1 -15q-7 -26 -41.5 -47t-83.5 -21q-35 0 -54.5 16t-19.5 44q0 63 75 113q-32 11 -47 40t-16 67q-2 10 -7 10q-4 0 -10 -8
q-32 -47 -79.5 -80.5t-108.5 -33.5q-54 0 -85.5 34.5t-31.5 94.5q0 30 7 59l33 153q3 14 3 25q0 23 -17 33q-6 3 -16.5 7.5t-15.5 9t-5 11.5q0 18 13 26.5t46 20.5q118 38 166 38q21 0 30.5 -5.5t9.5 -19.5q0 -3 -2 -15l-54 -257q-3 -13 -3 -26q0 -39 32 -39q35 0 67 37
t45 102l10 52q3 14 3 25q0 23 -17 33q-6 3 -16.5 7.5t-15.5 9t-5 11.5q0 18 13 26.5t46 20.5q118 38 166 38q21 0 30.5 -5.5t9.5 -19.5q0 -3 -2 -15l-62 -297q-1 -5 -1 -12q0 -23 18 -23q8 0 14.5 4t13.5 10t10 8q7 7 18 7z" />
    <glyph glyph-name="Wcircumflex" unicode="&#x174;" horiz-adv-x="1124" 
d="M313 -5q-70 0 -82 74l-66 463q-5 37 -16.5 53t-36.5 26q-21 11 -21 31q0 8 1 12q4 20 18.5 30t41 13t75.5 3h149q49 0 67 -7.5t18 -24.5q0 -8 -1 -12q-2 -11 -11 -20.5t-20 -14.5q-25 -7 -34.5 -20t-9.5 -37q0 -14 1 -22l21 -293q1 -10 4 -16t8 -6q11 0 21 21l116 212
q22 38 22 69q0 7 -2 25q-2 19 -10 34.5t-23 22.5q-2 3 -8 9.5t-8.5 12.5t-2.5 14q0 53 81 53l90 -1l84 1q37 0 53.5 -8t16.5 -25t-9 -28t-28 -23q-32 -12 -41.5 -24.5t-6.5 -44.5l24 -300q3 -18 12 -18q10 0 20 18l170 309q10 17 10 28q0 10 -9.5 16.5t-34.5 16.5
q-19 11 -19 30q0 6 1 9q5 24 24.5 34t62.5 10h126q56 0 56 -33q0 -6 -1 -9q-3 -17 -14 -26.5t-30 -16.5q-34 -10 -52.5 -25.5t-36.5 -47.5l-262 -473q-20 -36 -47.5 -55t-59.5 -19h-4q-34 0 -57 18.5t-26 52.5l-20 262q-1 19 -9 19q-6 0 -18 -19q-62 -111 -73 -130l-73 -131
q-20 -35 -48.5 -53.5t-57.5 -18.5h-5zM544 736.5q-6 8.5 -4 16.5q3 20 50 58t99 69q33 20 55 20q12 0 22.5 -5t24.5 -15q38 -31 68 -68.5t26 -58.5q-2 -8 -11 -16.5t-18 -8.5q-8 0 -20 6t-20.5 11.5t-12.5 7.5q-70 43 -82 43q-10 0 -99 -43q-48 -25 -63 -25q-9 0 -15 8.5z
" />
    <glyph glyph-name="wcircumflex" unicode="&#x175;" horiz-adv-x="827" 
d="M76 22.5q-40 34.5 -40 97.5q0 24 6 52l36 157q3 14 3 25q0 23 -17 33q-6 3 -16.5 7.5t-15.5 9t-5 11.5q0 18 13 26.5t46 20.5q118 38 166 38q21 0 30.5 -5.5t9.5 -19.5q0 -3 -2 -15l-70 -325q-3 -13 -3 -23q0 -28 22 -28q75 0 119 205l30 139q7 35 25 51t67 16
q53 0 73 -15.5t20 -38.5q0 -7 -2 -15l-62 -291q-3 -12 -3 -22q0 -14 5.5 -21.5t14.5 -7.5q28 0 59.5 40t53.5 94.5t22 92.5q0 42 -24 72q-17 23 -17 49q0 35 22 53t55 18q20 0 38.5 -7t31.5 -20q27 -27 39 -63t12 -72q0 -75 -46.5 -158t-122 -138.5t-156.5 -55.5
q-51 0 -82.5 24t-31.5 65q0 4 -4 4q-5 0 -8 -4q-71 -90 -180 -90q-71 0 -111 34.5zM328 550.5q-6 6.5 -6 14.5q0 23 48.5 65t101.5 74q28 16 55 16q26 0 47 -16q34 -27 64 -70t30 -65q0 -9 -8.5 -17t-19.5 -8q-23 0 -54 25q-35 27 -55 39t-26 12q-5 0 -31 -12.5t-70 -38.5
q-20 -13 -36 -19t-24 -6q-10 0 -16 6.5z" />
    <glyph glyph-name="Ycircumflex" unicode="&#x176;" horiz-adv-x="702" 
d="M150.5 5.5q-13.5 5.5 -13.5 20.5l2 12q4 20 39 45q33 23 47 45t22 63l6 29q3 15 3 31q0 39 -13 78l-74 222q-7 20 -19 31t-23 17.5t-15 9.5q-12 8 -17 14.5t-5 18.5q0 3 2 15q6 26 26.5 34.5t64.5 8.5h202q50 0 66 -10.5t13 -27.5q-3 -16 -12.5 -26t-25.5 -19
q-35 -19 -35 -44q0 -8 3 -17l40 -117q6 -15 15 -15q10 0 20 15l95 130q12 17 12 27q0 9 -6 16t-18 16q-13 10 -13 22q0 3 2 11q5 23 21.5 31t50.5 8h124q50 0 50 -26q0 -22 -15.5 -34t-42.5 -25q-15 -8 -26 -19.5t-40 -48.5l-163 -207q-36 -45 -52 -120l-6 -29
q-6 -27 -6 -44q0 -19 6.5 -33.5t22.5 -30.5q12 -12 18 -21.5t3 -23.5q-4 -19 -18.5 -29t-47.5 -10l-225 1q-31 0 -44.5 5.5zM321 736.5q-6 8.5 -4 16.5q3 20 50 58t99 69q33 20 55 20q12 0 22.5 -5t24.5 -15q38 -31 68 -68.5t26 -58.5q-2 -8 -11 -16.5t-18 -8.5q-8 0 -20 6
t-20.5 11.5t-12.5 7.5q-70 43 -82 43q-10 0 -99 -43q-48 -25 -63 -25q-9 0 -15 8.5z" />
    <glyph glyph-name="ycircumflex" unicode="&#x177;" horiz-adv-x="597" 
d="M60 -166q-41 17 -62 44q-22 23 -22 56q0 28 17.5 48.5t44.5 20.5q25 0 38 -12.5t26 -40.5q15 -32 32 -45.5t47 -13.5q46 0 92.5 57.5t74.5 134.5q-67 -63 -144 -63q-151 0 -151 132q0 29 8 67l26 110q3 14 3 25q0 23 -17 33q-6 3 -16.5 7.5t-15.5 9t-5 11.5q0 18 13 26.5
t46 20.5q118 38 166 38q21 0 30.5 -5.5t9.5 -19.5q0 -3 -2 -15l-58 -272q-7 -28 -7 -48q0 -18 7 -26t22 -8q42 0 68 25t38 55.5t26 78.5q7 25 7 46q0 45 -30 72q-11 9 -16.5 24.5t-3.5 32.5q2 31 24.5 49t54.5 18q44 0 80 -33q31 -29 48.5 -77.5t15.5 -103.5
q-4 -91 -38 -186t-92 -163q-52 -61 -123 -94t-159 -33q-62 0 -103 17zM222 550.5q-6 6.5 -6 14.5q0 23 48.5 65t101.5 74q28 16 55 16q26 0 47 -16q34 -27 64 -70t30 -65q0 -9 -8.5 -17t-19.5 -8q-23 0 -54 25q-35 27 -55 39t-26 12q-5 0 -31 -12.5t-70 -38.5
q-20 -13 -36 -19t-24 -6q-10 0 -16 6.5z" />
    </font>
</defs>
</svg>
