<?xml version="1.0" standalone="no"?>
<!DOCTYPE svg PUBLIC "-//W3C//DTD SVG 1.1//EN" "http://www.w3.org/Graphics/SVG/1.1/DTD/svg11.dtd" >
<svg xmlns="http://www.w3.org/2000/svg" xmlns:xlink="http://www.w3.org/1999/xlink" version="1.1">
<metadata>
Created by FontForge 20170731 at Fri Sep 25 13:07:32 2020
 By Aleksey,,,
Copyright (c) 2020 by Francesco Canovaro, Andrea Tartarelli. All rights reserved.
</metadata>
<defs>
<font id="BogartTrial-Regular" horiz-adv-x="0" >
  <font-face 
    font-family="Bogart Trial"
    font-weight="400"
    font-stretch="normal"
    units-per-em="1000"
    panose-1="0 0 5 0 0 0 0 0 0 0"
    ascent="800"
    descent="-200"
    x-height="475"
    cap-height="701"
    bbox="-689 -371 1620 1056"
    underline-thickness="53"
    underline-position="-252"
    unicode-range="U+0020-FB06"
  />
<missing-glyph horiz-adv-x="486" 
 />
    <glyph glyph-name="f_f" unicode="ff" horiz-adv-x="627" 
d="M644 687q44 -32 44 -83q0 -15 -9.5 -26t-26.5 -11q-33 0 -41 39q-2 32 -21.5 50.5t-55.5 18.5q-39 0 -63 -23.5t-24 -60.5q0 -24 6.5 -45t18.5 -47l11 -27h116q17 0 17 -15q0 -12 -6 -20.5t-15 -8.5h-79q-14 0 -20 -5t-6 -18v-290q0 -31 2.5 -44t14.5 -21t40 -12
q18 -5 18 -20q0 -12 -11.5 -17t-46.5 -5h-119q-35 0 -48 5.5t-13 16.5q0 15 17 20q28 4 40 12t14.5 21t2.5 44v291q0 22 -23 22h-152q-14 0 -20.5 -5.5t-6.5 -17.5v-290q0 -29 2.5 -41t13.5 -19t38 -14q18 -10 18 -23q0 -11 -11 -16.5t-43 -5.5h-119q-35 0 -48 5.5t-13 16.5
q0 13 17 20q28 4 40 12t14.5 21t2.5 44v291q0 22 -23 22h-51q-6 0 -10 5t-4 12q0 12 6 19.5t13 7.5h66q-1 5 -9 30q-18 52 -18 89q0 56 37.5 92t100.5 36q54 0 96.5 -28.5t42.5 -72.5q0 -14 -8 -24t-23 -10q-25 0 -34 36q-4 28 -23.5 41.5t-46.5 13.5q-32 0 -51.5 -22
t-19.5 -56q0 -27 9 -53t19 -45.5t13 -26.5h206q-1 7 -3 13t-3 10q-8 27 -12 48.5t-4 47.5q0 56 42.5 92t114.5 36q66 0 110 -32z" />
    <glyph glyph-name="f_f_i" unicode="ffi" horiz-adv-x="886" 
d="M869 18q0 -11 -11.5 -16.5t-46.5 -5.5l-60 1l-59 -1q-34 0 -45.5 5t-11.5 17q0 13 17 20q26 5 37 13t13.5 21t2.5 43v259q0 26 -11 40t-38 14h-140q-14 0 -20 -5t-6 -18v-290q0 -31 2.5 -43.5t14.5 -20.5t40 -13q18 -5 18 -20q0 -12 -11.5 -17t-46.5 -5h-119
q-35 0 -48 5.5t-13 16.5q0 15 17 20q28 4 40 12t14.5 21t2.5 44v291q0 22 -23 22h-152q-14 0 -20.5 -5.5t-6.5 -17.5v-290q0 -29 2.5 -41t13.5 -19t38 -14q18 -10 18 -23q0 -11 -11 -16.5t-43 -5.5h-119q-35 0 -48 5.5t-13 16.5q0 13 17 20q28 4 40 12t14.5 21t2.5 44v291
q0 22 -23 22h-51q-6 0 -10 5t-4 12q0 12 6 19.5t13 7.5h66q-1 5 -9 30q-18 52 -18 89q0 56 37.5 92t100.5 36q54 0 96.5 -28.5t42.5 -72.5q0 -14 -8 -24t-23 -10q-25 0 -34 36q-4 28 -23.5 41.5t-46.5 13.5q-32 0 -51.5 -22t-19.5 -56q0 -27 9 -53t19 -45.5t13 -26.5h206
q-1 7 -3 13t-3 10q-8 27 -12 48.5t-4 47.5q0 56 42 92t114 36q40 0 75.5 -14t57.5 -39.5t22 -58.5q0 -15 -8 -24.5t-24 -9.5q-30 0 -39 36q-4 33 -26.5 49.5t-57.5 16.5q-40 0 -63 -23.5t-23 -60.5q0 -24 6.5 -45t18.5 -47l11 -27h197q29 1 54 6q7 1 15 2t17 1q14 0 20.5 -6
t6.5 -21v-339q0 -30 3 -43t15 -21t40 -13q18 -5 18 -20z" />
    <glyph glyph-name="f_f_l" unicode="ffl" horiz-adv-x="908" 
d="M606 689q37 -30 37 -80q0 -14 -7.5 -23.5t-24.5 -9.5q-15 0 -23 8.5t-13 26.5q-4 34 -19 49t-44 15q-36 0 -54 -21.5t-18 -57.5q0 -25 8 -47t22 -48q13 -28 13 -29h116q17 0 17 -15q0 -12 -6 -20.5t-15 -8.5h-79q-14 0 -20 -5t-6 -18v-290q0 -31 2.5 -43.5t14.5 -20.5
t40 -13q18 -7 18 -20q0 -12 -11.5 -17t-46.5 -5h-119q-35 0 -48 5.5t-13 16.5q0 13 17 20q28 4 40 12t14.5 21t2.5 44v291q0 22 -23 22h-152q-14 0 -20.5 -5.5t-6.5 -17.5v-290q0 -29 2.5 -41t13.5 -19t38 -14q18 -10 18 -23q0 -11 -11 -16.5t-43 -5.5h-119q-35 0 -48 5.5
t-13 16.5q0 13 17 20q28 4 40 12t14.5 21t2.5 44v291q0 22 -23 22h-51q-6 0 -10 5t-4 12q0 12 6 19.5t13 7.5h66q-1 5 -9 30q-18 52 -18 89q0 56 37.5 92t100.5 36q54 0 96.5 -28.5t42.5 -72.5q0 -14 -8 -24t-23 -10q-25 0 -34 36q-4 28 -23.5 41.5t-46.5 13.5
q-32 0 -51.5 -22t-19.5 -56q0 -27 9 -53t19 -45.5t13 -26.5h206q-3 12 -9 26q-10 27 -15.5 47.5t-5.5 45.5q0 56 37.5 92t102.5 36q60 0 97 -30zM892 18q0 -12 -12 -17t-47 -5l-59 1l-60 -1q-35 0 -48 5.5t-13 16.5q0 15 17 20q28 4 40 12t14.5 21t2.5 44v487q0 22 -3.5 30
t-19.5 8q-21 -1 -30.5 1.5t-9.5 12.5q0 15 30 26l34 11q4 1 25.5 8t34.5 7q15 0 21.5 -6t6.5 -21v-564q0 -31 2.5 -43.5t14.5 -20.5t40 -13q19 -6 19 -20z" />
    <glyph glyph-name="f_i" unicode="fi" horiz-adv-x="596" 
d="M579 18q0 -11 -11.5 -16.5t-46.5 -5.5l-60 1l-59 -1q-34 0 -45.5 5t-11.5 17q0 13 17 20q26 5 37 13t13.5 21t2.5 43v259q0 26 -11 40t-38 14h-140q-14 0 -20.5 -5.5t-6.5 -17.5v-290q0 -30 3 -43t15 -21t40 -13q18 -5 18 -20q0 -11 -11.5 -16.5t-46.5 -5.5h-119
q-35 0 -48 5.5t-13 16.5q0 15 17 20q28 4 40 12t14.5 21t2.5 44v291q0 22 -23 22h-51q-6 0 -10 5t-4 12q0 12 6 19.5t13 7.5h66q-1 6 -3 13t-3 14q-15 49 -15 92q0 56 42 92t114 36q40 0 75.5 -14t57.5 -39.5t22 -58.5q0 -15 -8 -24.5t-24 -9.5q-30 0 -39 36
q-4 33 -26.5 49.5t-57.5 16.5q-40 0 -63 -23.5t-23 -60.5q0 -24 6.5 -45t18.5 -47l11 -27h196q32 1 55 6q7 1 15 2t17 1q14 0 20.5 -6t6.5 -21v-339q0 -30 3 -43t15 -21t40 -13q18 -5 18 -20z" />
    <glyph glyph-name="f_l" unicode="fl" horiz-adv-x="618" 
d="M98 -4q-35 0 -48 5.5t-13 16.5q0 13 17 20q28 4 40 12t14.5 21t2.5 44v291q0 22 -23 22h-51q-6 0 -10 5t-4 12q0 12 6 19.5t13 7.5h66q-3 10 -9 28q-9 25 -14.5 45.5t-5.5 45.5q0 56 37.5 92t102.5 36q60 0 97 -30t37 -80q0 -14 -7.5 -23.5t-24.5 -9.5q-15 0 -23 8.5
t-13 26.5q-4 33 -19 48.5t-44 15.5q-36 0 -54 -21.5t-18 -57.5q0 -25 8 -47t22 -48q13 -28 13 -29h116q17 0 17 -15q0 -12 -6 -20.5t-15 -8.5h-79q-14 0 -20.5 -5.5t-6.5 -17.5v-290q0 -30 3 -43t15 -21t40 -13q18 -7 18 -20q0 -11 -11.5 -16.5t-46.5 -5.5h-119zM376 1.5
q-13 5.5 -13 16.5q0 15 17 20q28 4 40 12t14.5 21t2.5 44v487q0 22 -3.5 30t-19.5 8q-21 -1 -30.5 1.5t-9.5 12.5q0 15 30 26l34 11q4 1 25.5 8t34.5 7q15 0 21.5 -6t6.5 -21v-564q0 -31 2.5 -43.5t14.5 -20.5t40 -13q19 -6 19 -20q0 -12 -12 -17t-47 -5l-59 1l-60 -1
q-35 0 -48 5.5z" />
    <glyph glyph-name=".notdef" horiz-adv-x="486" 
 />
    <glyph glyph-name=".null" 
 />
    <glyph glyph-name="nonmarkingreturn" horiz-adv-x="333" 
 />
    <glyph glyph-name="space" unicode=" " horiz-adv-x="290" 
 />
    <glyph glyph-name="exclam" unicode="!" horiz-adv-x="237" 
d="M95 199q-4 69 -14 176q-14 168 -18 252q-2 39 11.5 62.5t44.5 23.5q30 0 44 -23.5t13 -62.5q-4 -72 -18 -230q-7 -78 -16 -198q-7 -22 -23 -22q-17 0 -24 22zM72 7q-18 18 -18 44q0 28 17.5 46.5t45.5 18.5q29 0 48 -18.5t19 -46.5q0 -27 -19 -44.5t-48 -17.5
q-27 0 -45 18z" />
    <glyph glyph-name="quotedbl" unicode="&#x22;" horiz-adv-x="269" 
d="M39 548q-8 100 -8 126q0 17 7 24.5t24 7.5t24.5 -7.5t7.5 -23.5q0 -27 -8 -127l-5 -75q-1 -6 -6 -9t-12 -3q-16 0 -19 12zM183 548q-8 100 -8 126q0 17 7 24.5t24 7.5t24.5 -7.5t7.5 -23.5q0 -27 -8 -127l-5 -75q-1 -6 -6 -9t-12 -3q-16 0 -19 12z" />
    <glyph glyph-name="numbersign" unicode="#" horiz-adv-x="672" 
d="M112 7q0 3 2 11l49 191v3q0 10 -10 10h-93q-15 0 -21.5 4t-6.5 13q0 39 35 39h98q15 0 18 15l33 121q1 2 1 5q0 11 -12 11h-97q-15 0 -21.5 4t-6.5 13q0 39 36 39h100q10 0 14 3.5t7 11.5l47 184q4 14 12 19t24 5q13 0 18 -4t5 -12q0 -3 -2 -15l-46 -178v-4q0 -10 11 -10
h136q8 0 11 3.5t5 11.5l48 184q4 13 11.5 18.5t23.5 5.5q14 0 19 -4t5 -13q0 -4 -2 -14l-46 -175q-1 -2 -1 -6q0 -5 2 -8t5 -3h90q27 0 27 -18t-9 -28t-25 -10h-95q-8 0 -11 -3.5t-5 -11.5l-32 -121v-4q0 -5 3.5 -8.5t9.5 -3.5h89q27 0 27 -18q0 -17 -8.5 -27.5t-24.5 -10.5
h-93q-11 0 -17 -4t-8 -13l-49 -190q-3 -14 -11.5 -19.5t-24.5 -5.5q-23 0 -23 18q0 2 2 10l49 187l1 5q0 6 -3.5 9t-8.5 3h-132q-18 0 -21 -14l-50 -193q-3 -13 -11 -19t-24 -6q-23 0 -23 17zM385 278q17 0 20 17l33 119q1 2 1 5q0 5 -3 8t-6 3h-137q-9 0 -13.5 -3.5
t-6.5 -11.5l-31 -121q-1 -2 -1 -5q0 -5 3 -8t7 -3h134z" />
    <glyph glyph-name="dollar" unicode="$" horiz-adv-x="572" 
d="M272 -10q-65 2 -121 26.5t-90 69.5t-34 104q0 22 10.5 34.5t29.5 12.5q17 0 30.5 -11t16.5 -35q0 -67 42.5 -108.5t117.5 -41.5q70 0 112.5 36.5t42.5 97.5q0 58 -42.5 95t-132.5 63q-113 34 -158.5 81.5t-45.5 124.5q0 48 26 86t76 61t120 24v94q0 11 18 11t18 -11v-95
q57 -7 105 -32.5t76.5 -68t28.5 -97.5q0 -20 -10 -31.5t-28 -11.5q-16 0 -28.5 9.5t-15.5 32.5q-2 68 -42.5 109t-110.5 41q-58 0 -97 -30t-39 -79q0 -51 37.5 -84.5t124.5 -57.5q123 -33 176.5 -86t53.5 -130q0 -87 -62.5 -142t-168.5 -61v-113q0 -6 -5.5 -9t-12.5 -3
t-12.5 3t-5.5 9v113z" />
    <glyph glyph-name="percent" unicode="%" horiz-adv-x="892" 
 />
    <glyph glyph-name="ampersand" unicode="&#x26;" horiz-adv-x="634" 
d="M150.5 19q-61.5 30 -94 81.5t-32.5 115.5q0 47 23.5 90t64.5 74t91 42q10 3 10 7q0 3 -7 6q-38 12 -66 44t-28 73q0 45 24 80.5t68 55.5t100 20q75 0 122.5 -31t58.5 -78q1 -3 1 -9q0 -14 -8 -25t-22 -11t-23 8t-19 32q-13 31 -38 48t-69 17q-48 0 -82 -28t-34 -75
q0 -30 16.5 -53.5t41 -36.5t46.5 -14q16 0 22 -3t6 -11q0 -13 -5 -19t-22 -11q-81 -18 -125.5 -68.5t-44.5 -122.5q0 -50 22.5 -90.5t64 -63.5t96.5 -23q98 0 147.5 62.5t49.5 164.5q0 39 -10 51.5t-42 12.5q-61 0 -57 -53q-2 -17 -20 -17q-6 0 -9.5 3.5t-4.5 13.5
q-2 12 -2 21q0 41 23.5 70.5t76.5 29.5q27 0 60 -5q38 -4 58 -4q58 0 56 50q3 21 20 21q9 0 13 -12t4 -28q-2 -80 -82 -85q-29 -3 -26 -11q5 -8 9.5 -25.5t4.5 -40.5q0 -78 -33 -139.5t-96.5 -96t-150.5 -34.5q-86 0 -147.5 30z" />
    <glyph glyph-name="quotesingle" unicode="'" horiz-adv-x="204" 
d="M87 548q-8 100 -8 126q0 17 7 24.5t24 7.5t24.5 -7.5t7.5 -23.5q0 -27 -8 -127l-5 -75q-1 -6 -6 -9t-12 -3q-16 0 -19 12z" />
    <glyph glyph-name="parenleft" unicode="(" horiz-adv-x="333" 
d="M312 -157q-4 0 -16 4q-121 68 -192.5 188t-71.5 263q0 144 71.5 263.5t192.5 187.5q12 4 16 4q16 0 16 -16q0 -5 -4 -10t-8.5 -9t-7.5 -7q-86 -64 -136.5 -175t-50.5 -238t50.5 -238t136.5 -176q13 -10 16.5 -14.5t3.5 -10.5q0 -16 -16 -16z" />
    <glyph glyph-name="parenright" unicode=")" horiz-adv-x="333" 
d="M9 -130.5q4 4.5 9 8.5t7 6q86 65 136.5 176t50.5 238t-50.5 238t-136.5 175q-3 3 -9.5 8.5t-8.5 9.5t-2 8q0 16 16 16q4 0 16 -4q121 -68 192.5 -187.5t71.5 -263.5q0 -143 -71.5 -263t-192.5 -188q-12 -4 -16 -4q-16 0 -16 16q0 6 4 10.5z" />
    <glyph glyph-name="asterisk" unicode="*" horiz-adv-x="361" 
d="M66 448q0 8 7 15q32 34 68 65q8 8 9 11.5t-7 4.5q-48 11 -95 33q-16 4 -16 18q0 7 3 14q5 18 19 18q2 0 10 -2q36 -16 82 -43q8 -5 13 -5q3 0 4 2.5t-1 6.5q-6 46 -6 100q0 24 25 24t25 -24q0 -47 -7 -100v-4q0 -6 4 -6q3 0 12 6q28 18 82 43q8 2 10 2q14 0 20 -18
q2 -5 2 -13q0 -15 -16 -19q-46 -21 -90 -31q-10 -1 -10 -7q0 -5 5 -9q37 -33 70 -67q7 -7 7 -15q0 -10 -12 -18q-10 -8 -18 -8t-17 10q-18 21 -45 57l-14 19q-4 7 -8 7q-5 0 -9 -7q-32 -46 -59 -76q-9 -10 -17 -10q-7 0 -18 8q-12 8 -12 18z" />
    <glyph glyph-name="plus" unicode="+" horiz-adv-x="431" 
d="M197 76.5q-9 8.5 -9 29.5v107q0 11 -13 11h-110q-16 0 -24.5 5.5t-8.5 19.5q0 16 9 23.5t29 7.5h104q14 0 14 13v111q0 16 9.5 23.5t21.5 7.5q14 0 19.5 -8t5.5 -23v-111q0 -13 10 -13h114q16 0 23.5 -9.5t7.5 -21.5q0 -25 -31 -25h-115q-9 0 -9 -10v-113
q0 -16 -5.5 -24.5t-19.5 -8.5q-13 0 -22 8.5z" />
    <glyph glyph-name="comma" unicode="," horiz-adv-x="201" 
d="M40.5 -100q-4.5 5 -4.5 11q0 10 10 14q54 24 54 56q0 13 -20 16q-20 2 -34 17t-14 41q0 27 19 45t48 18q34 0 52 -22.5t18 -62.5q0 -44 -20 -75.5t-48 -47t-49 -15.5q-7 0 -11.5 5z" />
    <glyph glyph-name="hyphen" unicode="-" horiz-adv-x="329" 
d="M58 218q-13 0 -19.5 4t-6.5 14q0 16 8 27t24 11h209q24 0 24 -18q0 -16 -8 -27t-23 -11h-208z" />
    <glyph glyph-name="period" unicode="." horiz-adv-x="235" 
d="M68.5 4.5q-16.5 15.5 -16.5 40.5q0 31 20 52t50 21q27 0 44 -17t17 -43q0 -29 -21 -49t-51 -20q-26 0 -42.5 15.5z" />
    <glyph glyph-name="slash" unicode="/" horiz-adv-x="532" 
d="M115 -140q-11 -22 -20 -30.5t-32 -8.5q-31 0 -31 17q0 9 8 25l378 815q11 24 20 32t32 8q16 0 23 -4.5t7 -13.5q0 -6 -7 -24z" />
    <glyph glyph-name="zero" unicode="0" horiz-adv-x="640" 
d="M465.5 28.5q66.5 39.5 105 106.5t38.5 146q0 80 -40 146t-106 104.5t-142 38.5q-81 0 -147.5 -40t-104 -107t-37.5 -144q0 -76 38.5 -143t104.5 -107t145 -40t145.5 39.5zM145 475q36 31 81.5 48.5t94.5 17.5q48 0 92.5 -18t78.5 -48h-347zM514 454q66 -80 66 -175
q0 -46 -15.5 -88.5t-43.5 -77.5h-346zM125 104q-31 36 -48 81t-17 94q2 97 58 167h346zM146 84h349q-37 -30 -81.5 -47.5t-92.5 -17.5q-95 0 -175 65z" />
    <glyph glyph-name="one" unicode="1" horiz-adv-x="640" 
d="M465.5 28.5q66.5 39.5 105 106.5t38.5 146q0 80 -40 146t-106 104.5t-142 38.5q-81 0 -147.5 -40t-104 -107t-37.5 -144q0 -76 38.5 -143t104.5 -107t145 -40t145.5 39.5zM145 475q36 31 81.5 48.5t94.5 17.5q48 0 92.5 -18t78.5 -48h-347zM514 454q66 -80 66 -175
q0 -46 -15.5 -88.5t-43.5 -77.5h-346zM125 104q-31 36 -48 81t-17 94q2 97 58 167h346zM146 84h349q-37 -30 -81.5 -47.5t-92.5 -17.5q-95 0 -175 65z" />
    <glyph glyph-name="two" unicode="2" horiz-adv-x="640" 
d="M465.5 28.5q66.5 39.5 105 106.5t38.5 146q0 80 -40 146t-106 104.5t-142 38.5q-81 0 -147.5 -40t-104 -107t-37.5 -144q0 -76 38.5 -143t104.5 -107t145 -40t145.5 39.5zM145 475q36 31 81.5 48.5t94.5 17.5q48 0 92.5 -18t78.5 -48h-347zM514 454q66 -80 66 -175
q0 -46 -15.5 -88.5t-43.5 -77.5h-346zM125 104q-31 36 -48 81t-17 94q2 97 58 167h346zM146 84h349q-37 -30 -81.5 -47.5t-92.5 -17.5q-95 0 -175 65z" />
    <glyph glyph-name="three" unicode="3" horiz-adv-x="640" 
d="M465.5 28.5q66.5 39.5 105 106.5t38.5 146q0 80 -40 146t-106 104.5t-142 38.5q-81 0 -147.5 -40t-104 -107t-37.5 -144q0 -76 38.5 -143t104.5 -107t145 -40t145.5 39.5zM145 475q36 31 81.5 48.5t94.5 17.5q48 0 92.5 -18t78.5 -48h-347zM514 454q66 -80 66 -175
q0 -46 -15.5 -88.5t-43.5 -77.5h-346zM125 104q-31 36 -48 81t-17 94q2 97 58 167h346zM146 84h349q-37 -30 -81.5 -47.5t-92.5 -17.5q-95 0 -175 65z" />
    <glyph glyph-name="four" unicode="4" horiz-adv-x="640" 
d="M465.5 28.5q66.5 39.5 105 106.5t38.5 146q0 80 -40 146t-106 104.5t-142 38.5q-81 0 -147.5 -40t-104 -107t-37.5 -144q0 -76 38.5 -143t104.5 -107t145 -40t145.5 39.5zM145 475q36 31 81.5 48.5t94.5 17.5q48 0 92.5 -18t78.5 -48h-347zM514 454q66 -80 66 -175
q0 -46 -15.5 -88.5t-43.5 -77.5h-346zM125 104q-31 36 -48 81t-17 94q2 97 58 167h346zM146 84h349q-37 -30 -81.5 -47.5t-92.5 -17.5q-95 0 -175 65z" />
    <glyph glyph-name="five" unicode="5" horiz-adv-x="640" 
d="M465.5 28.5q66.5 39.5 105 106.5t38.5 146q0 80 -40 146t-106 104.5t-142 38.5q-81 0 -147.5 -40t-104 -107t-37.5 -144q0 -76 38.5 -143t104.5 -107t145 -40t145.5 39.5zM145 475q36 31 81.5 48.5t94.5 17.5q48 0 92.5 -18t78.5 -48h-347zM514 454q66 -80 66 -175
q0 -46 -15.5 -88.5t-43.5 -77.5h-346zM125 104q-31 36 -48 81t-17 94q2 97 58 167h346zM146 84h349q-37 -30 -81.5 -47.5t-92.5 -17.5q-95 0 -175 65z" />
    <glyph glyph-name="six" unicode="6" horiz-adv-x="640" 
d="M465.5 28.5q66.5 39.5 105 106.5t38.5 146q0 80 -40 146t-106 104.5t-142 38.5q-81 0 -147.5 -40t-104 -107t-37.5 -144q0 -76 38.5 -143t104.5 -107t145 -40t145.5 39.5zM145 475q36 31 81.5 48.5t94.5 17.5q48 0 92.5 -18t78.5 -48h-347zM514 454q66 -80 66 -175
q0 -46 -15.5 -88.5t-43.5 -77.5h-346zM125 104q-31 36 -48 81t-17 94q2 97 58 167h346zM146 84h349q-37 -30 -81.5 -47.5t-92.5 -17.5q-95 0 -175 65z" />
    <glyph glyph-name="seven" unicode="7" horiz-adv-x="640" 
d="M465.5 28.5q66.5 39.5 105 106.5t38.5 146q0 80 -40 146t-106 104.5t-142 38.5q-81 0 -147.5 -40t-104 -107t-37.5 -144q0 -76 38.5 -143t104.5 -107t145 -40t145.5 39.5zM145 475q36 31 81.5 48.5t94.5 17.5q48 0 92.5 -18t78.5 -48h-347zM514 454q66 -80 66 -175
q0 -46 -15.5 -88.5t-43.5 -77.5h-346zM125 104q-31 36 -48 81t-17 94q2 97 58 167h346zM146 84h349q-37 -30 -81.5 -47.5t-92.5 -17.5q-95 0 -175 65z" />
    <glyph glyph-name="eight" unicode="8" horiz-adv-x="640" 
d="M465.5 28.5q66.5 39.5 105 106.5t38.5 146q0 80 -40 146t-106 104.5t-142 38.5q-81 0 -147.5 -40t-104 -107t-37.5 -144q0 -76 38.5 -143t104.5 -107t145 -40t145.5 39.5zM145 475q36 31 81.5 48.5t94.5 17.5q48 0 92.5 -18t78.5 -48h-347zM514 454q66 -80 66 -175
q0 -46 -15.5 -88.5t-43.5 -77.5h-346zM125 104q-31 36 -48 81t-17 94q2 97 58 167h346zM146 84h349q-37 -30 -81.5 -47.5t-92.5 -17.5q-95 0 -175 65z" />
    <glyph glyph-name="nine" unicode="9" horiz-adv-x="640" 
d="M465.5 28.5q66.5 39.5 105 106.5t38.5 146q0 80 -40 146t-106 104.5t-142 38.5q-81 0 -147.5 -40t-104 -107t-37.5 -144q0 -76 38.5 -143t104.5 -107t145 -40t145.5 39.5zM145 475q36 31 81.5 48.5t94.5 17.5q48 0 92.5 -18t78.5 -48h-347zM514 454q66 -80 66 -175
q0 -46 -15.5 -88.5t-43.5 -77.5h-346zM125 104q-31 36 -48 81t-17 94q2 97 58 167h346zM146 84h349q-37 -30 -81.5 -47.5t-92.5 -17.5q-95 0 -175 65z" />
    <glyph glyph-name="colon" unicode=":" horiz-adv-x="235" 
d="M68.5 5.5q-16.5 15.5 -16.5 40.5q0 31 20 52t50 21q27 0 44 -17t17 -43q0 -29 -21 -49t-51 -20q-26 0 -42.5 15.5zM68.5 368.5q-16.5 15.5 -16.5 40.5q0 31 20 52t50 21q27 0 44 -17t17 -43q0 -29 -21 -49t-51 -20q-26 0 -42.5 15.5z" />
    <glyph glyph-name="semicolon" unicode=";" horiz-adv-x="238" 
d="M68.5 367.5q-16.5 15.5 -16.5 40.5q0 32 20 53t50 21q27 0 44 -17t17 -44q0 -29 -21 -49t-51 -20q-26 0 -42.5 15.5zM62.5 -94q-4.5 5 -4.5 11q0 9 9 13q52 23 52 54q0 13 -19 16q-20 2 -33 16.5t-13 39.5q0 26 18 43.5t46 17.5q33 0 50.5 -22t17.5 -61
q0 -42 -19.5 -72.5t-46 -45.5t-47.5 -15q-6 0 -10.5 5z" />
    <glyph glyph-name="less" unicode="&#x3c;" horiz-adv-x="470" 
d="M417 64q-5 0 -17 2q-60 15 -146.5 49t-154.5 66q-38 19 -52.5 35.5t-14.5 35.5q0 20 15.5 36.5t52.5 34.5q74 35 157.5 67.5t143.5 47.5l16 2q11 0 16 -5.5t5 -17.5q0 -15 -7.5 -23t-27.5 -15q-38 -12 -136.5 -52.5t-136.5 -59.5q-3 -1 -8.5 -4t-7 -5.5t-1.5 -6.5
q0 -6 16 -15q39 -18 138 -58.5t136 -52.5q20 -7 27.5 -15t7.5 -23q0 -23 -21 -23z" />
    <glyph glyph-name="equal" unicode="=" horiz-adv-x="444" 
d="M70 289q-19 0 -28.5 4t-9.5 14q0 16 12 27t35 11h297q36 0 36 -19q0 -16 -12 -26.5t-34 -10.5h-296zM70 152q-19 0 -28.5 4t-9.5 14q0 16 12 27t35 11h297q36 0 36 -19q0 -16 -12 -26.5t-34 -10.5h-296z" />
    <glyph glyph-name="greater" unicode="&#x3e;" horiz-adv-x="470" 
d="M39.5 110q7.5 8 27.5 15q37 12 136 52.5t138 58.5q16 9 16 15t-2 8t-7 4.5t-8 3.5q-38 19 -136.5 59.5t-136.5 52.5q-20 7 -27.5 15t-7.5 23q0 12 5 17.5t16 5.5l16 -2q60 -15 144 -48t157 -67q37 -17 52.5 -34t15.5 -37q0 -19 -14.5 -35.5t-52.5 -35.5
q-68 -32 -154.5 -66t-146.5 -49q-12 -2 -17 -2q-21 0 -21 23q0 15 7.5 23z" />
    <glyph glyph-name="question" unicode="?" horiz-adv-x="500" 
d="M213 201q0 43 13.5 75t33.5 53.5t52 48.5q43 38 64 68t21 75q0 64 -36.5 102t-95.5 38q-43 0 -77 -19.5t-53.5 -52.5t-19.5 -74q0 -25 -11.5 -39t-30.5 -14q-18 0 -30 13.5t-12 36.5q0 54 30.5 99.5t84.5 72.5t121 27q61 0 110 -22t76.5 -63.5t27.5 -95.5
q0 -42 -14.5 -73t-36.5 -52t-58 -49q-51 -39 -78 -71.5t-34 -83.5q-10 -24 -26 -24q-21 0 -21 24zM192 7q-18 18 -18 44q0 28 18 46.5t46 18.5t47 -18.5t19 -46.5q0 -27 -18.5 -44.5t-47.5 -17.5q-28 0 -46 18z" />
    <glyph glyph-name="at" unicode="@" horiz-adv-x="708" 
d="M410 68q-19 -37 -50 -58.5t-71 -21.5q-47 0 -78 33.5t-31 89.5t23 107.5t63.5 83t92.5 31.5q35 0 61 -16t36 -45l8 38q2 12 17.5 17.5t34.5 5.5q6 0 10 -3.5t2 -10.5l-52 -225q-4 -16 -4 -32q0 -17 8.5 -26t28.5 -9q35 0 66 28t49.5 75.5t18.5 101.5q0 57 -30.5 107
t-89 80t-137.5 30q-96 0 -169 -43.5t-112.5 -116t-39.5 -157.5q0 -77 35 -137.5t97.5 -94.5t142.5 -34q72 0 125.5 21t88.5 53q8 7 19 7q17 0 17 -11q0 -5 -4 -9q-40 -41 -104.5 -67t-143.5 -26q-89 0 -158.5 37t-108.5 104t-39 152q0 97 43.5 178t125 128.5t188.5 47.5
q83 0 148.5 -33t102 -89.5t36.5 -125.5q0 -68 -26 -124.5t-70 -88.5t-94 -32q-83 0 -76 80zM381 62.5q26 30.5 40.5 73.5t14.5 78q0 33 -19.5 57.5t-50.5 24.5q-35 0 -61.5 -25.5t-41 -65t-14.5 -79.5q0 -41 19.5 -67.5t52.5 -26.5q34 0 60 30.5z" />
    <glyph glyph-name="A" unicode="A" horiz-adv-x="735" 
d="M5 19q0 8 8 14.5t18 9.5q27 3 40.5 9t21.5 18.5t18 39.5l198 512q3 8 3 15q0 20 -23 24q-19 4 -19 21q0 8 7 14t22 6h54q34 0 49 -13.5t25 -37.5q120 -315 211 -547q8 -23 15.5 -33.5t19.5 -15.5t37 -8q20 -5 20 -25q0 -23 -30 -23h-123h-60q-28 0 -40.5 4t-12.5 17
q0 14 17 18q34 4 47 10.5t13 20.5q0 10 -8 32l-33 87q-6 15 -15 22.5t-25 7.5h-219q-23 0 -31 -4.5t-15 -22.5l-33 -85q-10 -27 -10 -38q0 -14 13 -20t45 -8q25 -5 25 -21q0 -21 -34 -21q-23 1 -84 1q-60 0 -82 -1q-30 0 -30 21zM445 265q21 0 21 14q0 6 -2 10l-84 228
l-23 62q-3 11 -8 11q-4 0 -9 -11l-110 -292l-2 -8q0 -14 27 -14h190z" />
    <glyph glyph-name="B" unicode="B" horiz-adv-x="642" 
d="M40 3.5q-8 4.5 -8 17.5q0 16 22 25q31 6 44 13t17.5 18.5t4.5 37.5v469q0 27 -4.5 39t-17.5 18.5t-45 12.5q-21 8 -21 25q0 13 7.5 17.5t28.5 4.5q32 -1 157 1q42 1 107 1q111 0 167 -42.5t56 -111.5q0 -61 -26 -95t-62 -50q-7 -3 -7 -7t8 -7q57 -16 101 -61t44 -123
q0 -96 -71.5 -152.5t-208.5 -56.5l-163 1q-42 1 -101 1q-21 0 -29 4.5zM323 409q62 0 100 34.5t38 94.5q0 57 -37 89.5t-99 32.5h-82q-21 0 -28.5 -9t-7.5 -32v-175q0 -20 6.5 -27.5t28.5 -7.5h81zM325 47q83 0 135 43t52 123q0 74 -47.5 113.5t-129.5 39.5h-84
q-25 0 -34.5 -7.5t-9.5 -24.5v-228q0 -30 11.5 -44.5t37.5 -14.5h69z" />
    <glyph glyph-name="C" unicode="C" horiz-adv-x="642" 
d="M188.5 34.5q-72.5 45.5 -114.5 129t-42 192.5q0 98 40 179.5t111 128.5t162 47q50 0 96 -15.5t82 -43.5q13 -10 35 -34q20 -26 29 -47q16 -30 16 -65q0 -23 -13 -39t-39 -16q-20 0 -34.5 13t-25.5 46q0 64 -43 107t-113 43q-58 0 -104 -33t-72.5 -92t-26.5 -135
q0 -92 29 -167t84.5 -118.5t132.5 -43.5q82 0 135 39t65 103q4 13 19 13q8 0 14.5 -6t5.5 -16q-5 -54 -37 -103.5t-91 -80.5t-140 -31q-88 0 -160.5 45.5z" />
    <glyph glyph-name="D" unicode="D" horiz-adv-x="707" 
d="M163 -2l-94 1q-21 0 -29 4.5t-8 17.5q0 16 22 25q31 6 44.5 13.5t17.5 21t4 42.5v454q0 30 -4 43t-17 20.5t-45 13.5q-22 9 -22 25q0 13 8 17.5t29 4.5q38 0 102 2l79 1q130 0 225.5 -42t147.5 -123.5t52 -196.5q0 -167 -100.5 -256.5t-283.5 -89.5q-50 0 -128 2z
M505 124q70 79 70 221q0 99 -40.5 169.5t-113 106.5t-168.5 36q-24 0 -32.5 -8t-8.5 -31v-530q0 -27 20 -35t70 -8q133 0 203 79z" />
    <glyph glyph-name="E" unicode="E" horiz-adv-x="638" 
d="M604 219.5q5 -5.5 5 -18.5q0 -25 -21 -108q-12 -50 -20.5 -73.5t-15.5 -30.5t-17 -7q-9 0 -14 2.5t-6 3.5q-8 6 -18 9t-31 3q-191 0 -264 -0.5t-97 -0.5h-36q-21 0 -29 4.5t-8 17.5q0 16 22 25q31 6 44.5 13.5t17.5 21t4 42.5v454q0 29 -4 42.5t-17.5 21t-44.5 13.5
q-22 9 -22 25q0 11 7.5 16.5t26.5 5.5h30q20 0 85.5 -0.5t245.5 -0.5q20 0 29.5 2.5t19.5 8.5q9 7 20 7q9 0 16 -7t15.5 -31t20.5 -73q22 -84 22 -109q0 -13 -5 -18t-15 -5q-21 0 -30 26q-23 75 -35 104t-25.5 38.5t-41.5 9.5h-161q-20 0 -29 -3.5t-12.5 -14.5t-3.5 -35
v-173q0 -19 4.5 -28t18.5 -9h98q20 0 28 6t8 24q0 5 -4 35q-2 12 3.5 20t16.5 8t17 -7.5t11 -31.5t13 -79q9 -61 9 -85q0 -19 -5 -25.5t-15 -6.5q-21 0 -23 24q-6 33 -12 48.5t-14.5 20.5t-24.5 5h-105q-15 0 -19.5 -8t-4.5 -29v-217q0 -21 3 -30t12.5 -12t30.5 -3h205
q26 0 41 11.5t27 42t29 97.5q5 15 12 21t17 6t15 -5.5z" />
    <glyph glyph-name="F" unicode="F" horiz-adv-x="587" 
d="M40 3.5q-8 4.5 -8 17.5q0 16 22 25q31 6 44.5 13.5t17.5 21t4 42.5v454q0 30 -4 43t-17 20.5t-45 13.5q-10 3 -16 9.5t-6 15.5q0 13 8 17.5t29 4.5h97q53 -1 252 -1q21 0 31 3t18 8q11 7 21 7q11 0 17.5 -7t14 -29.5t21.5 -76.5q22 -79 22 -105q0 -14 -5 -19.5t-16 -5.5
q-20 0 -31 31q-21 74 -32 102t-24 36.5t-41 8.5h-156q-21 0 -30.5 -4t-12.5 -14.5t-3 -33.5v-188q0 -17 4.5 -25t19.5 -8h92q18 0 25.5 5t7.5 18q0 9 -7 42q-1 4 -1 11q0 10 4.5 15t16.5 5q9 0 15 -7.5t14 -31.5t21 -77q21 -82 21 -103q0 -11 -4 -15.5t-14 -4.5
q-11 0 -17 5.5t-10 17.5q-8 32 -15 47t-16 20t-24 5h-102q-20 0 -25.5 -9t-5.5 -32v-168q0 -29 5 -41.5t22 -19t59 -13.5q12 -2 20.5 -9.5t8.5 -18.5q0 -12 -11 -17t-37 -5h-210q-21 0 -29 4.5z" />
    <glyph glyph-name="G" unicode="G" horiz-adv-x="696" 
d="M194.5 37.5q-76.5 48.5 -119.5 133t-43 188.5q0 103 44 183t117 124.5t157 44.5q54 0 103 -17.5t85 -48.5q20 -18 28 -29q19 -22 29 -47q14 -31 14 -63q0 -24 -13 -40t-38 -16q-22 0 -37 12.5t-24 47.5q1 66 -42 108t-114 42q-60 0 -108 -34t-74.5 -93t-26.5 -131
q0 -94 33 -174t90.5 -127.5t127.5 -47.5q75 0 113.5 28.5t38.5 67.5v45q0 44 -5 60t-17.5 19.5t-56.5 9.5q-10 3 -16.5 10.5t-6.5 16.5q0 11 8 16t27 5h125h59q18 0 26 -4.5t8 -16.5q0 -17 -20 -24q-5 -1 -24 -5t-23 -23.5t-4 -65.5v-49q0 -54 -39 -92q-17 -16 -37 -27
q-65 -35 -173 -35q-95 0 -171.5 48.5z" />
    <glyph glyph-name="H" unicode="H" horiz-adv-x="785" 
d="M40 3.5q-8 4.5 -8 17.5q0 16 22 25q31 6 44.5 13.5t17.5 21t4 42.5v454q0 29 -4 42.5t-17.5 21t-44.5 13.5q-10 3 -16 9.5t-6 15.5q0 13 8 17.5t29 4.5h194q21 0 29 -4.5t8 -17.5q0 -15 -23 -25q-31 -6 -44.5 -13.5t-17 -20.5t-3.5 -43v-144q0 -28 8 -36.5t31 -8.5h283
q23 0 31 9t8 36v144q0 30 -4 43t-17 20.5t-45 13.5q-10 3 -16 9.5t-6 15.5q0 13 8 17.5t29 4.5h194q21 0 29 -4.5t8 -17.5q0 -15 -23 -25q-31 -6 -44.5 -13.5t-17 -20.5t-3.5 -43v-454q0 -30 4 -43t17 -20.5t45 -13.5q10 -3 16 -9.5t6 -15.5q0 -13 -8 -17.5t-29 -4.5h-194
q-21 0 -29 4.5t-8 17.5q0 15 23 25q31 6 44.5 13.5t17 20.5t3.5 43v166q0 28 -8 37t-31 9h-283q-23 0 -31 -8.5t-8 -37.5v-166q0 -30 4 -43t17 -20.5t45 -13.5q10 -3 16 -9.5t6 -15.5q0 -13 -8 -17.5t-29 -4.5h-194q-21 0 -29 4.5z" />
    <glyph glyph-name="I" unicode="I" horiz-adv-x="332" 
d="M69 -1q-21 0 -29 4.5t-8 17.5q0 16 22 25q31 6 44.5 13.5t17.5 21t4 42.5v454q0 29 -4 42.5t-17.5 21t-44.5 13.5q-10 3 -16 9.5t-6 15.5q0 13 8 17.5t29 4.5q48 0 61 -1h28h16l89 1q21 0 29 -4.5t8 -17.5q0 -16 -22 -25q-31 -6 -44.5 -13.5t-17.5 -21t-4 -42.5v-454
q0 -29 4 -42.5t17.5 -21t44.5 -13.5q10 -3 16.5 -9.5t6.5 -15.5q0 -13 -8 -17.5t-29 -4.5q-49 0 -62 1h-27h-17z" />
    <glyph glyph-name="J" unicode="J" horiz-adv-x="519" 
d="M74.5 44q-48.5 55 -48.5 135q0 25 13.5 40.5t36.5 15.5t35.5 -16t9.5 -41q-1 -9 -1 -26q0 -55 25.5 -83.5t74.5 -28.5q125 0 125 178l-1 82q-3 80 -3 184v89q0 29 -5 43t-21 21t-53 13q-27 8 -27 29q0 12 10 17t35 5h195q18 0 25 -4.5t7 -17.5q0 -16 -20 -25
q-25 -6 -36 -13.5t-14 -21t-3 -42.5v-337q0 -120 -53 -185.5t-160 -65.5q-98 0 -146.5 55z" />
    <glyph glyph-name="K" unicode="K" horiz-adv-x="734" 
d="M40 3.5q-8 4.5 -8 17.5q0 16 22 25q31 6 44.5 13.5t17.5 21t4 42.5v454q0 30 -4 43t-17 20.5t-45 13.5q-10 3 -16 9.5t-6 15.5q0 13 8 17.5t29 4.5h193q18 0 25.5 -4.5t7.5 -17.5q0 -16 -20 -25q-30 -6 -43 -13.5t-16.5 -20.5t-3.5 -43v-191q0 -16 8 -16q7 0 17 10
l233 221q18 18 18 29q0 9 -13.5 16t-41.5 12q-16 8 -16 23q0 13 12 17.5t38 4.5h166q23 0 35 -5t12 -19q0 -22 -29 -26q-29 -2 -44 -4.5t-31 -12.5t-37 -31l-127 -124q-9 -9 -9 -23q0 -11 6 -22l208 -338q18 -30 34 -40.5t50 -12.5q23 -4 23 -23q0 -13 -10 -18t-30 -5h-188
q-32 0 -32 22q0 17 25 22q22 2 31.5 6.5t9.5 12.5q0 10 -16 37l-168 263q-10 18 -23 18q-10 0 -23 -13l-68 -65q-10 -11 -15 -22.5t-5 -30.5v-126q0 -30 3.5 -43t17 -20.5t44.5 -13.5q9 -3 15 -9.5t6 -15.5q0 -13 -7.5 -17.5t-27.5 -4.5h-194q-21 0 -29 4.5z" />
    <glyph glyph-name="L" unicode="L" horiz-adv-x="592" 
d="M481 -12q-16 12 -52 12h-271l-89 -1q-21 0 -29 4.5t-8 17.5q0 16 22 25q32 6 45 13.5t17 20.5t4 43v454q0 29 -4 42.5t-17.5 21t-44.5 13.5q-10 3 -16 9.5t-6 15.5q0 13 8 17.5t29 4.5h204q25 0 35 -4.5t10 -17.5q0 -15 -27 -25q-37 -6 -53 -13.5t-21 -21t-5 -42.5v-476
q0 -34 10 -43.5t36 -9.5h168q26 0 41 11.5t28 42.5t31 96q9 27 29 27t20 -26q0 -29 -22 -108q-13 -49 -21.5 -72t-14.5 -30t-15 -7t-21 6z" />
    <glyph glyph-name="M" unicode="M" horiz-adv-x="907" 
d="M32 5q-10 6 -10 17q0 9 7 14.5t18 7.5q31 3 45 9t20.5 22t9.5 50l35 467l1 16q0 29 -13.5 38.5t-54.5 14.5q-19 5 -19 21q0 12 8 16t23 4q33 0 52 -1l52 -1q17 0 25.5 -4t11.5 -13l3 -22q6 -20 8 -25l197 -489q3 -9 9 -9q5 0 9 9l187 489q5 12 6 22q0 18 1 25q2 9 9 13
t24 4q32 0 48.5 0.5t25.5 0.5q11 1 35 1q35 0 35 -22q0 -7 -6 -13.5t-15 -8.5q-32 -3 -44.5 -8t-17 -18t-2.5 -42l30 -474q2 -30 7.5 -43.5t20 -19.5t45.5 -8q26 -6 26 -22q0 -21 -31 -23q-144 0 -214 -1q-36 0 -36 23q0 7 6.5 13t15.5 8q32 3 45.5 8t18.5 19t3 44l-19 409
q0 4 -2 7t-5 3q-4 0 -7 -8t-4 -9l-194 -490q-11 -25 -24 -25q-8 0 -14.5 7t-10.5 17l-203 491q-1 2 -4.5 9.5t-7.5 7.5q-3 0 -5 -2.5t-2 -7.5l-23 -416q-1 -29 4.5 -41.5t19.5 -16.5t48 -6q23 -5 23 -22q0 -22 -36 -22l-85 1l-83 -1q-16 0 -26 6z" />
    <glyph glyph-name="N" unicode="N" horiz-adv-x="747" 
d="M64 -1q-17 0 -24.5 5t-7.5 15q0 18 20 23q35 4 48 11.5t16.5 28.5t3.5 77v408q0 41 -3.5 57.5t-16 23.5t-45.5 11q-23 7 -23 23q0 10 7 14.5t27 4.5h111q13 0 20.5 -3t12.5 -10l360 -510q6 -9 14 -9t8 15v382q0 42 -3.5 58t-16 23t-45.5 11q-23 5 -23 24q0 10 7 14.5
t27 4.5h158q17 0 24.5 -5t7.5 -15q0 -18 -20 -23q-35 -4 -47.5 -11.5t-16.5 -29t-4 -76.5v-521q0 -11 -6 -16.5t-15 -5.5q-10 0 -16 4t-12 12l-406 559q-5 5 -10 5q-7 0 -7 -10v-434q0 -42 3.5 -58.5t16.5 -23.5t45 -11q12 -3 17.5 -8.5t5.5 -14.5q0 -10 -7.5 -15t-26.5 -5z
" />
    <glyph glyph-name="O" unicode="O" horiz-adv-x="731" 
d="M195 34q-76 45 -119.5 127.5t-43.5 190.5q0 101 41.5 183t117 129t174.5 47q95 0 171 -44.5t119.5 -126.5t43.5 -189q0 -102 -41.5 -184.5t-117.5 -130t-175 -47.5q-94 0 -170 45zM489.5 72q49.5 32 79 93t29.5 144q0 89 -31.5 170t-88 131t-128.5 50q-60 0 -110 -31.5
t-79 -92t-29 -142.5q0 -90 31.5 -171.5t88 -132t128.5 -50.5q60 0 109.5 32z" />
    <glyph glyph-name="P" unicode="P" horiz-adv-x="618" 
d="M40 3.5q-8 4.5 -8 17.5q0 16 22 25q32 7 45 14t17 20.5t4 42.5v444q0 41 -3.5 57t-16.5 23t-46 11q-22 5 -22 23q0 10 7.5 15t26.5 5q48 0 142 2l98 1q142 0 218 -57t76 -161q0 -101 -71 -155t-208 -54h-72q-25 0 -31 -7.5t-6 -31.5v-105q0 -34 5 -48.5t21 -21.5t56 -14
q27 -7 27 -28q0 -11 -10 -16.5t-34 -5.5h-208q-21 0 -29 4.5zM320 324q88 0 133.5 40.5t45.5 108.5q0 88 -54.5 135t-151.5 47h-39q-23 0 -32.5 -10.5t-9.5 -38.5v-248q0 -18 7 -26t31 -8h70z" />
    <glyph glyph-name="Q" unicode="Q" horiz-adv-x="731" 
d="M936 -64q0 -14 -15 -30t-46.5 -26.5t-78.5 -10.5q-53 0 -102 18t-116 52q-54 27 -87.5 40.5t-65.5 14.5q-32 -5 -60 -5q-94 0 -170 45t-119.5 127.5t-43.5 190.5q0 101 41.5 183t117 129t174.5 47q95 0 171 -44.5t119.5 -126.5t43.5 -189q0 -111 -49.5 -199t-136.5 -130
q35 -11 103 -43q58 -27 98.5 -41t78.5 -14q25 0 43.5 6t41.5 17q22 12 33 12t19 -8q6 -6 6 -15zM163.5 222.5q31.5 -81.5 88 -132t128.5 -50.5q60 0 109.5 32t79 93t29.5 144q0 89 -31.5 170t-88 131t-128.5 50q-60 0 -110 -31.5t-79 -92t-29 -142.5q0 -90 31.5 -171.5z" />
    <glyph glyph-name="R" unicode="R" horiz-adv-x="707" 
d="M39.5 3.5q-7.5 4.5 -7.5 17.5q0 16 22 25q32 7 45 14t17 20.5t4 42.5v444q0 36 -4 51.5t-17 22.5t-45 13q-22 9 -22 27q0 10 7.5 15t26.5 5q46 0 154 2l106 1q274 0 274 -201q0 -66 -38.5 -112t-117.5 -68q-5 -2 -5.5 -6t4.5 -5q50 -21 73.5 -59t46.5 -110
q16 -52 31 -76.5t42 -24.5q17 0 25.5 6t16 15.5t12.5 9.5q11 0 11 -15q0 -26 -29.5 -46.5t-75.5 -20.5q-44 0 -69 17t-36.5 44.5t-21.5 74.5q-18 84 -54 129t-102 45h-62q-24 0 -31.5 -8t-7.5 -33v-127q0 -36 4 -51.5t16.5 -22.5t44.5 -13q22 -9 22 -26q0 -11 -7 -16t-26 -5
h-199q-20 0 -27.5 4.5zM322 347q89 0 133 39.5t44 101.5q0 81 -46.5 124t-138.5 43h-59q-24 0 -33.5 -10.5t-9.5 -39.5v-214q0 -24 8 -34t33 -10h69z" />
    <glyph glyph-name="S" unicode="S" horiz-adv-x="572" 
d="M154 16q-60 27 -93 75q-20 27 -26 51q-8 22 -8 48q0 22 10.5 34.5t29.5 12.5q17 0 30.5 -11t16.5 -35q0 -67 42.5 -108.5t117.5 -41.5q70 0 112.5 36.5t42.5 97.5q0 58 -42.5 95t-132.5 63q-113 34 -158.5 81.5t-45.5 124.5q0 48 27.5 87t78 62t118.5 23q66 0 123 -26.5
t89 -74.5q14 -20 23 -43q9 -27 9 -56q0 -20 -10 -31.5t-28 -11.5q-16 0 -28.5 9.5t-15.5 32.5q-2 68 -42.5 109t-110.5 41q-58 0 -97 -30t-39 -79q0 -51 37.5 -84.5t124.5 -57.5q123 -33 176.5 -86t53.5 -130q0 -61 -31.5 -107t-89 -71.5t-133.5 -25.5q-71 0 -131 27z" />
    <glyph glyph-name="T" unicode="T" horiz-adv-x="641" 
d="M169.5 3.5q-10.5 4.5 -10.5 17.5q0 15 29 25q41 6 58 13.5t22 20.5t5 43v476q0 32 -7 43t-31 11h-67q-24 0 -37 -10.5t-23 -37t-29 -93.5q-8 -24 -16.5 -33.5t-20.5 -9.5t-17 6.5t-5 20.5q0 26 23 111q17 64 28 87.5t25 23.5q7 0 21 -6q22 -12 52 -12h300q22 0 32.5 3
t22.5 9t20 6q9 0 15.5 -7.5t15 -31t21.5 -72.5q11 -39 18 -69t7 -45q0 -13 -5 -18.5t-16 -5.5q-13 0 -21.5 9.5t-17.5 33.5q-18 66 -28 93t-22.5 37.5t-35.5 10.5h-68q-26 0 -32.5 -10.5t-6.5 -43.5v-472q0 -33 5 -46.5t21.5 -21t58.5 -13.5q29 -10 29 -25q0 -11 -9.5 -16.5
t-34.5 -5.5h-231q-27 0 -37.5 4.5z" />
    <glyph glyph-name="U" unicode="U" horiz-adv-x="740" 
d="M169 53q-70 64 -70 191v323q0 35 -4 50t-17 23t-44 14q-22 8 -22 26q0 10 8 15.5t27 5.5l197 -1q20 0 28 -4.5t8 -17.5q0 -17 -22 -24q-32 -7 -45.5 -14t-17.5 -20.5t-4 -42.5v-326q0 -98 51.5 -149.5t150.5 -51.5q96 0 147.5 49t51.5 139v316q0 43 -4.5 61t-17 25.5
t-43.5 12.5q-23 9 -23 25q0 12 9 17t28 5h71q47 0 79 1q37 0 37 -22q0 -16 -22 -25q-31 -5 -44 -13t-17.5 -26.5t-4.5 -60.5v-307q0 -129 -67 -193.5t-197 -64.5q-137 0 -207 64z" />
    <glyph glyph-name="V" unicode="V" horiz-adv-x="731" 
d="M364 -3q-36 0 -53 43l-210 548q-10 27 -19.5 39.5t-20.5 16t-35 7.5q-21 6 -21 24q0 15 13.5 20t47.5 5h81q48 0 80 1q32 0 42.5 -5.5t10.5 -18.5q0 -17 -24 -24q-37 -4 -49 -7.5t-12 -16.5q0 -10 8 -32l173 -471q5 -14 11 -14q5 0 11 14l127 347q40 106 50 134
q5 13 5 23q0 12 -10 15t-29 4.5t-27 2.5q-23 6 -23 25q0 12 9.5 18t30.5 6q15 0 23 -1l73 -1q16 0 64 2q35 0 35 -23q0 -20 -25 -26q-31 -3 -45.5 -12t-26.5 -42l-213 -558q-7 -21 -20.5 -32t-29.5 -11h-2z" />
    <glyph glyph-name="W" unicode="W" horiz-adv-x="1053" 
d="M328 -3q-38 0 -53 43l-172 541q-10 30 -18 43t-20.5 18.5t-37.5 8.5q-22 6 -22 25q0 14 13.5 19.5t45.5 5.5q40 -1 85 -1q44 0 79 1q26 0 36 -6t10 -19q0 -7 -5.5 -13t-12.5 -7q-34 -3 -46.5 -9t-12.5 -21q0 -12 8 -38l138 -469q4 -12 10 -12t9 12q88 264 131 397
q7 18 7 39q0 17 -7 45q-7 27 -22 37t-52 14q-20 4 -20 25q0 24 38 24h187q21 0 30.5 -5.5t9.5 -17.5q0 -8 -5.5 -15t-13.5 -9q-30 -2 -45 -4.5t-20 -7.5q-4 -4 -4 -10q0 -7 7 -32l138 -481q3 -9 9 -9t9 9l159 487q5 15 5 21q0 13 -16.5 18.5t-62.5 9.5q-18 5 -18 22
q0 13 9 19t30 6q36 -1 86 -1q49 0 82 1q16 0 25.5 -6t9.5 -18q0 -19 -23 -23q-31 -3 -44.5 -7.5t-20.5 -15t-15 -34.5l-183 -557q-15 -43 -51 -43h-3q-19 0 -33 10.5t-21 31.5l-117 413q-3 11 -8 11t-9 -11q-23 -69 -28 -83q-22 -66 -49.5 -148t-61.5 -181q-13 -43 -50 -43
h-3z" />
    <glyph glyph-name="X" unicode="X" horiz-adv-x="739" 
d="M19 18q0 11 6.5 19t20.5 9q33 3 47 11t36 39l177 246q7 11 7 21t-5 16l-156 225q-20 28 -33.5 36.5t-49.5 12.5q-9 1 -14 7t-5 17q0 15 10 19.5t34 4.5q31 -1 95 -1q66 0 98 1q21 0 30 -5t9 -17q0 -9 -5 -15.5t-14 -7.5q-33 -3 -47 -7.5t-14 -13.5q0 -6 8 -17l124 -179
q8 -11 16 -11t15 10l121 174q10 14 10 23q0 10 -14 15.5t-47 7.5q-10 1 -16 8t-6 15q0 21 37 21q64 -2 80 -2q27 0 41 1l49 1q28 0 28 -21q0 -11 -6.5 -19t-20.5 -9q-32 -3 -46.5 -11.5t-36.5 -38.5l-148 -208q-6 -9 -6 -19q0 -9 4 -14l170 -245q22 -31 34 -44t25 -18t41 -9
q18 -3 18 -25q0 -13 -9.5 -18.5t-34.5 -5.5q-30 1 -84 1q-62 0 -108 -1q-18 0 -27 5t-9 17q0 23 27 24q24 2 34 5.5t10 13.5q0 13 -21 43l-134 193q-9 12 -16 12q-8 0 -15 -10l-152 -213q-11 -16 -11 -24q0 -10 13 -15t43 -8q11 -1 17 -7.5t6 -14.5q0 -12 -9.5 -16.5
t-28.5 -4.5q-39 1 -97 1q-41 0 -64 -1q-31 0 -31 21z" />
    <glyph glyph-name="Y" unicode="Y" horiz-adv-x="677" 
d="M217 3.5q-8 4.5 -8 17.5q0 16 22 25q31 6 44.5 13.5t17 20.5t3.5 43v125q0 29 -20 64l-170 292q-16 29 -30.5 37t-48.5 11q-22 5 -22 25q0 14 10 19t32 5h125h67q43 0 43 -21q0 -18 -19 -25q-32 -3 -46 -8.5t-14 -16.5q0 -9 7 -20l145 -246q5 -9 10 -9q6 0 10 9l147 254
q5 10 5 16q0 11 -17 16.5t-54 7.5q-14 7 -14 21q0 12 8 17t25 5h59h108q30 0 30 -20t-26 -28q-22 -1 -33 -5.5t-17.5 -13t-19.5 -30.5l-169 -287q-18 -32 -18 -68v-116q0 -35 3.5 -50t16.5 -23t45 -14q23 -8 23 -25q0 -11 -7.5 -16.5t-26.5 -5.5h-197q-21 0 -29 4.5z" />
    <glyph glyph-name="Z" unicode="Z" horiz-adv-x="613" 
d="M495 -13q-52 13 -95 13h-345q-14 0 -22 6t-8 15q0 10 6 20t7 12l406 579q6 8 6 13q0 8 -14 8h-236q-24 0 -37.5 -10t-25.5 -40.5t-33 -100.5q-5 -14 -11.5 -20.5t-17.5 -6.5q-10 0 -15 6t-5 22q0 31 21 104q15 52 23 74t14 29.5t15 7.5q6 0 22 -6q15 -6 27.5 -9t32.5 -3
h354q8 0 13.5 -3.5t6.5 -7.5q1 -2 1 -6q0 -8 -7 -19l-416 -583q-11 -16 -11 -25t15 -9h279q22 0 35 11t26 42.5t34 101.5q6 13 12.5 18.5t16.5 5.5q19 0 19 -32t-21 -102q-15 -50 -23.5 -72.5t-14 -29.5t-12.5 -7q-4 0 -22 4z" />
    <glyph glyph-name="bracketleft" unicode="[" horiz-adv-x="277" 
d="M82 -154q-30 0 -40 10t-10 34v805q0 23 10 33.5t40 10.5h170q20 0 20 -22t-21 -22h-105q-16 0 -22 -6.5t-6 -18.5v-755q0 -12 6 -18.5t22 -6.5h103q23 0 23 -22t-21 -22h-169z" />
    <glyph glyph-name="backslash" unicode="\" horiz-adv-x="532" 
d="M39 676q-7 18 -7 24q0 9 7 13.5t23 4.5q23 0 32 -8t20 -32l378 -815q8 -16 8 -25q0 -17 -31 -17q-23 0 -32 8.5t-20 30.5z" />
    <glyph glyph-name="bracketright" unicode="]" horiz-adv-x="277" 
d="M26 -154q-21 0 -21 22t23 22h103q16 0 22 6.5t6 18.5v755q0 12 -6 18.5t-22 6.5h-105q-21 0 -21 22t20 22h170q30 0 40 -10.5t10 -33.5v-805q0 -24 -10 -34t-40 -10h-169z" />
    <glyph glyph-name="asciicircum" unicode="^" horiz-adv-x="370" 
d="M35.5 528.5q-3.5 5.5 -1.5 13.5q8 23 52.5 67.5t74.5 64.5q11 8 24 8q11 0 25 -8q28 -18 72 -63.5t54 -68.5q1 -2 1 -5q0 -6 -4 -10t-9 -4q-14 0 -35 16l-29 26q-24 22 -47 42t-28 20q-6 0 -82 -67q-9 -9 -23 -21q-9 -7 -19 -11.5t-15 -4.5q-7 0 -10.5 5.5z" />
    <glyph glyph-name="underscore" unicode="_" horiz-adv-x="492" 
d="M26 -143q-26 0 -26 16q0 12 7.5 19t21.5 7h439q24 0 24 -16q0 -12 -7.5 -19t-19.5 -7h-439z" />
    <glyph glyph-name="grave" unicode="`" horiz-adv-x="258" 
d="M155 554.5q-45 31.5 -84 67t-39 48.5q0 9 7.5 13t27.5 4t31 -3.5t19 -15.5q2 -3 30 -35q79 -88 79 -99t-14 -11q-12 0 -57 31.5z" />
    <glyph glyph-name="a" unicode="a" horiz-adv-x="539" 
d="M75.5 26q-37.5 37 -37.5 97q0 65 54.5 105.5t155.5 43.5q41 1 60 4t25 9.5t4 19.5l-3 25q-7 54 -31 81t-67 27q-45 0 -72 -24.5t-26 -68.5q-2 -19 -14 -29t-31 -10q-14 0 -24.5 10t-10.5 28q0 38 26 70t71 50.5t100 18.5q78 0 118.5 -40.5t49.5 -119.5l24 -193
q5 -43 14 -58.5t24 -15.5q10 0 15.5 4.5t12 14t11.5 9.5q14 0 14 -19q0 -15 -10 -32t-28.5 -28.5t-41.5 -11.5q-36 0 -54.5 20t-27.5 60q-4 9 -7 9t-21.5 -25.5t-57 -46.5t-101.5 -21q-76 0 -113.5 37zM316 79q37 37 37 91q0 12 -1 18l-2 20q-2 14 -8.5 19.5t-21 7
t-52.5 1.5q-72 0 -106 -26.5t-34 -69.5q0 -47 24.5 -72.5t73.5 -25.5q53 0 90 37z" />
    <glyph glyph-name="b" unicode="b" horiz-adv-x="558" 
d="M211.5 6q-31.5 17 -55.5 43q-13 13 -17 13q-7 0 -19 -25q-9 -18 -15.5 -27.5t-17.5 -9.5q-9 0 -12 5t-2 19q7 49 7 141v437q0 21 -4.5 29.5t-21.5 8.5q-11 0 -20 -1t-15 -1q-10 0 -14.5 2.5t-5.5 8.5q0 17 29 27l41 12q54 18 72 18q15 0 21.5 -6t6.5 -21v-288
q0 -17 4 -17q1 0 18 29t55 54.5t94 25.5q52 0 94.5 -28t67 -82t24.5 -127q0 -74 -29 -132.5t-80.5 -91.5t-117.5 -33q-56 0 -87.5 17zM396.5 81.5q36.5 48.5 36.5 131.5q0 96 -34.5 150.5t-93.5 54.5q-63 0 -99.5 -48t-36.5 -119v-17q0 -100 35.5 -150.5t96.5 -50.5
q59 0 95.5 48.5z" />
    <glyph glyph-name="c" unicode="c" horiz-adv-x="493" 
d="M139 21.5q-52 32.5 -79.5 89t-27.5 125.5q0 71 30 127t81.5 87.5t114.5 31.5q47 0 90.5 -18.5t70 -51.5t26.5 -74q0 -17 -9 -28.5t-26 -11.5q-37 0 -48 42q-3 43 -29 70.5t-79 27.5q-35 0 -65 -21t-48.5 -60t-18.5 -91q0 -93 42.5 -154t120.5 -61q46 0 83 20.5t62 53.5
q7 11 15 11q10 0 14 -7.5t1 -16.5q-25 -56 -75 -89.5t-124 -33.5q-70 0 -122 32.5z" />
    <glyph glyph-name="d" unicode="d" horiz-adv-x="570" 
d="M120.5 19.5q-42.5 30.5 -65.5 86t-23 127.5q0 70 26 127t74 89.5t111 32.5q48 0 75.5 -15.5t43 -32t18.5 -16.5q6 0 7.5 13.5t1.5 49.5v121q0 21 -5 29.5t-22 8.5q-10 0 -19 -1t-16 -1q-10 0 -14.5 2.5t-4.5 9.5q0 16 29 26q30 9 37 11q23 7 44 13t32 6q14 0 20.5 -6
t6.5 -21v-581q0 -20 5 -29t20 -9q12 0 22 1t17 1q9 0 13 -2.5t5 -8.5q0 -11 -7.5 -16.5t-21.5 -10.5q-20 -5 -48 -14q-50 -16 -66 -16q-14 0 -20.5 6t-6.5 21v52q-1 24 -4 24q-1 0 -18.5 -28.5t-55.5 -54t-93 -25.5t-97.5 30.5zM326 71q29 20 46 55.5t17 79.5v33
q0 94 -34.5 147t-98.5 53q-35 0 -65 -20t-48.5 -59.5t-18.5 -94.5q0 -100 37 -157t101 -57q35 0 64 20z" />
    <glyph glyph-name="e" unicode="e" horiz-adv-x="481" 
d="M136.5 23q-51.5 34 -78 91.5t-26.5 127.5t31.5 125t84 85t113.5 30q56 0 99.5 -23.5t67.5 -60.5t24 -77q0 -32 -15.5 -44.5t-51.5 -17.5l-240 -36q-8 -1 -11.5 -4.5t-3.5 -11.5q0 -36 18 -72t52.5 -60t82.5 -24q49 0 86 21.5t62 54.5q7 9 14 9q11 0 14.5 -8t0.5 -16
q-25 -54 -76.5 -88.5t-124.5 -34.5q-71 0 -122.5 34zM336 298q19 3 26 9t7 19q0 26 -14.5 52t-42 43t-63.5 17q-31 0 -60.5 -18.5t-48 -52t-18.5 -75.5q0 -14 2.5 -19.5t8.5 -5.5t9 1z" />
    <glyph glyph-name="f" unicode="f" horiz-adv-x="337" 
d="M98 -4q-35 0 -48 5.5t-13 16.5q0 15 17 20q28 4 40 12t14.5 21t2.5 44v291q0 22 -23 22h-51q-6 0 -10 5t-4 12q0 12 6 19.5t13 7.5h66q-1 6 -3 13t-3 14q-15 49 -15 92q0 56 42.5 92t114.5 36q66 0 110 -32t44 -83q0 -15 -9.5 -26t-26.5 -11q-33 0 -41 39
q-2 32 -21.5 50.5t-55.5 18.5q-39 0 -63 -23.5t-24 -60.5q0 -24 6.5 -45t18.5 -47l11 -27h116q17 0 17 -15q0 -12 -6 -20.5t-15 -8.5h-79q-14 0 -20.5 -5.5t-6.5 -17.5v-290q0 -30 3 -43.5t15 -21.5t40 -12q18 -5 18 -20q0 -11 -11.5 -16.5t-46.5 -5.5h-119z" />
    <glyph glyph-name="g" unicode="g" horiz-adv-x="507" 
d="M441.5 56q34.5 -34 34.5 -85q0 -73 -63.5 -116t-168.5 -43q-46 0 -89 10.5t-75 31.5q-61 39 -61 99q0 22 13 34.5t33 12.5t35.5 -12t21.5 -34q1 -41 29 -65q35 -32 104 -32q60 0 98 29t38 76q0 54 -43 89t-112 36q-60 0 -109.5 24.5t-78 69t-28.5 103.5q0 55 28 100
t79.5 71.5t116.5 26.5q47 0 83 -13v1q5 -1 15 -1q48 0 48 69q0 19 12.5 29.5t29.5 10.5t29.5 -11.5t12.5 -28.5q0 -38 -23.5 -64t-61.5 -35q37 -28 58 -67.5t21 -87.5q0 -64 -32.5 -110.5t-90.5 -68.5q62 -15 96.5 -49zM150 179q39 -48 101 -48q57 0 91.5 37t34.5 98
q0 73 -39 122.5t-101 49.5q-53 0 -89.5 -38.5t-36.5 -96.5q0 -76 39 -124z" />
    <glyph glyph-name="h" unicode="h" horiz-adv-x="616" 
d="M37 3.5q-13 5.5 -13 16.5q0 7 4.5 12t12.5 7q28 5 40 13t14.5 21t2.5 43v486q0 20 -4.5 29t-20.5 9q-11 0 -20.5 -1t-16.5 -1q-10 0 -14.5 2.5t-4.5 10.5q0 9 7.5 14.5t21.5 10.5q20 5 47 14q5 1 29.5 8.5t36.5 7.5q14 0 20.5 -6t6.5 -21v-276q0 -24 4 -24q2 0 16 27.5
t50 52t94 24.5q66 0 108 -42t51 -127l21 -187q4 -39 8.5 -53.5t15.5 -20.5t39 -11q20 -7 20 -22q0 -11 -10.5 -16.5t-39.5 -5.5l-71 1l-68 -1q-28 0 -39 4.5t-11 17.5q0 16 20 21q31 6 41.5 14t10.5 33q0 8 -4 46l-19 166q-8 62 -34 90.5t-77 28.5q-30 0 -59 -17.5
t-48 -54.5t-19 -93v-137q0 -30 3 -43.5t15 -21t40 -12.5q18 -5 18 -20q0 -11 -11.5 -16.5t-46.5 -5.5l-59 1l-60 -1q-35 0 -48 5.5z" />
    <glyph glyph-name="i" unicode="i" horiz-adv-x="282" 
d="M41 1.5q-13 5.5 -13 16.5q0 15 16 20q28 4 40 12t14.5 21t2.5 44v259q0 20 -4 29t-18 9q-12 0 -22 -1t-17 -1q-11 0 -15.5 2.5t-4.5 10.5q0 9 7.5 14.5t21.5 10.5l29 9q67 21 84 21q15 0 21.5 -6t6.5 -21v-336q0 -30 3 -43t15 -21t40 -13q18 -5 18 -20q0 -11 -11.5 -16.5
t-46.5 -5.5l-60 1l-60 -1q-34 0 -47 5.5zM80 573.5q-18 14.5 -18 37.5t18 36.5t48 13.5q29 0 46.5 -13.5t17.5 -36.5t-17.5 -37.5t-46.5 -14.5q-30 0 -48 14.5z" />
    <glyph glyph-name="j" unicode="j" horiz-adv-x="253" 
d="M4 -176q-12 0 -19 6.5t-7 16.5q0 8 5.5 15t15.5 11q95 29 95 175v326q0 21 -4.5 30t-21.5 8q-24 -2 -31 -2q-24 0 -24 13q0 9 7.5 14.5t21.5 10.5l23 7q71 23 90 23q15 0 21.5 -6t6.5 -21v-382q0 -113 -47.5 -171t-122.5 -73q-3 -1 -9 -1zM75 573.5q-18 14.5 -18 37.5
t18 36.5t48 13.5q29 0 46.5 -13.5t17.5 -36.5t-17.5 -37.5t-46.5 -14.5q-30 0 -48 14.5z" />
    <glyph glyph-name="k" unicode="k" horiz-adv-x="590" 
d="M33.5 2q-10.5 5 -10.5 16q0 15 17 20q29 4 41 12t14.5 21t2.5 44v487q0 20 -4.5 29t-19.5 9q-11 0 -21 -1t-17 -1q-18 0 -19 11q0 11 7.5 17t21.5 10l41 12q54 18 72 18q15 0 21.5 -6t6.5 -21v-411q0 -8 2.5 -13t7.5 -5q6 0 15 9l145 145q13 13 13 22q0 6 -7.5 7.5
t-36.5 2.5q-15 2 -15 18q0 10 9.5 14.5t23.5 4.5l78 -1l76 1q32 0 32 -21q0 -20 -22 -22q-37 -1 -57.5 -11t-39.5 -29l-63 -63q-14 -14 -14 -24q0 -8 7 -17l136 -192q23 -31 36.5 -40t39.5 -11q25 -6 25 -23q0 -11 -9.5 -17t-25.5 -6q-29 1 -74 1q-46 0 -76 -1
q-25 0 -34.5 5t-9.5 17q0 7 6 10t19 7q12 3 19 7t7 11q0 8 -9 21l-107 149q-10 14 -21 14q-9 0 -17 -8l-46 -46q-9 -8 -11 -18t-2 -39v-28q0 -21 3 -31.5t15.5 -17.5t40.5 -11q19 -7 19 -21q0 -11 -9 -16t-32 -5q-29 1 -80 1q-50 0 -77 -1q-23 0 -33.5 5z" />
    <glyph glyph-name="l" unicode="l" horiz-adv-x="279" 
d="M37 1.5q-13 5.5 -13 16.5q0 15 17 20q28 4 40 12t14.5 21t2.5 44v487q0 20 -4.5 29t-20.5 9q-11 0 -20.5 -1t-16.5 -1q-10 0 -14.5 2.5t-4.5 10.5q0 9 7.5 14.5t21.5 10.5q30 9 37 11q23 7 44 13t32 6q14 0 20.5 -6t6.5 -21v-564q0 -30 3 -43t15 -21t40 -13q18 -5 18 -20
q0 -11 -11.5 -16.5t-46.5 -5.5l-59 1l-60 -1q-35 0 -48 5.5z" />
    <glyph glyph-name="m" unicode="m" horiz-adv-x="890" 
d="M40.5 2q-12.5 5 -12.5 16q0 8 4 12.5t13 7.5q28 5 39.5 13t14 20.5t2.5 43.5v258q0 21 -4 29.5t-20 8.5q-11 0 -21 -1t-17 -1q-10 0 -14.5 2.5t-4.5 10.5q0 10 7 15.5t20 9.5q8 3 17 5.5t18 5.5q62 20 81 20q14 0 20.5 -6.5t6.5 -21.5v-37q0 -18 1 -26t3 -8q1 0 14 27
t49.5 52t91.5 25q46 0 79 -24t50 -71q4 -9 8 -9q2 0 16.5 28t47.5 52t88 24q58 0 97 -42t48 -127l22 -187q4 -40 8 -54t14.5 -20t38.5 -11q21 -6 21 -22q0 -11 -9 -16.5t-34 -5.5l-71 1l-68 -1q-32 0 -44 4.5t-12 17.5q0 17 19 21q32 5 42 13t10 33q0 7 -4 47l-19 164
q-14 121 -94 121q-27 0 -52 -16.5t-41.5 -50.5t-16.5 -85v-151q0 -31 2.5 -44.5t14 -23t38.5 -14.5q13 -3 13 -16q0 -21 -31 -21l-80 1l-77 -1q-34 0 -34 21q0 15 14 20q25 4 36 12.5t13.5 22.5t2.5 43v159q0 144 -98 144q-27 0 -54 -17t-45 -54t-18 -94v-138q0 -30 2.5 -44
t13.5 -22t37 -11q15 -7 15 -21q0 -10 -10 -15.5t-41 -5.5l-61 1l-58 -1q-35 0 -47.5 5z" />
    <glyph glyph-name="n" unicode="n" horiz-adv-x="619" 
d="M41 3.5q-13 5.5 -13 16.5q0 16 16 19q28 5 40 13t14.5 21t2.5 43v258q0 20 -4 29t-20 9l-37 -1q-11 0 -15.5 2.5t-4.5 9.5q0 9 7.5 14.5t21.5 10.5l29 9q67 21 84 21q15 0 21.5 -6t6.5 -21v-60q0 -12 4 -12q1 0 15 27.5t50.5 52t94.5 24.5q140 0 161 -184l19 -171
q5 -41 8.5 -55t14.5 -20t39 -11q20 -6 20 -22q0 -11 -9 -16.5t-34 -5.5l-71 1l-68 -1q-32 0 -44 4.5t-12 17.5q0 17 19 21q32 5 42 12.5t10 31.5q0 8 -4 50l-17 148q-8 70 -34 103t-78 33q-30 0 -59 -18t-48 -55t-19 -92v-137q0 -30 3 -43.5t15 -21t40 -12.5q18 -5 18 -20
q0 -11 -11.5 -16.5t-46.5 -5.5l-60 1l-60 -1q-34 0 -47 5.5z" />
    <glyph glyph-name="o" unicode="o" horiz-adv-x="553" 
d="M150 20.5q-56 31.5 -87 88t-31 127.5t31 127.5t87 88t127 31.5t126.5 -31.5t86.5 -88t31 -127.5q0 -72 -31 -128t-86 -87.5t-127 -31.5q-71 0 -127 31.5zM387.5 81q39.5 47 39.5 125q0 58 -19.5 111t-55.5 86.5t-83 33.5q-64 0 -103.5 -47t-39.5 -124q0 -58 19.5 -112
t55.5 -87t83 -33q64 0 103.5 47z" />
    <glyph glyph-name="p" unicode="p" horiz-adv-x="575" 
d="M37 -175.5q-13 5.5 -13 17.5q0 14 17 19q28 4 40 12t14.5 21.5t2.5 43.5v435q0 22 -5 31t-22 8q-8 -1 -16.5 -2t-17.5 -1q-10 0 -15 3t-5 11q0 9 7.5 14.5t21.5 10.5q30 9 37 11q23 7 44 13t32 6q14 0 20.5 -6t6.5 -21v-60q0 -17 5 -17q1 0 17.5 28.5t55 54.5t94.5 26
q52 0 94 -28t66.5 -82t24.5 -127t-28.5 -132t-78 -92t-110.5 -33q-67 0 -114 49l-8.5 8.5t-9.5 6.5q-8 0 -8 -22v-97q0 -28 3 -40.5t15 -20t40 -11.5q18 -7 18 -20q0 -12 -11.5 -17.5t-46.5 -5.5l-59 1l-60 -1q-35 0 -48 5.5zM414 80.5q37 47.5 37 127.5q0 61 -16.5 109.5
t-47 75.5t-69.5 27q-63 0 -97.5 -46.5t-34.5 -123.5v-22q0 -96 36 -145.5t97 -49.5q58 0 95 47.5z" />
    <glyph glyph-name="q" unicode="q" horiz-adv-x="552" 
d="M328 -175.5q-13 5.5 -13 17.5q0 14 16 19q28 4 40 12.5t15 21.5t3 43v146q0 6 -0.5 9.5t-3.5 3.5q-1 0 -18.5 -28.5t-55.5 -54t-93 -25.5t-97.5 30.5t-65.5 86t-23 127.5q0 71 26 127.5t75.5 89.5t117.5 33q59 0 92.5 -17.5t58.5 -42.5q11 -13 17 -13t20 29q9 19 16 29.5
t15 10.5t12 -6t3 -16q-8 -59 -8 -151v-368q0 -30 3 -43t15 -21t40 -12q18 -7 18 -20q0 -12 -11.5 -17.5t-46.5 -5.5l-60 1l-59 -1q-35 0 -48 5.5zM325 70q29 19 46.5 54.5t17.5 80.5v34q0 92 -34.5 146t-97.5 54q-35 0 -65.5 -20.5t-49 -60t-18.5 -94.5q0 -99 37.5 -156
t101.5 -57q33 0 62 19z" />
    <glyph glyph-name="r" unicode="r" horiz-adv-x="458" 
d="M41 1.5q-13 5.5 -13 16.5q0 15 16 20q28 4 40 12t14.5 21t2.5 44v258q0 21 -4 30t-20 9q-11 0 -21 -1t-17 -1q-10 0 -14.5 2.5t-4.5 10.5q0 9 7.5 14.5t21.5 10.5l41 12q54 18 72 18q15 0 21.5 -6t6.5 -21v-57q0 -15 4 -15q1 0 14 27.5t45.5 52t82.5 24.5t78 -30.5
t28 -83.5q0 -30 -13.5 -51t-40.5 -21q-16 0 -28.5 11.5t-8.5 33.5q5 12 5 28q0 47 -55 47q-28 0 -53.5 -20t-41.5 -57.5t-16 -87.5v-137q0 -30 3 -43t15 -21t40 -13q18 -5 18 -20q0 -11 -11.5 -16.5t-46.5 -5.5l-60 1l-60 -1q-34 0 -47 5.5z" />
    <glyph glyph-name="s" unicode="s" horiz-adv-x="471" 
d="M124 17q-30 15 -50 41q-24 29 -24 68q0 17 9.5 28t25.5 11q32 0 41 -38q2 -38 28.5 -64.5t76.5 -26.5q55 0 85 22.5t30 60.5q0 37 -29 60t-98 40q-84 21 -117.5 54.5t-33.5 88.5q0 53 47.5 87t117.5 34q56 0 106 -24q33 -14 54 -38q27 -32 27 -73q0 -15 -9 -25.5
t-23 -10.5q-31 0 -41 34q-1 37 -27.5 63.5t-74.5 26.5q-39 0 -65 -18t-26 -47q0 -34 25 -56t90 -36q90 -19 128.5 -55.5t38.5 -91.5q0 -68 -54 -105.5t-144 -37.5q-63 0 -114 28z" />
    <glyph glyph-name="t" unicode="t" horiz-adv-x="391" 
d="M120 28q-37 38 -37 119v262q0 11 -5.5 15t-15.5 4h-14q-8 0 -13 6t-5 14q0 13 13 35l10 15q28 56 53 81q24 22 50 22q10 0 14 -6t4 -20v-69q0 -23 2 -28.5t11 -5.5h139q10 0 14 -3.5t4 -14.5q0 -12 -7.5 -19t-19.5 -7h-123q-23 0 -23 -20v-247q0 -54 22.5 -81t62.5 -27
q24 0 49.5 14.5t44.5 43.5q7 10 15 10t12 -7t1 -15q-42 -109 -155 -109q-66 0 -103 38z" />
    <glyph glyph-name="u" unicode="u" horiz-adv-x="590" 
d="M127.5 37q-43.5 47 -43.5 142v194q0 21 -4.5 30t-20.5 9q-11 0 -20.5 -1t-16.5 -1q-10 0 -14.5 2.5t-5.5 8.5q0 11 7.5 16.5t22.5 10.5q30 9 37 11q23 7 44 13t32 6q14 0 20.5 -6t6.5 -21v-257q0 -140 110 -140q32 0 61 18t47.5 55.5t18.5 92.5v153q0 21 -4.5 30t-20.5 9
q-11 0 -20.5 -1t-16.5 -1q-10 0 -14.5 2.5t-5.5 8.5q0 11 7.5 16.5t22.5 10.5q30 9 37 11q23 7 44 13t32 6q14 0 20.5 -6t6.5 -21v-353q0 -20 4.5 -29t20.5 -9q11 0 20.5 1t16.5 1q10 0 14.5 -2.5t5.5 -8.5q0 -11 -7.5 -16.5t-22.5 -10.5q-30 -9 -37 -11q-23 -7 -44 -13
t-32 -6q-14 0 -20.5 6t-6.5 21v56q0 16 -5 16q-1 0 -14.5 -27t-50 -51.5t-95.5 -24.5q-73 0 -116.5 47z" />
    <glyph glyph-name="v" unicode="v" horiz-adv-x="498" 
d="M249 -3q-18 0 -27 5.5t-16 21.5q-14 36 -29.5 83t-22.5 68q-46 138 -74 207q-11 27 -21 35.5t-34 11.5q-22 7 -22 22q0 14 11.5 18.5t40.5 4.5l74 -1l72 1q31 0 41 -5t10 -17q0 -16 -21 -22q-32 -2 -45.5 -8.5t-13.5 -19.5q0 -8 4 -17q16 -45 48 -141q31 -94 51 -150
q3 -8 8 -8q4 0 10 7q109 120 112 216q2 35 -6 56t-31 35q-22 21 -22 46q0 20 17 30q14 7 26 7q17 0 36 -14q14 -12 20 -25q21 -35 21 -94q0 -72 -44 -153t-113 -162q-16 -21 -27.5 -29.5t-27.5 -8.5h-5z" />
    <glyph glyph-name="w" unicode="w" horiz-adv-x="768" 
d="M732 403.5q6 -29.5 4 -58.5q-2 -48 -24 -101t-49 -96t-74 -113q-14 -22 -25.5 -30t-26.5 -8h-5q-15 0 -23.5 6t-15.5 21q-44 124 -71 187q-5 13 -12 4q0 -1 -2 -5q-24 -75 -95 -175q-16 -22 -27 -30t-26 -8h-4q-19 0 -28 5.5t-16 21.5q-30 74 -91 244l-41 114
q-10 27 -20 35.5t-35 11.5q-22 7 -22 22q0 14 11.5 18.5t40.5 4.5l69 -1l67 1q31 0 41 -5t10 -17q0 -15 -17 -20q-31 -4 -42.5 -9t-11.5 -16q0 -7 5 -22q53 -167 105 -291q3 -7 6 -7q4 0 9 7q48 71 72.5 122t25.5 103q2 29 -7 49.5t-30 34.5q-10 7 -15 17t-5 19q0 5 1 8
q2 17 17.5 26t38.5 7q33 -5 52.5 -35t15.5 -77q-1 -13 -6 -35l1 -4q64 -143 96 -235q3 -6 7 -6t8 6l24 34q42 61 62 99.5t21 82.5q2 35 -7 56.5t-33 36.5q-16 11 -19 27q-2 8 -2 10q0 8 3 12q3 19 21 26q4 1 12 1q11 0 23 -3q24 -5 38 -23q15 -20 21 -49.5z" />
    <glyph glyph-name="x" unicode="x" horiz-adv-x="557" 
d="M26 2.5q-9 4.5 -9 15.5q0 8 5.5 12t16.5 8q25 2 39 12t37 42l101 138q7 11 7 19q0 9 -6 16l-90 127q-17 25 -26 30.5t-37 8.5q-12 2 -16.5 7t-4.5 15q0 12 9 17t28 4t66 -1q68 0 95 1q35 0 35 -20q0 -14 -15 -18q-21 -2 -29.5 -6t-8.5 -11q0 -6 6.5 -15.5t8.5 -12.5
l64 -88q5 -6 9 -6t7 5l71 101q8 11 8 17q0 7 -9 11t-31 6q-6 2 -10.5 6.5t-4.5 10.5q0 12 8.5 16.5t26.5 4.5q42 -2 69 -2q22 0 52 2q33 0 33 -21q0 -14 -20 -20q-21 -2 -36.5 -9.5t-26.5 -22.5l-97 -135q-5 -7 -5 -16q0 -8 5 -16l105 -147q21 -29 32 -36.5t35 -10.5
q17 -3 17 -21q0 -12 -11 -17t-38 -5h-140q-44 0 -44 20q0 15 14 18q41 4 41 18q0 9 -11 23l-84 117q-4 6 -9 6q-6 0 -12 -8l-87 -120q-10 -13 -10 -21t8.5 -10.5t30.5 -5.5q18 -3 18 -17q0 -20 -36 -20h-116q-19 0 -28 4.5z" />
    <glyph glyph-name="y" unicode="y" horiz-adv-x="498" 
d="M2.5 -161.5q-25.5 21.5 -25.5 57.5q0 20 12 33.5t30 13.5q16 0 26 -9t13 -24q2 -21 11 -34.5t23 -13.5q22 0 55.5 30t66.5 70q5 7 5 14q0 9 -9 33q-15 39 -32 91t-25 75q-46 137 -72 205q-11 27 -21.5 36.5t-34.5 12.5q-22 5 -22 23q0 12 10 17t35 5l79 -1l80 1
q27 0 36 -5.5t9 -16.5q0 -16 -17 -20q-35 -4 -49.5 -11.5t-14.5 -21.5q0 -7 5 -19q19 -49 57 -163q30 -92 45 -133q3 -8 9 -8t9 7q51 77 79 130.5t30 98.5q1 8 1 21q0 27 -9.5 42t-27.5 24q-25 19 -25 46q0 8 4 16t11 13q11 8 29 8t35 -12q15 -12 22 -27q21 -36 21 -91
q0 -80 -81 -220q-44 -74 -87 -131q-140 -184 -227 -184q-43 0 -68.5 21.5z" />
    <glyph glyph-name="z" unicode="z" horiz-adv-x="489" 
d="M381 -6q-5 1 -28.5 3.5t-53.5 2.5h-230q-27 0 -27 18q0 11 11 27l282 366q3 5 3 8q0 7 -9 7h-170q-16 0 -24.5 -5t-15.5 -23t-17 -60q-5 -14 -11 -19.5t-17 -5.5q-8 0 -12.5 5t-4.5 22q0 21 7 59q8 39 12.5 55t10 21t15.5 5q8 0 34 -4t74 -4h227q11 0 17 -5.5t6 -11.5
q0 -9 -12 -25l-281 -369q-4 -6 -4 -9q0 -7 11 -7h173q19 0 28 6.5t16 26t19 68.5q5 13 11.5 18.5t16.5 5.5q7 0 11.5 -5.5t4.5 -22.5q0 -24 -8 -64q-9 -42 -14 -59t-10.5 -22.5t-16.5 -5.5q-9 0 -24 3z" />
    <glyph glyph-name="braceleft" unicode="{" horiz-adv-x="321" 
d="M136 -114.5q-37 36.5 -37 111.5q0 33 4 89q1 13 2 38t1 44q0 35 -5 55t-22.5 33t-53.5 20q-20 6 -20 19q0 11 20 19q36 7 53.5 20.5t22.5 33.5t5 54q0 19 -1 44t-2 38q-4 56 -4 90q0 74 37 110.5t125 36.5q55 0 55 -24q0 -9 -9.5 -12t-33.5 -3q-51 0 -71.5 -27.5
t-20.5 -82.5q0 -26 1 -45.5t2 -33.5q4 -54 4 -84q0 -52 -15.5 -84.5t-63.5 -46.5q-3 -1 -3 -3t3 -3q48 -14 63.5 -46.5t15.5 -84.5q0 -31 -4 -85q-1 -13 -2 -32.5t-1 -45.5q0 -55 20.5 -82.5t71.5 -27.5q24 0 33.5 -2.5t9.5 -12.5q0 -24 -55 -24q-88 0 -125 36.5z" />
    <glyph glyph-name="bar" unicode="|" horiz-adv-x="128" 
d="M32 -147v861q0 9 7.5 12.5t24.5 3.5q33 0 33 -16v-861q0 -17 -33 -17q-32 0 -32 17z" />
    <glyph glyph-name="braceright" unicode="}" horiz-adv-x="321" 
d="M5 -127q0 10 9.5 12.5t33.5 2.5q51 0 71.5 27.5t20.5 82.5q0 26 -1 45.5t-2 32.5q-4 54 -4 85q0 52 15.5 84.5t63.5 46.5q3 1 3 3t-3 3q-48 14 -63.5 46.5t-15.5 84.5q0 30 4 84q1 14 2 33.5t1 45.5q0 55 -20.5 82.5t-71.5 27.5q-24 0 -33.5 3t-9.5 12q0 24 55 24
q88 0 125 -36.5t37 -110.5q0 -34 -4 -90q-1 -13 -2 -38t-1 -44q0 -34 5 -54t22.5 -33.5t53.5 -20.5q20 -8 20 -19q0 -13 -20 -19q-36 -7 -53.5 -20t-22.5 -33t-5 -55q0 -19 1 -44t2 -38q4 -56 4 -89q0 -75 -37 -111.5t-125 -36.5q-55 0 -55 24z" />
    <glyph glyph-name="asciitilde" unicode="~" horiz-adv-x="408" 
d="M37 218.5q-5 5.5 -5 15.5q0 50 27.5 80t74.5 30q20 0 39 -9t45 -29q23 -16 36.5 -23t26.5 -7q28 0 41.5 15.5t16.5 38.5q3 20 19 20q9 0 14 -6t4 -17q-2 -51 -28.5 -79.5t-71.5 -28.5q-24 0 -45 10t-47 30q-20 15 -32.5 21.5t-24.5 6.5q-51 0 -59 -55q-1 -19 -18 -19
q-8 0 -13 5.5z" />
    <glyph glyph-name="uni00A0" unicode="&#xa0;" horiz-adv-x="504" 
 />
    <glyph glyph-name="exclamdown" unicode="&#xa1;" horiz-adv-x="237" 
d="M165 467q19 -16 19 -41t-19 -42t-48 -17q-28 0 -45.5 16.5t-17.5 42.5q0 25 18 41t45 16q29 0 48 -16zM142 290q4 -67 16 -181q14 -141 18 -212q1 -35 -13 -56.5t-44 -21.5q-31 0 -44.5 21t-11.5 57q4 78 18 232q10 101 14 161q7 20 24 20q16 0 23 -20z" />
    <glyph glyph-name="cent" unicode="&#xa2;" horiz-adv-x="493" 
d="M459 128.5q4 -7.5 1 -16.5q-24 -53 -71 -86t-115 -37v-44q0 -4 -4.5 -6t-10.5 -2t-11 2t-5 6v45q-65 4 -113 37.5t-73 88t-25 120.5q0 68 27.5 122.5t76 87t107.5 36.5v55q0 7 16 7q15 0 15 -7v-56q44 -3 83.5 -22t63.5 -50.5t24 -70.5q0 -17 -9 -28.5t-26 -11.5
q-37 0 -48 42q-3 39 -24 65t-64 32v-386h11q46 0 83 20.5t62 53.5q7 11 15 11q10 0 14 -7.5zM153 129q31 -57 90 -73v381q-51 -5 -86 -51.5t-35 -119.5q0 -80 31 -137z" />
    <glyph glyph-name="sterling" unicode="&#xa3;" horiz-adv-x="574" 
d="M552 196.5q4 -6.5 4 -16.5q0 -85 -43.5 -137.5t-117.5 -52.5q-33 0 -70.5 9t-94.5 26l-35 10q-6 3 -10 3q-5 0 -8 -5q-16 -20 -31 -30t-36 -10q-24 0 -41.5 16t-17.5 39t14 36.5t37 13.5q18 0 33 -3h4q8 0 12 9q16 33 26.5 78t10.5 89q0 13 -1 20h-72q-29 0 -29 14
q0 12 9.5 20t27.5 8h60q-7 42 -18 81q-10 43 -15 69.5t-5 53.5q0 49 23 88.5t66 62.5t99 23q86 0 137 -49t51 -129q0 -22 -11 -34.5t-29 -12.5q-17 0 -28 12t-11 31q0 62 -27 96.5t-81 34.5q-53 0 -85 -34t-32 -83q0 -23 4.5 -47.5t14.5 -61.5q17 -67 22 -101h92
q12 0 20 -3.5t8 -10.5q0 -12 -9.5 -20t-26.5 -8h-80v-20q0 -44 -14.5 -93t-32.5 -85q-2 -4 -2 -6q0 -6 8 -8q10 -1 72 -12q25 -5 51.5 -9.5t49.5 -4.5q56 0 90 32.5t40 96.5q2 10 5 15.5t11 5.5t12 -6.5z" />
    <glyph glyph-name="currency" unicode="&#xa4;" horiz-adv-x="542" 
d="M43 133.5q-11 10.5 -11 21.5q0 17 14 29l57 52q11 11 11 19q0 3 -4 15q-11 22 -16 43.5t-5 47.5q0 25 5.5 45.5t18.5 48.5q4 8 4 14t-9 15l-59 55q-14 12 -14 27q0 11 11.5 22.5t22.5 11.5q8 0 13.5 -2.5t13.5 -10.5l59 -61q7 -7 15 -7q6 0 16 4q22 12 42.5 17t47.5 5
q25 0 45 -4.5t43 -14.5q12 -5 16 -5q7 0 17 11l53 57q13 13 27 13q11 0 22 -11.5t11 -22.5q0 -14 -14 -26l-60 -56q-8 -8 -8 -16q0 -6 4 -14q12 -21 17 -42t5 -47q0 -28 -6 -50t-19 -45q-5 -10 -5 -15q0 -7 10 -16l59 -55q14 -12 14 -28q0 -12 -11.5 -22.5t-22.5 -10.5
q-8 0 -13 2t-13 10q-42 46 -60 62q-7 7 -16 7q-6 0 -14 -4q-40 -22 -91 -22q-46 0 -88 19q-12 5 -15 5q-7 0 -17 -10l-53 -58q-13 -13 -28 -13q-11 0 -22 10.5zM360 272q36 36 36 94q0 55 -33.5 89t-86.5 34q-57 0 -93 -35.5t-36 -92.5q0 -55 33.5 -90t86.5 -35q57 0 93 36z
" />
    <glyph glyph-name="yen" unicode="&#xa5;" horiz-adv-x="677" 
d="M672 681q0 -20 -26 -28q-22 -1 -33 -5.5t-17.5 -13t-19.5 -30.5l-169 -287l-2 -3h103q25 0 25 -13q0 -11 -8.5 -18t-22.5 -7h-110q-3 -13 -3 -27v-45h119q25 0 25 -13q0 -11 -8.5 -18t-22.5 -7h-113v-33q0 -35 3.5 -50t16.5 -23t45 -14q23 -8 23 -25q0 -11 -7.5 -16.5
t-26.5 -5.5h-197q-21 0 -29 4.5t-8 17.5q0 16 22 25q31 6 44.5 13.5t17 20.5t3.5 43v43h-122q-27 0 -27 14q0 10 8 17t24 7h117v44q0 11 -5 28h-117q-27 0 -27 14q0 10 8 17t24 7h96l-169 290q-16 28 -32 36.5t-48 10.5q-11 4 -16 9.5t-5 16.5q0 14 10.5 19.5t31.5 4.5
q18 -1 73 -1q84 0 119 1q43 0 43 -21q0 -18 -19 -25q-32 -3 -46 -8.5t-14 -16.5q0 -9 7 -20l145 -246q5 -9 10 -9q6 0 10 9l147 254q5 10 5 16q0 11 -17 16.5t-54 7.5q-14 7 -14 21q0 12 8 17t25 5q35 -1 101 -1q45 0 66 1q30 0 30 -20z" />
    <glyph glyph-name="brokenbar" unicode="&#xa6;" horiz-adv-x="128" 
d="M39.5 317q-7.5 4 -7.5 13v384q0 9 7.5 12.5t24.5 3.5q33 0 33 -16v-384q0 -17 -33 -17q-17 0 -24.5 4zM32 -142v385q0 16 32 16q33 0 33 -16v-385q0 -17 -33 -17q-32 0 -32 17z" />
    <glyph glyph-name="section" unicode="&#xa7;" horiz-adv-x="469" 
d="M181 -75q-26 11 -51 29q-14 11 -19 11t-7 -6t-3 -13q-2 -13 -5 -20t-12 -7q-7 0 -11.5 5t-8.5 18q-3 24 -15 80q-3 15 -7.5 39t-5.5 36q-1 2 -1 6q0 8 6 13.5t13 5.5q13 0 20 -11t19 -53q15 -51 58 -77.5t86 -26.5q53 0 86 26t33 65q0 41 -30.5 67t-93.5 46
q-71 24 -113 45t-65 49t-23 68q0 61 74 129q-71 41 -71 119q0 42 23 74.5t63 50.5t90 18q44 0 72 -11.5t53 -29.5q13 -10 18 -10t7 6t3 14q2 13 5 19.5t11 6.5q7 0 12 -5t9 -19q3 -26 15 -81q10 -47 13 -73l1 -5q0 -9 -6.5 -14.5t-12.5 -5.5q-9 0 -14 4t-11 17t-15 43
q-15 51 -59 77.5t-91 26.5q-52 0 -82.5 -26t-30.5 -65q0 -42 29.5 -67t95.5 -47q71 -24 112.5 -44t65 -48t23.5 -69q0 -35 -20.5 -66.5t-53.5 -63.5q35 -20 53 -47.5t18 -71.5q0 -42 -24.5 -74.5t-66.5 -50t-92 -17.5q-40 0 -66 11zM354 239.5q15 25.5 15 48.5q0 36 -30 60
t-99 47q-52 18 -89 35q-22 -18 -37.5 -43.5t-15.5 -48.5q0 -36 29 -59.5t95 -45.5q52 -18 94 -38q23 19 38 44.5z" />
    <glyph glyph-name="dieresis" unicode="&#xa8;" horiz-adv-x="382" 
d="M47.5 579q-16.5 13 -16.5 35q0 20 16.5 33t44.5 13q27 0 43.5 -13t16.5 -33q0 -22 -16.5 -35t-43.5 -13q-28 0 -44.5 13zM253.5 579q-16.5 13 -16.5 35q0 20 16.5 33t44.5 13q27 0 43 -13t16 -33q0 -22 -16 -35t-43 -13q-28 0 -44.5 13z" />
    <glyph glyph-name="copyright" unicode="&#xa9;" horiz-adv-x="822" 
d="M224 34.5q-82 45.5 -128 127.5t-46 186q0 105 46 187t128 128t187 46t187 -46t128 -128t46 -187q0 -104 -46 -186t-128 -127.5t-187 -45.5t-187 45.5zM580.5 63.5q74.5 41.5 116 115.5t41.5 169t-41.5 169.5t-116 116t-169.5 41.5t-170 -41.5t-116.5 -116t-41.5 -169.5
t41.5 -169t116.5 -115.5t170 -41.5t169.5 41.5zM312 166q-44 28 -67 76t-23 107q0 60 25.5 108t69.5 75t97 27q40 0 75 -15.5t56 -44t21 -65.5q0 -15 -9 -24.5t-25 -9.5q-29 0 -32 41q-1 37 -22.5 62t-67.5 25q-30 0 -56.5 -18.5t-42 -52.5t-15.5 -80q0 -80 34 -131t102 -51
q42 0 73.5 19t52.5 49q4 5 6.5 7t6.5 2q8 0 11.5 -6.5t0.5 -14.5q-22 -49 -64 -81t-105 -32q-58 0 -102 28z" />
    <glyph glyph-name="guillemotleft" unicode="&#xab;" horiz-adv-x="383" 
d="M142 48.5q-8 5.5 -26.5 28.5t-46.5 61q-33 43 -48.5 68.5t-15.5 32.5q0 20 64 104q29 38 47.5 61t26.5 28.5t17 5.5t15.5 -7.5t4.5 -16.5q-8 -15 -39 -63l-19 -31q-20 -31 -33 -53t-13 -28q0 -5 13 -26.5t33 -51.5l22 -34q26 -39 36 -60v-4q0 -8 -6 -14t-14 -6
q-10 0 -18 5.5zM312 48.5q-8 5.5 -26.5 28.5t-46.5 61q-33 43 -48.5 68.5t-15.5 32.5q0 20 64 104q29 38 47.5 61t26.5 28.5t17 5.5t15.5 -7.5t4.5 -16.5q-8 -15 -39 -63l-19 -31q-20 -31 -33 -53t-13 -28q0 -5 13 -26.5t33 -51.5l22 -34q26 -39 36 -60v-4q0 -8 -6 -14
t-14 -6q-10 0 -18 5.5z" />
    <glyph glyph-name="logicalnot" unicode="&#xac;" horiz-adv-x="523" 
d="M333 167q-2 44 -2 95q0 9 -3 13.5t-11 4.5h-167h-42q-19 2 -27.5 8.5t-8.5 21.5q0 11 7 18.5t19 8.5q55 4 143 4q72 0 118 -3q28 -1 30 -33l2 -78q0 -42 -2 -62q-3 -23 -28 -23t-28 25z" />
    <glyph glyph-name="uni00AD" unicode="&#xad;" horiz-adv-x="329" 
d="M58 218q-13 0 -19.5 4t-6.5 14q0 16 8 27t24 11h209q24 0 24 -18q0 -16 -8 -27t-23 -11h-208z" />
    <glyph glyph-name="registered" unicode="&#xae;" horiz-adv-x="576" 
d="M421 676.5q58 -32.5 90.5 -91t32.5 -133.5q0 -74 -32.5 -132t-91 -90.5t-133.5 -32.5q-74 0 -132 32.5t-90.5 90.5t-32.5 132q0 75 32.5 133.5t90.5 91t133 32.5t133 -32.5zM402.5 260q50.5 28 78.5 78t28 114t-28 114.5t-78.5 79t-114.5 28.5t-114.5 -28.5t-78.5 -79
t-28 -114.5t28 -114t78.5 -78t114.5 -28t114.5 28zM423 348.5q7 -0.5 11 -2t4 -7.5q0 -17 -40 -17q-34 0 -44.5 12t-14.5 44q-12 63 -55 63h-21q-9 0 -12.5 -3.5t-3.5 -13.5v-46q0 -14 4.5 -19t20.5 -9q9 -4 9 -13q0 -7 -3.5 -9.5t-13.5 -2.5h-80q-10 0 -13.5 2.5t-3.5 9.5
q0 8 10 13q16 4 20 10t4 21v170q0 16 -4 21t-21 9q-10 6 -10 14q0 11 18 11h37l64 1q59 0 91 -21t32 -60q0 -28 -18.5 -48t-49.5 -29q28 -14 44 -62q5 -16 11 -24t15 -11q6 -3 13 -3.5zM289 467q34 0 50.5 13.5t16.5 37.5q0 63 -69 63h-21q-19 0 -19 -23v-71q0 -10 3.5 -15
t13.5 -5h25z" />
    <glyph glyph-name="macron" unicode="&#xaf;" horiz-adv-x="329" 
d="M35 577.5q-4 2.5 -4 8.5t3 13q4 12 8.5 17.5t14.5 5.5l118 -1l110 1q12 0 12 -10q0 -1 -3 -13q-3 -14 -7.5 -19.5t-15.5 -5.5q-69 1 -222 1q-10 0 -14 2.5z" />
    <glyph glyph-name="degree" unicode="&#xb0;" horiz-adv-x="342" 
d="M71 473.5q-39 38.5 -39 99.5t38.5 99t100.5 38q61 0 100 -38.5t39 -99.5q0 -60 -39 -98.5t-100 -38.5t-100 38.5zM242.5 502q27.5 27 27.5 71q0 43 -28 70t-72 27t-71.5 -27.5t-27.5 -70.5t28 -70t72 -27t71.5 27z" />
    <glyph glyph-name="plusminus" unicode="&#xb1;" horiz-adv-x="444" 
d="M376 99q36 0 36 -19q0 -16 -12 -26.5t-34 -10.5h-296q-19 0 -28.5 4t-9.5 14q0 16 12 27t35 11h124q-8 10 -8 28v107q0 11 -12 11h-111q-17 0 -25 5t-8 19q0 16 9 24t30 8h104q13 0 13 13v111q0 16 9.5 23.5t21.5 7.5q25 0 25 -31v-111q0 -13 10 -13h114q16 0 24 -9.5
t8 -21.5q0 -25 -32 -25h-114q-10 0 -10 -10v-113q0 -15 -4 -23h129z" />
    <glyph glyph-name="acute" unicode="&#xb4;" horiz-adv-x="258" 
d="M32 534q0 11 79 99q28 32 30 35q8 12 19 15.5t31 3.5t27.5 -4t7.5 -13q0 -13 -39 -48.5t-84 -67t-57 -31.5q-14 0 -14 11z" />
    <glyph glyph-name="uni00B5" unicode="&#xb5;" horiz-adv-x="586" 
d="M567.5 34.5q-7.5 -5.5 -21.5 -10.5q-30 -9 -37 -11q-23 -7 -44 -13t-32 -6q-15 0 -21.5 6t-6.5 21v56q0 16 -4 16q-1 0 -11 -27.5t-40 -51.5t-83 -24q-37 0 -64.5 15t-41.5 42q-1 5 -4 5.5t-3 -4.5q0 -24 6 -76q6 -50 6 -74q0 -33 -41 -33q-24 0 -32.5 9t-8.5 28v471
q0 21 -5 29.5t-22 9.5q-11 0 -20 -1t-16 -1q-10 0 -14.5 2.5t-4.5 9.5q0 10 7.5 15t22.5 10q20 6 30 10q65 21 83 21q14 0 20.5 -6t6.5 -21v-257q0 -73 26.5 -108t80.5 -35q31 0 60 18.5t47.5 57t18.5 93.5v153q0 21 -4.5 29.5t-21.5 9.5q-11 0 -20.5 -1t-16.5 -1
q-10 0 -14 2.5t-4 9.5q0 10 7 15t22 10q8 3 17 5.5t18 5.5q60 20 78 20q15 0 21.5 -6t6.5 -21v-353q0 -20 5 -28.5t22 -9.5q10 0 18.5 1t15.5 1q20 0 20 -13q0 -9 -7.5 -14.5z" />
    <glyph glyph-name="paragraph" unicode="&#xb6;" horiz-adv-x="708" 
d="M220 -74q0 17 18 25q10 2 22 3.5t25 4.5q15 3 20 10t5 22l1 310q0 16 -6 21.5t-24 5.5q-131 0 -197 44t-66 149q0 89 55 137t147 48q39 0 101 -2q68 -2 118 -2l145 1q23 1 52 1q19 0 29.5 -7t10.5 -20q0 -17 -23 -25l-40 -8q-22 -6 -22 -34l-1 -622q0 -27 21 -30l41 -8
q10 -4 14 -9t4 -14q0 -22 -27 -25q-72 -3 -193 -3h-131q-58 0 -71 1q-28 4 -28 26zM513 -35q13 8 13 33v600q0 28 -12.5 37.5t-47.5 9.5q-39 0 -52 -8.5t-14 -38.5l1 -601q0 -26 12 -33t50 -7q37 0 50 8z" />
    <glyph glyph-name="periodcentered" unicode="&#xb7;" horiz-adv-x="235" 
d="M68.5 192.5q-16.5 15.5 -16.5 40.5q0 31 20 52t50 21q27 0 44 -17t17 -43q0 -29 -21 -49t-51 -20q-26 0 -42.5 15.5z" />
    <glyph glyph-name="cedilla" unicode="&#xb8;" horiz-adv-x="262" 
d="M79.5 -179q-24.5 8 -39.5 22q-9 7 -9 16q0 4 3 6.5t8 2.5t13 -3q26 -18 68 -18q27 0 43.5 12t16.5 32q0 15 -9.5 23.5t-30.5 18.5t-31 19t-10 26q0 12 5 25l40 -3q-3 -8 -3 -13q0 -12 8.5 -19t26.5 -16q24 -12 37.5 -25t13.5 -37q0 -33 -25.5 -55t-69.5 -22
q-31 0 -55.5 8z" />
    <glyph glyph-name="guillemotright" unicode="&#xbb;" horiz-adv-x="383" 
d="M38 50.5q-7 7.5 -4 16.5q10 21 36 60l22 34q15 24 19 29q4 7 15.5 25.5t11.5 23.5q0 6 -13 28t-33 53l-19 31q-31 48 -39 63q-1 2 -1 5q0 8 6.5 13.5t14.5 5.5q9 0 16.5 -5.5t26.5 -28.5t48 -61q64 -84 64 -104q0 -7 -15.5 -32.5t-48.5 -68.5q-29 -38 -47.5 -61
t-26 -28.5t-17.5 -5.5q-9 0 -16 7.5zM208 50.5q-7 7.5 -4 16.5q17 32 44 73l14 21q15 24 19 29q4 7 15.5 25.5t11.5 23.5q0 6 -13 28t-33 53q-45 70 -58 94q-1 2 -1 5q0 8 6.5 13.5t14.5 5.5q9 0 16.5 -5.5t26.5 -28.5t48 -61q63 -82 63 -104q0 -7 -15 -32.5t-48 -68.5
q-29 -38 -47.5 -61t-26 -28.5t-17.5 -5.5q-9 0 -16 7.5z" />
    <glyph glyph-name="questiondown" unicode="&#xbf;" horiz-adv-x="463" 
d="M295 467q18 -16 18 -41q0 -26 -18 -42.5t-46 -16.5q-29 0 -47.5 17t-18.5 42t18.5 41t47.5 16q28 0 46 -16zM268 305.5q6 -5.5 6 -16.5q0 -39 -13.5 -68t-33 -48.5t-52.5 -45.5q-29 -24 -45.5 -40t-28 -39t-11.5 -52q0 -59 36.5 -93.5t95.5 -34.5q43 0 77 17.5t53.5 48
t19.5 67.5q0 23 11.5 36t30.5 13q18 0 30 -12.5t12 -33.5q0 -49 -30.5 -91t-84.5 -66.5t-121 -24.5q-61 0 -110 20.5t-76.5 58t-27.5 87.5q0 38 14.5 66.5t36 47.5t58.5 45q51 36 78 65.5t34 76.5q10 22 26 22q9 0 15 -5.5z" />
    <glyph glyph-name="Agrave" unicode="&#xc0;" horiz-adv-x="735" 
d="M5 19q0 8 8 14.5t18 9.5q27 3 40.5 9t21.5 18.5t18 39.5l198 512q3 8 3 15q0 20 -23 24q-19 4 -19 21q0 8 7 14t22 6h54q34 0 49 -13.5t25 -37.5q120 -315 211 -547q8 -23 15.5 -33.5t19.5 -15.5t37 -8q20 -5 20 -25q0 -23 -30 -23h-123h-60q-28 0 -40.5 4t-12.5 17
q0 14 17 18q34 4 47 10.5t13 20.5q0 10 -8 32l-33 87q-6 15 -15 22.5t-25 7.5h-219q-23 0 -31 -4.5t-15 -22.5l-33 -85q-10 -27 -10 -38q0 -14 13 -20t45 -8q25 -5 25 -21q0 -21 -34 -21q-23 1 -84 1q-60 0 -82 -1q-30 0 -30 21zM445 265q21 0 21 14q0 6 -2 10l-84 228
l-23 62q-3 11 -8 11q-4 0 -9 -11l-110 -292l-2 -8q0 -14 27 -14h190zM345.5 760.5q-48.5 24.5 -90 53.5t-41.5 42q-1 11 8.5 14.5t36.5 3.5q16 0 24.5 -3t15.5 -12q11 -10 24 -20.5t23 -19.5q27 -22 51.5 -43.5t25.5 -28.5q0 -6 -3.5 -8.5t-11.5 -2.5q-14 0 -62.5 24.5z" />
    <glyph glyph-name="Aacute" unicode="&#xc1;" horiz-adv-x="735" 
d="M5 19q0 8 8 14.5t18 9.5q27 3 40.5 9t21.5 18.5t18 39.5l198 512q3 8 3 15q0 20 -23 24q-19 4 -19 21q0 8 7 14t22 6h54q34 0 49 -13.5t25 -37.5q120 -315 211 -547q8 -23 15.5 -33.5t19.5 -15.5t37 -8q20 -5 20 -25q0 -23 -30 -23h-123h-60q-28 0 -40.5 4t-12.5 17
q0 14 17 18q34 4 47 10.5t13 20.5q0 10 -8 32l-33 87q-6 15 -15 22.5t-25 7.5h-219q-23 0 -31 -4.5t-15 -22.5l-33 -85q-10 -27 -10 -38q0 -14 13 -20t45 -8q25 -5 25 -21q0 -21 -34 -21q-23 1 -84 1q-60 0 -82 -1q-30 0 -30 21zM445 265q21 0 21 14q0 6 -2 10l-84 228
l-23 62q-3 11 -8 11q-4 0 -9 -11l-110 -292l-2 -8q0 -14 27 -14h190zM299.5 738.5q-3.5 2.5 -3.5 8.5q1 7 25.5 28.5t51.5 43.5q10 9 23 19.5t24 20.5q7 9 15.5 12t24.5 3q28 0 37 -3.5t8 -14.5q0 -13 -41.5 -42t-90 -53.5t-62.5 -24.5q-8 0 -11.5 2.5z" />
    <glyph glyph-name="Acircumflex" unicode="&#xc2;" horiz-adv-x="735" 
d="M5 19q0 8 8 14.5t18 9.5q27 3 40.5 9t21.5 18.5t18 39.5l198 512q3 8 3 15q0 20 -23 24q-19 4 -19 21q0 8 7 14t22 6h54q34 0 49 -13.5t25 -37.5q120 -315 211 -547q8 -23 15.5 -33.5t19.5 -15.5t37 -8q20 -5 20 -25q0 -23 -30 -23h-123h-60q-28 0 -40.5 4t-12.5 17
q0 14 17 18q34 4 47 10.5t13 20.5q0 10 -8 32l-33 87q-6 15 -15 22.5t-25 7.5h-219q-23 0 -31 -4.5t-15 -22.5l-33 -85q-10 -27 -10 -38q0 -14 13 -20t45 -8q25 -5 25 -21q0 -21 -34 -21q-23 1 -84 1q-60 0 -82 -1q-30 0 -30 21zM445 265q21 0 21 14q0 6 -2 10l-84 228
l-23 62q-3 11 -8 11q-4 0 -9 -11l-110 -292l-2 -8q0 -14 27 -14h190zM210.5 735.5q-3.5 3.5 -3.5 9.5q0 15 49 65t80 70q12 9 24 9q11 0 25 -9q31 -21 80 -70.5t49 -64.5q0 -6 -3.5 -9.5t-8.5 -3.5q-4 0 -17.5 10t-17.5 13l-17 13q-81 63 -90 63q-5 0 -31 -19t-58 -44
q-8 -5 -28 -20.5t-24 -15.5q-5 0 -8.5 3.5z" />
    <glyph glyph-name="Atilde" unicode="&#xc3;" horiz-adv-x="735" 
d="M5 19q0 8 8 14.5t18 9.5q27 3 40.5 9t21.5 18.5t18 39.5l198 512q3 8 3 15q0 20 -23 24q-19 4 -19 21q0 8 7 14t22 6h54q34 0 49 -13.5t25 -37.5q120 -315 211 -547q8 -23 15.5 -33.5t19.5 -15.5t37 -8q20 -5 20 -25q0 -23 -30 -23h-123h-60q-28 0 -40.5 4t-12.5 17
q0 14 17 18q34 4 47 10.5t13 20.5q0 10 -8 32l-33 87q-6 15 -15 22.5t-25 7.5h-219q-23 0 -31 -4.5t-15 -22.5l-33 -85q-10 -27 -10 -38q0 -14 13 -20t45 -8q25 -5 25 -21q0 -21 -34 -21q-23 1 -84 1q-60 0 -82 -1q-30 0 -30 21zM445 265q21 0 21 14q0 6 -2 10l-84 228
l-23 62q-3 11 -8 11q-4 0 -9 -11l-110 -292l-2 -8q0 -14 27 -14h190zM400 746.5q-18 7.5 -41 20.5l-19 9.5t-27.5 11.5t-24.5 4q-17 0 -28.5 -9.5t-15.5 -26.5q-10 -19 -25 -19q-8 0 -13 5.5t-5 14.5q1 37 23.5 60t56.5 23q23 0 44.5 -8t46.5 -23q23 -12 35 -17.5t25 -5.5
q16 0 27.5 10t16.5 26q9 19 25 19q8 0 13 -5.5t5 -14.5q-1 -37 -23.5 -59.5t-57.5 -22.5q-20 0 -38 7.5z" />
    <glyph glyph-name="Adieresis" unicode="&#xc4;" horiz-adv-x="735" 
d="M5 19q0 8 8 14.5t18 9.5q27 3 40.5 9t21.5 18.5t18 39.5l198 512q3 8 3 15q0 20 -23 24q-19 4 -19 21q0 8 7 14t22 6h54q34 0 49 -13.5t25 -37.5q120 -315 211 -547q8 -23 15.5 -33.5t19.5 -15.5t37 -8q20 -5 20 -25q0 -23 -30 -23h-123h-60q-28 0 -40.5 4t-12.5 17
q0 14 17 18q34 4 47 10.5t13 20.5q0 10 -8 32l-33 87q-6 15 -15 22.5t-25 7.5h-219q-23 0 -31 -4.5t-15 -22.5l-33 -85q-10 -27 -10 -38q0 -14 13 -20t45 -8q25 -5 25 -21q0 -21 -34 -21q-23 1 -84 1q-60 0 -82 -1q-30 0 -30 21zM445 265q21 0 21 14q0 6 -2 10l-84 228
l-23 62q-3 11 -8 11q-4 0 -9 -11l-110 -292l-2 -8q0 -14 27 -14h190zM215.5 748q-16.5 13 -16.5 35q0 20 16.5 33t44.5 13q27 0 43.5 -13t16.5 -33q0 -22 -16.5 -35t-43.5 -13q-28 0 -44.5 13zM421.5 748q-16.5 13 -16.5 35q0 20 16.5 33t44.5 13q27 0 43 -13t16 -33
q0 -22 -16 -35t-43 -13q-28 0 -44.5 13z" />
    <glyph glyph-name="Aring" unicode="&#xc5;" horiz-adv-x="735" 
d="M5 19q0 8 8 14.5t18 9.5q27 3 40.5 9t21.5 18.5t18 39.5l198 512q3 8 3 15q0 20 -23 24q-19 4 -19 21q0 8 7 14t22 6h54q34 0 49 -13.5t25 -37.5q120 -315 211 -547q8 -23 15.5 -33.5t19.5 -15.5t37 -8q20 -5 20 -25q0 -23 -30 -23h-123h-60q-28 0 -40.5 4t-12.5 17
q0 14 17 18q34 4 47 10.5t13 20.5q0 10 -8 32l-33 87q-6 15 -15 22.5t-25 7.5h-219q-23 0 -31 -4.5t-15 -22.5l-33 -85q-10 -27 -10 -38q0 -14 13 -20t45 -8q25 -5 25 -21q0 -21 -34 -21q-23 1 -84 1q-60 0 -82 -1q-30 0 -30 21zM445 265q21 0 21 14q0 6 -2 10l-84 228
l-23 62q-3 11 -8 11q-4 0 -9 -11l-110 -292l-2 -8q0 -14 27 -14h190zM289.5 758q-25.5 21 -25.5 54q0 34 25 55t61 21q37 0 63 -21.5t26 -55.5q0 -33 -26 -53.5t-61 -20.5q-37 0 -62.5 21zM384 778q13 13 13 32q0 20 -13.5 34.5t-32.5 14.5q-20 0 -32.5 -13.5t-12.5 -32.5
t13.5 -33.5t32.5 -14.5t32 13z" />
    <glyph glyph-name="AE" unicode="&#xc6;" horiz-adv-x="1047" 
d="M921 -11q-8 5 -18 8t-30 3l-397 -1q-21 0 -29 4.5t-8 17.5q0 14 22 23q31 6 44 12.5t16.5 17t3.5 31.5v79q0 18 -8 24.5t-26 6.5h-210q-18 0 -27.5 -4t-18.5 -17l-68 -103q-11 -17 -11 -27q0 -12 17 -17t58 -7q9 -1 15.5 -6t6.5 -14q0 -21 -41 -21l-74 1q-36 0 -96 -2
q-21 0 -29 6t-8 16q0 11 7 16.5t21 8.5q29 2 47 13.5t37 42.5l329 519q10 17 10 26q0 8 -5 13t-17 11q-5 8 3 16t31 11q43 4 71 4l294 -1q20 0 29.5 2.5t19.5 8.5q9 7 20 7q10 0 16 -7t13.5 -29t22.5 -75q24 -84 24 -108q0 -14 -5.5 -19t-16.5 -5q-19 0 -30 26
q-22 75 -34 104t-25.5 38.5t-41.5 9.5h-162q-20 0 -28.5 -3.5t-12 -14.5t-3.5 -35v-176q0 -17 4.5 -24t18.5 -7h96q16 0 22.5 5t6.5 18q0 14 -6 42q-1 4 -1 11q0 20 18 20q12 0 18.5 -7t13 -28.5t21.5 -80.5q21 -82 21 -103q0 -12 -4.5 -16t-14.5 -4q-11 0 -16.5 5.5
t-9.5 18.5q-9 34 -14.5 48t-14 19t-24.5 5h-107q-17 0 -22.5 -9t-5.5 -29v-216q0 -21 3 -30t12.5 -12t30.5 -3h204q27 0 42 11.5t26.5 42t29.5 97.5q6 16 12 21.5t16 5.5q12 0 17.5 -6t5.5 -20q0 -25 -24 -106q-15 -52 -22.5 -74.5t-13.5 -29.5t-16 -7t-21 7zM490 262
q21 0 28.5 8t7.5 29v281q0 18 -4.5 27.5t-11.5 9.5q-10 0 -22 -18l-195 -308q-8 -14 -8 -19q0 -10 19 -10h186z" />
    <glyph glyph-name="Ccedilla" unicode="&#xc7;" horiz-adv-x="642" 
d="M597 226q8 0 14.5 -6t5.5 -16q-5 -53 -36.5 -102t-89.5 -80.5t-139 -32.5q-1 -13 7.5 -20t27.5 -17q25 -13 38 -25t13 -37q0 -33 -25.5 -55t-69.5 -22q-31 0 -55.5 8t-39.5 22q-9 7 -9 16q0 4 3 6.5t8 2.5q6 0 13 -3q26 -18 68 -18q27 0 43.5 12t16.5 32q0 15 -9.5 23.5
t-30.5 18.5t-31.5 19t-10.5 26q0 3 2 13q-79 10 -142.5 57.5t-100 126.5t-36.5 181q0 98 40 179.5t111 128.5t162 47q50 0 96 -15.5t82 -43.5q13 -10 35 -34q20 -26 29 -47q16 -30 16 -65q0 -23 -13 -39t-39 -16q-20 0 -34.5 13t-25.5 46q0 64 -43 107t-113 43
q-58 0 -104 -33t-72.5 -92t-26.5 -135q0 -92 29 -167t84.5 -118.5t132.5 -43.5q82 0 135 39t65 103q4 13 19 13z" />
    <glyph glyph-name="Egrave" unicode="&#xc8;" horiz-adv-x="638" 
d="M604 219.5q5 -5.5 5 -18.5q0 -25 -21 -108q-12 -50 -20.5 -73.5t-15.5 -30.5t-17 -7q-9 0 -14 2.5t-6 3.5q-8 6 -18 9t-31 3q-191 0 -264 -0.5t-97 -0.5h-36q-21 0 -29 4.5t-8 17.5q0 16 22 25q31 6 44.5 13.5t17.5 21t4 42.5v454q0 29 -4 42.5t-17.5 21t-44.5 13.5
q-22 9 -22 25q0 11 7.5 16.5t26.5 5.5h30q20 0 85.5 -0.5t245.5 -0.5q20 0 29.5 2.5t19.5 8.5q9 7 20 7q9 0 16 -7t15.5 -31t20.5 -73q22 -84 22 -109q0 -13 -5 -18t-15 -5q-21 0 -30 26q-23 75 -35 104t-25.5 38.5t-41.5 9.5h-161q-20 0 -29 -3.5t-12.5 -14.5t-3.5 -35
v-173q0 -19 4.5 -28t18.5 -9h98q20 0 28 6t8 24q0 5 -4 35q-2 12 3.5 20t16.5 8t17 -7.5t11 -31.5t13 -79q9 -61 9 -85q0 -19 -5 -25.5t-15 -6.5q-21 0 -23 24q-6 33 -12 48.5t-14.5 20.5t-24.5 5h-105q-15 0 -19.5 -8t-4.5 -29v-217q0 -21 3 -30t12.5 -12t30.5 -3h205
q26 0 41 11.5t27 42t29 97.5q5 15 12 21t17 6t15 -5.5zM282.5 760.5q-48.5 24.5 -90 53.5t-41.5 42q-1 11 8.5 14.5t36.5 3.5q16 0 24.5 -3t15.5 -12q11 -10 24 -20.5t23 -19.5q27 -22 51.5 -43.5t25.5 -28.5q0 -6 -3.5 -8.5t-11.5 -2.5q-14 0 -62.5 24.5z" />
    <glyph glyph-name="Eacute" unicode="&#xc9;" horiz-adv-x="638" 
d="M604 219.5q5 -5.5 5 -18.5q0 -25 -21 -108q-12 -50 -20.5 -73.5t-15.5 -30.5t-17 -7q-9 0 -14 2.5t-6 3.5q-8 6 -18 9t-31 3q-191 0 -264 -0.5t-97 -0.5h-36q-21 0 -29 4.5t-8 17.5q0 16 22 25q31 6 44.5 13.5t17.5 21t4 42.5v454q0 29 -4 42.5t-17.5 21t-44.5 13.5
q-22 9 -22 25q0 11 7.5 16.5t26.5 5.5h30q20 0 85.5 -0.5t245.5 -0.5q20 0 29.5 2.5t19.5 8.5q9 7 20 7q9 0 16 -7t15.5 -31t20.5 -73q22 -84 22 -109q0 -13 -5 -18t-15 -5q-21 0 -30 26q-23 75 -35 104t-25.5 38.5t-41.5 9.5h-161q-20 0 -29 -3.5t-12.5 -14.5t-3.5 -35
v-173q0 -19 4.5 -28t18.5 -9h98q20 0 28 6t8 24q0 5 -4 35q-2 12 3.5 20t16.5 8t17 -7.5t11 -31.5t13 -79q9 -61 9 -85q0 -19 -5 -25.5t-15 -6.5q-21 0 -23 24q-6 33 -12 48.5t-14.5 20.5t-24.5 5h-105q-15 0 -19.5 -8t-4.5 -29v-217q0 -21 3 -30t12.5 -12t30.5 -3h205
q26 0 41 11.5t27 42t29 97.5q5 15 12 21t17 6t15 -5.5zM236.5 738.5q-3.5 2.5 -3.5 8.5q1 7 25.5 28.5t51.5 43.5q10 9 23 19.5t24 20.5q7 9 15.5 12t24.5 3q28 0 37 -3.5t8 -14.5q0 -13 -41.5 -42t-90 -53.5t-62.5 -24.5q-8 0 -11.5 2.5z" />
    <glyph glyph-name="Ecircumflex" unicode="&#xca;" horiz-adv-x="638" 
d="M604 219.5q5 -5.5 5 -18.5q0 -25 -21 -108q-12 -50 -20.5 -73.5t-15.5 -30.5t-17 -7q-9 0 -14 2.5t-6 3.5q-8 6 -18 9t-31 3q-191 0 -264 -0.5t-97 -0.5h-36q-21 0 -29 4.5t-8 17.5q0 16 22 25q31 6 44.5 13.5t17.5 21t4 42.5v454q0 29 -4 42.5t-17.5 21t-44.5 13.5
q-22 9 -22 25q0 11 7.5 16.5t26.5 5.5h30q20 0 85.5 -0.5t245.5 -0.5q20 0 29.5 2.5t19.5 8.5q9 7 20 7q9 0 16 -7t15.5 -31t20.5 -73q22 -84 22 -109q0 -13 -5 -18t-15 -5q-21 0 -30 26q-23 75 -35 104t-25.5 38.5t-41.5 9.5h-161q-20 0 -29 -3.5t-12.5 -14.5t-3.5 -35
v-173q0 -19 4.5 -28t18.5 -9h98q20 0 28 6t8 24q0 5 -4 35q-2 12 3.5 20t16.5 8t17 -7.5t11 -31.5t13 -79q9 -61 9 -85q0 -19 -5 -25.5t-15 -6.5q-21 0 -23 24q-6 33 -12 48.5t-14.5 20.5t-24.5 5h-105q-15 0 -19.5 -8t-4.5 -29v-217q0 -21 3 -30t12.5 -12t30.5 -3h205
q26 0 41 11.5t27 42t29 97.5q5 15 12 21t17 6t15 -5.5zM147.5 735.5q-3.5 3.5 -3.5 9.5q0 15 49 65t80 70q12 9 24 9q11 0 25 -9q31 -21 80 -70.5t49 -64.5q0 -6 -3.5 -9.5t-8.5 -3.5q-4 0 -17.5 10t-17.5 13l-17 13q-81 63 -90 63q-5 0 -31 -19t-58 -44q-8 -5 -28 -20.5
t-24 -15.5q-5 0 -8.5 3.5z" />
    <glyph glyph-name="Edieresis" unicode="&#xcb;" horiz-adv-x="638" 
d="M604 219.5q5 -5.5 5 -18.5q0 -25 -21 -108q-12 -50 -20.5 -73.5t-15.5 -30.5t-17 -7q-9 0 -14 2.5t-6 3.5q-8 6 -18 9t-31 3q-191 0 -264 -0.5t-97 -0.5h-36q-21 0 -29 4.5t-8 17.5q0 16 22 25q31 6 44.5 13.5t17.5 21t4 42.5v454q0 29 -4 42.5t-17.5 21t-44.5 13.5
q-22 9 -22 25q0 11 7.5 16.5t26.5 5.5h30q20 0 85.5 -0.5t245.5 -0.5q20 0 29.5 2.5t19.5 8.5q9 7 20 7q9 0 16 -7t15.5 -31t20.5 -73q22 -84 22 -109q0 -13 -5 -18t-15 -5q-21 0 -30 26q-23 75 -35 104t-25.5 38.5t-41.5 9.5h-161q-20 0 -29 -3.5t-12.5 -14.5t-3.5 -35
v-173q0 -19 4.5 -28t18.5 -9h98q20 0 28 6t8 24q0 5 -4 35q-2 12 3.5 20t16.5 8t17 -7.5t11 -31.5t13 -79q9 -61 9 -85q0 -19 -5 -25.5t-15 -6.5q-21 0 -23 24q-6 33 -12 48.5t-14.5 20.5t-24.5 5h-105q-15 0 -19.5 -8t-4.5 -29v-217q0 -21 3 -30t12.5 -12t30.5 -3h205
q26 0 41 11.5t27 42t29 97.5q5 15 12 21t17 6t15 -5.5zM152.5 748q-16.5 13 -16.5 35q0 20 16.5 33t44.5 13q27 0 43.5 -13t16.5 -33q0 -22 -16.5 -35t-43.5 -13q-28 0 -44.5 13zM358.5 748q-16.5 13 -16.5 35q0 20 16.5 33t44.5 13q27 0 43 -13t16 -33q0 -22 -16 -35
t-43 -13q-28 0 -44.5 13z" />
    <glyph glyph-name="Igrave" unicode="&#xcc;" horiz-adv-x="332" 
d="M69 -1q-21 0 -29 4.5t-8 17.5q0 16 22 25q31 6 44.5 13.5t17.5 21t4 42.5v454q0 29 -4 42.5t-17.5 21t-44.5 13.5q-10 3 -16 9.5t-6 15.5q0 13 8 17.5t29 4.5q48 0 61 -1h28h16l89 1q21 0 29 -4.5t8 -17.5q0 -16 -22 -25q-31 -6 -44.5 -13.5t-17.5 -21t-4 -42.5v-454
q0 -29 4 -42.5t17.5 -21t44.5 -13.5q10 -3 16.5 -9.5t6.5 -15.5q0 -13 -8 -17.5t-29 -4.5q-49 0 -62 1h-27h-17zM152.5 760.5q-48.5 24.5 -90 53.5t-41.5 42q-1 11 8.5 14.5t36.5 3.5q16 0 24.5 -3t15.5 -12q11 -10 24 -20.5t23 -19.5q27 -22 51.5 -43.5t25.5 -28.5
q0 -6 -3.5 -8.5t-11.5 -2.5q-14 0 -62.5 24.5z" />
    <glyph glyph-name="Iacute" unicode="&#xcd;" horiz-adv-x="332" 
d="M69 -1q-21 0 -29 4.5t-8 17.5q0 16 22 25q31 6 44.5 13.5t17.5 21t4 42.5v454q0 29 -4 42.5t-17.5 21t-44.5 13.5q-10 3 -16 9.5t-6 15.5q0 13 8 17.5t29 4.5q48 0 61 -1h28h16l89 1q21 0 29 -4.5t8 -17.5q0 -16 -22 -25q-31 -6 -44.5 -13.5t-17.5 -21t-4 -42.5v-454
q0 -29 4 -42.5t17.5 -21t44.5 -13.5q10 -3 16.5 -9.5t6.5 -15.5q0 -13 -8 -17.5t-29 -4.5q-49 0 -62 1h-27h-17zM106.5 738.5q-3.5 2.5 -3.5 8.5q1 7 25.5 28.5t51.5 43.5q10 9 23 19.5t24 20.5q7 9 15.5 12t24.5 3q28 0 37 -3.5t8 -14.5q0 -13 -41.5 -42t-90 -53.5
t-62.5 -24.5q-8 0 -11.5 2.5z" />
    <glyph glyph-name="Icircumflex" unicode="&#xce;" horiz-adv-x="332" 
d="M69 -1q-21 0 -29 4.5t-8 17.5q0 16 22 25q31 6 44.5 13.5t17.5 21t4 42.5v454q0 29 -4 42.5t-17.5 21t-44.5 13.5q-10 3 -16 9.5t-6 15.5q0 13 8 17.5t29 4.5q48 0 61 -1h28h16l89 1q21 0 29 -4.5t8 -17.5q0 -16 -22 -25q-31 -6 -44.5 -13.5t-17.5 -21t-4 -42.5v-454
q0 -29 4 -42.5t17.5 -21t44.5 -13.5q10 -3 16.5 -9.5t6.5 -15.5q0 -13 -8 -17.5t-29 -4.5q-49 0 -62 1h-27h-17zM16.5 735.5q-3.5 3.5 -3.5 9.5q0 15 49 65t80 70q12 9 24 9q11 0 25 -9q31 -21 80 -70.5t49 -64.5q0 -6 -3.5 -9.5t-8.5 -3.5q-4 0 -17.5 10t-17.5 13l-17 13
q-81 63 -90 63q-5 0 -31 -19t-58 -44q-8 -5 -28 -20.5t-24 -15.5q-5 0 -8.5 3.5z" />
    <glyph glyph-name="Idieresis" unicode="&#xcf;" horiz-adv-x="332" 
d="M69 -1q-21 0 -29 4.5t-8 17.5q0 16 22 25q31 6 44.5 13.5t17.5 21t4 42.5v454q0 29 -4 42.5t-17.5 21t-44.5 13.5q-10 3 -16 9.5t-6 15.5q0 13 8 17.5t29 4.5q48 0 61 -1h28h16l89 1q21 0 29 -4.5t8 -17.5q0 -16 -22 -25q-31 -6 -44.5 -13.5t-17.5 -21t-4 -42.5v-454
q0 -29 4 -42.5t17.5 -21t44.5 -13.5q10 -3 16.5 -9.5t6.5 -15.5q0 -13 -8 -17.5t-29 -4.5q-49 0 -62 1h-27h-17zM22.5 748q-16.5 13 -16.5 35q0 20 16.5 33t44.5 13q27 0 43.5 -13t16.5 -33q0 -22 -16.5 -35t-43.5 -13q-28 0 -44.5 13zM228.5 748q-16.5 13 -16.5 35
q0 20 16.5 33t44.5 13q27 0 43 -13t16 -33q0 -22 -16 -35t-43 -13q-28 0 -44.5 13z" />
    <glyph glyph-name="Eth" unicode="&#xd0;" horiz-adv-x="707" 
d="M475.5 662q95.5 -42 147.5 -123.5t52 -196.5q0 -167 -100.5 -256.5t-283.5 -89.5q-50 0 -128 2l-94 1q-21 0 -29 4.5t-8 17.5q0 16 22 25q31 6 44.5 13.5t17.5 21t4 42.5v189q0 6 -3.5 9.5t-8.5 3.5h-52q-19 0 -19 22t19 22h52q12 0 12 14v194q0 30 -4 43t-17 20.5
t-45 13.5q-22 9 -22 25q0 13 8 17.5t29 4.5q38 0 102 2l79 1q130 0 225.5 -42zM505 124q70 79 70 221q0 99 -40.5 169.5t-113 106.5t-168.5 36q-24 0 -32.5 -8t-8.5 -31v-235q0 -15 11 -15h153q19 0 19 -21q0 -22 -19 -22h-153q-4 0 -7.5 -2.5t-3.5 -8.5v-226q0 -27 20 -35
t70 -8q133 0 203 79z" />
    <glyph glyph-name="Ntilde" unicode="&#xd1;" horiz-adv-x="747" 
d="M64 -1q-17 0 -24.5 5t-7.5 15q0 18 20 23q35 4 48 11.5t16.5 28.5t3.5 77v408q0 41 -3.5 57.5t-16 23.5t-45.5 11q-23 7 -23 23q0 10 7 14.5t27 4.5h111q13 0 20.5 -3t12.5 -10l360 -510q6 -9 14 -9t8 15v382q0 42 -3.5 58t-16 23t-45.5 11q-23 5 -23 24q0 10 7 14.5
t27 4.5h158q17 0 24.5 -5t7.5 -15q0 -18 -20 -23q-35 -4 -47.5 -11.5t-16.5 -29t-4 -76.5v-521q0 -11 -6 -16.5t-15 -5.5q-10 0 -16 4t-12 12l-406 559q-5 5 -10 5q-7 0 -7 -10v-434q0 -42 3.5 -58.5t16.5 -23.5t45 -11q12 -3 17.5 -8.5t5.5 -14.5q0 -10 -7.5 -15t-26.5 -5z
M415 746.5q-18 7.5 -41 20.5l-19 9.5t-27.5 11.5t-24.5 4q-17 0 -28.5 -9.5t-15.5 -26.5q-10 -19 -25 -19q-8 0 -13 5.5t-5 14.5q1 37 23.5 60t56.5 23q23 0 44.5 -8t46.5 -23q23 -12 35 -17.5t25 -5.5q16 0 27.5 10t16.5 26q9 19 25 19q8 0 13 -5.5t5 -14.5
q-1 -37 -23.5 -59.5t-57.5 -22.5q-20 0 -38 7.5z" />
    <glyph glyph-name="Ograve" unicode="&#xd2;" horiz-adv-x="731" 
d="M195 34q-76 45 -119.5 127.5t-43.5 190.5q0 101 41.5 183t117 129t174.5 47q95 0 171 -44.5t119.5 -126.5t43.5 -189q0 -102 -41.5 -184.5t-117.5 -130t-175 -47.5q-94 0 -170 45zM489.5 72q49.5 32 79 93t29.5 144q0 89 -31.5 170t-88 131t-128.5 50q-60 0 -110 -31.5
t-79 -92t-29 -142.5q0 -90 31.5 -171.5t88 -132t128.5 -50.5q60 0 109.5 32zM347.5 760.5q-48.5 24.5 -90 53.5t-41.5 42q-1 11 8.5 14.5t36.5 3.5q16 0 24.5 -3t15.5 -12q11 -10 24 -20.5t23 -19.5q27 -22 51.5 -43.5t25.5 -28.5q0 -6 -3.5 -8.5t-11.5 -2.5
q-14 0 -62.5 24.5z" />
    <glyph glyph-name="Oacute" unicode="&#xd3;" horiz-adv-x="731" 
d="M195 34q-76 45 -119.5 127.5t-43.5 190.5q0 101 41.5 183t117 129t174.5 47q95 0 171 -44.5t119.5 -126.5t43.5 -189q0 -102 -41.5 -184.5t-117.5 -130t-175 -47.5q-94 0 -170 45zM489.5 72q49.5 32 79 93t29.5 144q0 89 -31.5 170t-88 131t-128.5 50q-60 0 -110 -31.5
t-79 -92t-29 -142.5q0 -90 31.5 -171.5t88 -132t128.5 -50.5q60 0 109.5 32zM301.5 738.5q-3.5 2.5 -3.5 8.5q1 7 25.5 28.5t51.5 43.5q10 9 23 19.5t24 20.5q7 9 15.5 12t24.5 3q28 0 37 -3.5t8 -14.5q0 -13 -41.5 -42t-90 -53.5t-62.5 -24.5q-8 0 -11.5 2.5z" />
    <glyph glyph-name="Ocircumflex" unicode="&#xd4;" horiz-adv-x="731" 
d="M195 34q-76 45 -119.5 127.5t-43.5 190.5q0 101 41.5 183t117 129t174.5 47q95 0 171 -44.5t119.5 -126.5t43.5 -189q0 -102 -41.5 -184.5t-117.5 -130t-175 -47.5q-94 0 -170 45zM489.5 72q49.5 32 79 93t29.5 144q0 89 -31.5 170t-88 131t-128.5 50q-60 0 -110 -31.5
t-79 -92t-29 -142.5q0 -90 31.5 -171.5t88 -132t128.5 -50.5q60 0 109.5 32zM212.5 735.5q-3.5 3.5 -3.5 9.5q0 15 49 65t80 70q12 9 24 9q11 0 25 -9q31 -21 80 -70.5t49 -64.5q0 -6 -3.5 -9.5t-8.5 -3.5q-4 0 -17.5 10t-17.5 13l-17 13q-81 63 -90 63q-5 0 -31 -19
t-58 -44q-8 -5 -28 -20.5t-24 -15.5q-5 0 -8.5 3.5z" />
    <glyph glyph-name="Otilde" unicode="&#xd5;" horiz-adv-x="731" 
d="M195 34q-76 45 -119.5 127.5t-43.5 190.5q0 101 41.5 183t117 129t174.5 47q95 0 171 -44.5t119.5 -126.5t43.5 -189q0 -102 -41.5 -184.5t-117.5 -130t-175 -47.5q-94 0 -170 45zM489.5 72q49.5 32 79 93t29.5 144q0 89 -31.5 170t-88 131t-128.5 50q-60 0 -110 -31.5
t-79 -92t-29 -142.5q0 -90 31.5 -171.5t88 -132t128.5 -50.5q60 0 109.5 32zM402 746.5q-18 7.5 -41 20.5l-19 9.5t-27.5 11.5t-24.5 4q-17 0 -28.5 -9.5t-15.5 -26.5q-10 -19 -25 -19q-8 0 -13 5.5t-5 14.5q1 37 23.5 60t56.5 23q23 0 44.5 -8t46.5 -23q23 -12 35 -17.5
t25 -5.5q16 0 27.5 10t16.5 26q9 19 25 19q8 0 13 -5.5t5 -14.5q-1 -37 -23.5 -59.5t-57.5 -22.5q-20 0 -38 7.5z" />
    <glyph glyph-name="Odieresis" unicode="&#xd6;" horiz-adv-x="731" 
d="M195 34q-76 45 -119.5 127.5t-43.5 190.5q0 101 41.5 183t117 129t174.5 47q95 0 171 -44.5t119.5 -126.5t43.5 -189q0 -102 -41.5 -184.5t-117.5 -130t-175 -47.5q-94 0 -170 45zM489.5 72q49.5 32 79 93t29.5 144q0 89 -31.5 170t-88 131t-128.5 50q-60 0 -110 -31.5
t-79 -92t-29 -142.5q0 -90 31.5 -171.5t88 -132t128.5 -50.5q60 0 109.5 32zM217.5 748q-16.5 13 -16.5 35q0 20 16.5 33t44.5 13q27 0 43.5 -13t16.5 -33q0 -22 -16.5 -35t-43.5 -13q-28 0 -44.5 13zM423.5 748q-16.5 13 -16.5 35q0 20 16.5 33t44.5 13q27 0 43 -13t16 -33
q0 -22 -16 -35t-43 -13q-28 0 -44.5 13z" />
    <glyph glyph-name="multiply" unicode="&#xd7;" horiz-adv-x="344" 
d="M35 127q0 14 15 29l75 75q4 4 4 8q0 3 -5 8l-78 79q-14 14 -14 24q0 8 8 16q11 11 21 11q12 0 28 -16l74 -73q5 -5 9 -5q5 0 10 5l78 78q10 10 22 10q14 0 22 -10q9 -9 9 -17q0 -9 -13 -22l-79 -79q-9 -10 -2 -17l81 -80q10 -10 10 -22t-10 -22q-8 -8 -17 -8
q-11 0 -23 12l-81 81q-3 3 -6 3t-8 -3l-79 -80q-16 -14 -24 -14t-17 9q-10 10 -10 20z" />
    <glyph glyph-name="Oslash" unicode="&#xd8;" horiz-adv-x="731" 
d="M614 601q41 -47 63 -110.5t22 -139.5q0 -102 -41.5 -184.5t-117.5 -130t-175 -47.5q-61 0 -115 19t-97 55l-45 -53q-4 -4 -9 -4q-13 0 -27 13.5t-6 22.5l50 58q-40 48 -62 112t-22 140q0 101 41.5 183t117 129t174.5 47q61 0 115 -18.5t97 -54.5l45 52q3 4 9 4
q13 0 26.5 -13.5t5.5 -21.5zM145 280.5q13 -55.5 38 -101.5l335 389q-33 44 -76 68t-92 24q-60 0 -110 -31.5t-79 -92t-29 -142.5q0 -58 13 -113.5zM489.5 72q49.5 32 79 93t29.5 144q0 57 -13 112.5t-38 101.5l-334 -391q33 -44 75.5 -68t91.5 -24q60 0 109.5 32z" />
    <glyph glyph-name="Ugrave" unicode="&#xd9;" horiz-adv-x="740" 
d="M169 53q-70 64 -70 191v323q0 35 -4 50t-17 23t-44 14q-22 8 -22 26q0 10 8 15.5t27 5.5l197 -1q20 0 28 -4.5t8 -17.5q0 -17 -22 -24q-32 -7 -45.5 -14t-17.5 -20.5t-4 -42.5v-326q0 -98 51.5 -149.5t150.5 -51.5q96 0 147.5 49t51.5 139v316q0 43 -4.5 61t-17 25.5
t-43.5 12.5q-23 9 -23 25q0 12 9 17t28 5h71q47 0 79 1q37 0 37 -22q0 -16 -22 -25q-31 -5 -44 -13t-17.5 -26.5t-4.5 -60.5v-307q0 -129 -67 -193.5t-197 -64.5q-137 0 -207 64zM362.5 760.5q-48.5 24.5 -90 53.5t-41.5 42q-1 11 8.5 14.5t36.5 3.5q16 0 24.5 -3t15.5 -12
q11 -10 24 -20.5t23 -19.5q27 -22 51.5 -43.5t25.5 -28.5q0 -6 -3.5 -8.5t-11.5 -2.5q-14 0 -62.5 24.5z" />
    <glyph glyph-name="Uacute" unicode="&#xda;" horiz-adv-x="740" 
d="M169 53q-70 64 -70 191v323q0 35 -4 50t-17 23t-44 14q-22 8 -22 26q0 10 8 15.5t27 5.5l197 -1q20 0 28 -4.5t8 -17.5q0 -17 -22 -24q-32 -7 -45.5 -14t-17.5 -20.5t-4 -42.5v-326q0 -98 51.5 -149.5t150.5 -51.5q96 0 147.5 49t51.5 139v316q0 43 -4.5 61t-17 25.5
t-43.5 12.5q-23 9 -23 25q0 12 9 17t28 5h71q47 0 79 1q37 0 37 -22q0 -16 -22 -25q-31 -5 -44 -13t-17.5 -26.5t-4.5 -60.5v-307q0 -129 -67 -193.5t-197 -64.5q-137 0 -207 64zM316.5 738.5q-3.5 2.5 -3.5 8.5q1 7 25.5 28.5t51.5 43.5q10 9 23 19.5t24 20.5q7 9 15.5 12
t24.5 3q28 0 37 -3.5t8 -14.5q0 -13 -41.5 -42t-90 -53.5t-62.5 -24.5q-8 0 -11.5 2.5z" />
    <glyph glyph-name="Ucircumflex" unicode="&#xdb;" horiz-adv-x="740" 
d="M169 53q-70 64 -70 191v323q0 35 -4 50t-17 23t-44 14q-22 8 -22 26q0 10 8 15.5t27 5.5l197 -1q20 0 28 -4.5t8 -17.5q0 -17 -22 -24q-32 -7 -45.5 -14t-17.5 -20.5t-4 -42.5v-326q0 -98 51.5 -149.5t150.5 -51.5q96 0 147.5 49t51.5 139v316q0 43 -4.5 61t-17 25.5
t-43.5 12.5q-23 9 -23 25q0 12 9 17t28 5h71q47 0 79 1q37 0 37 -22q0 -16 -22 -25q-31 -5 -44 -13t-17.5 -26.5t-4.5 -60.5v-307q0 -129 -67 -193.5t-197 -64.5q-137 0 -207 64zM227.5 735.5q-3.5 3.5 -3.5 9.5q0 15 49 65t80 70q12 9 24 9q11 0 25 -9q31 -21 80 -70.5
t49 -64.5q0 -6 -3.5 -9.5t-8.5 -3.5q-4 0 -17.5 10t-17.5 13l-17 13q-81 63 -90 63q-5 0 -31 -19t-58 -44q-8 -5 -28 -20.5t-24 -15.5q-5 0 -8.5 3.5z" />
    <glyph glyph-name="Udieresis" unicode="&#xdc;" horiz-adv-x="740" 
d="M169 53q-70 64 -70 191v323q0 35 -4 50t-17 23t-44 14q-22 8 -22 26q0 10 8 15.5t27 5.5l197 -1q20 0 28 -4.5t8 -17.5q0 -17 -22 -24q-32 -7 -45.5 -14t-17.5 -20.5t-4 -42.5v-326q0 -98 51.5 -149.5t150.5 -51.5q96 0 147.5 49t51.5 139v316q0 43 -4.5 61t-17 25.5
t-43.5 12.5q-23 9 -23 25q0 12 9 17t28 5h71q47 0 79 1q37 0 37 -22q0 -16 -22 -25q-31 -5 -44 -13t-17.5 -26.5t-4.5 -60.5v-307q0 -129 -67 -193.5t-197 -64.5q-137 0 -207 64zM232.5 748q-16.5 13 -16.5 35q0 20 16.5 33t44.5 13q27 0 43.5 -13t16.5 -33q0 -22 -16.5 -35
t-43.5 -13q-28 0 -44.5 13zM438.5 748q-16.5 13 -16.5 35q0 20 16.5 33t44.5 13q27 0 43 -13t16 -33q0 -22 -16 -35t-43 -13q-28 0 -44.5 13z" />
    <glyph glyph-name="Yacute" unicode="&#xdd;" horiz-adv-x="677" 
d="M217 3.5q-8 4.5 -8 17.5q0 16 22 25q31 6 44.5 13.5t17 20.5t3.5 43v125q0 29 -20 64l-170 292q-16 29 -30.5 37t-48.5 11q-22 5 -22 25q0 14 10 19t32 5h125h67q43 0 43 -21q0 -18 -19 -25q-32 -3 -46 -8.5t-14 -16.5q0 -9 7 -20l145 -246q5 -9 10 -9q6 0 10 9l147 254
q5 10 5 16q0 11 -17 16.5t-54 7.5q-14 7 -14 21q0 12 8 17t25 5h59h108q30 0 30 -20t-26 -28q-22 -1 -33 -5.5t-17.5 -13t-19.5 -30.5l-169 -287q-18 -32 -18 -68v-116q0 -35 3.5 -50t16.5 -23t45 -14q23 -8 23 -25q0 -11 -7.5 -16.5t-26.5 -5.5h-197q-21 0 -29 4.5z
M293.5 738.5q-3.5 2.5 -3.5 8.5q1 7 25.5 28.5t51.5 43.5q10 9 23 19.5t24 20.5q7 9 15.5 12t24.5 3q28 0 37 -3.5t8 -14.5q0 -13 -41.5 -42t-90 -53.5t-62.5 -24.5q-8 0 -11.5 2.5z" />
    <glyph glyph-name="Thorn" unicode="&#xde;" horiz-adv-x="598" 
d="M40 3.5q-8 4.5 -8 17.5q0 16 22 25q31 6 44.5 13.5t17.5 21t4 42.5v444q0 35 -4 50t-17 23t-45 15q-22 10 -22 26q0 10 7.5 15t26.5 5h199q21 0 29 -4.5t8 -17.5q0 -18 -22 -23q-30 -4 -43.5 -10.5t-17.5 -17t-4 -30.5v-32q0 -12 6 -18t21 -6h67q134 0 202.5 -47.5
t68.5 -140.5q0 -89 -65 -135t-192 -46h-80q-31 0 -31 -39v-23q0 -27 4 -38.5t17 -17.5t44 -10q23 -7 23 -25q0 -11 -7.5 -16t-26.5 -5h-197q-21 0 -29 4.5zM311 223q81 0 124.5 34t43.5 98q0 66 -44 101.5t-126 35.5h-62q-35 0 -35 -33v-206q0 -30 33 -30h66z" />
    <glyph glyph-name="germandbls" unicode="&#xdf;" horiz-adv-x="589" 
d="M81 -1l-34 -1q-26 0 -37 5t-11 18q0 15 21 20q27 5 38.5 14t15 27t3.5 58v48v318q0 99 52.5 152t159.5 53q79 0 131 -41.5t52 -108.5q0 -47 -23.5 -81.5t-63.5 -52.5q-7 -4 -7 -8q0 -3 8 -6q75 -19 123 -78t48 -138q0 -69 -28 -116t-72 -69.5t-93 -22.5q-60 0 -98.5 27.5
t-45.5 68.5q-4 8 -4 17q0 7 3 11.5t7 4.5q6 0 11 -8q8 -33 35.5 -52t70.5 -19q50 0 85 38t35 115q0 57 -25.5 100t-67.5 66t-91 23q-20 0 -26.5 5.5t-6.5 20.5q0 8 6 12.5t20 10.5q119 31 119 133q0 51 -30.5 77t-78.5 26q-56 0 -86 -40t-30 -108v-436q0 -21 12 -39
q7 -12 7 -20q0 -13 -11.5 -18.5t-33.5 -5.5l-25 1q-12 1 -34 -1z" />
    <glyph glyph-name="agrave" unicode="&#xe0;" horiz-adv-x="539" 
d="M75.5 26q-37.5 37 -37.5 97q0 65 54.5 105.5t155.5 43.5q41 1 60 4t25 9.5t4 19.5l-3 25q-7 54 -31 81t-67 27q-45 0 -72 -24.5t-26 -68.5q-2 -19 -14 -29t-31 -10q-14 0 -24.5 10t-10.5 28q0 38 26 70t71 50.5t100 18.5q78 0 118.5 -40.5t49.5 -119.5l24 -193
q5 -43 14 -58.5t24 -15.5q10 0 15.5 4.5t12 14t11.5 9.5q14 0 14 -19q0 -15 -10 -32t-28.5 -28.5t-41.5 -11.5q-36 0 -54.5 20t-27.5 60q-4 9 -7 9t-21.5 -25.5t-57 -46.5t-101.5 -21q-76 0 -113.5 37zM316 79q37 37 37 91q0 12 -1 18l-2 20q-2 14 -8.5 19.5t-21 7
t-52.5 1.5q-72 0 -106 -26.5t-34 -69.5q0 -47 24.5 -72.5t73.5 -25.5q53 0 90 37zM225 554.5q-45 31.5 -84 67t-39 48.5q0 9 7.5 13t27.5 4t31 -3.5t19 -15.5q2 -3 30 -35q79 -88 79 -99t-14 -11q-12 0 -57 31.5z" />
    <glyph glyph-name="aacute" unicode="&#xe1;" horiz-adv-x="539" 
d="M75.5 26q-37.5 37 -37.5 97q0 65 54.5 105.5t155.5 43.5q41 1 60 4t25 9.5t4 19.5l-3 25q-7 54 -31 81t-67 27q-45 0 -72 -24.5t-26 -68.5q-2 -19 -14 -29t-31 -10q-14 0 -24.5 10t-10.5 28q0 38 26 70t71 50.5t100 18.5q78 0 118.5 -40.5t49.5 -119.5l24 -193
q5 -43 14 -58.5t24 -15.5q10 0 15.5 4.5t12 14t11.5 9.5q14 0 14 -19q0 -15 -10 -32t-28.5 -28.5t-41.5 -11.5q-36 0 -54.5 20t-27.5 60q-4 9 -7 9t-21.5 -25.5t-57 -46.5t-101.5 -21q-76 0 -113.5 37zM316 79q37 37 37 91q0 12 -1 18l-2 20q-2 14 -8.5 19.5t-21 7
t-52.5 1.5q-72 0 -106 -26.5t-34 -69.5q0 -47 24.5 -72.5t73.5 -25.5q53 0 90 37zM194 534q0 11 79 99q28 32 30 35q8 12 19 15.5t31 3.5t27.5 -4t7.5 -13q0 -13 -39 -48.5t-84 -67t-57 -31.5q-14 0 -14 11z" />
    <glyph glyph-name="acircumflex" unicode="&#xe2;" horiz-adv-x="539" 
d="M75.5 26q-37.5 37 -37.5 97q0 65 54.5 105.5t155.5 43.5q41 1 60 4t25 9.5t4 19.5l-3 25q-7 54 -31 81t-67 27q-45 0 -72 -24.5t-26 -68.5q-2 -19 -14 -29t-31 -10q-14 0 -24.5 10t-10.5 28q0 38 26 70t71 50.5t100 18.5q78 0 118.5 -40.5t49.5 -119.5l24 -193
q5 -43 14 -58.5t24 -15.5q10 0 15.5 4.5t12 14t11.5 9.5q14 0 14 -19q0 -15 -10 -32t-28.5 -28.5t-41.5 -11.5q-36 0 -54.5 20t-27.5 60q-4 9 -7 9t-21.5 -25.5t-57 -46.5t-101.5 -21q-76 0 -113.5 37zM316 79q37 37 37 91q0 12 -1 18l-2 20q-2 14 -8.5 19.5t-21 7
t-52.5 1.5q-72 0 -106 -26.5t-34 -69.5q0 -47 24.5 -72.5t73.5 -25.5q53 0 90 37zM94.5 536.5q-3.5 5.5 -1.5 13.5q8 23 52.5 67.5t74.5 64.5q11 8 24 8q11 0 25 -8q28 -18 72 -63.5t54 -68.5q1 -2 1 -5q0 -6 -4 -10t-9 -4q-14 0 -35 16l-29 26q-24 22 -47 42t-28 20
q-6 0 -82 -67q-9 -9 -23 -21q-9 -7 -19 -11.5t-15 -4.5q-7 0 -10.5 5.5z" />
    <glyph glyph-name="atilde" unicode="&#xe3;" horiz-adv-x="539" 
d="M75.5 26q-37.5 37 -37.5 97q0 65 54.5 105.5t155.5 43.5q41 1 60 4t25 9.5t4 19.5l-3 25q-7 54 -31 81t-67 27q-45 0 -72 -24.5t-26 -68.5q-2 -19 -14 -29t-31 -10q-14 0 -24.5 10t-10.5 28q0 38 26 70t71 50.5t100 18.5q78 0 118.5 -40.5t49.5 -119.5l24 -193
q5 -43 14 -58.5t24 -15.5q10 0 15.5 4.5t12 14t11.5 9.5q14 0 14 -19q0 -15 -10 -32t-28.5 -28.5t-41.5 -11.5q-36 0 -54.5 20t-27.5 60q-4 9 -7 9t-21.5 -25.5t-57 -46.5t-101.5 -21q-76 0 -113.5 37zM316 79q37 37 37 91q0 12 -1 18l-2 20q-2 14 -8.5 19.5t-21 7
t-52.5 1.5q-72 0 -106 -26.5t-34 -69.5q0 -47 24.5 -72.5t73.5 -25.5q53 0 90 37zM273 567.5q-18 7.5 -41 20.5l-19 9.5t-27.5 11.5t-24.5 4q-17 0 -28.5 -9.5t-15.5 -26.5q-10 -19 -25 -19q-8 0 -13 5.5t-5 14.5q1 37 23.5 60t56.5 23q23 0 44.5 -8t46.5 -23
q23 -12 35 -17.5t25 -5.5q16 0 27.5 10t16.5 26q9 19 25 19q8 0 13 -5.5t5 -14.5q-1 -37 -23.5 -59.5t-57.5 -22.5q-20 0 -38 7.5z" />
    <glyph glyph-name="adieresis" unicode="&#xe4;" horiz-adv-x="539" 
d="M75.5 26q-37.5 37 -37.5 97q0 65 54.5 105.5t155.5 43.5q41 1 60 4t25 9.5t4 19.5l-3 25q-7 54 -31 81t-67 27q-45 0 -72 -24.5t-26 -68.5q-2 -19 -14 -29t-31 -10q-14 0 -24.5 10t-10.5 28q0 38 26 70t71 50.5t100 18.5q78 0 118.5 -40.5t49.5 -119.5l24 -193
q5 -43 14 -58.5t24 -15.5q10 0 15.5 4.5t12 14t11.5 9.5q14 0 14 -19q0 -15 -10 -32t-28.5 -28.5t-41.5 -11.5q-36 0 -54.5 20t-27.5 60q-4 9 -7 9t-21.5 -25.5t-57 -46.5t-101.5 -21q-76 0 -113.5 37zM316 79q37 37 37 91q0 12 -1 18l-2 20q-2 14 -8.5 19.5t-21 7
t-52.5 1.5q-72 0 -106 -26.5t-34 -69.5q0 -47 24.5 -72.5t73.5 -25.5q53 0 90 37zM101.5 579q-16.5 13 -16.5 35q0 20 16.5 33t44.5 13q27 0 43.5 -13t16.5 -33q0 -22 -16.5 -35t-43.5 -13q-28 0 -44.5 13zM307.5 579q-16.5 13 -16.5 35q0 20 16.5 33t44.5 13q27 0 43 -13
t16 -33q0 -22 -16 -35t-43 -13q-28 0 -44.5 13z" />
    <glyph glyph-name="aring" unicode="&#xe5;" horiz-adv-x="539" 
d="M75.5 26q-37.5 37 -37.5 97q0 65 54.5 105.5t155.5 43.5q41 1 60 4t25 9.5t4 19.5l-3 25q-7 54 -31 81t-67 27q-45 0 -72 -24.5t-26 -68.5q-2 -19 -14 -29t-31 -10q-14 0 -24.5 10t-10.5 28q0 38 26 70t71 50.5t100 18.5q78 0 118.5 -40.5t49.5 -119.5l24 -193
q5 -43 14 -58.5t24 -15.5q10 0 15.5 4.5t12 14t11.5 9.5q14 0 14 -19q0 -15 -10 -32t-28.5 -28.5t-41.5 -11.5q-36 0 -54.5 20t-27.5 60q-4 9 -7 9t-21.5 -25.5t-57 -46.5t-101.5 -21q-76 0 -113.5 37zM316 79q37 37 37 91q0 12 -1 18l-2 20q-2 14 -8.5 19.5t-21 7
t-52.5 1.5q-72 0 -106 -26.5t-34 -69.5q0 -47 24.5 -72.5t73.5 -25.5q53 0 90 37zM183 548.5q-26 22.5 -26 57.5q0 36 25 58t61 22t62.5 -22.5t26.5 -58.5q0 -35 -26 -57t-61 -22q-36 0 -62 22.5zM277 570q13 13 13 33q0 21 -13.5 37t-32.5 16q-20 0 -32.5 -14t-12.5 -35
q0 -20 13.5 -35t32.5 -15t32 13z" />
    <glyph glyph-name="ae" unicode="&#xe6;" horiz-adv-x="795" 
d="M76 27q-38 38 -38 101q0 61 54.5 99.5t153.5 40.5q42 0 61 2t26.5 7t5.5 17l-5 36q-8 63 -27 89t-67 26q-46 0 -75.5 -27t-31.5 -73q-6 -36 -43 -36q-13 0 -22 9t-9 26q0 38 25.5 70t69.5 50.5t97 18.5q117 0 148 -109q26 50 74 79t103 29q56 0 99 -23.5t67 -60.5t24 -77
q0 -32 -15.5 -44.5t-50.5 -17.5l-241 -36q-8 -1 -11.5 -4.5t-3.5 -11.5q0 -36 18 -72t52.5 -60t82.5 -24q49 0 86 21.5t62 54.5q8 9 14 9q11 0 14.5 -8t0.5 -16q-25 -54 -76.5 -88.5t-124.5 -34.5q-65 0 -113.5 30t-76.5 82q-24 -44 -69 -78t-124 -34q-76 0 -114 38z
M651 298q18 3 25 9t7 19q0 26 -14.5 52t-41.5 43t-63 17q-32 0 -61.5 -18.5t-48 -52t-18.5 -75.5q0 -14 2.5 -19.5t8.5 -5.5t9 1zM293 52.5q31 18.5 47.5 50.5t12.5 71l-6 41q-3 12 -9.5 16t-25 4.5t-45.5 0.5q-72 0 -105.5 -25t-33.5 -66q0 -53 24 -82t73 -29q37 0 68 18.5
z" />
    <glyph glyph-name="ccedilla" unicode="&#xe7;" horiz-adv-x="493" 
d="M459 128.5q4 -7.5 1 -16.5q-24 -53 -70 -86t-114 -37q-1 -13 7 -20t27 -17q24 -12 37.5 -25t13.5 -37q0 -33 -25.5 -55t-69.5 -22q-31 0 -55.5 8t-39.5 22q-9 7 -9 16q0 4 3 6.5t8 2.5q6 0 13 -3q26 -18 68 -18q27 0 43.5 12t16.5 32q0 15 -10.5 24t-29.5 18
q-21 10 -31 19t-10 26q0 8 1 12q-62 6 -108 40t-70 88t-24 118q0 71 30 127t81.5 87.5t114.5 31.5q47 0 90.5 -18.5t70 -51.5t26.5 -74q0 -17 -9 -28.5t-26 -11.5q-37 0 -48 42q-3 43 -29 70.5t-79 27.5q-35 0 -65 -21t-48.5 -60t-18.5 -91q0 -93 42.5 -154t120.5 -61
q46 0 83 20.5t62 53.5q7 11 15 11q10 0 14 -7.5z" />
    <glyph glyph-name="egrave" unicode="&#xe8;" horiz-adv-x="481" 
d="M136.5 23q-51.5 34 -78 91.5t-26.5 127.5t31.5 125t84 85t113.5 30q56 0 99.5 -23.5t67.5 -60.5t24 -77q0 -32 -15.5 -44.5t-51.5 -17.5l-240 -36q-8 -1 -11.5 -4.5t-3.5 -11.5q0 -36 18 -72t52.5 -60t82.5 -24q49 0 86 21.5t62 54.5q7 9 14 9q11 0 14.5 -8t0.5 -16
q-25 -54 -76.5 -88.5t-124.5 -34.5q-71 0 -122.5 34zM336 298q19 3 26 9t7 19q0 26 -14.5 52t-42 43t-63.5 17q-31 0 -60.5 -18.5t-48 -52t-18.5 -75.5q0 -14 2.5 -19.5t8.5 -5.5t9 1zM236 554.5q-45 31.5 -84 67t-39 48.5q0 9 7.5 13t27.5 4t31 -3.5t19 -15.5q2 -3 30 -35
q79 -88 79 -99t-14 -11q-12 0 -57 31.5z" />
    <glyph glyph-name="eacute" unicode="&#xe9;" horiz-adv-x="481" 
d="M136.5 23q-51.5 34 -78 91.5t-26.5 127.5t31.5 125t84 85t113.5 30q56 0 99.5 -23.5t67.5 -60.5t24 -77q0 -32 -15.5 -44.5t-51.5 -17.5l-240 -36q-8 -1 -11.5 -4.5t-3.5 -11.5q0 -36 18 -72t52.5 -60t82.5 -24q49 0 86 21.5t62 54.5q7 9 14 9q11 0 14.5 -8t0.5 -16
q-25 -54 -76.5 -88.5t-124.5 -34.5q-71 0 -122.5 34zM336 298q19 3 26 9t7 19q0 26 -14.5 52t-42 43t-63.5 17q-31 0 -60.5 -18.5t-48 -52t-18.5 -75.5q0 -14 2.5 -19.5t8.5 -5.5t9 1zM205 534q0 11 79 99q28 32 30 35q8 12 19 15.5t31 3.5t27.5 -4t7.5 -13q0 -13 -39 -48.5
t-84 -67t-57 -31.5q-14 0 -14 11z" />
    <glyph glyph-name="ecircumflex" unicode="&#xea;" horiz-adv-x="481" 
d="M136.5 23q-51.5 34 -78 91.5t-26.5 127.5t31.5 125t84 85t113.5 30q56 0 99.5 -23.5t67.5 -60.5t24 -77q0 -32 -15.5 -44.5t-51.5 -17.5l-240 -36q-8 -1 -11.5 -4.5t-3.5 -11.5q0 -36 18 -72t52.5 -60t82.5 -24q49 0 86 21.5t62 54.5q7 9 14 9q11 0 14.5 -8t0.5 -16
q-25 -54 -76.5 -88.5t-124.5 -34.5q-71 0 -122.5 34zM336 298q19 3 26 9t7 19q0 26 -14.5 52t-42 43t-63.5 17q-31 0 -60.5 -18.5t-48 -52t-18.5 -75.5q0 -14 2.5 -19.5t8.5 -5.5t9 1zM106.5 536.5q-3.5 5.5 -1.5 13.5q8 23 52.5 67.5t74.5 64.5q11 8 24 8q11 0 25 -8
q28 -18 72 -63.5t54 -68.5q1 -2 1 -5q0 -6 -4 -10t-9 -4q-14 0 -35 16l-29 26q-24 22 -47 42t-28 20q-6 0 -82 -67q-9 -9 -23 -21q-9 -7 -19 -11.5t-15 -4.5q-7 0 -10.5 5.5z" />
    <glyph glyph-name="edieresis" unicode="&#xeb;" horiz-adv-x="481" 
d="M136.5 23q-51.5 34 -78 91.5t-26.5 127.5t31.5 125t84 85t113.5 30q56 0 99.5 -23.5t67.5 -60.5t24 -77q0 -32 -15.5 -44.5t-51.5 -17.5l-240 -36q-8 -1 -11.5 -4.5t-3.5 -11.5q0 -36 18 -72t52.5 -60t82.5 -24q49 0 86 21.5t62 54.5q7 9 14 9q11 0 14.5 -8t0.5 -16
q-25 -54 -76.5 -88.5t-124.5 -34.5q-71 0 -122.5 34zM336 298q19 3 26 9t7 19q0 26 -14.5 52t-42 43t-63.5 17q-31 0 -60.5 -18.5t-48 -52t-18.5 -75.5q0 -14 2.5 -19.5t8.5 -5.5t9 1zM112.5 579q-16.5 13 -16.5 35q0 20 16.5 33t44.5 13q27 0 43.5 -13t16.5 -33
q0 -22 -16.5 -35t-43.5 -13q-28 0 -44.5 13zM318.5 579q-16.5 13 -16.5 35q0 20 16.5 33t44.5 13q27 0 43 -13t16 -33q0 -22 -16 -35t-43 -13q-28 0 -44.5 13z" />
    <glyph glyph-name="igrave" unicode="&#xec;" horiz-adv-x="282" 
d="M41 1.5q-13 5.5 -13 16.5q0 15 16 20q28 4 40 12t14.5 21t2.5 44v259q0 20 -4 29t-18 9q-12 0 -22 -1t-17 -1q-11 0 -15.5 2.5t-4.5 10.5q0 9 7.5 14.5t21.5 10.5l29 9q67 21 84 21q15 0 21.5 -6t6.5 -21v-336q0 -30 3 -43t15 -21t40 -13q18 -5 18 -20q0 -11 -11.5 -16.5
t-46.5 -5.5l-60 1l-60 -1q-34 0 -47 5.5zM107 554.5q-45 31.5 -84 67t-39 48.5q0 9 7.5 13t27.5 4t31 -3.5t19 -15.5q2 -3 30 -35q79 -88 79 -99t-14 -11q-12 0 -57 31.5z" />
    <glyph glyph-name="iacute" unicode="&#xed;" horiz-adv-x="282" 
d="M41 1.5q-13 5.5 -13 16.5q0 15 16 20q28 4 40 12t14.5 21t2.5 44v259q0 20 -4 29t-18 9q-12 0 -22 -1t-17 -1q-11 0 -15.5 2.5t-4.5 10.5q0 9 7.5 14.5t21.5 10.5l29 9q67 21 84 21q15 0 21.5 -6t6.5 -21v-336q0 -30 3 -43t15 -21t40 -13q18 -5 18 -20q0 -11 -11.5 -16.5
t-46.5 -5.5l-60 1l-60 -1q-34 0 -47 5.5zM77 534q0 11 79 99q28 32 30 35q8 12 19 15.5t31 3.5t27.5 -4t7.5 -13q0 -13 -39 -48.5t-84 -67t-57 -31.5q-14 0 -14 11z" />
    <glyph glyph-name="icircumflex" unicode="&#xee;" horiz-adv-x="282" 
d="M41 1.5q-13 5.5 -13 16.5q0 15 16 20q28 4 40 12t14.5 21t2.5 44v259q0 20 -4 29t-18 9q-12 0 -22 -1t-17 -1q-11 0 -15.5 2.5t-4.5 10.5q0 9 7.5 14.5t21.5 10.5l29 9q67 21 84 21q15 0 21.5 -6t6.5 -21v-336q0 -30 3 -43t15 -21t40 -13q18 -5 18 -20q0 -11 -11.5 -16.5
t-46.5 -5.5l-60 1l-60 -1q-34 0 -47 5.5zM-22.5 536.5q-3.5 5.5 -1.5 13.5q8 23 52.5 67.5t74.5 64.5q11 8 24 8q11 0 25 -8q28 -18 72 -63.5t54 -68.5q1 -2 1 -5q0 -6 -4 -10t-9 -4q-14 0 -35 16l-29 26q-24 22 -47 42t-28 20q-6 0 -82 -67q-9 -9 -23 -21q-9 -7 -19 -11.5
t-15 -4.5q-7 0 -10.5 5.5z" />
    <glyph glyph-name="idieresis" unicode="&#xef;" horiz-adv-x="282" 
d="M41 1.5q-13 5.5 -13 16.5q0 15 16 20q28 4 40 12t14.5 21t2.5 44v259q0 20 -4 29t-18 9q-12 0 -22 -1t-17 -1q-11 0 -15.5 2.5t-4.5 10.5q0 9 7.5 14.5t21.5 10.5l29 9q67 21 84 21q15 0 21.5 -6t6.5 -21v-336q0 -30 3 -43t15 -21t40 -13q18 -5 18 -20q0 -11 -11.5 -16.5
t-46.5 -5.5l-60 1l-60 -1q-34 0 -47 5.5zM-16.5 579q-16.5 13 -16.5 35q0 20 16.5 33t44.5 13q27 0 43.5 -13t16.5 -33q0 -22 -16.5 -35t-43.5 -13q-28 0 -44.5 13zM189.5 579q-16.5 13 -16.5 35q0 20 16.5 33t44.5 13q27 0 43 -13t16 -33q0 -22 -16 -35t-43 -13
q-28 0 -44.5 13z" />
    <glyph glyph-name="eth" unicode="&#xf0;" horiz-adv-x="553" 
d="M341 644q84 -61 132 -165.5t48 -233.5q0 -81 -33 -139t-88.5 -87.5t-121.5 -29.5q-113 0 -179.5 67.5t-66.5 187.5q0 67 29 120.5t78.5 83t108.5 29.5q48 0 88.5 -20.5t59.5 -51.5q3 -4 6 -4t4 3.5t0 7.5q-28 132 -113 200l-95 -65q-5 -4 -10 -4q-8 0 -10 14v5q0 9 7 15
l79 54q-48 29 -114 39q-13 2 -20 9t-7 14q0 8 7.5 14t20.5 5q87 -4 161 -49l100 68q5 4 10 4q7 0 9 -13q1 -3 1 -7q0 -9 -8 -14zM406.5 323q-20.5 52 -57.5 83.5t-84 31.5q-62 0 -100.5 -48t-38.5 -119q0 -65 20 -119.5t56 -86.5t82 -32q70 0 106.5 50t36.5 128
q0 60 -20.5 112z" />
    <glyph glyph-name="ntilde" unicode="&#xf1;" horiz-adv-x="619" 
d="M41 3.5q-13 5.5 -13 16.5q0 16 16 19q28 5 40 13t14.5 21t2.5 43v258q0 20 -4 29t-20 9l-37 -1q-11 0 -15.5 2.5t-4.5 9.5q0 9 7.5 14.5t21.5 10.5l29 9q67 21 84 21q15 0 21.5 -6t6.5 -21v-60q0 -12 4 -12q1 0 15 27.5t50.5 52t94.5 24.5q140 0 161 -184l19 -171
q5 -41 8.5 -55t14.5 -20t39 -11q20 -6 20 -22q0 -11 -9 -16.5t-34 -5.5l-71 1l-68 -1q-32 0 -44 4.5t-12 17.5q0 17 19 21q32 5 42 12.5t10 31.5q0 8 -4 50l-17 148q-8 70 -34 103t-78 33q-30 0 -59 -18t-48 -55t-19 -92v-137q0 -30 3 -43.5t15 -21t40 -12.5q18 -5 18 -20
q0 -11 -11.5 -16.5t-46.5 -5.5l-60 1l-60 -1q-34 0 -47 5.5zM349 567.5q-18 7.5 -41 20.5l-19 9.5t-27.5 11.5t-24.5 4q-17 0 -28.5 -9.5t-15.5 -26.5q-10 -19 -25 -19q-8 0 -13 5.5t-5 14.5q1 37 23.5 60t56.5 23q23 0 44.5 -8t46.5 -23q23 -12 35 -17.5t25 -5.5
q16 0 27.5 10t16.5 26q9 19 25 19q8 0 13 -5.5t5 -14.5q-1 -37 -23.5 -59.5t-57.5 -22.5q-20 0 -38 7.5z" />
    <glyph glyph-name="ograve" unicode="&#xf2;" horiz-adv-x="553" 
d="M150 20.5q-56 31.5 -87 88t-31 127.5t31 127.5t87 88t127 31.5t126.5 -31.5t86.5 -88t31 -127.5q0 -72 -31 -128t-86 -87.5t-127 -31.5q-71 0 -127 31.5zM387.5 81q39.5 47 39.5 125q0 58 -19.5 111t-55.5 86.5t-83 33.5q-64 0 -103.5 -47t-39.5 -124q0 -58 19.5 -112
t55.5 -87t83 -33q64 0 103.5 47zM259 554.5q-45 31.5 -84 67t-39 48.5q0 9 7.5 13t27.5 4t31 -3.5t19 -15.5q2 -3 30 -35q79 -88 79 -99t-14 -11q-12 0 -57 31.5z" />
    <glyph glyph-name="oacute" unicode="&#xf3;" horiz-adv-x="553" 
d="M150 20.5q-56 31.5 -87 88t-31 127.5t31 127.5t87 88t127 31.5t126.5 -31.5t86.5 -88t31 -127.5q0 -72 -31 -128t-86 -87.5t-127 -31.5q-71 0 -127 31.5zM387.5 81q39.5 47 39.5 125q0 58 -19.5 111t-55.5 86.5t-83 33.5q-64 0 -103.5 -47t-39.5 -124q0 -58 19.5 -112
t55.5 -87t83 -33q64 0 103.5 47zM228 534q0 11 79 99q28 32 30 35q8 12 19 15.5t31 3.5t27.5 -4t7.5 -13q0 -13 -39 -48.5t-84 -67t-57 -31.5q-14 0 -14 11z" />
    <glyph glyph-name="ocircumflex" unicode="&#xf4;" horiz-adv-x="553" 
d="M150 20.5q-56 31.5 -87 88t-31 127.5t31 127.5t87 88t127 31.5t126.5 -31.5t86.5 -88t31 -127.5q0 -72 -31 -128t-86 -87.5t-127 -31.5q-71 0 -127 31.5zM387.5 81q39.5 47 39.5 125q0 58 -19.5 111t-55.5 86.5t-83 33.5q-64 0 -103.5 -47t-39.5 -124q0 -58 19.5 -112
t55.5 -87t83 -33q64 0 103.5 47zM128.5 536.5q-3.5 5.5 -1.5 13.5q8 23 52.5 67.5t74.5 64.5q11 8 24 8q11 0 25 -8q28 -18 72 -63.5t54 -68.5q1 -2 1 -5q0 -6 -4 -10t-9 -4q-14 0 -35 16l-29 26q-24 22 -47 42t-28 20q-6 0 -82 -67q-9 -9 -23 -21q-9 -7 -19 -11.5t-15 -4.5
q-7 0 -10.5 5.5z" />
    <glyph glyph-name="otilde" unicode="&#xf5;" horiz-adv-x="553" 
d="M150 20.5q-56 31.5 -87 88t-31 127.5t31 127.5t87 88t127 31.5t126.5 -31.5t86.5 -88t31 -127.5q0 -72 -31 -128t-86 -87.5t-127 -31.5q-71 0 -127 31.5zM387.5 81q39.5 47 39.5 125q0 58 -19.5 111t-55.5 86.5t-83 33.5q-64 0 -103.5 -47t-39.5 -124q0 -58 19.5 -112
t55.5 -87t83 -33q64 0 103.5 47zM307 567.5q-18 7.5 -41 20.5l-19 9.5t-27.5 11.5t-24.5 4q-17 0 -28.5 -9.5t-15.5 -26.5q-10 -19 -25 -19q-8 0 -13 5.5t-5 14.5q1 37 23.5 60t56.5 23q23 0 44.5 -8t46.5 -23q23 -12 35 -17.5t25 -5.5q16 0 27.5 10t16.5 26q9 19 25 19
q8 0 13 -5.5t5 -14.5q-1 -37 -23.5 -59.5t-57.5 -22.5q-20 0 -38 7.5z" />
    <glyph glyph-name="odieresis" unicode="&#xf6;" horiz-adv-x="553" 
d="M150 20.5q-56 31.5 -87 88t-31 127.5t31 127.5t87 88t127 31.5t126.5 -31.5t86.5 -88t31 -127.5q0 -72 -31 -128t-86 -87.5t-127 -31.5q-71 0 -127 31.5zM387.5 81q39.5 47 39.5 125q0 58 -19.5 111t-55.5 86.5t-83 33.5q-64 0 -103.5 -47t-39.5 -124q0 -58 19.5 -112
t55.5 -87t83 -33q64 0 103.5 47zM135.5 579q-16.5 13 -16.5 35q0 20 16.5 33t44.5 13q27 0 43.5 -13t16.5 -33q0 -22 -16.5 -35t-43.5 -13q-28 0 -44.5 13zM341.5 579q-16.5 13 -16.5 35q0 20 16.5 33t44.5 13q27 0 43 -13t16 -33q0 -22 -16 -35t-43 -13q-28 0 -44.5 13z
" />
    <glyph glyph-name="divide" unicode="&#xf7;" horiz-adv-x="444" 
d="M198.5 362q-15.5 15 -15.5 38q0 29 18.5 48t46.5 19q26 0 42 -16t16 -41q0 -27 -20 -45t-48 -18q-24 0 -39.5 15zM70 222q-19 0 -28.5 4t-9.5 14q0 16 12 27t35 11h297q36 0 36 -19q0 -16 -12 -26.5t-34 -10.5h-296zM198 62.5q-15 14.5 -15 37.5q0 29 18.5 48.5
t46.5 19.5q26 0 42 -16t16 -42q0 -27 -19.5 -44.5t-48.5 -17.5q-25 0 -40 14.5z" />
    <glyph glyph-name="oslash" unicode="&#xf8;" horiz-adv-x="553" 
d="M457 409q31 -33 47.5 -77t16.5 -96q0 -72 -31 -128t-86 -87.5t-127 -31.5q-83 0 -144 42l-29 -34q-4 -5 -11 -5q-9 0 -18 8.5t-9 17.5q0 6 4 10l28 33q-32 33 -49 77.5t-17 97.5q0 71 31 127.5t87 88t127 31.5q82 0 146 -43l29 34q5 5 11 5q9 0 18 -8t9 -18q0 -6 -4 -10z
M156 129l216 252q-43 56 -103 56q-64 0 -103.5 -47t-39.5 -124q0 -74 30 -137zM387.5 81q39.5 47 39.5 125q0 73 -29 134l-216 -252q43 -54 102 -54q64 0 103.5 47z" />
    <glyph glyph-name="ugrave" unicode="&#xf9;" horiz-adv-x="590" 
d="M127.5 37q-43.5 47 -43.5 142v194q0 21 -4.5 30t-20.5 9q-11 0 -20.5 -1t-16.5 -1q-10 0 -14.5 2.5t-5.5 8.5q0 11 7.5 16.5t22.5 10.5q30 9 37 11q23 7 44 13t32 6q14 0 20.5 -6t6.5 -21v-257q0 -140 110 -140q32 0 61 18t47.5 55.5t18.5 92.5v153q0 21 -4.5 30t-20.5 9
q-11 0 -20.5 -1t-16.5 -1q-10 0 -14.5 2.5t-5.5 8.5q0 11 7.5 16.5t22.5 10.5q30 9 37 11q23 7 44 13t32 6q14 0 20.5 -6t6.5 -21v-353q0 -20 4.5 -29t20.5 -9q11 0 20.5 1t16.5 1q10 0 14.5 -2.5t5.5 -8.5q0 -11 -7.5 -16.5t-22.5 -10.5q-30 -9 -37 -11q-23 -7 -44 -13
t-32 -6q-14 0 -20.5 6t-6.5 21v56q0 16 -5 16q-1 0 -14.5 -27t-50 -51.5t-95.5 -24.5q-73 0 -116.5 47zM284 554.5q-45 31.5 -84 67t-39 48.5q0 9 7.5 13t27.5 4t31 -3.5t19 -15.5q2 -3 30 -35q79 -88 79 -99t-14 -11q-12 0 -57 31.5z" />
    <glyph glyph-name="uacute" unicode="&#xfa;" horiz-adv-x="590" 
d="M127.5 37q-43.5 47 -43.5 142v194q0 21 -4.5 30t-20.5 9q-11 0 -20.5 -1t-16.5 -1q-10 0 -14.5 2.5t-5.5 8.5q0 11 7.5 16.5t22.5 10.5q30 9 37 11q23 7 44 13t32 6q14 0 20.5 -6t6.5 -21v-257q0 -140 110 -140q32 0 61 18t47.5 55.5t18.5 92.5v153q0 21 -4.5 30t-20.5 9
q-11 0 -20.5 -1t-16.5 -1q-10 0 -14.5 2.5t-5.5 8.5q0 11 7.5 16.5t22.5 10.5q30 9 37 11q23 7 44 13t32 6q14 0 20.5 -6t6.5 -21v-353q0 -20 4.5 -29t20.5 -9q11 0 20.5 1t16.5 1q10 0 14.5 -2.5t5.5 -8.5q0 -11 -7.5 -16.5t-22.5 -10.5q-30 -9 -37 -11q-23 -7 -44 -13
t-32 -6q-14 0 -20.5 6t-6.5 21v56q0 16 -5 16q-1 0 -14.5 -27t-50 -51.5t-95.5 -24.5q-73 0 -116.5 47zM253 534q0 11 79 99q28 32 30 35q8 12 19 15.5t31 3.5t27.5 -4t7.5 -13q0 -13 -39 -48.5t-84 -67t-57 -31.5q-14 0 -14 11z" />
    <glyph glyph-name="ucircumflex" unicode="&#xfb;" horiz-adv-x="590" 
d="M127.5 37q-43.5 47 -43.5 142v194q0 21 -4.5 30t-20.5 9q-11 0 -20.5 -1t-16.5 -1q-10 0 -14.5 2.5t-5.5 8.5q0 11 7.5 16.5t22.5 10.5q30 9 37 11q23 7 44 13t32 6q14 0 20.5 -6t6.5 -21v-257q0 -140 110 -140q32 0 61 18t47.5 55.5t18.5 92.5v153q0 21 -4.5 30t-20.5 9
q-11 0 -20.5 -1t-16.5 -1q-10 0 -14.5 2.5t-5.5 8.5q0 11 7.5 16.5t22.5 10.5q30 9 37 11q23 7 44 13t32 6q14 0 20.5 -6t6.5 -21v-353q0 -20 4.5 -29t20.5 -9q11 0 20.5 1t16.5 1q10 0 14.5 -2.5t5.5 -8.5q0 -11 -7.5 -16.5t-22.5 -10.5q-30 -9 -37 -11q-23 -7 -44 -13
t-32 -6q-14 0 -20.5 6t-6.5 21v56q0 16 -5 16q-1 0 -14.5 -27t-50 -51.5t-95.5 -24.5q-73 0 -116.5 47zM154.5 536.5q-3.5 5.5 -1.5 13.5q8 23 52.5 67.5t74.5 64.5q11 8 24 8q11 0 25 -8q28 -18 72 -63.5t54 -68.5q1 -2 1 -5q0 -6 -4 -10t-9 -4q-14 0 -35 16l-29 26
q-24 22 -47 42t-28 20q-6 0 -82 -67q-9 -9 -23 -21q-9 -7 -19 -11.5t-15 -4.5q-7 0 -10.5 5.5z" />
    <glyph glyph-name="udieresis" unicode="&#xfc;" horiz-adv-x="590" 
d="M127.5 37q-43.5 47 -43.5 142v194q0 21 -4.5 30t-20.5 9q-11 0 -20.5 -1t-16.5 -1q-10 0 -14.5 2.5t-5.5 8.5q0 11 7.5 16.5t22.5 10.5q30 9 37 11q23 7 44 13t32 6q14 0 20.5 -6t6.5 -21v-257q0 -140 110 -140q32 0 61 18t47.5 55.5t18.5 92.5v153q0 21 -4.5 30t-20.5 9
q-11 0 -20.5 -1t-16.5 -1q-10 0 -14.5 2.5t-5.5 8.5q0 11 7.5 16.5t22.5 10.5q30 9 37 11q23 7 44 13t32 6q14 0 20.5 -6t6.5 -21v-353q0 -20 4.5 -29t20.5 -9q11 0 20.5 1t16.5 1q10 0 14.5 -2.5t5.5 -8.5q0 -11 -7.5 -16.5t-22.5 -10.5q-30 -9 -37 -11q-23 -7 -44 -13
t-32 -6q-14 0 -20.5 6t-6.5 21v56q0 16 -5 16q-1 0 -14.5 -27t-50 -51.5t-95.5 -24.5q-73 0 -116.5 47zM160.5 579q-16.5 13 -16.5 35q0 20 16.5 33t44.5 13q27 0 43.5 -13t16.5 -33q0 -22 -16.5 -35t-43.5 -13q-28 0 -44.5 13zM366.5 579q-16.5 13 -16.5 35q0 20 16.5 33
t44.5 13q27 0 43 -13t16 -33q0 -22 -16 -35t-43 -13q-28 0 -44.5 13z" />
    <glyph glyph-name="yacute" unicode="&#xfd;" horiz-adv-x="498" 
d="M2.5 -161.5q-25.5 21.5 -25.5 57.5q0 20 12 33.5t30 13.5q16 0 26 -9t13 -24q2 -21 11 -34.5t23 -13.5q22 0 55.5 30t66.5 70q5 7 5 14q0 9 -9 33q-15 39 -32 91t-25 75q-46 137 -72 205q-11 27 -21.5 36.5t-34.5 12.5q-22 5 -22 23q0 12 10 17t35 5l79 -1l80 1
q27 0 36 -5.5t9 -16.5q0 -16 -17 -20q-35 -4 -49.5 -11.5t-14.5 -21.5q0 -7 5 -19q19 -49 57 -163q30 -92 45 -133q3 -8 9 -8t9 7q51 77 79 130.5t30 98.5q1 8 1 21q0 27 -9.5 42t-27.5 24q-25 19 -25 46q0 8 4 16t11 13q11 8 29 8t35 -12q15 -12 22 -27q21 -36 21 -91
q0 -80 -81 -220q-44 -74 -87 -131q-140 -184 -227 -184q-43 0 -68.5 21.5zM219 534q0 11 79 99q28 32 30 35q8 12 19 15.5t31 3.5t27.5 -4t7.5 -13q0 -13 -39 -48.5t-84 -67t-57 -31.5q-14 0 -14 11z" />
    <glyph glyph-name="thorn" unicode="&#xfe;" horiz-adv-x="575" 
d="M37 -175.5q-13 5.5 -13 17.5q0 14 17 19q27 4 38.5 11t15 21t3.5 45v664q0 21 -5 29t-22 9q-10 0 -19 -1t-16 -1q-10 0 -14.5 2.5t-4.5 10.5q0 9 7.5 14.5t21.5 10.5q30 9 37 11q23 7 44 13t32 6q14 0 20.5 -6t6.5 -21v-288q0 -17 5 -17q1 0 17.5 28.5t55 54.5t94.5 26
q52 0 94 -28t66.5 -82t24.5 -127q0 -74 -28.5 -132.5t-79 -91.5t-114.5 -33q-37 0 -63 12.5t-48 36.5q-3 3 -8 9t-8 6q-8 0 -8 -28v-87q0 -30 3.5 -44t15.5 -21t39 -11q18 -7 18 -20q0 -12 -11.5 -17.5t-46.5 -5.5l-59 1l-60 -1q-35 0 -48 5.5zM414 80.5q37 47.5 37 127.5
q0 61 -16.5 109.5t-47 75.5t-69.5 27q-63 0 -97.5 -46.5t-34.5 -123.5v-22q0 -96 36 -145.5t97 -49.5q58 0 95 47.5z" />
    <glyph glyph-name="ydieresis" unicode="&#xff;" horiz-adv-x="498" 
d="M2.5 -161.5q-25.5 21.5 -25.5 57.5q0 20 12 33.5t30 13.5q16 0 26 -9t13 -24q2 -21 11 -34.5t23 -13.5q22 0 55.5 30t66.5 70q5 7 5 14q0 9 -9 33q-15 39 -32 91t-25 75q-46 137 -72 205q-11 27 -21.5 36.5t-34.5 12.5q-22 5 -22 23q0 12 10 17t35 5l79 -1l80 1
q27 0 36 -5.5t9 -16.5q0 -16 -17 -20q-35 -4 -49.5 -11.5t-14.5 -21.5q0 -7 5 -19q19 -49 57 -163q30 -92 45 -133q3 -8 9 -8t9 7q51 77 79 130.5t30 98.5q1 8 1 21q0 27 -9.5 42t-27.5 24q-25 19 -25 46q0 8 4 16t11 13q11 8 29 8t35 -12q15 -12 22 -27q21 -36 21 -91
q0 -80 -81 -220q-44 -74 -87 -131q-140 -184 -227 -184q-43 0 -68.5 21.5zM125.5 579q-16.5 13 -16.5 35q0 20 16.5 33t44.5 13q27 0 43.5 -13t16.5 -33q0 -22 -16.5 -35t-43.5 -13q-28 0 -44.5 13zM331.5 579q-16.5 13 -16.5 35q0 20 16.5 33t44.5 13q27 0 43 -13t16 -33
q0 -22 -16 -35t-43 -13q-28 0 -44.5 13z" />
    <glyph glyph-name="Amacron" unicode="&#x100;" horiz-adv-x="735" 
d="M5 19q0 8 8 14.5t18 9.5q27 3 40.5 9t21.5 18.5t18 39.5l198 512q3 8 3 15q0 20 -23 24q-19 4 -19 21q0 8 7 14t22 6h54q34 0 49 -13.5t25 -37.5q120 -315 211 -547q8 -23 15.5 -33.5t19.5 -15.5t37 -8q20 -5 20 -25q0 -23 -30 -23h-123h-60q-28 0 -40.5 4t-12.5 17
q0 14 17 18q34 4 47 10.5t13 20.5q0 10 -8 32l-33 87q-6 15 -15 22.5t-25 7.5h-219q-23 0 -31 -4.5t-15 -22.5l-33 -85q-10 -27 -10 -38q0 -14 13 -20t45 -8q25 -5 25 -21q0 -21 -34 -21q-23 1 -84 1q-60 0 -82 -1q-30 0 -30 21zM445 265q21 0 21 14q0 6 -2 10l-84 228
l-23 62q-3 11 -8 11q-4 0 -9 -11l-110 -292l-2 -8q0 -14 27 -14h190zM223 754.5q-4 2.5 -4 8.5t3 13q4 12 8.5 17.5t14.5 5.5l118 -1l110 1q12 0 12 -10q0 -1 -3 -13q-3 -14 -7.5 -19.5t-15.5 -5.5q-69 1 -222 1q-10 0 -14 2.5z" />
    <glyph glyph-name="amacron" unicode="&#x101;" horiz-adv-x="539" 
d="M75.5 26q-37.5 37 -37.5 97q0 65 54.5 105.5t155.5 43.5q41 1 60 4t25 9.5t4 19.5l-3 25q-7 54 -31 81t-67 27q-45 0 -72 -24.5t-26 -68.5q-2 -19 -14 -29t-31 -10q-14 0 -24.5 10t-10.5 28q0 38 26 70t71 50.5t100 18.5q78 0 118.5 -40.5t49.5 -119.5l24 -193
q5 -43 14 -58.5t24 -15.5q10 0 15.5 4.5t12 14t11.5 9.5q14 0 14 -19q0 -15 -10 -32t-28.5 -28.5t-41.5 -11.5q-36 0 -54.5 20t-27.5 60q-4 9 -7 9t-21.5 -25.5t-57 -46.5t-101.5 -21q-76 0 -113.5 37zM316 79q37 37 37 91q0 12 -1 18l-2 20q-2 14 -8.5 19.5t-21 7
t-52.5 1.5q-72 0 -106 -26.5t-34 -69.5q0 -47 24.5 -72.5t73.5 -25.5q53 0 90 37zM116 585.5q-4 2.5 -4 8.5t3 13q4 12 8.5 17.5t14.5 5.5l118 -1l110 1q12 0 12 -10q0 -1 -3 -13q-3 -14 -7.5 -19.5t-15.5 -5.5q-69 1 -222 1q-10 0 -14 2.5z" />
    <glyph glyph-name="Abreve" unicode="&#x102;" horiz-adv-x="735" 
d="M5 19q0 8 8 14.5t18 9.5q27 3 40.5 9t21.5 18.5t18 39.5l198 512q3 8 3 15q0 20 -23 24q-19 4 -19 21q0 8 7 14t22 6h54q34 0 49 -13.5t25 -37.5q120 -315 211 -547q8 -23 15.5 -33.5t19.5 -15.5t37 -8q20 -5 20 -25q0 -23 -30 -23h-123h-60q-28 0 -40.5 4t-12.5 17
q0 14 17 18q34 4 47 10.5t13 20.5q0 10 -8 32l-33 87q-6 15 -15 22.5t-25 7.5h-219q-23 0 -31 -4.5t-15 -22.5l-33 -85q-10 -27 -10 -38q0 -14 13 -20t45 -8q25 -5 25 -21q0 -21 -34 -21q-23 1 -84 1q-60 0 -82 -1q-30 0 -30 21zM445 265q21 0 21 14q0 6 -2 10l-84 228
l-23 62q-3 11 -8 11q-4 0 -9 -11l-110 -292l-2 -8q0 -14 27 -14h190zM247 774.5q-42 36.5 -46 96.5v2q0 14 12 14q8 0 13 -11q13 -40 46 -64.5t80 -24.5q45 0 77 22t45 64q4 6 9 10t9 4q6 0 9.5 -4.5t2.5 -11.5q-4 -59 -45.5 -96t-106.5 -37q-63 0 -105 36.5z" />
    <glyph glyph-name="abreve" unicode="&#x103;" horiz-adv-x="539" 
d="M75.5 26q-37.5 37 -37.5 97q0 65 54.5 105.5t155.5 43.5q41 1 60 4t25 9.5t4 19.5l-3 25q-7 54 -31 81t-67 27q-45 0 -72 -24.5t-26 -68.5q-2 -19 -14 -29t-31 -10q-14 0 -24.5 10t-10.5 28q0 38 26 70t71 50.5t100 18.5q78 0 118.5 -40.5t49.5 -119.5l24 -193
q5 -43 14 -58.5t24 -15.5q10 0 15.5 4.5t12 14t11.5 9.5q14 0 14 -19q0 -15 -10 -32t-28.5 -28.5t-41.5 -11.5q-36 0 -54.5 20t-27.5 60q-4 9 -7 9t-21.5 -25.5t-57 -46.5t-101.5 -21q-76 0 -113.5 37zM316 79q37 37 37 91q0 12 -1 18l-2 20q-2 14 -8.5 19.5t-21 7
t-52.5 1.5q-72 0 -106 -26.5t-34 -69.5q0 -47 24.5 -72.5t73.5 -25.5q53 0 90 37zM139 569.5q-42 36.5 -46 96.5v2q0 14 12 14q8 0 13 -11q13 -40 46 -64.5t80 -24.5q45 0 77 22t45 64q4 6 9 10t9 4q6 0 9.5 -4.5t2.5 -11.5q-4 -59 -45.5 -96t-106.5 -37q-63 0 -105 36.5z
" />
    <glyph glyph-name="Aogonek" unicode="&#x104;" horiz-adv-x="735" 
d="M730 22q0 -23 -30 -23l-63 1q-75 -43 -75 -95q0 -22 13 -36t36 -14q18 0 35.5 7.5t29.5 20.5q5 5 10 5t8 -5t0 -13q-9 -23 -35.5 -39t-63.5 -16q-38 0 -61 22.5t-23 57.5q0 29 17 56.5t52 48.5l-63 -1q-28 0 -40.5 4t-12.5 17q0 14 17 18q34 4 47 10.5t13 20.5
q0 10 -8 32l-33 87q-6 15 -15 22.5t-25 7.5h-219q-23 0 -31 -4.5t-15 -22.5l-33 -85q-10 -27 -10 -38q0 -14 13 -20t45 -8q25 -5 25 -21q0 -21 -34 -21q-23 1 -84 1q-60 0 -82 -1q-30 0 -30 21q0 8 8 14.5t18 9.5q27 3 40.5 9t21.5 18.5t18 39.5l198 512q3 8 3 15
q0 20 -23 24q-19 4 -19 21q0 8 7 14t22 6h54q34 0 49 -13.5t25 -37.5q120 -315 211 -547q8 -23 15.5 -33.5t19.5 -15.5t37 -8q20 -5 20 -25zM445 265q21 0 21 14q0 6 -2 10l-84 228l-23 62q-3 11 -8 11q-4 0 -9 -11l-110 -292l-2 -8q0 -14 27 -14h190z" />
    <glyph glyph-name="aogonek" unicode="&#x105;" horiz-adv-x="539" 
d="M547 -103q5 0 8 -5t0 -13q-9 -23 -35.5 -39t-63.5 -16q-38 0 -61 22.5t-23 57.5q0 26 13.5 50t40.5 44q-20 8 -32 26.5t-18 48.5q-4 9 -7 9t-21.5 -25.5t-57 -46.5t-101.5 -21q-76 0 -113.5 37t-37.5 97q0 65 54.5 105.5t155.5 43.5q41 1 60 4t25 9.5t4 19.5l-3 25
q-7 54 -31 81t-67 27q-45 0 -72 -24.5t-26 -68.5q-2 -19 -14 -29t-31 -10q-14 0 -24.5 10t-10.5 28q0 38 26 70t71 50.5t100 18.5q78 0 118.5 -40.5t49.5 -119.5l24 -193q5 -43 14 -58.5t24 -15.5q10 0 15.5 4.5t12 14t11.5 9.5q14 0 14 -19q0 -20 -17.5 -42t-44.5 -28
q-53 -37 -53 -81q0 -22 13 -36t36 -14q18 0 35.5 7.5t29.5 20.5q5 5 10 5zM316 79q37 37 37 91q0 12 -1 18l-2 20q-2 14 -8.5 19.5t-21 7t-52.5 1.5q-72 0 -106 -26.5t-34 -69.5q0 -47 24.5 -72.5t73.5 -25.5q53 0 90 37z" />
    <glyph glyph-name="Cacute" unicode="&#x106;" horiz-adv-x="642" 
d="M188.5 34.5q-72.5 45.5 -114.5 129t-42 192.5q0 98 40 179.5t111 128.5t162 47q50 0 96 -15.5t82 -43.5q13 -10 35 -34q20 -26 29 -47q16 -30 16 -65q0 -23 -13 -39t-39 -16q-20 0 -34.5 13t-25.5 46q0 64 -43 107t-113 43q-58 0 -104 -33t-72.5 -92t-26.5 -135
q0 -92 29 -167t84.5 -118.5t132.5 -43.5q82 0 135 39t65 103q4 13 19 13q8 0 14.5 -6t5.5 -16q-5 -54 -37 -103.5t-91 -80.5t-140 -31q-88 0 -160.5 45.5zM279.5 738.5q-3.5 2.5 -3.5 8.5q1 7 25.5 28.5t51.5 43.5q10 9 23 19.5t24 20.5q7 9 15.5 12t24.5 3q28 0 37 -3.5
t8 -14.5q0 -13 -41.5 -42t-90 -53.5t-62.5 -24.5q-8 0 -11.5 2.5z" />
    <glyph glyph-name="cacute" unicode="&#x107;" horiz-adv-x="493" 
d="M139 21.5q-52 32.5 -79.5 89t-27.5 125.5q0 71 30 127t81.5 87.5t114.5 31.5q47 0 90.5 -18.5t70 -51.5t26.5 -74q0 -17 -9 -28.5t-26 -11.5q-37 0 -48 42q-3 43 -29 70.5t-79 27.5q-35 0 -65 -21t-48.5 -60t-18.5 -91q0 -93 42.5 -154t120.5 -61q46 0 83 20.5t62 53.5
q7 11 15 11q10 0 14 -7.5t1 -16.5q-25 -56 -75 -89.5t-124 -33.5q-70 0 -122 32.5zM202 534q0 11 79 99q28 32 30 35q8 12 19 15.5t31 3.5t27.5 -4t7.5 -13q0 -13 -39 -48.5t-84 -67t-57 -31.5q-14 0 -14 11z" />
    <glyph glyph-name="Ccircumflex" unicode="&#x108;" horiz-adv-x="642" 
d="M188.5 34.5q-72.5 45.5 -114.5 129t-42 192.5q0 98 40 179.5t111 128.5t162 47q50 0 96 -15.5t82 -43.5q13 -10 35 -34q20 -26 29 -47q16 -30 16 -65q0 -23 -13 -39t-39 -16q-20 0 -34.5 13t-25.5 46q0 64 -43 107t-113 43q-58 0 -104 -33t-72.5 -92t-26.5 -135
q0 -92 29 -167t84.5 -118.5t132.5 -43.5q82 0 135 39t65 103q4 13 19 13q8 0 14.5 -6t5.5 -16q-5 -54 -37 -103.5t-91 -80.5t-140 -31q-88 0 -160.5 45.5zM189.5 735.5q-3.5 3.5 -3.5 9.5q0 15 49 65t80 70q12 9 24 9q11 0 25 -9q31 -21 80 -70.5t49 -64.5q0 -6 -3.5 -9.5
t-8.5 -3.5q-4 0 -17.5 10t-17.5 13l-17 13q-81 63 -90 63q-5 0 -31 -19t-58 -44q-8 -5 -28 -20.5t-24 -15.5q-5 0 -8.5 3.5z" />
    <glyph glyph-name="ccircumflex" unicode="&#x109;" horiz-adv-x="493" 
d="M139 21.5q-52 32.5 -79.5 89t-27.5 125.5q0 71 30 127t81.5 87.5t114.5 31.5q47 0 90.5 -18.5t70 -51.5t26.5 -74q0 -17 -9 -28.5t-26 -11.5q-37 0 -48 42q-3 43 -29 70.5t-79 27.5q-35 0 -65 -21t-48.5 -60t-18.5 -91q0 -93 42.5 -154t120.5 -61q46 0 83 20.5t62 53.5
q7 11 15 11q10 0 14 -7.5t1 -16.5q-25 -56 -75 -89.5t-124 -33.5q-70 0 -122 32.5zM102.5 536.5q-3.5 5.5 -1.5 13.5q8 23 52.5 67.5t74.5 64.5q11 8 24 8q11 0 25 -8q28 -18 72 -63.5t54 -68.5q1 -2 1 -5q0 -6 -4 -10t-9 -4q-14 0 -35 16l-29 26q-24 22 -47 42t-28 20
q-6 0 -82 -67q-9 -9 -23 -21q-9 -7 -19 -11.5t-15 -4.5q-7 0 -10.5 5.5z" />
    <glyph glyph-name="Cdotaccent" unicode="&#x10a;" horiz-adv-x="642" 
d="M188.5 34.5q-72.5 45.5 -114.5 129t-42 192.5q0 98 40 179.5t111 128.5t162 47q50 0 96 -15.5t82 -43.5q13 -10 35 -34q20 -26 29 -47q16 -30 16 -65q0 -23 -13 -39t-39 -16q-20 0 -34.5 13t-25.5 46q0 64 -43 107t-113 43q-58 0 -104 -33t-72.5 -92t-26.5 -135
q0 -92 29 -167t84.5 -118.5t132.5 -43.5q82 0 135 39t65 103q4 13 19 13q8 0 14.5 -6t5.5 -16q-5 -54 -37 -103.5t-91 -80.5t-140 -31q-88 0 -160.5 45.5zM299.5 758q-16.5 13 -16.5 34t16.5 34t44.5 13q27 0 43.5 -13t16.5 -34t-16.5 -34t-43.5 -13q-28 0 -44.5 13z" />
    <glyph glyph-name="cdotaccent" unicode="&#x10b;" horiz-adv-x="493" 
d="M139 21.5q-52 32.5 -79.5 89t-27.5 125.5q0 71 30 127t81.5 87.5t114.5 31.5q47 0 90.5 -18.5t70 -51.5t26.5 -74q0 -17 -9 -28.5t-26 -11.5q-37 0 -48 42q-3 43 -29 70.5t-79 27.5q-35 0 -65 -21t-48.5 -60t-18.5 -91q0 -93 42.5 -154t120.5 -61q46 0 83 20.5t62 53.5
q7 11 15 11q10 0 14 -7.5t1 -16.5q-25 -56 -75 -89.5t-124 -33.5q-70 0 -122 32.5zM205 580.5q-18 14.5 -18 37.5t18 36.5t48 13.5q29 0 46.5 -13.5t17.5 -36.5t-17.5 -37.5t-46.5 -14.5q-30 0 -48 14.5z" />
    <glyph glyph-name="Ccaron" unicode="&#x10c;" horiz-adv-x="642" 
d="M188.5 34.5q-72.5 45.5 -114.5 129t-42 192.5q0 98 40 179.5t111 128.5t162 47q50 0 96 -15.5t82 -43.5q13 -10 35 -34q20 -26 29 -47q16 -30 16 -65q0 -23 -13 -39t-39 -16q-20 0 -34.5 13t-25.5 46q0 64 -43 107t-113 43q-58 0 -104 -33t-72.5 -92t-26.5 -135
q0 -92 29 -167t84.5 -118.5t132.5 -43.5q82 0 135 39t65 103q4 13 19 13q8 0 14.5 -6t5.5 -16q-5 -54 -37 -103.5t-91 -80.5t-140 -31q-88 0 -160.5 45.5zM207 870.5q20 -15.5 28 -20.5q32 -25 58 -44t31 -19q9 0 90 63l17 13q4 3 17.5 13t17.5 10q5 0 8.5 -3.5t3.5 -9.5
q0 -15 -49 -64.5t-80 -70.5q-14 -9 -25 -9q-12 0 -24 9q-31 20 -80 70t-49 65q0 6 3.5 9.5t8.5 3.5q4 0 24 -15.5z" />
    <glyph glyph-name="ccaron" unicode="&#x10d;" horiz-adv-x="493" 
d="M139 21.5q-52 32.5 -79.5 89t-27.5 125.5q0 71 30 127t81.5 87.5t114.5 31.5q47 0 90.5 -18.5t70 -51.5t26.5 -74q0 -17 -9 -28.5t-26 -11.5q-37 0 -48 42q-3 43 -29 70.5t-79 27.5q-35 0 -65 -21t-48.5 -60t-18.5 -91q0 -93 42.5 -154t120.5 -61q46 0 83 20.5t62 53.5
q7 11 15 11q10 0 14 -7.5t1 -16.5q-25 -56 -75 -89.5t-124 -33.5q-70 0 -122 32.5zM128.5 681.5q9.5 -4.5 18.5 -12.5l17 -15q79 -72 88 -72q5 0 32.5 24t35.5 31l36 32q20 17 35 17q7 0 10.5 -6t1.5 -14q-10 -23 -54 -68t-72 -63q-12 -8 -25 -8t-24 8q-30 19 -74.5 63.5
t-52.5 67.5q-1 2 -1 6q0 6 3.5 10t9.5 4t15.5 -4.5z" />
    <glyph glyph-name="Dcaron" unicode="&#x10e;" horiz-adv-x="707" 
d="M163 -2l-94 1q-21 0 -29 4.5t-8 17.5q0 16 22 25q31 6 44.5 13.5t17.5 21t4 42.5v454q0 30 -4 43t-17 20.5t-45 13.5q-22 9 -22 25q0 13 8 17.5t29 4.5q38 0 102 2l79 1q130 0 225.5 -42t147.5 -123.5t52 -196.5q0 -167 -100.5 -256.5t-283.5 -89.5q-50 0 -128 2z
M505 124q70 79 70 221q0 99 -40.5 169.5t-113 106.5t-168.5 36q-24 0 -32.5 -8t-8.5 -31v-530q0 -27 20 -35t70 -8q133 0 203 79zM159 870.5q20 -15.5 28 -20.5q32 -25 58 -44t31 -19q9 0 90 63l17 13q4 3 17.5 13t17.5 10q5 0 8.5 -3.5t3.5 -9.5q0 -15 -49 -64.5t-80 -70.5
q-14 -9 -25 -9q-12 0 -24 9q-31 20 -80 70t-49 65q0 6 3.5 9.5t8.5 3.5q4 0 24 -15.5z" />
    <glyph glyph-name="dcaron" unicode="&#x10f;" horiz-adv-x="603" 
d="M120.5 19.5q-42.5 30.5 -65.5 86t-23 127.5q0 70 26 127t74 89.5t111 32.5q48 0 75.5 -15.5t43 -32t18.5 -16.5q6 0 7.5 13.5t1.5 49.5v121q0 21 -5 29.5t-22 8.5q-10 0 -19 -1t-16 -1q-10 0 -14.5 2.5t-4.5 9.5q0 16 29 26q30 9 37 11q23 7 44 13t32 6q14 0 20.5 -6
t6.5 -21v-581q0 -20 5 -29t20 -9q12 0 22 1t17 1q9 0 13 -2.5t5 -8.5q0 -11 -7.5 -16.5t-21.5 -10.5q-20 -5 -48 -14q-50 -16 -66 -16q-14 0 -20.5 6t-6.5 21v52q-1 24 -4 24q-1 0 -18.5 -28.5t-55.5 -54t-93 -25.5t-97.5 30.5zM326 71q29 20 46 55.5t17 79.5v33
q0 94 -34.5 147t-98.5 53q-35 0 -65 -20t-48.5 -59.5t-18.5 -94.5q0 -100 37 -157t101 -57q35 0 64 20zM589 560q-8 100 -8 126q0 17 7 24.5t24 7.5t24.5 -7.5t7.5 -23.5q0 -27 -8 -127l-5 -75q-1 -6 -6 -9t-12 -3q-16 0 -19 12z" />
    <glyph glyph-name="Dcroat" unicode="&#x110;" horiz-adv-x="707" 
d="M475.5 662q95.5 -42 147.5 -123.5t52 -196.5q0 -167 -100.5 -256.5t-283.5 -89.5q-50 0 -128 2l-94 1q-21 0 -29 4.5t-8 17.5q0 16 22 25q31 6 44.5 13.5t17.5 21t4 42.5v189q0 6 -3.5 9.5t-8.5 3.5h-52q-19 0 -19 22t19 22h52q12 0 12 14v194q0 30 -4 43t-17 20.5
t-45 13.5q-22 9 -22 25q0 13 8 17.5t29 4.5q38 0 102 2l79 1q130 0 225.5 -42zM505 124q70 79 70 221q0 99 -40.5 169.5t-113 106.5t-168.5 36q-24 0 -32.5 -8t-8.5 -31v-235q0 -15 11 -15h153q19 0 19 -21q0 -22 -19 -22h-153q-4 0 -7.5 -2.5t-3.5 -8.5v-226q0 -27 20 -35
t70 -8q133 0 203 79z" />
    <glyph glyph-name="dcroat" unicode="&#x111;" horiz-adv-x="570" 
d="M521 61.5q11 1.5 19 1.5q18 0 19 -12q0 -11 -7.5 -16.5t-21.5 -10.5q-20 -5 -48 -14q-50 -16 -66 -16q-14 0 -20.5 6t-6.5 21v52q-1 24 -4 24q-1 0 -18.5 -28.5t-55.5 -54t-93 -25.5t-97.5 30.5t-65.5 86t-23 127.5q0 70 26 127t74 89.5t111 32.5q48 0 75.5 -15.5t43 -32
t18.5 -16.5q6 0 7.5 13.5t1.5 49.5v44q-20 1 -61 1q-39 0 -57 -1q-10 0 -13.5 4.5t-3.5 12.5q0 22 28 22l107 -1v39q0 21 -5 29.5t-22 8.5q-10 0 -19 -1t-16 -1q-10 0 -14.5 2.5t-4.5 9.5q0 16 29 26q30 9 37 11q23 7 44 13t32 6q14 0 20.5 -6t6.5 -21v-116h36q17 0 17 -16
q0 -22 -28 -22h-25v-427q0 -20 5 -29t20 -9q8 0 19 1.5zM389 239q0 94 -34.5 147t-98.5 53q-35 0 -65 -20t-48.5 -59.5t-18.5 -94.5q0 -100 37 -157t101 -57q35 0 64 20t46 55.5t17 79.5v33z" />
    <glyph glyph-name="Emacron" unicode="&#x112;" horiz-adv-x="638" 
d="M604 219.5q5 -5.5 5 -18.5q0 -25 -21 -108q-12 -50 -20.5 -73.5t-15.5 -30.5t-17 -7q-9 0 -14 2.5t-6 3.5q-8 6 -18 9t-31 3q-191 0 -264 -0.5t-97 -0.5h-36q-21 0 -29 4.5t-8 17.5q0 16 22 25q31 6 44.5 13.5t17.5 21t4 42.5v454q0 29 -4 42.5t-17.5 21t-44.5 13.5
q-22 9 -22 25q0 11 7.5 16.5t26.5 5.5h30q20 0 85.5 -0.5t245.5 -0.5q20 0 29.5 2.5t19.5 8.5q9 7 20 7q9 0 16 -7t15.5 -31t20.5 -73q22 -84 22 -109q0 -13 -5 -18t-15 -5q-21 0 -30 26q-23 75 -35 104t-25.5 38.5t-41.5 9.5h-161q-20 0 -29 -3.5t-12.5 -14.5t-3.5 -35
v-173q0 -19 4.5 -28t18.5 -9h98q20 0 28 6t8 24q0 5 -4 35q-2 12 3.5 20t16.5 8t17 -7.5t11 -31.5t13 -79q9 -61 9 -85q0 -19 -5 -25.5t-15 -6.5q-21 0 -23 24q-6 33 -12 48.5t-14.5 20.5t-24.5 5h-105q-15 0 -19.5 -8t-4.5 -29v-217q0 -21 3 -30t12.5 -12t30.5 -3h205
q26 0 41 11.5t27 42t29 97.5q5 15 12 21t17 6t15 -5.5zM159 754.5q-4 2.5 -4 8.5t3 13q4 12 8.5 17.5t14.5 5.5l118 -1l110 1q12 0 12 -10q0 -1 -3 -13q-3 -14 -7.5 -19.5t-15.5 -5.5q-69 1 -222 1q-10 0 -14 2.5z" />
    <glyph glyph-name="emacron" unicode="&#x113;" horiz-adv-x="481" 
d="M136.5 23q-51.5 34 -78 91.5t-26.5 127.5t31.5 125t84 85t113.5 30q56 0 99.5 -23.5t67.5 -60.5t24 -77q0 -32 -15.5 -44.5t-51.5 -17.5l-240 -36q-8 -1 -11.5 -4.5t-3.5 -11.5q0 -36 18 -72t52.5 -60t82.5 -24q49 0 86 21.5t62 54.5q7 9 14 9q11 0 14.5 -8t0.5 -16
q-25 -54 -76.5 -88.5t-124.5 -34.5q-71 0 -122.5 34zM336 298q19 3 26 9t7 19q0 26 -14.5 52t-42 43t-63.5 17q-31 0 -60.5 -18.5t-48 -52t-18.5 -75.5q0 -14 2.5 -19.5t8.5 -5.5t9 1zM127 585.5q-4 2.5 -4 8.5t3 13q4 12 8.5 17.5t14.5 5.5l118 -1l110 1q12 0 12 -10
q0 -1 -3 -13q-3 -14 -7.5 -19.5t-15.5 -5.5q-69 1 -222 1q-10 0 -14 2.5z" />
    <glyph glyph-name="Ebreve" unicode="&#x114;" horiz-adv-x="638" 
d="M604 219.5q5 -5.5 5 -18.5q0 -25 -21 -108q-12 -50 -20.5 -73.5t-15.5 -30.5t-17 -7q-9 0 -14 2.5t-6 3.5q-8 6 -18 9t-31 3q-191 0 -264 -0.5t-97 -0.5h-36q-21 0 -29 4.5t-8 17.5q0 16 22 25q31 6 44.5 13.5t17.5 21t4 42.5v454q0 29 -4 42.5t-17.5 21t-44.5 13.5
q-22 9 -22 25q0 11 7.5 16.5t26.5 5.5h30q20 0 85.5 -0.5t245.5 -0.5q20 0 29.5 2.5t19.5 8.5q9 7 20 7q9 0 16 -7t15.5 -31t20.5 -73q22 -84 22 -109q0 -13 -5 -18t-15 -5q-21 0 -30 26q-23 75 -35 104t-25.5 38.5t-41.5 9.5h-161q-20 0 -29 -3.5t-12.5 -14.5t-3.5 -35
v-173q0 -19 4.5 -28t18.5 -9h98q20 0 28 6t8 24q0 5 -4 35q-2 12 3.5 20t16.5 8t17 -7.5t11 -31.5t13 -79q9 -61 9 -85q0 -19 -5 -25.5t-15 -6.5q-21 0 -23 24q-6 33 -12 48.5t-14.5 20.5t-24.5 5h-105q-15 0 -19.5 -8t-4.5 -29v-217q0 -21 3 -30t12.5 -12t30.5 -3h205
q26 0 41 11.5t27 42t29 97.5q5 15 12 21t17 6t15 -5.5zM184 774.5q-42 36.5 -46 96.5v2q0 14 12 14q8 0 13 -11q13 -40 46 -64.5t80 -24.5q45 0 77 22t45 64q4 6 9 10t9 4q6 0 9.5 -4.5t2.5 -11.5q-4 -59 -45.5 -96t-106.5 -37q-63 0 -105 36.5z" />
    <glyph glyph-name="ebreve" unicode="&#x115;" horiz-adv-x="481" 
d="M136.5 23q-51.5 34 -78 91.5t-26.5 127.5t31.5 125t84 85t113.5 30q56 0 99.5 -23.5t67.5 -60.5t24 -77q0 -32 -15.5 -44.5t-51.5 -17.5l-240 -36q-8 -1 -11.5 -4.5t-3.5 -11.5q0 -36 18 -72t52.5 -60t82.5 -24q49 0 86 21.5t62 54.5q7 9 14 9q11 0 14.5 -8t0.5 -16
q-25 -54 -76.5 -88.5t-124.5 -34.5q-71 0 -122.5 34zM336 298q19 3 26 9t7 19q0 26 -14.5 52t-42 43t-63.5 17q-31 0 -60.5 -18.5t-48 -52t-18.5 -75.5q0 -14 2.5 -19.5t8.5 -5.5t9 1zM150 569.5q-42 36.5 -46 96.5v2q0 14 12 14q8 0 13 -11q13 -40 46 -64.5t80 -24.5
q45 0 77 22t45 64q4 6 9 10t9 4q6 0 9.5 -4.5t2.5 -11.5q-4 -59 -45.5 -96t-106.5 -37q-63 0 -105 36.5z" />
    <glyph glyph-name="Edotaccent" unicode="&#x116;" horiz-adv-x="638" 
d="M604 219.5q5 -5.5 5 -18.5q0 -25 -21 -108q-12 -50 -20.5 -73.5t-15.5 -30.5t-17 -7q-9 0 -14 2.5t-6 3.5q-8 6 -18 9t-31 3q-191 0 -264 -0.5t-97 -0.5h-36q-21 0 -29 4.5t-8 17.5q0 16 22 25q31 6 44.5 13.5t17.5 21t4 42.5v454q0 29 -4 42.5t-17.5 21t-44.5 13.5
q-22 9 -22 25q0 11 7.5 16.5t26.5 5.5h30q20 0 85.5 -0.5t245.5 -0.5q20 0 29.5 2.5t19.5 8.5q9 7 20 7q9 0 16 -7t15.5 -31t20.5 -73q22 -84 22 -109q0 -13 -5 -18t-15 -5q-21 0 -30 26q-23 75 -35 104t-25.5 38.5t-41.5 9.5h-161q-20 0 -29 -3.5t-12.5 -14.5t-3.5 -35
v-173q0 -19 4.5 -28t18.5 -9h98q20 0 28 6t8 24q0 5 -4 35q-2 12 3.5 20t16.5 8t17 -7.5t11 -31.5t13 -79q9 -61 9 -85q0 -19 -5 -25.5t-15 -6.5q-21 0 -23 24q-6 33 -12 48.5t-14.5 20.5t-24.5 5h-105q-15 0 -19.5 -8t-4.5 -29v-217q0 -21 3 -30t12.5 -12t30.5 -3h205
q26 0 41 11.5t27 42t29 97.5q5 15 12 21t17 6t15 -5.5zM256.5 758q-16.5 13 -16.5 34t16.5 34t44.5 13q27 0 43.5 -13t16.5 -34t-16.5 -34t-43.5 -13q-28 0 -44.5 13z" />
    <glyph glyph-name="edotaccent" unicode="&#x117;" horiz-adv-x="481" 
d="M136.5 23q-51.5 34 -78 91.5t-26.5 127.5t31.5 125t84 85t113.5 30q56 0 99.5 -23.5t67.5 -60.5t24 -77q0 -32 -15.5 -44.5t-51.5 -17.5l-240 -36q-8 -1 -11.5 -4.5t-3.5 -11.5q0 -36 18 -72t52.5 -60t82.5 -24q49 0 86 21.5t62 54.5q7 9 14 9q11 0 14.5 -8t0.5 -16
q-25 -54 -76.5 -88.5t-124.5 -34.5q-71 0 -122.5 34zM336 298q19 3 26 9t7 19q0 26 -14.5 52t-42 43t-63.5 17q-31 0 -60.5 -18.5t-48 -52t-18.5 -75.5q0 -14 2.5 -19.5t8.5 -5.5t9 1zM209 580.5q-18 14.5 -18 37.5t18 36.5t48 13.5q29 0 46.5 -13.5t17.5 -36.5t-17.5 -37.5
t-46.5 -14.5q-30 0 -48 14.5z" />
    <glyph glyph-name="Eogonek" unicode="&#x118;" horiz-adv-x="638" 
d="M592 -127q5 0 8 -5t0 -13q-9 -23 -35.5 -39t-63.5 -16q-38 0 -61 22.5t-23 57.5q0 33 21.5 63t65.5 52q-13 5 -38 5q-191 0 -264 -0.5t-97 -0.5h-36q-21 0 -29 4.5t-8 17.5q0 16 22 25q31 6 44.5 13.5t17.5 21t4 42.5v454q0 29 -4 42.5t-17.5 21t-44.5 13.5q-22 9 -22 25
q0 11 7.5 16.5t26.5 5.5h30q20 0 85.5 -0.5t245.5 -0.5q20 0 29.5 2.5t19.5 8.5q9 7 20 7q9 0 16 -7t15.5 -31t20.5 -73q22 -84 22 -109q0 -13 -5 -18t-15 -5q-21 0 -30 26q-23 75 -35 104t-25.5 38.5t-41.5 9.5h-161q-20 0 -29 -3.5t-12.5 -14.5t-3.5 -35v-173
q0 -19 4.5 -28t18.5 -9h98q20 0 28 6t8 24q0 5 -4 35q-2 12 3.5 20t16.5 8t17 -7.5t11 -31.5t13 -79q9 -61 9 -85q0 -19 -5 -25.5t-15 -6.5q-21 0 -23 24q-6 33 -12 48.5t-14.5 20.5t-24.5 5h-105q-15 0 -19.5 -8t-4.5 -29v-217q0 -21 3 -30t12.5 -12t30.5 -3h205
q26 0 41 11.5t27 42t29 97.5q5 15 12 21t17 6t15 -5.5t5 -18.5q0 -25 -21 -108q-16 -67 -26.5 -88t-23.5 -23q-70 -42 -70 -92q0 -22 13 -36t36 -14q18 0 35.5 7.5t29.5 20.5q5 5 10 5z" />
    <glyph glyph-name="eogonek" unicode="&#x119;" horiz-adv-x="481" 
d="M387 26h1l-6 -3q-3 -4 -8 -5q-63 -41 -63 -88q0 -22 13 -36t36 -14q18 0 35.5 7.5t29.5 20.5q5 5 10 5t8 -5t0 -13q-9 -23 -35.5 -39t-63.5 -16q-38 0 -61 22.5t-23 57.5q0 37 28 71q-20 -2 -29 -2q-71 0 -122.5 34t-78 91.5t-26.5 127.5t31.5 125t84 85t113.5 30
q56 0 99.5 -23.5t67.5 -60.5t24 -77q0 -32 -15.5 -44.5t-51.5 -17.5l-240 -36q-8 -1 -11.5 -4.5t-3.5 -11.5q0 -36 18 -72t52.5 -60t82.5 -24q49 0 86 21.5t62 54.5q7 9 14 9q11 0 14.5 -8t0.5 -16q-24 -53 -73 -86zM124.5 272.5q2.5 -5.5 8.5 -5.5t9 1l194 30q19 3 26 9
t7 19q0 26 -14.5 52t-42 43t-63.5 17q-31 0 -60.5 -18.5t-48 -52t-18.5 -75.5q0 -14 2.5 -19.5z" />
    <glyph glyph-name="Ecaron" unicode="&#x11a;" horiz-adv-x="638" 
d="M604 219.5q5 -5.5 5 -18.5q0 -25 -21 -108q-12 -50 -20.5 -73.5t-15.5 -30.5t-17 -7q-9 0 -14 2.5t-6 3.5q-8 6 -18 9t-31 3q-191 0 -264 -0.5t-97 -0.5h-36q-21 0 -29 4.5t-8 17.5q0 16 22 25q31 6 44.5 13.5t17.5 21t4 42.5v454q0 29 -4 42.5t-17.5 21t-44.5 13.5
q-22 9 -22 25q0 11 7.5 16.5t26.5 5.5h30q20 0 85.5 -0.5t245.5 -0.5q20 0 29.5 2.5t19.5 8.5q9 7 20 7q9 0 16 -7t15.5 -31t20.5 -73q22 -84 22 -109q0 -13 -5 -18t-15 -5q-21 0 -30 26q-23 75 -35 104t-25.5 38.5t-41.5 9.5h-161q-20 0 -29 -3.5t-12.5 -14.5t-3.5 -35
v-173q0 -19 4.5 -28t18.5 -9h98q20 0 28 6t8 24q0 5 -4 35q-2 12 3.5 20t16.5 8t17 -7.5t11 -31.5t13 -79q9 -61 9 -85q0 -19 -5 -25.5t-15 -6.5q-21 0 -23 24q-6 33 -12 48.5t-14.5 20.5t-24.5 5h-105q-15 0 -19.5 -8t-4.5 -29v-217q0 -21 3 -30t12.5 -12t30.5 -3h205
q26 0 41 11.5t27 42t29 97.5q5 15 12 21t17 6t15 -5.5zM164 870.5q20 -15.5 28 -20.5q32 -25 58 -44t31 -19q9 0 90 63l17 13q4 3 17.5 13t17.5 10q5 0 8.5 -3.5t3.5 -9.5q0 -15 -49 -64.5t-80 -70.5q-14 -9 -25 -9q-12 0 -24 9q-31 20 -80 70t-49 65q0 6 3.5 9.5t8.5 3.5
q4 0 24 -15.5z" />
    <glyph glyph-name="ecaron" unicode="&#x11b;" horiz-adv-x="481" 
d="M136.5 23q-51.5 34 -78 91.5t-26.5 127.5t31.5 125t84 85t113.5 30q56 0 99.5 -23.5t67.5 -60.5t24 -77q0 -32 -15.5 -44.5t-51.5 -17.5l-240 -36q-8 -1 -11.5 -4.5t-3.5 -11.5q0 -36 18 -72t52.5 -60t82.5 -24q49 0 86 21.5t62 54.5q7 9 14 9q11 0 14.5 -8t0.5 -16
q-25 -54 -76.5 -88.5t-124.5 -34.5q-71 0 -122.5 34zM336 298q19 3 26 9t7 19q0 26 -14.5 52t-42 43t-63.5 17q-31 0 -60.5 -18.5t-48 -52t-18.5 -75.5q0 -14 2.5 -19.5t8.5 -5.5t9 1zM131.5 681.5q9.5 -4.5 18.5 -12.5l17 -15q79 -72 88 -72q5 0 32.5 24t35.5 31l36 32
q20 17 35 17q7 0 10.5 -6t1.5 -14q-10 -23 -54 -68t-72 -63q-12 -8 -25 -8t-24 8q-30 19 -74.5 63.5t-52.5 67.5q-1 2 -1 6q0 6 3.5 10t9.5 4t15.5 -4.5z" />
    <glyph glyph-name="Gcircumflex" unicode="&#x11c;" horiz-adv-x="696" 
d="M194.5 37.5q-76.5 48.5 -119.5 133t-43 188.5q0 103 44 183t117 124.5t157 44.5q54 0 103 -17.5t85 -48.5q20 -18 28 -29q19 -22 29 -47q14 -31 14 -63q0 -24 -13 -40t-38 -16q-22 0 -37 12.5t-24 47.5q1 66 -42 108t-114 42q-60 0 -108 -34t-74.5 -93t-26.5 -131
q0 -94 33 -174t90.5 -127.5t127.5 -47.5q75 0 113.5 28.5t38.5 67.5v45q0 44 -5 60t-17.5 19.5t-56.5 9.5q-10 3 -16.5 10.5t-6.5 16.5q0 11 8 16t27 5h125h59q18 0 26 -4.5t8 -16.5q0 -17 -20 -24q-5 -1 -24 -5t-23 -23.5t-4 -65.5v-49q0 -54 -39 -92q-17 -16 -37 -27
q-65 -35 -173 -35q-95 0 -171.5 48.5zM222.5 735.5q-3.5 3.5 -3.5 9.5q0 15 49 65t80 70q12 9 24 9q11 0 25 -9q31 -21 80 -70.5t49 -64.5q0 -6 -3.5 -9.5t-8.5 -3.5q-4 0 -17.5 10t-17.5 13l-17 13q-81 63 -90 63q-5 0 -31 -19t-58 -44q-8 -5 -28 -20.5t-24 -15.5
q-5 0 -8.5 3.5z" />
    <glyph glyph-name="gcircumflex" unicode="&#x11d;" horiz-adv-x="507" 
d="M428 437q-24 0 -39 1q37 -27 58 -66.5t21 -87.5q0 -64 -32.5 -110.5t-90.5 -68.5q62 -15 96.5 -49t34.5 -85q0 -73 -63.5 -116t-168.5 -43q-46 0 -89 10.5t-75 31.5q-61 39 -61 99q0 22 13 34.5t33 12.5t35.5 -12t21.5 -34q1 -41 29 -65q35 -32 104 -32q60 0 98 29t38 76
q0 54 -43 89t-112 36q-60 0 -109.5 24.5t-78 69t-28.5 103.5q0 55 28 100t79.5 71.5t116.5 26.5q34 0 68 -8q28 -2 50 4t49 18q19 9 32 12q4 1 11 1q15 0 24 -10t9 -24t-9 -25t-27 -12q-8 -1 -23 -1zM342.5 168q34.5 37 34.5 98q0 73 -39 122.5t-101 49.5q-53 0 -89.5 -38.5
t-36.5 -96.5q0 -76 39 -124t101 -48q57 0 91.5 37zM92.5 536.5q-3.5 5.5 -1.5 13.5q8 23 52.5 67.5t74.5 64.5q11 8 24 8q11 0 25 -8q28 -18 72 -63.5t54 -68.5q1 -2 1 -5q0 -6 -4 -10t-9 -4q-14 0 -35 16l-29 26q-24 22 -47 42t-28 20q-6 0 -82 -67q-9 -9 -23 -21
q-9 -7 -19 -11.5t-15 -4.5q-7 0 -10.5 5.5z" />
    <glyph glyph-name="Gbreve" unicode="&#x11e;" horiz-adv-x="696" 
d="M194.5 37.5q-76.5 48.5 -119.5 133t-43 188.5q0 103 44 183t117 124.5t157 44.5q54 0 103 -17.5t85 -48.5q20 -18 28 -29q19 -22 29 -47q14 -31 14 -63q0 -24 -13 -40t-38 -16q-22 0 -37 12.5t-24 47.5q1 66 -42 108t-114 42q-60 0 -108 -34t-74.5 -93t-26.5 -131
q0 -94 33 -174t90.5 -127.5t127.5 -47.5q75 0 113.5 28.5t38.5 67.5v45q0 44 -5 60t-17.5 19.5t-56.5 9.5q-10 3 -16.5 10.5t-6.5 16.5q0 11 8 16t27 5h125h59q18 0 26 -4.5t8 -16.5q0 -17 -20 -24q-5 -1 -24 -5t-23 -23.5t-4 -65.5v-49q0 -54 -39 -92q-17 -16 -37 -27
q-65 -35 -173 -35q-95 0 -171.5 48.5zM260 774.5q-42 36.5 -46 96.5v2q0 14 12 14q8 0 13 -11q13 -40 46 -64.5t80 -24.5q45 0 77 22t45 64q4 6 9 10t9 4q6 0 9.5 -4.5t2.5 -11.5q-4 -59 -45.5 -96t-106.5 -37q-63 0 -105 36.5z" />
    <glyph glyph-name="gbreve" unicode="&#x11f;" horiz-adv-x="507" 
d="M428 437q-24 0 -39 1q37 -27 58 -66.5t21 -87.5q0 -64 -32.5 -110.5t-90.5 -68.5q62 -15 96.5 -49t34.5 -85q0 -73 -63.5 -116t-168.5 -43q-46 0 -89 10.5t-75 31.5q-61 39 -61 99q0 22 13 34.5t33 12.5t35.5 -12t21.5 -34q1 -41 29 -65q35 -32 104 -32q60 0 98 29t38 76
q0 54 -43 89t-112 36q-60 0 -109.5 24.5t-78 69t-28.5 103.5q0 55 28 100t79.5 71.5t116.5 26.5q34 0 68 -8q28 -2 50 4t49 18q19 9 32 12q4 1 11 1q15 0 24 -10t9 -24t-9 -25t-27 -12q-8 -1 -23 -1zM342.5 168q34.5 37 34.5 98q0 73 -39 122.5t-101 49.5q-53 0 -89.5 -38.5
t-36.5 -96.5q0 -76 39 -124t101 -48q57 0 91.5 37zM136 569.5q-42 36.5 -46 96.5v2q0 14 12 14q8 0 13 -11q13 -40 46 -64.5t80 -24.5q45 0 77 22t45 64q4 6 9 10t9 4q6 0 9.5 -4.5t2.5 -11.5q-4 -59 -45.5 -96t-106.5 -37q-63 0 -105 36.5z" />
    <glyph glyph-name="Gdotaccent" unicode="&#x120;" horiz-adv-x="696" 
d="M194.5 37.5q-76.5 48.5 -119.5 133t-43 188.5q0 103 44 183t117 124.5t157 44.5q54 0 103 -17.5t85 -48.5q20 -18 28 -29q19 -22 29 -47q14 -31 14 -63q0 -24 -13 -40t-38 -16q-22 0 -37 12.5t-24 47.5q1 66 -42 108t-114 42q-60 0 -108 -34t-74.5 -93t-26.5 -131
q0 -94 33 -174t90.5 -127.5t127.5 -47.5q75 0 113.5 28.5t38.5 67.5v45q0 44 -5 60t-17.5 19.5t-56.5 9.5q-10 3 -16.5 10.5t-6.5 16.5q0 11 8 16t27 5h125h59q18 0 26 -4.5t8 -16.5q0 -17 -20 -24q-5 -1 -24 -5t-23 -23.5t-4 -65.5v-49q0 -54 -39 -92q-17 -16 -37 -27
q-65 -35 -173 -35q-95 0 -171.5 48.5zM332.5 758q-16.5 13 -16.5 34t16.5 34t44.5 13q27 0 43.5 -13t16.5 -34t-16.5 -34t-43.5 -13q-28 0 -44.5 13z" />
    <glyph glyph-name="gdotaccent" unicode="&#x121;" horiz-adv-x="507" 
d="M200 580.5q-18 14.5 -18 37.5q0 22 18 35.5t48 13.5q29 0 46.5 -13.5t17.5 -35.5q0 -23 -17.5 -37.5t-46.5 -14.5q-30 0 -48 14.5zM428 437q-24 0 -39 1q37 -28 58 -70t21 -94q0 -60 -33 -104.5t-91 -65.5q62 -15 97 -48.5t35 -84.5q0 -73 -63.5 -116t-168.5 -43
q-58 0 -109.5 16t-83.5 48t-32 77q0 22 13 34.5t33 12.5t35.5 -12t21.5 -34q1 -49 38.5 -73t94.5 -24q60 0 97.5 28.5t38.5 76.5q0 34 -19.5 62.5t-55.5 45.5t-82 17h-3q-60 2 -108 27.5t-75.5 69t-27.5 100.5q0 55 28 100t79.5 71.5t116.5 26.5q35 0 70 -8q27 -2 49 4
t47 18q21 10 33 12q4 1 11 1q15 0 24 -10t9 -24t-9 -25t-27 -12q-8 -1 -23 -1zM342.5 168q34.5 37 34.5 98q0 73 -39 122.5t-101 49.5q-53 0 -89.5 -38.5t-36.5 -96.5q0 -76 38.5 -124t101.5 -48q57 0 91.5 37z" />
    <glyph glyph-name="uni0122" unicode="&#x122;" horiz-adv-x="696" 
d="M194.5 37.5q-76.5 48.5 -119.5 133t-43 188.5q0 103 44 183t117 124.5t157 44.5q54 0 103 -17.5t85 -48.5q20 -18 28 -29q19 -22 29 -47q14 -31 14 -63q0 -24 -13 -40t-38 -16q-22 0 -37 12.5t-24 47.5q1 66 -42 108t-114 42q-60 0 -108 -34t-74.5 -93t-26.5 -131
q0 -94 33 -174t90.5 -127.5t127.5 -47.5q75 0 113.5 28.5t38.5 67.5v45q0 44 -5 60t-17.5 19.5t-56.5 9.5q-10 3 -16.5 10.5t-6.5 16.5q0 11 8 16t27 5h125h59q18 0 26 -4.5t8 -16.5q0 -17 -20 -24q-5 -1 -24 -5t-23 -23.5t-4 -65.5v-49q0 -54 -39 -92q-17 -16 -37 -27
q-65 -35 -173 -35q-95 0 -171.5 48.5zM340.5 -157.5q-2.5 2.5 -2.5 6.5t6 7q29 13 29 31q0 8 -11 9t-18.5 9t-7.5 22q0 15 10.5 25t26.5 10q18 0 28 -12.5t10 -34.5q0 -24 -11 -41t-26.5 -25.5t-26.5 -8.5q-4 0 -6.5 2.5z" />
    <glyph glyph-name="uni0123" unicode="&#x123;" horiz-adv-x="507" 
d="M441.5 56q34.5 -34 34.5 -85q0 -73 -63.5 -116t-168.5 -43q-46 0 -89 10.5t-75 31.5q-61 39 -61 99q0 22 13 34.5t33 12.5t35.5 -12t21.5 -34q1 -41 29 -65q35 -32 104 -32q60 0 98 29t38 76q0 54 -43 89t-112 36q-60 0 -109.5 24.5t-78 69t-28.5 103.5q0 55 28 100
t79.5 71.5t116.5 26.5q47 0 83 -13v1q5 -1 15 -1q48 0 48 69q0 19 12.5 29.5t29.5 10.5t29.5 -11.5t12.5 -28.5q0 -38 -23.5 -64t-61.5 -35q37 -28 58 -67.5t21 -87.5q0 -64 -32.5 -110.5t-90.5 -68.5q62 -15 96.5 -49zM150 179q39 -48 101 -48q57 0 91.5 37t34.5 98
q0 73 -39 122.5t-101 49.5q-53 0 -89.5 -38.5t-36.5 -96.5q0 -76 39 -124zM283.5 687q3.5 -4 3.5 -9q0 -6 -7 -9q-40 -19 -40 -42q0 -11 14 -12q15 -2 25.5 -13.5t10.5 -29.5q0 -20 -14 -33.5t-36 -13.5q-25 0 -38.5 17t-13.5 46q0 33 15 56.5t35.5 35t36.5 11.5q5 0 8.5 -4
z" />
    <glyph glyph-name="Hcircumflex" unicode="&#x124;" horiz-adv-x="785" 
d="M40 3.5q-8 4.5 -8 17.5q0 16 22 25q31 6 44.5 13.5t17.5 21t4 42.5v454q0 29 -4 42.5t-17.5 21t-44.5 13.5q-10 3 -16 9.5t-6 15.5q0 13 8 17.5t29 4.5h194q21 0 29 -4.5t8 -17.5q0 -15 -23 -25q-31 -6 -44.5 -13.5t-17 -20.5t-3.5 -43v-144q0 -28 8 -36.5t31 -8.5h283
q23 0 31 9t8 36v144q0 30 -4 43t-17 20.5t-45 13.5q-10 3 -16 9.5t-6 15.5q0 13 8 17.5t29 4.5h194q21 0 29 -4.5t8 -17.5q0 -15 -23 -25q-31 -6 -44.5 -13.5t-17 -20.5t-3.5 -43v-454q0 -30 4 -43t17 -20.5t45 -13.5q10 -3 16 -9.5t6 -15.5q0 -13 -8 -17.5t-29 -4.5h-194
q-21 0 -29 4.5t-8 17.5q0 15 23 25q31 6 44.5 13.5t17 20.5t3.5 43v166q0 28 -8 37t-31 9h-283q-23 0 -31 -8.5t-8 -37.5v-166q0 -30 4 -43t17 -20.5t45 -13.5q10 -3 16 -9.5t6 -15.5q0 -13 -8 -17.5t-29 -4.5h-194q-21 0 -29 4.5zM242.5 735.5q-3.5 3.5 -3.5 9.5
q0 15 49 65t80 70q12 9 24 9q11 0 25 -9q31 -21 80 -70.5t49 -64.5q0 -6 -3.5 -9.5t-8.5 -3.5q-4 0 -17.5 10t-17.5 13l-17 13q-81 63 -90 63q-5 0 -31 -19t-58 -44q-8 -5 -28 -20.5t-24 -15.5q-5 0 -8.5 3.5z" />
    <glyph glyph-name="hcircumflex" unicode="&#x125;" horiz-adv-x="616" 
d="M37 3.5q-13 5.5 -13 16.5q0 7 4.5 12t12.5 7q28 5 40 13t14.5 21t2.5 43v486q0 20 -4.5 29t-20.5 9q-11 0 -20.5 -1t-16.5 -1q-10 0 -14.5 2.5t-4.5 10.5q0 9 7.5 14.5t21.5 10.5q20 5 47 14q5 1 29.5 8.5t36.5 7.5q14 0 20.5 -6t6.5 -21v-276q0 -24 4 -24q2 0 16 27.5
t50 52t94 24.5q66 0 108 -42t51 -127l21 -187q4 -39 8.5 -53.5t15.5 -20.5t39 -11q20 -7 20 -22q0 -11 -10.5 -16.5t-39.5 -5.5l-71 1l-68 -1q-28 0 -39 4.5t-11 17.5q0 16 20 21q31 6 41.5 14t10.5 33q0 8 -4 46l-19 166q-8 62 -34 90.5t-77 28.5q-30 0 -59 -17.5
t-48 -54.5t-19 -93v-137q0 -30 3 -43.5t15 -21t40 -12.5q18 -5 18 -20q0 -11 -11.5 -16.5t-46.5 -5.5l-59 1l-60 -1q-35 0 -48 5.5zM-12.5 728.5q-3.5 3.5 -3.5 9.5q0 15 49 65t80 70q12 9 24 9q11 0 25 -9q31 -21 80 -70.5t49 -64.5q0 -6 -3.5 -9.5t-8.5 -3.5
q-4 0 -17.5 10t-17.5 13l-17 13q-81 63 -90 63q-5 0 -31 -19t-58 -44q-8 -5 -28 -20.5t-24 -15.5q-5 0 -8.5 3.5z" />
    <glyph glyph-name="Hbar" unicode="&#x126;" horiz-adv-x="785" 
d="M747 36.5q6 -6.5 6 -15.5q0 -13 -8 -17.5t-29 -4.5h-194q-21 0 -29 4.5t-8 17.5q0 15 23 25q31 6 44.5 13.5t17 20.5t3.5 43v166q0 28 -8 37t-31 9h-283q-23 0 -31 -8.5t-8 -37.5v-166q0 -30 4 -43t17 -20.5t45 -13.5q10 -3 16 -9.5t6 -15.5q0 -13 -8 -17.5t-29 -4.5
h-194q-21 0 -29 4.5t-8 17.5q0 16 22 25q31 6 44.5 13.5t17.5 21t4 42.5v397h-54q-6 0 -9.5 6t-3.5 14t3.5 13.5t9.5 5.5h54v18q0 29 -4 42.5t-17.5 21t-44.5 13.5q-10 3 -16 9.5t-6 15.5q0 13 8 17.5t29 4.5h194q21 0 29 -4.5t8 -17.5q0 -15 -23 -25q-31 -6 -44.5 -13.5
t-17 -20.5t-3.5 -43v-18h361v18q0 30 -4 43t-17 20.5t-45 13.5q-10 3 -16 9.5t-6 15.5q0 13 8 17.5t29 4.5h194q21 0 29 -4.5t8 -17.5q0 -15 -23 -25q-31 -6 -44.5 -13.5t-17 -20.5t-3.5 -43v-18h52q7 0 10.5 -5.5t3.5 -13.5t-3.5 -14t-10.5 -6h-52v-397q0 -30 4 -43
t17 -20.5t45 -13.5q10 -3 16 -9.5zM534 388q23 0 31 9t8 36v87h-361v-87q0 -28 8 -36.5t31 -8.5h283z" />
    <glyph glyph-name="hbar" unicode="&#x127;" horiz-adv-x="616" 
d="M613 20q0 -11 -10.5 -16.5t-39.5 -5.5l-71 1l-68 -1q-28 0 -39 4.5t-11 17.5q0 16 20 21q31 6 41.5 14t10.5 33q0 8 -4 46l-19 166q-8 62 -34 90.5t-77 28.5q-30 0 -59 -17.5t-48 -54.5t-19 -93v-137q0 -30 3 -43.5t15 -21t40 -12.5q18 -5 18 -20q0 -11 -11.5 -16.5
t-46.5 -5.5l-59 1l-60 -1q-35 0 -48 5.5t-13 16.5q0 7 4.5 12t12.5 7q28 5 40 13t14.5 21t2.5 43v408h-60q-17 0 -17 17q0 29 29 29q31 0 48 -1v33q0 20 -4.5 29t-20.5 9q-11 0 -20.5 -1t-16.5 -1q-10 0 -14.5 2.5t-4.5 10.5q0 9 7.5 14.5t21.5 10.5q20 5 47 14
q5 1 29.5 8.5t36.5 7.5q14 0 20.5 -6t6.5 -21v-110l95 1q17 0 17 -17q0 -29 -29 -29h-83v-121q0 -24 4 -24q2 0 16 27.5t50 52t94 24.5q66 0 108 -42t51 -127l21 -187q4 -39 8.5 -53.5t15.5 -20.5t39 -11q20 -7 20 -22z" />
    <glyph glyph-name="Itilde" unicode="&#x128;" horiz-adv-x="332" 
d="M69 -1q-21 0 -29 4.5t-8 17.5q0 16 22 25q31 6 44.5 13.5t17.5 21t4 42.5v454q0 29 -4 42.5t-17.5 21t-44.5 13.5q-10 3 -16 9.5t-6 15.5q0 13 8 17.5t29 4.5q48 0 61 -1h28h16l89 1q21 0 29 -4.5t8 -17.5q0 -16 -22 -25q-31 -6 -44.5 -13.5t-17.5 -21t-4 -42.5v-454
q0 -29 4 -42.5t17.5 -21t44.5 -13.5q10 -3 16.5 -9.5t6.5 -15.5q0 -13 -8 -17.5t-29 -4.5q-49 0 -62 1h-27h-17zM207 746.5q-18 7.5 -41 20.5l-19 9.5t-27.5 11.5t-24.5 4q-17 0 -28.5 -9.5t-15.5 -26.5q-10 -19 -25 -19q-8 0 -13 5.5t-5 14.5q1 37 23.5 60t56.5 23
q23 0 44.5 -8t46.5 -23q23 -12 35 -17.5t25 -5.5q16 0 27.5 10t16.5 26q9 19 25 19q8 0 13 -5.5t5 -14.5q-1 -37 -23.5 -59.5t-57.5 -22.5q-20 0 -38 7.5z" />
    <glyph glyph-name="itilde" unicode="&#x129;" horiz-adv-x="282" 
d="M41 1.5q-13 5.5 -13 16.5q0 15 16 20q28 4 40 12t14.5 21t2.5 44v259q0 20 -4 29t-18 9q-12 0 -22 -1t-17 -1q-11 0 -15.5 2.5t-4.5 10.5q0 9 7.5 14.5t21.5 10.5l29 9q67 21 84 21q15 0 21.5 -6t6.5 -21v-336q0 -30 3 -43t15 -21t40 -13q18 -5 18 -20q0 -11 -11.5 -16.5
t-46.5 -5.5l-60 1l-60 -1q-34 0 -47 5.5zM156 567.5q-18 7.5 -41 20.5l-19 9.5t-27.5 11.5t-24.5 4q-17 0 -28.5 -9.5t-15.5 -26.5q-10 -19 -25 -19q-8 0 -13 5.5t-5 14.5q1 37 23.5 60t56.5 23q23 0 44.5 -8t46.5 -23q23 -12 35 -17.5t25 -5.5q16 0 27.5 10t16.5 26
q9 19 25 19q8 0 13 -5.5t5 -14.5q-1 -37 -23.5 -59.5t-57.5 -22.5q-20 0 -38 7.5z" />
    <glyph glyph-name="Imacron" unicode="&#x12a;" horiz-adv-x="332" 
d="M69 -1q-21 0 -29 4.5t-8 17.5q0 16 22 25q31 6 44.5 13.5t17.5 21t4 42.5v454q0 29 -4 42.5t-17.5 21t-44.5 13.5q-10 3 -16 9.5t-6 15.5q0 13 8 17.5t29 4.5q48 0 61 -1h28h16l89 1q21 0 29 -4.5t8 -17.5q0 -16 -22 -25q-31 -6 -44.5 -13.5t-17.5 -21t-4 -42.5v-454
q0 -29 4 -42.5t17.5 -21t44.5 -13.5q10 -3 16.5 -9.5t6.5 -15.5q0 -13 -8 -17.5t-29 -4.5q-49 0 -62 1h-27h-17zM29 754.5q-4 2.5 -4 8.5t3 13q4 12 8.5 17.5t14.5 5.5l118 -1l110 1q12 0 12 -10q0 -1 -3 -13q-3 -14 -7.5 -19.5t-15.5 -5.5q-69 1 -222 1q-10 0 -14 2.5z" />
    <glyph glyph-name="imacron" unicode="&#x12b;" horiz-adv-x="282" 
d="M41 1.5q-13 5.5 -13 16.5q0 15 16 20q28 4 40 12t14.5 21t2.5 44v259q0 20 -4 29t-18 9q-12 0 -22 -1t-17 -1q-11 0 -15.5 2.5t-4.5 10.5q0 9 7.5 14.5t21.5 10.5l29 9q67 21 84 21q15 0 21.5 -6t6.5 -21v-336q0 -30 3 -43t15 -21t40 -13q18 -5 18 -20q0 -11 -11.5 -16.5
t-46.5 -5.5l-60 1l-60 -1q-34 0 -47 5.5zM-2 585.5q-4 2.5 -4 8.5t3 13q4 12 8.5 17.5t14.5 5.5l118 -1l110 1q12 0 12 -10q0 -1 -3 -13q-3 -14 -7.5 -19.5t-15.5 -5.5q-69 1 -222 1q-10 0 -14 2.5z" />
    <glyph glyph-name="Ibreve" unicode="&#x12c;" horiz-adv-x="332" 
d="M69 -1q-21 0 -29 4.5t-8 17.5q0 16 22 25q31 6 44.5 13.5t17.5 21t4 42.5v454q0 29 -4 42.5t-17.5 21t-44.5 13.5q-10 3 -16 9.5t-6 15.5q0 13 8 17.5t29 4.5q48 0 61 -1h28h16l89 1q21 0 29 -4.5t8 -17.5q0 -16 -22 -25q-31 -6 -44.5 -13.5t-17.5 -21t-4 -42.5v-454
q0 -29 4 -42.5t17.5 -21t44.5 -13.5q10 -3 16.5 -9.5t6.5 -15.5q0 -13 -8 -17.5t-29 -4.5q-49 0 -62 1h-27h-17zM54 774.5q-42 36.5 -46 96.5v2q0 14 12 14q8 0 13 -11q13 -40 46 -64.5t80 -24.5q45 0 77 22t45 64q4 6 9 10t9 4q6 0 9.5 -4.5t2.5 -11.5q-4 -59 -45.5 -96
t-106.5 -37q-63 0 -105 36.5z" />
    <glyph glyph-name="ibreve" unicode="&#x12d;" horiz-adv-x="282" 
d="M41 1.5q-13 5.5 -13 16.5q0 15 16 20q28 4 40 12t14.5 21t2.5 44v259q0 20 -4 29t-18 9q-12 0 -22 -1t-17 -1q-11 0 -15.5 2.5t-4.5 10.5q0 9 7.5 14.5t21.5 10.5l29 9q67 21 84 21q15 0 21.5 -6t6.5 -21v-336q0 -30 3 -43t15 -21t40 -13q18 -5 18 -20q0 -11 -11.5 -16.5
t-46.5 -5.5l-60 1l-60 -1q-34 0 -47 5.5zM21 569.5q-42 36.5 -46 96.5v2q0 14 12 14q8 0 13 -11q13 -40 46 -64.5t80 -24.5q45 0 77 22t45 64q4 6 9 10t9 4q6 0 9.5 -4.5t2.5 -11.5q-4 -59 -45.5 -96t-106.5 -37q-63 0 -105 36.5z" />
    <glyph glyph-name="Iogonek" unicode="&#x12e;" horiz-adv-x="332" 
d="M294.5 36.5q6.5 -6.5 6.5 -15.5q0 -13 -8 -17.5t-29 -4.5q-34 0 -50.5 0.5t-25.5 0.5q-38 -22 -56.5 -45t-18.5 -50q0 -22 13 -36t36 -14q18 0 35.5 7.5t29.5 20.5q5 5 10 5t8 -5t0 -13q-9 -23 -35.5 -39t-63.5 -16q-38 0 -61 22.5t-23 57.5q0 29 17 56.5t52 48.5
q-16 -1 -62 -1q-21 0 -29 4.5t-8 17.5q0 16 22 25q31 6 44.5 13.5t17.5 21t4 42.5v454q0 29 -4 42.5t-17.5 21t-44.5 13.5q-10 3 -16 9.5t-6 15.5q0 13 8 17.5t29 4.5q48 0 61 -1h28h16l89 1q21 0 29 -4.5t8 -17.5q0 -16 -22 -25q-31 -6 -44.5 -13.5t-17.5 -21t-4 -42.5
v-454q0 -29 4 -42.5t17.5 -21t44.5 -13.5q10 -3 16.5 -9.5z" />
    <glyph glyph-name="iogonek" unicode="&#x12f;" horiz-adv-x="282" 
d="M80 574q-18 14 -18 37t18 36.5t48 13.5q29 0 46.5 -13.5t17.5 -36.5t-17.5 -37t-46.5 -14q-30 0 -48 14zM102 -96q0 -22 13 -36t36 -14q18 0 35.5 7.5t29.5 20.5q5 5 10 5t8 -5t0 -13q-9 -23 -35.5 -39t-63.5 -16q-38 0 -61 22.5t-23 57.5q0 29 16.5 55.5t49.5 47.5
q-10 -1 -29 -1q-34 0 -47 5.5t-13 16.5q0 15 16 20q28 4 40 12t14.5 21t2.5 44v259q0 20 -4 29t-18 9q-12 0 -22 -1t-17 -1q-11 0 -15.5 2.5t-4.5 10.5q0 9 7.5 14.5t21.5 10.5l29 9q67 21 84 21q15 0 21.5 -6t6.5 -21v-336q0 -30 3 -43t15 -21t40 -13q18 -5 18 -20
q0 -11 -11.5 -16.5t-46.5 -5.5q-23 0 -35 1q-71 -41 -71 -93z" />
    <glyph glyph-name="Idotaccent" unicode="&#x130;" horiz-adv-x="332" 
d="M69 -1q-21 0 -29 4.5t-8 17.5q0 16 22 25q31 6 44.5 13.5t17.5 21t4 42.5v454q0 29 -4 42.5t-17.5 21t-44.5 13.5q-10 3 -16 9.5t-6 15.5q0 13 8 17.5t29 4.5q48 0 61 -1h28h16l89 1q21 0 29 -4.5t8 -17.5q0 -16 -22 -25q-31 -6 -44.5 -13.5t-17.5 -21t-4 -42.5v-454
q0 -29 4 -42.5t17.5 -21t44.5 -13.5q10 -3 16.5 -9.5t6.5 -15.5q0 -13 -8 -17.5t-29 -4.5q-49 0 -62 1h-27h-17zM126.5 758q-16.5 13 -16.5 34t16.5 34t44.5 13q27 0 43.5 -13t16.5 -34t-16.5 -34t-43.5 -13q-28 0 -44.5 13z" />
    <glyph glyph-name="dotlessi" unicode="&#x131;" horiz-adv-x="282" 
d="M41 1.5q-13 5.5 -13 16.5q0 15 16 20q28 4 40 12t14.5 21t2.5 44v259q0 20 -4 29t-18 9q-12 0 -22 -1t-17 -1q-11 0 -15.5 2.5t-4.5 10.5q0 9 7.5 14.5t21.5 10.5l29 9q67 21 84 21q15 0 21.5 -6t6.5 -21v-336q0 -30 3 -43t15 -21t40 -13q18 -5 18 -20q0 -11 -11.5 -16.5
t-46.5 -5.5l-60 1l-60 -1q-34 0 -47 5.5z" />
    <glyph glyph-name="IJ" unicode="&#x132;" horiz-adv-x="851" 
d="M69 -1q-21 0 -29 4.5t-8 17.5q0 16 22 25q31 6 44.5 13.5t17.5 21t4 42.5v454q0 29 -4 42.5t-17.5 21t-44.5 13.5q-10 3 -16 9.5t-6 15.5q0 13 8 17.5t29 4.5q48 0 61 -1h28h16l89 1q21 0 29 -4.5t8 -17.5q0 -16 -22 -25q-31 -6 -44.5 -13.5t-17.5 -21t-4 -42.5v-454
q0 -29 4 -42.5t17.5 -21t44.5 -13.5q10 -3 16.5 -9.5t6.5 -15.5q0 -13 -8 -17.5t-29 -4.5q-49 0 -62 1h-27h-17zM406.5 44q-48.5 55 -48.5 135q0 25 13.5 40.5t36.5 15.5t35.5 -16t9.5 -41q-1 -9 -1 -26q0 -55 25.5 -83.5t74.5 -28.5q125 0 125 178l-1 82q-3 80 -3 184v89
q0 29 -5 43t-21 21t-53 13q-27 8 -27 29q0 12 10 17t35 5h195q18 0 25 -4.5t7 -17.5q0 -16 -20 -25q-25 -6 -36 -13.5t-14 -21t-3 -42.5v-337q0 -120 -53 -185.5t-160 -65.5q-98 0 -146.5 55z" />
    <glyph glyph-name="ij" unicode="&#x133;" horiz-adv-x="535" 
d="M41 1.5q-13 5.5 -13 16.5q0 15 16 20q28 4 40 12t14.5 21t2.5 44v259q0 20 -4 29t-18 9q-12 0 -22 -1t-17 -1q-11 0 -15.5 2.5t-4.5 10.5q0 9 7.5 14.5t21.5 10.5l29 9q67 21 84 21q15 0 21.5 -6t6.5 -21v-336q0 -30 3 -43t15 -21t40 -13q18 -5 18 -20q0 -11 -11.5 -16.5
t-46.5 -5.5l-60 1l-60 -1q-34 0 -47 5.5zM80 573.5q-18 14.5 -18 37.5t18 36.5t48 13.5q29 0 46.5 -13.5t17.5 -36.5t-17.5 -37.5t-46.5 -14.5q-30 0 -48 14.5zM286 -176q-12 0 -19 6.5t-7 16.5q0 8 5.5 15t15.5 11q95 29 95 175v326q0 21 -4.5 30t-21.5 8q-24 -2 -31 -2
q-24 0 -24 13q0 9 7.5 14.5t21.5 10.5l23 7q71 23 90 23q15 0 21.5 -6t6.5 -21v-382q0 -113 -47.5 -171t-122.5 -73q-3 -1 -9 -1zM357 573.5q-18 14.5 -18 37.5t18 36.5t48 13.5q29 0 46.5 -13.5t17.5 -36.5t-17.5 -37.5t-46.5 -14.5q-30 0 -48 14.5z" />
    <glyph glyph-name="Jcircumflex" unicode="&#x134;" horiz-adv-x="519" 
d="M74.5 44q-48.5 55 -48.5 135q0 25 13.5 40.5t36.5 15.5t35.5 -16t9.5 -41q-1 -9 -1 -26q0 -55 25.5 -83.5t74.5 -28.5q125 0 125 178l-1 82q-3 80 -3 184v89q0 29 -5 43t-21 21t-53 13q-27 8 -27 29q0 12 10 17t35 5h195q18 0 25 -4.5t7 -17.5q0 -16 -20 -25
q-25 -6 -36 -13.5t-14 -21t-3 -42.5v-337q0 -120 -53 -185.5t-160 -65.5q-98 0 -146.5 55zM223.5 735.5q-3.5 3.5 -3.5 9.5q0 15 49 65t80 70q12 9 24 9q11 0 25 -9q31 -21 80 -70.5t49 -64.5q0 -6 -3.5 -9.5t-8.5 -3.5q-4 0 -17.5 10t-17.5 13l-17 13q-81 63 -90 63
q-5 0 -31 -19t-58 -44q-8 -5 -28 -20.5t-24 -15.5q-5 0 -8.5 3.5z" />
    <glyph glyph-name="jcircumflex" unicode="&#x135;" horiz-adv-x="253" 
d="M4 -176q-12 0 -19 6.5t-7 16.5q0 8 5.5 15t15.5 11q95 29 95 175v326q0 21 -4.5 30t-21.5 8q-24 -2 -31 -2q-24 0 -24 13q0 9 7.5 14.5t21.5 10.5l23 7q71 23 90 23q15 0 21.5 -6t6.5 -21v-382q0 -113 -47.5 -171t-122.5 -73q-3 -1 -9 -1zM-28.5 536.5
q-3.5 5.5 -1.5 13.5q8 23 52.5 67.5t74.5 64.5q11 8 24 8q11 0 25 -8q28 -18 72 -63.5t54 -68.5q1 -2 1 -5q0 -6 -4 -10t-9 -4q-14 0 -35 16l-29 26q-24 22 -47 42t-28 20q-6 0 -82 -67q-9 -9 -23 -21q-9 -7 -19 -11.5t-15 -4.5q-7 0 -10.5 5.5z" />
    <glyph glyph-name="uni0136" unicode="&#x136;" horiz-adv-x="734" 
d="M40 3.5q-8 4.5 -8 17.5q0 16 22 25q31 6 44.5 13.5t17.5 21t4 42.5v454q0 30 -4 43t-17 20.5t-45 13.5q-10 3 -16 9.5t-6 15.5q0 13 8 17.5t29 4.5h193q18 0 25.5 -4.5t7.5 -17.5q0 -16 -20 -25q-30 -6 -43 -13.5t-16.5 -20.5t-3.5 -43v-191q0 -16 8 -16q7 0 17 10
l233 221q18 18 18 29q0 9 -13.5 16t-41.5 12q-16 8 -16 23q0 13 12 17.5t38 4.5h166q23 0 35 -5t12 -19q0 -22 -29 -26q-29 -2 -44 -4.5t-31 -12.5t-37 -31l-127 -124q-9 -9 -9 -23q0 -11 6 -22l208 -338q18 -30 34 -40.5t50 -12.5q23 -4 23 -23q0 -13 -10 -18t-30 -5h-188
q-32 0 -32 22q0 17 25 22q22 2 31.5 6.5t9.5 12.5q0 10 -16 37l-168 263q-10 18 -23 18q-10 0 -23 -13l-68 -65q-10 -11 -15 -22.5t-5 -30.5v-126q0 -30 3.5 -43t17 -20.5t44.5 -13.5q9 -3 15 -9.5t6 -15.5q0 -13 -7.5 -17.5t-27.5 -4.5h-194q-21 0 -29 4.5zM340.5 -157.5
q-2.5 2.5 -2.5 6.5t6 7q29 13 29 31q0 8 -11 9t-18.5 9t-7.5 22q0 15 10.5 25t26.5 10q18 0 28 -12.5t10 -34.5q0 -24 -11 -41t-26.5 -25.5t-26.5 -8.5q-4 0 -6.5 2.5z" />
    <glyph glyph-name="uni0137" unicode="&#x137;" horiz-adv-x="590" 
d="M33.5 2q-10.5 5 -10.5 16q0 15 17 20q29 4 41 12t14.5 21t2.5 44v487q0 20 -4.5 29t-19.5 9q-11 0 -21 -1t-17 -1q-18 0 -19 11q0 11 7.5 17t21.5 10l41 12q54 18 72 18q15 0 21.5 -6t6.5 -21v-411q0 -8 2.5 -13t7.5 -5q6 0 15 9l145 145q13 13 13 22q0 6 -7.5 7.5
t-36.5 2.5q-15 2 -15 18q0 10 9.5 14.5t23.5 4.5l78 -1l76 1q32 0 32 -21q0 -20 -22 -22q-37 -1 -57.5 -11t-39.5 -29l-63 -63q-14 -14 -14 -24q0 -8 7 -17l136 -192q23 -31 36.5 -40t39.5 -11q25 -6 25 -23q0 -11 -9.5 -17t-25.5 -6q-29 1 -74 1q-46 0 -76 -1
q-25 0 -34.5 5t-9.5 17q0 7 6 10t19 7q12 3 19 7t7 11q0 8 -9 21l-107 149q-10 14 -21 14q-9 0 -17 -8l-46 -46q-9 -8 -11 -18t-2 -39v-28q0 -21 3 -31.5t15.5 -17.5t40.5 -11q19 -7 19 -21q0 -11 -9 -16t-32 -5q-29 1 -80 1q-50 0 -77 -1q-23 0 -33.5 5zM260.5 -157.5
q-2.5 2.5 -2.5 6.5t6 7q29 13 29 31q0 8 -11 9t-18.5 9t-7.5 22q0 15 10.5 25t26.5 10q18 0 28 -12.5t10 -34.5q0 -24 -11 -41t-26.5 -25.5t-26.5 -8.5q-4 0 -6.5 2.5z" />
    <glyph glyph-name="kgreenlandic" unicode="&#x138;" horiz-adv-x="593" 
d="M36.5 2q-10.5 5 -10.5 16q0 13 17 20q29 4 41 12t15 21.5t3 43.5v258q0 21 -5 29.5t-22 9.5q-11 0 -20 -1t-16 -1q-10 0 -14.5 2.5t-4.5 9.5q0 10 7.5 15t22.5 10q20 6 30 10q65 21 83 21q14 0 20.5 -6t6.5 -21v-183q0 -8 2.5 -13t7.5 -5q7 0 16 9l151 146q12 14 12 21
q0 6 -8.5 8t-38.5 3q-5 0 -8.5 4.5t-3.5 12.5q0 12 13 15.5t34 3.5l70 -1l70 1q32 0 32 -21q0 -20 -22 -22q-36 -1 -56 -10.5t-41 -29.5l-69 -65q-14 -13 -14 -24q0 -6 8 -18l136 -189q23 -31 36 -39.5t39 -11.5q12 -4 19 -9t7 -14q0 -11 -9.5 -17t-26.5 -6q-28 1 -74 1
t-76 -1q-43 0 -43 23q0 7 6 10t18 6t19 7t7 12q0 9 -8 20l-107 147q-11 14 -23 14q-7 0 -12 -5l-51 -49q-8 -7 -10 -15.5t-2 -33.5v-34q0 -21 3 -31.5t15.5 -17.5t41.5 -11q9 -4 13.5 -8.5t4.5 -12.5q0 -11 -9 -16t-31 -5q-29 1 -81 1q-50 0 -77 -1q-23 0 -33.5 5z" />
    <glyph glyph-name="Lacute" unicode="&#x139;" horiz-adv-x="592" 
d="M481 -12q-16 12 -52 12h-271l-89 -1q-21 0 -29 4.5t-8 17.5q0 16 22 25q32 6 45 13.5t17 20.5t4 43v454q0 29 -4 42.5t-17.5 21t-44.5 13.5q-10 3 -16 9.5t-6 15.5q0 13 8 17.5t29 4.5h204q25 0 35 -4.5t10 -17.5q0 -15 -27 -25q-37 -6 -53 -13.5t-21 -21t-5 -42.5v-476
q0 -34 10 -43.5t36 -9.5h168q26 0 41 11.5t28 42.5t31 96q9 27 29 27t20 -26q0 -29 -22 -108q-13 -49 -21.5 -72t-14.5 -30t-15 -7t-21 6zM116.5 738.5q-3.5 2.5 -3.5 8.5q1 7 25.5 28.5t51.5 43.5q10 9 23 19.5t24 20.5q7 9 15.5 12t24.5 3q28 0 37 -3.5t8 -14.5
q0 -13 -41.5 -42t-90 -53.5t-62.5 -24.5q-8 0 -11.5 2.5z" />
    <glyph glyph-name="lacute" unicode="&#x13a;" horiz-adv-x="279" 
d="M37 1.5q-13 5.5 -13 16.5q0 15 17 20q28 4 40 12t14.5 21t2.5 44v487q0 20 -4.5 29t-20.5 9q-11 0 -20.5 -1t-16.5 -1q-10 0 -14.5 2.5t-4.5 10.5q0 9 7.5 14.5t21.5 10.5q30 9 37 11q23 7 44 13t32 6q14 0 20.5 -6t6.5 -21v-564q0 -30 3 -43t15 -21t40 -13q18 -5 18 -20
q0 -11 -11.5 -16.5t-46.5 -5.5l-59 1l-60 -1q-35 0 -48 5.5zM81.5 724.5q-3.5 2.5 -3.5 8.5q1 7 25.5 28.5t51.5 43.5q10 9 23 19.5t24 20.5q7 9 15.5 12t24.5 3q28 0 37 -3.5t8 -14.5q0 -13 -41.5 -42t-90 -53.5t-62.5 -24.5q-8 0 -11.5 2.5z" />
    <glyph glyph-name="uni013B" unicode="&#x13b;" horiz-adv-x="592" 
d="M481 -12q-16 12 -52 12h-271l-89 -1q-21 0 -29 4.5t-8 17.5q0 16 22 25q32 6 45 13.5t17 20.5t4 43v454q0 29 -4 42.5t-17.5 21t-44.5 13.5q-10 3 -16 9.5t-6 15.5q0 13 8 17.5t29 4.5h204q25 0 35 -4.5t10 -17.5q0 -15 -27 -25q-37 -6 -53 -13.5t-21 -21t-5 -42.5v-476
q0 -34 10 -43.5t36 -9.5h168q26 0 41 11.5t28 42.5t31 96q9 27 29 27t20 -26q0 -29 -22 -108q-13 -49 -21.5 -72t-14.5 -30t-15 -7t-21 6zM273.5 -157.5q-2.5 2.5 -2.5 6.5t6 7q29 13 29 31q0 8 -11 9t-18.5 9t-7.5 22q0 15 10.5 25t26.5 10q18 0 28 -12.5t10 -34.5
q0 -24 -11 -41t-26.5 -25.5t-26.5 -8.5q-4 0 -6.5 2.5z" />
    <glyph glyph-name="uni013C" unicode="&#x13c;" horiz-adv-x="279" 
d="M37 1.5q-13 5.5 -13 16.5q0 15 17 20q28 4 40 12t14.5 21t2.5 44v487q0 20 -4.5 29t-20.5 9q-11 0 -20.5 -1t-16.5 -1q-10 0 -14.5 2.5t-4.5 10.5q0 9 7.5 14.5t21.5 10.5q30 9 37 11q23 7 44 13t32 6q14 0 20.5 -6t6.5 -21v-564q0 -30 3 -43t15 -21t40 -13q18 -5 18 -20
q0 -11 -11.5 -16.5t-46.5 -5.5l-59 1l-60 -1q-35 0 -48 5.5zM110.5 -157.5q-2.5 2.5 -2.5 6.5t6 7q29 13 29 31q0 8 -11 9t-18.5 9t-7.5 22q0 15 10.5 25t26.5 10q18 0 28 -12.5t10 -34.5q0 -24 -11 -41t-26.5 -25.5t-26.5 -8.5q-4 0 -6.5 2.5z" />
    <glyph glyph-name="Lcaron" unicode="&#x13d;" horiz-adv-x="592" 
d="M481 -12q-16 12 -52 12h-271l-89 -1q-21 0 -29 4.5t-8 17.5q0 16 22 25q32 6 45 13.5t17 20.5t4 43v454q0 29 -4 42.5t-17.5 21t-44.5 13.5q-10 3 -16 9.5t-6 15.5q0 13 8 17.5t29 4.5h204q25 0 35 -4.5t10 -17.5q0 -15 -27 -25q-37 -6 -53 -13.5t-21 -21t-5 -42.5v-476
q0 -34 10 -43.5t36 -9.5h168q26 0 41 11.5t28 42.5t31 96q9 27 29 27t20 -26q0 -29 -22 -108q-13 -49 -21.5 -72t-14.5 -30t-15 -7t-21 6zM426 548q-8 100 -8 126q0 17 7 24.5t24 7.5t24.5 -7.5t7.5 -23.5q0 -27 -8 -127l-5 -75q-1 -6 -6 -9t-12 -3q-16 0 -19 12z" />
    <glyph glyph-name="lcaron" unicode="&#x13e;" horiz-adv-x="304" 
d="M37 1.5q-13 5.5 -13 16.5q0 15 17 20q28 4 40 12t14.5 21t2.5 44v487q0 20 -4.5 29t-20.5 9q-11 0 -20.5 -1t-16.5 -1q-10 0 -14.5 2.5t-4.5 10.5q0 9 7.5 14.5t21.5 10.5q30 9 37 11q23 7 44 13t32 6q14 0 20.5 -6t6.5 -21v-564q0 -30 3 -43t15 -21t40 -13q18 -5 18 -20
q0 -11 -11.5 -16.5t-46.5 -5.5l-59 1l-60 -1q-35 0 -48 5.5zM280 548q-8 100 -8 126q0 17 7 24.5t24 7.5t24.5 -7.5t7.5 -23.5q0 -27 -8 -127l-5 -75q-1 -6 -6 -9t-12 -3q-16 0 -19 12z" />
    <glyph glyph-name="Ldot" unicode="&#x13f;" horiz-adv-x="592" 
d="M481 -12q-16 12 -52 12h-271l-89 -1q-21 0 -29 4.5t-8 17.5q0 16 22 25q32 6 45 13.5t17 20.5t4 43v454q0 29 -4 42.5t-17.5 21t-44.5 13.5q-10 3 -16 9.5t-6 15.5q0 13 8 17.5t29 4.5h204q25 0 35 -4.5t10 -17.5q0 -15 -27 -25q-37 -6 -53 -13.5t-21 -21t-5 -42.5v-476
q0 -34 10 -43.5t36 -9.5h168q26 0 41 11.5t28 42.5t31 96q9 27 29 27t20 -26q0 -29 -22 -108q-13 -49 -21.5 -72t-14.5 -30t-15 -7t-21 6zM379.5 331.5q-11.5 11.5 -11.5 28.5q0 23 14.5 39t36.5 16q19 0 31.5 -12.5t12.5 -32.5q0 -21 -15 -35.5t-38 -14.5q-19 0 -30.5 11.5
z" />
    <glyph glyph-name="ldot" unicode="&#x140;" horiz-adv-x="393" 
d="M37 1.5q-13 5.5 -13 16.5q0 15 17 20q28 4 40 12t14.5 21t2.5 44v487q0 20 -4.5 29t-20.5 9q-11 0 -20.5 -1t-16.5 -1q-10 0 -14.5 2.5t-4.5 10.5q0 9 7.5 14.5t21.5 10.5q30 9 37 11q23 7 44 13t32 6q14 0 20.5 -6t6.5 -21v-564q0 -30 3 -43t15 -21t40 -13q18 -5 18 -20
q0 -11 -11.5 -16.5t-46.5 -5.5l-59 1l-60 -1q-35 0 -48 5.5zM324 325.5q-9 9.5 -9 24.5q0 18 12 30t29 12q16 0 26 -9.5t10 -24.5q0 -18 -12.5 -30t-30.5 -12q-16 0 -25 9.5z" />
    <glyph glyph-name="Lslash" unicode="&#x141;" horiz-adv-x="592" 
d="M575 199q0 -29 -22 -108q-13 -49 -21.5 -72t-14.5 -30t-15 -7t-21 6q-16 12 -52 12h-271l-89 -1q-21 0 -29 4.5t-8 17.5q0 16 22 25q32 6 45 13.5t17 20.5t4 43v169l-79 -40q-13 -5 -18 -5q-6 0 -8.5 6t-2.5 20q0 15 2 20t10 8l96 48v228q0 29 -4 42.5t-17.5 21
t-44.5 13.5q-10 3 -16 9.5t-6 15.5q0 13 8 17.5t29 4.5h204q25 0 35 -4.5t10 -17.5q0 -15 -27 -25q-37 -6 -53 -13.5t-21 -21t-5 -42.5v-182l87 43q13 5 17 5q6 0 8 -5t2 -18q0 -16 -2 -22t-10 -9l-102 -51v-237q0 -34 10 -43.5t36 -9.5h168q26 0 41 11.5t28 42.5t31 96
q9 27 29 27t20 -26z" />
    <glyph glyph-name="lslash" unicode="&#x142;" horiz-adv-x="279" 
d="M272 457q13 5 17 5q6 0 8 -5t2 -18q0 -16 -2 -22t-10 -9l-101 -51v-242q0 -30 3 -43t15 -21t40 -13q18 -5 18 -20q0 -11 -11.5 -16.5t-46.5 -5.5l-59 1l-60 -1q-35 0 -48 5.5t-13 16.5q0 15 17 20q28 4 40 12t14.5 21t2.5 44v198l-84 -42q-13 -5 -18 -5q-6 0 -8.5 6
t-2.5 20q0 15 2 20t10 8l101 50v232q0 20 -4.5 29t-20.5 9q-11 0 -20.5 -1t-16.5 -1q-10 0 -14.5 2.5t-4.5 10.5q0 9 7.5 14.5t21.5 10.5q30 9 37 11q23 7 44 13t32 6q14 0 20.5 -6t6.5 -21v-265z" />
    <glyph glyph-name="Nacute" unicode="&#x143;" horiz-adv-x="747" 
d="M64 -1q-17 0 -24.5 5t-7.5 15q0 18 20 23q35 4 48 11.5t16.5 28.5t3.5 77v408q0 41 -3.5 57.5t-16 23.5t-45.5 11q-23 7 -23 23q0 10 7 14.5t27 4.5h111q13 0 20.5 -3t12.5 -10l360 -510q6 -9 14 -9t8 15v382q0 42 -3.5 58t-16 23t-45.5 11q-23 5 -23 24q0 10 7 14.5
t27 4.5h158q17 0 24.5 -5t7.5 -15q0 -18 -20 -23q-35 -4 -47.5 -11.5t-16.5 -29t-4 -76.5v-521q0 -11 -6 -16.5t-15 -5.5q-10 0 -16 4t-12 12l-406 559q-5 5 -10 5q-7 0 -7 -10v-434q0 -42 3.5 -58.5t16.5 -23.5t45 -11q12 -3 17.5 -8.5t5.5 -14.5q0 -10 -7.5 -15t-26.5 -5z
M314.5 738.5q-3.5 2.5 -3.5 8.5q1 7 25.5 28.5t51.5 43.5q10 9 23 19.5t24 20.5q7 9 15.5 12t24.5 3q28 0 37 -3.5t8 -14.5q0 -13 -41.5 -42t-90 -53.5t-62.5 -24.5q-8 0 -11.5 2.5z" />
    <glyph glyph-name="nacute" unicode="&#x144;" horiz-adv-x="619" 
d="M41 3.5q-13 5.5 -13 16.5q0 16 16 19q28 5 40 13t14.5 21t2.5 43v258q0 20 -4 29t-20 9l-37 -1q-11 0 -15.5 2.5t-4.5 9.5q0 9 7.5 14.5t21.5 10.5l29 9q67 21 84 21q15 0 21.5 -6t6.5 -21v-60q0 -12 4 -12q1 0 15 27.5t50.5 52t94.5 24.5q140 0 161 -184l19 -171
q5 -41 8.5 -55t14.5 -20t39 -11q20 -6 20 -22q0 -11 -9 -16.5t-34 -5.5l-71 1l-68 -1q-32 0 -44 4.5t-12 17.5q0 17 19 21q32 5 42 12.5t10 31.5q0 8 -4 50l-17 148q-8 70 -34 103t-78 33q-30 0 -59 -18t-48 -55t-19 -92v-137q0 -30 3 -43.5t15 -21t40 -12.5q18 -5 18 -20
q0 -11 -11.5 -16.5t-46.5 -5.5l-60 1l-60 -1q-34 0 -47 5.5zM270 534q0 11 79 99q28 32 30 35q8 12 19 15.5t31 3.5t27.5 -4t7.5 -13q0 -13 -39 -48.5t-84 -67t-57 -31.5q-14 0 -14 11z" />
    <glyph glyph-name="uni0145" unicode="&#x145;" horiz-adv-x="747" 
d="M64 -1q-17 0 -24.5 5t-7.5 15q0 18 20 23q35 4 48 11.5t16.5 28.5t3.5 77v408q0 41 -3.5 57.5t-16 23.5t-45.5 11q-23 7 -23 23q0 10 7 14.5t27 4.5h111q13 0 20.5 -3t12.5 -10l360 -510q6 -9 14 -9t8 15v382q0 42 -3.5 58t-16 23t-45.5 11q-23 5 -23 24q0 10 7 14.5
t27 4.5h158q17 0 24.5 -5t7.5 -15q0 -18 -20 -23q-35 -4 -47.5 -11.5t-16.5 -29t-4 -76.5v-521q0 -11 -6 -16.5t-15 -5.5q-10 0 -16 4t-12 12l-406 559q-5 5 -10 5q-7 0 -7 -10v-434q0 -42 3.5 -58.5t16.5 -23.5t45 -11q12 -3 17.5 -8.5t5.5 -14.5q0 -10 -7.5 -15t-26.5 -5z
M342.5 -157.5q-2.5 2.5 -2.5 6.5t6 7q29 13 29 31q0 8 -11 9t-18.5 9t-7.5 22q0 15 10.5 25t26.5 10q18 0 28 -12.5t10 -34.5q0 -24 -11 -41t-26.5 -25.5t-26.5 -8.5q-4 0 -6.5 2.5z" />
    <glyph glyph-name="uni0146" unicode="&#x146;" horiz-adv-x="619" 
d="M41 3.5q-13 5.5 -13 16.5q0 16 16 19q28 5 40 13t14.5 21t2.5 43v258q0 20 -4 29t-20 9l-37 -1q-11 0 -15.5 2.5t-4.5 9.5q0 9 7.5 14.5t21.5 10.5l29 9q67 21 84 21q15 0 21.5 -6t6.5 -21v-60q0 -12 4 -12q1 0 15 27.5t50.5 52t94.5 24.5q140 0 161 -184l19 -171
q5 -41 8.5 -55t14.5 -20t39 -11q20 -6 20 -22q0 -11 -9 -16.5t-34 -5.5l-71 1l-68 -1q-32 0 -44 4.5t-12 17.5q0 17 19 21q32 5 42 12.5t10 31.5q0 8 -4 50l-17 148q-8 70 -34 103t-78 33q-30 0 -59 -18t-48 -55t-19 -92v-137q0 -30 3 -43.5t15 -21t40 -12.5q18 -5 18 -20
q0 -11 -11.5 -16.5t-46.5 -5.5l-60 1l-60 -1q-34 0 -47 5.5zM288.5 -157.5q-2.5 2.5 -2.5 6.5t6 7q29 13 29 31q0 8 -11 9t-18.5 9t-7.5 22q0 15 10.5 25t26.5 10q18 0 28 -12.5t10 -34.5q0 -24 -11 -41t-26.5 -25.5t-26.5 -8.5q-4 0 -6.5 2.5z" />
    <glyph glyph-name="Ncaron" unicode="&#x147;" horiz-adv-x="747" 
d="M64 -1q-17 0 -24.5 5t-7.5 15q0 18 20 23q35 4 48 11.5t16.5 28.5t3.5 77v408q0 41 -3.5 57.5t-16 23.5t-45.5 11q-23 7 -23 23q0 10 7 14.5t27 4.5h111q13 0 20.5 -3t12.5 -10l360 -510q6 -9 14 -9t8 15v382q0 42 -3.5 58t-16 23t-45.5 11q-23 5 -23 24q0 10 7 14.5
t27 4.5h158q17 0 24.5 -5t7.5 -15q0 -18 -20 -23q-35 -4 -47.5 -11.5t-16.5 -29t-4 -76.5v-521q0 -11 -6 -16.5t-15 -5.5q-10 0 -16 4t-12 12l-406 559q-5 5 -10 5q-7 0 -7 -10v-434q0 -42 3.5 -58.5t16.5 -23.5t45 -11q12 -3 17.5 -8.5t5.5 -14.5q0 -10 -7.5 -15t-26.5 -5z
M242 870.5q20 -15.5 28 -20.5q32 -25 58 -44t31 -19q9 0 90 63l17 13q4 3 17.5 13t17.5 10q5 0 8.5 -3.5t3.5 -9.5q0 -15 -49 -64.5t-80 -70.5q-14 -9 -25 -9q-12 0 -24 9q-31 20 -80 70t-49 65q0 6 3.5 9.5t8.5 3.5q4 0 24 -15.5z" />
    <glyph glyph-name="ncaron" unicode="&#x148;" horiz-adv-x="619" 
d="M41 3.5q-13 5.5 -13 16.5q0 16 16 19q28 5 40 13t14.5 21t2.5 43v258q0 20 -4 29t-20 9l-37 -1q-11 0 -15.5 2.5t-4.5 9.5q0 9 7.5 14.5t21.5 10.5l29 9q67 21 84 21q15 0 21.5 -6t6.5 -21v-60q0 -12 4 -12q1 0 15 27.5t50.5 52t94.5 24.5q140 0 161 -184l19 -171
q5 -41 8.5 -55t14.5 -20t39 -11q20 -6 20 -22q0 -11 -9 -16.5t-34 -5.5l-71 1l-68 -1q-32 0 -44 4.5t-12 17.5q0 17 19 21q32 5 42 12.5t10 31.5q0 8 -4 50l-17 148q-8 70 -34 103t-78 33q-30 0 -59 -18t-48 -55t-19 -92v-137q0 -30 3 -43.5t15 -21t40 -12.5q18 -5 18 -20
q0 -11 -11.5 -16.5t-46.5 -5.5l-60 1l-60 -1q-34 0 -47 5.5zM196.5 681.5q9.5 -4.5 18.5 -12.5l17 -15q79 -72 88 -72q5 0 32.5 24t35.5 31l36 32q20 17 35 17q7 0 10.5 -6t1.5 -14q-10 -23 -54 -68t-72 -63q-12 -8 -25 -8t-24 8q-30 19 -74.5 63.5t-52.5 67.5q-1 2 -1 6
q0 6 3.5 10t9.5 4t15.5 -4.5z" />
    <glyph glyph-name="Eng" unicode="&#x14a;" horiz-adv-x="747" 
d="M720.5 696q7.5 -5 7.5 -15q0 -18 -20 -23q-35 -4 -47.5 -11.5t-16.5 -29t-4 -76.5v-589q0 -56 -28.5 -89.5t-73.5 -33.5t-73 23.5t-28 61.5q0 14 6 23.5t15 10.5q9 0 18 -7t15 -16q7 -18 13.5 -26.5t20.5 -8.5q8 0 12 1q23 6 35.5 28.5t12.5 67.5v35l-400 551q-5 5 -10 5
q-7 0 -7 -10v-434q0 -42 3.5 -58.5t16.5 -23.5t45 -11q12 -3 17.5 -8.5t5.5 -14.5q0 -10 -7.5 -15t-26.5 -5l-158 1q-17 0 -24.5 5t-7.5 15q0 18 20 23q35 4 48 11.5t16.5 28.5t3.5 77v408q0 41 -3.5 57.5t-16 23.5t-45.5 11q-23 7 -23 23q0 10 7 14.5t27 4.5h111
q13 0 20.5 -3t12.5 -10l360 -510q6 -9 14 -9t8 15v382q0 42 -3.5 58t-16 23t-45.5 11q-23 5 -23 24q0 10 7 14.5t27 4.5h158q17 0 24.5 -5z" />
    <glyph glyph-name="eng" unicode="&#x14b;" horiz-adv-x="569" 
d="M461.5 443q41.5 -40 41.5 -115v-343q0 -156 -125 -156q-47 0 -79 25.5t-32 63.5q0 13 7 22t15 10q10 0 19 -7t14 -16q7 -18 14.5 -27.5t21.5 -9.5q7 0 11 1q23 8 33.5 33t10.5 78v54l1 250q0 115 -100 115q-30 0 -58.5 -18t-47 -56t-18.5 -93v-139q0 -30 3 -43t15 -21
t40 -13q18 -5 18 -20q0 -11 -11.5 -16.5t-46.5 -5.5l-60 1l-60 -1q-34 0 -47 5.5t-13 16.5q0 15 16 20q28 4 40 12t14.5 21t2.5 44v259q0 20 -4.5 28.5t-21.5 9.5l-35 -1q-11 0 -15.5 2.5t-4.5 9.5q0 9 7.5 14.5t21.5 10.5l41 12q54 18 72 18q15 0 21.5 -6t6.5 -21v-35
q0 -19 1 -28t3 -9q1 0 15 27.5t50.5 52t94.5 24.5q66 0 107.5 -40z" />
    <glyph glyph-name="Omacron" unicode="&#x14c;" horiz-adv-x="731" 
d="M195 34q-76 45 -119.5 127.5t-43.5 190.5q0 101 41.5 183t117 129t174.5 47q95 0 171 -44.5t119.5 -126.5t43.5 -189q0 -102 -41.5 -184.5t-117.5 -130t-175 -47.5q-94 0 -170 45zM489.5 72q49.5 32 79 93t29.5 144q0 89 -31.5 170t-88 131t-128.5 50q-60 0 -110 -31.5
t-79 -92t-29 -142.5q0 -90 31.5 -171.5t88 -132t128.5 -50.5q60 0 109.5 32zM225 754.5q-4 2.5 -4 8.5t3 13q4 12 8.5 17.5t14.5 5.5l118 -1l110 1q12 0 12 -10q0 -1 -3 -13q-3 -14 -7.5 -19.5t-15.5 -5.5q-69 1 -222 1q-10 0 -14 2.5z" />
    <glyph glyph-name="omacron" unicode="&#x14d;" horiz-adv-x="553" 
d="M150 20.5q-56 31.5 -87 88t-31 127.5t31 127.5t87 88t127 31.5t126.5 -31.5t86.5 -88t31 -127.5q0 -72 -31 -128t-86 -87.5t-127 -31.5q-71 0 -127 31.5zM387.5 81q39.5 47 39.5 125q0 58 -19.5 111t-55.5 86.5t-83 33.5q-64 0 -103.5 -47t-39.5 -124q0 -58 19.5 -112
t55.5 -87t83 -33q64 0 103.5 47zM150 585.5q-4 2.5 -4 8.5t3 13q4 12 8.5 17.5t14.5 5.5l118 -1l110 1q12 0 12 -10q0 -1 -3 -13q-3 -14 -7.5 -19.5t-15.5 -5.5q-69 1 -222 1q-10 0 -14 2.5z" />
    <glyph glyph-name="Obreve" unicode="&#x14e;" horiz-adv-x="731" 
d="M195 34q-76 45 -119.5 127.5t-43.5 190.5q0 101 41.5 183t117 129t174.5 47q95 0 171 -44.5t119.5 -126.5t43.5 -189q0 -102 -41.5 -184.5t-117.5 -130t-175 -47.5q-94 0 -170 45zM489.5 72q49.5 32 79 93t29.5 144q0 89 -31.5 170t-88 131t-128.5 50q-60 0 -110 -31.5
t-79 -92t-29 -142.5q0 -90 31.5 -171.5t88 -132t128.5 -50.5q60 0 109.5 32zM249 774.5q-42 36.5 -46 96.5v2q0 14 12 14q8 0 13 -11q13 -40 46 -64.5t80 -24.5q45 0 77 22t45 64q4 6 9 10t9 4q6 0 9.5 -4.5t2.5 -11.5q-4 -59 -45.5 -96t-106.5 -37q-63 0 -105 36.5z" />
    <glyph glyph-name="obreve" unicode="&#x14f;" horiz-adv-x="553" 
d="M150 20.5q-56 31.5 -87 88t-31 127.5t31 127.5t87 88t127 31.5t126.5 -31.5t86.5 -88t31 -127.5q0 -72 -31 -128t-86 -87.5t-127 -31.5q-71 0 -127 31.5zM387.5 81q39.5 47 39.5 125q0 58 -19.5 111t-55.5 86.5t-83 33.5q-64 0 -103.5 -47t-39.5 -124q0 -58 19.5 -112
t55.5 -87t83 -33q64 0 103.5 47zM173 569.5q-42 36.5 -46 96.5v2q0 14 12 14q8 0 13 -11q13 -40 46 -64.5t80 -24.5q45 0 77 22t45 64q4 6 9 10t9 4q6 0 9.5 -4.5t2.5 -11.5q-4 -59 -45.5 -96t-106.5 -37q-63 0 -105 36.5z" />
    <glyph glyph-name="Ohungarumlaut" unicode="&#x150;" horiz-adv-x="731" 
d="M195 34q-76 45 -119.5 127.5t-43.5 190.5q0 101 41.5 183t117 129t174.5 47q95 0 171 -44.5t119.5 -126.5t43.5 -189q0 -102 -41.5 -184.5t-117.5 -130t-175 -47.5q-94 0 -170 45zM489.5 72q49.5 32 79 93t29.5 144q0 89 -31.5 170t-88 131t-128.5 50q-60 0 -110 -31.5
t-79 -92t-29 -142.5q0 -90 31.5 -171.5t88 -132t128.5 -50.5q60 0 109.5 32zM265 738q0 6 8 17l33 42l40 51q5 12 17 15.5t30 3.5q26 0 26 -15q0 -5 -4 -12q-9 -16 -38 -42.5t-59.5 -46.5t-41.5 -20t-11 7zM410 738q0 6 7 17q54 67 72 93q6 12 18 15.5t31 3.5q25 0 25 -15
q0 -6 -3 -12q-9 -16 -38.5 -42.5t-59.5 -46.5t-41 -20t-11 7z" />
    <glyph glyph-name="ohungarumlaut" unicode="&#x151;" horiz-adv-x="553" 
d="M150 20.5q-56 31.5 -87 88t-31 127.5t31 127.5t87 88t127 31.5t126.5 -31.5t86.5 -88t31 -127.5q0 -72 -31 -128t-86 -87.5t-127 -31.5q-71 0 -127 31.5zM387.5 81q39.5 47 39.5 125q0 58 -19.5 111t-55.5 86.5t-83 33.5q-64 0 -103.5 -47t-39.5 -124q0 -58 19.5 -112
t55.5 -87t83 -33q64 0 103.5 47zM179 534.5q-3 4.5 1 12.5q47 77 72 127q5 12 13 16t30 4q33 0 33 -16q0 -12 -29 -48.5t-63 -68t-46 -31.5q-8 0 -11 4.5zM323 539l2 8q46 77 71 127q5 12 13.5 16t29.5 4q34 0 34 -16q0 -12 -29.5 -48.5t-63.5 -68t-46 -31.5q-11 0 -11 9z
" />
    <glyph glyph-name="OE" unicode="&#x152;" horiz-adv-x="982" 
d="M862 -15.5q-5 2.5 -6 3.5q-8 6 -18 9t-31 3l-355 -1q-47 -10 -87 -10q-94 0 -170 45.5t-119.5 128t-43.5 189.5q0 101 41.5 183t117 129t174.5 47q41 0 86 -10l317 -1q20 0 29.5 2.5t19.5 8.5q9 7 20 7q10 0 15.5 -7t13.5 -29t23 -75q24 -84 24 -108q0 -14 -5.5 -19
t-16.5 -5q-19 0 -30 26q-23 75 -35 104t-25.5 38.5t-41.5 9.5h-161q-20 0 -28.5 -3.5t-12 -14.5t-3.5 -35v-176q0 -16 4.5 -23.5t17.5 -7.5h97q16 0 22.5 5t6.5 18q0 14 -6 42q-1 4 -1 12q0 19 17 19q13 0 19 -7t12 -27.5t22 -81.5q10 -37 16 -64.5t6 -39.5q0 -11 -4.5 -15
t-14.5 -4q-11 0 -17 5.5t-10 18.5q-9 34 -14.5 48t-13.5 19t-24 5h-107q-18 0 -23 -8.5t-5 -29.5v-216q0 -21 3 -30t12 -12t30 -3h205q26 0 41 11.5t26.5 42t29.5 97.5q6 16 12.5 21.5t16.5 5.5q12 0 17 -5.5t5 -20.5q0 -30 -23 -106q-15 -52 -22.5 -74.5t-14 -29.5
t-16.5 -7q-9 0 -14 2.5zM437 60q24 22 24 63v454q0 43 -23.5 64t-72.5 21q-65 0 -116.5 -38t-81.5 -108t-30 -164q0 -91 28 -162.5t79.5 -111.5t120.5 -40q48 0 72 22z" />
    <glyph glyph-name="oe" unicode="&#x153;" horiz-adv-x="876" 
d="M150 20.5q-56 31.5 -87 88t-31 127.5t31 127.5t87 88t127 31.5q66 0 117.5 -30.5t78.5 -83.5q27 52 76.5 82.5t106.5 30.5q56 0 99.5 -23.5t67.5 -60.5t24 -77q0 -32 -15.5 -44.5t-51.5 -17.5l-241 -36q-9 -2 -11.5 -6.5t-2.5 -14.5q1 -35 19 -70t52 -58t81 -23
q49 0 86.5 21.5t62.5 54.5q6 9 14 9q10 0 14 -8t1 -16q-25 -54 -76.5 -88.5t-124.5 -34.5q-64 0 -110 30.5t-72 84.5q-27 -54 -78 -84.5t-117 -30.5q-71 0 -127 31.5zM731 298q18 3 25 9t7 19q0 26 -14.5 52t-41.5 43t-63 17q-32 0 -61 -18.5t-47.5 -51.5t-18.5 -76
q0 -17 4 -21.5t15 -2.5zM387.5 81q39.5 47 39.5 125q0 58 -19.5 111t-55.5 86.5t-83 33.5q-64 0 -103.5 -47t-39.5 -124q0 -58 19.5 -112t55.5 -87t83 -33q64 0 103.5 47z" />
    <glyph glyph-name="Racute" unicode="&#x154;" horiz-adv-x="707" 
d="M39.5 3.5q-7.5 4.5 -7.5 17.5q0 16 22 25q32 7 45 14t17 20.5t4 42.5v444q0 36 -4 51.5t-17 22.5t-45 13q-22 9 -22 27q0 10 7.5 15t26.5 5q46 0 154 2l106 1q274 0 274 -201q0 -66 -38.5 -112t-117.5 -68q-5 -2 -5.5 -6t4.5 -5q50 -21 73.5 -59t46.5 -110
q16 -52 31 -76.5t42 -24.5q17 0 25.5 6t16 15.5t12.5 9.5q11 0 11 -15q0 -26 -29.5 -46.5t-75.5 -20.5q-44 0 -69 17t-36.5 44.5t-21.5 74.5q-18 84 -54 129t-102 45h-62q-24 0 -31.5 -8t-7.5 -33v-127q0 -36 4 -51.5t16.5 -22.5t44.5 -13q22 -9 22 -26q0 -11 -7 -16t-26 -5
h-199q-20 0 -27.5 4.5zM322 347q89 0 133 39.5t44 101.5q0 81 -46.5 124t-138.5 43h-59q-24 0 -33.5 -10.5t-9.5 -39.5v-214q0 -24 8 -34t33 -10h69zM270.5 738.5q-3.5 2.5 -3.5 8.5q1 7 25.5 28.5t51.5 43.5q10 9 23 19.5t24 20.5q7 9 15.5 12t24.5 3q28 0 37 -3.5t8 -14.5
q0 -13 -41.5 -42t-90 -53.5t-62.5 -24.5q-8 0 -11.5 2.5z" />
    <glyph glyph-name="racute" unicode="&#x155;" horiz-adv-x="458" 
d="M41 1.5q-13 5.5 -13 16.5q0 15 16 20q28 4 40 12t14.5 21t2.5 44v258q0 21 -4 30t-20 9q-11 0 -21 -1t-17 -1q-10 0 -14.5 2.5t-4.5 10.5q0 9 7.5 14.5t21.5 10.5l41 12q54 18 72 18q15 0 21.5 -6t6.5 -21v-57q0 -15 4 -15q1 0 14 27.5t45.5 52t82.5 24.5t78 -30.5
t28 -83.5q0 -30 -13.5 -51t-40.5 -21q-16 0 -28.5 11.5t-8.5 33.5q5 12 5 28q0 47 -55 47q-28 0 -53.5 -20t-41.5 -57.5t-16 -87.5v-137q0 -30 3 -43t15 -21t40 -13q18 -5 18 -20q0 -11 -11.5 -16.5t-46.5 -5.5l-60 1l-60 -1q-34 0 -47 5.5zM176 534q0 11 79 99q28 32 30 35
q8 12 19 15.5t31 3.5t27.5 -4t7.5 -13q0 -13 -39 -48.5t-84 -67t-57 -31.5q-14 0 -14 11z" />
    <glyph glyph-name="uni0156" unicode="&#x156;" horiz-adv-x="707" 
d="M39.5 3.5q-7.5 4.5 -7.5 17.5q0 16 22 25q32 7 45 14t17 20.5t4 42.5v444q0 36 -4 51.5t-17 22.5t-45 13q-22 9 -22 27q0 10 7.5 15t26.5 5q46 0 154 2l106 1q274 0 274 -201q0 -66 -38.5 -112t-117.5 -68q-5 -2 -5.5 -6t4.5 -5q50 -21 73.5 -59t46.5 -110
q16 -52 31 -76.5t42 -24.5q17 0 25.5 6t16 15.5t12.5 9.5q11 0 11 -15q0 -26 -29.5 -46.5t-75.5 -20.5q-44 0 -69 17t-36.5 44.5t-21.5 74.5q-18 84 -54 129t-102 45h-62q-24 0 -31.5 -8t-7.5 -33v-127q0 -36 4 -51.5t16.5 -22.5t44.5 -13q22 -9 22 -26q0 -11 -7 -16t-26 -5
h-199q-20 0 -27.5 4.5zM322 347q89 0 133 39.5t44 101.5q0 81 -46.5 124t-138.5 43h-59q-24 0 -33.5 -10.5t-9.5 -39.5v-214q0 -24 8 -34t33 -10h69zM345.5 -157.5q-2.5 2.5 -2.5 6.5t6 7q29 13 29 31q0 8 -11 9t-18.5 9t-7.5 22q0 15 10.5 25t26.5 10q18 0 28 -12.5
t10 -34.5q0 -24 -11 -41t-26.5 -25.5t-26.5 -8.5q-4 0 -6.5 2.5z" />
    <glyph glyph-name="uni0157" unicode="&#x157;" horiz-adv-x="458" 
d="M41 1.5q-13 5.5 -13 16.5q0 15 16 20q28 4 40 12t14.5 21t2.5 44v258q0 21 -4 30t-20 9q-11 0 -21 -1t-17 -1q-10 0 -14.5 2.5t-4.5 10.5q0 9 7.5 14.5t21.5 10.5l41 12q54 18 72 18q15 0 21.5 -6t6.5 -21v-57q0 -15 4 -15q1 0 14 27.5t45.5 52t82.5 24.5t78 -30.5
t28 -83.5q0 -30 -13.5 -51t-40.5 -21q-16 0 -28.5 11.5t-8.5 33.5q5 12 5 28q0 47 -55 47q-28 0 -53.5 -20t-41.5 -57.5t-16 -87.5v-137q0 -30 3 -43t15 -21t40 -13q18 -5 18 -20q0 -11 -11.5 -16.5t-46.5 -5.5l-60 1l-60 -1q-34 0 -47 5.5zM173.5 -157.5q-2.5 2.5 -2.5 6.5
t6 7q29 13 29 31q0 8 -11 9t-18.5 9t-7.5 22q0 15 10.5 25t26.5 10q18 0 28 -12.5t10 -34.5q0 -24 -11 -41t-26.5 -25.5t-26.5 -8.5q-4 0 -6.5 2.5z" />
    <glyph glyph-name="Rcaron" unicode="&#x158;" horiz-adv-x="707" 
d="M39.5 3.5q-7.5 4.5 -7.5 17.5q0 16 22 25q32 7 45 14t17 20.5t4 42.5v444q0 36 -4 51.5t-17 22.5t-45 13q-22 9 -22 27q0 10 7.5 15t26.5 5q46 0 154 2l106 1q274 0 274 -201q0 -66 -38.5 -112t-117.5 -68q-5 -2 -5.5 -6t4.5 -5q50 -21 73.5 -59t46.5 -110
q16 -52 31 -76.5t42 -24.5q17 0 25.5 6t16 15.5t12.5 9.5q11 0 11 -15q0 -26 -29.5 -46.5t-75.5 -20.5q-44 0 -69 17t-36.5 44.5t-21.5 74.5q-18 84 -54 129t-102 45h-62q-24 0 -31.5 -8t-7.5 -33v-127q0 -36 4 -51.5t16.5 -22.5t44.5 -13q22 -9 22 -26q0 -11 -7 -16t-26 -5
h-199q-20 0 -27.5 4.5zM322 347q89 0 133 39.5t44 101.5q0 81 -46.5 124t-138.5 43h-59q-24 0 -33.5 -10.5t-9.5 -39.5v-214q0 -24 8 -34t33 -10h69zM198 870.5q20 -15.5 28 -20.5q32 -25 58 -44t31 -19q9 0 90 63l17 13q4 3 17.5 13t17.5 10q5 0 8.5 -3.5t3.5 -9.5
q0 -15 -49 -64.5t-80 -70.5q-14 -9 -25 -9q-12 0 -24 9q-31 20 -80 70t-49 65q0 6 3.5 9.5t8.5 3.5q4 0 24 -15.5z" />
    <glyph glyph-name="rcaron" unicode="&#x159;" horiz-adv-x="458" 
d="M41 1.5q-13 5.5 -13 16.5q0 15 16 20q28 4 40 12t14.5 21t2.5 44v258q0 21 -4 30t-20 9q-11 0 -21 -1t-17 -1q-10 0 -14.5 2.5t-4.5 10.5q0 9 7.5 14.5t21.5 10.5l41 12q54 18 72 18q15 0 21.5 -6t6.5 -21v-57q0 -15 4 -15q1 0 14 27.5t45.5 52t82.5 24.5t78 -30.5
t28 -83.5q0 -30 -13.5 -51t-40.5 -21q-16 0 -28.5 11.5t-8.5 33.5q5 12 5 28q0 47 -55 47q-28 0 -53.5 -20t-41.5 -57.5t-16 -87.5v-137q0 -30 3 -43t15 -21t40 -13q18 -5 18 -20q0 -11 -11.5 -16.5t-46.5 -5.5l-60 1l-60 -1q-34 0 -47 5.5zM102.5 681.5
q9.5 -4.5 18.5 -12.5l17 -15q79 -72 88 -72q5 0 32.5 24t35.5 31l36 32q20 17 35 17q7 0 10.5 -6t1.5 -14q-10 -23 -54 -68t-72 -63q-12 -8 -25 -8t-24 8q-30 19 -74.5 63.5t-52.5 67.5q-1 2 -1 6q0 6 3.5 10t9.5 4t15.5 -4.5z" />
    <glyph glyph-name="Sacute" unicode="&#x15a;" horiz-adv-x="572" 
d="M154 16q-60 27 -93 75q-20 27 -26 51q-8 22 -8 48q0 22 10.5 34.5t29.5 12.5q17 0 30.5 -11t16.5 -35q0 -67 42.5 -108.5t117.5 -41.5q70 0 112.5 36.5t42.5 97.5q0 58 -42.5 95t-132.5 63q-113 34 -158.5 81.5t-45.5 124.5q0 48 27.5 87t78 62t118.5 23q66 0 123 -26.5
t89 -74.5q14 -20 23 -43q9 -27 9 -56q0 -20 -10 -31.5t-28 -11.5q-16 0 -28.5 9.5t-15.5 32.5q-2 68 -42.5 109t-110.5 41q-58 0 -97 -30t-39 -79q0 -51 37.5 -84.5t124.5 -57.5q123 -33 176.5 -86t53.5 -130q0 -61 -31.5 -107t-89 -71.5t-133.5 -25.5q-71 0 -131 27z
M220.5 738.5q-3.5 2.5 -3.5 8.5q1 7 25.5 28.5t51.5 43.5q10 9 23 19.5t24 20.5q7 9 15.5 12t24.5 3q28 0 37 -3.5t8 -14.5q0 -13 -41.5 -42t-90 -53.5t-62.5 -24.5q-8 0 -11.5 2.5z" />
    <glyph glyph-name="sacute" unicode="&#x15b;" horiz-adv-x="471" 
d="M124 17q-30 15 -50 41q-24 29 -24 68q0 17 9.5 28t25.5 11q32 0 41 -38q2 -38 28.5 -64.5t76.5 -26.5q55 0 85 22.5t30 60.5q0 37 -29 60t-98 40q-84 21 -117.5 54.5t-33.5 88.5q0 53 47.5 87t117.5 34q56 0 106 -24q33 -14 54 -38q27 -32 27 -73q0 -15 -9 -25.5
t-23 -10.5q-31 0 -41 34q-1 37 -27.5 63.5t-74.5 26.5q-39 0 -65 -18t-26 -47q0 -34 25 -56t90 -36q90 -19 128.5 -55.5t38.5 -91.5q0 -68 -54 -105.5t-144 -37.5q-63 0 -114 28zM187 537q0 11 79 99q28 32 30 35q8 12 19 15.5t31 3.5t27.5 -4t7.5 -13q0 -13 -39 -48.5
t-84 -67t-57 -31.5q-14 0 -14 11z" />
    <glyph glyph-name="Scircumflex" unicode="&#x15c;" horiz-adv-x="572" 
d="M154 16q-60 27 -93 75q-20 27 -26 51q-8 22 -8 48q0 22 10.5 34.5t29.5 12.5q17 0 30.5 -11t16.5 -35q0 -67 42.5 -108.5t117.5 -41.5q70 0 112.5 36.5t42.5 97.5q0 58 -42.5 95t-132.5 63q-113 34 -158.5 81.5t-45.5 124.5q0 48 27.5 87t78 62t118.5 23q66 0 123 -26.5
t89 -74.5q14 -20 23 -43q9 -27 9 -56q0 -20 -10 -31.5t-28 -11.5q-16 0 -28.5 9.5t-15.5 32.5q-2 68 -42.5 109t-110.5 41q-58 0 -97 -30t-39 -79q0 -51 37.5 -84.5t124.5 -57.5q123 -33 176.5 -86t53.5 -130q0 -61 -31.5 -107t-89 -71.5t-133.5 -25.5q-71 0 -131 27z
M131.5 735.5q-3.5 3.5 -3.5 9.5q0 15 49 65t80 70q12 9 24 9q11 0 25 -9q31 -21 80 -70.5t49 -64.5q0 -6 -3.5 -9.5t-8.5 -3.5q-4 0 -17.5 10t-17.5 13l-17 13q-81 63 -90 63q-5 0 -31 -19t-58 -44q-8 -5 -28 -20.5t-24 -15.5q-5 0 -8.5 3.5z" />
    <glyph glyph-name="scircumflex" unicode="&#x15d;" horiz-adv-x="471" 
d="M124 17q-30 15 -50 41q-24 29 -24 68q0 17 9.5 28t25.5 11q32 0 41 -38q2 -38 28.5 -64.5t76.5 -26.5q55 0 85 22.5t30 60.5q0 37 -29 60t-98 40q-84 21 -117.5 54.5t-33.5 88.5q0 53 47.5 87t117.5 34q56 0 106 -24q33 -14 54 -38q27 -32 27 -73q0 -15 -9 -25.5
t-23 -10.5q-31 0 -41 34q-1 37 -27.5 63.5t-74.5 26.5q-39 0 -65 -18t-26 -47q0 -34 25 -56t90 -36q90 -19 128.5 -55.5t38.5 -91.5q0 -68 -54 -105.5t-144 -37.5q-63 0 -114 28zM87.5 539.5q-3.5 5.5 -1.5 13.5q8 23 52.5 67.5t74.5 64.5q11 8 24 8q11 0 25 -8
q28 -18 72 -63.5t54 -68.5q1 -2 1 -5q0 -6 -4 -10t-9 -4q-14 0 -35 16l-29 26q-24 22 -47 42t-28 20q-6 0 -82 -67q-9 -9 -23 -21q-9 -7 -19 -11.5t-15 -4.5q-7 0 -10.5 5.5z" />
    <glyph glyph-name="Scedilla" unicode="&#x15e;" horiz-adv-x="572" 
d="M475 49.5q-64 -55.5 -171 -60.5q-1 -13 7 -20t27 -17q24 -12 37.5 -25t13.5 -37q0 -33 -25.5 -55t-69.5 -22q-31 0 -55.5 8t-39.5 22q-9 7 -9 16q0 4 3 6.5t8 2.5q6 0 13 -3q26 -18 68 -18q27 0 43.5 12t16.5 32q0 15 -10.5 24t-29.5 18q-20 10 -30.5 19.5t-10.5 26.5
q0 7 1 11q-64 4 -117.5 30.5t-83.5 70.5q-20 27 -26 51q-8 22 -8 48q0 22 10.5 34.5t29.5 12.5q17 0 30.5 -11t16.5 -35q0 -67 42.5 -108.5t117.5 -41.5q70 0 112.5 36.5t42.5 97.5q0 58 -42.5 95t-132.5 63q-113 34 -158.5 81.5t-45.5 124.5q0 48 27.5 87t78 62t118.5 23
q66 0 123 -26.5t89 -74.5q14 -20 23 -43q9 -27 9 -56q0 -20 -10 -31.5t-28 -11.5q-16 0 -28.5 9.5t-15.5 32.5q-2 68 -42.5 109t-110.5 41q-58 0 -97 -30t-39 -79q0 -51 37.5 -84.5t124.5 -57.5q123 -33 176.5 -86t53.5 -130q0 -88 -64 -143.5z" />
    <glyph glyph-name="scedilla" unicode="&#x15f;" horiz-adv-x="471" 
d="M389 32q-47 -37 -127 -42q-3 -15 5.5 -23.5t29.5 -18.5q24 -13 37 -25.5t13 -36.5q0 -33 -25.5 -55t-69.5 -22q-31 0 -55.5 8t-39.5 22q-9 7 -9 16q0 4 3 6.5t8 2.5t13 -3q26 -18 68 -18q27 0 43.5 12t16.5 32q0 15 -9.5 23.5t-30.5 18.5t-31 19t-10 26q0 10 2 16
q-52 3 -97 27q-30 15 -50 41q-24 29 -24 68q0 17 9.5 28t25.5 11q32 0 41 -38q2 -38 28.5 -64.5t76.5 -26.5q55 0 85 22.5t30 60.5q0 37 -29 60t-98 40q-84 21 -117.5 54.5t-33.5 88.5q0 53 47.5 87t117.5 34q56 0 106 -24q33 -14 54 -38q27 -32 27 -73q0 -15 -9 -25.5
t-23 -10.5q-31 0 -41 34q-1 37 -27.5 63.5t-74.5 26.5q-39 0 -65 -18t-26 -47q0 -34 25 -56t90 -36q90 -19 128.5 -55.5t38.5 -91.5q0 -63 -47 -100z" />
    <glyph glyph-name="Scaron" unicode="&#x160;" horiz-adv-x="572" 
d="M154 16q-60 27 -93 75q-20 27 -26 51q-8 22 -8 48q0 22 10.5 34.5t29.5 12.5q17 0 30.5 -11t16.5 -35q0 -67 42.5 -108.5t117.5 -41.5q70 0 112.5 36.5t42.5 97.5q0 58 -42.5 95t-132.5 63q-113 34 -158.5 81.5t-45.5 124.5q0 48 27.5 87t78 62t118.5 23q66 0 123 -26.5
t89 -74.5q14 -20 23 -43q9 -27 9 -56q0 -20 -10 -31.5t-28 -11.5q-16 0 -28.5 9.5t-15.5 32.5q-2 68 -42.5 109t-110.5 41q-58 0 -97 -30t-39 -79q0 -51 37.5 -84.5t124.5 -57.5q123 -33 176.5 -86t53.5 -130q0 -61 -31.5 -107t-89 -71.5t-133.5 -25.5q-71 0 -131 27z
M148 870.5q20 -15.5 28 -20.5q32 -25 58 -44t31 -19q9 0 90 63l17 13q4 3 17.5 13t17.5 10q5 0 8.5 -3.5t3.5 -9.5q0 -15 -49 -64.5t-80 -70.5q-14 -9 -25 -9q-12 0 -24 9q-31 20 -80 70t-49 65q0 6 3.5 9.5t8.5 3.5q4 0 24 -15.5z" />
    <glyph glyph-name="scaron" unicode="&#x161;" horiz-adv-x="471" 
d="M124 17q-30 15 -50 41q-24 29 -24 68q0 17 9.5 28t25.5 11q32 0 41 -38q2 -38 28.5 -64.5t76.5 -26.5q55 0 85 22.5t30 60.5q0 37 -29 60t-98 40q-84 21 -117.5 54.5t-33.5 88.5q0 53 47.5 87t117.5 34q56 0 106 -24q33 -14 54 -38q27 -32 27 -73q0 -15 -9 -25.5
t-23 -10.5q-31 0 -41 34q-1 37 -27.5 63.5t-74.5 26.5q-39 0 -65 -18t-26 -47q0 -34 25 -56t90 -36q90 -19 128.5 -55.5t38.5 -91.5q0 -68 -54 -105.5t-144 -37.5q-63 0 -114 28zM113.5 684.5q9.5 -4.5 18.5 -12.5l17 -15q79 -72 88 -72q5 0 32.5 24t35.5 31l36 32
q20 17 35 17q7 0 10.5 -6t1.5 -14q-10 -23 -54 -68t-72 -63q-12 -8 -25 -8t-24 8q-30 19 -74.5 63.5t-52.5 67.5q-1 2 -1 6q0 6 3.5 10t9.5 4t15.5 -4.5z" />
    <glyph glyph-name="uni0162" unicode="&#x162;" horiz-adv-x="641" 
d="M614 538q7 -30 7 -45q0 -13 -5 -18.5t-16 -5.5q-13 0 -21.5 9.5t-17.5 33.5q-18 66 -28 93t-22.5 37.5t-35.5 10.5h-68q-26 0 -32.5 -10.5t-6.5 -43.5v-472q0 -33 5 -46.5t21.5 -21t58.5 -13.5q29 -10 29 -25q0 -11 -9.5 -16.5t-34.5 -5.5h-87q-2 -5 -2 -12
q0 -12 8.5 -19t26.5 -16q24 -13 37 -25.5t13 -36.5q0 -33 -25.5 -55t-69.5 -22q-31 0 -55.5 8t-39.5 22q-9 7 -9 16q0 4 3 6.5t8 2.5q6 0 13 -3q26 -18 68 -18q27 0 43.5 12t16.5 32q0 15 -9.5 23.5t-30.5 18.5t-31 19t-10 26q0 10 4 21h-103q-27 0 -37.5 4.5t-10.5 17.5
q0 15 29 25q41 6 58 13.5t22 20.5t5 43v476q0 32 -7 43t-31 11h-67q-24 0 -37 -10.5t-23 -37t-29 -93.5q-8 -24 -16.5 -33.5t-20.5 -9.5t-17 6.5t-5 20.5q0 26 23 111q17 64 28 87.5t25 23.5q7 0 21 -6q22 -12 52 -12h300q22 0 32.5 3t22.5 9t20 6q9 0 15.5 -7.5t15 -31
t21.5 -72.5q11 -39 18 -69z" />
    <glyph glyph-name="uni0163" unicode="&#x163;" horiz-adv-x="391" 
d="M365 121q8 0 12 -7t1 -15q-21 -53 -57 -80t-88 -29q-1 -13 7 -20.5t28 -17.5q24 -13 37 -25.5t13 -36.5q0 -33 -25.5 -55t-69.5 -22q-31 0 -55.5 8t-39.5 22q-9 7 -9 16q0 4 3 6.5t8 2.5q6 0 13 -3q26 -18 68 -18q27 0 43.5 12t16.5 32q0 15 -9.5 23.5t-30.5 18.5t-31 19
t-10 26q0 4 2 14q-109 18 -109 155v262q0 11 -5.5 15t-15.5 4h-14q-8 0 -13 6t-5 14q0 13 13 35l10 15q28 56 53 81q24 22 50 22q10 0 14 -6t4 -20v-69q0 -23 2 -28.5t11 -5.5h139q10 0 14 -3.5t4 -14.5q0 -12 -7.5 -19t-19.5 -7h-123q-23 0 -23 -20v-247q0 -54 22.5 -81
t62.5 -27q24 0 49.5 14.5t44.5 43.5q7 10 15 10z" />
    <glyph glyph-name="Tcaron" unicode="&#x164;" horiz-adv-x="641" 
d="M169.5 3.5q-10.5 4.5 -10.5 17.5q0 15 29 25q41 6 58 13.5t22 20.5t5 43v476q0 32 -7 43t-31 11h-67q-24 0 -37 -10.5t-23 -37t-29 -93.5q-8 -24 -16.5 -33.5t-20.5 -9.5t-17 6.5t-5 20.5q0 26 23 111q17 64 28 87.5t25 23.5q7 0 21 -6q22 -12 52 -12h300q22 0 32.5 3
t22.5 9t20 6q9 0 15.5 -7.5t15 -31t21.5 -72.5q11 -39 18 -69t7 -45q0 -13 -5 -18.5t-16 -5.5q-13 0 -21.5 9.5t-17.5 33.5q-18 66 -28 93t-22.5 37.5t-35.5 10.5h-68q-26 0 -32.5 -10.5t-6.5 -43.5v-472q0 -33 5 -46.5t21.5 -21t58.5 -13.5q29 -10 29 -25q0 -11 -9.5 -16.5
t-34.5 -5.5h-231q-27 0 -37.5 4.5zM193 870.5q20 -15.5 28 -20.5q32 -25 58 -44t31 -19q9 0 90 63l17 13q4 3 17.5 13t17.5 10q5 0 8.5 -3.5t3.5 -9.5q0 -15 -49 -64.5t-80 -70.5q-14 -9 -25 -9q-12 0 -24 9q-31 20 -80 70t-49 65q0 6 3.5 9.5t8.5 3.5q4 0 24 -15.5z" />
    <glyph glyph-name="tcaron" unicode="&#x165;" horiz-adv-x="391" 
d="M120 28q-37 38 -37 119v262q0 11 -5.5 15t-15.5 4h-14q-8 0 -13 6t-5 14q0 13 13 35l10 15q28 56 53 81q24 22 50 22q10 0 14 -6t4 -20v-69q0 -23 2 -28.5t11 -5.5h139q10 0 14 -3.5t4 -14.5q0 -12 -7.5 -19t-19.5 -7h-123q-23 0 -23 -20v-247q0 -54 22.5 -81t62.5 -27
q24 0 49.5 14.5t44.5 43.5q7 10 15 10t12 -7t1 -15q-42 -109 -155 -109q-66 0 -103 38zM286 608q-8 100 -8 126q0 17 7 24.5t24 7.5t24.5 -7.5t7.5 -23.5q0 -27 -8 -127l-5 -75q-1 -6 -6 -9t-12 -3q-16 0 -19 12z" />
    <glyph glyph-name="Tbar" unicode="&#x166;" horiz-adv-x="641" 
d="M614 538q7 -30 7 -45q0 -13 -5 -18.5t-16 -5.5q-13 0 -21.5 9.5t-17.5 33.5q-18 66 -28 93t-22.5 37.5t-35.5 10.5h-68q-26 0 -32.5 -10.5t-6.5 -43.5v-223q3 -8 11 -8h109q19 0 19 -22q0 -21 -19 -21h-109q-8 0 -11 -6v-192q0 -33 5 -46.5t21.5 -21t58.5 -13.5
q29 -10 29 -25q0 -11 -9.5 -16.5t-34.5 -5.5h-231q-27 0 -37.5 4.5t-10.5 17.5q0 15 29 25q41 6 58 13.5t22 20.5t5 43v189q0 12 -12 12h-109q-19 0 -19 22q0 23 19 23h109q12 0 12 14v216q0 32 -7 43t-31 11h-67q-24 0 -37 -10.5t-23 -37t-29 -93.5q-8 -24 -16.5 -33.5
t-20.5 -9.5t-17 6.5t-5 20.5q0 26 23 111q17 64 28 87.5t25 23.5q7 0 21 -6q22 -12 52 -12h300q22 0 32.5 3t22.5 9t20 6q9 0 15.5 -7.5t15 -31t21.5 -72.5q11 -39 18 -69z" />
    <glyph glyph-name="tbar" unicode="&#x167;" horiz-adv-x="391" 
d="M365 121q8 0 12 -7t1 -15q-42 -109 -155 -109q-66 0 -103 38t-37 119v75h-46q-17 0 -17 17q0 29 29 29h34v141q0 11 -5.5 15t-15.5 4h-14q-8 0 -13 6t-5 14q0 13 13 35l10 15q28 56 53 81q24 22 50 22q10 0 14 -6t4 -20v-69q0 -23 2 -28.5t11 -5.5h139q10 0 14 -3.5
t4 -14.5q0 -12 -7.5 -19t-19.5 -7h-123q-23 0 -23 -20v-141l109 1q17 0 17 -17q0 -29 -29 -29h-97v-61q0 -54 22.5 -81t62.5 -27q24 0 49.5 14.5t44.5 43.5q7 10 15 10z" />
    <glyph glyph-name="Utilde" unicode="&#x168;" horiz-adv-x="740" 
d="M169 53q-70 64 -70 191v323q0 35 -4 50t-17 23t-44 14q-22 8 -22 26q0 10 8 15.5t27 5.5l197 -1q20 0 28 -4.5t8 -17.5q0 -17 -22 -24q-32 -7 -45.5 -14t-17.5 -20.5t-4 -42.5v-326q0 -98 51.5 -149.5t150.5 -51.5q96 0 147.5 49t51.5 139v316q0 43 -4.5 61t-17 25.5
t-43.5 12.5q-23 9 -23 25q0 12 9 17t28 5h71q47 0 79 1q37 0 37 -22q0 -16 -22 -25q-31 -5 -44 -13t-17.5 -26.5t-4.5 -60.5v-307q0 -129 -67 -193.5t-197 -64.5q-137 0 -207 64zM417 746.5q-18 7.5 -41 20.5l-19 9.5t-27.5 11.5t-24.5 4q-17 0 -28.5 -9.5t-15.5 -26.5
q-10 -19 -25 -19q-8 0 -13 5.5t-5 14.5q1 37 23.5 60t56.5 23q23 0 44.5 -8t46.5 -23q23 -12 35 -17.5t25 -5.5q16 0 27.5 10t16.5 26q9 19 25 19q8 0 13 -5.5t5 -14.5q-1 -37 -23.5 -59.5t-57.5 -22.5q-20 0 -38 7.5z" />
    <glyph glyph-name="utilde" unicode="&#x169;" horiz-adv-x="590" 
d="M127.5 37q-43.5 47 -43.5 142v194q0 21 -4.5 30t-20.5 9q-11 0 -20.5 -1t-16.5 -1q-10 0 -14.5 2.5t-5.5 8.5q0 11 7.5 16.5t22.5 10.5q30 9 37 11q23 7 44 13t32 6q14 0 20.5 -6t6.5 -21v-257q0 -140 110 -140q32 0 61 18t47.5 55.5t18.5 92.5v153q0 21 -4.5 30t-20.5 9
q-11 0 -20.5 -1t-16.5 -1q-10 0 -14.5 2.5t-5.5 8.5q0 11 7.5 16.5t22.5 10.5q30 9 37 11q23 7 44 13t32 6q14 0 20.5 -6t6.5 -21v-353q0 -20 4.5 -29t20.5 -9q11 0 20.5 1t16.5 1q10 0 14.5 -2.5t5.5 -8.5q0 -11 -7.5 -16.5t-22.5 -10.5q-30 -9 -37 -11q-23 -7 -44 -13
t-32 -6q-14 0 -20.5 6t-6.5 21v56q0 16 -5 16q-1 0 -14.5 -27t-50 -51.5t-95.5 -24.5q-73 0 -116.5 47zM332 567.5q-18 7.5 -41 20.5l-19 9.5t-27.5 11.5t-24.5 4q-17 0 -28.5 -9.5t-15.5 -26.5q-10 -19 -25 -19q-8 0 -13 5.5t-5 14.5q1 37 23.5 60t56.5 23q23 0 44.5 -8
t46.5 -23q23 -12 35 -17.5t25 -5.5q16 0 27.5 10t16.5 26q9 19 25 19q8 0 13 -5.5t5 -14.5q-1 -37 -23.5 -59.5t-57.5 -22.5q-20 0 -38 7.5z" />
    <glyph glyph-name="Umacron" unicode="&#x16a;" horiz-adv-x="740" 
d="M169 53q-70 64 -70 191v323q0 35 -4 50t-17 23t-44 14q-22 8 -22 26q0 10 8 15.5t27 5.5l197 -1q20 0 28 -4.5t8 -17.5q0 -17 -22 -24q-32 -7 -45.5 -14t-17.5 -20.5t-4 -42.5v-326q0 -98 51.5 -149.5t150.5 -51.5q96 0 147.5 49t51.5 139v316q0 43 -4.5 61t-17 25.5
t-43.5 12.5q-23 9 -23 25q0 12 9 17t28 5h71q47 0 79 1q37 0 37 -22q0 -16 -22 -25q-31 -5 -44 -13t-17.5 -26.5t-4.5 -60.5v-307q0 -129 -67 -193.5t-197 -64.5q-137 0 -207 64zM240 754.5q-4 2.5 -4 8.5t3 13q4 12 8.5 17.5t14.5 5.5l118 -1l110 1q12 0 12 -10
q0 -1 -3 -13q-3 -14 -7.5 -19.5t-15.5 -5.5q-69 1 -222 1q-10 0 -14 2.5z" />
    <glyph glyph-name="umacron" unicode="&#x16b;" horiz-adv-x="590" 
d="M127.5 37q-43.5 47 -43.5 142v194q0 21 -4.5 30t-20.5 9q-11 0 -20.5 -1t-16.5 -1q-10 0 -14.5 2.5t-5.5 8.5q0 11 7.5 16.5t22.5 10.5q30 9 37 11q23 7 44 13t32 6q14 0 20.5 -6t6.5 -21v-257q0 -140 110 -140q32 0 61 18t47.5 55.5t18.5 92.5v153q0 21 -4.5 30t-20.5 9
q-11 0 -20.5 -1t-16.5 -1q-10 0 -14.5 2.5t-5.5 8.5q0 11 7.5 16.5t22.5 10.5q30 9 37 11q23 7 44 13t32 6q14 0 20.5 -6t6.5 -21v-353q0 -20 4.5 -29t20.5 -9q11 0 20.5 1t16.5 1q10 0 14.5 -2.5t5.5 -8.5q0 -11 -7.5 -16.5t-22.5 -10.5q-30 -9 -37 -11q-23 -7 -44 -13
t-32 -6q-14 0 -20.5 6t-6.5 21v56q0 16 -5 16q-1 0 -14.5 -27t-50 -51.5t-95.5 -24.5q-73 0 -116.5 47zM175 585.5q-4 2.5 -4 8.5t3 13q4 12 8.5 17.5t14.5 5.5l118 -1l110 1q12 0 12 -10q0 -1 -3 -13q-3 -14 -7.5 -19.5t-15.5 -5.5q-69 1 -222 1q-10 0 -14 2.5z" />
    <glyph glyph-name="Ubreve" unicode="&#x16c;" horiz-adv-x="740" 
d="M169 53q-70 64 -70 191v323q0 35 -4 50t-17 23t-44 14q-22 8 -22 26q0 10 8 15.5t27 5.5l197 -1q20 0 28 -4.5t8 -17.5q0 -17 -22 -24q-32 -7 -45.5 -14t-17.5 -20.5t-4 -42.5v-326q0 -98 51.5 -149.5t150.5 -51.5q96 0 147.5 49t51.5 139v316q0 43 -4.5 61t-17 25.5
t-43.5 12.5q-23 9 -23 25q0 12 9 17t28 5h71q47 0 79 1q37 0 37 -22q0 -16 -22 -25q-31 -5 -44 -13t-17.5 -26.5t-4.5 -60.5v-307q0 -129 -67 -193.5t-197 -64.5q-137 0 -207 64zM264 774.5q-42 36.5 -46 96.5v2q0 14 12 14q8 0 13 -11q13 -40 46 -64.5t80 -24.5q45 0 77 22
t45 64q4 6 9 10t9 4q6 0 9.5 -4.5t2.5 -11.5q-4 -59 -45.5 -96t-106.5 -37q-63 0 -105 36.5z" />
    <glyph glyph-name="ubreve" unicode="&#x16d;" horiz-adv-x="590" 
d="M127.5 37q-43.5 47 -43.5 142v194q0 21 -4.5 30t-20.5 9q-11 0 -20.5 -1t-16.5 -1q-10 0 -14.5 2.5t-5.5 8.5q0 11 7.5 16.5t22.5 10.5q30 9 37 11q23 7 44 13t32 6q14 0 20.5 -6t6.5 -21v-257q0 -140 110 -140q32 0 61 18t47.5 55.5t18.5 92.5v153q0 21 -4.5 30t-20.5 9
q-11 0 -20.5 -1t-16.5 -1q-10 0 -14.5 2.5t-5.5 8.5q0 11 7.5 16.5t22.5 10.5q30 9 37 11q23 7 44 13t32 6q14 0 20.5 -6t6.5 -21v-353q0 -20 4.5 -29t20.5 -9q11 0 20.5 1t16.5 1q10 0 14.5 -2.5t5.5 -8.5q0 -11 -7.5 -16.5t-22.5 -10.5q-30 -9 -37 -11q-23 -7 -44 -13
t-32 -6q-14 0 -20.5 6t-6.5 21v56q0 16 -5 16q-1 0 -14.5 -27t-50 -51.5t-95.5 -24.5q-73 0 -116.5 47zM198 569.5q-42 36.5 -46 96.5v2q0 14 12 14q8 0 13 -11q13 -40 46 -64.5t80 -24.5q45 0 77 22t45 64q4 6 9 10t9 4q6 0 9.5 -4.5t2.5 -11.5q-4 -59 -45.5 -96
t-106.5 -37q-63 0 -105 36.5z" />
    <glyph glyph-name="Uring" unicode="&#x16e;" horiz-adv-x="740" 
d="M169 53q-70 64 -70 191v323q0 35 -4 50t-17 23t-44 14q-22 8 -22 26q0 10 8 15.5t27 5.5l197 -1q20 0 28 -4.5t8 -17.5q0 -17 -22 -24q-32 -7 -45.5 -14t-17.5 -20.5t-4 -42.5v-326q0 -98 51.5 -149.5t150.5 -51.5q96 0 147.5 49t51.5 139v316q0 43 -4.5 61t-17 25.5
t-43.5 12.5q-23 9 -23 25q0 12 9 17t28 5h71q47 0 79 1q37 0 37 -22q0 -16 -22 -25q-31 -5 -44 -13t-17.5 -26.5t-4.5 -60.5v-307q0 -129 -67 -193.5t-197 -64.5q-137 0 -207 64zM306.5 758q-25.5 21 -25.5 54q0 34 25 55t61 21q37 0 63 -21.5t26 -55.5q0 -33 -26 -53.5
t-61 -20.5q-37 0 -62.5 21zM401 778q13 13 13 32q0 20 -13.5 34.5t-32.5 14.5q-20 0 -32.5 -13.5t-12.5 -32.5t13.5 -33.5t32.5 -14.5t32 13z" />
    <glyph glyph-name="uring" unicode="&#x16f;" horiz-adv-x="590" 
d="M127.5 37q-43.5 47 -43.5 142v194q0 21 -4.5 30t-20.5 9q-11 0 -20.5 -1t-16.5 -1q-10 0 -14.5 2.5t-5.5 8.5q0 11 7.5 16.5t22.5 10.5q30 9 37 11q23 7 44 13t32 6q14 0 20.5 -6t6.5 -21v-257q0 -140 110 -140q32 0 61 18t47.5 55.5t18.5 92.5v153q0 21 -4.5 30t-20.5 9
q-11 0 -20.5 -1t-16.5 -1q-10 0 -14.5 2.5t-5.5 8.5q0 11 7.5 16.5t22.5 10.5q30 9 37 11q23 7 44 13t32 6q14 0 20.5 -6t6.5 -21v-353q0 -20 4.5 -29t20.5 -9q11 0 20.5 1t16.5 1q10 0 14.5 -2.5t5.5 -8.5q0 -11 -7.5 -16.5t-22.5 -10.5q-30 -9 -37 -11q-23 -7 -44 -13
t-32 -6q-14 0 -20.5 6t-6.5 21v56q0 16 -5 16q-1 0 -14.5 -27t-50 -51.5t-95.5 -24.5q-73 0 -116.5 47zM242 548.5q-26 22.5 -26 57.5q0 36 25 58t61 22t62.5 -22.5t26.5 -58.5q0 -35 -26 -57t-61 -22q-36 0 -62 22.5zM336 570q13 13 13 33q0 21 -13.5 37t-32.5 16
q-20 0 -32.5 -14t-12.5 -35q0 -20 13.5 -35t32.5 -15t32 13z" />
    <glyph glyph-name="Uhungarumlaut" unicode="&#x170;" horiz-adv-x="740" 
d="M169 53q-70 64 -70 191v323q0 35 -4 50t-17 23t-44 14q-22 8 -22 26q0 10 8 15.5t27 5.5l197 -1q20 0 28 -4.5t8 -17.5q0 -17 -22 -24q-32 -7 -45.5 -14t-17.5 -20.5t-4 -42.5v-326q0 -98 51.5 -149.5t150.5 -51.5q96 0 147.5 49t51.5 139v316q0 43 -4.5 61t-17 25.5
t-43.5 12.5q-23 9 -23 25q0 12 9 17t28 5h71q47 0 79 1q37 0 37 -22q0 -16 -22 -25q-31 -5 -44 -13t-17.5 -26.5t-4.5 -60.5v-307q0 -129 -67 -193.5t-197 -64.5q-137 0 -207 64zM280 738q0 6 8 17l33 42l40 51q5 12 17 15.5t30 3.5q26 0 26 -15q0 -5 -4 -12
q-9 -16 -38 -42.5t-59.5 -46.5t-41.5 -20t-11 7zM425 738q0 6 7 17q54 67 72 93q6 12 18 15.5t31 3.5q25 0 25 -15q0 -6 -3 -12q-9 -16 -38.5 -42.5t-59.5 -46.5t-41 -20t-11 7z" />
    <glyph glyph-name="uhungarumlaut" unicode="&#x171;" horiz-adv-x="590" 
d="M127.5 37q-43.5 47 -43.5 142v194q0 21 -4.5 30t-20.5 9q-11 0 -20.5 -1t-16.5 -1q-10 0 -14.5 2.5t-5.5 8.5q0 11 7.5 16.5t22.5 10.5q30 9 37 11q23 7 44 13t32 6q14 0 20.5 -6t6.5 -21v-257q0 -140 110 -140q32 0 61 18t47.5 55.5t18.5 92.5v153q0 21 -4.5 30t-20.5 9
q-11 0 -20.5 -1t-16.5 -1q-10 0 -14.5 2.5t-5.5 8.5q0 11 7.5 16.5t22.5 10.5q30 9 37 11q23 7 44 13t32 6q14 0 20.5 -6t6.5 -21v-353q0 -20 4.5 -29t20.5 -9q11 0 20.5 1t16.5 1q10 0 14.5 -2.5t5.5 -8.5q0 -11 -7.5 -16.5t-22.5 -10.5q-30 -9 -37 -11q-23 -7 -44 -13
t-32 -6q-14 0 -20.5 6t-6.5 21v56q0 16 -5 16q-1 0 -14.5 -27t-50 -51.5t-95.5 -24.5q-73 0 -116.5 47zM204 534.5q-3 4.5 1 12.5q47 77 72 127q5 12 13 16t30 4q33 0 33 -16q0 -12 -29 -48.5t-63 -68t-46 -31.5q-8 0 -11 4.5zM348 539l2 8q46 77 71 127q5 12 13.5 16
t29.5 4q34 0 34 -16q0 -12 -29.5 -48.5t-63.5 -68t-46 -31.5q-11 0 -11 9z" />
    <glyph glyph-name="Uogonek" unicode="&#x172;" horiz-adv-x="740" 
d="M728 679q0 -16 -22 -25q-31 -5 -44 -13t-17.5 -26.5t-4.5 -60.5v-307q0 -163 -108 -224h2q-77 -43 -77 -96q0 -22 13 -36t36 -14q18 0 35.5 7.5t29.5 20.5q5 5 10 5t8 -5t0 -13q-9 -23 -35.5 -39t-63.5 -16q-38 0 -61 22.5t-23 57.5q0 43 33 76q-27 -4 -63 -4
q-137 0 -207 64t-70 191v323q0 35 -4 50t-17 23t-44 14q-22 8 -22 26q0 10 8 15.5t27 5.5l197 -1q20 0 28 -4.5t8 -17.5q0 -17 -22 -24q-32 -7 -45.5 -14t-17.5 -20.5t-4 -42.5v-326q0 -98 51.5 -149.5t150.5 -51.5q96 0 147.5 49t51.5 139v316q0 43 -4.5 61t-17 25.5
t-43.5 12.5q-23 9 -23 25q0 12 9 17t28 5h71q47 0 79 1q37 0 37 -22z" />
    <glyph glyph-name="uogonek" unicode="&#x173;" horiz-adv-x="590" 
d="M595 -89q5 0 8 -5t0 -13q-9 -23 -35.5 -39t-63.5 -16q-38 0 -61 22.5t-23 57.5q0 43 35 79q-10 -3 -19 -3q-14 0 -20.5 6t-6.5 21v56q0 16 -5 16q-1 0 -14.5 -27t-50 -51.5t-95.5 -24.5q-73 0 -116.5 47t-43.5 142v194q0 21 -4.5 30t-20.5 9q-11 0 -20.5 -1t-16.5 -1
q-10 0 -14.5 2.5t-5.5 8.5q0 11 7.5 16.5t22.5 10.5q30 9 37 11q23 7 44 13t32 6q14 0 20.5 -6t6.5 -21v-257q0 -140 110 -140q32 0 61 18t47.5 55.5t18.5 92.5v153q0 21 -4.5 30t-20.5 9q-11 0 -20.5 -1t-16.5 -1q-10 0 -14.5 2.5t-5.5 8.5q0 11 7.5 16.5t22.5 10.5
q30 9 37 11q23 7 44 13t32 6q14 0 20.5 -6t6.5 -21v-353q0 -20 4.5 -29t20.5 -9q11 0 20.5 1t16.5 1q10 0 14.5 -2.5t5.5 -8.5q0 -11 -7.5 -16.5t-22.5 -10.5l-2 -1q-76 -42 -76 -95q0 -22 13 -36t36 -14q18 0 35.5 7.5t29.5 20.5q5 5 10 5z" />
    <glyph glyph-name="Wcircumflex" unicode="&#x174;" horiz-adv-x="1053" 
d="M328 -3q-38 0 -53 43l-172 541q-10 30 -18 43t-20.5 18.5t-37.5 8.5q-22 6 -22 25q0 14 13.5 19.5t45.5 5.5q40 -1 85 -1q44 0 79 1q26 0 36 -6t10 -19q0 -7 -5.5 -13t-12.5 -7q-34 -3 -46.5 -9t-12.5 -21q0 -12 8 -38l138 -469q4 -12 10 -12t9 12q88 264 131 397
q7 18 7 39q0 17 -7 45q-7 27 -22 37t-52 14q-20 4 -20 25q0 24 38 24h187q21 0 30.5 -5.5t9.5 -17.5q0 -8 -5.5 -15t-13.5 -9q-30 -2 -45 -4.5t-20 -7.5q-4 -4 -4 -10q0 -7 7 -32l138 -481q3 -9 9 -9t9 9l159 487q5 15 5 21q0 13 -16.5 18.5t-62.5 9.5q-18 5 -18 22
q0 13 9 19t30 6q36 -1 86 -1q49 0 82 1q16 0 25.5 -6t9.5 -18q0 -19 -23 -23q-31 -3 -44.5 -7.5t-20.5 -15t-15 -34.5l-183 -557q-15 -43 -51 -43h-3q-19 0 -33 10.5t-21 31.5l-117 413q-3 11 -8 11t-9 -11q-23 -69 -28 -83q-22 -66 -49.5 -148t-61.5 -181q-13 -43 -50 -43
h-3zM393.5 735.5q-3.5 3.5 -3.5 9.5q0 15 49 65t80 70q12 9 24 9q11 0 25 -9q31 -21 80 -70.5t49 -64.5q0 -6 -3.5 -9.5t-8.5 -3.5q-4 0 -17.5 10t-17.5 13l-17 13q-81 63 -90 63q-5 0 -31 -19t-58 -44q-8 -5 -28 -20.5t-24 -15.5q-5 0 -8.5 3.5z" />
    <glyph glyph-name="wcircumflex" unicode="&#x175;" horiz-adv-x="768" 
d="M732 403.5q6 -29.5 4 -58.5q-2 -48 -24 -101t-49 -96t-74 -113q-14 -22 -25.5 -30t-26.5 -8h-5q-15 0 -23.5 6t-15.5 21q-44 124 -71 187q-5 13 -12 4q0 -1 -2 -5q-24 -75 -95 -175q-16 -22 -27 -30t-26 -8h-4q-19 0 -28 5.5t-16 21.5q-30 74 -91 244l-41 114
q-10 27 -20 35.5t-35 11.5q-22 7 -22 22q0 14 11.5 18.5t40.5 4.5l69 -1l67 1q31 0 41 -5t10 -17q0 -15 -17 -20q-31 -4 -42.5 -9t-11.5 -16q0 -7 5 -22q53 -167 105 -291q3 -7 6 -7q4 0 9 7q48 71 72.5 122t25.5 103q2 29 -7 49.5t-30 34.5q-10 7 -15 17t-5 19q0 5 1 8
q2 17 17.5 26t38.5 7q33 -5 52.5 -35t15.5 -77q-1 -13 -6 -35l1 -4q64 -143 96 -235q3 -6 7 -6t8 6l24 34q42 61 62 99.5t21 82.5q2 35 -7 56.5t-33 36.5q-16 11 -19 27q-2 8 -2 10q0 8 3 12q3 19 21 26q4 1 12 1q11 0 23 -3q24 -5 38 -23q15 -20 21 -49.5zM261.5 539.5
q-3.5 5.5 -1.5 13.5q8 23 52.5 67.5t74.5 64.5q11 8 24 8q11 0 25 -8q28 -18 72 -63.5t54 -68.5q1 -2 1 -5q0 -6 -4 -10t-9 -4q-14 0 -35 16l-29 26q-24 22 -47 42t-28 20q-6 0 -82 -67q-9 -9 -23 -21q-9 -7 -19 -11.5t-15 -4.5q-7 0 -10.5 5.5z" />
    <glyph glyph-name="Ycircumflex" unicode="&#x176;" horiz-adv-x="677" 
d="M217 3.5q-8 4.5 -8 17.5q0 16 22 25q31 6 44.5 13.5t17 20.5t3.5 43v125q0 29 -20 64l-170 292q-16 29 -30.5 37t-48.5 11q-22 5 -22 25q0 14 10 19t32 5h125h67q43 0 43 -21q0 -18 -19 -25q-32 -3 -46 -8.5t-14 -16.5q0 -9 7 -20l145 -246q5 -9 10 -9q6 0 10 9l147 254
q5 10 5 16q0 11 -17 16.5t-54 7.5q-14 7 -14 21q0 12 8 17t25 5h59h108q30 0 30 -20t-26 -28q-22 -1 -33 -5.5t-17.5 -13t-19.5 -30.5l-169 -287q-18 -32 -18 -68v-116q0 -35 3.5 -50t16.5 -23t45 -14q23 -8 23 -25q0 -11 -7.5 -16.5t-26.5 -5.5h-197q-21 0 -29 4.5z
M204.5 735.5q-3.5 3.5 -3.5 9.5q0 15 49 65t80 70q12 9 24 9q11 0 25 -9q31 -21 80 -70.5t49 -64.5q0 -6 -3.5 -9.5t-8.5 -3.5q-4 0 -17.5 10t-17.5 13l-17 13q-81 63 -90 63q-5 0 -31 -19t-58 -44q-8 -5 -28 -20.5t-24 -15.5q-5 0 -8.5 3.5z" />
    <glyph glyph-name="ycircumflex" unicode="&#x177;" horiz-adv-x="498" 
d="M2.5 -161.5q-25.5 21.5 -25.5 57.5q0 20 12 33.5t30 13.5q16 0 26 -9t13 -24q2 -21 11 -34.5t23 -13.5q22 0 55.5 30t66.5 70q5 7 5 14q0 9 -9 33q-15 39 -32 91t-25 75q-46 137 -72 205q-11 27 -21.5 36.5t-34.5 12.5q-22 5 -22 23q0 12 10 17t35 5l79 -1l80 1
q27 0 36 -5.5t9 -16.5q0 -16 -17 -20q-35 -4 -49.5 -11.5t-14.5 -21.5q0 -7 5 -19q19 -49 57 -163q30 -92 45 -133q3 -8 9 -8t9 7q51 77 79 130.5t30 98.5q1 8 1 21q0 27 -9.5 42t-27.5 24q-25 19 -25 46q0 8 4 16t11 13q11 8 29 8t35 -12q15 -12 22 -27q21 -36 21 -91
q0 -80 -81 -220q-44 -74 -87 -131q-140 -184 -227 -184q-43 0 -68.5 21.5zM119.5 536.5q-3.5 5.5 -1.5 13.5q8 23 52.5 67.5t74.5 64.5q11 8 24 8q11 0 25 -8q28 -18 72 -63.5t54 -68.5q1 -2 1 -5q0 -6 -4 -10t-9 -4q-14 0 -35 16l-29 26q-24 22 -47 42t-28 20q-6 0 -82 -67
q-9 -9 -23 -21q-9 -7 -19 -11.5t-15 -4.5q-7 0 -10.5 5.5z" />
    <glyph glyph-name="Ydieresis" unicode="&#x178;" horiz-adv-x="677" 
d="M217 3.5q-8 4.5 -8 17.5q0 16 22 25q31 6 44.5 13.5t17 20.5t3.5 43v125q0 29 -20 64l-170 292q-16 29 -30.5 37t-48.5 11q-22 5 -22 25q0 14 10 19t32 5h125h67q43 0 43 -21q0 -18 -19 -25q-32 -3 -46 -8.5t-14 -16.5q0 -9 7 -20l145 -246q5 -9 10 -9q6 0 10 9l147 254
q5 10 5 16q0 11 -17 16.5t-54 7.5q-14 7 -14 21q0 12 8 17t25 5h59h108q30 0 30 -20t-26 -28q-22 -1 -33 -5.5t-17.5 -13t-19.5 -30.5l-169 -287q-18 -32 -18 -68v-116q0 -35 3.5 -50t16.5 -23t45 -14q23 -8 23 -25q0 -11 -7.5 -16.5t-26.5 -5.5h-197q-21 0 -29 4.5z
M209.5 748q-16.5 13 -16.5 35q0 20 16.5 33t44.5 13q27 0 43.5 -13t16.5 -33q0 -22 -16.5 -35t-43.5 -13q-28 0 -44.5 13zM415.5 748q-16.5 13 -16.5 35q0 20 16.5 33t44.5 13q27 0 43 -13t16 -33q0 -22 -16 -35t-43 -13q-28 0 -44.5 13z" />
    <glyph glyph-name="Zacute" unicode="&#x179;" horiz-adv-x="613" 
d="M495 -13q-52 13 -95 13h-345q-14 0 -22 6t-8 15q0 10 6 20t7 12l406 579q6 8 6 13q0 8 -14 8h-236q-24 0 -37.5 -10t-25.5 -40.5t-33 -100.5q-5 -14 -11.5 -20.5t-17.5 -6.5q-10 0 -15 6t-5 22q0 31 21 104q15 52 23 74t14 29.5t15 7.5q6 0 22 -6q15 -6 27.5 -9t32.5 -3
h354q8 0 13.5 -3.5t6.5 -7.5q1 -2 1 -6q0 -8 -7 -19l-416 -583q-11 -16 -11 -25t15 -9h279q22 0 35 11t26 42.5t34 101.5q6 13 12.5 18.5t16.5 5.5q19 0 19 -32t-21 -102q-15 -50 -23.5 -72.5t-14 -29.5t-12.5 -7q-4 0 -22 4zM289.5 738.5q-3.5 2.5 -3.5 8.5q1 7 25.5 28.5
t51.5 43.5q10 9 23 19.5t24 20.5q7 9 15.5 12t24.5 3q28 0 37 -3.5t8 -14.5q0 -13 -41.5 -42t-90 -53.5t-62.5 -24.5q-8 0 -11.5 2.5z" />
    <glyph glyph-name="zacute" unicode="&#x17a;" horiz-adv-x="489" 
d="M381 -6q-5 1 -28.5 3.5t-53.5 2.5h-230q-27 0 -27 18q0 11 11 27l282 366q3 5 3 8q0 7 -9 7h-170q-16 0 -24.5 -5t-15.5 -23t-17 -60q-5 -14 -11 -19.5t-17 -5.5q-8 0 -12.5 5t-4.5 22q0 21 7 59q8 39 12.5 55t10 21t15.5 5q8 0 34 -4t74 -4h227q11 0 17 -5.5t6 -11.5
q0 -9 -12 -25l-281 -369q-4 -6 -4 -9q0 -7 11 -7h173q19 0 28 6.5t16 26t19 68.5q5 13 11.5 18.5t16.5 5.5q7 0 11.5 -5.5t4.5 -22.5q0 -24 -8 -64q-9 -42 -14 -59t-10.5 -22.5t-16.5 -5.5q-9 0 -24 3zM227 534q0 11 79 99q28 32 30 35q8 12 19 15.5t31 3.5t27.5 -4t7.5 -13
q0 -13 -39 -48.5t-84 -67t-57 -31.5q-14 0 -14 11z" />
    <glyph glyph-name="Zdotaccent" unicode="&#x17b;" horiz-adv-x="613" 
d="M495 -13q-52 13 -95 13h-345q-14 0 -22 6t-8 15q0 10 6 20t7 12l406 579q6 8 6 13q0 8 -14 8h-236q-24 0 -37.5 -10t-25.5 -40.5t-33 -100.5q-5 -14 -11.5 -20.5t-17.5 -6.5q-10 0 -15 6t-5 22q0 31 21 104q15 52 23 74t14 29.5t15 7.5q6 0 22 -6q15 -6 27.5 -9t32.5 -3
h354q8 0 13.5 -3.5t6.5 -7.5q1 -2 1 -6q0 -8 -7 -19l-416 -583q-11 -16 -11 -25t15 -9h279q22 0 35 11t26 42.5t34 101.5q6 13 12.5 18.5t16.5 5.5q19 0 19 -32t-21 -102q-15 -50 -23.5 -72.5t-14 -29.5t-12.5 -7q-4 0 -22 4zM308.5 758q-16.5 13 -16.5 34t16.5 34t44.5 13
q27 0 43.5 -13t16.5 -34t-16.5 -34t-43.5 -13q-28 0 -44.5 13z" />
    <glyph glyph-name="zdotaccent" unicode="&#x17c;" horiz-adv-x="489" 
d="M381 -6q-5 1 -28.5 3.5t-53.5 2.5h-230q-27 0 -27 18q0 11 11 27l282 366q3 5 3 8q0 7 -9 7h-170q-16 0 -24.5 -5t-15.5 -23t-17 -60q-5 -14 -11 -19.5t-17 -5.5q-8 0 -12.5 5t-4.5 22q0 21 7 59q8 39 12.5 55t10 21t15.5 5q8 0 34 -4t74 -4h227q11 0 17 -5.5t6 -11.5
q0 -9 -12 -25l-281 -369q-4 -6 -4 -9q0 -7 11 -7h173q19 0 28 6.5t16 26t19 68.5q5 13 11.5 18.5t16.5 5.5q7 0 11.5 -5.5t4.5 -22.5q0 -24 -8 -64q-9 -42 -14 -59t-10.5 -22.5t-16.5 -5.5q-9 0 -24 3zM230 580.5q-18 14.5 -18 37.5t18 36.5t48 13.5q29 0 46.5 -13.5
t17.5 -36.5t-17.5 -37.5t-46.5 -14.5q-30 0 -48 14.5z" />
    </font>
</defs>
</svg>
