<?xml version="1.0" standalone="no"?>
<!DOCTYPE svg PUBLIC "-//W3C//DTD SVG 1.1//EN" "http://www.w3.org/Graphics/SVG/1.1/DTD/svg11.dtd" >
<svg xmlns="http://www.w3.org/2000/svg" xmlns:xlink="http://www.w3.org/1999/xlink" version="1.1">
<metadata>
Created by FontForge 20170731 at Fri Sep 25 13:07:27 2020
 By Aleksey,,,
Copyright (c) 2020 by Francesco Canovaro, Andrea Tartarelli. All rights reserved.
</metadata>
<defs>
<font id="BogartTrial-Thin" horiz-adv-x="0" >
  <font-face 
    font-family="Bogart Trial Thin"
    font-weight="100"
    font-stretch="normal"
    units-per-em="1000"
    panose-1="0 0 2 0 0 0 0 0 0 0"
    ascent="800"
    descent="-200"
    x-height="458"
    cap-height="701"
    bbox="-632 -337 1534 1055"
    underline-thickness="20"
    underline-position="-220"
    unicode-range="U+0020-FB06"
  />
<missing-glyph horiz-adv-x="409" 
 />
    <glyph glyph-name="f_f" unicode="ff" horiz-adv-x="556" 
d="M589.5 681q34.5 -29 34.5 -77q0 -12 -6 -18.5t-17 -6.5q-9 0 -14.5 7.5t-4.5 19.5q4 39 -18.5 61.5t-66.5 22.5q-53 0 -84.5 -31t-31.5 -80q0 -22 4 -46t8 -43q6 -28 6 -34h132q4 0 6.5 -2.5t2.5 -6.5t-2.5 -6.5t-6.5 -2.5h-110q-13 0 -17.5 -3.5t-4.5 -12.5v-354
q0 -27 3 -36t16.5 -12t49.5 -3q6 0 10 -3t4 -7t-3 -6.5t-7 -2.5h-160q-6 0 -9.5 2.5t-3.5 6.5q0 10 13 10q35 0 48 3t16 12t3 36v354q0 7 -4.5 11.5t-12.5 4.5h-197q-13 0 -17.5 -3.5t-4.5 -12.5v-354q0 -27 3 -36t16.5 -12t49.5 -3q6 0 10 -3t4 -7t-3 -6.5t-7 -2.5h-160
q-6 0 -9.5 2.5t-3.5 6.5q0 10 13 10q35 0 48 3t16 12t3 36v354q0 7 -4.5 11.5t-12.5 4.5h-67q-4 0 -6.5 2.5t-2.5 6.5t2.5 6.5t6.5 2.5h84q0 9 -9 36q-19 51 -19 87q0 57 34 94t89 37q27 0 55 -12t46.5 -32.5t18.5 -46.5q0 -20 -15 -20q-7 0 -11.5 5.5t-4.5 16.5
q0 33 -27 51t-62 18q-46 0 -74.5 -31.5t-28.5 -79.5q0 -22 5 -41.5t14 -47.5q9 -25 9 -34h236q0 6 -6 36q-4 19 -8 42.5t-4 44.5q0 58 37 94.5t99 36.5q58 0 92.5 -29z" />
    <glyph glyph-name="f_f_i" unicode="ffi" horiz-adv-x="774" 
d="M750 14q4 -3 4 -7t-3 -6.5t-7 -2.5l-80 1l-80 -1q-6 0 -9.5 2.5t-3.5 6.5q0 10 13 10q35 0 48 3t16 12t3 36v338q0 32 -40 32h-190q-13 0 -17.5 -3.5t-4.5 -12.5v-354q0 -27 3 -36t16.5 -12t49.5 -3q6 0 10 -3t4 -7t-3 -6.5t-7 -2.5h-160q-6 0 -9.5 2.5t-3.5 6.5
q0 10 13 10q35 0 48 3t16 12t3 36v354q0 7 -4.5 11.5t-12.5 4.5h-197q-13 0 -17.5 -3.5t-4.5 -12.5v-354q0 -27 3 -36t16.5 -12t49.5 -3q6 0 10 -3t4 -7t-3 -6.5t-7 -2.5h-160q-6 0 -9.5 2.5t-3.5 6.5q0 10 13 10q35 0 48 3t16 12t3 36v354q0 7 -4.5 11.5t-12.5 4.5h-67
q-4 0 -6.5 2.5t-2.5 6.5t2.5 6.5t6.5 2.5h84q0 9 -9 36q-19 51 -19 87q0 57 34 94t89 37q27 0 55 -12t46.5 -32.5t18.5 -46.5q0 -20 -15 -20q-7 0 -11.5 5.5t-4.5 16.5q0 33 -27 51t-62 18q-46 0 -74.5 -31.5t-28.5 -79.5q0 -22 5 -41.5t14 -47.5q9 -25 9 -34h236q0 6 -6 36
q-4 19 -8 42.5t-4 44.5q0 58 35.5 94.5t97.5 36.5q50 0 90 -28t40 -73q0 -20 -15 -20q-7 0 -11.5 5.5t-4.5 16.5q0 41 -28 60t-71 19q-53 0 -83 -31t-30 -80q0 -22 4 -46t8 -43q6 -28 6 -34h192q23 1 42.5 4t24.5 3q13 0 13 -18v-377q0 -27 3 -36t16.5 -12t49.5 -3
q6 0 10 -3z" />
    <glyph glyph-name="f_f_l" unicode="ffl" horiz-adv-x="799" 
d="M552.5 683q31.5 -27 31.5 -74q0 -20 -15 -20q-7 0 -11.5 5.5t-4.5 16.5q0 42 -19.5 60.5t-61.5 18.5q-50 0 -75.5 -30.5t-25.5 -80.5q0 -22 5 -41.5t14 -47.5q9 -25 9 -34h132q4 0 6.5 -2.5t2.5 -6.5t-2.5 -6.5t-6.5 -2.5h-110q-13 0 -17.5 -3.5t-4.5 -12.5v-354
q0 -27 3 -36t16.5 -12t49.5 -3q6 0 10 -3t4 -7t-3 -6.5t-7 -2.5h-160q-6 0 -9.5 2.5t-3.5 6.5q0 10 13 10q35 0 48 3t16 12t3 36v354q0 7 -4.5 11.5t-12.5 4.5h-197q-13 0 -17.5 -3.5t-4.5 -12.5v-354q0 -27 3 -36t16.5 -12t49.5 -3q6 0 10 -3t4 -7t-3 -6.5t-7 -2.5h-160
q-6 0 -9.5 2.5t-3.5 6.5q0 10 13 10q35 0 48 3t16 12t3 36v354q0 7 -4.5 11.5t-12.5 4.5h-67q-4 0 -6.5 2.5t-2.5 6.5t2.5 6.5t6.5 2.5h84q0 9 -9 36q-19 51 -19 87q0 57 34 94t89 37q27 0 55 -12t46.5 -32.5t18.5 -46.5q0 -20 -15 -20q-7 0 -11.5 5.5t-4.5 16.5
q0 33 -27 51t-62 18q-46 0 -74.5 -31.5t-28.5 -79.5q0 -22 5 -41.5t14 -47.5q9 -25 9 -34h236q0 9 -9 36q-19 51 -19 87q0 59 30.5 95t90.5 36q49 0 80.5 -27zM775 14q4 -3 4 -7t-3 -6.5t-7 -2.5l-80 1l-80 -1q-6 0 -9.5 2.5t-3.5 6.5q0 10 13 10q35 0 48 3t16 12t3 36v581
q0 15 -2.5 21t-12.5 6q-7 0 -12 -1q-21 -6 -35 -6q-11 0 -11 6q0 9 15 13q23 5 42.5 11.5t22.5 6.5q13 0 13 -18v-620q0 -27 3 -36t16.5 -12t49.5 -3q6 0 10 -3z" />
    <glyph glyph-name="f_i" unicode="fi" horiz-adv-x="518" 
d="M494 14q4 -3 4 -7t-3 -6.5t-7 -2.5l-80 1l-80 -1q-6 0 -9.5 2.5t-3.5 6.5q0 10 13 10q35 0 48 3t16 12t3 36v338q0 32 -40 32h-190q-13 0 -17.5 -3.5t-4.5 -12.5v-354q0 -27 3 -36t16.5 -12t49.5 -3q6 0 10 -3t4 -7t-3 -6.5t-7 -2.5h-160q-6 0 -9.5 2.5t-3.5 6.5
q0 10 13 10q35 0 48 3t16 12t3 36v354q0 7 -4.5 11.5t-12.5 4.5h-67q-4 0 -6.5 2.5t-2.5 6.5t2.5 6.5t6.5 2.5h84q0 6 -6 36q-4 19 -8 42.5t-4 44.5q0 58 35.5 94.5t97.5 36.5q50 0 90 -28t40 -73q0 -20 -15 -20q-7 0 -11.5 5.5t-4.5 16.5q0 41 -28 60t-71 19q-53 0 -83 -31
t-30 -80q0 -22 4 -46t8 -43q6 -28 6 -34h192q23 1 42.5 4t24.5 3q13 0 13 -18v-377q0 -27 3 -36t16.5 -12t49.5 -3q6 0 10 -3z" />
    <glyph glyph-name="f_l" unicode="fl" horiz-adv-x="543" 
d="M56 -2q-6 0 -9.5 2.5t-3.5 6.5q0 10 13 10q35 0 48 3t16 12t3 36v354q0 7 -4.5 11.5t-12.5 4.5h-67q-4 0 -6.5 2.5t-2.5 6.5t2.5 6.5t6.5 2.5h84q0 9 -9 36q-19 51 -19 87q0 59 30.5 95t90.5 36q49 0 80.5 -27t31.5 -74q0 -20 -15 -20q-7 0 -11.5 5.5t-4.5 16.5
q0 43 -19.5 61t-61.5 18q-50 0 -75.5 -30.5t-25.5 -80.5q0 -22 5 -41.5t14 -47.5q9 -25 9 -34h132q4 0 6.5 -2.5t2.5 -6.5t-2.5 -6.5t-6.5 -2.5h-110q-13 0 -17.5 -3.5t-4.5 -12.5v-354q0 -27 3 -36t16.5 -12t49.5 -3q6 0 10 -3t4 -7t-3 -6.5t-7 -2.5h-160zM343.5 0.5
q-3.5 2.5 -3.5 6.5q0 10 13 10q35 0 48 3t16 12t3 36v581q0 15 -2.5 21t-12.5 6q-7 0 -12 -1q-21 -6 -35 -6q-11 0 -11 6q0 9 15 13q23 5 42.5 11.5t22.5 6.5q13 0 13 -18v-620q0 -27 3 -36t16.5 -12t49.5 -3q6 0 10 -3t4 -7t-3 -6.5t-7 -2.5l-80 1l-80 -1q-6 0 -9.5 2.5z
" />
    <glyph glyph-name=".notdef" horiz-adv-x="409" 
 />
    <glyph glyph-name=".null" 
 />
    <glyph glyph-name="nonmarkingreturn" horiz-adv-x="333" 
 />
    <glyph glyph-name="space" unicode=" " horiz-adv-x="280" 
 />
    <glyph glyph-name="exclam" unicode="!" horiz-adv-x="198" 
d="M89 150q0 178 -1.5 277.5t-8.5 226.5q-1 8 -1 25q0 16 4.5 25t16.5 9q16 0 20 -16.5t2 -43.5q-7 -134 -9.5 -239.5t-2.5 -263.5q0 -11 -10 -11t-10 11zM71 0q-11 11 -11 26q0 16 11 27.5t27 11.5t28 -11.5t12 -27.5t-11.5 -26.5t-28.5 -10.5q-16 0 -27 11z" />
    <glyph glyph-name="quotedbl" unicode="&#x22;" horiz-adv-x="224" 
d="M40 686q0 21 12 21q7 0 9.5 -4t2.5 -16q0 -93 -4 -204q0 -6 -8 -6t-8 6q-4 111 -4 203zM160 686q0 21 12 21q7 0 9.5 -4t2.5 -16q0 -93 -4 -204q0 -6 -8 -6t-8 6q-4 111 -4 203z" />
    <glyph glyph-name="numbersign" unicode="#" horiz-adv-x="691" 
d="M140 2q0 6 1 9l58 220v3q0 7 -8 7h-131q-20 0 -20 10t20 10h136q11 0 14 11l44 164l1 3q0 9 -10 9h-133q-20 0 -20 10t20 10h135q15 0 18 12l56 212q5 17 14 17q8 0 8 -9l-2 -13l-55 -209l-1 -3q0 -7 10 -7h172q10 0 12 9l57 215q5 17 14 17q8 0 8 -9l-2 -13l-55 -208
l-1 -4q0 -7 5 -7h128q8 0 13 -2.5t5 -7.5t-5 -7.5t-13 -2.5h-134q-7 0 -9 -8l-44 -166v-3q0 -10 10 -10h125q8 0 13 -2.5t5 -7.5t-5 -7.5t-13 -2.5h-128q-17 0 -20 -14l-58 -221q-4 -15 -14 -15q-6 0 -6 11q0 6 1 9l58 218v3q0 9 -9 9h-170q-8 0 -11 -2t-5 -8l-59 -225
q-4 -15 -14 -15q-6 0 -6 11zM408 261q14 0 17 14l45 164l1 3q0 3 -2.5 4.5t-4.5 1.5h-178q-6 0 -8 -2.5t-4 -8.5l-43 -164l-1 -4q0 -4 2.5 -6t5.5 -2h170z" />
    <glyph glyph-name="dollar" unicode="$" horiz-adv-x="530" 
d="M266 -10q-63 1 -117 27t-86 73t-32 108q0 14 5.5 21t14.5 7t16.5 -7.5t5.5 -22.5q-1 -8 -1 -22q0 -46 23 -83t67.5 -59t106.5 -22q93 0 149.5 47t56.5 125q0 70 -50 112t-165 73q-80 22 -125 48t-63.5 59t-18.5 78t24.5 80.5t72.5 56.5t116 21v90q0 6 10 6t10 -6v-92
q54 -7 98.5 -35.5t70 -74t25.5 -101.5q0 -26 -21 -26q-8 0 -14.5 7.5t-5.5 22.5l1 17q0 75 -49 123.5t-139 48.5q-49 0 -90 -17.5t-65 -49t-24 -72.5q0 -60 44 -99t142 -64q126 -32 181 -81t55 -122q0 -85 -57 -137.5t-152 -57.5v-116q0 -4 -3 -6t-7 -2t-7 2t-3 6v116z" />
    <glyph glyph-name="percent" unicode="%" horiz-adv-x="782" 
 />
    <glyph glyph-name="ampersand" unicode="&#x26;" horiz-adv-x="550" 
d="M136 17q-51 27 -79 75t-28 110q0 45 22 92t66 82.5t107 47.5q8 1 9 3.5t-5 4.5q-48 12 -83.5 48t-35.5 80q0 49 25.5 83t64 50.5t78.5 16.5q123 0 162 -85q3 -7 3 -14q0 -8 -3 -14t-7 -6q-7 0 -10.5 4.5t-7.5 15.5q-31 79 -137 79q-35 0 -69 -15t-56.5 -44.5t-22.5 -69.5
q0 -34 21 -60t51.5 -41t57.5 -18q15 -1 19 -3.5t4 -7.5q0 -7 -3.5 -9.5t-18.5 -5.5q-99 -18 -155 -77.5t-56 -136.5q0 -56 25.5 -99.5t72 -68t108.5 -24.5q106 0 164.5 66.5t58.5 190.5q0 33 -4.5 48t-16 20t-35.5 5q-59 0 -59 -44q0 -6 2 -18v-3q0 -8 -9 -8q-6 0 -8 6
q-4 11 -4 25q0 26 19.5 44.5t61.5 18.5q20 0 56 -4q9 -1 21.5 -2t29.5 -1q59 0 59 44q0 5 -2 17l-1 4q0 8 10 8q12 0 12 -32q-1 -26 -20 -44t-61 -18q-14 0 -26 -2.5t-10 -9.5q2 -8 3.5 -22t1.5 -30q0 -133 -64.5 -206t-179.5 -73q-67 0 -118 27z" />
    <glyph glyph-name="quotesingle" unicode="'" horiz-adv-x="194" 
d="M100 686q0 21 12 21q7 0 9.5 -4t2.5 -16q0 -93 -4 -204q0 -6 -8 -6t-8 6q-4 111 -4 203z" />
    <glyph glyph-name="parenleft" unicode="(" horiz-adv-x="287" 
d="M276.5 -158q-5.5 -2 -10.5 2q-106 77 -166 196.5t-60 253.5q0 133 60 252.5t166 196.5q2 2 7 2q9 0 9 -8q0 -6 -8 -12q-66 -46 -114.5 -118t-74 -153.5t-25.5 -159.5t25.5 -160t74 -153.5t114.5 -118.5q8 -6 8 -12t-5.5 -8z" />
    <glyph glyph-name="parenright" unicode=")" horiz-adv-x="287" 
d="M13 -138q66 47 114.5 118.5t74 153.5t25.5 160t-25.5 159.5t-74 153.5t-114.5 118q-8 6 -8 12t5.5 8t10.5 -2q106 -77 166 -196.5t60 -252.5q0 -134 -60 -253.5t-166 -196.5q-2 -2 -7 -2q-9 0 -9 8q0 6 8 12z" />
    <glyph glyph-name="asterisk" unicode="*" horiz-adv-x="348" 
d="M70 463.5q-1 4.5 3 8.5l46 44l35 34q4 4 4 7t-6 6q-29 13 -44 19q-10 4 -29.5 12.5t-32.5 15.5q-10 5 -4 16q2 3 6 5t8 0l61 -32q7 -4 15.5 -9t17.5 -9q6 -3 9 -3q7 0 7 6l-1 54q-2 40 -2 61q0 5 3 8t8 3q12 0 12 -11q0 -21 -2 -61q-2 -38 -2 -54q0 -7 5 -7q1 0 11 4
q66 36 94 50q2 1 5 1q8 0 9 -6q2 -4 2 -7q0 -6 -6 -9l-52 -23q-32 -13 -48 -21q-7 -3 -9.5 -7.5t1.5 -8.5l35 -34l46 -44q3 -3 3 -7q0 -5 -4 -8q-6 -3 -9 -4t-7 3l-37 41q-28 32 -38 42q-4 5 -9 5q-4 0 -9 -5l-36 -39q-12 -14 -39 -44q-3 -3 -6 -3q-4 0 -10 4q-3 2 -4 6.5z
" />
    <glyph glyph-name="plus" unicode="+" horiz-adv-x="415" 
d="M198 94v130q0 8 -8 8h-130q-20 0 -20 10t20 10h129q9 0 9 11v128q0 8 2.5 13t7.5 5t7.5 -5t2.5 -13v-127q0 -12 8 -12h131q8 0 13 -2.5t5 -7.5t-5 -7.5t-13 -2.5h-131q-8 0 -8 -8v-130q0 -20 -10 -20t-10 20z" />
    <glyph glyph-name="comma" unicode="," horiz-adv-x="163" 
d="M44 -83q-3 3 -3 7t5 7q3 1 16 7.5t23 17.5t10 25q0 12 -17 12t-27.5 11t-10.5 27q0 17 11 27t27 10q22 0 33.5 -15.5t11.5 -41.5q0 -33 -13.5 -55t-31 -32t-28.5 -10q-3 0 -6 3z" />
    <glyph glyph-name="hyphen" unicode="-" horiz-adv-x="335" 
d="M60 232q-20 0 -20 10t20 10h217q8 0 13 -2.5t5 -7.5t-5 -7.5t-13 -2.5h-217z" />
    <glyph glyph-name="period" unicode="." horiz-adv-x="201" 
d="M70.5 -0.5q-10.5 10.5 -10.5 24.5q0 18 12.5 31t30.5 13q16 0 27 -11t11 -27q0 -17 -13.5 -29t-31.5 -12q-15 0 -25.5 10.5z" />
    <glyph glyph-name="slash" unicode="/" horiz-adv-x="517" 
d="M67 -162q-8 -16 -20 -16q-7 0 -7 5q0 3 5 13l407 865q4 9 8 12.5t11 3.5q6 0 6 -6q0 -5 -4 -12z" />
    <glyph glyph-name="zero" unicode="0" horiz-adv-x="657" 
d="M473.5 28.5q66.5 39.5 105 106.5t38.5 146q0 80 -40 146t-106 104.5t-142 38.5q-81 0 -147.5 -40t-104 -107t-37.5 -144q0 -76 38.5 -143t104.5 -107t145 -40t145.5 39.5zM153 475q36 31 81.5 48.5t94.5 17.5q48 0 92.5 -18t78.5 -48h-347zM522 454q66 -79 66 -175
q0 -46 -15.5 -88.5t-43.5 -77.5h-346zM133 104q-31 36 -48 81t-17 94q2 97 58 167h346zM154 84h349q-37 -30 -81.5 -47.5t-92.5 -17.5q-95 0 -175 65z" />
    <glyph glyph-name="one" unicode="1" horiz-adv-x="657" 
d="M473.5 28.5q66.5 39.5 105 106.5t38.5 146q0 80 -40 146t-106 104.5t-142 38.5q-81 0 -147.5 -40t-104 -107t-37.5 -144q0 -76 38.5 -143t104.5 -107t145 -40t145.5 39.5zM153 475q36 31 81.5 48.5t94.5 17.5q48 0 92.5 -18t78.5 -48h-347zM522 454q66 -79 66 -175
q0 -46 -15.5 -88.5t-43.5 -77.5h-346zM133 104q-31 36 -48 81t-17 94q2 97 58 167h346zM154 84h349q-37 -30 -81.5 -47.5t-92.5 -17.5q-95 0 -175 65z" />
    <glyph glyph-name="two" unicode="2" horiz-adv-x="657" 
d="M473.5 28.5q66.5 39.5 105 106.5t38.5 146q0 80 -40 146t-106 104.5t-142 38.5q-81 0 -147.5 -40t-104 -107t-37.5 -144q0 -76 38.5 -143t104.5 -107t145 -40t145.5 39.5zM153 475q36 31 81.5 48.5t94.5 17.5q48 0 92.5 -18t78.5 -48h-347zM522 454q66 -79 66 -175
q0 -46 -15.5 -88.5t-43.5 -77.5h-346zM133 104q-31 36 -48 81t-17 94q2 97 58 167h346zM154 84h349q-37 -30 -81.5 -47.5t-92.5 -17.5q-95 0 -175 65z" />
    <glyph glyph-name="three" unicode="3" horiz-adv-x="657" 
d="M473.5 28.5q66.5 39.5 105 106.5t38.5 146q0 80 -40 146t-106 104.5t-142 38.5q-81 0 -147.5 -40t-104 -107t-37.5 -144q0 -76 38.5 -143t104.5 -107t145 -40t145.5 39.5zM153 475q36 31 81.5 48.5t94.5 17.5q48 0 92.5 -18t78.5 -48h-347zM522 454q66 -79 66 -175
q0 -46 -15.5 -88.5t-43.5 -77.5h-346zM133 104q-31 36 -48 81t-17 94q2 97 58 167h346zM154 84h349q-37 -30 -81.5 -47.5t-92.5 -17.5q-95 0 -175 65z" />
    <glyph glyph-name="four" unicode="4" horiz-adv-x="657" 
d="M473.5 28.5q66.5 39.5 105 106.5t38.5 146q0 80 -40 146t-106 104.5t-142 38.5q-81 0 -147.5 -40t-104 -107t-37.5 -144q0 -76 38.5 -143t104.5 -107t145 -40t145.5 39.5zM153 475q36 31 81.5 48.5t94.5 17.5q48 0 92.5 -18t78.5 -48h-347zM522 454q66 -79 66 -175
q0 -46 -15.5 -88.5t-43.5 -77.5h-346zM133 104q-31 36 -48 81t-17 94q2 97 58 167h346zM154 84h349q-37 -30 -81.5 -47.5t-92.5 -17.5q-95 0 -175 65z" />
    <glyph glyph-name="five" unicode="5" horiz-adv-x="657" 
d="M473.5 28.5q66.5 39.5 105 106.5t38.5 146q0 80 -40 146t-106 104.5t-142 38.5q-81 0 -147.5 -40t-104 -107t-37.5 -144q0 -76 38.5 -143t104.5 -107t145 -40t145.5 39.5zM153 475q36 31 81.5 48.5t94.5 17.5q48 0 92.5 -18t78.5 -48h-347zM522 454q66 -79 66 -175
q0 -46 -15.5 -88.5t-43.5 -77.5h-346zM133 104q-31 36 -48 81t-17 94q2 97 58 167h346zM154 84h349q-37 -30 -81.5 -47.5t-92.5 -17.5q-95 0 -175 65z" />
    <glyph glyph-name="six" unicode="6" horiz-adv-x="657" 
d="M473.5 28.5q66.5 39.5 105 106.5t38.5 146q0 80 -40 146t-106 104.5t-142 38.5q-81 0 -147.5 -40t-104 -107t-37.5 -144q0 -76 38.5 -143t104.5 -107t145 -40t145.5 39.5zM153 475q36 31 81.5 48.5t94.5 17.5q48 0 92.5 -18t78.5 -48h-347zM522 454q66 -79 66 -175
q0 -46 -15.5 -88.5t-43.5 -77.5h-346zM133 104q-31 36 -48 81t-17 94q2 97 58 167h346zM154 84h349q-37 -30 -81.5 -47.5t-92.5 -17.5q-95 0 -175 65z" />
    <glyph glyph-name="seven" unicode="7" horiz-adv-x="657" 
d="M473.5 28.5q66.5 39.5 105 106.5t38.5 146q0 80 -40 146t-106 104.5t-142 38.5q-81 0 -147.5 -40t-104 -107t-37.5 -144q0 -76 38.5 -143t104.5 -107t145 -40t145.5 39.5zM153 475q36 31 81.5 48.5t94.5 17.5q48 0 92.5 -18t78.5 -48h-347zM522 454q66 -79 66 -175
q0 -46 -15.5 -88.5t-43.5 -77.5h-346zM133 104q-31 36 -48 81t-17 94q2 97 58 167h346zM154 84h349q-37 -30 -81.5 -47.5t-92.5 -17.5q-95 0 -175 65z" />
    <glyph glyph-name="eight" unicode="8" horiz-adv-x="657" 
d="M473.5 28.5q66.5 39.5 105 106.5t38.5 146q0 80 -40 146t-106 104.5t-142 38.5q-81 0 -147.5 -40t-104 -107t-37.5 -144q0 -76 38.5 -143t104.5 -107t145 -40t145.5 39.5zM153 475q36 31 81.5 48.5t94.5 17.5q48 0 92.5 -18t78.5 -48h-347zM522 454q66 -79 66 -175
q0 -46 -15.5 -88.5t-43.5 -77.5h-346zM133 104q-31 36 -48 81t-17 94q2 97 58 167h346zM154 84h349q-37 -30 -81.5 -47.5t-92.5 -17.5q-95 0 -175 65z" />
    <glyph glyph-name="nine" unicode="9" horiz-adv-x="657" 
d="M473.5 28.5q66.5 39.5 105 106.5t38.5 146q0 80 -40 146t-106 104.5t-142 38.5q-81 0 -147.5 -40t-104 -107t-37.5 -144q0 -76 38.5 -143t104.5 -107t145 -40t145.5 39.5zM153 475q36 31 81.5 48.5t94.5 17.5q48 0 92.5 -18t78.5 -48h-347zM522 454q66 -79 66 -175
q0 -46 -15.5 -88.5t-43.5 -77.5h-346zM133 104q-31 36 -48 81t-17 94q2 97 58 167h346zM154 84h349q-37 -30 -81.5 -47.5t-92.5 -17.5q-95 0 -175 65z" />
    <glyph glyph-name="colon" unicode=":" horiz-adv-x="201" 
d="M70.5 1.5q-10.5 10.5 -10.5 24.5q0 18 12.5 31t30.5 13q16 0 27 -11t11 -27q0 -17 -13.5 -29t-31.5 -12q-15 0 -25.5 10.5zM70.5 397.5q-10.5 10.5 -10.5 24.5q0 18 12.5 31t30.5 13q16 0 27 -11t11 -27q0 -17 -13.5 -29t-31.5 -12q-15 0 -25.5 10.5z" />
    <glyph glyph-name="semicolon" unicode=";" horiz-adv-x="206" 
d="M70.5 396.5q-10.5 10.5 -10.5 24.5q0 18 12.5 31t30.5 13q16 0 27 -11t11 -27q0 -17 -13.5 -29t-31.5 -12q-15 0 -25.5 10.5zM67 -86q-3 3 -3 7t5 7q3 1 16 7.5t23 17.5t10 25q0 12 -17 12t-27.5 11t-10.5 27q0 17 11 27t27 10q22 0 33.5 -15.5t11.5 -41.5
q0 -33 -13.5 -55t-31 -32t-28.5 -10q-3 0 -6 3z" />
    <glyph glyph-name="less" unicode="&#x3c;" horiz-adv-x="459" 
d="M411 77q-8 0 -23 5q-63 21 -147 56t-143 63q-36 17 -47 27t-11 21t11.5 21t48.5 27q175 80 289 119q17 5 21 5q9 0 9 -8q0 -6 -4.5 -9t-18.5 -7q-43 -13 -156.5 -61t-154.5 -70l-10 -5t-7.5 -5.5t-1.5 -7.5q0 -7 18 -17q34 -18 152.5 -68.5t160.5 -62.5q14 -4 18 -6.5
t4 -9.5t-8 -7z" />
    <glyph glyph-name="equal" unicode="=" horiz-adv-x="424" 
d="M67 292q-27 0 -27 10t27 10h293q11 0 17.5 -2.5t6.5 -7.5t-6.5 -7.5t-17.5 -2.5h-293zM67 172q-27 0 -27 10t27 10h293q11 0 17.5 -2.5t6.5 -7.5t-6.5 -7.5t-17.5 -2.5h-293z" />
    <glyph glyph-name="greater" unicode="&#x3e;" horiz-adv-x="459" 
d="M44 93.5q4 2.5 18 6.5q42 12 160.5 62.5t152.5 68.5q18 10 18 17q0 6 -2 8.5t-7.5 5t-9.5 4.5q-41 22 -154.5 70t-156.5 61q-14 4 -18.5 7t-4.5 9q0 8 9 8q4 0 21 -5q114 -39 289 -119q37 -17 48.5 -27t11.5 -21t-11 -21t-47 -27q-59 -28 -143 -63t-147 -56
q-15 -5 -23 -5t-8 7t4 9.5z" />
    <glyph glyph-name="question" unicode="?" horiz-adv-x="502" 
d="M228 152q0 51 17 87.5t41 60t64 53.5q37 28 58.5 48.5t36 50.5t14.5 71q0 48 -23 86t-63.5 59.5t-91.5 21.5q-59 0 -106.5 -25.5t-74.5 -69.5t-27 -98q0 -25 -13 -25q-14 0 -14 27q0 58 31.5 106t85.5 76.5t118 28.5q57 0 102.5 -23.5t70.5 -66t25 -96.5
q0 -46 -15.5 -79.5t-38.5 -55.5t-61 -51q-39 -29 -61.5 -51t-38.5 -55t-16 -80q0 -13 -10 -13t-10 13zM214 0q-11 11 -11 26q0 16 11 27.5t27 11.5t28 -11.5t12 -27.5t-11.5 -26.5t-28.5 -10.5q-16 0 -27 11z" />
    <glyph glyph-name="at" unicode="@" horiz-adv-x="717" 
d="M456.5 -17.5q-15.5 15.5 -15.5 42.5q0 14 3 27l2 9q-54 -94 -139 -94q-47 0 -79 36t-32 95q0 60 23.5 114t65.5 87t94 33q41 0 70.5 -23t37.5 -68l18 82q2 9 12 9q11 0 9 -8l-62 -270q-4 -15 -4 -30q0 -20 11 -29.5t36 -9.5q43 0 78 34t54.5 88.5t19.5 113.5
q0 60 -31.5 111.5t-91.5 82.5t-142 31q-105 0 -181 -45.5t-115.5 -121.5t-39.5 -165q0 -78 35.5 -138.5t100 -94.5t148.5 -34q69 0 123 17t84 44q5 5 8.5 6t7.5 1q9 0 9 -5q0 -4 -7 -11q-43 -37 -99 -53.5t-130 -16.5q-89 0 -156.5 36t-104.5 101t-37 148q0 95 42 175
t122 127.5t190 47.5q87 0 151.5 -33t98 -88.5t33.5 -121.5q0 -65 -22.5 -123.5t-62 -94.5t-87.5 -36q-33 0 -48.5 15.5zM400 24.5q36 39.5 55.5 94.5t19.5 97q0 40 -26.5 68.5t-68.5 28.5q-47 0 -84.5 -30t-58.5 -79t-21 -102q0 -54 27.5 -85.5t72.5 -31.5q48 0 84 39.5z
" />
    <glyph glyph-name="A" unicode="A" horiz-adv-x="701" 
d="M17 -2q-12 0 -12 10q0 5 5 7.5t10 2.5q34 0 48 3.5t22 14.5t19 39l224 581q3 8 3 12q0 12 -25 12q-15 0 -15 10t15 10h27q8 0 12 -3.5t8 -13.5l234 -608q11 -28 19 -39t22 -14.5t48 -3.5q15 0 15 -10q0 -12 -15 -10q-19 1 -88 1q-70 0 -93 -1q-17 0 -17 10t17 10
q49 0 65 3.5t16 17.5q0 9 -10 36l-51 132q-6 14 -11.5 19t-22.5 5h-261q-23 0 -30.5 -4t-13.5 -21l-51 -131q-10 -27 -10 -36q0 -14 16 -17.5t63 -3.5q19 0 19 -9q0 -11 -19 -11q-21 1 -91 1q-68 0 -88 -1h-3zM482 251q15 0 15 9q0 8 -4 17l-138 358q-5 12 -9 0l-140 -363
q-2 -8 -2 -10q0 -7 5 -9t16 -2h257z" />
    <glyph glyph-name="B" unicode="B" horiz-adv-x="588" 
d="M35 9q0 10 17 10q41 0 55.5 2t19 10.5t4.5 31.5v573q0 24 -4.5 32.5t-19 10.5t-56.5 2q-9 0 -12.5 2.5t-3.5 7.5q0 6 3 8t13 2q39 -1 257 -1q87 0 139.5 -41t52.5 -109q0 -58 -27.5 -94.5t-62.5 -50.5q-7 -2 -7 -5q0 -1 7 -5q60 -15 104.5 -61t44.5 -124
q0 -59 -29 -106.5t-86.5 -75.5t-138.5 -28l-253 -1q-17 0 -17 10zM312 405q74 0 121 39t47 100q0 62 -47 99t-125 37h-116q-24 0 -32.5 -9t-8.5 -35v-190q0 -25 7.5 -33t33.5 -8h120zM302 20q66 0 120 22t85.5 64.5t31.5 102.5q0 85 -60.5 130.5t-164.5 45.5h-122
q-27 0 -34 -6t-7 -23v-269q0 -33 12 -50t39 -17h100z" />
    <glyph glyph-name="C" unicode="C" horiz-adv-x="617" 
d="M188.5 34q-68.5 44 -108.5 126.5t-40 192.5q0 96 36.5 178t103.5 130.5t156 48.5q51 0 95.5 -17.5t77.5 -48.5q18 -18 34 -42q15 -28 22 -51q7 -22 7 -52q0 -12 -6 -19.5t-16 -7.5t-16 7.5t-4 19.5q2 18 2 25q0 47 -25.5 85t-70.5 59.5t-100 21.5q-77 0 -140 -43
t-99.5 -120t-36.5 -173q0 -98 35 -176.5t98 -123t145 -44.5q97 0 157.5 48.5t71.5 130.5q1 6 4.5 9t7.5 3t6.5 -3t1.5 -9q-11 -86 -74.5 -142.5t-174.5 -56.5q-81 0 -149.5 44z" />
    <glyph glyph-name="D" unicode="D" horiz-adv-x="657" 
d="M115 -1h-63q-17 0 -17 10t17 10q42 0 57 3t18.5 13t3.5 39v552q0 30 -3.5 40t-18 12.5t-57.5 2.5q-17 0 -17 10t17 10h144q132 0 226.5 -43t144.5 -123.5t50 -191.5q0 -163 -93.5 -254t-268.5 -91q-104 0 -140 1zM509 103.5q88 85.5 88 236.5q0 167 -107.5 254t-293.5 87
q-28 0 -36.5 -7.5t-8.5 -33.5v-584q0 -25 22 -31.5t82 -6.5q166 0 254 85.5z" />
    <glyph glyph-name="E" unicode="E" horiz-adv-x="612" 
d="M580 206q0 -15 -22 -107q-11 -47 -18 -75t-10.5 -33.5t-8.5 -5.5q-6 0 -11 4.5t-11 7.5t-21 3q-208 0 -288.5 -0.5t-106.5 -0.5h-31q-17 0 -17 10t17 10q42 0 57 3t18.5 13t3.5 39v552q0 30 -3.5 40t-18 12.5t-57.5 2.5q-17 0 -17 10t17 10h29q18 0 84.5 -0.5t262.5 -0.5
q14 0 20 2.5t11 7.5t11 5q5 0 8.5 -6t11 -33.5t18.5 -74.5q22 -96 22 -108q0 -5 -1 -6t-5 -1q-9 0 -13 16q-21 88 -31.5 122t-21.5 45t-34 11h-227q-23 0 -32 -4t-11.5 -14.5t-2.5 -37.5v-208q0 -20 5 -29t21 -9h137q18 0 25.5 5t7.5 19q0 13 -10 58q-1 3 -1 9q0 10 9 10
q5 0 8 -5.5t10 -33.5t18 -76q21 -91 21 -105q0 -6 -1.5 -7.5t-4.5 -1.5q-6 0 -8 3t-4 10q-12 48 -18 65.5t-13.5 23.5t-24.5 6h-151q-18 0 -22 -7.5t-4 -29.5v-254q0 -24 2.5 -32.5t11.5 -11.5t33 -3h276q24 0 35 11t21 43.5t31 123.5q2 10 4.5 13t7.5 3q7 0 7 -8z" />
    <glyph glyph-name="F" unicode="F" horiz-adv-x="562" 
d="M35 9q0 10 17 10q42 0 57 3t18.5 13t3.5 39v552q0 30 -3.5 40t-18 12.5t-57.5 2.5q-17 0 -17 10t17 10h25q17 0 82 -0.5t267 -0.5q14 0 20.5 2.5t12 7.5t11.5 5q7 0 11 -6t11 -34t17 -76q9 -43 14.5 -70t5.5 -35q0 -5 -1.5 -6.5t-5.5 -1.5q-8 0 -13 22q-20 87 -30.5 120
t-21 42.5t-33.5 9.5h-227q-24 0 -33 -3.5t-11 -14t-2 -37.5v-219q0 -20 5 -29t21 -9h137q19 0 26.5 5t7.5 18q0 17 -11 59q-1 3 -1 9q0 10 9 10q5 0 8 -6t10 -34t18 -75q20 -85 20 -105q0 -9 -5 -9q-6 0 -8 3t-4 10q-12 48 -18 65.5t-13.5 23.5t-24.5 6h-151q-18 0 -22 -7.5
t-4 -29.5v-237q0 -30 5 -40t23.5 -12.5t74.5 -2.5q22 0 22 -10t-22 -10h-202q-17 0 -17 10z" />
    <glyph glyph-name="G" unicode="G" horiz-adv-x="667" 
d="M188.5 39q-70.5 49 -109.5 133t-39 185q0 103 42 183.5t112 125t152 44.5q54 0 101 -20t80 -54q20 -24 25 -33q16 -25 23 -51q7 -30 7 -53q0 -12 -6 -19.5t-16 -7.5q-11 0 -16.5 7t-3.5 19q2 18 2 26q0 47 -25.5 85t-70.5 59.5t-100 21.5q-82 0 -147 -44.5t-102 -120.5
t-37 -167q0 -102 39 -181.5t105.5 -123t146.5 -43.5q71 0 118 18t69 47t22 62v64q0 56 -4 76t-17.5 25t-51.5 5h-29q-6 0 -10 3t-4 8q0 4 3.5 6.5t10.5 2.5l36 -1l75 -1q19 0 75 2q13 0 13 -9q0 -11 -13 -11h-32.5t-27.5 -22t-4 -84v-68q0 -48 -35 -82q-16 -16 -33 -25
q-61 -36 -161 -36q-92 0 -162.5 49z" />
    <glyph glyph-name="H" unicode="H" horiz-adv-x="750" 
d="M35 9q0 10 17 10q42 0 57 3t18.5 13t3.5 39v552q0 30 -3.5 40t-18 12.5t-57.5 2.5q-17 0 -17 10t17 10h178q17 0 17 -10t-17 -10q-42 0 -57 -3t-18.5 -13t-3.5 -39v-218q0 -23 5 -29t26 -6h386q21 0 26 6t5 29v218q0 30 -3.5 40t-18 12.5t-57.5 2.5q-17 0 -17 10t17 10
h178q17 0 17 -10t-17 -10q-42 0 -57 -3t-18.5 -13t-3.5 -39v-552q0 -30 3.5 -40t18 -12.5t57.5 -2.5q17 0 17 -10t-17 -10h-178q-17 0 -17 10t17 10q42 0 57 3t18.5 13t3.5 39v244q0 23 -5 29t-26 6h-386q-21 0 -26 -6t-5 -29v-244q0 -30 3.5 -40t18 -12.5t57.5 -2.5
q17 0 17 -10t-17 -10h-178q-17 0 -17 10z" />
    <glyph glyph-name="I" unicode="I" horiz-adv-x="282" 
d="M52 -1q-17 0 -17 10t17 10q42 0 57 3t18.5 13t3.5 39v552q0 30 -3.5 40t-18 12.5t-57.5 2.5q-17 0 -17 10t17 10l80 -1h18l80 1q17 0 17 -10t-17 -10q-42 0 -57 -3t-18.5 -13t-3.5 -39v-552q0 -30 3.5 -40t18 -12.5t57.5 -2.5q17 0 17 -10t-17 -10l-80 1h-18z" />
    <glyph glyph-name="J" unicode="J" horiz-adv-x="474" 
d="M85 40.5q-45 50.5 -45 133.5q0 11 6 18t16 7t15 -7t4 -18q-2 -20 -2 -29q0 -63 32.5 -99t93.5 -36q160 0 160 225v257v134q0 30 -4.5 40t-21.5 12.5t-69 2.5q-20 0 -20 10t20 10h178q14 0 14 -10t-14 -10q-34 0 -45.5 -3t-14.5 -13t-3 -39v-388q0 -118 -42 -183t-138 -65
q-75 0 -120 50.5z" />
    <glyph glyph-name="K" unicode="K" horiz-adv-x="691" 
d="M35 9q0 10 17 10q42 0 57 3t18.5 13t3.5 39v552q0 30 -3.5 40t-18 12.5t-57.5 2.5q-17 0 -17 10t17 10h178q17 0 17 -10t-17 -10q-42 0 -57 -3t-18.5 -13t-3.5 -39v-283q0 -10 6 -10t16 10l330 311q11 11 11 16q0 8 -21 10.5t-71 1.5q-15 0 -15 11q0 10 16 10h217
q17 0 17 -10q0 -11 -13 -11q-37 0 -53.5 -1.5t-33 -9t-35.5 -26.5l-189 -178q-12 -12 -12 -26q0 -10 6 -19l236 -350q18 -26 28 -36t25 -14t46 -4q19 0 19 -10q0 -6 -4 -7.5t-15 -1.5h-174q-12 0 -12 10q0 9 24 9q34 0 47.5 3t13.5 11q0 9 -18 35l-233 344q-7 11 -16 11
q-8 0 -26 -16l-101 -95q-9 -8 -12.5 -19.5t-3.5 -31.5v-186q0 -30 3.5 -40t18 -12.5t57.5 -2.5q17 0 17 -10t-17 -10h-178q-17 0 -17 10z" />
    <glyph glyph-name="L" unicode="L" horiz-adv-x="562" 
d="M470 -10.5q-5 4.5 -11 7.5t-21 3h-306l-80 -1q-17 0 -17 10t17 10q42 0 57 3t18.5 13t3.5 39v552q0 30 -3.5 40t-18 12.5t-57.5 2.5q-17 0 -17 10t17 10h194q20 0 20 -10t-20 -10q-51 0 -68.5 -3t-22 -13t-4.5 -39v-547q0 -27 4 -39.5t13 -16t30 -3.5h237q21 0 32.5 11
t22.5 46t31 121q4 16 13 16q7 0 7 -8q0 -13 -18 -85q-1 -7 -5 -23q-11 -46 -18 -73.5t-10.5 -33.5t-8.5 -6q-6 0 -11 4.5z" />
    <glyph glyph-name="M" unicode="M" horiz-adv-x="858" 
d="M15 10q0 10 17 10q47 0 62 2.5t21.5 16.5t8.5 51l19 527q1 32 -4.5 44.5t-22 16t-61.5 4.5q-15 0 -15 10q0 6 3.5 8t11.5 2q30 0 50 -1l60 -1q12 0 12 -10l-1 -12q0 -4 2 -10l251 -636q2 -6 6 -6t6 6l239 636q2 6 2 10l-1 12q0 10 12 10q35 0 54 0.5t30 0.5q10 1 26 1
q15 0 15 -10t-15 -10q-46 -1 -62 -4.5t-21.5 -16t-4.5 -45.5l18 -534q1 -32 7 -44t21.5 -15t56.5 -3q13 0 19 -1.5t6 -7.5q0 -10 -20 -11q-131 0 -196 -2q-17 0 -17 10t17 10q44 0 60.5 3.5t21.5 17.5t4 52l-17 535q0 8 -5 8q-3 0 -9 -17l-222 -591q-9 -25 -24 -25
q-8 0 -15 7.5t-11 17.5l-233 591q-1 3 -4 10t-5 7q-5 0 -5 -8l-19 -545q-1 -33 4.5 -45t20.5 -14.5t63 -3.5q17 0 17 -10q0 -6 -4.5 -8t-15.5 -2q-68 2 -119 2l-78 -1q-17 0 -17 11z" />
    <glyph glyph-name="N" unicode="N" horiz-adv-x="733" 
d="M134 -2q-27 1 -85 1q-14 0 -14 10t14 10q43 -1 58.5 3t20 18.5t4.5 54.5v513q0 40 -3.5 53.5t-18.5 17.5t-57 4q-17 0 -17 10q0 5 3.5 6.5t13.5 1.5h87q10 0 15 -1.5t8 -6.5l419 -646q4 -7 8 -7t4 11v556q0 40 -3.5 53.5t-18 17t-57.5 3.5q-17 0 -17 12q0 5 3.5 6.5
t13.5 1.5h182q14 0 14 -10t-14 -10q-43 1 -58.5 -3t-20 -18.5t-4.5 -54.5v-595q0 -12 -12 -12q-13 0 -23 16l-420 648q-1 3 -4 3t-3 -4v-568q0 -40 3.5 -54t18.5 -18t57 -4q17 0 17 -10t-17 -10z" />
    <glyph glyph-name="O" unicode="O" horiz-adv-x="692" 
d="M192 35q-70 45 -111 127.5t-41 189.5q0 99 38 180.5t108 129.5t160 48q84 0 154 -45t111 -126.5t41 -186.5q0 -100 -38 -182.5t-108 -131t-160 -48.5q-84 0 -154 45zM490 52.5q65 42.5 103.5 120.5t38.5 179q0 93 -35.5 170.5t-101 122.5t-149.5 45q-79 0 -144 -42.5
t-103.5 -119.5t-38.5 -176q0 -94 35.5 -172t101 -124t149.5 -46q79 0 144 42.5z" />
    <glyph glyph-name="P" unicode="P" horiz-adv-x="559" 
d="M35 9q0 10 17 10q42 0 57 3t18.5 13t3.5 39v534q0 39 -3.5 52t-18.5 17t-57 4q-17 0 -17 10t17 10l215 1q130 0 201 -55.5t71 -158.5q0 -98 -64 -150.5t-194 -52.5h-89q-26 0 -33.5 -8t-7.5 -33v-152q0 -40 4.5 -53t21.5 -16.5t69 -3.5q20 0 20 -10t-20 -10h-194
q-17 0 -17 10zM295 305q110 0 167 48t57 130q0 98 -66.5 148.5t-194.5 50.5h-56q-28 0 -39.5 -13t-11.5 -44v-281q0 -20 8 -29.5t33 -9.5h103z" />
    <glyph glyph-name="Q" unicode="Q" horiz-adv-x="692" 
d="M829 -76q-11 -11 -41.5 -19t-79.5 -8q-39 0 -83.5 12.5t-107.5 35.5q-64 23 -101 33.5t-69 10.5q-3 0 -5 1q-83 1 -152 46.5t-109.5 127.5t-40.5 188q0 99 38 180.5t108 129.5t160 48q84 0 154 -45t111 -126.5t41 -186.5q0 -85 -28.5 -159t-81.5 -125t-123 -69
q27 -7 102 -34q71 -25 112 -36.5t75 -11.5q26 0 45 6.5t43 18.5q18 10 26 10t12 -7q6 -10 -5 -21zM95.5 180q35.5 -78 101 -124t149.5 -46q79 0 144 42.5t103.5 120.5t38.5 179q0 93 -35.5 170.5t-101 122.5t-149.5 45q-79 0 -144 -42.5t-103.5 -119.5t-38.5 -176
q0 -94 35.5 -172z" />
    <glyph glyph-name="R" unicode="R" horiz-adv-x="660" 
d="M35 9q0 10 17 10q42 0 57 3t18.5 13t3.5 39v534q0 39 -3.5 52t-18.5 17t-57 4q-17 0 -17 10t17 10l245 1q123 0 182.5 -47t59.5 -147q0 -152 -170 -185q-5 -2 -5.5 -4.5t4.5 -3.5q48 -23 72.5 -68t46.5 -121q16 -57 33.5 -84.5t52.5 -27.5q25 0 36 9t20 25q8 15 15 15
t7 -9q0 -11 -9.5 -25.5t-27.5 -25t-42 -10.5q-45 0 -66.5 31.5t-37.5 95.5q-16 61 -36 102.5t-56.5 67t-94.5 25.5h-89q-26 0 -33.5 -8t-7.5 -33v-182q0 -40 3.5 -53t18 -16.5t57.5 -3.5q17 0 17 -11q0 -5 -4 -7t-13 -2h-178q-17 0 -17 10zM295 335q114 0 169 47.5t55 120.5
q0 95 -55.5 137t-175.5 42h-86q-28 0 -39.5 -13t-11.5 -44v-251q0 -20 8 -29.5t33 -9.5h103z" />
    <glyph glyph-name="S" unicode="S" horiz-adv-x="530" 
d="M138 22.5q-60 32.5 -87 88.5q-12 26 -16 48q-4 16 -4 39q0 14 5.5 21t14.5 7t16.5 -7.5t5.5 -22.5q-1 -8 -1 -22q0 -46 23 -83t67.5 -59t106.5 -22q93 0 149.5 47t56.5 125q0 70 -50 112t-165 73q-80 22 -125 48t-63.5 59t-18.5 78q0 44 24.5 80t70 57t104.5 21
q69 0 124.5 -32t82.5 -88q8 -18 15 -43q6 -24 6 -50t-21 -26q-8 0 -14.5 7.5t-5.5 22.5l1 17q0 75 -49 123.5t-139 48.5q-49 0 -90 -17.5t-65 -49t-24 -72.5q0 -60 44 -99t142 -64q126 -32 181 -81t55 -122q0 -58 -28 -102.5t-79 -68.5t-118 -24q-72 0 -132 32.5z" />
    <glyph glyph-name="T" unicode="T" horiz-adv-x="599" 
d="M164 9q0 10 22 10q55 0 74 3t24 13t5 39v540q0 29 -2 41t-12 18.5t-32 6.5h-98q-28 0 -41 -10.5t-23 -42t-31 -120.5q-3 -11 -5 -15.5t-8 -4.5q-7 0 -7 9t6 37t16 70q10 43 17.5 70.5t11.5 35t10 7.5q5 0 11 -5t13.5 -8t24.5 -3h318q17 0 24.5 3t13.5 8t11 5q6 0 9.5 -6
t11 -33.5t18.5 -73.5q4 -16 5 -23q18 -72 18 -85q0 -5 -1.5 -6.5t-6.5 -1.5q-6 0 -8 4.5t-5 15.5q-21 89 -31 120.5t-22.5 42t-39.5 10.5h-100q-22 0 -32 -6.5t-12 -18.5t-2 -41v-532q0 -34 5 -45.5t23.5 -14.5t74.5 -3q22 0 22 -10t-22 -10h-226q-22 0 -22 10z" />
    <glyph glyph-name="U" unicode="U" horiz-adv-x="712" 
d="M168 47q-62 57 -62 170v391q0 38 -4.5 52t-19 17.5t-53.5 3.5q-17 0 -17 10t17 10l178 -1q17 0 17 -10t-17 -10q-43 0 -58 -2.5t-19 -12.5t-4 -39v-404q0 -108 57.5 -160t171.5 -52q108 0 168 52.5t60 151.5v375q0 49 -4 65.5t-18.5 21t-57.5 4.5q-16 0 -16 10t16 10h90
q55 0 92 1q7 0 11 -3t4 -7t-4 -7t-11 -3q-42 0 -57.5 -4.5t-20 -22t-4.5 -65.5v-367q0 -115 -66 -173.5t-188 -58.5q-119 0 -181 57z" />
    <glyph glyph-name="V" unicode="V" horiz-adv-x="695" 
d="M346 -2q-7 0 -11.5 5t-9.5 17l-226 607q-14 38 -26 46t-29 7.5t-25 -0.5q-14 0 -14 10t14 10h84q51 0 87 1q13 0 13 -10t-14 -10h-44q-20 0 -27.5 -2.5t-7.5 -11.5t8 -33l225 -607q2 -6 4 -5.5t4 5.5l229 616q6 17 6 24q0 9 -8 12t-27 3l-51 -1q-13 0 -13 11q0 10 12 10
l38 -1q25 -1 64 -1q44 0 75 2q14 0 14 -10q0 -11 -14 -11l-25 1q-21 0 -31.5 -8t-19.5 -35l-231 -619q-8 -22 -22 -22h-1z" />
    <glyph glyph-name="W" unicode="W" horiz-adv-x="1002" 
d="M301 -2q-7 0 -12 4.5t-9 17.5l-178 595q-10 33 -18 45.5t-21.5 16.5t-45.5 4q-5 0 -8.5 3t-3.5 7t3.5 7t8.5 3q44 -1 90 -1q44 0 84 1q12 0 12 -11q0 -4 -3.5 -6.5t-9.5 -2.5q-47 0 -62 -4t-15 -19q0 -11 8 -37l177 -594q2 -5 4.5 -5t3.5 5l175 528q5 14 5 35q0 23 -6 42
q-7 24 -16 33.5t-25 11.5t-54 2q-13 0 -13 10q0 11 13 11h197q5 0 9 -2t4 -6q0 -5 -4.5 -8.5t-9.5 -3.5q-57 0 -73 -2t-16 -12q0 -4 3 -14t5 -16l173 -609q1 -3 4.5 -3.5t4.5 3.5l197 613q5 15 5 21q0 13 -19 16.5t-79 3.5q-12 0 -12 10t11 10q48 -1 105 -1q54 0 93 1
q14 0 14 -10t-14 -10q-38 1 -51 -1t-19 -10t-14 -34l-198 -616q-7 -22 -24 -22h-1q-15 0 -22 22l-148 520q-4 12 -9 0l-173 -520q-7 -22 -22 -22h-1z" />
    <glyph glyph-name="X" unicode="X" horiz-adv-x="705" 
d="M18 2q-3 3 -3 7t3 7t8 3q33 0 46.5 2.5t22.5 10.5t26 31l212 295q5 7 5 16q0 6 -3 10l-181 260q-14 19 -22.5 26t-22.5 9.5t-45 2.5q-11 0 -11 10t11 10q48 -3 84 -3q41 0 93 3q5 0 8.5 -3t3.5 -7t-3.5 -7t-8.5 -3q-47 0 -63 -2t-16 -9q0 -3 9 -16l174 -250q8 -11 15 -11
t13 8l173 248q10 15 10 20q0 8 -18 10t-72 2q-4 0 -7 3t-3 7t3 7t7 3q62 -3 96 -3q40 0 95 3q10 0 10 -10t-10 -10q-32 0 -46 -2.5t-23.5 -11t-25.5 -30.5l-181 -258q-4 -5 -4 -14q0 -6 3 -11l181 -261q28 -40 40.5 -54t27.5 -17.5t51 -3.5q10 0 10 -10t-10 -10q-56 2 -80 2
l-72 -1q-7 -1 -21 -1q-10 0 -10 10q0 9 11 9q38 0 51.5 2.5t13.5 10.5q0 11 -28 51l-177 255q-5 8 -14 8q-6 0 -11 -6l-206 -288q-11 -14 -11 -21t17 -9.5t64 -2.5q5 0 8.5 -2.5t3.5 -6.5q0 -11 -12 -11q-26 0 -62 2l-57 1q-16 0 -62 -2q-5 0 -8 3z" />
    <glyph glyph-name="Y" unicode="Y" horiz-adv-x="660" 
d="M227 9q0 10 17 10q42 0 57 3t18.5 13t3.5 39v194q0 12 -12 32l-204 342q-13 21 -22 29t-21.5 9.5t-44.5 0.5q-14 0 -14 10q0 11 14 11l125 -1q41 0 59 1q13 0 13 -10t-13 -10q-49 1 -67 -1.5t-18 -12.5q0 -6 8 -19l202 -339q2 -4 5 -3.5t5 4.5l203 342q5 8 5 13
q0 8 -14 11.5t-47 3.5l-39 -1q-12 0 -12 11q0 4 3.5 7t8.5 3h73h123q13 0 13 -10q0 -11 -13 -11q-31 1 -45 -1.5t-20.5 -9t-17.5 -25.5l-204 -344q-12 -21 -12 -31v-177q0 -40 3.5 -53t18 -16.5t57.5 -3.5q17 0 17 -10t-17 -10h-178q-17 0 -17 10z" />
    <glyph glyph-name="Z" unicode="Z" horiz-adv-x="574" 
d="M470.5 -7.5q-18.5 7.5 -45.5 7.5h-380q-6 0 -10.5 4t-4.5 10t7 15l468 644q3 3 1.5 5t-4.5 2h-332q-23 0 -34.5 -11t-22 -44.5t-31.5 -121.5q-2 -10 -4.5 -13.5t-7.5 -3.5q-4 0 -6 1.5t-2 7.5q0 11 23 107q19 76 24.5 94.5t12.5 18.5q4 0 18 -7.5t32 -7.5h356q5 0 9 -2.5
t4 -5.5q0 -4 -7 -15l-467 -642q-5 -7 -5 -10q0 -5 9 -5h376q20 0 31 10t23.5 47t33.5 125q3 13 12 13q5 0 5 -8q0 -14 -22 -109q-17 -73 -23.5 -93t-13.5 -20q-4 0 -22.5 7.5z" />
    <glyph glyph-name="bracketleft" unicode="[" horiz-adv-x="223" 
d="M72 -158q-20 0 -28.5 8t-8.5 24v828q0 16 8.5 24t28.5 8h133q6 0 9.5 -2.5t3.5 -6.5q0 -10 -13 -10h-128q-22 0 -22 -19v-816q0 -19 22 -19h128q13 0 13 -10q0 -4 -4 -6.5t-10 -2.5h-132z" />
    <glyph glyph-name="backslash" unicode="\" horiz-adv-x="517" 
d="M44 703q-4 7 -4 12q0 6 6 6q7 0 11 -3.5t8 -12.5l407 -865q5 -10 5 -13q0 -5 -7 -5q-12 0 -20 16z" />
    <glyph glyph-name="bracketright" unicode="]" horiz-adv-x="223" 
d="M19 -158q-6 0 -10 2.5t-4 6.5q0 10 13 10h128q22 0 22 19v816q0 19 -22 19h-128q-13 0 -13 10q0 4 3.5 6.5t9.5 2.5h133q21 0 29 -8t8 -24v-828q0 -16 -8 -24t-29 -8h-132z" />
    <glyph glyph-name="asciicircum" unicode="^" horiz-adv-x="358" 
d="M40 527q0 5 4 10q14 24 62 70t68 59q3 2 6 2q2 0 6 -2q17 -10 63.5 -57t64.5 -72q4 -7 3.5 -11.5t-5.5 -4.5q-10 0 -18 11q-16 20 -61.5 66.5t-52.5 46.5q-8 0 -55.5 -47.5t-60.5 -65.5q-8 -11 -17 -11q-7 0 -7 6z" />
    <glyph glyph-name="underscore" unicode="_" horiz-adv-x="475" 
d="M20 -136q-20 0 -20 10t20 10h437q8 0 13 -2.5t5 -7.5t-5 -7.5t-13 -2.5h-437z" />
    <glyph glyph-name="grave" unicode="`" horiz-adv-x="253" 
d="M159.5 550q-42.5 34 -81 70t-38.5 44q0 7 11 7q9 0 16 -7q33 -30 89.5 -84t56.5 -60q0 -4 -5 -4q-6 0 -48.5 34z" />
    <glyph glyph-name="a" unicode="a" horiz-adv-x="493" 
d="M90.5 24q-35.5 34 -35.5 93q0 60 48.5 97t148.5 37q47 0 69 2t28.5 7.5t4.5 16.5l-4 31q-9 68 -41 103.5t-85 35.5q-55 0 -88 -27t-33 -74q0 -12 1 -18v-3q0 -9 -6 -15t-15 -6t-14.5 6.5t-5.5 19.5q0 36 20.5 67t57 50t83.5 19q59 0 98 -38.5t47 -109.5l24 -208
q6 -56 17 -76t28 -20q12 0 18 7t11 19q3 6 6 10.5t7 4.5q8 0 8 -12q0 -15 -13.5 -32t-35.5 -17q-29 0 -42.5 21t-20.5 68q-2 7 -5 7q-2 0 -21 -27t-58.5 -50t-100.5 -23q-65 0 -100.5 34zM284.5 34q40.5 24 62.5 63.5t17 83.5l-3 28q-1 15 -9 18.5t-36 3.5h-55
q-96 0 -140.5 -29.5t-44.5 -78.5q0 -113 119 -113q49 0 89.5 24z" />
    <glyph glyph-name="b" unicode="b" horiz-adv-x="511" 
d="M191 10.5q-31 20.5 -47.5 41.5t-19.5 21q-7 0 -11 -34q-1 -4 -3.5 -15.5t-5 -17.5t-5.5 -6q-7 0 -8.5 4t-0.5 18q5 47 5 109v518q0 15 -2.5 21t-12.5 6q-7 0 -12 -1q-18 -4 -27 -7q-20 -5 -27 -5q-8 0 -9 6v2q0 11 15 13q17 3 35 8.5t25 7.5q17 6 22 6q13 0 13 -18v-323
q0 -11 3 -11q2 2 29.5 57t139.5 55q52 0 94 -28.5t66 -82.5t24 -127q0 -69 -24.5 -123t-69 -84.5t-100.5 -30.5q-55 0 -86 20.5zM366.5 37.5q39.5 27.5 61 77.5t21.5 113q0 67 -21 116t-58 75t-83 26q-83 0 -127.5 -58t-44.5 -145v-21q0 -105 43.5 -158t118.5 -53
q50 0 89.5 27.5z" />
    <glyph glyph-name="c" unicode="c" horiz-adv-x="466" 
d="M131.5 22.5q-45.5 32.5 -68.5 87t-23 119.5q0 69 26 123t72 84t105 30q42 0 80 -17.5t61.5 -49.5t23.5 -72q0 -11 -6 -17t-15 -6q-10 0 -16 7t-5 18q4 48 -27 83t-103 35q-46 0 -86.5 -27t-65 -76t-24.5 -112q0 -60 20.5 -111t61 -81t97.5 -30q103 0 166 93q4 6 6.5 8.5
t5.5 2.5q5 0 7.5 -5t-0.5 -10q-31 -52 -77 -80.5t-105 -28.5q-65 0 -110.5 32.5z" />
    <glyph glyph-name="d" unicode="d" horiz-adv-x="521" 
d="M128 19.5q-42 29.5 -65 83.5t-23 127q0 68 24 121.5t67.5 84t100.5 30.5t89 -21t47.5 -41.5t18.5 -20.5q6 0 7.5 16t1.5 62v188q0 15 -2.5 21t-12.5 6q-7 0 -12 -1q-18 -4 -27 -7q-20 -5 -27 -5q-8 0 -9 6v2q0 11 15 13q17 3 35 8.5t25 7.5q16 6 22 6q13 0 13 -18v-637
q0 -15 2.5 -21t12.5 -6q7 0 12 1q18 4 27 7q20 5 27 5q8 0 9 -6v-2q0 -11 -15 -13q-17 -3 -35 -8.5t-25 -7.5q-17 -6 -22 -6q-13 0 -13 18v85q-2 5 -3 5q-2 -2 -29.5 -57t-138.5 -55q-55 0 -97 29.5zM315 36.5q38 25.5 59.5 69.5t21.5 97v35q0 95 -41.5 151.5t-120.5 56.5
q-46 0 -85.5 -26t-63 -75t-23.5 -115q0 -105 45.5 -162t123.5 -57q46 0 84 25.5z" />
    <glyph glyph-name="e" unicode="e" horiz-adv-x="446" 
d="M130 23q-45 33 -67.5 89.5t-22.5 125.5q0 66 28 118t74 81t99 29q46 0 85 -20t62 -54.5t23 -75.5q0 -24 -12.5 -32.5t-38.5 -12.5l-289 -43q-10 -2 -10 -16q0 -48 20 -94.5t60 -77t95 -30.5q105 0 169 93q3 4 6 7.5t6 3.5q5 0 8 -4.5t-1 -10.5q-31 -51 -78.5 -80
t-105.5 -29q-65 0 -110 33zM358 291q19 3 26 8t7 17q0 33 -18 63t-53 49t-83 19q-40 0 -80.5 -24t-67 -66.5t-26.5 -93.5q0 -10 3 -12.5t10 -1.5z" />
    <glyph glyph-name="f" unicode="f" horiz-adv-x="300" 
d="M56 -2q-6 0 -9.5 2.5t-3.5 6.5q0 10 13 10q35 0 48 3t16 12t3 36v354q0 7 -4.5 11.5t-12.5 4.5h-67q-4 0 -6.5 2.5t-2.5 6.5t2.5 6.5t6.5 2.5h84q0 6 -6 36q-4 19 -8 42.5t-4 44.5q0 58 37 94.5t99 36.5q58 0 92.5 -29t34.5 -77q0 -12 -6 -18.5t-17 -6.5q-9 0 -14.5 7.5
t-4.5 19.5q4 39 -18.5 61.5t-66.5 22.5q-53 0 -84.5 -31t-31.5 -80q0 -22 4 -46t8 -43q6 -28 6 -34h132q4 0 6.5 -2.5t2.5 -6.5t-2.5 -6.5t-6.5 -2.5h-110q-13 0 -17.5 -3.5t-4.5 -12.5v-354q0 -27 3 -36t16.5 -12t49.5 -3q6 0 10 -3t4 -7t-3 -6.5t-7 -2.5h-160z" />
    <glyph glyph-name="g" unicode="g" horiz-adv-x="446" 
d="M376.5 48.5q35.5 -36.5 35.5 -89.5q0 -67 -55.5 -108t-147.5 -41q-97 0 -151 42q-44 34 -44 89q0 13 5.5 21.5t16.5 8.5q22 0 19 -27q-1 -5 -1 -15q0 -38 24 -62q40 -37 132 -37q81 0 131.5 36t50.5 93q0 59 -50.5 94.5t-132.5 35.5q-52 0 -96 23t-69.5 65.5t-25.5 99.5
q0 49 24.5 92.5t68 70t98.5 26.5q37 0 68 -12q4 -1 13 -1q28 0 43 17t13 54v2q0 9 6 15t14 6q9 0 15 -6t6 -17q0 -36 -23 -57.5t-54 -28.5q41 -25 65.5 -67t24.5 -94q0 -66 -32 -112.5t-89 -65.5q62 -14 97.5 -50.5zM60 190q22 -39 61 -61t89 -22q76 0 123 46t47 122
q0 45 -21.5 84.5t-61 63t-88.5 23.5q-46 0 -85 -22t-62.5 -60.5t-23.5 -85.5q0 -49 22 -88z" />
    <glyph glyph-name="h" unicode="h" horiz-adv-x="559" 
d="M33.5 0.5q-3.5 2.5 -3.5 6.5q0 10 13 10q35 0 48 3t16 12t3 36v581q0 15 -2.5 21t-12.5 6q-7 0 -12 -1q-18 -4 -27 -7q-20 -5 -27 -5q-8 0 -9 6v2q0 11 15 13q17 3 35 8.5t25 7.5q16 6 22 6q13 0 13 -18v-310q0 -8 0.5 -12.5t2.5 -4.5q2 2 23.5 53.5t132.5 51.5
q67 0 105.5 -41.5t46.5 -117.5l25 -221q4 -35 8.5 -47t17.5 -15.5t49 -3.5q18 0 18 -11q0 -10 -12 -10l-37 1q-19 1 -46 1q-26 0 -43 -1l-34 -1q-11 0 -15.5 2t-4.5 8q0 11 18 11q39 0 51 6.5t12 30.5q0 16 -3 40l-24 205q-9 71 -40 107.5t-96 36.5q-38 0 -73.5 -20
t-58.5 -63.5t-23 -108.5v-186q0 -27 3 -36t16.5 -12t49.5 -3q6 0 10 -3t4 -7t-3 -6.5t-7 -2.5q-26 1 -80 1q-53 0 -80 -1q-6 0 -9.5 2.5z" />
    <glyph glyph-name="i" unicode="i" horiz-adv-x="238" 
d="M38.5 0.5q-3.5 2.5 -3.5 6.5q0 10 13 10q35 0 48 3t16 12t3 36v338q0 15 -2.5 21t-12.5 6q-7 0 -12 -1q-18 -4 -27 -7q-20 -5 -27 -5q-8 0 -9 6v2q0 11 15 13q17 3 35 8.5t25 7.5q17 6 22 6q13 0 13 -18v-377q0 -27 3 -36t16.5 -12t49.5 -3q6 0 10 -3t4 -7t-3 -6.5
t-7 -2.5l-80 1l-80 -1q-6 0 -9.5 2.5zM76.5 577.5q-8.5 8.5 -8.5 22.5t8.5 22t22.5 8q13 0 21.5 -8t8.5 -22t-8 -22.5t-22 -8.5t-22.5 8.5z" />
    <glyph glyph-name="j" unicode="j" horiz-adv-x="207" 
d="M4 -174q-6 0 -9.5 3.5t-3.5 7.5q0 7 9 10q44 13 75.5 58.5t31.5 144.5v356q0 15 -2.5 21t-12.5 6q-7 0 -12 -1q-18 -4 -27 -7q-20 -5 -27 -5q-8 0 -9 6v2q0 11 15 13q17 3 35 8.5t25 7.5q16 6 22 6q13 0 13 -18v-395q0 -103 -34 -155.5t-84 -67.5q-2 -1 -5 -1z
M81.5 577.5q-8.5 8.5 -8.5 22.5t8.5 22t22.5 8q13 0 21.5 -8t8.5 -22t-8 -22.5t-22 -8.5t-22.5 8.5z" />
    <glyph glyph-name="k" unicode="k" horiz-adv-x="534" 
d="M33.5 0.5q-3.5 2.5 -3.5 6.5q0 10 13 10q35 0 48 3t16 12t3 36v581q0 15 -2.5 21t-12.5 6q-7 0 -12 -1q-18 -4 -27 -7q-20 -5 -27 -5q-8 0 -9 6v2q0 11 15 13q17 3 35 8.5t25 7.5q16 6 22 6q13 0 13 -18v-477q0 -4 2.5 -7.5t6.5 -3.5q5 0 12 7l200 201q15 15 15 21
q0 5 -10.5 6.5t-53.5 1.5q-11 0 -11 11q0 4 3 6.5t8 2.5q36 -1 86 -1t84 1q5 0 8 -2.5t3 -6.5t-2.5 -7t-6.5 -3q-44 0 -66 -11t-45 -35l-88 -89q-15 -15 -15 -27q0 -8 7 -17l141 -188q26 -35 43 -44t50 -9q23 0 23 -10t-11 -10q-35 1 -87 1t-89 -1q-11 0 -11 10q0 7 8 9
t28 3q21 1 30.5 3.5t9.5 11.5q0 8 -9 20l-139 188q-8 12 -20 12q-10 0 -18 -8l-73 -73q-9 -9 -11 -19t-2 -45v-42q0 -27 3 -36t16.5 -12t49.5 -3q6 0 10 -3t4 -7t-3 -6.5t-7 -2.5q-27 1 -82 1q-53 0 -78 -1q-6 0 -9.5 2.5z" />
    <glyph glyph-name="l" unicode="l" horiz-adv-x="233" 
d="M33.5 0.5q-3.5 2.5 -3.5 6.5q0 10 13 10q35 0 48 3t16 12t3 36v581q0 15 -2.5 21t-12.5 6q-7 0 -12 -1q-18 -4 -27 -7q-20 -5 -27 -5q-8 0 -9 6v2q0 11 15 13q17 3 35 8.5t25 7.5q16 6 22 6q13 0 13 -18v-620q0 -27 3 -36t16.5 -12t49.5 -3q6 0 10 -3t4 -7t-3 -6.5
t-7 -2.5l-80 1l-80 -1q-6 0 -9.5 2.5z" />
    <glyph glyph-name="m" unicode="m" horiz-adv-x="813" 
d="M38.5 0.5q-3.5 2.5 -3.5 6.5q0 10 13 10q35 0 48 3t16 12t3 36v337q0 15 -2.5 21t-12.5 6q-7 0 -12 -1q-18 -4 -27 -7q-20 -5 -27 -5q-8 0 -9 6v2q0 11 15 13q17 3 35 8.5t25 7.5q17 6 22 6q13 0 13 -18v-39q0 -24 0.5 -34t2.5 -10q2 2 23.5 53.5t122.5 51.5
q97 0 127 -100q2 -5 5 -5q2 0 15 28t45.5 52.5t86.5 24.5q53 0 88.5 -42t43.5 -117l25 -221q4 -35 8.5 -47t17.5 -15.5t49 -3.5q18 0 18 -11q0 -10 -12 -10l-37 1q-19 1 -46 1q-26 0 -43 -1l-34 -1q-11 0 -15.5 2t-4.5 8q0 11 18 11q29 0 41 1.5t17.5 8.5t5.5 23q0 6 -4 44
l-24 205q-18 144 -116 144q-34 0 -65 -18t-51 -56.5t-20 -97.5v-206q0 -27 3 -36t16.5 -12t49.5 -3q6 0 10 -3t4 -7t-3 -6.5t-7 -2.5q-27 1 -82 1q-53 0 -78 -1q-6 0 -9.5 2.5t-3.5 6.5q0 10 13 10q35 0 48 3t16 12t3 36v198q0 180 -123 180q-34 0 -67 -20.5t-55.5 -64
t-22.5 -109.5v-184q0 -27 3 -36t16.5 -12t49.5 -3q6 0 10 -3t4 -7t-3 -6.5t-7 -2.5q-27 1 -82 1q-53 0 -78 -1q-6 0 -9.5 2.5z" />
    <glyph glyph-name="n" unicode="n" horiz-adv-x="564" 
d="M35 7q0 10 13 10q35 0 48 3t16 12t3 36v338q0 15 -2.5 21t-12.5 6q-7 0 -12 -1q-18 -4 -27 -7q-20 -5 -27 -5q-8 0 -9 6v2q0 11 15 13q17 3 35 8.5t25 7.5q17 6 22 6q13 0 13 -18v-74q0 -5 0.5 -7.5t2.5 -2.5q2 2 23.5 53.5t132.5 51.5q135 0 155 -182l22 -197
q4 -35 8.5 -47t17.5 -16t49 -4q18 0 18 -11q0 -10 -12 -10l-37 1q-19 1 -46 1q-26 0 -43 -1l-34 -1q-11 0 -15.5 2t-4.5 8q0 11 18 11q29 0 41 1.5t17.5 8t5.5 22.5q0 6 -4 46l-22 181q-10 86 -41.5 126.5t-96.5 40.5q-38 0 -73.5 -20t-58.5 -63.5t-23 -108.5v-186
q0 -27 3 -36t16.5 -12t49.5 -3q6 0 10 -3t4 -7q0 -8 -10 -8l-80 1l-80 -1q-13 0 -13 8z" />
    <glyph glyph-name="o" unicode="o" horiz-adv-x="501" 
d="M142 20.5q-48 30.5 -75 84.5t-27 123t27 123t75 84.5t109 30.5t109 -30t74.5 -84.5t26.5 -123.5t-26.5 -123.5t-74.5 -84.5t-109 -30t-109 30.5zM349 38.5q43 27.5 66.5 76.5t23.5 113t-23.5 113t-66.5 76.5t-98 27.5t-98 -27.5t-67 -76.5t-24 -113t24 -113t67 -76.5
t98 -27.5t98 27.5z" />
    <glyph glyph-name="p" unicode="p" horiz-adv-x="526" 
d="M33.5 -179.5q-3.5 2.5 -3.5 6.5q0 10 13 10q35 0 48 3t16 12t3 36v517q0 15 -2.5 21t-12.5 6q-7 0 -12 -1q-18 -4 -27 -7q-20 -5 -27 -5q-8 0 -9 6v2q0 11 15 13q17 3 35 8.5t25 7.5q17 6 22 6q13 0 13 -18v-79q0 -11 3 -11q2 2 29.5 57t139.5 55q52 0 94 -28.5t66 -82.5
t24 -127q0 -69 -24.5 -123t-69 -84.5t-100.5 -30.5q-45 0 -77 16.5t-59 48.5q-2 2 -8.5 10t-9.5 8q-8 0 -8 -24v-161q0 -27 3 -36t16.5 -12t49.5 -3q6 0 10 -3t4 -7t-3 -6.5t-7 -2.5l-80 1l-80 -1q-6 0 -9.5 2.5zM381.5 37.5q39.5 27.5 61 77t21.5 113.5q0 67 -21 116
t-58 75t-83 26q-83 0 -127.5 -58t-44.5 -146v-20q0 -105 43.5 -158t118.5 -53q50 0 89.5 27.5z" />
    <glyph glyph-name="q" unicode="q" horiz-adv-x="504" 
d="M319.5 -179.5q-3.5 2.5 -3.5 6.5q0 10 13 10q35 0 48 3t16 12t3 36v203q0 6 -0.5 8.5t-2.5 2.5q-1 0 -30 -56t-138 -56q-55 0 -97 29.5t-65 84t-23 126.5q0 67 24.5 121t68 84.5t99.5 30.5t87.5 -20.5t48 -41.5t19.5 -21q5 0 11 34q4 22 8 34.5t10 12.5q8 0 6 -16
q-6 -52 -6 -123v-437q0 -27 3 -36t16.5 -12t49.5 -3q6 0 10 -3t4 -7t-3 -6.5t-7 -2.5l-80 1l-80 -1q-6 0 -9.5 2.5zM313.5 35.5q37.5 24.5 60 68.5t22.5 99v35q0 95 -41.5 151.5t-120.5 56.5q-46 0 -85.5 -26t-63 -75t-23.5 -115q0 -105 45.5 -162t124.5 -57q44 0 81.5 24.5
z" />
    <glyph glyph-name="r" unicode="r" horiz-adv-x="414" 
d="M38.5 0.5q-3.5 2.5 -3.5 6.5q0 10 13 10q35 0 48 3t16 12t3 36v337q0 15 -2.5 21t-12.5 6q-7 0 -12 -1q-18 -4 -27 -7q-20 -5 -27 -5q-8 0 -9 6v2q0 11 15 13q17 3 35 8.5t25 7.5q17 6 22 6q13 0 13 -18v-73q0 -10 3 -10q2 2 23 53.5t122 51.5q52 0 80 -30t28 -77
q0 -25 -5 -37.5t-23 -12.5q-5 0 -11 5t-6 14q0 7 3 14q9 18 9 41q0 27 -17.5 45t-60.5 18q-36 0 -69.5 -21.5t-54.5 -64.5t-21 -105v-187q0 -27 3 -36t16.5 -12t49.5 -3q6 0 10 -3t4 -7t-3 -6.5t-7 -2.5l-80 1l-80 -1q-6 0 -9.5 2.5z" />
    <glyph glyph-name="s" unicode="s" horiz-adv-x="439" 
d="M120 22q-24 16 -38 43q-16 29 -16 64q0 10 5.5 17t14.5 7q10 0 16 -7.5t4 -18.5q-2 -12 -2 -19q0 -41 30.5 -70t88.5 -29q70 0 109.5 30.5t39.5 80.5q0 46 -33 72.5t-111 43.5q-82 19 -112.5 48t-30.5 77q0 44 38.5 74.5t100.5 30.5q52 0 93 -26q24 -13 41 -37
q24 -34 24 -76q0 -9 -5.5 -16t-13.5 -7q-11 0 -17 7t-4 18q2 12 2 17q0 41 -31.5 71t-87.5 30q-50 0 -85 -24t-35 -62q0 -41 27.5 -66.5t98.5 -38.5q85 -15 123 -49t38 -85q0 -60 -46 -96t-122 -36q-61 0 -104 32z" />
    <glyph glyph-name="t" unicode="t" horiz-adv-x="348" 
d="M116.5 26.5q-30.5 35.5 -30.5 111.5v284q0 10 -5 13t-14 3h-35q-12 0 -12 9t12 9h15q19 0 27 17t12 55q3 24 6.5 33.5t8.5 9.5q9 0 9 -14v-84q0 -11 2.5 -14t12.5 -3h152q12 0 12 -9q0 -4 -3.5 -6.5t-10.5 -2.5h-150q-9 0 -14 -3t-5 -13v-280q0 -68 27 -99.5t75 -31.5
q29 0 58.5 19.5t49.5 57.5q6 10 11 10t8 -6t-1 -11q-28 -48 -60.5 -69t-72.5 -21q-54 0 -84.5 35.5z" />
    <glyph glyph-name="u" unicode="u" horiz-adv-x="530" 
d="M130.5 39.5q-40.5 48.5 -40.5 141.5v224q0 15 -2.5 21t-12.5 6q-7 0 -12 -1q-18 -4 -27 -7q-20 -5 -27 -5q-8 0 -9 6v2q0 11 15 13q17 3 35 8.5t25 7.5q16 6 22 6q13 0 13 -18v-258q0 -87 35.5 -131t104.5 -44q38 0 73.5 20t58.5 63.5t23 108.5v202q0 15 -2.5 21t-12.5 6
q-7 0 -12 -1q-18 -4 -27 -7q-20 -5 -27 -5q-8 0 -9 6v2q0 11 15 13q17 3 35 8.5t25 7.5q17 6 22 6q13 0 13 -18v-393q0 -15 2.5 -21t12.5 -6q7 0 12 1q18 4 27 7q20 5 27 5q8 0 9 -6v-2q0 -11 -15 -13q-17 -3 -35 -8.5t-25 -7.5q-16 -6 -22 -6q-13 0 -13 18v70q0 14 -3 14
q-1 0 -23 -52.5t-134 -52.5q-74 0 -114.5 48.5z" />
    <glyph glyph-name="v" unicode="v" horiz-adv-x="466" 
d="M232 -2q-6 0 -10 10q-11 32 -46 142q-19 61 -40.5 125t-42.5 117q-9 21 -15.5 30t-17.5 11.5t-35 2.5q-20 0 -20 11q0 10 15 10q39 -1 86 -1q48 0 87 1q14 0 14 -10q0 -11 -16 -11q-46 0 -63 -5.5t-17 -19.5q0 -9 6 -24q27 -71 77 -228q30 -96 40 -124q2 -6 5 -6t7 4
q159 166 159 302q0 42 -10.5 62t-39.5 30q-7 2 -11.5 9t-4.5 13q0 8 8 13q5 4 13 4q13 0 27 -11q10 -8 16 -18q12 -17 17.5 -45t5.5 -55q0 -80 -47.5 -161t-129.5 -168q-8 -10 -15 -10h-2z" />
    <glyph glyph-name="w" unicode="w" horiz-adv-x="720" 
d="M674 388.5q6 -28.5 6 -53.5q0 -49 -17 -94t-42 -84.5t-67 -95.5l-38 -53q-7 -10 -10 -10h-3q-4 0 -6 2t-4 8l-26 76q-16 46 -32.5 91.5t-34.5 87.5q-5 13 -9 0q-16 -60 -50 -121t-85 -134q-3 -6 -5.5 -8t-5.5 -2h-2q-4 0 -6 2t-4 8q-32 77 -59 152t-69 197l-12 35
q-7 21 -14 30t-18 11.5t-36 2.5q-20 0 -20 11q0 10 15 10l78 -1l78 1q14 0 14 -10q0 -11 -16 -11q-39 0 -53 -4t-14 -13q0 -6 4 -16.5t6 -15.5q71 -216 127 -352q1 -4 2.5 -3.5t3.5 3.5q65 95 100 166.5t35 144.5q0 36 -9.5 53t-35.5 27q-8 3 -12.5 9t-4.5 12t2 9
q6 10 17 10q7 0 15 -3q22 -9 35.5 -37.5t13.5 -66.5q0 -10 -4 -46q39 -98 102 -278q1 -4 2.5 -3.5t3.5 3.5q11 16 35 48q39 54 61.5 89t37.5 76t15 85q0 41 -12 63t-38 31q-7 2 -11.5 8t-4.5 13q0 9 7 14q4 4 12 4h3q13 0 26 -11q7 -5 16 -19q11 -19 17 -47.5z" />
    <glyph glyph-name="x" unicode="x" horiz-adv-x="512" 
d="M20 9q0 10 14 10q25 -1 36 1t21.5 12.5t30.5 37.5l118 163q5 8 5 14t-3 10l-104 144q-3 4 -12.5 17.5t-21.5 16.5t-38 3q-15 0 -15 10q0 12 15 10q28 -2 60 -2q39 0 79 2q12 0 12 -11q0 -9 -12 -9q-32 0 -44.5 -2.5t-12.5 -9.5q0 -6 13 -24l99 -136q2 -4 5.5 -4t6.5 4
l104 146q5 7 5 11q0 14 -61 14q-11 0 -11 11q0 10 10 10q60 -2 95 -2q44 0 60 2h2q4 0 6.5 -3t2.5 -7t-3 -7t-8 -3q-28 0 -45 -4.5t-27 -18.5l-115 -163q-3 -4 -3 -11q0 -6 3 -11l119 -164q18 -25 27 -33.5t18 -11t30 -2.5q5 0 8 -3t3 -7q0 -10 -11 -10l-71 1l-74 -1
q-9 0 -9 11q0 10 9 10q35 0 49 3.5t14 11.5q0 5 -7 15l-122 169q-5 5 -8 5q-5 0 -8 -5l-125 -171q-8 -11 -8 -18q0 -8 12 -9.5t48 -1.5q15 0 15 -10t-15 -10l-64 1l-83 -1q-14 0 -14 10z" />
    <glyph glyph-name="y" unicode="y" horiz-adv-x="466" 
d="M-6 -170.5q-20 16.5 -20 44.5q0 12 6.5 19.5t16.5 7.5q9 0 14.5 -7t4.5 -19q-2 -22 7.5 -32t26.5 -10q54 0 173 146q5 7 2 18q-9 26 -38 120q-22 70 -46.5 144t-47.5 131q-9 21 -15.5 30t-17.5 11.5t-35 2.5q-20 0 -20 11q0 10 15 10q39 -1 86 -1q48 0 87 1q14 0 14 -10
q0 -11 -16 -11q-46 0 -63.5 -5.5t-17.5 -18.5q0 -7 7 -25q20 -50 42 -115.5t41 -128.5q24 -82 40 -127q2 -5 5 -5t5 3q50 73 81 121.5t53 102t22 99.5q0 41 -12.5 61.5t-38.5 28.5q-7 2 -11.5 8t-4.5 13q0 9 6 13q5 5 13 5q14 0 28 -11q11 -9 17 -19q23 -35 23 -97
q0 -51 -21.5 -104t-68.5 -129q-37 -61 -83 -121q-58 -75 -112.5 -123.5t-93.5 -48.5q-33 0 -53 16.5z" />
    <glyph glyph-name="z" unicode="z" horiz-adv-x="461" 
d="M352.5 -3.5q-29.5 3.5 -59.5 3.5h-224q-14 0 -14 11q0 6 6 13l326 403l2 4q0 5 -7 5h-239q-19 0 -26 -5t-13 -26.5t-17 -81.5q-2 -8 -3.5 -11t-7.5 -3q-7 0 -7 11q0 9 3 34q1 5 2 13t2 20q4 31 6.5 49.5t5 22.5t7.5 4q4 0 25.5 -3.5t75.5 -3.5h212q15 0 15 -10
q0 -6 -10 -18l-321 -398q-3 -3 -3 -6q0 -4 9 -4h242q22 0 31 7t15.5 31t20.5 97q2 11 11 11q3 0 4.5 -2t1.5 -8q0 -12 -10 -78q-5 -34 -9 -54.5t-7 -25.5t-9 -5q-7 0 -36.5 3.5z" />
    <glyph glyph-name="braceleft" unicode="{" horiz-adv-x="285" 
d="M147.5 -117q-36.5 35 -36.5 107q0 37 3 74q0 12 1.5 37t1.5 46q0 43 -6 68t-28 42t-67 24q-4 0 -7.5 3t-3.5 7q0 8 11 10q46 7 67.5 24.5t27.5 42t6 67.5q0 20 -1 45t-2 38q-3 38 -3 75q0 72 36.5 106.5t112.5 34.5q10 0 15 -2t5 -8t-7 -8t-24 -2q-63 0 -90.5 -30.5
t-27.5 -90.5q0 -30 3 -66q0 -13 1.5 -43t1.5 -55q0 -34 -4 -58t-20.5 -45.5t-50.5 -32.5q-3 -1 -2.5 -2t2.5 -2q49 -15 62 -50t13 -86q0 -11 -3 -98q-3 -36 -3 -66q0 -60 28 -90.5t90 -30.5q18 0 24.5 -2t6.5 -8t-5 -8t-15 -2q-76 0 -112.5 35z" />
    <glyph glyph-name="bar" unicode="|" horiz-adv-x="100" 
d="M40 -156v877q0 5 10 5q4 0 7 -1.5t3 -3.5v-877q0 -3 -3 -5t-7 -2q-10 0 -10 7z" />
    <glyph glyph-name="braceright" unicode="}" horiz-adv-x="285" 
d="M10 -150q-5 2 -5 8t6.5 8t24.5 2q63 0 90.5 30.5t27.5 90.5q0 30 -3 66q-3 87 -3 98q0 51 13 86t62 50q2 1 2.5 2t-2.5 2q-34 11 -50.5 32.5t-20.5 45.5t-4 58q0 25 1.5 55t1.5 43q3 36 3 66q0 60 -27.5 90.5t-90.5 30.5q-17 0 -24 2t-7 8t5 8t15 2q76 0 112.5 -34.5
t36.5 -106.5q0 -37 -3 -75q-1 -13 -2 -38t-1 -45q0 -43 6 -67.5t27.5 -42t67.5 -24.5q11 -2 11 -10q0 -4 -3.5 -7t-7.5 -3q-45 -7 -67 -24t-28 -42t-6 -68q0 -21 1.5 -46t1.5 -37q3 -37 3 -74q0 -72 -36.5 -107t-112.5 -35q-10 0 -15 2z" />
    <glyph glyph-name="asciitilde" unicode="~" horiz-adv-x="389" 
d="M43 237q-3 4 -3 10q0 36 23 60.5t59 24.5q18 0 34.5 -9t42.5 -28q24 -17 38 -24.5t29 -7.5q31 0 46.5 19.5t15.5 43.5q0 7 3 11t8 4q4 0 7 -4t3 -10q0 -36 -22.5 -60.5t-58.5 -24.5q-21 0 -39 9.5t-44 28.5q-22 16 -35.5 23.5t-26.5 7.5q-31 0 -46.5 -19.5t-15.5 -43.5
q0 -7 -3 -11t-8 -4q-4 0 -7 4z" />
    <glyph glyph-name="uni00A0" unicode="&#xa0;" horiz-adv-x="600" 
 />
    <glyph glyph-name="exclamdown" unicode="&#xa1;" horiz-adv-x="198" 
d="M126.5 457q11.5 -10 11.5 -24t-12 -24.5t-28 -10.5t-27 10.5t-11 24.5t11 24t27 10q17 0 28.5 -10zM109 320q0 -144 2.5 -240.5t9.5 -217.5l1 -16q0 -39 -23 -39q-12 0 -16.5 8t-4.5 23t1 23q7 115 8.5 206t1.5 253q0 10 10 10t10 -10z" />
    <glyph glyph-name="cent" unicode="&#xa2;" horiz-adv-x="466" 
d="M424.5 109q2.5 -5 -0.5 -10q-60 -102 -169 -109v-56q0 -2 -3 -3.5t-7 -1.5t-7 1.5t-3 3.5v56q-62 2 -106 35t-66.5 86.5t-22.5 117.5q0 67 24.5 120.5t69 84t101.5 32.5v58q0 4 10 4t10 -4v-58q40 -3 75 -21t56.5 -48.5t21.5 -69.5q0 -11 -6 -17t-15 -6q-10 0 -16 7
t-5 18q4 44 -22.5 78t-88.5 39v-435q92 5 150 92q4 6 6.5 8.5t5.5 2.5q5 0 7.5 -5zM80 122q20 -50 60 -80.5t95 -31.5v437q-46 -1 -86.5 -27.5t-64.5 -75.5t-24 -112q0 -60 20 -110z" />
    <glyph glyph-name="sterling" unicode="&#xa3;" horiz-adv-x="560" 
d="M532.5 183.5q2.5 -4.5 2.5 -11.5q0 -87 -42 -134.5t-110 -47.5q-22 0 -55 5.5t-65 12.5q-7 2 -39.5 8.5t-59.5 9.5h-3q-4 0 -8 -4q-9 -15 -20 -23t-28 -8q-15 0 -25.5 8t-10.5 21q0 12 10 20.5t27 8.5q21 0 33 -3q6 -1 8 4q22 43 35 100t13 110q0 22 -1 33h-83
q-20 0 -20 10t20 10h82q-2 44 -12 115q-10 80 -10 115q0 72 45 119.5t123 47.5q75 0 118.5 -47.5t43.5 -133.5q0 -27 -14 -27q-13 0 -13 25q0 81 -34.5 122t-100.5 41q-68 0 -108 -40.5t-40 -101.5q0 -27 10 -109q11 -85 13 -126h114q8 0 13 -2.5t5 -7.5t-5 -7.5t-13 -2.5
h-113v-33q0 -55 -14.5 -113t-32.5 -98q-1 -2 0 -4t2 -2q32 -3 100 -17q38 -8 60.5 -12t48.5 -4q63 0 101 42t38 121q0 15 8 15q4 0 6.5 -4.5z" />
    <glyph glyph-name="currency" unicode="&#xa4;" horiz-adv-x="554" 
d="M43.5 136.5q-3.5 3.5 -3.5 6.5q0 15 15 28l77 69q9 9 9 14q0 4 -4 10q-15 25 -21.5 51t-6.5 58q0 30 7.5 54t23.5 55q3 8 3 10q0 4 -4 8l-79 73q-7 6 -11 11.5t-4 12.5q0 5 3.5 8.5t8.5 3.5q8 0 13 -2t12 -10l76 -81q4 -4 10 -4q9 0 16 6q20 15 43 21t55 6q29 0 51 -5.5
t48 -18.5q10 -6 15 -6q6 0 12 7l71 77q12 12 25 12q4 0 7 -3t3 -8q0 -13 -13 -24l-82 -74q-5 -5 -5 -9q0 -2 4 -10q29 -43 29 -106q0 -34 -7.5 -61t-24.5 -51q-4 -5 -4 -10q0 -4 6 -10l79 -73q13 -11 13 -26q0 -10 -10 -10q-9 0 -13 1.5t-11 9.5q-60 65 -79 81q-4 4 -11 4
t-13 -4q-21 -15 -44.5 -21t-54.5 -6q-28 0 -50.5 5.5t-47.5 18.5q-9 5 -15 5t-13 -8l-71 -76q-11 -13 -26 -13q-3 0 -6.5 3.5zM384.5 264.5q43.5 43.5 43.5 112.5q0 65 -40 106.5t-104 41.5q-68 0 -111.5 -43t-43.5 -110t40 -109t103 -42q69 0 112.5 43.5z" />
    <glyph glyph-name="yen" unicode="&#xa5;" horiz-adv-x="660" 
d="M655 691q0 -11 -13 -11q-31 1 -45 -1.5t-20.5 -9t-17.5 -25.5l-200 -337h134q8 0 13 -2.5t5 -7.5t-5 -7.5t-13 -2.5h-145q-5 -12 -5 -18v-72h150q8 0 13 -2.5t5 -7.5t-5 -7.5t-13 -2.5h-150v-85q0 -40 3.5 -53t18 -16.5t57.5 -3.5q17 0 17 -10t-17 -10h-178q-17 0 -17 10
t17 10q42 0 57 3t18.5 13t3.5 39v103h-147q-20 0 -20 10t20 10h147v71q0 9 -5 19h-142q-20 0 -20 10t20 10h131l-200 335q-13 21 -22 29t-21.5 9.5t-44.5 0.5q-14 0 -14 10q0 5 3.5 8.5t10.5 2.5q22 -2 76 -2q44 0 108 2q13 0 13 -10t-13 -10q-49 1 -67 -1.5t-18 -12.5
q0 -6 8 -19l202 -339l3 -3h4l3 4l203 342q5 8 5 13q0 8 -14 11.5t-47 3.5l-39 -1q-12 0 -12 11q0 4 3.5 7t8.5 3q48 -1 121 -1q50 0 75 1q13 0 13 -10z" />
    <glyph glyph-name="brokenbar" unicode="&#xa6;" horiz-adv-x="100" 
d="M40 314v407q0 5 10 5q4 0 7 -1.5t3 -3.5v-407q0 -3 -3 -5t-7 -2q-10 0 -10 7zM43 -157q-3 2 -3 5v407q0 5 10 5q4 0 7 -1.5t3 -3.5v-407q0 -7 -10 -7q-4 0 -7 2z" />
    <glyph glyph-name="section" unicode="&#xa7;" horiz-adv-x="417" 
d="M136.5 -58.5q-30.5 16.5 -45.5 31t-16 14.5q-2 0 -2 -10v-22q0 -25 -7 -25q-4 0 -6 4t-3 13q-4 40 -15 101q-9 44 -10 63l-1 4q0 3 2 5.5t4 2.5q4 0 6 -3.5t6 -19.5t9 -43q7 -38 34 -64.5t61 -39t64 -12.5q43 0 77 15.5t52.5 41t18.5 56.5q0 51 -33.5 81t-111.5 55
q-99 31 -141 64.5t-42 85.5q0 30 19 63t50 61q-39 21 -57 49t-18 68q0 58 43.5 93.5t110.5 35.5q56 0 89 -17t48 -31t16 -14q2 0 2 10v22q0 25 7 25q4 0 6 -4t3 -13q4 -40 15 -101q9 -43 10 -63l1 -4q0 -3 -2 -5.5t-4 -2.5q-4 0 -6 3.5t-6 19.5t-9 43q-7 39 -34.5 65
t-63.5 38.5t-71 12.5q-64 0 -101 -32.5t-37 -80.5q0 -51 33.5 -81t111.5 -55q99 -31 141 -64.5t42 -85.5q0 -30 -19 -63t-50 -61q39 -21 57 -49t18 -68q0 -57 -47.5 -93t-116.5 -36q-51 0 -81.5 16.5zM340 236q19 31 19 59q0 44 -38.5 74t-129.5 60q-45 15 -69 27
q-30 -26 -49 -57t-19 -59q0 -44 38.5 -74t129.5 -60q45 -15 69 -27q30 26 49 57z" />
    <glyph glyph-name="dieresis" unicode="&#xa8;" horiz-adv-x="316" 
d="M223.5 580.5q-8.5 8.5 -8.5 22.5t8.5 22t22.5 8q13 0 21.5 -8t8.5 -22t-8 -22.5t-22 -8.5t-22.5 8.5zM48.5 580.5q-8.5 8.5 -8.5 22.5t8.5 22t22.5 8q13 0 21.5 -8t8.5 -22t-8 -22.5t-22 -8.5t-22.5 8.5z" />
    <glyph glyph-name="copyright" unicode="&#xa9;" horiz-adv-x="829" 
d="M228 35.5q-82 45.5 -127.5 127t-45.5 185.5t45.5 186t127.5 127.5t187 45.5q104 0 186 -45.5t127.5 -127.5t45.5 -186t-45.5 -185.5t-127.5 -127t-187 -45.5q-104 0 -186 45.5zM590.5 53q77.5 43 120.5 120t43 175q0 99 -43 176t-120 120t-176 43t-176.5 -43t-120.5 -120
t-43 -176q0 -98 43 -175t120 -120t176 -43t176.5 43zM317.5 165q-40.5 29 -61 77.5t-20.5 106.5q0 61 23 109t64 75t93 27q37 0 70.5 -15.5t54 -44t20.5 -64.5q0 -9 -4 -13.5t-10 -4.5t-10 5.5t-4 14.5q0 43 -29.5 74t-93.5 31q-41 0 -77 -24t-58 -67.5t-22 -99.5
q0 -54 18.5 -99t54.5 -72t87 -27q90 0 148 83q3 5 5 7.5t5 2.5q5 0 7 -4.5t0 -9.5q-58 -97 -163 -97q-57 0 -97.5 29z" />
    <glyph glyph-name="guillemotleft" unicode="&#xab;" horiz-adv-x="327" 
d="M127.5 64.5q-9.5 11.5 -31.5 39.5l-34 46q-29 39 -43 61.5t-14 26.5t14 26.5t43 60.5l34 46q22 28 31.5 39.5t13.5 11.5q6 0 6 -5t-4 -10l-31 -44l-31 -44l-13 -20q-39 -56 -39 -61q0 -7 40 -64l12 -18l31 -44l31 -44q4 -5 4 -10t-6 -5q-4 0 -13.5 11.5zM267.5 64.5
q-9.5 11.5 -31.5 39.5l-34 46q-29 39 -43 61.5t-14 26.5t14 26.5t43 60.5l34 46q22 28 31.5 39.5t13.5 11.5q6 0 6 -5t-4 -10l-31 -44l-31 -44l-13 -20q-39 -56 -39 -61q0 -7 40 -64l12 -18l31 -44l31 -44q4 -5 4 -10t-6 -5q-4 0 -13.5 11.5z" />
    <glyph glyph-name="logicalnot" unicode="&#xac;" horiz-adv-x="543" 
d="M337 173q-3 4 -3 10v95q0 11 -3 16t-12 5h-207q-7 0 -11.5 2.5t-4.5 6.5q0 5 4.5 8t11.5 3h221q13 0 17 -5.5t4 -15.5v-66v-50q0 -13 -10 -13q-4 0 -7 4z" />
    <glyph glyph-name="uni00AD" unicode="&#xad;" horiz-adv-x="335" 
d="M60 232q-20 0 -20 10t20 10h217q8 0 13 -2.5t5 -7.5t-5 -7.5t-13 -2.5h-217z" />
    <glyph glyph-name="registered" unicode="&#xae;" horiz-adv-x="577" 
d="M417.5 675.5q56.5 -31.5 88 -88t31.5 -129.5q0 -72 -32 -128.5t-88.5 -88t-129.5 -31.5q-72 0 -128 31.5t-87.5 88t-31.5 128.5q0 73 31.5 129.5t88 88t129.5 31.5q72 0 128.5 -31.5zM407 259q52 29 81 81t29 118q0 67 -29 119t-81 81t-118 29q-67 0 -119 -29t-81 -81
t-29 -119q0 -66 29 -118t81 -81t118 -29q67 0 119 29zM413 346q6 1 9 1q7 0 7 -6q0 -14 -33 -14q-22 0 -30.5 12t-16.5 41q-10 34 -25 52.5t-45 18.5h-31q-10 0 -14 -3t-4 -14v-67q0 -14 5 -17.5t26 -4.5q4 0 5.5 -1.5t1.5 -5.5q0 -5 -2 -6.5t-7 -1.5h-74q-6 0 -8 1.5
t-2 6.5q0 7 8 7q20 1 24.5 4.5t4.5 17.5v209q0 14 -4 17t-26 4q-4 0 -6.5 1.5t-2.5 6.5q0 8 11 8h34l66 1q54 0 82.5 -20.5t28.5 -60.5q0 -30 -19.5 -50t-54.5 -28q17 -8 27 -26t19 -46q6 -21 13 -29.5t19 -8.5q8 0 14 1zM284 468q45 0 68 16.5t23 44.5q0 36 -22.5 51.5
t-70.5 15.5h-31q-21 0 -21 -23v-88q0 -8 3.5 -12.5t14.5 -4.5h36z" />
    <glyph glyph-name="macron" unicode="&#xaf;" horiz-adv-x="317" 
d="M39.5 586q1.5 5 1.5 6q3 10 10 10l110 -1l110 1q6 0 6 -3t-1 -7q-4 -11 -10 -11q-29 1 -111 1t-110 -1q-7 0 -5.5 5z" />
    <glyph glyph-name="degree" unicode="&#xb0;" horiz-adv-x="336" 
d="M76 492.5q-36 35.5 -36 91.5q0 55 36 90t92 35t92 -35t36 -90q0 -56 -36 -91.5t-92 -35.5t-92 35.5zM246 507q30 30 30 77t-30 76t-78 29t-78 -29t-30 -76t30 -77t78 -30t78 30z" />
    <glyph glyph-name="plusminus" unicode="&#xb1;" horiz-adv-x="424" 
d="M204 111v130q0 8 -8 8h-130q-20 0 -20 10t20 10h129q9 0 9 11v128q0 8 2.5 13t7.5 5t7.5 -5t2.5 -13v-127q0 -12 8 -12h131q8 0 13 -2.5t5 -7.5t-5 -7.5t-13 -2.5h-131q-8 0 -8 -8v-130q0 -20 -10 -20t-10 20zM67 53q-27 0 -27 10t27 10h293q11 0 17.5 -2.5t6.5 -7.5
t-6.5 -7.5t-17.5 -2.5h-293z" />
    <glyph glyph-name="acute" unicode="&#xb4;" horiz-adv-x="253" 
d="M40 520q0 6 56.5 60t89.5 84q7 7 16 7q11 0 11 -7q0 -8 -38.5 -44t-81 -70t-48.5 -34q-5 0 -5 4z" />
    <glyph glyph-name="uni00B5" unicode="&#xb5;" horiz-adv-x="530" 
d="M515 29q0 -11 -15 -13q-17 -3 -35 -8.5t-25 -7.5q-16 -6 -22 -6q-13 0 -13 18v70q0 14 -3 14q-1 0 -23 -52.5t-134 -52.5q-90 0 -128 68q-2 5 -4.5 5t-2.5 -5v-159q0 -8 -2.5 -11.5t-6.5 -3.5q-5 0 -8 4t-3 11v505q0 15 -2.5 21t-12.5 6q-7 0 -12 -1q-18 -4 -27 -7
q-20 -5 -27 -5q-8 0 -9 6v2q0 11 15 13q17 3 35 8.5t25 7.5q16 6 22 6q13 0 13 -18v-258q0 -87 35.5 -131t104.5 -44q38 0 73.5 20t58.5 63.5t23 108.5v202q0 15 -2.5 21t-12.5 6q-7 0 -12 -1q-18 -4 -27 -7q-20 -5 -27 -5q-8 0 -9 6v2q0 11 15 13q17 3 35 8.5t25 7.5
q17 6 22 6q13 0 13 -18v-393q0 -15 2.5 -21t12.5 -6q7 0 12 1q18 4 27 7q20 5 27 5q8 0 9 -6v-2z" />
    <glyph glyph-name="paragraph" unicode="&#xb6;" horiz-adv-x="629" 
d="M225.5 -79.5q-3.5 3.5 -3.5 9.5q0 4 3.5 7t8.5 3h58q19 0 26 6.5t7 22.5v359q0 18 -7 23.5t-27 5.5q-134 0 -202.5 39.5t-68.5 138.5q0 83 55 126.5t145 43.5q26 0 80 -2q66 -2 117 -2q59 0 101.5 1t55.5 2q20 0 20 -11q0 -5 -5.5 -8.5t-14.5 -3.5h-47q-28 0 -28 -32
v-685q0 -26 26 -26h50q5 0 8.5 -2.5t3.5 -6.5t-3.5 -7t-8.5 -3l-103 1q-19 1 -59 1q-56 0 -146 -3q-14 -1 -33 -1q-5 0 -8.5 3.5zM466 -55.5q13 4.5 13 18.5v686q0 19 -13 25.5t-49 6.5q-42 0 -56.5 -6t-15.5 -26l1 -688q0 -14 12.5 -17.5t54.5 -3.5q40 0 53 4.5z" />
    <glyph glyph-name="periodcentered" unicode="&#xb7;" horiz-adv-x="201" 
d="M70.5 207.5q-10.5 10.5 -10.5 24.5q0 18 12.5 31t30.5 13q16 0 27 -11t11 -27q0 -17 -13.5 -29t-31.5 -12q-15 0 -25.5 10.5z" />
    <glyph glyph-name="cedilla" unicode="&#xb8;" horiz-adv-x="283" 
d="M45 -155q-5 5 -5 10q0 3 2 5.5t6 2.5q6 0 12 -5q32 -27 90 -27q33 0 53 14.5t20 38.5q0 18 -12 26.5t-37 19.5q-27 11 -39.5 21t-12.5 29q0 11 4 23l20 -3q-2 -10 -2 -13q0 -15 11 -23t32 -17q28 -12 42 -24.5t14 -37.5q0 -35 -25.5 -54.5t-67.5 -19.5q-68 0 -105 34z
" />
    <glyph glyph-name="guillemotright" unicode="&#xbb;" horiz-adv-x="327" 
d="M40 58q0 5 4 10l31 44l31 44l12 18q40 57 40 64q0 5 -39 61l-13 20l-31 44l-31 44q-10 15 2 15q4 0 13.5 -11.5t31.5 -39.5l34 -46q29 -38 43 -60.5t14 -26.5t-14 -26.5t-43 -61.5l-34 -46q-22 -28 -31.5 -39.5t-13.5 -11.5q-6 0 -6 5zM180 58q0 5 4 10l31 44l31 44
l12 18q40 57 40 64q0 5 -39 61l-13 20l-31 44l-31 44q-10 15 2 15q4 0 13.5 -11.5t31.5 -39.5l34 -46q29 -38 43 -60.5t14 -26.5t-14 -26.5t-43 -61.5l-34 -46q-22 -28 -31.5 -39.5t-13.5 -11.5q-6 0 -6 5z" />
    <glyph glyph-name="questiondown" unicode="&#xbf;" horiz-adv-x="465" 
d="M281 456q11 -10 11 -24t-11 -24.5t-27 -10.5t-28 10.5t-12 24.5t11.5 24t28.5 10q16 0 27 -10zM264 326.5q3 -3.5 3 -8.5q0 -46 -17 -79t-41 -55t-64 -49q-37 -25 -58.5 -44t-36 -46t-14.5 -64q0 -44 23 -78.5t63.5 -54t91.5 -19.5q59 0 106.5 23t74.5 63t27 89
q0 23 13 23q14 0 14 -25q0 -52 -31.5 -96t-85.5 -69.5t-118 -25.5q-57 0 -102.5 21.5t-70.5 60t-25 87.5q0 42 16 72.5t38.5 50.5t61.5 46q38 26 61 46t38.5 50.5t15.5 72.5q0 5 3 8.5t7 3.5t7 -3.5z" />
    <glyph glyph-name="Agrave" unicode="&#xc0;" horiz-adv-x="701" 
d="M17 -2q-12 0 -12 10q0 5 5 7.5t10 2.5q34 0 48 3.5t22 14.5t19 39l224 581q3 8 3 12q0 12 -25 12q-15 0 -15 10t15 10h27q8 0 12 -3.5t8 -13.5l234 -608q11 -28 19 -39t22 -14.5t48 -3.5q15 0 15 -10q0 -12 -15 -10q-19 1 -88 1q-70 0 -93 -1q-17 0 -17 10t17 10
q49 0 65 3.5t16 17.5q0 9 -10 36l-51 132q-6 14 -11.5 19t-22.5 5h-261q-23 0 -30.5 -4t-13.5 -21l-51 -131q-10 -27 -10 -36q0 -14 16 -17.5t63 -3.5q19 0 19 -9q0 -11 -19 -11q-21 1 -91 1q-68 0 -88 -1h-3zM482 251q15 0 15 9q0 8 -4 17l-138 358q-5 12 -9 0l-140 -363
q-2 -8 -2 -10q0 -7 5 -9t16 -2h257zM346 766.5q-48 26.5 -92 55t-45 36.5v2q0 5 10 7h4q5 0 13 -4l23 -15l76.5 -51t69.5 -51q0 -4 -5 -5q-6 -1 -54 25.5z" />
    <glyph glyph-name="Aacute" unicode="&#xc1;" horiz-adv-x="701" 
d="M17 -2q-12 0 -12 10q0 5 5 7.5t10 2.5q34 0 48 3.5t22 14.5t19 39l224 581q3 8 3 12q0 12 -25 12q-15 0 -15 10t15 10h27q8 0 12 -3.5t8 -13.5l234 -608q11 -28 19 -39t22 -14.5t48 -3.5q15 0 15 -10q0 -12 -15 -10q-19 1 -88 1q-70 0 -93 -1q-17 0 -17 10t17 10
q49 0 65 3.5t16 17.5q0 9 -10 36l-51 132q-6 14 -11.5 19t-22.5 5h-261q-23 0 -30.5 -4t-13.5 -21l-51 -131q-10 -27 -10 -36q0 -14 16 -17.5t63 -3.5q19 0 19 -9q0 -11 -19 -11q-21 1 -91 1q-68 0 -88 -1h-3zM482 251q15 0 15 9q0 8 -4 17l-138 358q-5 12 -9 0l-140 -363
q-2 -8 -2 -10q0 -7 5 -9t16 -2h257zM297 746q2 6 69.5 51l76.5 51l23 15q8 4 13 4q8 0 11.5 -2.5t2.5 -6.5q-1 -8 -45 -36.5t-92 -55t-54 -25.5q-5 1 -5 5z" />
    <glyph glyph-name="Acircumflex" unicode="&#xc2;" horiz-adv-x="701" 
d="M17 -2q-12 0 -12 10q0 5 5 7.5t10 2.5q34 0 48 3.5t22 14.5t19 39l224 581q3 8 3 12q0 12 -25 12q-15 0 -15 10t15 10h27q8 0 12 -3.5t8 -13.5l234 -608q11 -28 19 -39t22 -14.5t48 -3.5q15 0 15 -10q0 -12 -15 -10q-19 1 -88 1q-70 0 -93 -1q-17 0 -17 10t17 10
q49 0 65 3.5t16 17.5q0 9 -10 36l-51 132q-6 14 -11.5 19t-22.5 5h-261q-23 0 -30.5 -4t-13.5 -21l-51 -131q-10 -27 -10 -36q0 -14 16 -17.5t63 -3.5q19 0 19 -9q0 -11 -19 -11q-21 1 -91 1q-68 0 -88 -1h-3zM482 251q15 0 15 9q0 8 -4 17l-138 358q-5 12 -9 0l-140 -363
q-2 -8 -2 -10q0 -7 5 -9t16 -2h257zM211 739q0 11 56.5 69t77.5 72q3 2 6 2q2 0 6 -2q21 -14 77.5 -72t56.5 -69q0 -4 -4 -4q-1 0 -18 15.5t-29 28.5q-25 27 -55 53.5t-34 26.5t-34 -26.5t-55 -53.5q-12 -13 -29 -28.5t-18 -15.5q-4 0 -4 4z" />
    <glyph glyph-name="Atilde" unicode="&#xc3;" horiz-adv-x="701" 
d="M17 -2q-12 0 -12 10q0 5 5 7.5t10 2.5q34 0 48 3.5t22 14.5t19 39l224 581q3 8 3 12q0 12 -25 12q-15 0 -15 10t15 10h27q8 0 12 -3.5t8 -13.5l234 -608q11 -28 19 -39t22 -14.5t48 -3.5q15 0 15 -10q0 -12 -15 -10q-19 1 -88 1q-70 0 -93 -1q-17 0 -17 10t17 10
q49 0 65 3.5t16 17.5q0 9 -10 36l-51 132q-6 14 -11.5 19t-22.5 5h-261q-23 0 -30.5 -4t-13.5 -21l-51 -131q-10 -27 -10 -36q0 -14 16 -17.5t63 -3.5q19 0 19 -9q0 -11 -19 -11q-21 1 -91 1q-68 0 -88 -1h-3zM482 251q15 0 15 9q0 8 -4 17l-138 358q-5 12 -9 0l-140 -363
q-2 -8 -2 -10q0 -7 5 -9t16 -2h257zM400 744.5q-15 6.5 -37 20.5q-21 14 -36.5 21t-35.5 7q-21 0 -36.5 -12.5t-20.5 -34.5q-3 -10 -8 -10q-6 0 -6 9q2 29 21 48.5t50 19.5q23 0 41.5 -8t42.5 -23q19 -12 31.5 -18t26.5 -6q22 0 37.5 13t20.5 34q3 10 9 10q2 0 3.5 -2.5
t1.5 -6.5q-2 -29 -21.5 -48.5t-50.5 -19.5q-18 0 -33 6.5z" />
    <glyph glyph-name="Adieresis" unicode="&#xc4;" horiz-adv-x="701" 
d="M17 -2q-12 0 -12 10q0 5 5 7.5t10 2.5q34 0 48 3.5t22 14.5t19 39l224 581q3 8 3 12q0 12 -25 12q-15 0 -15 10t15 10h27q8 0 12 -3.5t8 -13.5l234 -608q11 -28 19 -39t22 -14.5t48 -3.5q15 0 15 -10q0 -12 -15 -10q-19 1 -88 1q-70 0 -93 -1q-17 0 -17 10t17 10
q49 0 65 3.5t16 17.5q0 9 -10 36l-51 132q-6 14 -11.5 19t-22.5 5h-261q-23 0 -30.5 -4t-13.5 -21l-51 -131q-10 -27 -10 -36q0 -14 16 -17.5t63 -3.5q19 0 19 -9q0 -11 -19 -11q-21 1 -91 1q-68 0 -88 -1h-3zM482 251q15 0 15 9q0 8 -4 17l-138 358q-5 12 -9 0l-140 -363
q-2 -8 -2 -10q0 -7 5 -9t16 -2h257zM416.5 748.5q-8.5 8.5 -8.5 22.5t8.5 22t22.5 8q13 0 21.5 -8t8.5 -22t-8 -22.5t-22 -8.5t-22.5 8.5zM241.5 748.5q-8.5 8.5 -8.5 22.5t8.5 22t22.5 8q13 0 21.5 -8t8.5 -22t-8 -22.5t-22 -8.5t-22.5 8.5z" />
    <glyph glyph-name="Aring" unicode="&#xc5;" horiz-adv-x="701" 
d="M17 -2q-12 0 -12 10q0 5 5 7.5t10 2.5q34 0 48 3.5t22 14.5t19 39l224 581q3 8 3 12q0 12 -25 12q-15 0 -15 10t15 10h27q8 0 12 -3.5t8 -13.5l234 -608q11 -28 19 -39t22 -14.5t48 -3.5q15 0 15 -10q0 -12 -15 -10q-19 1 -88 1q-70 0 -93 -1q-17 0 -17 10t17 10
q49 0 65 3.5t16 17.5q0 9 -10 36l-51 132q-6 14 -11.5 19t-22.5 5h-261q-23 0 -30.5 -4t-13.5 -21l-51 -131q-10 -27 -10 -36q0 -14 16 -17.5t63 -3.5q19 0 19 -9q0 -11 -19 -11q-21 1 -91 1q-68 0 -88 -1h-3zM482 251q15 0 15 9q0 8 -4 17l-138 358q-5 12 -9 0l-140 -363
q-2 -8 -2 -10q0 -7 5 -9t16 -2h257zM288.5 761.5q-21.5 21.5 -21.5 52.5t21.5 52.5t52.5 21.5t52.5 -21.5t21.5 -52.5t-21.5 -52.5t-52.5 -21.5t-52.5 21.5zM381.5 773.5q16.5 16.5 16.5 40.5t-17 40.5t-40 16.5t-40 -16.5t-17 -40.5q0 -23 17 -40t40 -17q24 0 40.5 16.5z
" />
    <glyph glyph-name="AE" unicode="&#xc6;" horiz-adv-x="1038" 
d="M934 -10.5q-5 4.5 -11 7.5t-21 3l-426 -1q-17 0 -17 10t17 10q42 0 57 3t18.5 13t3.5 39v127q0 20 -7.5 27t-29.5 7h-241q-18 0 -26.5 -4t-19.5 -18l-100 -149q-13 -21 -13 -29q0 -10 13.5 -13.5t45.5 -3.5l42 1q13 0 13 -11q0 -9 -13 -9l-107 1q-38 0 -96 -2
q-11 0 -11 10q0 11 12 11q33 0 53.5 10.5t36.5 34.5l389 582q12 18 12 25q0 5 -5.5 6.5t-14.5 2.5t-12 1q-17 0 -17 10t17 10l376 -1q14 0 20 2.5t11 7.5t11 5t9 -4t8.5 -23.5t12.5 -52.5l8 -34l8 -33q16 -68 16 -75q0 -5 -1.5 -6t-6.5 -1q-9 0 -13 16q-21 88 -31.5 122
t-21.5 45t-34 11h-227q-23 0 -32 -4t-11.5 -14.5t-2.5 -37.5v-208q0 -20 5 -29t21 -9h137q18 0 25.5 5t7.5 19q0 13 -10 58q-1 3 -1 9q0 10 9 10q5 0 7.5 -3t7 -19.5t10.5 -44.5l11 -48q10 -42 16 -70t6 -36q0 -5 -1.5 -6.5t-5.5 -1.5q-6 0 -8 3t-4 10q-12 48 -18 65.5
t-13.5 23.5t-24.5 6h-151q-18 0 -22 -7.5t-4 -29.5v-254q0 -24 2.5 -32.5t11.5 -11.5t33 -3h276q24 0 35 11t21 43.5t31 123.5q2 10 4.5 13t7.5 3t7 -1.5t2 -6.5q0 -11 -13 -60l-11 -47q-11 -47 -18 -75t-10 -33.5t-9 -5.5t-11 4.5zM517 255q23 0 30.5 8t7.5 30v337
q0 14 -4.5 21.5t-11.5 7.5q-11 0 -23 -18l-235 -352q-12 -19 -12 -26q0 -5 4.5 -6.5t13.5 -1.5h230z" />
    <glyph glyph-name="Ccedilla" unicode="&#xc7;" horiz-adv-x="617" 
d="M571.5 198q3.5 3 7.5 3t6.5 -3t1.5 -9q-11 -86 -74.5 -142.5t-174.5 -56.5h-5q-1 -16 9 -24.5t33 -18.5q28 -11 42.5 -23.5t14.5 -38.5q0 -35 -25.5 -54.5t-67.5 -19.5q-68 0 -105 34q-5 5 -5 10q0 3 2 5.5t6 2.5q6 0 12 -5q32 -27 90 -27q33 0 53 14.5t20 38.5
q0 18 -12 26.5t-37 19.5q-27 11 -39.5 21t-12.5 29q0 7 1 11q-76 7 -138 52.5t-98 125t-36 184.5q0 96 36.5 178t103.5 130.5t156 48.5q51 0 95.5 -17.5t77.5 -48.5q18 -18 34 -42q15 -28 22 -51q7 -22 7 -52q0 -12 -6 -19.5t-16 -7.5t-16 7.5t-4 19.5q2 18 2 25
q0 47 -25.5 85t-70.5 59.5t-100 21.5q-77 0 -140 -43t-99.5 -120t-36.5 -173q0 -98 35 -176.5t98 -123t145 -44.5q97 0 157.5 48.5t71.5 130.5q1 6 4.5 9z" />
    <glyph glyph-name="Egrave" unicode="&#xc8;" horiz-adv-x="612" 
d="M580 206q0 -15 -22 -107q-11 -47 -18 -75t-10.5 -33.5t-8.5 -5.5q-6 0 -11 4.5t-11 7.5t-21 3q-208 0 -288.5 -0.5t-106.5 -0.5h-31q-17 0 -17 10t17 10q42 0 57 3t18.5 13t3.5 39v552q0 30 -3.5 40t-18 12.5t-57.5 2.5q-17 0 -17 10t17 10h29q18 0 84.5 -0.5t262.5 -0.5
q14 0 20 2.5t11 7.5t11 5q5 0 8.5 -6t11 -33.5t18.5 -74.5q22 -96 22 -108q0 -5 -1 -6t-5 -1q-9 0 -13 16q-21 88 -31.5 122t-21.5 45t-34 11h-227q-23 0 -32 -4t-11.5 -14.5t-2.5 -37.5v-208q0 -20 5 -29t21 -9h137q18 0 25.5 5t7.5 19q0 13 -10 58q-1 3 -1 9q0 10 9 10
q5 0 8 -5.5t10 -33.5t18 -76q21 -91 21 -105q0 -6 -1.5 -7.5t-4.5 -1.5q-6 0 -8 3t-4 10q-12 48 -18 65.5t-13.5 23.5t-24.5 6h-151q-18 0 -22 -7.5t-4 -29.5v-254q0 -24 2.5 -32.5t11.5 -11.5t33 -3h276q24 0 35 11t21 43.5t31 123.5q2 10 4.5 13t7.5 3q7 0 7 -8z
M289 766.5q-48 26.5 -92 55t-45 36.5v2q0 5 10 7h4q5 0 13 -4l23 -15l76.5 -51t69.5 -51q0 -4 -5 -5q-6 -1 -54 25.5z" />
    <glyph glyph-name="Eacute" unicode="&#xc9;" horiz-adv-x="612" 
d="M580 206q0 -15 -22 -107q-11 -47 -18 -75t-10.5 -33.5t-8.5 -5.5q-6 0 -11 4.5t-11 7.5t-21 3q-208 0 -288.5 -0.5t-106.5 -0.5h-31q-17 0 -17 10t17 10q42 0 57 3t18.5 13t3.5 39v552q0 30 -3.5 40t-18 12.5t-57.5 2.5q-17 0 -17 10t17 10h29q18 0 84.5 -0.5t262.5 -0.5
q14 0 20 2.5t11 7.5t11 5q5 0 8.5 -6t11 -33.5t18.5 -74.5q22 -96 22 -108q0 -5 -1 -6t-5 -1q-9 0 -13 16q-21 88 -31.5 122t-21.5 45t-34 11h-227q-23 0 -32 -4t-11.5 -14.5t-2.5 -37.5v-208q0 -20 5 -29t21 -9h137q18 0 25.5 5t7.5 19q0 13 -10 58q-1 3 -1 9q0 10 9 10
q5 0 8 -5.5t10 -33.5t18 -76q21 -91 21 -105q0 -6 -1.5 -7.5t-4.5 -1.5q-6 0 -8 3t-4 10q-12 48 -18 65.5t-13.5 23.5t-24.5 6h-151q-18 0 -22 -7.5t-4 -29.5v-254q0 -24 2.5 -32.5t11.5 -11.5t33 -3h276q24 0 35 11t21 43.5t31 123.5q2 10 4.5 13t7.5 3q7 0 7 -8zM240 746
q2 6 69.5 51l76.5 51l23 15q8 4 13 4q8 0 11.5 -2.5t2.5 -6.5q-1 -8 -45 -36.5t-92 -55t-54 -25.5q-5 1 -5 5z" />
    <glyph glyph-name="Ecircumflex" unicode="&#xca;" horiz-adv-x="612" 
d="M580 206q0 -15 -22 -107q-11 -47 -18 -75t-10.5 -33.5t-8.5 -5.5q-6 0 -11 4.5t-11 7.5t-21 3q-208 0 -288.5 -0.5t-106.5 -0.5h-31q-17 0 -17 10t17 10q42 0 57 3t18.5 13t3.5 39v552q0 30 -3.5 40t-18 12.5t-57.5 2.5q-17 0 -17 10t17 10h29q18 0 84.5 -0.5t262.5 -0.5
q14 0 20 2.5t11 7.5t11 5q5 0 8.5 -6t11 -33.5t18.5 -74.5q22 -96 22 -108q0 -5 -1 -6t-5 -1q-9 0 -13 16q-21 88 -31.5 122t-21.5 45t-34 11h-227q-23 0 -32 -4t-11.5 -14.5t-2.5 -37.5v-208q0 -20 5 -29t21 -9h137q18 0 25.5 5t7.5 19q0 13 -10 58q-1 3 -1 9q0 10 9 10
q5 0 8 -5.5t10 -33.5t18 -76q21 -91 21 -105q0 -6 -1.5 -7.5t-4.5 -1.5q-6 0 -8 3t-4 10q-12 48 -18 65.5t-13.5 23.5t-24.5 6h-151q-18 0 -22 -7.5t-4 -29.5v-254q0 -24 2.5 -32.5t11.5 -11.5t33 -3h276q24 0 35 11t21 43.5t31 123.5q2 10 4.5 13t7.5 3q7 0 7 -8zM154 739
q0 11 56.5 69t77.5 72q3 2 6 2q2 0 6 -2q21 -14 77.5 -72t56.5 -69q0 -4 -4 -4q-1 0 -18 15.5t-29 28.5q-25 27 -55 53.5t-34 26.5t-34 -26.5t-55 -53.5q-12 -13 -29 -28.5t-18 -15.5q-4 0 -4 4z" />
    <glyph glyph-name="Edieresis" unicode="&#xcb;" horiz-adv-x="612" 
d="M580 206q0 -15 -22 -107q-11 -47 -18 -75t-10.5 -33.5t-8.5 -5.5q-6 0 -11 4.5t-11 7.5t-21 3q-208 0 -288.5 -0.5t-106.5 -0.5h-31q-17 0 -17 10t17 10q42 0 57 3t18.5 13t3.5 39v552q0 30 -3.5 40t-18 12.5t-57.5 2.5q-17 0 -17 10t17 10h29q18 0 84.5 -0.5t262.5 -0.5
q14 0 20 2.5t11 7.5t11 5q5 0 8.5 -6t11 -33.5t18.5 -74.5q22 -96 22 -108q0 -5 -1 -6t-5 -1q-9 0 -13 16q-21 88 -31.5 122t-21.5 45t-34 11h-227q-23 0 -32 -4t-11.5 -14.5t-2.5 -37.5v-208q0 -20 5 -29t21 -9h137q18 0 25.5 5t7.5 19q0 13 -10 58q-1 3 -1 9q0 10 9 10
q5 0 8 -5.5t10 -33.5t18 -76q21 -91 21 -105q0 -6 -1.5 -7.5t-4.5 -1.5q-6 0 -8 3t-4 10q-12 48 -18 65.5t-13.5 23.5t-24.5 6h-151q-18 0 -22 -7.5t-4 -29.5v-254q0 -24 2.5 -32.5t11.5 -11.5t33 -3h276q24 0 35 11t21 43.5t31 123.5q2 10 4.5 13t7.5 3q7 0 7 -8z
M359.5 748.5q-8.5 8.5 -8.5 22.5t8.5 22t22.5 8q13 0 21.5 -8t8.5 -22t-8 -22.5t-22 -8.5t-22.5 8.5zM184.5 748.5q-8.5 8.5 -8.5 22.5t8.5 22t22.5 8q13 0 21.5 -8t8.5 -22t-8 -22.5t-22 -8.5t-22.5 8.5z" />
    <glyph glyph-name="Igrave" unicode="&#xcc;" horiz-adv-x="282" 
d="M52 -1q-17 0 -17 10t17 10q42 0 57 3t18.5 13t3.5 39v552q0 30 -3.5 40t-18 12.5t-57.5 2.5q-17 0 -17 10t17 10l80 -1h18l80 1q17 0 17 -10t-17 -10q-42 0 -57 -3t-18.5 -13t-3.5 -39v-552q0 -30 3.5 -40t18 -12.5t57.5 -2.5q17 0 17 -10t-17 -10l-80 1h-18zM136 766.5
q-48 26.5 -92 55t-45 36.5v2q0 5 10 7h4q5 0 13 -4l23 -15l76.5 -51t69.5 -51q0 -4 -5 -5q-6 -1 -54 25.5z" />
    <glyph glyph-name="Iacute" unicode="&#xcd;" horiz-adv-x="282" 
d="M52 -1q-17 0 -17 10t17 10q42 0 57 3t18.5 13t3.5 39v552q0 30 -3.5 40t-18 12.5t-57.5 2.5q-17 0 -17 10t17 10l80 -1h18l80 1q17 0 17 -10t-17 -10q-42 0 -57 -3t-18.5 -13t-3.5 -39v-552q0 -30 3.5 -40t18 -12.5t57.5 -2.5q17 0 17 -10t-17 -10l-80 1h-18zM87 746
q2 6 69.5 51l76.5 51l23 15q8 4 13 4q8 0 11.5 -2.5t2.5 -6.5q-1 -8 -45 -36.5t-92 -55t-54 -25.5q-5 1 -5 5z" />
    <glyph glyph-name="Icircumflex" unicode="&#xce;" horiz-adv-x="282" 
d="M52 -1q-17 0 -17 10t17 10q42 0 57 3t18.5 13t3.5 39v552q0 30 -3.5 40t-18 12.5t-57.5 2.5q-17 0 -17 10t17 10l80 -1h18l80 1q17 0 17 -10t-17 -10q-42 0 -57 -3t-18.5 -13t-3.5 -39v-552q0 -30 3.5 -40t18 -12.5t57.5 -2.5q17 0 17 -10t-17 -10l-80 1h-18zM1 739
q0 11 56.5 69t77.5 72q3 2 6 2q2 0 6 -2q21 -14 77.5 -72t56.5 -69q0 -4 -4 -4q-1 0 -18 15.5t-29 28.5q-25 27 -55 53.5t-34 26.5t-34 -26.5t-55 -53.5q-12 -13 -29 -28.5t-18 -15.5q-4 0 -4 4z" />
    <glyph glyph-name="Idieresis" unicode="&#xcf;" horiz-adv-x="282" 
d="M52 -1q-17 0 -17 10t17 10q42 0 57 3t18.5 13t3.5 39v552q0 30 -3.5 40t-18 12.5t-57.5 2.5q-17 0 -17 10t17 10l80 -1h18l80 1q17 0 17 -10t-17 -10q-42 0 -57 -3t-18.5 -13t-3.5 -39v-552q0 -30 3.5 -40t18 -12.5t57.5 -2.5q17 0 17 -10t-17 -10l-80 1h-18z
M206.5 748.5q-8.5 8.5 -8.5 22.5t8.5 22t22.5 8q13 0 21.5 -8t8.5 -22t-8 -22.5t-22 -8.5t-22.5 8.5zM31.5 748.5q-8.5 8.5 -8.5 22.5t8.5 22t22.5 8q13 0 21.5 -8t8.5 -22t-8 -22.5t-22 -8.5t-22.5 8.5z" />
    <glyph glyph-name="Eth" unicode="&#xd0;" horiz-adv-x="657" 
d="M422.5 658q94.5 -43 144.5 -123.5t50 -191.5q0 -163 -93.5 -254t-268.5 -91q-104 0 -140 1h-63q-17 0 -17 10t17 10q42 0 57 3t18.5 13t3.5 39v258q0 7 -7 7h-77q-10 0 -10 10q0 5 3 8t7 3h77q7 0 7 8v258q0 30 -3.5 40t-18 12.5t-57.5 2.5q-17 0 -17 10t17 10h144
q132 0 226.5 -43zM509 103.5q88 85.5 88 236.5q0 167 -107.5 254t-293.5 87q-28 0 -36.5 -7.5t-8.5 -33.5v-272q0 -4 2 -6.5t5 -2.5h199q4 0 7 -3t3 -7q0 -10 -10 -10h-199q-7 0 -7 -6v-277q0 -25 22 -31.5t82 -6.5q166 0 254 85.5z" />
    <glyph glyph-name="Ntilde" unicode="&#xd1;" horiz-adv-x="733" 
d="M134 -2q-27 1 -85 1q-14 0 -14 10t14 10q43 -1 58.5 3t20 18.5t4.5 54.5v513q0 40 -3.5 53.5t-18.5 17.5t-57 4q-17 0 -17 10q0 5 3.5 6.5t13.5 1.5h87q10 0 15 -1.5t8 -6.5l419 -646q4 -7 8 -7t4 11v556q0 40 -3.5 53.5t-18 17t-57.5 3.5q-17 0 -17 12q0 5 3.5 6.5
t13.5 1.5h182q14 0 14 -10t-14 -10q-43 1 -58.5 -3t-20 -18.5t-4.5 -54.5v-595q0 -12 -12 -12q-13 0 -23 16l-420 648q-1 3 -4 3t-3 -4v-568q0 -40 3.5 -54t18.5 -18t57 -4q17 0 17 -10t-17 -10zM415 744.5q-15 6.5 -37 20.5q-21 14 -36.5 21t-35.5 7q-21 0 -36.5 -12.5
t-20.5 -34.5q-3 -10 -8 -10q-6 0 -6 9q2 29 21 48.5t50 19.5q23 0 41.5 -8t42.5 -23q19 -12 31.5 -18t26.5 -6q22 0 37.5 13t20.5 34q3 10 9 10q2 0 3.5 -2.5t1.5 -6.5q-2 -29 -21.5 -48.5t-50.5 -19.5q-18 0 -33 6.5z" />
    <glyph glyph-name="Ograve" unicode="&#xd2;" horiz-adv-x="692" 
d="M192 35q-70 45 -111 127.5t-41 189.5q0 99 38 180.5t108 129.5t160 48q84 0 154 -45t111 -126.5t41 -186.5q0 -100 -38 -182.5t-108 -131t-160 -48.5q-84 0 -154 45zM490 52.5q65 42.5 103.5 120.5t38.5 179q0 93 -35.5 170.5t-101 122.5t-149.5 45q-79 0 -144 -42.5
t-103.5 -119.5t-38.5 -176q0 -94 35.5 -172t101 -124t149.5 -46q79 0 144 42.5zM341 766.5q-48 26.5 -92 55t-45 36.5v2q0 5 10 7h4q5 0 13 -4l23 -15l76.5 -51t69.5 -51q0 -4 -5 -5q-6 -1 -54 25.5z" />
    <glyph glyph-name="Oacute" unicode="&#xd3;" horiz-adv-x="692" 
d="M192 35q-70 45 -111 127.5t-41 189.5q0 99 38 180.5t108 129.5t160 48q84 0 154 -45t111 -126.5t41 -186.5q0 -100 -38 -182.5t-108 -131t-160 -48.5q-84 0 -154 45zM490 52.5q65 42.5 103.5 120.5t38.5 179q0 93 -35.5 170.5t-101 122.5t-149.5 45q-79 0 -144 -42.5
t-103.5 -119.5t-38.5 -176q0 -94 35.5 -172t101 -124t149.5 -46q79 0 144 42.5zM292 746q2 6 69.5 51l76.5 51l23 15q8 4 13 4q8 0 11.5 -2.5t2.5 -6.5q-1 -8 -45 -36.5t-92 -55t-54 -25.5q-5 1 -5 5z" />
    <glyph glyph-name="Ocircumflex" unicode="&#xd4;" horiz-adv-x="692" 
d="M192 35q-70 45 -111 127.5t-41 189.5q0 99 38 180.5t108 129.5t160 48q84 0 154 -45t111 -126.5t41 -186.5q0 -100 -38 -182.5t-108 -131t-160 -48.5q-84 0 -154 45zM490 52.5q65 42.5 103.5 120.5t38.5 179q0 93 -35.5 170.5t-101 122.5t-149.5 45q-79 0 -144 -42.5
t-103.5 -119.5t-38.5 -176q0 -94 35.5 -172t101 -124t149.5 -46q79 0 144 42.5zM206 739q0 11 56.5 69t77.5 72q3 2 6 2q2 0 6 -2q21 -14 77.5 -72t56.5 -69q0 -4 -4 -4q-1 0 -18 15.5t-29 28.5q-25 27 -55 53.5t-34 26.5t-34 -26.5t-55 -53.5q-12 -13 -29 -28.5t-18 -15.5
q-4 0 -4 4z" />
    <glyph glyph-name="Otilde" unicode="&#xd5;" horiz-adv-x="692" 
d="M192 35q-70 45 -111 127.5t-41 189.5q0 99 38 180.5t108 129.5t160 48q84 0 154 -45t111 -126.5t41 -186.5q0 -100 -38 -182.5t-108 -131t-160 -48.5q-84 0 -154 45zM490 52.5q65 42.5 103.5 120.5t38.5 179q0 93 -35.5 170.5t-101 122.5t-149.5 45q-79 0 -144 -42.5
t-103.5 -119.5t-38.5 -176q0 -94 35.5 -172t101 -124t149.5 -46q79 0 144 42.5zM395 744.5q-15 6.5 -37 20.5q-21 14 -36.5 21t-35.5 7q-21 0 -36.5 -12.5t-20.5 -34.5q-3 -10 -8 -10q-6 0 -6 9q2 29 21 48.5t50 19.5q23 0 41.5 -8t42.5 -23q19 -12 31.5 -18t26.5 -6
q22 0 37.5 13t20.5 34q3 10 9 10q2 0 3.5 -2.5t1.5 -6.5q-2 -29 -21.5 -48.5t-50.5 -19.5q-18 0 -33 6.5z" />
    <glyph glyph-name="Odieresis" unicode="&#xd6;" horiz-adv-x="692" 
d="M192 35q-70 45 -111 127.5t-41 189.5q0 99 38 180.5t108 129.5t160 48q84 0 154 -45t111 -126.5t41 -186.5q0 -100 -38 -182.5t-108 -131t-160 -48.5q-84 0 -154 45zM490 52.5q65 42.5 103.5 120.5t38.5 179q0 93 -35.5 170.5t-101 122.5t-149.5 45q-79 0 -144 -42.5
t-103.5 -119.5t-38.5 -176q0 -94 35.5 -172t101 -124t149.5 -46q79 0 144 42.5zM411.5 748.5q-8.5 8.5 -8.5 22.5t8.5 22t22.5 8q13 0 21.5 -8t8.5 -22t-8 -22.5t-22 -8.5t-22.5 8.5zM236.5 748.5q-8.5 8.5 -8.5 22.5t8.5 22t22.5 8q13 0 21.5 -8t8.5 -22t-8 -22.5t-22 -8.5
t-22.5 8.5z" />
    <glyph glyph-name="multiply" unicode="&#xd7;" horiz-adv-x="321" 
d="M40 106q0 7 9 16l92 92q6 6 0 12l-92 92q-14 14 -7 21q4 2 6 2q5 0 16 -9l91 -91q3 -3 6 -3q4 0 8 4l90 90q6 6 11.5 7.5t8.5 -1.5q2 -1 2 -5q0 -8 -7 -15l-90 -89q-9 -9 -3 -15l93 -92q12 -14 5 -20q-2 -2 -5 -2q-7 0 -15 8l-92 92q-6 6 -11 0l-92 -92q-14 -13 -22 -7
q-2 2 -2 5z" />
    <glyph glyph-name="Oslash" unicode="&#xd8;" horiz-adv-x="692" 
d="M571 602q38 -48 59.5 -111.5t21.5 -138.5q0 -100 -38 -182.5t-108 -131t-160 -48.5q-61 0 -115 24t-96 69l-49 -58l-4 -2q-6 0 -10.5 5.5t-0.5 9.5l51 61q-39 48 -60.5 112.5t-21.5 140.5q0 99 38 180.5t108 129.5t160 48q61 0 115 -24t96 -69l49 58q2 3 5 3q6 0 10 -6
t0 -10zM79.5 222q19.5 -61 55.5 -108l409 488q-38 42 -88 65t-110 23q-79 0 -144 -42.5t-103.5 -119.5t-38.5 -176q0 -69 19.5 -130zM490 52.5q65 42.5 103.5 120.5t38.5 179q0 68 -19.5 128t-55.5 106l-409 -487q38 -42 88.5 -65.5t109.5 -23.5q79 0 144 42.5z" />
    <glyph glyph-name="Ugrave" unicode="&#xd9;" horiz-adv-x="712" 
d="M168 47q-62 57 -62 170v391q0 38 -4.5 52t-19 17.5t-53.5 3.5q-17 0 -17 10t17 10l178 -1q17 0 17 -10t-17 -10q-43 0 -58 -2.5t-19 -12.5t-4 -39v-404q0 -108 57.5 -160t171.5 -52q108 0 168 52.5t60 151.5v375q0 49 -4 65.5t-18.5 21t-57.5 4.5q-16 0 -16 10t16 10h90
q55 0 92 1q7 0 11 -3t4 -7t-4 -7t-11 -3q-42 0 -57.5 -4.5t-20 -22t-4.5 -65.5v-367q0 -115 -66 -173.5t-188 -58.5q-119 0 -181 57zM349 766.5q-48 26.5 -92 55t-45 36.5v2q0 5 10 7h4q5 0 13 -4l23 -15l76.5 -51t69.5 -51q0 -4 -5 -5q-6 -1 -54 25.5z" />
    <glyph glyph-name="Uacute" unicode="&#xda;" horiz-adv-x="712" 
d="M168 47q-62 57 -62 170v391q0 38 -4.5 52t-19 17.5t-53.5 3.5q-17 0 -17 10t17 10l178 -1q17 0 17 -10t-17 -10q-43 0 -58 -2.5t-19 -12.5t-4 -39v-404q0 -108 57.5 -160t171.5 -52q108 0 168 52.5t60 151.5v375q0 49 -4 65.5t-18.5 21t-57.5 4.5q-16 0 -16 10t16 10h90
q55 0 92 1q7 0 11 -3t4 -7t-4 -7t-11 -3q-42 0 -57.5 -4.5t-20 -22t-4.5 -65.5v-367q0 -115 -66 -173.5t-188 -58.5q-119 0 -181 57zM300 746q2 6 69.5 51l76.5 51l23 15q8 4 13 4q8 0 11.5 -2.5t2.5 -6.5q-1 -8 -45 -36.5t-92 -55t-54 -25.5q-5 1 -5 5z" />
    <glyph glyph-name="Ucircumflex" unicode="&#xdb;" horiz-adv-x="712" 
d="M168 47q-62 57 -62 170v391q0 38 -4.5 52t-19 17.5t-53.5 3.5q-17 0 -17 10t17 10l178 -1q17 0 17 -10t-17 -10q-43 0 -58 -2.5t-19 -12.5t-4 -39v-404q0 -108 57.5 -160t171.5 -52q108 0 168 52.5t60 151.5v375q0 49 -4 65.5t-18.5 21t-57.5 4.5q-16 0 -16 10t16 10h90
q55 0 92 1q7 0 11 -3t4 -7t-4 -7t-11 -3q-42 0 -57.5 -4.5t-20 -22t-4.5 -65.5v-367q0 -115 -66 -173.5t-188 -58.5q-119 0 -181 57zM214 739q0 11 56.5 69t77.5 72q3 2 6 2q2 0 6 -2q21 -14 77.5 -72t56.5 -69q0 -4 -4 -4q-1 0 -18 15.5t-29 28.5q-25 27 -55 53.5t-34 26.5
t-34 -26.5t-55 -53.5q-12 -13 -29 -28.5t-18 -15.5q-4 0 -4 4z" />
    <glyph glyph-name="Udieresis" unicode="&#xdc;" horiz-adv-x="712" 
d="M168 47q-62 57 -62 170v391q0 38 -4.5 52t-19 17.5t-53.5 3.5q-17 0 -17 10t17 10l178 -1q17 0 17 -10t-17 -10q-43 0 -58 -2.5t-19 -12.5t-4 -39v-404q0 -108 57.5 -160t171.5 -52q108 0 168 52.5t60 151.5v375q0 49 -4 65.5t-18.5 21t-57.5 4.5q-16 0 -16 10t16 10h90
q55 0 92 1q7 0 11 -3t4 -7t-4 -7t-11 -3q-42 0 -57.5 -4.5t-20 -22t-4.5 -65.5v-367q0 -115 -66 -173.5t-188 -58.5q-119 0 -181 57zM419.5 748.5q-8.5 8.5 -8.5 22.5t8.5 22t22.5 8q13 0 21.5 -8t8.5 -22t-8 -22.5t-22 -8.5t-22.5 8.5zM244.5 748.5q-8.5 8.5 -8.5 22.5
t8.5 22t22.5 8q13 0 21.5 -8t8.5 -22t-8 -22.5t-22 -8.5t-22.5 8.5z" />
    <glyph glyph-name="Yacute" unicode="&#xdd;" horiz-adv-x="660" 
d="M227 9q0 10 17 10q42 0 57 3t18.5 13t3.5 39v194q0 12 -12 32l-204 342q-13 21 -22 29t-21.5 9.5t-44.5 0.5q-14 0 -14 10q0 11 14 11l125 -1q41 0 59 1q13 0 13 -10t-13 -10q-49 1 -67 -1.5t-18 -12.5q0 -6 8 -19l202 -339q2 -4 5 -3.5t5 4.5l203 342q5 8 5 13
q0 8 -14 11.5t-47 3.5l-39 -1q-12 0 -12 11q0 4 3.5 7t8.5 3h73h123q13 0 13 -10q0 -11 -13 -11q-31 1 -45 -1.5t-20.5 -9t-17.5 -25.5l-204 -344q-12 -21 -12 -31v-177q0 -40 3.5 -53t18 -16.5t57.5 -3.5q17 0 17 -10t-17 -10h-178q-17 0 -17 10zM280 746q2 6 69.5 51
l76.5 51l23 15q8 4 13 4q8 0 11.5 -2.5t2.5 -6.5q-1 -8 -45 -36.5t-92 -55t-54 -25.5q-5 1 -5 5z" />
    <glyph glyph-name="Thorn" unicode="&#xde;" horiz-adv-x="538" 
d="M35 9q0 10 17 10q42 0 57 3t18.5 13t3.5 39v534q0 40 -3.5 53t-18 16.5t-57.5 3.5q-17 0 -17 10t17 10h181q17 0 17 -10t-17 -10q-42 0 -57 -3t-18.5 -13t-3.5 -39v-53q0 -16 7 -22.5t23 -6.5h98q116 0 176 -48.5t60 -142.5q0 -91 -59.5 -137.5t-174.5 -46.5h-100
q-17 0 -25 -9.5t-8 -31.5v-36q0 -40 3.5 -53t18 -16.5t57.5 -3.5q17 0 17 -10t-17 -10h-178q-17 0 -17 10zM282 189q107 0 161.5 41.5t54.5 122.5q0 84 -55.5 127.5t-162.5 43.5h-92q-20 0 -28.5 -7.5t-8.5 -24.5v-276q0 -14 8 -20.5t25 -6.5h98z" />
    <glyph glyph-name="germandbls" unicode="&#xdf;" horiz-adv-x="527" 
d="M56 -1l-32 -1q-19 0 -19 11t19 11q33 1 46 8t17 27t4 69v52v344q0 92 43.5 141t126.5 49q65 0 109.5 -37.5t44.5 -99.5q0 -55 -30.5 -94.5t-78.5 -56.5q-7 -3 -7 -5t8 -4q49 -10 90.5 -41t65.5 -78t24 -103q0 -66 -24 -111t-63.5 -67.5t-86.5 -22.5q-68 0 -108.5 36.5
t-40.5 90.5q0 8 3 12.5t7 4.5t7 -4.5t3 -12.5q0 -49 35.5 -78t93.5 -29q41 0 76 19.5t56.5 58.5t21.5 95q0 67 -30 116.5t-80.5 75.5t-110.5 26q-16 0 -21 2.5t-5 7.5t4 6.5t17 3.5q71 11 112.5 51.5t41.5 96.5q0 62 -40 91.5t-102 29.5q-70 0 -106 -44.5t-36 -130.5v-477
q0 -8 7.5 -15t7.5 -12q0 -12 -18 -12l-16 1q-12 1 -36 -1z" />
    <glyph glyph-name="agrave" unicode="&#xe0;" horiz-adv-x="493" 
d="M90.5 24q-35.5 34 -35.5 93q0 60 48.5 97t148.5 37q47 0 69 2t28.5 7.5t4.5 16.5l-4 31q-9 68 -41 103.5t-85 35.5q-55 0 -88 -27t-33 -74q0 -12 1 -18v-3q0 -9 -6 -15t-15 -6t-14.5 6.5t-5.5 19.5q0 36 20.5 67t57 50t83.5 19q59 0 98 -38.5t47 -109.5l24 -208
q6 -56 17 -76t28 -20q12 0 18 7t11 19q3 6 6 10.5t7 4.5q8 0 8 -12q0 -15 -13.5 -32t-35.5 -17q-29 0 -42.5 21t-20.5 68q-2 7 -5 7q-2 0 -21 -27t-58.5 -50t-100.5 -23q-65 0 -100.5 34zM284.5 34q40.5 24 62.5 63.5t17 83.5l-3 28q-1 15 -9 18.5t-36 3.5h-55
q-96 0 -140.5 -29.5t-44.5 -78.5q0 -113 119 -113q49 0 89.5 24zM209.5 550q-42.5 34 -81 70t-38.5 44q0 7 11 7q9 0 16 -7q33 -30 89.5 -84t56.5 -60q0 -4 -5 -4q-6 0 -48.5 34z" />
    <glyph glyph-name="aacute" unicode="&#xe1;" horiz-adv-x="493" 
d="M90.5 24q-35.5 34 -35.5 93q0 60 48.5 97t148.5 37q47 0 69 2t28.5 7.5t4.5 16.5l-4 31q-9 68 -41 103.5t-85 35.5q-55 0 -88 -27t-33 -74q0 -12 1 -18v-3q0 -9 -6 -15t-15 -6t-14.5 6.5t-5.5 19.5q0 36 20.5 67t57 50t83.5 19q59 0 98 -38.5t47 -109.5l24 -208
q6 -56 17 -76t28 -20q12 0 18 7t11 19q3 6 6 10.5t7 4.5q8 0 8 -12q0 -15 -13.5 -32t-35.5 -17q-29 0 -42.5 21t-20.5 68q-2 7 -5 7q-2 0 -21 -27t-58.5 -50t-100.5 -23q-65 0 -100.5 34zM284.5 34q40.5 24 62.5 63.5t17 83.5l-3 28q-1 15 -9 18.5t-36 3.5h-55
q-96 0 -140.5 -29.5t-44.5 -78.5q0 -113 119 -113q49 0 89.5 24zM181 520q0 6 56.5 60t89.5 84q7 7 16 7q11 0 11 -7q0 -8 -38.5 -44t-81 -70t-48.5 -34q-5 0 -5 4z" />
    <glyph glyph-name="acircumflex" unicode="&#xe2;" horiz-adv-x="493" 
d="M90.5 24q-35.5 34 -35.5 93q0 60 48.5 97t148.5 37q47 0 69 2t28.5 7.5t4.5 16.5l-4 31q-9 68 -41 103.5t-85 35.5q-55 0 -88 -27t-33 -74q0 -12 1 -18v-3q0 -9 -6 -15t-15 -6t-14.5 6.5t-5.5 19.5q0 36 20.5 67t57 50t83.5 19q59 0 98 -38.5t47 -109.5l24 -208
q6 -56 17 -76t28 -20q12 0 18 7t11 19q3 6 6 10.5t7 4.5q8 0 8 -12q0 -15 -13.5 -32t-35.5 -17q-29 0 -42.5 21t-20.5 68q-2 7 -5 7q-2 0 -21 -27t-58.5 -50t-100.5 -23q-65 0 -100.5 34zM284.5 34q40.5 24 62.5 63.5t17 83.5l-3 28q-1 15 -9 18.5t-36 3.5h-55
q-96 0 -140.5 -29.5t-44.5 -78.5q0 -113 119 -113q49 0 89.5 24zM82 527q0 5 4 10q14 24 62 70t68 59q3 2 6 2q2 0 6 -2q17 -10 63.5 -57t64.5 -72q4 -7 3.5 -11.5t-5.5 -4.5q-10 0 -18 11q-16 20 -61.5 66.5t-52.5 46.5q-8 0 -55.5 -47.5t-60.5 -65.5q-8 -11 -17 -11
q-7 0 -7 6z" />
    <glyph glyph-name="atilde" unicode="&#xe3;" horiz-adv-x="493" 
d="M90.5 24q-35.5 34 -35.5 93q0 60 48.5 97t148.5 37q47 0 69 2t28.5 7.5t4.5 16.5l-4 31q-9 68 -41 103.5t-85 35.5q-55 0 -88 -27t-33 -74q0 -12 1 -18v-3q0 -9 -6 -15t-15 -6t-14.5 6.5t-5.5 19.5q0 36 20.5 67t57 50t83.5 19q59 0 98 -38.5t47 -109.5l24 -208
q6 -56 17 -76t28 -20q12 0 18 7t11 19q3 6 6 10.5t7 4.5q8 0 8 -12q0 -15 -13.5 -32t-35.5 -17q-29 0 -42.5 21t-20.5 68q-2 7 -5 7q-2 0 -21 -27t-58.5 -50t-100.5 -23q-65 0 -100.5 34zM284.5 34q40.5 24 62.5 63.5t17 83.5l-3 28q-1 15 -9 18.5t-36 3.5h-55
q-96 0 -140.5 -29.5t-44.5 -78.5q0 -113 119 -113q49 0 89.5 24zM247 560.5q-15 6.5 -37 20.5q-21 14 -36.5 21t-35.5 7q-21 0 -36.5 -12.5t-20.5 -34.5q-3 -10 -8 -10q-6 0 -6 9q2 29 21 48.5t50 19.5q23 0 41.5 -8t42.5 -23q19 -12 31.5 -18t26.5 -6q22 0 37.5 13t20.5 34
q3 10 9 10q2 0 3.5 -2.5t1.5 -6.5q-2 -29 -21.5 -48.5t-50.5 -19.5q-18 0 -33 6.5z" />
    <glyph glyph-name="adieresis" unicode="&#xe4;" horiz-adv-x="493" 
d="M90.5 24q-35.5 34 -35.5 93q0 60 48.5 97t148.5 37q47 0 69 2t28.5 7.5t4.5 16.5l-4 31q-9 68 -41 103.5t-85 35.5q-55 0 -88 -27t-33 -74q0 -12 1 -18v-3q0 -9 -6 -15t-15 -6t-14.5 6.5t-5.5 19.5q0 36 20.5 67t57 50t83.5 19q59 0 98 -38.5t47 -109.5l24 -208
q6 -56 17 -76t28 -20q12 0 18 7t11 19q3 6 6 10.5t7 4.5q8 0 8 -12q0 -15 -13.5 -32t-35.5 -17q-29 0 -42.5 21t-20.5 68q-2 7 -5 7q-2 0 -21 -27t-58.5 -50t-100.5 -23q-65 0 -100.5 34zM284.5 34q40.5 24 62.5 63.5t17 83.5l-3 28q-1 15 -9 18.5t-36 3.5h-55
q-96 0 -140.5 -29.5t-44.5 -78.5q0 -113 119 -113q49 0 89.5 24zM287.5 580.5q-8.5 8.5 -8.5 22.5t8.5 22t22.5 8q13 0 21.5 -8t8.5 -22t-8 -22.5t-22 -8.5t-22.5 8.5zM112.5 580.5q-8.5 8.5 -8.5 22.5t8.5 22t22.5 8q13 0 21.5 -8t8.5 -22t-8 -22.5t-22 -8.5t-22.5 8.5z
" />
    <glyph glyph-name="aring" unicode="&#xe5;" horiz-adv-x="493" 
d="M90.5 24q-35.5 34 -35.5 93q0 60 48.5 97t148.5 37q47 0 69 2t28.5 7.5t4.5 16.5l-4 31q-9 68 -41 103.5t-85 35.5q-55 0 -88 -27t-33 -74q0 -12 1 -18v-3q0 -9 -6 -15t-15 -6t-14.5 6.5t-5.5 19.5q0 36 20.5 67t57 50t83.5 19q59 0 98 -38.5t47 -109.5l24 -208
q6 -56 17 -76t28 -20q12 0 18 7t11 19q3 6 6 10.5t7 4.5q8 0 8 -12q0 -15 -13.5 -32t-35.5 -17q-29 0 -42.5 21t-20.5 68q-2 7 -5 7q-2 0 -21 -27t-58.5 -50t-100.5 -23q-65 0 -100.5 34zM284.5 34q40.5 24 62.5 63.5t17 83.5l-3 28q-1 15 -9 18.5t-36 3.5h-55
q-96 0 -140.5 -29.5t-44.5 -78.5q0 -113 119 -113q49 0 89.5 24zM169.5 542.5q-21.5 21.5 -21.5 52.5t21.5 52.5t52.5 21.5t52.5 -21.5t21.5 -52.5t-21.5 -52.5t-52.5 -21.5t-52.5 21.5zM262.5 554.5q16.5 16.5 16.5 40.5t-17 40.5t-40 16.5t-40 -16.5t-17 -40.5
q0 -23 17 -40t40 -17q24 0 40.5 16.5z" />
    <glyph glyph-name="ae" unicode="&#xe6;" horiz-adv-x="766" 
d="M90.5 24.5q-35.5 34.5 -35.5 93.5t48.5 96t148.5 37q47 0 69 2t28.5 7.5t4.5 16.5l-4 31q-10 74 -35.5 106.5t-84.5 32.5q-58 0 -97 -31.5t-39 -87.5q0 -21 -18 -21q-6 0 -9.5 5t-3.5 15q0 37 21.5 69t60 51t85.5 19q62 0 97 -37.5t44 -115.5q20 69 73 111t117 42
q46 0 85 -20t62 -54.5t23 -75.5q0 -24 -12.5 -32.5t-38.5 -12.5l-289 -43q-10 -2 -10 -16q0 -48 20 -94.5t60 -77t95 -30.5q105 0 169 93q3 4 6 7.5t6 3.5q5 0 8 -4.5t-1 -10.5q-31 -51 -78.5 -80t-105.5 -29q-66 0 -111.5 34t-68.5 94q-20 -48 -64 -88t-125 -40
q-65 0 -100.5 34.5zM678 291q19 3 26 8t7 17q0 33 -18 63t-53 49t-83 19q-40 0 -80.5 -24t-67 -66.5t-26.5 -93.5q0 -10 3 -12.5t10 -1.5zM284.5 34q40.5 24 62.5 63.5t17 83.5l-3 28q-1 15 -9 18.5t-36 3.5h-55q-95 0 -140 -29.5t-45 -77.5q0 -114 119 -114q49 0 89.5 24z
" />
    <glyph glyph-name="ccedilla" unicode="&#xe7;" horiz-adv-x="466" 
d="M424.5 109q2.5 -5 -0.5 -10q-60 -102 -168 -109q-1 -17 9.5 -26t33.5 -17q27 -11 41.5 -24t14.5 -38q0 -35 -25.5 -54.5t-67.5 -19.5q-68 0 -105 34q-5 5 -5 10q0 3 2 5.5t6 2.5q6 0 12 -5q32 -27 90 -27q33 0 53 14.5t20 38.5q0 18 -12 26.5t-37 19.5q-27 11 -39.5 21
t-12.5 29q0 6 1 10q-63 2 -107 34.5t-66 86.5t-22 118q0 69 26 123t72 84t105 30q42 0 80 -17.5t61.5 -49.5t23.5 -72q0 -11 -6 -17t-15 -6q-10 0 -16 7t-5 18q4 48 -27 83t-103 35q-46 0 -86.5 -27t-65 -76t-24.5 -112q0 -60 20.5 -111t61 -81t97.5 -30q103 0 166 93
q4 6 6.5 8.5t5.5 2.5q5 0 7.5 -5z" />
    <glyph glyph-name="egrave" unicode="&#xe8;" horiz-adv-x="446" 
d="M130 23q-45 33 -67.5 89.5t-22.5 125.5q0 66 28 118t74 81t99 29q46 0 85 -20t62 -54.5t23 -75.5q0 -24 -12.5 -32.5t-38.5 -12.5l-289 -43q-10 -2 -10 -16q0 -48 20 -94.5t60 -77t95 -30.5q105 0 169 93q3 4 6 7.5t6 3.5q5 0 8 -4.5t-1 -10.5q-31 -51 -78.5 -80
t-105.5 -29q-65 0 -110 33zM358 291q19 3 26 8t7 17q0 33 -18 63t-53 49t-83 19q-40 0 -80.5 -24t-67 -66.5t-26.5 -93.5q0 -10 3 -12.5t10 -1.5zM224.5 550q-42.5 34 -81 70t-38.5 44q0 7 11 7q9 0 16 -7q33 -30 89.5 -84t56.5 -60q0 -4 -5 -4q-6 0 -48.5 34z" />
    <glyph glyph-name="eacute" unicode="&#xe9;" horiz-adv-x="446" 
d="M130 23q-45 33 -67.5 89.5t-22.5 125.5q0 66 28 118t74 81t99 29q46 0 85 -20t62 -54.5t23 -75.5q0 -24 -12.5 -32.5t-38.5 -12.5l-289 -43q-10 -2 -10 -16q0 -48 20 -94.5t60 -77t95 -30.5q105 0 169 93q3 4 6 7.5t6 3.5q5 0 8 -4.5t-1 -10.5q-31 -51 -78.5 -80
t-105.5 -29q-65 0 -110 33zM358 291q19 3 26 8t7 17q0 33 -18 63t-53 49t-83 19q-40 0 -80.5 -24t-67 -66.5t-26.5 -93.5q0 -10 3 -12.5t10 -1.5zM196 520q0 6 56.5 60t89.5 84q7 7 16 7q11 0 11 -7q0 -8 -38.5 -44t-81 -70t-48.5 -34q-5 0 -5 4z" />
    <glyph glyph-name="ecircumflex" unicode="&#xea;" horiz-adv-x="446" 
d="M130 23q-45 33 -67.5 89.5t-22.5 125.5q0 66 28 118t74 81t99 29q46 0 85 -20t62 -54.5t23 -75.5q0 -24 -12.5 -32.5t-38.5 -12.5l-289 -43q-10 -2 -10 -16q0 -48 20 -94.5t60 -77t95 -30.5q105 0 169 93q3 4 6 7.5t6 3.5q5 0 8 -4.5t-1 -10.5q-31 -51 -78.5 -80
t-105.5 -29q-65 0 -110 33zM358 291q19 3 26 8t7 17q0 33 -18 63t-53 49t-83 19q-40 0 -80.5 -24t-67 -66.5t-26.5 -93.5q0 -10 3 -12.5t10 -1.5zM97 527q0 5 4 10q14 24 62 70t68 59q3 2 6 2q2 0 6 -2q17 -10 63.5 -57t64.5 -72q4 -7 3.5 -11.5t-5.5 -4.5q-10 0 -18 11
q-16 20 -61.5 66.5t-52.5 46.5q-8 0 -55.5 -47.5t-60.5 -65.5q-8 -11 -17 -11q-7 0 -7 6z" />
    <glyph glyph-name="edieresis" unicode="&#xeb;" horiz-adv-x="446" 
d="M130 23q-45 33 -67.5 89.5t-22.5 125.5q0 66 28 118t74 81t99 29q46 0 85 -20t62 -54.5t23 -75.5q0 -24 -12.5 -32.5t-38.5 -12.5l-289 -43q-10 -2 -10 -16q0 -48 20 -94.5t60 -77t95 -30.5q105 0 169 93q3 4 6 7.5t6 3.5q5 0 8 -4.5t-1 -10.5q-31 -51 -78.5 -80
t-105.5 -29q-65 0 -110 33zM358 291q19 3 26 8t7 17q0 33 -18 63t-53 49t-83 19q-40 0 -80.5 -24t-67 -66.5t-26.5 -93.5q0 -10 3 -12.5t10 -1.5zM302.5 580.5q-8.5 8.5 -8.5 22.5t8.5 22t22.5 8q13 0 21.5 -8t8.5 -22t-8 -22.5t-22 -8.5t-22.5 8.5zM127.5 580.5
q-8.5 8.5 -8.5 22.5t8.5 22t22.5 8q13 0 21.5 -8t8.5 -22t-8 -22.5t-22 -8.5t-22.5 8.5z" />
    <glyph glyph-name="igrave" unicode="&#xec;" horiz-adv-x="238" 
d="M38.5 0.5q-3.5 2.5 -3.5 6.5q0 10 13 10q35 0 48 3t16 12t3 36v338q0 15 -2.5 21t-12.5 6q-7 0 -12 -1q-18 -4 -27 -7q-20 -5 -27 -5q-8 0 -9 6v2q0 11 15 13q17 3 35 8.5t25 7.5q17 6 22 6q13 0 13 -18v-377q0 -27 3 -36t16.5 -12t49.5 -3q6 0 10 -3t4 -7t-3 -6.5
t-7 -2.5l-80 1l-80 -1q-6 0 -9.5 2.5zM86.5 550q-42.5 34 -81 70t-38.5 44q0 7 11 7q9 0 16 -7q33 -30 89.5 -84t56.5 -60q0 -4 -5 -4q-6 0 -48.5 34z" />
    <glyph glyph-name="iacute" unicode="&#xed;" horiz-adv-x="238" 
d="M38.5 0.5q-3.5 2.5 -3.5 6.5q0 10 13 10q35 0 48 3t16 12t3 36v338q0 15 -2.5 21t-12.5 6q-7 0 -12 -1q-18 -4 -27 -7q-20 -5 -27 -5q-8 0 -9 6v2q0 11 15 13q17 3 35 8.5t25 7.5q17 6 22 6q13 0 13 -18v-377q0 -27 3 -36t16.5 -12t49.5 -3q6 0 10 -3t4 -7t-3 -6.5
t-7 -2.5l-80 1l-80 -1q-6 0 -9.5 2.5zM58 520q0 6 56.5 60t89.5 84q7 7 16 7q11 0 11 -7q0 -8 -38.5 -44t-81 -70t-48.5 -34q-5 0 -5 4z" />
    <glyph glyph-name="icircumflex" unicode="&#xee;" horiz-adv-x="238" 
d="M38.5 0.5q-3.5 2.5 -3.5 6.5q0 10 13 10q35 0 48 3t16 12t3 36v338q0 15 -2.5 21t-12.5 6q-7 0 -12 -1q-18 -4 -27 -7q-20 -5 -27 -5q-8 0 -9 6v2q0 11 15 13q17 3 35 8.5t25 7.5q17 6 22 6q13 0 13 -18v-377q0 -27 3 -36t16.5 -12t49.5 -3q6 0 10 -3t4 -7t-3 -6.5
t-7 -2.5l-80 1l-80 -1q-6 0 -9.5 2.5zM-41 527q0 5 4 10q14 24 62 70t68 59q3 2 6 2q2 0 6 -2q17 -10 63.5 -57t64.5 -72q4 -7 3.5 -11.5t-5.5 -4.5q-10 0 -18 11q-16 20 -61.5 66.5t-52.5 46.5q-8 0 -55.5 -47.5t-60.5 -65.5q-8 -11 -17 -11q-7 0 -7 6z" />
    <glyph glyph-name="idieresis" unicode="&#xef;" horiz-adv-x="238" 
d="M38.5 0.5q-3.5 2.5 -3.5 6.5q0 10 13 10q35 0 48 3t16 12t3 36v338q0 15 -2.5 21t-12.5 6q-7 0 -12 -1q-18 -4 -27 -7q-20 -5 -27 -5q-8 0 -9 6v2q0 11 15 13q17 3 35 8.5t25 7.5q17 6 22 6q13 0 13 -18v-377q0 -27 3 -36t16.5 -12t49.5 -3q6 0 10 -3t4 -7t-3 -6.5
t-7 -2.5l-80 1l-80 -1q-6 0 -9.5 2.5zM164.5 580.5q-8.5 8.5 -8.5 22.5t8.5 22t22.5 8q13 0 21.5 -8t8.5 -22t-8 -22.5t-22 -8.5t-22.5 8.5zM-10.5 580.5q-8.5 8.5 -8.5 22.5t8.5 22t22.5 8q13 0 21.5 -8t8.5 -22t-8 -22.5t-22 -8.5t-22.5 8.5z" />
    <glyph glyph-name="eth" unicode="&#xf0;" horiz-adv-x="501" 
d="M325 635q65 -60 100.5 -162.5t35.5 -240.5q0 -74 -26 -128.5t-73 -84t-109 -29.5q-63 0 -111 29t-75 84t-27 131q0 63 26 116t73 84.5t106 31.5t106.5 -27.5t71.5 -70.5q1 -4 5 -4q5 0 3 9q-30 171 -124 252l-107 -62q-3 -2 -7 -2q-6 0 -6 9q0 6 4 9l101 58
q-59 46 -138 53q-7 1 -11 4t-4 7t4.5 7t10.5 2q87 -7 156 -62l126 72l6 2q5 0 5 -8t-4 -10zM390 71q49 60 49 159q0 67 -25 115.5t-69 74t-99 25.5t-97 -28.5t-64.5 -76.5t-22.5 -105q0 -110 52 -167t138 -57q89 0 138 60z" />
    <glyph glyph-name="ntilde" unicode="&#xf1;" horiz-adv-x="564" 
d="M35 7q0 10 13 10q35 0 48 3t16 12t3 36v338q0 15 -2.5 21t-12.5 6q-7 0 -12 -1q-18 -4 -27 -7q-20 -5 -27 -5q-8 0 -9 6v2q0 11 15 13q17 3 35 8.5t25 7.5q17 6 22 6q13 0 13 -18v-74q0 -5 0.5 -7.5t2.5 -2.5q2 2 23.5 53.5t132.5 51.5q135 0 155 -182l22 -197
q4 -35 8.5 -47t17.5 -16t49 -4q18 0 18 -11q0 -10 -12 -10l-37 1q-19 1 -46 1q-26 0 -43 -1l-34 -1q-11 0 -15.5 2t-4.5 8q0 11 18 11q29 0 41 1.5t17.5 8t5.5 22.5q0 6 -4 46l-22 181q-10 86 -41.5 126.5t-96.5 40.5q-38 0 -73.5 -20t-58.5 -63.5t-23 -108.5v-186
q0 -27 3 -36t16.5 -12t49.5 -3q6 0 10 -3t4 -7q0 -8 -10 -8l-80 1l-80 -1q-13 0 -13 8zM319 560.5q-15 6.5 -37 20.5q-21 14 -36.5 21t-35.5 7q-21 0 -36.5 -12.5t-20.5 -34.5q-3 -10 -8 -10q-6 0 -6 9q2 29 21 48.5t50 19.5q23 0 41.5 -8t42.5 -23q19 -12 31.5 -18t26.5 -6
q22 0 37.5 13t20.5 34q3 10 9 10q2 0 3.5 -2.5t1.5 -6.5q-2 -29 -21.5 -48.5t-50.5 -19.5q-18 0 -33 6.5z" />
    <glyph glyph-name="ograve" unicode="&#xf2;" horiz-adv-x="501" 
d="M142 20.5q-48 30.5 -75 84.5t-27 123t27 123t75 84.5t109 30.5t109 -30t74.5 -84.5t26.5 -123.5t-26.5 -123.5t-74.5 -84.5t-109 -30t-109 30.5zM349 38.5q43 27.5 66.5 76.5t23.5 113t-23.5 113t-66.5 76.5t-98 27.5t-98 -27.5t-67 -76.5t-24 -113t24 -113t67 -76.5
t98 -27.5t98 27.5zM238.5 550q-42.5 34 -81 70t-38.5 44q0 7 11 7q9 0 16 -7q33 -30 89.5 -84t56.5 -60q0 -4 -5 -4q-6 0 -48.5 34z" />
    <glyph glyph-name="oacute" unicode="&#xf3;" horiz-adv-x="501" 
d="M142 20.5q-48 30.5 -75 84.5t-27 123t27 123t75 84.5t109 30.5t109 -30t74.5 -84.5t26.5 -123.5t-26.5 -123.5t-74.5 -84.5t-109 -30t-109 30.5zM349 38.5q43 27.5 66.5 76.5t23.5 113t-23.5 113t-66.5 76.5t-98 27.5t-98 -27.5t-67 -76.5t-24 -113t24 -113t67 -76.5
t98 -27.5t98 27.5zM210 520q0 6 56.5 60t89.5 84q7 7 16 7q11 0 11 -7q0 -8 -38.5 -44t-81 -70t-48.5 -34q-5 0 -5 4z" />
    <glyph glyph-name="ocircumflex" unicode="&#xf4;" horiz-adv-x="501" 
d="M142 20.5q-48 30.5 -75 84.5t-27 123t27 123t75 84.5t109 30.5t109 -30t74.5 -84.5t26.5 -123.5t-26.5 -123.5t-74.5 -84.5t-109 -30t-109 30.5zM349 38.5q43 27.5 66.5 76.5t23.5 113t-23.5 113t-66.5 76.5t-98 27.5t-98 -27.5t-67 -76.5t-24 -113t24 -113t67 -76.5
t98 -27.5t98 27.5zM111 527q0 5 4 10q14 24 62 70t68 59q3 2 6 2q2 0 6 -2q17 -10 63.5 -57t64.5 -72q4 -7 3.5 -11.5t-5.5 -4.5q-10 0 -18 11q-16 20 -61.5 66.5t-52.5 46.5q-8 0 -55.5 -47.5t-60.5 -65.5q-8 -11 -17 -11q-7 0 -7 6z" />
    <glyph glyph-name="otilde" unicode="&#xf5;" horiz-adv-x="501" 
d="M142 20.5q-48 30.5 -75 84.5t-27 123t27 123t75 84.5t109 30.5t109 -30t74.5 -84.5t26.5 -123.5t-26.5 -123.5t-74.5 -84.5t-109 -30t-109 30.5zM349 38.5q43 27.5 66.5 76.5t23.5 113t-23.5 113t-66.5 76.5t-98 27.5t-98 -27.5t-67 -76.5t-24 -113t24 -113t67 -76.5
t98 -27.5t98 27.5zM276 560.5q-15 6.5 -37 20.5q-21 14 -36.5 21t-35.5 7q-21 0 -36.5 -12.5t-20.5 -34.5q-3 -10 -8 -10q-6 0 -6 9q2 29 21 48.5t50 19.5q23 0 41.5 -8t42.5 -23q19 -12 31.5 -18t26.5 -6q22 0 37.5 13t20.5 34q3 10 9 10q2 0 3.5 -2.5t1.5 -6.5
q-2 -29 -21.5 -48.5t-50.5 -19.5q-18 0 -33 6.5z" />
    <glyph glyph-name="odieresis" unicode="&#xf6;" horiz-adv-x="501" 
d="M142 20.5q-48 30.5 -75 84.5t-27 123t27 123t75 84.5t109 30.5t109 -30t74.5 -84.5t26.5 -123.5t-26.5 -123.5t-74.5 -84.5t-109 -30t-109 30.5zM349 38.5q43 27.5 66.5 76.5t23.5 113t-23.5 113t-66.5 76.5t-98 27.5t-98 -27.5t-67 -76.5t-24 -113t24 -113t67 -76.5
t98 -27.5t98 27.5zM316.5 580.5q-8.5 8.5 -8.5 22.5t8.5 22t22.5 8q13 0 21.5 -8t8.5 -22t-8 -22.5t-22 -8.5t-22.5 8.5zM141.5 580.5q-8.5 8.5 -8.5 22.5t8.5 22t22.5 8q13 0 21.5 -8t8.5 -22t-8 -22.5t-22 -8.5t-22.5 8.5z" />
    <glyph glyph-name="divide" unicode="&#xf7;" horiz-adv-x="424" 
d="M67 232q-27 0 -27 10t27 10h293q11 0 17.5 -2.5t6.5 -7.5t-6.5 -7.5t-17.5 -2.5h-293zM204.5 81.5q-10.5 10.5 -10.5 24.5q0 18 12.5 31t30.5 13q16 0 27 -11t11 -27q0 -17 -13.5 -29t-31.5 -12q-15 0 -25.5 10.5zM204.5 357.5q-10.5 10.5 -10.5 24.5q0 18 12.5 31
t30.5 13q16 0 27 -11t11 -27q0 -17 -13.5 -29t-31.5 -12q-15 0 -25.5 10.5z" />
    <glyph glyph-name="oslash" unicode="&#xf8;" horiz-adv-x="501" 
d="M405 397q27 -32 41.5 -75.5t14.5 -93.5q0 -69 -26.5 -123.5t-74.5 -84.5t-109 -30q-42 0 -78 14t-63 41l-31 -36q-3 -3 -5 -3q-6 0 -10 6t0 10l32 38q-27 32 -41.5 75t-14.5 93q0 69 27 123t75 84.5t109 30.5q83 0 140 -55l30 36q3 3 6 3q6 0 10 -5.5t0 -9.5zM74.5 143.5
q12.5 -38.5 35.5 -66.5l267 318q-50 50 -126 50q-55 0 -98 -27.5t-67 -76.5t-24 -113q0 -46 12.5 -84.5zM349 38.5q43 27.5 66.5 76.5t23.5 113q0 93 -48 152l-268 -318q51 -51 128 -51q55 0 98 27.5z" />
    <glyph glyph-name="ugrave" unicode="&#xf9;" horiz-adv-x="530" 
d="M130.5 39.5q-40.5 48.5 -40.5 141.5v224q0 15 -2.5 21t-12.5 6q-7 0 -12 -1q-18 -4 -27 -7q-20 -5 -27 -5q-8 0 -9 6v2q0 11 15 13q17 3 35 8.5t25 7.5q16 6 22 6q13 0 13 -18v-258q0 -87 35.5 -131t104.5 -44q38 0 73.5 20t58.5 63.5t23 108.5v202q0 15 -2.5 21t-12.5 6
q-7 0 -12 -1q-18 -4 -27 -7q-20 -5 -27 -5q-8 0 -9 6v2q0 11 15 13q17 3 35 8.5t25 7.5q17 6 22 6q13 0 13 -18v-393q0 -15 2.5 -21t12.5 -6q7 0 12 1q18 4 27 7q20 5 27 5q8 0 9 -6v-2q0 -11 -15 -13q-17 -3 -35 -8.5t-25 -7.5q-16 -6 -22 -6q-13 0 -13 18v70q0 14 -3 14
q-1 0 -23 -52.5t-134 -52.5q-74 0 -114.5 48.5zM254.5 550q-42.5 34 -81 70t-38.5 44q0 7 11 7q9 0 16 -7q33 -30 89.5 -84t56.5 -60q0 -4 -5 -4q-6 0 -48.5 34z" />
    <glyph glyph-name="uacute" unicode="&#xfa;" horiz-adv-x="530" 
d="M130.5 39.5q-40.5 48.5 -40.5 141.5v224q0 15 -2.5 21t-12.5 6q-7 0 -12 -1q-18 -4 -27 -7q-20 -5 -27 -5q-8 0 -9 6v2q0 11 15 13q17 3 35 8.5t25 7.5q16 6 22 6q13 0 13 -18v-258q0 -87 35.5 -131t104.5 -44q38 0 73.5 20t58.5 63.5t23 108.5v202q0 15 -2.5 21t-12.5 6
q-7 0 -12 -1q-18 -4 -27 -7q-20 -5 -27 -5q-8 0 -9 6v2q0 11 15 13q17 3 35 8.5t25 7.5q17 6 22 6q13 0 13 -18v-393q0 -15 2.5 -21t12.5 -6q7 0 12 1q18 4 27 7q20 5 27 5q8 0 9 -6v-2q0 -11 -15 -13q-17 -3 -35 -8.5t-25 -7.5q-16 -6 -22 -6q-13 0 -13 18v70q0 14 -3 14
q-1 0 -23 -52.5t-134 -52.5q-74 0 -114.5 48.5zM226 520q0 6 56.5 60t89.5 84q7 7 16 7q11 0 11 -7q0 -8 -38.5 -44t-81 -70t-48.5 -34q-5 0 -5 4z" />
    <glyph glyph-name="ucircumflex" unicode="&#xfb;" horiz-adv-x="530" 
d="M130.5 39.5q-40.5 48.5 -40.5 141.5v224q0 15 -2.5 21t-12.5 6q-7 0 -12 -1q-18 -4 -27 -7q-20 -5 -27 -5q-8 0 -9 6v2q0 11 15 13q17 3 35 8.5t25 7.5q16 6 22 6q13 0 13 -18v-258q0 -87 35.5 -131t104.5 -44q38 0 73.5 20t58.5 63.5t23 108.5v202q0 15 -2.5 21t-12.5 6
q-7 0 -12 -1q-18 -4 -27 -7q-20 -5 -27 -5q-8 0 -9 6v2q0 11 15 13q17 3 35 8.5t25 7.5q17 6 22 6q13 0 13 -18v-393q0 -15 2.5 -21t12.5 -6q7 0 12 1q18 4 27 7q20 5 27 5q8 0 9 -6v-2q0 -11 -15 -13q-17 -3 -35 -8.5t-25 -7.5q-16 -6 -22 -6q-13 0 -13 18v70q0 14 -3 14
q-1 0 -23 -52.5t-134 -52.5q-74 0 -114.5 48.5zM127 527q0 5 4 10q14 24 62 70t68 59q3 2 6 2q2 0 6 -2q17 -10 63.5 -57t64.5 -72q4 -7 3.5 -11.5t-5.5 -4.5q-10 0 -18 11q-16 20 -61.5 66.5t-52.5 46.5q-8 0 -55.5 -47.5t-60.5 -65.5q-8 -11 -17 -11q-7 0 -7 6z" />
    <glyph glyph-name="udieresis" unicode="&#xfc;" horiz-adv-x="530" 
d="M130.5 39.5q-40.5 48.5 -40.5 141.5v224q0 15 -2.5 21t-12.5 6q-7 0 -12 -1q-18 -4 -27 -7q-20 -5 -27 -5q-8 0 -9 6v2q0 11 15 13q17 3 35 8.5t25 7.5q16 6 22 6q13 0 13 -18v-258q0 -87 35.5 -131t104.5 -44q38 0 73.5 20t58.5 63.5t23 108.5v202q0 15 -2.5 21t-12.5 6
q-7 0 -12 -1q-18 -4 -27 -7q-20 -5 -27 -5q-8 0 -9 6v2q0 11 15 13q17 3 35 8.5t25 7.5q17 6 22 6q13 0 13 -18v-393q0 -15 2.5 -21t12.5 -6q7 0 12 1q18 4 27 7q20 5 27 5q8 0 9 -6v-2q0 -11 -15 -13q-17 -3 -35 -8.5t-25 -7.5q-16 -6 -22 -6q-13 0 -13 18v70q0 14 -3 14
q-1 0 -23 -52.5t-134 -52.5q-74 0 -114.5 48.5zM332.5 580.5q-8.5 8.5 -8.5 22.5t8.5 22t22.5 8q13 0 21.5 -8t8.5 -22t-8 -22.5t-22 -8.5t-22.5 8.5zM157.5 580.5q-8.5 8.5 -8.5 22.5t8.5 22t22.5 8q13 0 21.5 -8t8.5 -22t-8 -22.5t-22 -8.5t-22.5 8.5z" />
    <glyph glyph-name="yacute" unicode="&#xfd;" horiz-adv-x="466" 
d="M-6 -170.5q-20 16.5 -20 44.5q0 12 6.5 19.5t16.5 7.5q9 0 14.5 -7t4.5 -19q-2 -22 7.5 -32t26.5 -10q54 0 173 146q5 7 2 18q-9 26 -38 120q-22 70 -46.5 144t-47.5 131q-9 21 -15.5 30t-17.5 11.5t-35 2.5q-20 0 -20 11q0 10 15 10q39 -1 86 -1q48 0 87 1q14 0 14 -10
q0 -11 -16 -11q-46 0 -63.5 -5.5t-17.5 -18.5q0 -7 7 -25q20 -50 42 -115.5t41 -128.5q24 -82 40 -127q2 -5 5 -5t5 3q50 73 81 121.5t53 102t22 99.5q0 41 -12.5 61.5t-38.5 28.5q-7 2 -11.5 8t-4.5 13q0 9 6 13q5 5 13 5q14 0 28 -11q11 -9 17 -19q23 -35 23 -97
q0 -51 -21.5 -104t-68.5 -129q-37 -61 -83 -121q-58 -75 -112.5 -123.5t-93.5 -48.5q-33 0 -53 16.5zM202 520q0 6 56.5 60t89.5 84q7 7 16 7q11 0 11 -7q0 -8 -38.5 -44t-81 -70t-48.5 -34q-5 0 -5 4z" />
    <glyph glyph-name="thorn" unicode="&#xfe;" horiz-adv-x="526" 
d="M33.5 -179.5q-3.5 2.5 -3.5 6.5q0 10 13 10q35 0 48 3t16 12t3 36v761q0 15 -2.5 21t-12.5 6q-7 0 -12 -1q-18 -4 -27 -7q-20 -5 -27 -5q-8 0 -9 6v2q0 11 15 13q17 3 35 8.5t25 7.5q16 6 22 6q13 0 13 -18v-323q0 -11 3 -11q2 2 29.5 57t139.5 55q52 0 94 -28.5
t66 -82.5t24 -127q0 -69 -24.5 -123t-69 -84.5t-100.5 -30.5q-45 0 -77 16.5t-59 48.5q-2 2 -8.5 10t-9.5 8q-8 0 -8 -24v-161q0 -27 3 -36t16.5 -12t49.5 -3q6 0 10 -3t4 -7t-3 -6.5t-7 -2.5l-80 1l-80 -1q-6 0 -9.5 2.5zM381.5 37.5q39.5 27.5 61 77t21.5 113.5
q0 67 -21 116t-58 75t-83 26q-83 0 -127.5 -58t-44.5 -146v-20q0 -105 43.5 -158t118.5 -53q50 0 89.5 27.5z" />
    <glyph glyph-name="ydieresis" unicode="&#xff;" horiz-adv-x="466" 
d="M-6 -170.5q-20 16.5 -20 44.5q0 12 6.5 19.5t16.5 7.5q9 0 14.5 -7t4.5 -19q-2 -22 7.5 -32t26.5 -10q54 0 173 146q5 7 2 18q-9 26 -38 120q-22 70 -46.5 144t-47.5 131q-9 21 -15.5 30t-17.5 11.5t-35 2.5q-20 0 -20 11q0 10 15 10q39 -1 86 -1q48 0 87 1q14 0 14 -10
q0 -11 -16 -11q-46 0 -63.5 -5.5t-17.5 -18.5q0 -7 7 -25q20 -50 42 -115.5t41 -128.5q24 -82 40 -127q2 -5 5 -5t5 3q50 73 81 121.5t53 102t22 99.5q0 41 -12.5 61.5t-38.5 28.5q-7 2 -11.5 8t-4.5 13q0 9 6 13q5 5 13 5q14 0 28 -11q11 -9 17 -19q23 -35 23 -97
q0 -51 -21.5 -104t-68.5 -129q-37 -61 -83 -121q-58 -75 -112.5 -123.5t-93.5 -48.5q-33 0 -53 16.5zM308.5 580.5q-8.5 8.5 -8.5 22.5t8.5 22t22.5 8q13 0 21.5 -8t8.5 -22t-8 -22.5t-22 -8.5t-22.5 8.5zM133.5 580.5q-8.5 8.5 -8.5 22.5t8.5 22t22.5 8q13 0 21.5 -8
t8.5 -22t-8 -22.5t-22 -8.5t-22.5 8.5z" />
    <glyph glyph-name="Amacron" unicode="&#x100;" horiz-adv-x="701" 
d="M17 -2q-12 0 -12 10q0 5 5 7.5t10 2.5q34 0 48 3.5t22 14.5t19 39l224 581q3 8 3 12q0 12 -25 12q-15 0 -15 10t15 10h27q8 0 12 -3.5t8 -13.5l234 -608q11 -28 19 -39t22 -14.5t48 -3.5q15 0 15 -10q0 -12 -15 -10q-19 1 -88 1q-70 0 -93 -1q-17 0 -17 10t17 10
q49 0 65 3.5t16 17.5q0 9 -10 36l-51 132q-6 14 -11.5 19t-22.5 5h-261q-23 0 -30.5 -4t-13.5 -21l-51 -131q-10 -27 -10 -36q0 -14 16 -17.5t63 -3.5q19 0 19 -9q0 -11 -19 -11q-21 1 -91 1q-68 0 -88 -1h-3zM482 251q15 0 15 9q0 8 -4 17l-138 358q-5 12 -9 0l-140 -363
q-2 -8 -2 -10q0 -7 5 -9t16 -2h257zM222.5 761q1.5 5 1.5 6q3 10 10 10l110 -1l110 1q6 0 6 -3t-1 -7q-4 -11 -10 -11q-29 1 -111 1t-110 -1q-7 0 -5.5 5z" />
    <glyph glyph-name="amacron" unicode="&#x101;" horiz-adv-x="493" 
d="M90.5 24q-35.5 34 -35.5 93q0 60 48.5 97t148.5 37q47 0 69 2t28.5 7.5t4.5 16.5l-4 31q-9 68 -41 103.5t-85 35.5q-55 0 -88 -27t-33 -74q0 -12 1 -18v-3q0 -9 -6 -15t-15 -6t-14.5 6.5t-5.5 19.5q0 36 20.5 67t57 50t83.5 19q59 0 98 -38.5t47 -109.5l24 -208
q6 -56 17 -76t28 -20q12 0 18 7t11 19q3 6 6 10.5t7 4.5q8 0 8 -12q0 -15 -13.5 -32t-35.5 -17q-29 0 -42.5 21t-20.5 68q-2 7 -5 7q-2 0 -21 -27t-58.5 -50t-100.5 -23q-65 0 -100.5 34zM284.5 34q40.5 24 62.5 63.5t17 83.5l-3 28q-1 15 -9 18.5t-36 3.5h-55
q-96 0 -140.5 -29.5t-44.5 -78.5q0 -113 119 -113q49 0 89.5 24zM103.5 586q1.5 5 1.5 6q3 10 10 10l110 -1l110 1q6 0 6 -3t-1 -7q-4 -11 -10 -11q-29 1 -111 1t-110 -1q-7 0 -5.5 5z" />
    <glyph glyph-name="Abreve" unicode="&#x102;" horiz-adv-x="701" 
d="M17 -2q-12 0 -12 10q0 5 5 7.5t10 2.5q34 0 48 3.5t22 14.5t19 39l224 581q3 8 3 12q0 12 -25 12q-15 0 -15 10t15 10h27q8 0 12 -3.5t8 -13.5l234 -608q11 -28 19 -39t22 -14.5t48 -3.5q15 0 15 -10q0 -12 -15 -10q-19 1 -88 1q-70 0 -93 -1q-17 0 -17 10t17 10
q49 0 65 3.5t16 17.5q0 9 -10 36l-51 132q-6 14 -11.5 19t-22.5 5h-261q-23 0 -30.5 -4t-13.5 -21l-51 -131q-10 -27 -10 -36q0 -14 16 -17.5t63 -3.5q19 0 19 -9q0 -11 -19 -11q-21 1 -91 1q-68 0 -88 -1h-3zM482 251q15 0 15 9q0 8 -4 17l-138 358q-5 12 -9 0l-140 -363
q-2 -8 -2 -10q0 -7 5 -9t16 -2h257zM249.5 764q-36.5 31 -43.5 88v2q0 4 2.5 7t6.5 3q8 0 10 -10q6 -47 37.5 -74t80.5 -27q47 0 79.5 26t39.5 75q2 10 10 10q5 0 7.5 -4t1.5 -10q-6 -54 -42.5 -85.5t-95.5 -31.5q-57 0 -93.5 31z" />
    <glyph glyph-name="abreve" unicode="&#x103;" horiz-adv-x="493" 
d="M90.5 24q-35.5 34 -35.5 93q0 60 48.5 97t148.5 37q47 0 69 2t28.5 7.5t4.5 16.5l-4 31q-9 68 -41 103.5t-85 35.5q-55 0 -88 -27t-33 -74q0 -12 1 -18v-3q0 -9 -6 -15t-15 -6t-14.5 6.5t-5.5 19.5q0 36 20.5 67t57 50t83.5 19q59 0 98 -38.5t47 -109.5l24 -208
q6 -56 17 -76t28 -20q12 0 18 7t11 19q3 6 6 10.5t7 4.5q8 0 8 -12q0 -15 -13.5 -32t-35.5 -17q-29 0 -42.5 21t-20.5 68q-2 7 -5 7q-2 0 -21 -27t-58.5 -50t-100.5 -23q-65 0 -100.5 34zM284.5 34q40.5 24 62.5 63.5t17 83.5l-3 28q-1 15 -9 18.5t-36 3.5h-55
q-96 0 -140.5 -29.5t-44.5 -78.5q0 -113 119 -113q49 0 89.5 24zM127.5 556q-36.5 31 -43.5 88v2q0 4 2.5 7t6.5 3q8 0 10 -10q6 -47 37.5 -74t80.5 -27q47 0 79.5 26t39.5 75q2 10 10 10q5 0 7.5 -4t1.5 -10q-6 -54 -42.5 -85.5t-95.5 -31.5q-57 0 -93.5 31z" />
    <glyph glyph-name="Aogonek" unicode="&#x104;" horiz-adv-x="701" 
d="M696 8q0 -10 -12 -10l-68 1q-47 -23 -67 -48.5t-20 -56.5q0 -25 16.5 -42.5t43.5 -17.5q23 0 43.5 9.5t33.5 26.5q5 6 10 6q7 0 7 -8q0 -4 -3 -8q-14 -21 -37.5 -33.5t-53.5 -12.5q-35 0 -58 23t-23 57q0 29 17.5 57t51.5 48q-58 0 -77 -1q-17 0 -17 10t17 10
q49 0 65 3.5t16 17.5q0 9 -10 36l-51 132q-6 14 -11.5 19t-22.5 5h-261q-23 0 -30.5 -4t-13.5 -21l-51 -131q-10 -27 -10 -36q0 -14 16 -17.5t63 -3.5q19 0 19 -9q0 -11 -19 -11q-21 1 -91 1q-68 0 -88 -1h-3q-12 0 -12 10q0 5 5 7.5t10 2.5q34 0 48 3.5t22 14.5t19 39
l224 581q3 8 3 12q0 12 -25 12q-15 0 -15 10t15 10h27q8 0 12 -3.5t8 -13.5l234 -608q11 -28 19 -39t22 -14.5t48 -3.5q15 0 15 -10zM482 251q15 0 15 9q0 8 -4 17l-138 358q-5 12 -9 0l-140 -363q-2 -8 -2 -10q0 -7 5 -9t16 -2h257z" />
    <glyph glyph-name="aogonek" unicode="&#x105;" horiz-adv-x="493" 
d="M525 -116q7 0 7 -8q0 -4 -3 -8q-14 -21 -37.5 -33.5t-53.5 -12.5q-35 0 -58 23t-23 57q0 26 14.5 51.5t42.5 45.5q-16 9 -24 28.5t-14 55.5q-2 7 -5 7q-2 0 -21 -27t-58.5 -50t-100.5 -23q-65 0 -100.5 34t-35.5 93q0 60 48.5 97t148.5 37q47 0 69 2t28.5 7.5t4.5 16.5
l-4 31q-9 68 -41 103.5t-85 35.5q-55 0 -88 -27t-33 -74q0 -12 1 -18v-3q0 -9 -6 -15t-15 -6t-14.5 6.5t-5.5 19.5q0 36 20.5 67t57 50t83.5 19q59 0 98 -38.5t47 -109.5l24 -208q6 -56 17 -76t27 -20l19 9l1 -1q4 4 6.5 10t3.5 8q3 6 6 10.5t7 4.5q8 0 8 -12
q0 -15 -13.5 -31.5t-34.5 -17.5q-33 -20 -47.5 -42.5t-14.5 -49.5q0 -25 16.5 -42.5t43.5 -17.5q23 0 43.5 9.5t33.5 26.5q5 6 10 6zM284.5 34q40.5 24 62.5 63.5t17 83.5l-3 28q-1 15 -9 18.5t-36 3.5h-55q-96 0 -140.5 -29.5t-44.5 -78.5q0 -113 119 -113q49 0 89.5 24z
" />
    <glyph glyph-name="Cacute" unicode="&#x106;" horiz-adv-x="617" 
d="M188.5 34q-68.5 44 -108.5 126.5t-40 192.5q0 96 36.5 178t103.5 130.5t156 48.5q51 0 95.5 -17.5t77.5 -48.5q18 -18 34 -42q15 -28 22 -51q7 -22 7 -52q0 -12 -6 -19.5t-16 -7.5t-16 7.5t-4 19.5q2 18 2 25q0 47 -25.5 85t-70.5 59.5t-100 21.5q-77 0 -140 -43
t-99.5 -120t-36.5 -173q0 -98 35 -176.5t98 -123t145 -44.5q97 0 157.5 48.5t71.5 130.5q1 6 4.5 9t7.5 3t6.5 -3t1.5 -9q-11 -86 -74.5 -142.5t-174.5 -56.5q-81 0 -149.5 44zM270 746q2 6 69.5 51l76.5 51l23 15q8 4 13 4q8 0 11.5 -2.5t2.5 -6.5q-1 -8 -45 -36.5t-92 -55
t-54 -25.5q-5 1 -5 5z" />
    <glyph glyph-name="cacute" unicode="&#x107;" horiz-adv-x="466" 
d="M131.5 22.5q-45.5 32.5 -68.5 87t-23 119.5q0 69 26 123t72 84t105 30q42 0 80 -17.5t61.5 -49.5t23.5 -72q0 -11 -6 -17t-15 -6q-10 0 -16 7t-5 18q4 48 -27 83t-103 35q-46 0 -86.5 -27t-65 -76t-24.5 -112q0 -60 20.5 -111t61 -81t97.5 -30q103 0 166 93q4 6 6.5 8.5
t5.5 2.5q5 0 7.5 -5t-0.5 -10q-31 -52 -77 -80.5t-105 -28.5q-65 0 -110.5 32.5zM206 520q0 6 56.5 60t89.5 84q7 7 16 7q11 0 11 -7q0 -8 -38.5 -44t-81 -70t-48.5 -34q-5 0 -5 4z" />
    <glyph glyph-name="Ccircumflex" unicode="&#x108;" horiz-adv-x="617" 
d="M188.5 34q-68.5 44 -108.5 126.5t-40 192.5q0 96 36.5 178t103.5 130.5t156 48.5q51 0 95.5 -17.5t77.5 -48.5q18 -18 34 -42q15 -28 22 -51q7 -22 7 -52q0 -12 -6 -19.5t-16 -7.5t-16 7.5t-4 19.5q2 18 2 25q0 47 -25.5 85t-70.5 59.5t-100 21.5q-77 0 -140 -43
t-99.5 -120t-36.5 -173q0 -98 35 -176.5t98 -123t145 -44.5q97 0 157.5 48.5t71.5 130.5q1 6 4.5 9t7.5 3t6.5 -3t1.5 -9q-11 -86 -74.5 -142.5t-174.5 -56.5q-81 0 -149.5 44zM184 739q0 11 56.5 69t77.5 72q3 2 6 2q2 0 6 -2q21 -14 77.5 -72t56.5 -69q0 -4 -4 -4
q-1 0 -18 15.5t-29 28.5q-25 27 -55 53.5t-34 26.5t-34 -26.5t-55 -53.5q-12 -13 -29 -28.5t-18 -15.5q-4 0 -4 4z" />
    <glyph glyph-name="ccircumflex" unicode="&#x109;" horiz-adv-x="466" 
d="M131.5 22.5q-45.5 32.5 -68.5 87t-23 119.5q0 69 26 123t72 84t105 30q42 0 80 -17.5t61.5 -49.5t23.5 -72q0 -11 -6 -17t-15 -6q-10 0 -16 7t-5 18q4 48 -27 83t-103 35q-46 0 -86.5 -27t-65 -76t-24.5 -112q0 -60 20.5 -111t61 -81t97.5 -30q103 0 166 93q4 6 6.5 8.5
t5.5 2.5q5 0 7.5 -5t-0.5 -10q-31 -52 -77 -80.5t-105 -28.5q-65 0 -110.5 32.5zM107 527q0 5 4 10q14 24 62 70t68 59q3 2 6 2q2 0 6 -2q17 -10 63.5 -57t64.5 -72q4 -7 3.5 -11.5t-5.5 -4.5q-10 0 -18 11q-16 20 -61.5 66.5t-52.5 46.5q-8 0 -55.5 -47.5t-60.5 -65.5
q-8 -11 -17 -11q-7 0 -7 6z" />
    <glyph glyph-name="Cdotaccent" unicode="&#x10a;" horiz-adv-x="617" 
d="M188.5 34q-68.5 44 -108.5 126.5t-40 192.5q0 96 36.5 178t103.5 130.5t156 48.5q51 0 95.5 -17.5t77.5 -48.5q18 -18 34 -42q15 -28 22 -51q7 -22 7 -52q0 -12 -6 -19.5t-16 -7.5t-16 7.5t-4 19.5q2 18 2 25q0 47 -25.5 85t-70.5 59.5t-100 21.5q-77 0 -140 -43
t-99.5 -120t-36.5 -173q0 -98 35 -176.5t98 -123t145 -44.5q97 0 157.5 48.5t71.5 130.5q1 6 4.5 9t7.5 3t6.5 -3t1.5 -9q-11 -86 -74.5 -142.5t-174.5 -56.5q-81 0 -149.5 44zM303.5 758.5q-8.5 8.5 -8.5 22.5t8.5 22t22.5 8q13 0 21.5 -8t8.5 -22t-8 -22.5t-22 -8.5
t-22.5 8.5z" />
    <glyph glyph-name="cdotaccent" unicode="&#x10b;" horiz-adv-x="466" 
d="M131.5 22.5q-45.5 32.5 -68.5 87t-23 119.5q0 69 26 123t72 84t105 30q42 0 80 -17.5t61.5 -49.5t23.5 -72q0 -11 -6 -17t-15 -6q-10 0 -16 7t-5 18q4 48 -27 83t-103 35q-46 0 -86.5 -27t-65 -76t-24.5 -112q0 -60 20.5 -111t61 -81t97.5 -30q103 0 166 93q4 6 6.5 8.5
t5.5 2.5q5 0 7.5 -5t-0.5 -10q-31 -52 -77 -80.5t-105 -28.5q-65 0 -110.5 32.5zM224.5 577.5q-8.5 8.5 -8.5 22.5t8.5 22t22.5 8q13 0 21.5 -8t8.5 -22t-8 -22.5t-22 -8.5t-22.5 8.5z" />
    <glyph glyph-name="Ccaron" unicode="&#x10c;" horiz-adv-x="617" 
d="M188.5 34q-68.5 44 -108.5 126.5t-40 192.5q0 96 36.5 178t103.5 130.5t156 48.5q51 0 95.5 -17.5t77.5 -48.5q18 -18 34 -42q15 -28 22 -51q7 -22 7 -52q0 -12 -6 -19.5t-16 -7.5t-16 7.5t-4 19.5q2 18 2 25q0 47 -25.5 85t-70.5 59.5t-100 21.5q-77 0 -140 -43
t-99.5 -120t-36.5 -173q0 -98 35 -176.5t98 -123t145 -44.5q97 0 157.5 48.5t71.5 130.5q1 6 4.5 9t7.5 3t6.5 -3t1.5 -9q-11 -86 -74.5 -142.5t-174.5 -56.5q-81 0 -149.5 44zM186 862.5q17 -15.5 29 -28.5q25 -27 55 -53.5t34 -26.5t34 26.5t55 53.5q12 13 29 28.5
t18 15.5q4 0 4 -4q0 -11 -56.5 -69t-77.5 -72q-4 -2 -6 -2q-3 0 -6 2q-21 14 -77.5 72t-56.5 69q0 4 4 4q1 0 18 -15.5z" />
    <glyph glyph-name="ccaron" unicode="&#x10d;" horiz-adv-x="466" 
d="M131.5 22.5q-45.5 32.5 -68.5 87t-23 119.5q0 69 26 123t72 84t105 30q42 0 80 -17.5t61.5 -49.5t23.5 -72q0 -11 -6 -17t-15 -6q-10 0 -16 7t-5 18q4 48 -27 83t-103 35q-46 0 -86.5 -27t-65 -76t-24.5 -112q0 -60 20.5 -111t61 -81t97.5 -30q103 0 166 93q4 6 6.5 8.5
t5.5 2.5q5 0 7.5 -5t-0.5 -10q-31 -52 -77 -80.5t-105 -28.5q-65 0 -110.5 32.5zM132 652q13 -18 60.5 -65.5t55.5 -47.5q7 0 52.5 46.5t61.5 66.5q8 11 18 11q6 0 6 -5q0 -6 -4 -11q-18 -25 -64.5 -72t-63.5 -57q-4 -2 -6 -2q-3 0 -6 2q-20 13 -68 59t-62 70q-4 5 -4 10
q0 6 7 6q9 0 17 -11z" />
    <glyph glyph-name="Dcaron" unicode="&#x10e;" horiz-adv-x="657" 
d="M115 -1h-63q-17 0 -17 10t17 10q42 0 57 3t18.5 13t3.5 39v552q0 30 -3.5 40t-18 12.5t-57.5 2.5q-17 0 -17 10t17 10h144q132 0 226.5 -43t144.5 -123.5t50 -191.5q0 -163 -93.5 -254t-268.5 -91q-104 0 -140 1zM509 103.5q88 85.5 88 236.5q0 167 -107.5 254t-293.5 87
q-28 0 -36.5 -7.5t-8.5 -33.5v-584q0 -25 22 -31.5t82 -6.5q166 0 254 85.5zM126 862.5q17 -15.5 29 -28.5q25 -27 55 -53.5t34 -26.5t34 26.5t55 53.5q12 13 29 28.5t18 15.5q4 0 4 -4q0 -11 -56.5 -69t-77.5 -72q-4 -2 -6 -2q-3 0 -6 2q-21 14 -77.5 72t-56.5 69q0 4 4 4
q1 0 18 -15.5z" />
    <glyph glyph-name="dcaron" unicode="&#x10f;" horiz-adv-x="521" 
d="M128 19.5q-42 29.5 -65 83.5t-23 127q0 68 24 121.5t67.5 84t100.5 30.5t89 -21t47.5 -41.5t18.5 -20.5q6 0 7.5 16t1.5 62v188q0 15 -2.5 21t-12.5 6q-7 0 -12 -1q-18 -4 -27 -7q-20 -5 -27 -5q-8 0 -9 6v2q0 11 15 13q17 3 35 8.5t25 7.5q16 6 22 6q13 0 13 -18v-637
q0 -15 2.5 -21t12.5 -6q7 0 12 1q18 4 27 7q20 5 27 5q8 0 9 -6v-2q0 -11 -15 -13q-17 -3 -35 -8.5t-25 -7.5q-17 -6 -22 -6q-13 0 -13 18v85q-2 5 -3 5q-2 -2 -29.5 -57t-138.5 -55q-55 0 -97 29.5zM315 36.5q38 25.5 59.5 69.5t21.5 97v35q0 95 -41.5 151.5t-120.5 56.5
q-46 0 -85.5 -26t-63 -75t-23.5 -115q0 -105 45.5 -162t123.5 -57q46 0 84 25.5zM543 686q0 21 12 21q7 0 9.5 -4t2.5 -16q0 -93 -4 -204q0 -6 -8 -6t-8 6q-4 111 -4 203z" />
    <glyph glyph-name="Dcroat" unicode="&#x110;" horiz-adv-x="657" 
d="M422.5 658q94.5 -43 144.5 -123.5t50 -191.5q0 -163 -93.5 -254t-268.5 -91q-104 0 -140 1h-63q-17 0 -17 10t17 10q42 0 57 3t18.5 13t3.5 39v258q0 7 -7 7h-77q-10 0 -10 10q0 5 3 8t7 3h77q7 0 7 8v258q0 30 -3.5 40t-18 12.5t-57.5 2.5q-17 0 -17 10t17 10h144
q132 0 226.5 -43zM509 103.5q88 85.5 88 236.5q0 167 -107.5 254t-293.5 87q-28 0 -36.5 -7.5t-8.5 -33.5v-272q0 -4 2 -6.5t5 -2.5h199q4 0 7 -3t3 -7q0 -10 -10 -10h-199q-7 0 -7 -6v-277q0 -25 22 -31.5t82 -6.5q166 0 254 85.5z" />
    <glyph glyph-name="dcroat" unicode="&#x111;" horiz-adv-x="521" 
d="M506 29q0 -11 -15 -13q-17 -3 -35 -8.5t-25 -7.5q-17 -6 -22 -6q-13 0 -13 18v85q-2 5 -3 5q-2 -2 -29.5 -57t-138.5 -55q-55 0 -97 29.5t-65 83.5t-23 127q0 68 24 121.5t67.5 84t100.5 30.5t89 -21t47.5 -41.5t18.5 -20.5q6 0 7.5 16t1.5 62v75q-96 0 -131 -1
q-6 0 -9.5 3.5t-3.5 8.5q0 4 3.5 7t8.5 3q35 -1 132 -1v93q0 15 -2.5 21t-12.5 6q-7 0 -12 -1q-18 -4 -27 -7q-20 -5 -27 -5q-8 0 -9 6v2q0 11 15 13q17 3 35 8.5t25 7.5q16 6 22 6q13 0 13 -18v-132l57 1q13 0 13 -10q0 -5 -3.5 -8.5t-8.5 -3.5q-37 0 -58 1v-485
q0 -15 2.5 -21t12.5 -6q7 0 12 1q18 4 27 7q20 5 27 5q8 0 9 -6v-2zM396 238q0 95 -41.5 151.5t-120.5 56.5q-46 0 -85.5 -26t-63 -75t-23.5 -115q0 -105 45.5 -162t123.5 -57q46 0 84 25.5t59.5 69.5t21.5 97v35z" />
    <glyph glyph-name="Emacron" unicode="&#x112;" horiz-adv-x="612" 
d="M580 206q0 -15 -22 -107q-11 -47 -18 -75t-10.5 -33.5t-8.5 -5.5q-6 0 -11 4.5t-11 7.5t-21 3q-208 0 -288.5 -0.5t-106.5 -0.5h-31q-17 0 -17 10t17 10q42 0 57 3t18.5 13t3.5 39v552q0 30 -3.5 40t-18 12.5t-57.5 2.5q-17 0 -17 10t17 10h29q18 0 84.5 -0.5t262.5 -0.5
q14 0 20 2.5t11 7.5t11 5q5 0 8.5 -6t11 -33.5t18.5 -74.5q22 -96 22 -108q0 -5 -1 -6t-5 -1q-9 0 -13 16q-21 88 -31.5 122t-21.5 45t-34 11h-227q-23 0 -32 -4t-11.5 -14.5t-2.5 -37.5v-208q0 -20 5 -29t21 -9h137q18 0 25.5 5t7.5 19q0 13 -10 58q-1 3 -1 9q0 10 9 10
q5 0 8 -5.5t10 -33.5t18 -76q21 -91 21 -105q0 -6 -1.5 -7.5t-4.5 -1.5q-6 0 -8 3t-4 10q-12 48 -18 65.5t-13.5 23.5t-24.5 6h-151q-18 0 -22 -7.5t-4 -29.5v-254q0 -24 2.5 -32.5t11.5 -11.5t33 -3h276q24 0 35 11t21 43.5t31 123.5q2 10 4.5 13t7.5 3q7 0 7 -8z
M165.5 761q1.5 5 1.5 6q3 10 10 10l110 -1l110 1q6 0 6 -3t-1 -7q-4 -11 -10 -11q-29 1 -111 1t-110 -1q-7 0 -5.5 5z" />
    <glyph glyph-name="emacron" unicode="&#x113;" horiz-adv-x="446" 
d="M130 23q-45 33 -67.5 89.5t-22.5 125.5q0 66 28 118t74 81t99 29q46 0 85 -20t62 -54.5t23 -75.5q0 -24 -12.5 -32.5t-38.5 -12.5l-289 -43q-10 -2 -10 -16q0 -48 20 -94.5t60 -77t95 -30.5q105 0 169 93q3 4 6 7.5t6 3.5q5 0 8 -4.5t-1 -10.5q-31 -51 -78.5 -80
t-105.5 -29q-65 0 -110 33zM358 291q19 3 26 8t7 17q0 33 -18 63t-53 49t-83 19q-40 0 -80.5 -24t-67 -66.5t-26.5 -93.5q0 -10 3 -12.5t10 -1.5zM118.5 586q1.5 5 1.5 6q3 10 10 10l110 -1l110 1q6 0 6 -3t-1 -7q-4 -11 -10 -11q-29 1 -111 1t-110 -1q-7 0 -5.5 5z" />
    <glyph glyph-name="Ebreve" unicode="&#x114;" horiz-adv-x="612" 
d="M580 206q0 -15 -22 -107q-11 -47 -18 -75t-10.5 -33.5t-8.5 -5.5q-6 0 -11 4.5t-11 7.5t-21 3q-208 0 -288.5 -0.5t-106.5 -0.5h-31q-17 0 -17 10t17 10q42 0 57 3t18.5 13t3.5 39v552q0 30 -3.5 40t-18 12.5t-57.5 2.5q-17 0 -17 10t17 10h29q18 0 84.5 -0.5t262.5 -0.5
q14 0 20 2.5t11 7.5t11 5q5 0 8.5 -6t11 -33.5t18.5 -74.5q22 -96 22 -108q0 -5 -1 -6t-5 -1q-9 0 -13 16q-21 88 -31.5 122t-21.5 45t-34 11h-227q-23 0 -32 -4t-11.5 -14.5t-2.5 -37.5v-208q0 -20 5 -29t21 -9h137q18 0 25.5 5t7.5 19q0 13 -10 58q-1 3 -1 9q0 10 9 10
q5 0 8 -5.5t10 -33.5t18 -76q21 -91 21 -105q0 -6 -1.5 -7.5t-4.5 -1.5q-6 0 -8 3t-4 10q-12 48 -18 65.5t-13.5 23.5t-24.5 6h-151q-18 0 -22 -7.5t-4 -29.5v-254q0 -24 2.5 -32.5t11.5 -11.5t33 -3h276q24 0 35 11t21 43.5t31 123.5q2 10 4.5 13t7.5 3q7 0 7 -8z
M192.5 764q-36.5 31 -43.5 88v2q0 4 2.5 7t6.5 3q8 0 10 -10q6 -47 37.5 -74t80.5 -27q47 0 79.5 26t39.5 75q2 10 10 10q5 0 7.5 -4t1.5 -10q-6 -54 -42.5 -85.5t-95.5 -31.5q-57 0 -93.5 31z" />
    <glyph glyph-name="ebreve" unicode="&#x115;" horiz-adv-x="446" 
d="M130 23q-45 33 -67.5 89.5t-22.5 125.5q0 66 28 118t74 81t99 29q46 0 85 -20t62 -54.5t23 -75.5q0 -24 -12.5 -32.5t-38.5 -12.5l-289 -43q-10 -2 -10 -16q0 -48 20 -94.5t60 -77t95 -30.5q105 0 169 93q3 4 6 7.5t6 3.5q5 0 8 -4.5t-1 -10.5q-31 -51 -78.5 -80
t-105.5 -29q-65 0 -110 33zM358 291q19 3 26 8t7 17q0 33 -18 63t-53 49t-83 19q-40 0 -80.5 -24t-67 -66.5t-26.5 -93.5q0 -10 3 -12.5t10 -1.5zM142.5 556q-36.5 31 -43.5 88v2q0 4 2.5 7t6.5 3q8 0 10 -10q6 -47 37.5 -74t80.5 -27q47 0 79.5 26t39.5 75q2 10 10 10
q5 0 7.5 -4t1.5 -10q-6 -54 -42.5 -85.5t-95.5 -31.5q-57 0 -93.5 31z" />
    <glyph glyph-name="Edotaccent" unicode="&#x116;" horiz-adv-x="612" 
d="M580 206q0 -15 -22 -107q-11 -47 -18 -75t-10.5 -33.5t-8.5 -5.5q-6 0 -11 4.5t-11 7.5t-21 3q-208 0 -288.5 -0.5t-106.5 -0.5h-31q-17 0 -17 10t17 10q42 0 57 3t18.5 13t3.5 39v552q0 30 -3.5 40t-18 12.5t-57.5 2.5q-17 0 -17 10t17 10h29q18 0 84.5 -0.5t262.5 -0.5
q14 0 20 2.5t11 7.5t11 5q5 0 8.5 -6t11 -33.5t18.5 -74.5q22 -96 22 -108q0 -5 -1 -6t-5 -1q-9 0 -13 16q-21 88 -31.5 122t-21.5 45t-34 11h-227q-23 0 -32 -4t-11.5 -14.5t-2.5 -37.5v-208q0 -20 5 -29t21 -9h137q18 0 25.5 5t7.5 19q0 13 -10 58q-1 3 -1 9q0 10 9 10
q5 0 8 -5.5t10 -33.5t18 -76q21 -91 21 -105q0 -6 -1.5 -7.5t-4.5 -1.5q-6 0 -8 3t-4 10q-12 48 -18 65.5t-13.5 23.5t-24.5 6h-151q-18 0 -22 -7.5t-4 -29.5v-254q0 -24 2.5 -32.5t11.5 -11.5t33 -3h276q24 0 35 11t21 43.5t31 123.5q2 10 4.5 13t7.5 3q7 0 7 -8z
M273.5 758.5q-8.5 8.5 -8.5 22.5t8.5 22t22.5 8q13 0 21.5 -8t8.5 -22t-8 -22.5t-22 -8.5t-22.5 8.5z" />
    <glyph glyph-name="edotaccent" unicode="&#x117;" horiz-adv-x="446" 
d="M130 23q-45 33 -67.5 89.5t-22.5 125.5q0 66 28 118t74 81t99 29q46 0 85 -20t62 -54.5t23 -75.5q0 -24 -12.5 -32.5t-38.5 -12.5l-289 -43q-10 -2 -10 -16q0 -48 20 -94.5t60 -77t95 -30.5q105 0 169 93q3 4 6 7.5t6 3.5q5 0 8 -4.5t-1 -10.5q-31 -51 -78.5 -80
t-105.5 -29q-65 0 -110 33zM358 291q19 3 26 8t7 17q0 33 -18 63t-53 49t-83 19q-40 0 -80.5 -24t-67 -66.5t-26.5 -93.5q0 -10 3 -12.5t10 -1.5zM214.5 577.5q-8.5 8.5 -8.5 22.5t8.5 22t22.5 8q13 0 21.5 -8t8.5 -22t-8 -22.5t-22 -8.5t-22.5 8.5z" />
    <glyph glyph-name="Eogonek" unicode="&#x118;" horiz-adv-x="612" 
d="M576 -141q7 0 7 -8q0 -4 -3 -8q-14 -21 -37.5 -33.5t-53.5 -12.5q-35 0 -58 23t-23 57t23.5 66t70.5 53q-10 4 -24 4q-208 0 -288.5 -0.5t-106.5 -0.5h-31q-17 0 -17 10t17 10q42 0 57 3t18.5 13t3.5 39v552q0 30 -3.5 40t-18 12.5t-57.5 2.5q-17 0 -17 10t17 10h29
q18 0 84.5 -0.5t262.5 -0.5q14 0 20 2.5t11 7.5t11 5q5 0 8.5 -6t11 -33.5t18.5 -74.5q22 -96 22 -108q0 -5 -1 -6t-5 -1q-9 0 -13 16q-21 88 -31.5 122t-21.5 45t-34 11h-227q-23 0 -32 -4t-11.5 -14.5t-2.5 -37.5v-208q0 -20 5 -29t21 -9h137q18 0 25.5 5t7.5 19
q0 13 -10 58q-1 3 -1 9q0 10 9 10q5 0 8 -5.5t10 -33.5t18 -76q21 -91 21 -105q0 -6 -1.5 -7.5t-4.5 -1.5q-6 0 -8 3t-4 10q-12 48 -18 65.5t-13.5 23.5t-24.5 6h-151q-18 0 -22 -7.5t-4 -29.5v-254q0 -24 2.5 -32.5t11.5 -11.5t33 -3h276q24 0 35 11t21 43.5t31 123.5
q2 10 4.5 13t7.5 3q7 0 7 -8q0 -15 -22 -107q-11 -47 -18 -75t-10.5 -33.5t-8.5 -5.5q-50 -24 -71 -50t-21 -58q0 -25 16.5 -42.5t43.5 -17.5q23 0 43.5 9.5t33.5 26.5q5 6 10 6z" />
    <glyph glyph-name="eogonek" unicode="&#x119;" horiz-adv-x="446" 
d="M350 22l2 -2q-50 -24 -71 -50t-21 -58q0 -25 16.5 -42.5t43.5 -17.5q23 0 43.5 9.5t33.5 26.5q4 6 10 6q7 0 7 -8q0 -4 -3 -8q-14 -21 -37.5 -33.5t-53.5 -12.5q-35 0 -58 23t-23 57q0 44 37 81q-16 -3 -36 -3q-65 0 -110 33t-67.5 89.5t-22.5 125.5q0 66 28 118t74 81
t99 29q46 0 85 -20t62 -54.5t23 -75.5q0 -24 -12.5 -32.5t-38.5 -12.5l-289 -43q-10 -2 -10 -16q0 -48 20 -94.5t60 -77t95 -30.5q105 0 169 93q3 4 6 7.5t6 3.5q5 0 8 -4.5t-1 -10.5q-30 -51 -74 -77zM156.5 423q-40.5 -24 -67 -66.5t-26.5 -93.5q0 -10 3 -12.5t10 -1.5
l282 42q19 3 26 8t7 17q0 33 -18 63t-53 49t-83 19q-40 0 -80.5 -24z" />
    <glyph glyph-name="Ecaron" unicode="&#x11a;" horiz-adv-x="612" 
d="M580 206q0 -15 -22 -107q-11 -47 -18 -75t-10.5 -33.5t-8.5 -5.5q-6 0 -11 4.5t-11 7.5t-21 3q-208 0 -288.5 -0.5t-106.5 -0.5h-31q-17 0 -17 10t17 10q42 0 57 3t18.5 13t3.5 39v552q0 30 -3.5 40t-18 12.5t-57.5 2.5q-17 0 -17 10t17 10h29q18 0 84.5 -0.5t262.5 -0.5
q14 0 20 2.5t11 7.5t11 5q5 0 8.5 -6t11 -33.5t18.5 -74.5q22 -96 22 -108q0 -5 -1 -6t-5 -1q-9 0 -13 16q-21 88 -31.5 122t-21.5 45t-34 11h-227q-23 0 -32 -4t-11.5 -14.5t-2.5 -37.5v-208q0 -20 5 -29t21 -9h137q18 0 25.5 5t7.5 19q0 13 -10 58q-1 3 -1 9q0 10 9 10
q5 0 8 -5.5t10 -33.5t18 -76q21 -91 21 -105q0 -6 -1.5 -7.5t-4.5 -1.5q-6 0 -8 3t-4 10q-12 48 -18 65.5t-13.5 23.5t-24.5 6h-151q-18 0 -22 -7.5t-4 -29.5v-254q0 -24 2.5 -32.5t11.5 -11.5t33 -3h276q24 0 35 11t21 43.5t31 123.5q2 10 4.5 13t7.5 3q7 0 7 -8z
M156 862.5q17 -15.5 29 -28.5q25 -27 55 -53.5t34 -26.5t34 26.5t55 53.5q12 13 29 28.5t18 15.5q4 0 4 -4q0 -11 -56.5 -69t-77.5 -72q-4 -2 -6 -2q-3 0 -6 2q-21 14 -77.5 72t-56.5 69q0 4 4 4q1 0 18 -15.5z" />
    <glyph glyph-name="ecaron" unicode="&#x11b;" horiz-adv-x="446" 
d="M130 23q-45 33 -67.5 89.5t-22.5 125.5q0 66 28 118t74 81t99 29q46 0 85 -20t62 -54.5t23 -75.5q0 -24 -12.5 -32.5t-38.5 -12.5l-289 -43q-10 -2 -10 -16q0 -48 20 -94.5t60 -77t95 -30.5q105 0 169 93q3 4 6 7.5t6 3.5q5 0 8 -4.5t-1 -10.5q-31 -51 -78.5 -80
t-105.5 -29q-65 0 -110 33zM358 291q19 3 26 8t7 17q0 33 -18 63t-53 49t-83 19q-40 0 -80.5 -24t-67 -66.5t-26.5 -93.5q0 -10 3 -12.5t10 -1.5zM122 652q13 -18 60.5 -65.5t55.5 -47.5q7 0 52.5 46.5t61.5 66.5q8 11 18 11q6 0 6 -5q0 -6 -4 -11q-18 -25 -64.5 -72
t-63.5 -57q-4 -2 -6 -2q-3 0 -6 2q-20 13 -68 59t-62 70q-4 5 -4 10q0 6 7 6q9 0 17 -11z" />
    <glyph glyph-name="Gcircumflex" unicode="&#x11c;" horiz-adv-x="667" 
d="M188.5 39q-70.5 49 -109.5 133t-39 185q0 103 42 183.5t112 125t152 44.5q54 0 101 -20t80 -54q20 -24 25 -33q16 -25 23 -51q7 -30 7 -53q0 -12 -6 -19.5t-16 -7.5q-11 0 -16.5 7t-3.5 19q2 18 2 26q0 47 -25.5 85t-70.5 59.5t-100 21.5q-82 0 -147 -44.5t-102 -120.5
t-37 -167q0 -102 39 -181.5t105.5 -123t146.5 -43.5q71 0 118 18t69 47t22 62v64q0 56 -4 76t-17.5 25t-51.5 5h-29q-6 0 -10 3t-4 8q0 4 3.5 6.5t10.5 2.5l36 -1l75 -1q19 0 75 2q13 0 13 -9q0 -11 -13 -11h-32.5t-27.5 -22t-4 -84v-68q0 -48 -35 -82q-16 -16 -33 -25
q-61 -36 -161 -36q-92 0 -162.5 49zM227 739q0 11 56.5 69t77.5 72q3 2 6 2q2 0 6 -2q21 -14 77.5 -72t56.5 -69q0 -4 -4 -4q-1 0 -18 15.5t-29 28.5q-25 27 -55 53.5t-34 26.5t-34 -26.5t-55 -53.5q-12 -13 -29 -28.5t-18 -15.5q-4 0 -4 4z" />
    <glyph glyph-name="gcircumflex" unicode="&#x11d;" horiz-adv-x="446" 
d="M376.5 48.5q35.5 -36.5 35.5 -89.5q0 -67 -55.5 -108t-147.5 -41q-97 0 -151 42q-44 34 -44 89q0 13 5.5 21.5t16.5 8.5q22 0 19 -27q-1 -5 -1 -15q0 -38 24 -62q40 -37 132 -37q81 0 131.5 36t50.5 93q0 59 -50.5 94.5t-132.5 35.5q-52 0 -96 23t-69.5 65.5t-25.5 99.5
q0 49 24.5 92.5t68 70t98.5 26.5q34 0 65 -11q25 -1 43 5t41 17q4 2 12.5 6t14.5 4q10 0 15.5 -6t5.5 -15q0 -7 -5 -13.5t-14 -8.5q-18 -6 -48 -6q-21 0 -33 2q43 -25 68.5 -67.5t25.5 -95.5q0 -66 -32 -112.5t-89 -65.5q62 -14 97.5 -50.5zM60 190q22 -39 61 -61t89 -22
q76 0 123 46t47 122q0 45 -21.5 84.5t-61 63t-88.5 23.5q-46 0 -85 -22t-62.5 -60.5t-23.5 -85.5q0 -49 22 -88zM68 527q0 5 4 10q14 24 62 70t68 59q3 2 6 2q2 0 6 -2q17 -10 63.5 -57t64.5 -72q4 -7 3.5 -11.5t-5.5 -4.5q-10 0 -18 11q-16 20 -61.5 66.5t-52.5 46.5
q-8 0 -55.5 -47.5t-60.5 -65.5q-8 -11 -17 -11q-7 0 -7 6z" />
    <glyph glyph-name="Gbreve" unicode="&#x11e;" horiz-adv-x="667" 
d="M188.5 39q-70.5 49 -109.5 133t-39 185q0 103 42 183.5t112 125t152 44.5q54 0 101 -20t80 -54q20 -24 25 -33q16 -25 23 -51q7 -30 7 -53q0 -12 -6 -19.5t-16 -7.5q-11 0 -16.5 7t-3.5 19q2 18 2 26q0 47 -25.5 85t-70.5 59.5t-100 21.5q-82 0 -147 -44.5t-102 -120.5
t-37 -167q0 -102 39 -181.5t105.5 -123t146.5 -43.5q71 0 118 18t69 47t22 62v64q0 56 -4 76t-17.5 25t-51.5 5h-29q-6 0 -10 3t-4 8q0 4 3.5 6.5t10.5 2.5l36 -1l75 -1q19 0 75 2q13 0 13 -9q0 -11 -13 -11h-32.5t-27.5 -22t-4 -84v-68q0 -48 -35 -82q-16 -16 -33 -25
q-61 -36 -161 -36q-92 0 -162.5 49zM265.5 764q-36.5 31 -43.5 88v2q0 4 2.5 7t6.5 3q8 0 10 -10q6 -47 37.5 -74t80.5 -27q47 0 79.5 26t39.5 75q2 10 10 10q5 0 7.5 -4t1.5 -10q-6 -54 -42.5 -85.5t-95.5 -31.5q-57 0 -93.5 31z" />
    <glyph glyph-name="gbreve" unicode="&#x11f;" horiz-adv-x="446" 
d="M376.5 48.5q35.5 -36.5 35.5 -89.5q0 -67 -55.5 -108t-147.5 -41q-97 0 -151 42q-44 34 -44 89q0 13 5.5 21.5t16.5 8.5q22 0 19 -27q-1 -5 -1 -15q0 -38 24 -62q40 -37 132 -37q81 0 131.5 36t50.5 93q0 59 -50.5 94.5t-132.5 35.5q-52 0 -96 23t-69.5 65.5t-25.5 99.5
q0 49 24.5 92.5t68 70t98.5 26.5q34 0 65 -11q25 -1 43 5t41 17q4 2 12.5 6t14.5 4q10 0 15.5 -6t5.5 -15q0 -7 -5 -13.5t-14 -8.5q-18 -6 -48 -6q-21 0 -33 2q43 -25 68.5 -67.5t25.5 -95.5q0 -66 -32 -112.5t-89 -65.5q62 -14 97.5 -50.5zM60 190q22 -39 61 -61t89 -22
q76 0 123 46t47 122q0 45 -21.5 84.5t-61 63t-88.5 23.5q-46 0 -85 -22t-62.5 -60.5t-23.5 -85.5q0 -49 22 -88zM113.5 556q-36.5 31 -43.5 88v2q0 4 2.5 7t6.5 3q8 0 10 -10q6 -47 37.5 -74t80.5 -27q47 0 79.5 26t39.5 75q2 10 10 10q5 0 7.5 -4t1.5 -10
q-6 -54 -42.5 -85.5t-95.5 -31.5q-57 0 -93.5 31z" />
    <glyph glyph-name="Gdotaccent" unicode="&#x120;" horiz-adv-x="667" 
d="M188.5 39q-70.5 49 -109.5 133t-39 185q0 103 42 183.5t112 125t152 44.5q54 0 101 -20t80 -54q20 -24 25 -33q16 -25 23 -51q7 -30 7 -53q0 -12 -6 -19.5t-16 -7.5q-11 0 -16.5 7t-3.5 19q2 18 2 26q0 47 -25.5 85t-70.5 59.5t-100 21.5q-82 0 -147 -44.5t-102 -120.5
t-37 -167q0 -102 39 -181.5t105.5 -123t146.5 -43.5q71 0 118 18t69 47t22 62v64q0 56 -4 76t-17.5 25t-51.5 5h-29q-6 0 -10 3t-4 8q0 4 3.5 6.5t10.5 2.5l36 -1l75 -1q19 0 75 2q13 0 13 -9q0 -11 -13 -11h-32.5t-27.5 -22t-4 -84v-68q0 -48 -35 -82q-16 -16 -33 -25
q-61 -36 -161 -36q-92 0 -162.5 49zM346.5 758.5q-8.5 8.5 -8.5 22.5t8.5 22t22.5 8q13 0 21.5 -8t8.5 -22t-8 -22.5t-22 -8.5t-22.5 8.5z" />
    <glyph glyph-name="gdotaccent" unicode="&#x121;" horiz-adv-x="446" 
d="M185.5 577.5q-8.5 8.5 -8.5 22.5t8.5 22t22.5 8t22 -8t8 -22t-8 -22.5t-22 -8.5t-22.5 8.5zM376.5 48.5q35.5 -36.5 35.5 -89.5q0 -67 -55.5 -108t-147.5 -41q-83 0 -139 33.5t-56 97.5q0 14 6 22t16 8t15 -7.5t4 -19.5q-1 -6 -1 -16q0 -51 43 -74.5t113 -23.5
q81 0 131.5 36t50.5 93q0 59 -50.5 94.5t-132.5 35.5q-52 0 -96 23t-69.5 65.5t-25.5 99.5q0 49 24.5 92.5t68 70t98.5 26.5q34 0 65 -11q25 -1 43 5t41 17q4 2 12.5 6t14.5 4q10 0 15.5 -6t5.5 -15q0 -7 -5 -13.5t-14 -8.5q-18 -6 -48 -6q-21 0 -33 2q43 -25 68.5 -67.5
t25.5 -95.5q0 -65 -32 -112t-88 -66q61 -14 96.5 -50.5zM59.5 190q21.5 -39 60.5 -61t90 -22q76 0 123 46t47 122q0 45 -21.5 84.5t-61 63t-88.5 23.5q-46 0 -85 -22t-62.5 -60.5t-23.5 -85.5q0 -49 21.5 -88z" />
    <glyph glyph-name="uni0122" unicode="&#x122;" horiz-adv-x="667" 
d="M188.5 39q-70.5 49 -109.5 133t-39 185q0 103 42 183.5t112 125t152 44.5q54 0 101 -20t80 -54q20 -24 25 -33q16 -25 23 -51q7 -30 7 -53q0 -12 -6 -19.5t-16 -7.5q-11 0 -16.5 7t-3.5 19q2 18 2 26q0 47 -25.5 85t-70.5 59.5t-100 21.5q-82 0 -147 -44.5t-102 -120.5
t-37 -167q0 -102 39 -181.5t105.5 -123t146.5 -43.5q71 0 118 18t69 47t22 62v64q0 56 -4 76t-17.5 25t-51.5 5h-29q-6 0 -10 3t-4 8q0 4 3.5 6.5t10.5 2.5l36 -1l75 -1q19 0 75 2q13 0 13 -9q0 -11 -13 -11h-32.5t-27.5 -22t-4 -84v-68q0 -48 -35 -82q-16 -16 -33 -25
q-61 -36 -161 -36q-92 0 -162.5 49zM343.5 -139q-1.5 4 2.5 6l10 5t13.5 10.5t5.5 14.5q0 7 -10 7t-16 6.5t-6 15.5q0 10 6.5 16t15.5 6q13 0 19.5 -9t6.5 -25q0 -20 -8 -32.5t-18 -18.5t-17 -6q-3 0 -4.5 4z" />
    <glyph glyph-name="uni0123" unicode="&#x123;" horiz-adv-x="446" 
d="M376.5 48.5q35.5 -36.5 35.5 -89.5q0 -67 -55.5 -108t-147.5 -41q-97 0 -151 42q-44 34 -44 89q0 13 5.5 21.5t16.5 8.5q22 0 19 -27q-1 -5 -1 -15q0 -38 24 -62q40 -37 132 -37q81 0 131.5 36t50.5 93q0 59 -50.5 94.5t-132.5 35.5q-52 0 -96 23t-69.5 65.5t-25.5 99.5
q0 49 24.5 92.5t68 70t98.5 26.5q37 0 68 -12q4 -1 13 -1q28 0 43 17t13 54v2q0 9 6 15t14 6q9 0 15 -6t6 -17q0 -36 -23 -57.5t-54 -28.5q41 -25 65.5 -67t24.5 -94q0 -66 -32 -112.5t-89 -65.5q62 -14 97.5 -50.5zM60 190q22 -39 61 -61t89 -22q76 0 123 46t47 122
q0 45 -21.5 84.5t-61 63t-88.5 23.5q-46 0 -85 -22t-62.5 -60.5t-23.5 -85.5q0 -49 22 -88zM240 646q2 -5 -3 -8l-13 -6.5t-19 -14.5t-8 -20q0 -9 14 -9t22.5 -9t8.5 -22t-9.5 -21.5t-21.5 -8.5q-18 0 -27 12.5t-9 33.5q0 27 11 44.5t25 25.5t23 8q4 0 6 -5z" />
    <glyph glyph-name="Hcircumflex" unicode="&#x124;" horiz-adv-x="750" 
d="M35 9q0 10 17 10q42 0 57 3t18.5 13t3.5 39v552q0 30 -3.5 40t-18 12.5t-57.5 2.5q-17 0 -17 10t17 10h178q17 0 17 -10t-17 -10q-42 0 -57 -3t-18.5 -13t-3.5 -39v-218q0 -23 5 -29t26 -6h386q21 0 26 6t5 29v218q0 30 -3.5 40t-18 12.5t-57.5 2.5q-17 0 -17 10t17 10
h178q17 0 17 -10t-17 -10q-42 0 -57 -3t-18.5 -13t-3.5 -39v-552q0 -30 3.5 -40t18 -12.5t57.5 -2.5q17 0 17 -10t-17 -10h-178q-17 0 -17 10t17 10q42 0 57 3t18.5 13t3.5 39v244q0 23 -5 29t-26 6h-386q-21 0 -26 -6t-5 -29v-244q0 -30 3.5 -40t18 -12.5t57.5 -2.5
q17 0 17 -10t-17 -10h-178q-17 0 -17 10zM235 739q0 11 56.5 69t77.5 72q3 2 6 2q2 0 6 -2q21 -14 77.5 -72t56.5 -69q0 -4 -4 -4q-1 0 -18 15.5t-29 28.5q-25 27 -55 53.5t-34 26.5t-34 -26.5t-55 -53.5q-12 -13 -29 -28.5t-18 -15.5q-4 0 -4 4z" />
    <glyph glyph-name="hcircumflex" unicode="&#x125;" horiz-adv-x="559" 
d="M33.5 0.5q-3.5 2.5 -3.5 6.5q0 10 13 10q35 0 48 3t16 12t3 36v581q0 15 -2.5 21t-12.5 6q-7 0 -12 -1q-18 -4 -27 -7q-20 -5 -27 -5q-8 0 -9 6v2q0 11 15 13q17 3 35 8.5t25 7.5q16 6 22 6q13 0 13 -18v-310q0 -8 0.5 -12.5t2.5 -4.5q2 2 23.5 53.5t132.5 51.5
q67 0 105.5 -41.5t46.5 -117.5l25 -221q4 -35 8.5 -47t17.5 -15.5t49 -3.5q18 0 18 -11q0 -10 -12 -10l-37 1q-19 1 -46 1q-26 0 -43 -1l-34 -1q-11 0 -15.5 2t-4.5 8q0 11 18 11q39 0 51 6.5t12 30.5q0 16 -3 40l-24 205q-9 71 -40 107.5t-96 36.5q-38 0 -73.5 -20
t-58.5 -63.5t-23 -108.5v-186q0 -27 3 -36t16.5 -12t49.5 -3q6 0 10 -3t4 -7t-3 -6.5t-7 -2.5q-26 1 -80 1q-53 0 -80 -1q-6 0 -9.5 2.5zM-21 739q0 11 56.5 69t77.5 72q3 2 6 2q2 0 6 -2q21 -14 77.5 -72t56.5 -69q0 -4 -4 -4q-1 0 -18 15.5t-29 28.5q-25 27 -55 53.5
t-34 26.5t-34 -26.5t-55 -53.5q-12 -13 -29 -28.5t-18 -15.5q-4 0 -4 4z" />
    <glyph glyph-name="Hbar" unicode="&#x126;" horiz-adv-x="750" 
d="M715 9q0 -10 -17 -10h-178q-17 0 -17 10t17 10q42 0 57 3t18.5 13t3.5 39v244q0 23 -5 29t-26 6h-386q-21 0 -26 -6t-5 -29v-244q0 -30 3.5 -40t18 -12.5t57.5 -2.5q17 0 17 -10t-17 -10h-178q-17 0 -17 10t17 10q42 0 57 3t18.5 13t3.5 39v471h-59q-3 0 -5 3t-2 7t2 7
t5 3h59v61q0 30 -3.5 40t-18 12.5t-57.5 2.5q-17 0 -17 10t17 10h178q17 0 17 -10t-17 -10q-42 0 -57 -3t-18.5 -13t-3.5 -39v-61h448v61q0 30 -3.5 40t-18 12.5t-57.5 2.5q-17 0 -17 10t17 10h178q17 0 17 -10t-17 -10q-42 0 -57 -3t-18.5 -13t-3.5 -39v-61h58q4 0 6 -3
t2 -7t-2 -7t-6 -3h-58v-471q0 -30 3.5 -40t18 -12.5t57.5 -2.5q17 0 17 -10zM568 373q21 0 26 6t5 29v137h-448v-137q0 -23 5 -29t26 -6h386z" />
    <glyph glyph-name="hbar" unicode="&#x127;" horiz-adv-x="559" 
d="M559 9q0 -10 -12 -10l-37 1q-19 1 -46 1q-26 0 -43 -1l-34 -1q-11 0 -15.5 2t-4.5 8q0 11 18 11q39 0 51 6.5t12 30.5q0 16 -3 40l-24 205q-9 71 -40 107.5t-96 36.5q-38 0 -73.5 -20t-58.5 -63.5t-23 -108.5v-186q0 -27 3 -36t16.5 -12t49.5 -3q6 0 10 -3t4 -7t-3 -6.5
t-7 -2.5q-26 1 -80 1q-53 0 -80 -1q-6 0 -9.5 2.5t-3.5 6.5q0 10 13 10q35 0 48 3t16 12t3 36v476l-69 -1q-6 0 -9.5 3.5t-3.5 8.5q0 4 3.5 7t8.5 3l70 -1v85q0 15 -2.5 21t-12.5 6q-7 0 -12 -1q-18 -4 -27 -7q-20 -5 -27 -5q-8 0 -9 6v2q0 11 15 13q17 3 35 8.5t25 7.5
q16 6 22 6q13 0 13 -18v-124q88 0 119 1q13 0 13 -10q0 -5 -3.5 -8.5t-8.5 -3.5q-33 1 -120 1v-166q0 -8 0.5 -12.5t2.5 -4.5q2 2 23.5 53.5t132.5 51.5q67 0 105.5 -41.5t46.5 -117.5l25 -221q4 -35 8.5 -47t17.5 -15.5t49 -3.5q18 0 18 -11z" />
    <glyph glyph-name="Itilde" unicode="&#x128;" horiz-adv-x="282" 
d="M52 -1q-17 0 -17 10t17 10q42 0 57 3t18.5 13t3.5 39v552q0 30 -3.5 40t-18 12.5t-57.5 2.5q-17 0 -17 10t17 10l80 -1h18l80 1q17 0 17 -10t-17 -10q-42 0 -57 -3t-18.5 -13t-3.5 -39v-552q0 -30 3.5 -40t18 -12.5t57.5 -2.5q17 0 17 -10t-17 -10l-80 1h-18zM190 744.5
q-15 6.5 -37 20.5q-21 14 -36.5 21t-35.5 7q-21 0 -36.5 -12.5t-20.5 -34.5q-3 -10 -8 -10q-6 0 -6 9q2 29 21 48.5t50 19.5q23 0 41.5 -8t42.5 -23q19 -12 31.5 -18t26.5 -6q22 0 37.5 13t20.5 34q3 10 9 10q2 0 3.5 -2.5t1.5 -6.5q-2 -29 -21.5 -48.5t-50.5 -19.5
q-18 0 -33 6.5z" />
    <glyph glyph-name="itilde" unicode="&#x129;" horiz-adv-x="238" 
d="M38.5 0.5q-3.5 2.5 -3.5 6.5q0 10 13 10q35 0 48 3t16 12t3 36v338q0 15 -2.5 21t-12.5 6q-7 0 -12 -1q-18 -4 -27 -7q-20 -5 -27 -5q-8 0 -9 6v2q0 11 15 13q17 3 35 8.5t25 7.5q17 6 22 6q13 0 13 -18v-377q0 -27 3 -36t16.5 -12t49.5 -3q6 0 10 -3t4 -7t-3 -6.5
t-7 -2.5l-80 1l-80 -1q-6 0 -9.5 2.5zM124 560.5q-15 6.5 -37 20.5q-21 14 -36.5 21t-35.5 7q-21 0 -36.5 -12.5t-20.5 -34.5q-3 -10 -8 -10q-6 0 -6 9q2 29 21 48.5t50 19.5q23 0 41.5 -8t42.5 -23q19 -12 31.5 -18t26.5 -6q22 0 37.5 13t20.5 34q3 10 9 10q2 0 3.5 -2.5
t1.5 -6.5q-2 -29 -21.5 -48.5t-50.5 -19.5q-18 0 -33 6.5z" />
    <glyph glyph-name="Imacron" unicode="&#x12a;" horiz-adv-x="282" 
d="M52 -1q-17 0 -17 10t17 10q42 0 57 3t18.5 13t3.5 39v552q0 30 -3.5 40t-18 12.5t-57.5 2.5q-17 0 -17 10t17 10l80 -1h18l80 1q17 0 17 -10t-17 -10q-42 0 -57 -3t-18.5 -13t-3.5 -39v-552q0 -30 3.5 -40t18 -12.5t57.5 -2.5q17 0 17 -10t-17 -10l-80 1h-18zM12.5 761
q1.5 5 1.5 6q3 10 10 10l110 -1l110 1q6 0 6 -3t-1 -7q-4 -11 -10 -11q-29 1 -111 1t-110 -1q-7 0 -5.5 5z" />
    <glyph glyph-name="imacron" unicode="&#x12b;" horiz-adv-x="238" 
d="M38.5 0.5q-3.5 2.5 -3.5 6.5q0 10 13 10q35 0 48 3t16 12t3 36v338q0 15 -2.5 21t-12.5 6q-7 0 -12 -1q-18 -4 -27 -7q-20 -5 -27 -5q-8 0 -9 6v2q0 11 15 13q17 3 35 8.5t25 7.5q17 6 22 6q13 0 13 -18v-377q0 -27 3 -36t16.5 -12t49.5 -3q6 0 10 -3t4 -7t-3 -6.5
t-7 -2.5l-80 1l-80 -1q-6 0 -9.5 2.5zM-19.5 586q1.5 5 1.5 6q3 10 10 10l110 -1l110 1q6 0 6 -3t-1 -7q-4 -11 -10 -11q-29 1 -111 1t-110 -1q-7 0 -5.5 5z" />
    <glyph glyph-name="Ibreve" unicode="&#x12c;" horiz-adv-x="282" 
d="M52 -1q-17 0 -17 10t17 10q42 0 57 3t18.5 13t3.5 39v552q0 30 -3.5 40t-18 12.5t-57.5 2.5q-17 0 -17 10t17 10l80 -1h18l80 1q17 0 17 -10t-17 -10q-42 0 -57 -3t-18.5 -13t-3.5 -39v-552q0 -30 3.5 -40t18 -12.5t57.5 -2.5q17 0 17 -10t-17 -10l-80 1h-18zM39.5 764
q-36.5 31 -43.5 88v2q0 4 2.5 7t6.5 3q8 0 10 -10q6 -47 37.5 -74t80.5 -27q47 0 79.5 26t39.5 75q2 10 10 10q5 0 7.5 -4t1.5 -10q-6 -54 -42.5 -85.5t-95.5 -31.5q-57 0 -93.5 31z" />
    <glyph glyph-name="ibreve" unicode="&#x12d;" horiz-adv-x="238" 
d="M38.5 0.5q-3.5 2.5 -3.5 6.5q0 10 13 10q35 0 48 3t16 12t3 36v338q0 15 -2.5 21t-12.5 6q-7 0 -12 -1q-18 -4 -27 -7q-20 -5 -27 -5q-8 0 -9 6v2q0 11 15 13q17 3 35 8.5t25 7.5q17 6 22 6q13 0 13 -18v-377q0 -27 3 -36t16.5 -12t49.5 -3q6 0 10 -3t4 -7t-3 -6.5
t-7 -2.5l-80 1l-80 -1q-6 0 -9.5 2.5zM4.5 556q-36.5 31 -43.5 88v2q0 4 2.5 7t6.5 3q8 0 10 -10q6 -47 37.5 -74t80.5 -27q47 0 79.5 26t39.5 75q2 10 10 10q5 0 7.5 -4t1.5 -10q-6 -54 -42.5 -85.5t-95.5 -31.5q-57 0 -93.5 31z" />
    <glyph glyph-name="Iogonek" unicode="&#x12e;" horiz-adv-x="282" 
d="M247 9q0 -10 -17 -10l-78 1q-49 -24 -69.5 -49.5t-20.5 -57.5q0 -25 16.5 -42.5t43.5 -17.5q23 0 43.5 9.5t33.5 26.5q5 6 10 6q7 0 7 -8q0 -4 -3 -8q-14 -21 -37.5 -33.5t-53.5 -12.5q-35 0 -58 23t-23 57q0 29 18 57.5t53 49.5l-60 -1q-17 0 -17 10t17 10q42 0 57 3
t18.5 13t3.5 39v552q0 30 -3.5 40t-18 12.5t-57.5 2.5q-17 0 -17 10t17 10l80 -1h18l80 1q17 0 17 -10t-17 -10q-42 0 -57 -3t-18.5 -13t-3.5 -39v-552q0 -30 3.5 -40t18 -12.5t57.5 -2.5q17 0 17 -10z" />
    <glyph glyph-name="iogonek" unicode="&#x12f;" horiz-adv-x="238" 
d="M76.5 577.5q-8.5 8.5 -8.5 22.5t8.5 22t22.5 8t22 -8t8 -22t-8 -22.5t-22 -8.5t-22.5 8.5zM214 14q4 -3 4 -7t-3 -6.5t-7 -2.5l-68 1q-48 -24 -68.5 -49.5t-20.5 -57.5q0 -25 16.5 -42.5t43.5 -17.5q23 0 43.5 9.5t33.5 26.5q4 6 10 6q7 0 7 -8q0 -4 -3 -8
q-14 -21 -37.5 -33.5t-53.5 -12.5q-35 0 -58 23t-23 57q0 29 18 57.5t53 49.5l-53 -1q-6 0 -9.5 2.5t-3.5 6.5q0 10 13 10q35 0 48 3t16 12t3 36v338q0 15 -2.5 21t-12.5 6q-7 0 -12 -1q-18 -4 -27 -7q-20 -5 -27 -5q-8 0 -9 6v2q0 11 15 13q17 3 35 8.5t25 7.5q17 6 22 6
q13 0 13 -18v-377q0 -27 3 -36t16.5 -12t49.5 -3q6 0 10 -3z" />
    <glyph glyph-name="Idotaccent" unicode="&#x130;" horiz-adv-x="282" 
d="M52 -1q-17 0 -17 10t17 10q42 0 57 3t18.5 13t3.5 39v552q0 30 -3.5 40t-18 12.5t-57.5 2.5q-17 0 -17 10t17 10l80 -1h18l80 1q17 0 17 -10t-17 -10q-42 0 -57 -3t-18.5 -13t-3.5 -39v-552q0 -30 3.5 -40t18 -12.5t57.5 -2.5q17 0 17 -10t-17 -10l-80 1h-18z
M120.5 758.5q-8.5 8.5 -8.5 22.5t8.5 22t22.5 8q13 0 21.5 -8t8.5 -22t-8 -22.5t-22 -8.5t-22.5 8.5z" />
    <glyph glyph-name="dotlessi" unicode="&#x131;" horiz-adv-x="238" 
d="M38.5 0.5q-3.5 2.5 -3.5 6.5q0 10 13 10q35 0 48 3t16 12t3 36v338q0 15 -2.5 21t-12.5 6q-7 0 -12 -1q-18 -4 -27 -7q-20 -5 -27 -5q-8 0 -9 6v2q0 11 15 13q17 3 35 8.5t25 7.5q17 6 22 6q13 0 13 -18v-377q0 -27 3 -36t16.5 -12t49.5 -3q6 0 10 -3t4 -7t-3 -6.5
t-7 -2.5l-80 1l-80 -1q-6 0 -9.5 2.5z" />
    <glyph glyph-name="IJ" unicode="&#x132;" horiz-adv-x="756" 
d="M52 -1q-17 0 -17 10t17 10q42 0 57 3t18.5 13t3.5 39v552q0 30 -3.5 40t-18 12.5t-57.5 2.5q-17 0 -17 10t17 10l80 -1h18l80 1q17 0 17 -10t-17 -10q-42 0 -57 -3t-18.5 -13t-3.5 -39v-552q0 -30 3.5 -40t18 -12.5t57.5 -2.5q17 0 17 -10t-17 -10l-80 1h-18zM367 40.5
q-45 50.5 -45 133.5q0 11 6 18t16 7t15 -7t4 -18q-2 -20 -2 -29q0 -63 32.5 -99t93.5 -36q160 0 160 225v257v134q0 30 -4.5 40t-21.5 12.5t-69 2.5q-20 0 -20 10t20 10h178q14 0 14 -10t-14 -10q-34 0 -45.5 -3t-14.5 -13t-3 -39v-388q0 -118 -42 -183t-138 -65
q-75 0 -120 50.5z" />
    <glyph glyph-name="ij" unicode="&#x133;" horiz-adv-x="445" 
d="M38.5 0.5q-3.5 2.5 -3.5 6.5q0 10 13 10q35 0 48 3t16 12t3 36v338q0 15 -2.5 21t-12.5 6q-7 0 -12 -1q-18 -4 -27 -7q-20 -5 -27 -5q-8 0 -9 6v2q0 11 15 13q17 3 35 8.5t25 7.5q17 6 22 6q13 0 13 -18v-377q0 -27 3 -36t16.5 -12t49.5 -3q6 0 10 -3t4 -7t-3 -6.5
t-7 -2.5l-80 1l-80 -1q-6 0 -9.5 2.5zM76.5 577.5q-8.5 8.5 -8.5 22.5t8.5 22t22.5 8q13 0 21.5 -8t8.5 -22t-8 -22.5t-22 -8.5t-22.5 8.5zM242 -174q-6 0 -9.5 3.5t-3.5 7.5q0 7 9 10q44 13 75.5 58.5t31.5 144.5v356q0 15 -2.5 21t-12.5 6q-7 0 -12 -1q-18 -4 -27 -7
q-20 -5 -27 -5q-8 0 -9 6v2q0 11 15 13q17 3 35 8.5t25 7.5q16 6 22 6q13 0 13 -18v-395q0 -103 -34 -155.5t-84 -67.5q-2 -1 -5 -1zM319.5 577.5q-8.5 8.5 -8.5 22.5t8.5 22t22.5 8q13 0 21.5 -8t8.5 -22t-8 -22.5t-22 -8.5t-22.5 8.5z" />
    <glyph glyph-name="Jcircumflex" unicode="&#x134;" horiz-adv-x="474" 
d="M85 40.5q-45 50.5 -45 133.5q0 11 6 18t16 7t15 -7t4 -18q-2 -20 -2 -29q0 -63 32.5 -99t93.5 -36q160 0 160 225v257v134q0 30 -4.5 40t-21.5 12.5t-69 2.5q-20 0 -20 10t20 10h178q14 0 14 -10t-14 -10q-34 0 -45.5 -3t-14.5 -13t-3 -39v-388q0 -118 -42 -183t-138 -65
q-75 0 -120 50.5zM216 739q0 11 56.5 69t77.5 72q3 2 6 2q2 0 6 -2q21 -14 77.5 -72t56.5 -69q0 -4 -4 -4q-1 0 -18 15.5t-29 28.5q-25 27 -55 53.5t-34 26.5t-34 -26.5t-55 -53.5q-12 -13 -29 -28.5t-18 -15.5q-4 0 -4 4z" />
    <glyph glyph-name="jcircumflex" unicode="&#x135;" horiz-adv-x="207" 
d="M4 -174q-6 0 -9.5 3.5t-3.5 7.5q0 7 9 10q44 13 75.5 58.5t31.5 144.5v356q0 15 -2.5 21t-12.5 6q-7 0 -12 -1q-18 -4 -27 -7q-20 -5 -27 -5q-8 0 -9 6v2q0 11 15 13q17 3 35 8.5t25 7.5q16 6 22 6q13 0 13 -18v-395q0 -103 -34 -155.5t-84 -67.5q-2 -1 -5 -1zM-36 527
q0 5 4 10q14 24 62 70t68 59q3 2 6 2q2 0 6 -2q17 -10 63.5 -57t64.5 -72q4 -7 3.5 -11.5t-5.5 -4.5q-10 0 -18 11q-16 20 -61.5 66.5t-52.5 46.5q-8 0 -55.5 -47.5t-60.5 -65.5q-8 -11 -17 -11q-7 0 -7 6z" />
    <glyph glyph-name="uni0136" unicode="&#x136;" horiz-adv-x="691" 
d="M35 9q0 10 17 10q42 0 57 3t18.5 13t3.5 39v552q0 30 -3.5 40t-18 12.5t-57.5 2.5q-17 0 -17 10t17 10h178q17 0 17 -10t-17 -10q-42 0 -57 -3t-18.5 -13t-3.5 -39v-283q0 -10 6 -10t16 10l330 311q11 11 11 16q0 8 -21 10.5t-71 1.5q-15 0 -15 11q0 10 16 10h217
q17 0 17 -10q0 -11 -13 -11q-37 0 -53.5 -1.5t-33 -9t-35.5 -26.5l-189 -178q-12 -12 -12 -26q0 -10 6 -19l236 -350q18 -26 28 -36t25 -14t46 -4q19 0 19 -10q0 -6 -4 -7.5t-15 -1.5h-174q-12 0 -12 10q0 9 24 9q34 0 47.5 3t13.5 11q0 9 -18 35l-233 344q-7 11 -16 11
q-8 0 -26 -16l-101 -95q-9 -8 -12.5 -19.5t-3.5 -31.5v-186q0 -30 3.5 -40t18 -12.5t57.5 -2.5q17 0 17 -10t-17 -10h-178q-17 0 -17 10zM330.5 -139q-1.5 4 2.5 6l10 5t13.5 10.5t5.5 14.5q0 7 -10 7t-16 6.5t-6 15.5q0 10 6.5 16t15.5 6q13 0 19.5 -9t6.5 -25
q0 -20 -8 -32.5t-18 -18.5t-17 -6q-3 0 -4.5 4z" />
    <glyph glyph-name="uni0137" unicode="&#x137;" horiz-adv-x="534" 
d="M33.5 0.5q-3.5 2.5 -3.5 6.5q0 10 13 10q35 0 48 3t16 12t3 36v581q0 15 -2.5 21t-12.5 6q-7 0 -12 -1q-18 -4 -27 -7q-20 -5 -27 -5q-8 0 -9 6v2q0 11 15 13q17 3 35 8.5t25 7.5q16 6 22 6q13 0 13 -18v-477q0 -4 2.5 -7.5t6.5 -3.5q5 0 12 7l200 201q15 15 15 21
q0 5 -10.5 6.5t-53.5 1.5q-11 0 -11 11q0 4 3 6.5t8 2.5q36 -1 86 -1t84 1q5 0 8 -2.5t3 -6.5t-2.5 -7t-6.5 -3q-44 0 -66 -11t-45 -35l-88 -89q-15 -15 -15 -27q0 -8 7 -17l141 -188q26 -35 43 -44t50 -9q23 0 23 -10t-11 -10q-35 1 -87 1t-89 -1q-11 0 -11 10q0 7 8 9
t28 3q21 1 30.5 3.5t9.5 11.5q0 8 -9 20l-139 188q-8 12 -20 12q-10 0 -18 -8l-73 -73q-9 -9 -11 -19t-2 -45v-42q0 -27 3 -36t16.5 -12t49.5 -3q6 0 10 -3t4 -7t-3 -6.5t-7 -2.5q-27 1 -82 1q-53 0 -78 -1q-6 0 -9.5 2.5zM237.5 -139q-1.5 4 2.5 6l10 5t13.5 10.5t5.5 14.5
q0 7 -10 7t-16 6.5t-6 15.5q0 10 6.5 16t15.5 6q13 0 19.5 -9t6.5 -25q0 -20 -8 -32.5t-18 -18.5t-17 -6q-3 0 -4.5 4z" />
    <glyph glyph-name="kgreenlandic" unicode="&#x138;" horiz-adv-x="539" 
d="M38.5 0.5q-3.5 2.5 -3.5 6.5q0 10 13 10q35 0 48 3t16 12t3 36v337q0 15 -2.5 21t-12.5 6q-7 0 -12 -1q-18 -4 -27 -7q-20 -5 -27 -5q-8 0 -9 6v2q0 11 15 13q17 3 35 8.5t25 7.5q17 6 22 6q13 0 13 -18v-233q0 -11 8 -11q6 0 13 7l211 202l7.5 7.5t6.5 12.5
q0 5 -10.5 6.5t-53.5 1.5q-11 0 -11 11q0 4 3 6.5t8 2.5q36 -1 86 -1t84 1q5 0 8 -2.5t3 -6.5t-2.5 -7t-6.5 -3q-43 0 -64.5 -11t-46.5 -35l-98 -93q-15 -14 -15 -27q0 -8 7 -17l141 -184q19 -25 31.5 -35.5t25.5 -14t36 -3.5t23 -10t-11 -10q-35 1 -87 1t-89 -1
q-11 0 -11 10q0 7 8.5 9t27.5 3q22 1 31.5 3.5t9.5 11.5q0 7 -10 20l-139 184q-10 11 -20 11q-11 0 -18 -7l-73 -69q-9 -8 -11 -17.5t-2 -36.5v-52q0 -27 3 -36t16.5 -12t49.5 -3q6 0 10 -3t4 -7t-3 -6.5t-7 -2.5q-27 1 -82 1q-53 0 -78 -1q-6 0 -9.5 2.5z" />
    <glyph glyph-name="Lacute" unicode="&#x139;" horiz-adv-x="562" 
d="M470 -10.5q-5 4.5 -11 7.5t-21 3h-306l-80 -1q-17 0 -17 10t17 10q42 0 57 3t18.5 13t3.5 39v552q0 30 -3.5 40t-18 12.5t-57.5 2.5q-17 0 -17 10t17 10h194q20 0 20 -10t-20 -10q-51 0 -68.5 -3t-22 -13t-4.5 -39v-547q0 -27 4 -39.5t13 -16t30 -3.5h237q21 0 32.5 11
t22.5 46t31 121q4 16 13 16q7 0 7 -8q0 -13 -18 -85q-1 -7 -5 -23q-11 -46 -18 -73.5t-10.5 -33.5t-8.5 -6q-6 0 -11 4.5zM94 746q2 6 69.5 51l76.5 51l23 15q8 4 13 4q8 0 11.5 -2.5t2.5 -6.5q-1 -8 -45 -36.5t-92 -55t-54 -25.5q-5 1 -5 5z" />
    <glyph glyph-name="lacute" unicode="&#x13a;" horiz-adv-x="233" 
d="M33.5 0.5q-3.5 2.5 -3.5 6.5q0 10 13 10q35 0 48 3t16 12t3 36v581q0 15 -2.5 21t-12.5 6q-7 0 -12 -1q-18 -4 -27 -7q-20 -5 -27 -5q-8 0 -9 6v2q0 11 15 13q17 3 35 8.5t25 7.5q16 6 22 6q13 0 13 -18v-620q0 -27 3 -36t16.5 -12t49.5 -3q6 0 10 -3t4 -7t-3 -6.5
t-7 -2.5l-80 1l-80 -1q-6 0 -9.5 2.5zM66 734q2 6 69.5 51l76.5 51l23 15q8 4 13 4q8 0 11.5 -2.5t2.5 -6.5q-1 -8 -45 -36.5t-92 -55t-54 -25.5q-5 1 -5 5z" />
    <glyph glyph-name="uni013B" unicode="&#x13b;" horiz-adv-x="562" 
d="M470 -10.5q-5 4.5 -11 7.5t-21 3h-306l-80 -1q-17 0 -17 10t17 10q42 0 57 3t18.5 13t3.5 39v552q0 30 -3.5 40t-18 12.5t-57.5 2.5q-17 0 -17 10t17 10h194q20 0 20 -10t-20 -10q-51 0 -68.5 -3t-22 -13t-4.5 -39v-547q0 -27 4 -39.5t13 -16t30 -3.5h237q21 0 32.5 11
t22.5 46t31 121q4 16 13 16q7 0 7 -8q0 -13 -18 -85q-1 -7 -5 -23q-11 -46 -18 -73.5t-10.5 -33.5t-8.5 -6q-6 0 -11 4.5zM271.5 -139q-1.5 4 2.5 6l10 5t13.5 10.5t5.5 14.5q0 7 -10 7t-16 6.5t-6 15.5q0 10 6.5 16t15.5 6q13 0 19.5 -9t6.5 -25q0 -20 -8 -32.5t-18 -18.5
t-17 -6q-3 0 -4.5 4z" />
    <glyph glyph-name="uni013C" unicode="&#x13c;" horiz-adv-x="233" 
d="M33.5 0.5q-3.5 2.5 -3.5 6.5q0 10 13 10q35 0 48 3t16 12t3 36v581q0 15 -2.5 21t-12.5 6q-7 0 -12 -1q-18 -4 -27 -7q-20 -5 -27 -5q-8 0 -9 6v2q0 11 15 13q17 3 35 8.5t25 7.5q16 6 22 6q13 0 13 -18v-620q0 -27 3 -36t16.5 -12t49.5 -3q6 0 10 -3t4 -7t-3 -6.5
t-7 -2.5l-80 1l-80 -1q-6 0 -9.5 2.5zM96.5 -139q-1.5 4 2.5 6l10 5t13.5 10.5t5.5 14.5q0 7 -10 7t-16 6.5t-6 15.5q0 10 6.5 16t15.5 6q13 0 19.5 -9t6.5 -25q0 -20 -8 -32.5t-18 -18.5t-17 -6q-3 0 -4.5 4z" />
    <glyph glyph-name="Lcaron" unicode="&#x13d;" horiz-adv-x="562" 
d="M470 -10.5q-5 4.5 -11 7.5t-21 3h-306l-80 -1q-17 0 -17 10t17 10q42 0 57 3t18.5 13t3.5 39v552q0 30 -3.5 40t-18 12.5t-57.5 2.5q-17 0 -17 10t17 10h194q20 0 20 -10t-20 -10q-51 0 -68.5 -3t-22 -13t-4.5 -39v-547q0 -27 4 -39.5t13 -16t30 -3.5h237q21 0 32.5 11
t22.5 46t31 121q4 16 13 16q7 0 7 -8q0 -13 -18 -85q-1 -7 -5 -23q-11 -46 -18 -73.5t-10.5 -33.5t-8.5 -6q-6 0 -11 4.5zM409 686q0 21 12 21q7 0 9.5 -4t2.5 -16q0 -93 -4 -204q0 -6 -8 -6t-8 6q-4 111 -4 203z" />
    <glyph glyph-name="lcaron" unicode="&#x13e;" horiz-adv-x="233" 
d="M33.5 0.5q-3.5 2.5 -3.5 6.5q0 10 13 10q35 0 48 3t16 12t3 36v581q0 15 -2.5 21t-12.5 6q-7 0 -12 -1q-18 -4 -27 -7q-20 -5 -27 -5q-8 0 -9 6v2q0 11 15 13q17 3 35 8.5t25 7.5q16 6 22 6q13 0 13 -18v-620q0 -27 3 -36t16.5 -12t49.5 -3q6 0 10 -3t4 -7t-3 -6.5
t-7 -2.5l-80 1l-80 -1q-6 0 -9.5 2.5zM242 686q0 21 12 21q7 0 9.5 -4t2.5 -16q0 -93 -4 -204q0 -6 -8 -6t-8 6q-4 111 -4 203z" />
    <glyph glyph-name="Ldot" unicode="&#x13f;" horiz-adv-x="562" 
d="M470 -10.5q-5 4.5 -11 7.5t-21 3h-306l-80 -1q-17 0 -17 10t17 10q42 0 57 3t18.5 13t3.5 39v552q0 30 -3.5 40t-18 12.5t-57.5 2.5q-17 0 -17 10t17 10h194q20 0 20 -10t-20 -10q-51 0 -68.5 -3t-22 -13t-4.5 -39v-547q0 -27 4 -39.5t13 -16t30 -3.5h237q21 0 32.5 11
t22.5 46t31 121q4 16 13 16q7 0 7 -8q0 -13 -18 -85q-1 -7 -5 -23q-11 -46 -18 -73.5t-10.5 -33.5t-8.5 -6q-6 0 -11 4.5zM339.5 319.5q-7.5 7.5 -7.5 17.5q0 12 9 21.5t21 9.5q11 0 18.5 -7.5t7.5 -18.5q0 -13 -9 -21.5t-22 -8.5q-10 0 -17.5 7.5z" />
    <glyph glyph-name="ldot" unicode="&#x140;" horiz-adv-x="329" 
d="M33.5 0.5q-3.5 2.5 -3.5 6.5q0 10 13 10q35 0 48 3t16 12t3 36v581q0 15 -2.5 21t-12.5 6q-7 0 -12 -1q-18 -4 -27 -7q-20 -5 -27 -5q-8 0 -9 6v2q0 11 15 13q17 3 35 8.5t25 7.5q16 6 22 6q13 0 13 -18v-620q0 -27 3 -36t16.5 -12t49.5 -3q6 0 10 -3t4 -7t-3 -6.5
t-7 -2.5l-80 1l-80 -1q-6 0 -9.5 2.5zM284 340.5q-6 6.5 -6 14.5q0 11 7.5 18.5t18.5 7.5q9 0 15.5 -6.5t6.5 -15.5q0 -10 -8 -17.5t-19 -7.5q-9 0 -15 6.5z" />
    <glyph glyph-name="Lslash" unicode="&#x141;" horiz-adv-x="562" 
d="M541 206q0 -13 -18 -85q-1 -7 -5 -23q-11 -46 -18 -73.5t-10.5 -33.5t-8.5 -6q-6 0 -11 4.5t-11 7.5t-21 3h-306l-80 -1q-17 0 -17 10t17 10q42 0 57 3t18.5 13t3.5 39v249l-101 -59q-6 -3 -9 -3q-4 0 -4 10q0 6 4 9l110 63v283q0 30 -3.5 40t-18 12.5t-57.5 2.5
q-17 0 -17 10t17 10h194q20 0 20 -10t-20 -10q-51 0 -68.5 -3t-22 -13t-4.5 -39v-271l115 66q5 3 7 3q4 0 4 -9q0 -8 -4 -10l-122 -71v-255q0 -27 4 -39.5t13 -16t30 -3.5h237q21 0 32.5 11t22.5 46t31 121q4 16 13 16q7 0 7 -8z" />
    <glyph glyph-name="lslash" unicode="&#x142;" horiz-adv-x="233" 
d="M239 441q4 3 7 3q4 0 4 -9q0 -8 -4 -10l-116 -67v-290q0 -27 3 -36t16.5 -12t49.5 -3q6 0 10 -3t4 -7t-3 -6.5t-7 -2.5l-80 1l-80 -1q-6 0 -9.5 2.5t-3.5 6.5q0 10 13 10q35 0 48 3t16 12t3 36v278l-107 -62q-6 -3 -9 -3q-4 0 -4 10q0 6 4 9l116 67v282q0 15 -2.5 21
t-12.5 6q-7 0 -12 -1q-18 -4 -27 -7q-20 -5 -27 -5q-8 0 -9 6v2q0 11 15 13q17 3 35 8.5t25 7.5q16 6 22 6q13 0 13 -18v-310z" />
    <glyph glyph-name="Nacute" unicode="&#x143;" horiz-adv-x="733" 
d="M134 -2q-27 1 -85 1q-14 0 -14 10t14 10q43 -1 58.5 3t20 18.5t4.5 54.5v513q0 40 -3.5 53.5t-18.5 17.5t-57 4q-17 0 -17 10q0 5 3.5 6.5t13.5 1.5h87q10 0 15 -1.5t8 -6.5l419 -646q4 -7 8 -7t4 11v556q0 40 -3.5 53.5t-18 17t-57.5 3.5q-17 0 -17 12q0 5 3.5 6.5
t13.5 1.5h182q14 0 14 -10t-14 -10q-43 1 -58.5 -3t-20 -18.5t-4.5 -54.5v-595q0 -12 -12 -12q-13 0 -23 16l-420 648q-1 3 -4 3t-3 -4v-568q0 -40 3.5 -54t18.5 -18t57 -4q17 0 17 -10t-17 -10zM312 746q2 6 69.5 51l76.5 51l23 15q8 4 13 4q8 0 11.5 -2.5t2.5 -6.5
q-1 -8 -45 -36.5t-92 -55t-54 -25.5q-5 1 -5 5z" />
    <glyph glyph-name="nacute" unicode="&#x144;" horiz-adv-x="564" 
d="M35 7q0 10 13 10q35 0 48 3t16 12t3 36v338q0 15 -2.5 21t-12.5 6q-7 0 -12 -1q-18 -4 -27 -7q-20 -5 -27 -5q-8 0 -9 6v2q0 11 15 13q17 3 35 8.5t25 7.5q17 6 22 6q13 0 13 -18v-74q0 -5 0.5 -7.5t2.5 -2.5q2 2 23.5 53.5t132.5 51.5q135 0 155 -182l22 -197
q4 -35 8.5 -47t17.5 -16t49 -4q18 0 18 -11q0 -10 -12 -10l-37 1q-19 1 -46 1q-26 0 -43 -1l-34 -1q-11 0 -15.5 2t-4.5 8q0 11 18 11q29 0 41 1.5t17.5 8t5.5 22.5q0 6 -4 46l-22 181q-10 86 -41.5 126.5t-96.5 40.5q-38 0 -73.5 -20t-58.5 -63.5t-23 -108.5v-186
q0 -27 3 -36t16.5 -12t49.5 -3q6 0 10 -3t4 -7q0 -8 -10 -8l-80 1l-80 -1q-13 0 -13 8zM253 520q0 6 56.5 60t89.5 84q7 7 16 7q11 0 11 -7q0 -8 -38.5 -44t-81 -70t-48.5 -34q-5 0 -5 4z" />
    <glyph glyph-name="uni0145" unicode="&#x145;" horiz-adv-x="733" 
d="M134 -2q-27 1 -85 1q-14 0 -14 10t14 10q43 -1 58.5 3t20 18.5t4.5 54.5v513q0 40 -3.5 53.5t-18.5 17.5t-57 4q-17 0 -17 10q0 5 3.5 6.5t13.5 1.5h87q10 0 15 -1.5t8 -6.5l419 -646q4 -7 8 -7t4 11v556q0 40 -3.5 53.5t-18 17t-57.5 3.5q-17 0 -17 12q0 5 3.5 6.5
t13.5 1.5h182q14 0 14 -10t-14 -10q-43 1 -58.5 -3t-20 -18.5t-4.5 -54.5v-595q0 -12 -12 -12q-13 0 -23 16l-420 648q-1 3 -4 3t-3 -4v-568q0 -40 3.5 -54t18.5 -18t57 -4q17 0 17 -10t-17 -10zM342.5 -139q-1.5 4 2.5 6l10 5t13.5 10.5t5.5 14.5q0 7 -10 7t-16 6.5
t-6 15.5q0 10 6.5 16t15.5 6q13 0 19.5 -9t6.5 -25q0 -20 -8 -32.5t-18 -18.5t-17 -6q-3 0 -4.5 4z" />
    <glyph glyph-name="uni0146" unicode="&#x146;" horiz-adv-x="564" 
d="M35 7q0 10 13 10q35 0 48 3t16 12t3 36v338q0 15 -2.5 21t-12.5 6q-7 0 -12 -1q-18 -4 -27 -7q-20 -5 -27 -5q-8 0 -9 6v2q0 11 15 13q17 3 35 8.5t25 7.5q17 6 22 6q13 0 13 -18v-74q0 -5 0.5 -7.5t2.5 -2.5q2 2 23.5 53.5t132.5 51.5q135 0 155 -182l22 -197
q4 -35 8.5 -47t17.5 -16t49 -4q18 0 18 -11q0 -10 -12 -10l-37 1q-19 1 -46 1q-26 0 -43 -1l-34 -1q-11 0 -15.5 2t-4.5 8q0 11 18 11q29 0 41 1.5t17.5 8t5.5 22.5q0 6 -4 46l-22 181q-10 86 -41.5 126.5t-96.5 40.5q-38 0 -73.5 -20t-58.5 -63.5t-23 -108.5v-186
q0 -27 3 -36t16.5 -12t49.5 -3q6 0 10 -3t4 -7q0 -8 -10 -8l-80 1l-80 -1q-13 0 -13 8zM270.5 -139q-1.5 4 2.5 6l10 5t13.5 10.5t5.5 14.5q0 7 -10 7t-16 6.5t-6 15.5q0 10 6.5 16t15.5 6q13 0 19.5 -9t6.5 -25q0 -20 -8 -32.5t-18 -18.5t-17 -6q-3 0 -4.5 4z" />
    <glyph glyph-name="Ncaron" unicode="&#x147;" horiz-adv-x="733" 
d="M134 -2q-27 1 -85 1q-14 0 -14 10t14 10q43 -1 58.5 3t20 18.5t4.5 54.5v513q0 40 -3.5 53.5t-18.5 17.5t-57 4q-17 0 -17 10q0 5 3.5 6.5t13.5 1.5h87q10 0 15 -1.5t8 -6.5l419 -646q4 -7 8 -7t4 11v556q0 40 -3.5 53.5t-18 17t-57.5 3.5q-17 0 -17 12q0 5 3.5 6.5
t13.5 1.5h182q14 0 14 -10t-14 -10q-43 1 -58.5 -3t-20 -18.5t-4.5 -54.5v-595q0 -12 -12 -12q-13 0 -23 16l-420 648q-1 3 -4 3t-3 -4v-568q0 -40 3.5 -54t18.5 -18t57 -4q17 0 17 -10t-17 -10zM228 862.5q17 -15.5 29 -28.5q25 -27 55 -53.5t34 -26.5t34 26.5t55 53.5
q12 13 29 28.5t18 15.5q4 0 4 -4q0 -11 -56.5 -69t-77.5 -72q-4 -2 -6 -2q-3 0 -6 2q-21 14 -77.5 72t-56.5 69q0 4 4 4q1 0 18 -15.5z" />
    <glyph glyph-name="ncaron" unicode="&#x148;" horiz-adv-x="564" 
d="M35 7q0 10 13 10q35 0 48 3t16 12t3 36v338q0 15 -2.5 21t-12.5 6q-7 0 -12 -1q-18 -4 -27 -7q-20 -5 -27 -5q-8 0 -9 6v2q0 11 15 13q17 3 35 8.5t25 7.5q17 6 22 6q13 0 13 -18v-74q0 -5 0.5 -7.5t2.5 -2.5q2 2 23.5 53.5t132.5 51.5q135 0 155 -182l22 -197
q4 -35 8.5 -47t17.5 -16t49 -4q18 0 18 -11q0 -10 -12 -10l-37 1q-19 1 -46 1q-26 0 -43 -1l-34 -1q-11 0 -15.5 2t-4.5 8q0 11 18 11q29 0 41 1.5t17.5 8t5.5 22.5q0 6 -4 46l-22 181q-10 86 -41.5 126.5t-96.5 40.5q-38 0 -73.5 -20t-58.5 -63.5t-23 -108.5v-186
q0 -27 3 -36t16.5 -12t49.5 -3q6 0 10 -3t4 -7q0 -8 -10 -8l-80 1l-80 -1q-13 0 -13 8zM179 652q13 -18 60.5 -65.5t55.5 -47.5q7 0 52.5 46.5t61.5 66.5q8 11 18 11q6 0 6 -5q0 -6 -4 -11q-18 -25 -64.5 -72t-63.5 -57q-4 -2 -6 -2q-3 0 -6 2q-20 13 -68 59t-62 70
q-4 5 -4 10q0 6 7 6q9 0 17 -11z" />
    <glyph glyph-name="Eng" unicode="&#x14a;" horiz-adv-x="733" 
d="M711 691q0 -10 -14 -10q-43 1 -58.5 -3t-20 -18.5t-4.5 -54.5v-659q0 -51 -25 -82t-67 -31q-47 0 -71 24t-24 57q0 15 6 23.5t13 8.5q8 0 13 -6t5 -18q0 -70 55 -70q35 0 55 26t20 82v39q-8 4 -15 15l-420 648q-1 3 -4 3t-3 -4v-568q0 -40 3.5 -54t18.5 -18t57 -4
q17 0 17 -10t-17 -10l-97 1q-27 1 -85 1q-14 0 -14 10t14 10q43 -1 58.5 3t20 18.5t4.5 54.5v513q0 40 -3.5 53.5t-18.5 17.5t-57 4q-17 0 -17 10q0 5 3.5 6.5t13.5 1.5h87q10 0 15 -1.5t8 -6.5l419 -646q4 -7 8 -7t4 11v556q0 40 -3.5 53.5t-18 17t-57.5 3.5q-17 0 -17 12
q0 5 3.5 6.5t13.5 1.5h182q14 0 14 -10z" />
    <glyph glyph-name="eng" unicode="&#x14b;" horiz-adv-x="510" 
d="M399.5 424q37.5 -42 37.5 -117v-361q0 -51 -25 -82t-67 -31q-47 0 -71 24.5t-24 58.5q0 14 6 22t13 8q8 0 13 -6t5 -18q0 -70 55 -70q35 0 55 26t20 82v342q0 144 -127 144q-38 0 -73.5 -20t-58.5 -63.5t-23 -108.5v-186q0 -27 3 -36t16.5 -12t49.5 -3q6 0 10 -3t4 -7
t-3 -6.5t-7 -2.5l-80 1l-80 -1q-6 0 -9.5 2.5t-3.5 6.5q0 10 13 10q35 0 48 3t16 12t3 36v338q0 15 -2.5 21t-12.5 6q-7 0 -12 -1q-18 -4 -27 -7q-20 -5 -27 -5q-8 0 -9 6v2q0 11 15 13q17 3 35 8.5t25 7.5q17 6 22 6q13 0 13 -18v-45v-1q0 -20 0.5 -29t2.5 -9
q2 2 23.5 53.5t132.5 51.5q68 0 105.5 -42z" />
    <glyph glyph-name="Omacron" unicode="&#x14c;" horiz-adv-x="692" 
d="M192 35q-70 45 -111 127.5t-41 189.5q0 99 38 180.5t108 129.5t160 48q84 0 154 -45t111 -126.5t41 -186.5q0 -100 -38 -182.5t-108 -131t-160 -48.5q-84 0 -154 45zM490 52.5q65 42.5 103.5 120.5t38.5 179q0 93 -35.5 170.5t-101 122.5t-149.5 45q-79 0 -144 -42.5
t-103.5 -119.5t-38.5 -176q0 -94 35.5 -172t101 -124t149.5 -46q79 0 144 42.5zM217.5 761q1.5 5 1.5 6q3 10 10 10l110 -1l110 1q6 0 6 -3t-1 -7q-4 -11 -10 -11q-29 1 -111 1t-110 -1q-7 0 -5.5 5z" />
    <glyph glyph-name="omacron" unicode="&#x14d;" horiz-adv-x="501" 
d="M142 20.5q-48 30.5 -75 84.5t-27 123t27 123t75 84.5t109 30.5t109 -30t74.5 -84.5t26.5 -123.5t-26.5 -123.5t-74.5 -84.5t-109 -30t-109 30.5zM349 38.5q43 27.5 66.5 76.5t23.5 113t-23.5 113t-66.5 76.5t-98 27.5t-98 -27.5t-67 -76.5t-24 -113t24 -113t67 -76.5
t98 -27.5t98 27.5zM132.5 586q1.5 5 1.5 6q3 10 10 10l110 -1l110 1q6 0 6 -3t-1 -7q-4 -11 -10 -11q-29 1 -111 1t-110 -1q-7 0 -5.5 5z" />
    <glyph glyph-name="Obreve" unicode="&#x14e;" horiz-adv-x="692" 
d="M192 35q-70 45 -111 127.5t-41 189.5q0 99 38 180.5t108 129.5t160 48q84 0 154 -45t111 -126.5t41 -186.5q0 -100 -38 -182.5t-108 -131t-160 -48.5q-84 0 -154 45zM490 52.5q65 42.5 103.5 120.5t38.5 179q0 93 -35.5 170.5t-101 122.5t-149.5 45q-79 0 -144 -42.5
t-103.5 -119.5t-38.5 -176q0 -94 35.5 -172t101 -124t149.5 -46q79 0 144 42.5zM244.5 764q-36.5 31 -43.5 88v2q0 4 2.5 7t6.5 3q8 0 10 -10q6 -47 37.5 -74t80.5 -27q47 0 79.5 26t39.5 75q2 10 10 10q5 0 7.5 -4t1.5 -10q-6 -54 -42.5 -85.5t-95.5 -31.5q-57 0 -93.5 31z
" />
    <glyph glyph-name="obreve" unicode="&#x14f;" horiz-adv-x="501" 
d="M142 20.5q-48 30.5 -75 84.5t-27 123t27 123t75 84.5t109 30.5t109 -30t74.5 -84.5t26.5 -123.5t-26.5 -123.5t-74.5 -84.5t-109 -30t-109 30.5zM349 38.5q43 27.5 66.5 76.5t23.5 113t-23.5 113t-66.5 76.5t-98 27.5t-98 -27.5t-67 -76.5t-24 -113t24 -113t67 -76.5
t98 -27.5t98 27.5zM156.5 556q-36.5 31 -43.5 88v2q0 4 2.5 7t6.5 3q8 0 10 -10q6 -47 37.5 -74t80.5 -27q47 0 79.5 26t39.5 75q2 10 10 10q5 0 7.5 -4t1.5 -10q-6 -54 -42.5 -85.5t-95.5 -31.5q-57 0 -93.5 31z" />
    <glyph glyph-name="Ohungarumlaut" unicode="&#x150;" horiz-adv-x="692" 
d="M192 35q-70 45 -111 127.5t-41 189.5q0 99 38 180.5t108 129.5t160 48q84 0 154 -45t111 -126.5t41 -186.5q0 -100 -38 -182.5t-108 -131t-160 -48.5q-84 0 -154 45zM490 52.5q65 42.5 103.5 120.5t38.5 179q0 93 -35.5 170.5t-101 122.5t-149.5 45q-79 0 -144 -42.5
t-103.5 -119.5t-38.5 -176q0 -94 35.5 -172t101 -124t149.5 -46q79 0 144 42.5zM282 738q0 6 15 21l50 52l43 44q9 9 13 9h1q8 0 8 -7q0 -6 -9 -17l-25 -25q-81 -81 -90 -81q-6 0 -6 4zM389 738q0 6 15 21q17 17 32 33t28 30q27 28 32 33q9 9 14 9h1q8 0 8 -7q0 -6 -9 -17
l-25 -25q-81 -81 -90 -81q-6 0 -6 4z" />
    <glyph glyph-name="ohungarumlaut" unicode="&#x151;" horiz-adv-x="501" 
d="M142 20.5q-48 30.5 -75 84.5t-27 123t27 123t75 84.5t109 30.5t109 -30t74.5 -84.5t26.5 -123.5t-26.5 -123.5t-74.5 -84.5t-109 -30t-109 30.5zM349 38.5q43 27.5 66.5 76.5t23.5 113t-23.5 113t-66.5 76.5t-98 27.5t-98 -27.5t-67 -76.5t-24 -113t24 -113t67 -76.5
t98 -27.5t98 27.5zM171.5 518.5q-1.5 3.5 2.5 8.5l94 143q8 10 13 10q11 0 11 -9q0 -5 -26.5 -45t-54.5 -75.5t-34 -35.5q-4 0 -5.5 3.5zM278.5 518.5q-1.5 3.5 2.5 8.5l94 143q8 10 13 10q11 0 11 -9q0 -5 -26.5 -45t-54.5 -75.5t-34 -35.5q-4 0 -5.5 3.5z" />
    <glyph glyph-name="OE" unicode="&#x152;" horiz-adv-x="936" 
d="M832 -10.5q-5 4.5 -11 7.5t-21 3l-379 -1q-36 -9 -75 -9q-84 0 -154 45t-111 127.5t-41 189.5q0 99 38 180.5t108 129.5t160 48q39 0 73 -9l331 -1q14 0 20 2.5t11 7.5t11 5t9 -4t8.5 -23.5t12.5 -52.5l8 -34l8 -33q16 -68 16 -75q0 -5 -1.5 -6t-6.5 -1q-9 0 -13 16
q-21 88 -31.5 122t-21.5 45t-34 11h-227q-23 0 -32 -4t-11.5 -14.5t-2.5 -37.5v-208q0 -20 5 -29t21 -9h137q18 0 25.5 5t7.5 19q0 13 -10 58q-1 3 -1 9q0 10 9 10q5 0 7.5 -3t7 -19.5t10.5 -44.5l11 -48q10 -42 16 -70t6 -36q0 -5 -1.5 -6.5t-5.5 -1.5q-6 0 -8 3t-4 10
q-12 48 -18 65.5t-13.5 23.5t-24.5 6h-151q-18 0 -22 -7.5t-4 -29.5v-254q0 -24 2.5 -32.5t11.5 -11.5t33 -3h276q24 0 35 11t21 43.5t31 123.5q2 10 4.5 13t7.5 3t7 -1.5t2 -6.5q0 -11 -13 -60l-11 -47q-11 -47 -18 -75t-10 -33.5t-9 -5.5t-11 4.5zM428 22.5
q25 12.5 25 51.5v552q0 40 -25.5 52t-81.5 12q-79 0 -144 -42.5t-103.5 -119.5t-38.5 -176q0 -94 35.5 -172t101 -124t149.5 -46q57 0 82 12.5z" />
    <glyph glyph-name="oe" unicode="&#x153;" horiz-adv-x="845" 
d="M142 20.5q-48 30.5 -75 84.5t-27 123t27 123t75 84.5t109 30.5q72 0 125 -41.5t73 -111.5q21 70 74 111.5t117 41.5q46 0 85 -20t62 -54.5t23 -75.5q0 -24 -12.5 -32.5t-38.5 -12.5l-289 -43q-6 -2 -8 -5.5t-2 -10.5q0 -48 20 -94.5t59.5 -77t95.5 -30.5q105 0 169 93
q3 4 6 7.5t6 3.5q5 0 8 -4.5t-1 -10.5q-31 -51 -78.5 -80t-105.5 -29q-74 0 -122 42t-67 114q-20 -72 -73 -114t-126 -42q-61 0 -109 30.5zM757 291q19 3 26 8t7 17q0 33 -18 63t-53 49t-83 19q-40 0 -80.5 -24t-67 -66.5t-26.5 -93.5q0 -10 3 -12.5t10 -1.5zM349 38.5
q43 27.5 66.5 76.5t23.5 113t-23.5 113t-66.5 76.5t-98 27.5t-98 -27.5t-67 -76.5t-24 -113t24 -113t67 -76.5t98 -27.5t98 27.5z" />
    <glyph glyph-name="Racute" unicode="&#x154;" horiz-adv-x="660" 
d="M35 9q0 10 17 10q42 0 57 3t18.5 13t3.5 39v534q0 39 -3.5 52t-18.5 17t-57 4q-17 0 -17 10t17 10l245 1q123 0 182.5 -47t59.5 -147q0 -152 -170 -185q-5 -2 -5.5 -4.5t4.5 -3.5q48 -23 72.5 -68t46.5 -121q16 -57 33.5 -84.5t52.5 -27.5q25 0 36 9t20 25q8 15 15 15
t7 -9q0 -11 -9.5 -25.5t-27.5 -25t-42 -10.5q-45 0 -66.5 31.5t-37.5 95.5q-16 61 -36 102.5t-56.5 67t-94.5 25.5h-89q-26 0 -33.5 -8t-7.5 -33v-182q0 -40 3.5 -53t18 -16.5t57.5 -3.5q17 0 17 -11q0 -5 -4 -7t-13 -2h-178q-17 0 -17 10zM295 335q114 0 169 47.5t55 120.5
q0 95 -55.5 137t-175.5 42h-86q-28 0 -39.5 -13t-11.5 -44v-251q0 -20 8 -29.5t33 -9.5h103zM265 746q2 6 69.5 51l76.5 51l23 15q8 4 13 4q8 0 11.5 -2.5t2.5 -6.5q-1 -8 -45 -36.5t-92 -55t-54 -25.5q-5 1 -5 5z" />
    <glyph glyph-name="racute" unicode="&#x155;" horiz-adv-x="414" 
d="M38.5 0.5q-3.5 2.5 -3.5 6.5q0 10 13 10q35 0 48 3t16 12t3 36v337q0 15 -2.5 21t-12.5 6q-7 0 -12 -1q-18 -4 -27 -7q-20 -5 -27 -5q-8 0 -9 6v2q0 11 15 13q17 3 35 8.5t25 7.5q17 6 22 6q13 0 13 -18v-73q0 -10 3 -10q2 2 23 53.5t122 51.5q52 0 80 -30t28 -77
q0 -25 -5 -37.5t-23 -12.5q-5 0 -11 5t-6 14q0 7 3 14q9 18 9 41q0 27 -17.5 45t-60.5 18q-36 0 -69.5 -21.5t-54.5 -64.5t-21 -105v-187q0 -27 3 -36t16.5 -12t49.5 -3q6 0 10 -3t4 -7t-3 -6.5t-7 -2.5l-80 1l-80 -1q-6 0 -9.5 2.5zM166 520q0 6 56.5 60t89.5 84q7 7 16 7
q11 0 11 -7q0 -8 -38.5 -44t-81 -70t-48.5 -34q-5 0 -5 4z" />
    <glyph glyph-name="uni0156" unicode="&#x156;" horiz-adv-x="660" 
d="M35 9q0 10 17 10q42 0 57 3t18.5 13t3.5 39v534q0 39 -3.5 52t-18.5 17t-57 4q-17 0 -17 10t17 10l245 1q123 0 182.5 -47t59.5 -147q0 -152 -170 -185q-5 -2 -5.5 -4.5t4.5 -3.5q48 -23 72.5 -68t46.5 -121q16 -57 33.5 -84.5t52.5 -27.5q25 0 36 9t20 25q8 15 15 15
t7 -9q0 -11 -9.5 -25.5t-27.5 -25t-42 -10.5q-45 0 -66.5 31.5t-37.5 95.5q-16 61 -36 102.5t-56.5 67t-94.5 25.5h-89q-26 0 -33.5 -8t-7.5 -33v-182q0 -40 3.5 -53t18 -16.5t57.5 -3.5q17 0 17 -11q0 -5 -4 -7t-13 -2h-178q-17 0 -17 10zM295 335q114 0 169 47.5t55 120.5
q0 95 -55.5 137t-175.5 42h-86q-28 0 -39.5 -13t-11.5 -44v-251q0 -20 8 -29.5t33 -9.5h103zM335.5 -139q-1.5 4 2.5 6l10 5t13.5 10.5t5.5 14.5q0 7 -10 7t-16 6.5t-6 15.5q0 10 6.5 16t15.5 6q13 0 19.5 -9t6.5 -25q0 -20 -8 -32.5t-18 -18.5t-17 -6q-3 0 -4.5 4z" />
    <glyph glyph-name="uni0157" unicode="&#x157;" horiz-adv-x="414" 
d="M38.5 0.5q-3.5 2.5 -3.5 6.5q0 10 13 10q35 0 48 3t16 12t3 36v337q0 15 -2.5 21t-12.5 6q-7 0 -12 -1q-18 -4 -27 -7q-20 -5 -27 -5q-8 0 -9 6v2q0 11 15 13q17 3 35 8.5t25 7.5q17 6 22 6q13 0 13 -18v-73q0 -10 3 -10q2 2 23 53.5t122 51.5q52 0 80 -30t28 -77
q0 -25 -5 -37.5t-23 -12.5q-5 0 -11 5t-6 14q0 7 3 14q9 18 9 41q0 27 -17.5 45t-60.5 18q-36 0 -69.5 -21.5t-54.5 -64.5t-21 -105v-187q0 -27 3 -36t16.5 -12t49.5 -3q6 0 10 -3t4 -7t-3 -6.5t-7 -2.5l-80 1l-80 -1q-6 0 -9.5 2.5zM183.5 -139q-1.5 4 2.5 6l10 5
t13.5 10.5t5.5 14.5q0 7 -10 7t-16 6.5t-6 15.5q0 10 6.5 16t15.5 6q13 0 19.5 -9t6.5 -25q0 -20 -8 -32.5t-18 -18.5t-17 -6q-3 0 -4.5 4z" />
    <glyph glyph-name="Rcaron" unicode="&#x158;" horiz-adv-x="660" 
d="M35 9q0 10 17 10q42 0 57 3t18.5 13t3.5 39v534q0 39 -3.5 52t-18.5 17t-57 4q-17 0 -17 10t17 10l245 1q123 0 182.5 -47t59.5 -147q0 -152 -170 -185q-5 -2 -5.5 -4.5t4.5 -3.5q48 -23 72.5 -68t46.5 -121q16 -57 33.5 -84.5t52.5 -27.5q25 0 36 9t20 25q8 15 15 15
t7 -9q0 -11 -9.5 -25.5t-27.5 -25t-42 -10.5q-45 0 -66.5 31.5t-37.5 95.5q-16 61 -36 102.5t-56.5 67t-94.5 25.5h-89q-26 0 -33.5 -8t-7.5 -33v-182q0 -40 3.5 -53t18 -16.5t57.5 -3.5q17 0 17 -11q0 -5 -4 -7t-13 -2h-178q-17 0 -17 10zM295 335q114 0 169 47.5t55 120.5
q0 95 -55.5 137t-175.5 42h-86q-28 0 -39.5 -13t-11.5 -44v-251q0 -20 8 -29.5t33 -9.5h103zM181 862.5q17 -15.5 29 -28.5q25 -27 55 -53.5t34 -26.5t34 26.5t55 53.5q12 13 29 28.5t18 15.5q4 0 4 -4q0 -11 -56.5 -69t-77.5 -72q-4 -2 -6 -2q-3 0 -6 2q-21 14 -77.5 72
t-56.5 69q0 4 4 4q1 0 18 -15.5z" />
    <glyph glyph-name="rcaron" unicode="&#x159;" horiz-adv-x="414" 
d="M38.5 0.5q-3.5 2.5 -3.5 6.5q0 10 13 10q35 0 48 3t16 12t3 36v337q0 15 -2.5 21t-12.5 6q-7 0 -12 -1q-18 -4 -27 -7q-20 -5 -27 -5q-8 0 -9 6v2q0 11 15 13q17 3 35 8.5t25 7.5q17 6 22 6q13 0 13 -18v-73q0 -10 3 -10q2 2 23 53.5t122 51.5q52 0 80 -30t28 -77
q0 -25 -5 -37.5t-23 -12.5q-5 0 -11 5t-6 14q0 7 3 14q9 18 9 41q0 27 -17.5 45t-60.5 18q-36 0 -69.5 -21.5t-54.5 -64.5t-21 -105v-187q0 -27 3 -36t16.5 -12t49.5 -3q6 0 10 -3t4 -7t-3 -6.5t-7 -2.5l-80 1l-80 -1q-6 0 -9.5 2.5zM92 652q13 -18 60.5 -65.5t55.5 -47.5
q7 0 52.5 46.5t61.5 66.5q8 11 18 11q6 0 6 -5q0 -6 -4 -11q-18 -25 -64.5 -72t-63.5 -57q-4 -2 -6 -2q-3 0 -6 2q-20 13 -68 59t-62 70q-4 5 -4 10q0 6 7 6q9 0 17 -11z" />
    <glyph glyph-name="Sacute" unicode="&#x15a;" horiz-adv-x="530" 
d="M138 22.5q-60 32.5 -87 88.5q-12 26 -16 48q-4 16 -4 39q0 14 5.5 21t14.5 7t16.5 -7.5t5.5 -22.5q-1 -8 -1 -22q0 -46 23 -83t67.5 -59t106.5 -22q93 0 149.5 47t56.5 125q0 70 -50 112t-165 73q-80 22 -125 48t-63.5 59t-18.5 78q0 44 24.5 80t70 57t104.5 21
q69 0 124.5 -32t82.5 -88q8 -18 15 -43q6 -24 6 -50t-21 -26q-8 0 -14.5 7.5t-5.5 22.5l1 17q0 75 -49 123.5t-139 48.5q-49 0 -90 -17.5t-65 -49t-24 -72.5q0 -60 44 -99t142 -64q126 -32 181 -81t55 -122q0 -58 -28 -102.5t-79 -68.5t-118 -24q-72 0 -132 32.5zM211 746
q2 6 69.5 51l76.5 51l23 15q8 4 13 4q8 0 11.5 -2.5t2.5 -6.5q-1 -8 -45 -36.5t-92 -55t-54 -25.5q-5 1 -5 5z" />
    <glyph glyph-name="sacute" unicode="&#x15b;" horiz-adv-x="439" 
d="M120 22q-24 16 -38 43q-16 29 -16 64q0 10 5.5 17t14.5 7q10 0 16 -7.5t4 -18.5q-2 -12 -2 -19q0 -41 30.5 -70t88.5 -29q70 0 109.5 30.5t39.5 80.5q0 46 -33 72.5t-111 43.5q-82 19 -112.5 48t-30.5 77q0 44 38.5 74.5t100.5 30.5q52 0 93 -26q24 -13 41 -37
q24 -34 24 -76q0 -9 -5.5 -16t-13.5 -7q-11 0 -17 7t-4 18q2 12 2 17q0 41 -31.5 71t-87.5 30q-50 0 -85 -24t-35 -62q0 -41 27.5 -66.5t98.5 -38.5q85 -15 123 -49t38 -85q0 -60 -46 -96t-122 -36q-61 0 -104 32zM184 521q0 6 56.5 60t89.5 84q7 7 16 7q11 0 11 -7
q0 -8 -38.5 -44t-81 -70t-48.5 -34q-5 0 -5 4z" />
    <glyph glyph-name="Scircumflex" unicode="&#x15c;" horiz-adv-x="530" 
d="M138 22.5q-60 32.5 -87 88.5q-12 26 -16 48q-4 16 -4 39q0 14 5.5 21t14.5 7t16.5 -7.5t5.5 -22.5q-1 -8 -1 -22q0 -46 23 -83t67.5 -59t106.5 -22q93 0 149.5 47t56.5 125q0 70 -50 112t-165 73q-80 22 -125 48t-63.5 59t-18.5 78q0 44 24.5 80t70 57t104.5 21
q69 0 124.5 -32t82.5 -88q8 -18 15 -43q6 -24 6 -50t-21 -26q-8 0 -14.5 7.5t-5.5 22.5l1 17q0 75 -49 123.5t-139 48.5q-49 0 -90 -17.5t-65 -49t-24 -72.5q0 -60 44 -99t142 -64q126 -32 181 -81t55 -122q0 -58 -28 -102.5t-79 -68.5t-118 -24q-72 0 -132 32.5zM125 739
q0 11 56.5 69t77.5 72q3 2 6 2q2 0 6 -2q21 -14 77.5 -72t56.5 -69q0 -4 -4 -4q-1 0 -18 15.5t-29 28.5q-25 27 -55 53.5t-34 26.5t-34 -26.5t-55 -53.5q-12 -13 -29 -28.5t-18 -15.5q-4 0 -4 4z" />
    <glyph glyph-name="scircumflex" unicode="&#x15d;" horiz-adv-x="439" 
d="M120 22q-24 16 -38 43q-16 29 -16 64q0 10 5.5 17t14.5 7q10 0 16 -7.5t4 -18.5q-2 -12 -2 -19q0 -41 30.5 -70t88.5 -29q70 0 109.5 30.5t39.5 80.5q0 46 -33 72.5t-111 43.5q-82 19 -112.5 48t-30.5 77q0 44 38.5 74.5t100.5 30.5q52 0 93 -26q24 -13 41 -37
q24 -34 24 -76q0 -9 -5.5 -16t-13.5 -7q-11 0 -17 7t-4 18q2 12 2 17q0 41 -31.5 71t-87.5 30q-50 0 -85 -24t-35 -62q0 -41 27.5 -66.5t98.5 -38.5q85 -15 123 -49t38 -85q0 -60 -46 -96t-122 -36q-61 0 -104 32zM85 528q0 5 4 10q14 24 62 70t68 59q3 2 6 2q2 0 6 -2
q17 -10 63.5 -57t64.5 -72q4 -7 3.5 -11.5t-5.5 -4.5q-10 0 -18 11q-16 20 -61.5 66.5t-52.5 46.5q-8 0 -55.5 -47.5t-60.5 -65.5q-8 -11 -17 -11q-7 0 -7 6z" />
    <glyph glyph-name="Scedilla" unicode="&#x15e;" horiz-adv-x="530" 
d="M435 44.5q-60 -52.5 -161 -54.5q-1 -16 9 -24.5t33 -18.5q28 -11 42.5 -23.5t14.5 -38.5q0 -35 -25.5 -54.5t-67.5 -19.5q-68 0 -105 34q-5 5 -5 10q0 3 2 5.5t6 2.5q6 0 12 -5q32 -27 90 -27q33 0 53 14.5t20 38.5q0 18 -12 26.5t-37 19.5q-27 11 -39.5 21t-12.5 29
q0 7 1 11q-67 4 -121.5 35.5t-80.5 84.5q-12 26 -16 48q-4 16 -4 39q0 14 5.5 21t14.5 7t16.5 -7.5t5.5 -22.5q-1 -8 -1 -22q0 -46 23 -83t67.5 -59t106.5 -22q93 0 149.5 47t56.5 125q0 70 -50 112t-165 73q-80 22 -125 48t-63.5 59t-18.5 78q0 44 24.5 80t70 57t104.5 21
q69 0 124.5 -32t82.5 -88q8 -18 15 -43q6 -24 6 -50t-21 -26q-8 0 -14.5 7.5t-5.5 22.5l1 17q0 75 -49 123.5t-139 48.5q-49 0 -90 -17.5t-65 -49t-24 -72.5q0 -60 44 -99t142 -64q126 -32 181 -81t55 -122q0 -88 -60 -140.5z" />
    <glyph glyph-name="scedilla" unicode="&#x15f;" horiz-adv-x="439" 
d="M349 28.5q-43 -35.5 -115 -38.5q-2 -17 8.5 -26t33.5 -19q28 -11 42.5 -23.5t14.5 -38.5q0 -35 -25.5 -54.5t-67.5 -19.5q-68 0 -105 34q-5 5 -5 10q0 3 2 5.5t6 2.5q6 0 12 -5q32 -27 90 -27q33 0 53 14.5t20 38.5q0 18 -12 26.5t-37 19.5q-27 11 -39.5 21t-12.5 29
q0 8 1 12q-55 3 -93 32q-24 16 -38 43q-16 29 -16 64q0 10 5.5 17t14.5 7q10 0 16 -7.5t4 -18.5q-2 -12 -2 -19q0 -41 30.5 -70t88.5 -29q70 0 109.5 30.5t39.5 80.5q0 46 -33 72.5t-111 43.5q-82 19 -112.5 48t-30.5 77q0 44 38.5 74.5t100.5 30.5q52 0 93 -26
q24 -13 41 -37q24 -34 24 -76q0 -9 -5.5 -16t-13.5 -7q-11 0 -17 7t-4 18q2 12 2 17q0 41 -31.5 71t-87.5 30q-50 0 -85 -24t-35 -62q0 -41 27.5 -66.5t98.5 -38.5q85 -15 123 -49t38 -85q0 -58 -43 -93.5z" />
    <glyph glyph-name="Scaron" unicode="&#x160;" horiz-adv-x="530" 
d="M138 22.5q-60 32.5 -87 88.5q-12 26 -16 48q-4 16 -4 39q0 14 5.5 21t14.5 7t16.5 -7.5t5.5 -22.5q-1 -8 -1 -22q0 -46 23 -83t67.5 -59t106.5 -22q93 0 149.5 47t56.5 125q0 70 -50 112t-165 73q-80 22 -125 48t-63.5 59t-18.5 78q0 44 24.5 80t70 57t104.5 21
q69 0 124.5 -32t82.5 -88q8 -18 15 -43q6 -24 6 -50t-21 -26q-8 0 -14.5 7.5t-5.5 22.5l1 17q0 75 -49 123.5t-139 48.5q-49 0 -90 -17.5t-65 -49t-24 -72.5q0 -60 44 -99t142 -64q126 -32 181 -81t55 -122q0 -58 -28 -102.5t-79 -68.5t-118 -24q-72 0 -132 32.5zM127 862.5
q17 -15.5 29 -28.5q25 -27 55 -53.5t34 -26.5t34 26.5t55 53.5q12 13 29 28.5t18 15.5q4 0 4 -4q0 -11 -56.5 -69t-77.5 -72q-4 -2 -6 -2q-3 0 -6 2q-21 14 -77.5 72t-56.5 69q0 4 4 4q1 0 18 -15.5z" />
    <glyph glyph-name="scaron" unicode="&#x161;" horiz-adv-x="439" 
d="M120 22q-24 16 -38 43q-16 29 -16 64q0 10 5.5 17t14.5 7q10 0 16 -7.5t4 -18.5q-2 -12 -2 -19q0 -41 30.5 -70t88.5 -29q70 0 109.5 30.5t39.5 80.5q0 46 -33 72.5t-111 43.5q-82 19 -112.5 48t-30.5 77q0 44 38.5 74.5t100.5 30.5q52 0 93 -26q24 -13 41 -37
q24 -34 24 -76q0 -9 -5.5 -16t-13.5 -7q-11 0 -17 7t-4 18q2 12 2 17q0 41 -31.5 71t-87.5 30q-50 0 -85 -24t-35 -62q0 -41 27.5 -66.5t98.5 -38.5q85 -15 123 -49t38 -85q0 -60 -46 -96t-122 -36q-61 0 -104 32zM110 653q13 -18 60.5 -65.5t55.5 -47.5q7 0 52.5 46.5
t61.5 66.5q8 11 18 11q6 0 6 -5q0 -6 -4 -11q-18 -25 -64.5 -72t-63.5 -57q-4 -2 -6 -2q-3 0 -6 2q-20 13 -68 59t-62 70q-4 5 -4 10q0 6 7 6q9 0 17 -11z" />
    <glyph glyph-name="uni0162" unicode="&#x162;" horiz-adv-x="599" 
d="M551 580q18 -72 18 -85q0 -5 -1.5 -6.5t-6.5 -1.5q-6 0 -8 4.5t-5 15.5q-21 89 -31 120.5t-22.5 42t-39.5 10.5h-100q-22 0 -32 -6.5t-12 -18.5t-2 -41v-532q0 -34 5 -45.5t23.5 -14.5t74.5 -3q22 0 22 -10t-22 -10h-96q-2 -10 -2 -13q0 -15 10.5 -22.5t32.5 -16.5
q27 -11 41.5 -24t14.5 -38q0 -35 -25.5 -54.5t-67.5 -19.5q-68 0 -105 34q-5 5 -5 10q0 3 2 5.5t6 2.5q6 0 12 -5q32 -27 90 -27q33 0 53 14.5t20 38.5q0 18 -12 26.5t-37 19.5q-27 11 -39.5 21t-12.5 29q0 8 3 19h-109q-22 0 -22 10t22 10q55 0 74 3t24 13t5 39v540
q0 29 -2 41t-12 18.5t-32 6.5h-98q-28 0 -41 -10.5t-23 -42t-31 -120.5q-3 -11 -5 -15.5t-8 -4.5q-7 0 -7 9t6 37t16 70q10 43 17.5 70.5t11.5 35t10 7.5q5 0 11 -5t13.5 -8t24.5 -3h318q17 0 24.5 3t13.5 8t11 5q6 0 9.5 -6t11 -33.5t18.5 -73.5q4 -16 5 -23z" />
    <glyph glyph-name="uni0163" unicode="&#x163;" horiz-adv-x="348" 
d="M327 98q5 0 8 -6t-1 -11q-28 -48 -60.5 -69t-72.5 -21h-7q-2 -17 8.5 -25.5t34.5 -18.5q28 -13 42 -25t14 -37q0 -35 -25.5 -54.5t-67.5 -19.5q-68 0 -105 34q-5 5 -5 10q0 3 2 5.5t6 2.5q6 0 12 -5q32 -27 90 -27q33 0 53 14.5t20 38.5q0 18 -12 27t-38 19
q-27 11 -39.5 21t-12.5 30q0 3 2 13q-41 8 -64 43.5t-23 100.5v284q0 10 -5 13t-14 3h-35q-12 0 -12 9t12 9h15q19 0 27 17t12 55q3 24 6.5 33.5t8.5 9.5q9 0 9 -14v-84q0 -11 2.5 -14t12.5 -3h152q12 0 12 -9q0 -4 -3.5 -6.5t-10.5 -2.5h-150q-9 0 -14 -3t-5 -13v-280
q0 -68 27 -99.5t75 -31.5q29 0 58.5 19.5t49.5 57.5q6 10 11 10z" />
    <glyph glyph-name="Tcaron" unicode="&#x164;" horiz-adv-x="599" 
d="M164 9q0 10 22 10q55 0 74 3t24 13t5 39v540q0 29 -2 41t-12 18.5t-32 6.5h-98q-28 0 -41 -10.5t-23 -42t-31 -120.5q-3 -11 -5 -15.5t-8 -4.5q-7 0 -7 9t6 37t16 70q10 43 17.5 70.5t11.5 35t10 7.5q5 0 11 -5t13.5 -8t24.5 -3h318q17 0 24.5 3t13.5 8t11 5q6 0 9.5 -6
t11 -33.5t18.5 -73.5q4 -16 5 -23q18 -72 18 -85q0 -5 -1.5 -6.5t-6.5 -1.5q-6 0 -8 4.5t-5 15.5q-21 89 -31 120.5t-22.5 42t-39.5 10.5h-100q-22 0 -32 -6.5t-12 -18.5t-2 -41v-532q0 -34 5 -45.5t23.5 -14.5t74.5 -3q22 0 22 -10t-22 -10h-226q-22 0 -22 10zM167 862.5
q17 -15.5 29 -28.5q25 -27 55 -53.5t34 -26.5t34 26.5t55 53.5q12 13 29 28.5t18 15.5q4 0 4 -4q0 -11 -56.5 -69t-77.5 -72q-4 -2 -6 -2q-3 0 -6 2q-21 14 -77.5 72t-56.5 69q0 4 4 4q1 0 18 -15.5z" />
    <glyph glyph-name="tcaron" unicode="&#x165;" horiz-adv-x="348" 
d="M116.5 26.5q-30.5 35.5 -30.5 111.5v284q0 10 -5 13t-14 3h-35q-12 0 -12 9t12 9h15q19 0 27 17t12 55q3 24 6.5 33.5t8.5 9.5q9 0 9 -14v-84q0 -11 2.5 -14t12.5 -3h152q12 0 12 -9q0 -4 -3.5 -6.5t-10.5 -2.5h-150q-9 0 -14 -3t-5 -13v-280q0 -68 27 -99.5t75 -31.5
q29 0 58.5 19.5t49.5 57.5q6 10 11 10t8 -6t-1 -11q-28 -48 -60.5 -69t-72.5 -21q-54 0 -84.5 35.5zM236 698q0 21 12 21q7 0 9.5 -4t2.5 -16q0 -93 -4 -204q0 -6 -8 -6t-8 6q-4 111 -4 203z" />
    <glyph glyph-name="Tbar" unicode="&#x166;" horiz-adv-x="599" 
d="M551 580q18 -72 18 -85q0 -5 -1.5 -6.5t-6.5 -1.5q-6 0 -8 4.5t-5 15.5q-21 89 -31 120.5t-22.5 42t-39.5 10.5h-100q-22 0 -32 -6.5t-12 -18.5t-2 -41v-246q0 -4 2 -6.5t5 -2.5h138q4 0 7 -3t3 -7q0 -10 -10 -10h-138q-7 0 -7 -6v-251q0 -34 5 -45.5t23.5 -14.5t74.5 -3
q22 0 22 -10t-22 -10h-226q-22 0 -22 10t22 10q55 0 74 3t24 13t5 39v258q0 7 -7 7h-138q-10 0 -10 10q0 5 3 8t7 3h138q7 0 7 8v246q0 29 -2 41t-12 18.5t-32 6.5h-98q-28 0 -41 -10.5t-23 -42t-31 -120.5q-3 -11 -5 -15.5t-8 -4.5q-7 0 -7 9t6 37t16 70q10 43 17.5 70.5
t11.5 35t10 7.5q5 0 11 -5t13.5 -8t24.5 -3h318q17 0 24.5 3t13.5 8t11 5q6 0 9.5 -6t11 -33.5t18.5 -73.5q4 -16 5 -23z" />
    <glyph glyph-name="tbar" unicode="&#x167;" horiz-adv-x="348" 
d="M327 98q5 0 8 -6t-1 -11q-28 -48 -60.5 -69t-72.5 -21q-54 0 -84.5 35.5t-30.5 111.5v80q-20 -1 -55 -1q-6 0 -9.5 3.5t-3.5 8.5q0 4 3.5 7t8.5 3q35 0 56 -1v184q0 10 -5 13t-14 3h-35q-12 0 -12 9t12 9h15q19 0 27 17t12 55q3 24 6.5 33.5t8.5 9.5q9 0 9 -14v-84
q0 -11 2.5 -14t12.5 -3h152q12 0 12 -9q0 -4 -3.5 -6.5t-10.5 -2.5h-150q-9 0 -14 -3t-5 -13v-184q99 0 133 1q13 0 13 -10q0 -5 -3.5 -8.5t-8.5 -3.5q-36 1 -134 1v-76q0 -68 27 -99.5t75 -31.5q29 0 58.5 19.5t49.5 57.5q6 10 11 10z" />
    <glyph glyph-name="Utilde" unicode="&#x168;" horiz-adv-x="712" 
d="M168 47q-62 57 -62 170v391q0 38 -4.5 52t-19 17.5t-53.5 3.5q-17 0 -17 10t17 10l178 -1q17 0 17 -10t-17 -10q-43 0 -58 -2.5t-19 -12.5t-4 -39v-404q0 -108 57.5 -160t171.5 -52q108 0 168 52.5t60 151.5v375q0 49 -4 65.5t-18.5 21t-57.5 4.5q-16 0 -16 10t16 10h90
q55 0 92 1q7 0 11 -3t4 -7t-4 -7t-11 -3q-42 0 -57.5 -4.5t-20 -22t-4.5 -65.5v-367q0 -115 -66 -173.5t-188 -58.5q-119 0 -181 57zM403 744.5q-15 6.5 -37 20.5q-21 14 -36.5 21t-35.5 7q-21 0 -36.5 -12.5t-20.5 -34.5q-3 -10 -8 -10q-6 0 -6 9q2 29 21 48.5t50 19.5
q23 0 41.5 -8t42.5 -23q19 -12 31.5 -18t26.5 -6q22 0 37.5 13t20.5 34q3 10 9 10q2 0 3.5 -2.5t1.5 -6.5q-2 -29 -21.5 -48.5t-50.5 -19.5q-18 0 -33 6.5z" />
    <glyph glyph-name="utilde" unicode="&#x169;" horiz-adv-x="530" 
d="M130.5 39.5q-40.5 48.5 -40.5 141.5v224q0 15 -2.5 21t-12.5 6q-7 0 -12 -1q-18 -4 -27 -7q-20 -5 -27 -5q-8 0 -9 6v2q0 11 15 13q17 3 35 8.5t25 7.5q16 6 22 6q13 0 13 -18v-258q0 -87 35.5 -131t104.5 -44q38 0 73.5 20t58.5 63.5t23 108.5v202q0 15 -2.5 21t-12.5 6
q-7 0 -12 -1q-18 -4 -27 -7q-20 -5 -27 -5q-8 0 -9 6v2q0 11 15 13q17 3 35 8.5t25 7.5q17 6 22 6q13 0 13 -18v-393q0 -15 2.5 -21t12.5 -6q7 0 12 1q18 4 27 7q20 5 27 5q8 0 9 -6v-2q0 -11 -15 -13q-17 -3 -35 -8.5t-25 -7.5q-16 -6 -22 -6q-13 0 -13 18v70q0 14 -3 14
q-1 0 -23 -52.5t-134 -52.5q-74 0 -114.5 48.5zM292 560.5q-15 6.5 -37 20.5q-21 14 -36.5 21t-35.5 7q-21 0 -36.5 -12.5t-20.5 -34.5q-3 -10 -8 -10q-6 0 -6 9q2 29 21 48.5t50 19.5q23 0 41.5 -8t42.5 -23q19 -12 31.5 -18t26.5 -6q22 0 37.5 13t20.5 34q3 10 9 10
q2 0 3.5 -2.5t1.5 -6.5q-2 -29 -21.5 -48.5t-50.5 -19.5q-18 0 -33 6.5z" />
    <glyph glyph-name="Umacron" unicode="&#x16a;" horiz-adv-x="712" 
d="M168 47q-62 57 -62 170v391q0 38 -4.5 52t-19 17.5t-53.5 3.5q-17 0 -17 10t17 10l178 -1q17 0 17 -10t-17 -10q-43 0 -58 -2.5t-19 -12.5t-4 -39v-404q0 -108 57.5 -160t171.5 -52q108 0 168 52.5t60 151.5v375q0 49 -4 65.5t-18.5 21t-57.5 4.5q-16 0 -16 10t16 10h90
q55 0 92 1q7 0 11 -3t4 -7t-4 -7t-11 -3q-42 0 -57.5 -4.5t-20 -22t-4.5 -65.5v-367q0 -115 -66 -173.5t-188 -58.5q-119 0 -181 57zM225.5 761q1.5 5 1.5 6q3 10 10 10l110 -1l110 1q6 0 6 -3t-1 -7q-4 -11 -10 -11q-29 1 -111 1t-110 -1q-7 0 -5.5 5z" />
    <glyph glyph-name="umacron" unicode="&#x16b;" horiz-adv-x="530" 
d="M130.5 39.5q-40.5 48.5 -40.5 141.5v224q0 15 -2.5 21t-12.5 6q-7 0 -12 -1q-18 -4 -27 -7q-20 -5 -27 -5q-8 0 -9 6v2q0 11 15 13q17 3 35 8.5t25 7.5q16 6 22 6q13 0 13 -18v-258q0 -87 35.5 -131t104.5 -44q38 0 73.5 20t58.5 63.5t23 108.5v202q0 15 -2.5 21t-12.5 6
q-7 0 -12 -1q-18 -4 -27 -7q-20 -5 -27 -5q-8 0 -9 6v2q0 11 15 13q17 3 35 8.5t25 7.5q17 6 22 6q13 0 13 -18v-393q0 -15 2.5 -21t12.5 -6q7 0 12 1q18 4 27 7q20 5 27 5q8 0 9 -6v-2q0 -11 -15 -13q-17 -3 -35 -8.5t-25 -7.5q-16 -6 -22 -6q-13 0 -13 18v70q0 14 -3 14
q-1 0 -23 -52.5t-134 -52.5q-74 0 -114.5 48.5zM148.5 586q1.5 5 1.5 6q3 10 10 10l110 -1l110 1q6 0 6 -3t-1 -7q-4 -11 -10 -11q-29 1 -111 1t-110 -1q-7 0 -5.5 5z" />
    <glyph glyph-name="Ubreve" unicode="&#x16c;" horiz-adv-x="712" 
d="M168 47q-62 57 -62 170v391q0 38 -4.5 52t-19 17.5t-53.5 3.5q-17 0 -17 10t17 10l178 -1q17 0 17 -10t-17 -10q-43 0 -58 -2.5t-19 -12.5t-4 -39v-404q0 -108 57.5 -160t171.5 -52q108 0 168 52.5t60 151.5v375q0 49 -4 65.5t-18.5 21t-57.5 4.5q-16 0 -16 10t16 10h90
q55 0 92 1q7 0 11 -3t4 -7t-4 -7t-11 -3q-42 0 -57.5 -4.5t-20 -22t-4.5 -65.5v-367q0 -115 -66 -173.5t-188 -58.5q-119 0 -181 57zM252.5 764q-36.5 31 -43.5 88v2q0 4 2.5 7t6.5 3q8 0 10 -10q6 -47 37.5 -74t80.5 -27q47 0 79.5 26t39.5 75q2 10 10 10q5 0 7.5 -4
t1.5 -10q-6 -54 -42.5 -85.5t-95.5 -31.5q-57 0 -93.5 31z" />
    <glyph glyph-name="ubreve" unicode="&#x16d;" horiz-adv-x="530" 
d="M130.5 39.5q-40.5 48.5 -40.5 141.5v224q0 15 -2.5 21t-12.5 6q-7 0 -12 -1q-18 -4 -27 -7q-20 -5 -27 -5q-8 0 -9 6v2q0 11 15 13q17 3 35 8.5t25 7.5q16 6 22 6q13 0 13 -18v-258q0 -87 35.5 -131t104.5 -44q38 0 73.5 20t58.5 63.5t23 108.5v202q0 15 -2.5 21t-12.5 6
q-7 0 -12 -1q-18 -4 -27 -7q-20 -5 -27 -5q-8 0 -9 6v2q0 11 15 13q17 3 35 8.5t25 7.5q17 6 22 6q13 0 13 -18v-393q0 -15 2.5 -21t12.5 -6q7 0 12 1q18 4 27 7q20 5 27 5q8 0 9 -6v-2q0 -11 -15 -13q-17 -3 -35 -8.5t-25 -7.5q-16 -6 -22 -6q-13 0 -13 18v70q0 14 -3 14
q-1 0 -23 -52.5t-134 -52.5q-74 0 -114.5 48.5zM172.5 556q-36.5 31 -43.5 88v2q0 4 2.5 7t6.5 3q8 0 10 -10q6 -47 37.5 -74t80.5 -27q47 0 79.5 26t39.5 75q2 10 10 10q5 0 7.5 -4t1.5 -10q-6 -54 -42.5 -85.5t-95.5 -31.5q-57 0 -93.5 31z" />
    <glyph glyph-name="Uring" unicode="&#x16e;" horiz-adv-x="712" 
d="M168 47q-62 57 -62 170v391q0 38 -4.5 52t-19 17.5t-53.5 3.5q-17 0 -17 10t17 10l178 -1q17 0 17 -10t-17 -10q-43 0 -58 -2.5t-19 -12.5t-4 -39v-404q0 -108 57.5 -160t171.5 -52q108 0 168 52.5t60 151.5v375q0 49 -4 65.5t-18.5 21t-57.5 4.5q-16 0 -16 10t16 10h90
q55 0 92 1q7 0 11 -3t4 -7t-4 -7t-11 -3q-42 0 -57.5 -4.5t-20 -22t-4.5 -65.5v-367q0 -115 -66 -173.5t-188 -58.5q-119 0 -181 57zM291.5 761.5q-21.5 21.5 -21.5 52.5t21.5 52.5t52.5 21.5t52.5 -21.5t21.5 -52.5t-21.5 -52.5t-52.5 -21.5t-52.5 21.5zM384.5 773.5
q16.5 16.5 16.5 40.5t-17 40.5t-40 16.5t-40 -16.5t-17 -40.5q0 -23 17 -40t40 -17q24 0 40.5 16.5z" />
    <glyph glyph-name="uring" unicode="&#x16f;" horiz-adv-x="530" 
d="M130.5 39.5q-40.5 48.5 -40.5 141.5v224q0 15 -2.5 21t-12.5 6q-7 0 -12 -1q-18 -4 -27 -7q-20 -5 -27 -5q-8 0 -9 6v2q0 11 15 13q17 3 35 8.5t25 7.5q16 6 22 6q13 0 13 -18v-258q0 -87 35.5 -131t104.5 -44q38 0 73.5 20t58.5 63.5t23 108.5v202q0 15 -2.5 21t-12.5 6
q-7 0 -12 -1q-18 -4 -27 -7q-20 -5 -27 -5q-8 0 -9 6v2q0 11 15 13q17 3 35 8.5t25 7.5q17 6 22 6q13 0 13 -18v-393q0 -15 2.5 -21t12.5 -6q7 0 12 1q18 4 27 7q20 5 27 5q8 0 9 -6v-2q0 -11 -15 -13q-17 -3 -35 -8.5t-25 -7.5q-16 -6 -22 -6q-13 0 -13 18v70q0 14 -3 14
q-1 0 -23 -52.5t-134 -52.5q-74 0 -114.5 48.5zM214.5 542.5q-21.5 21.5 -21.5 52.5t21.5 52.5t52.5 21.5t52.5 -21.5t21.5 -52.5t-21.5 -52.5t-52.5 -21.5t-52.5 21.5zM307.5 554.5q16.5 16.5 16.5 40.5t-17 40.5t-40 16.5t-40 -16.5t-17 -40.5q0 -23 17 -40t40 -17
q24 0 40.5 16.5z" />
    <glyph glyph-name="Uhungarumlaut" unicode="&#x170;" horiz-adv-x="712" 
d="M168 47q-62 57 -62 170v391q0 38 -4.5 52t-19 17.5t-53.5 3.5q-17 0 -17 10t17 10l178 -1q17 0 17 -10t-17 -10q-43 0 -58 -2.5t-19 -12.5t-4 -39v-404q0 -108 57.5 -160t171.5 -52q108 0 168 52.5t60 151.5v375q0 49 -4 65.5t-18.5 21t-57.5 4.5q-16 0 -16 10t16 10h90
q55 0 92 1q7 0 11 -3t4 -7t-4 -7t-11 -3q-42 0 -57.5 -4.5t-20 -22t-4.5 -65.5v-367q0 -115 -66 -173.5t-188 -58.5q-119 0 -181 57zM290 738q0 6 15 21l50 52l43 44q9 9 13 9h1q8 0 8 -7q0 -6 -9 -17l-25 -25q-81 -81 -90 -81q-6 0 -6 4zM397 738q0 6 15 21q17 17 32 33
t28 30q27 28 32 33q9 9 14 9h1q8 0 8 -7q0 -6 -9 -17l-25 -25q-81 -81 -90 -81q-6 0 -6 4z" />
    <glyph glyph-name="uhungarumlaut" unicode="&#x171;" horiz-adv-x="530" 
d="M130.5 39.5q-40.5 48.5 -40.5 141.5v224q0 15 -2.5 21t-12.5 6q-7 0 -12 -1q-18 -4 -27 -7q-20 -5 -27 -5q-8 0 -9 6v2q0 11 15 13q17 3 35 8.5t25 7.5q16 6 22 6q13 0 13 -18v-258q0 -87 35.5 -131t104.5 -44q38 0 73.5 20t58.5 63.5t23 108.5v202q0 15 -2.5 21t-12.5 6
q-7 0 -12 -1q-18 -4 -27 -7q-20 -5 -27 -5q-8 0 -9 6v2q0 11 15 13q17 3 35 8.5t25 7.5q17 6 22 6q13 0 13 -18v-393q0 -15 2.5 -21t12.5 -6q7 0 12 1q18 4 27 7q20 5 27 5q8 0 9 -6v-2q0 -11 -15 -13q-17 -3 -35 -8.5t-25 -7.5q-16 -6 -22 -6q-13 0 -13 18v70q0 14 -3 14
q-1 0 -23 -52.5t-134 -52.5q-74 0 -114.5 48.5zM187.5 518.5q-1.5 3.5 2.5 8.5l94 143q8 10 13 10q11 0 11 -9q0 -5 -26.5 -45t-54.5 -75.5t-34 -35.5q-4 0 -5.5 3.5zM294.5 518.5q-1.5 3.5 2.5 8.5l94 143q8 10 13 10q11 0 11 -9q0 -5 -26.5 -45t-54.5 -75.5t-34 -35.5
q-4 0 -5.5 3.5z" />
    <glyph glyph-name="Uogonek" unicode="&#x172;" horiz-adv-x="712" 
d="M696 698q4 -3 4 -7t-4 -7t-11 -3q-42 0 -57.5 -4.5t-20 -22t-4.5 -65.5v-367q0 -145 -106 -201l1 -1q-50 -24 -71 -50t-21 -58q0 -25 16.5 -42.5t43.5 -17.5q23 0 43.5 9.5t33.5 26.5q5 6 10 6q7 0 7 -8q0 -4 -3 -8q-14 -21 -37.5 -33.5t-53.5 -12.5q-35 0 -58 23t-23 57
q0 47 41 85q-32 -7 -77 -7q-119 0 -181 57t-62 170v391q0 38 -4.5 52t-19 17.5t-53.5 3.5q-17 0 -17 10t17 10l178 -1q17 0 17 -10t-17 -10q-43 0 -58 -2.5t-19 -12.5t-4 -39v-404q0 -108 57.5 -160t171.5 -52q108 0 168 52.5t60 151.5v375q0 49 -4 65.5t-18.5 21t-57.5 4.5
q-16 0 -16 10t16 10h90q55 0 92 1q7 0 11 -3z" />
    <glyph glyph-name="uogonek" unicode="&#x173;" horiz-adv-x="530" 
d="M556 -110q7 0 7 -8q0 -4 -3 -8q-14 -21 -37.5 -33.5t-53.5 -12.5q-35 0 -58 23t-23 57q0 24 12 47.5t36 42.5l-18 -4q-13 0 -13 18v70q0 14 -3 14q-1 0 -23 -52.5t-134 -52.5q-74 0 -114.5 48.5t-40.5 141.5v224q0 15 -2.5 21t-12.5 6q-7 0 -12 -1q-18 -4 -27 -7
q-20 -5 -27 -5q-8 0 -9 6v2q0 11 15 13q17 3 35 8.5t25 7.5q16 6 22 6q13 0 13 -18v-258q0 -87 35.5 -131t104.5 -44q38 0 73.5 20t58.5 63.5t23 108.5v202q0 15 -2.5 21t-12.5 6q-7 0 -12 -1q-18 -4 -27 -7q-20 -5 -27 -5q-8 0 -9 6v2q0 11 15 13q17 3 35 8.5t25 7.5
q17 6 22 6q13 0 13 -18v-393q0 -15 2.5 -21t12.5 -6q7 0 12 1q18 4 27 7q20 5 27 5q8 0 9 -6v-2q0 -11 -14 -13q-50 -24 -71 -50t-21 -58q0 -25 16.5 -42.5t43.5 -17.5q23 0 43.5 9.5t33.5 26.5q5 6 10 6z" />
    <glyph glyph-name="Wcircumflex" unicode="&#x174;" horiz-adv-x="1002" 
d="M301 -2q-7 0 -12 4.5t-9 17.5l-178 595q-10 33 -18 45.5t-21.5 16.5t-45.5 4q-5 0 -8.5 3t-3.5 7t3.5 7t8.5 3q44 -1 90 -1q44 0 84 1q12 0 12 -11q0 -4 -3.5 -6.5t-9.5 -2.5q-47 0 -62 -4t-15 -19q0 -11 8 -37l177 -594q2 -5 4.5 -5t3.5 5l175 528q5 14 5 35q0 23 -6 42
q-7 24 -16 33.5t-25 11.5t-54 2q-13 0 -13 10q0 11 13 11h197q5 0 9 -2t4 -6q0 -5 -4.5 -8.5t-9.5 -3.5q-57 0 -73 -2t-16 -12q0 -4 3 -14t5 -16l173 -609q1 -3 4.5 -3.5t4.5 3.5l197 613q5 15 5 21q0 13 -19 16.5t-79 3.5q-12 0 -12 10t11 10q48 -1 105 -1q54 0 93 1
q14 0 14 -10t-14 -10q-38 1 -51 -1t-19 -10t-14 -34l-198 -616q-7 -22 -24 -22h-1q-15 0 -22 22l-148 520q-4 12 -9 0l-173 -520q-7 -22 -22 -22h-1zM360 739q0 11 56.5 69t77.5 72q3 2 6 2q2 0 6 -2q21 -14 77.5 -72t56.5 -69q0 -4 -4 -4q-1 0 -18 15.5t-29 28.5
q-25 27 -55 53.5t-34 26.5t-34 -26.5t-55 -53.5q-12 -13 -29 -28.5t-18 -15.5q-4 0 -4 4z" />
    <glyph glyph-name="wcircumflex" unicode="&#x175;" horiz-adv-x="720" 
d="M674 388.5q6 -28.5 6 -53.5q0 -49 -17 -94t-42 -84.5t-67 -95.5l-38 -53q-7 -10 -10 -10h-3q-4 0 -6 2t-4 8l-26 76q-16 46 -32.5 91.5t-34.5 87.5q-5 13 -9 0q-16 -60 -50 -121t-85 -134q-3 -6 -5.5 -8t-5.5 -2h-2q-4 0 -6 2t-4 8q-32 77 -59 152t-69 197l-12 35
q-7 21 -14 30t-18 11.5t-36 2.5q-20 0 -20 11q0 10 15 10l78 -1l78 1q14 0 14 -10q0 -11 -16 -11q-39 0 -53 -4t-14 -13q0 -6 4 -16.5t6 -15.5q71 -216 127 -352q1 -4 2.5 -3.5t3.5 3.5q65 95 100 166.5t35 144.5q0 36 -9.5 53t-35.5 27q-8 3 -12.5 9t-4.5 12t2 9
q6 10 17 10q7 0 15 -3q22 -9 35.5 -37.5t13.5 -66.5q0 -10 -4 -46q39 -98 102 -278q1 -4 2.5 -3.5t3.5 3.5q11 16 35 48q39 54 61.5 89t37.5 76t15 85q0 41 -12 63t-38 31q-7 2 -11.5 8t-4.5 13q0 9 7 14q4 4 12 4h3q13 0 26 -11q7 -5 16 -19q11 -19 17 -47.5zM239 533
q0 5 4 10q14 24 62 70t68 59q3 2 6 2q2 0 6 -2q17 -10 63.5 -57t64.5 -72q4 -7 3.5 -11.5t-5.5 -4.5q-10 0 -18 11q-16 20 -61.5 66.5t-52.5 46.5q-8 0 -55.5 -47.5t-60.5 -65.5q-8 -11 -17 -11q-7 0 -7 6z" />
    <glyph glyph-name="Ycircumflex" unicode="&#x176;" horiz-adv-x="660" 
d="M227 9q0 10 17 10q42 0 57 3t18.5 13t3.5 39v194q0 12 -12 32l-204 342q-13 21 -22 29t-21.5 9.5t-44.5 0.5q-14 0 -14 10q0 11 14 11l125 -1q41 0 59 1q13 0 13 -10t-13 -10q-49 1 -67 -1.5t-18 -12.5q0 -6 8 -19l202 -339q2 -4 5 -3.5t5 4.5l203 342q5 8 5 13
q0 8 -14 11.5t-47 3.5l-39 -1q-12 0 -12 11q0 4 3.5 7t8.5 3h73h123q13 0 13 -10q0 -11 -13 -11q-31 1 -45 -1.5t-20.5 -9t-17.5 -25.5l-204 -344q-12 -21 -12 -31v-177q0 -40 3.5 -53t18 -16.5t57.5 -3.5q17 0 17 -10t-17 -10h-178q-17 0 -17 10zM194 739q0 11 56.5 69
t77.5 72q3 2 6 2q2 0 6 -2q21 -14 77.5 -72t56.5 -69q0 -4 -4 -4q-1 0 -18 15.5t-29 28.5q-25 27 -55 53.5t-34 26.5t-34 -26.5t-55 -53.5q-12 -13 -29 -28.5t-18 -15.5q-4 0 -4 4z" />
    <glyph glyph-name="ycircumflex" unicode="&#x177;" horiz-adv-x="466" 
d="M-6 -170.5q-20 16.5 -20 44.5q0 12 6.5 19.5t16.5 7.5q9 0 14.5 -7t4.5 -19q-2 -22 7.5 -32t26.5 -10q54 0 173 146q5 7 2 18q-9 26 -38 120q-22 70 -46.5 144t-47.5 131q-9 21 -15.5 30t-17.5 11.5t-35 2.5q-20 0 -20 11q0 10 15 10q39 -1 86 -1q48 0 87 1q14 0 14 -10
q0 -11 -16 -11q-46 0 -63.5 -5.5t-17.5 -18.5q0 -7 7 -25q20 -50 42 -115.5t41 -128.5q24 -82 40 -127q2 -5 5 -5t5 3q50 73 81 121.5t53 102t22 99.5q0 41 -12.5 61.5t-38.5 28.5q-7 2 -11.5 8t-4.5 13q0 9 6 13q5 5 13 5q14 0 28 -11q11 -9 17 -19q23 -35 23 -97
q0 -51 -21.5 -104t-68.5 -129q-37 -61 -83 -121q-58 -75 -112.5 -123.5t-93.5 -48.5q-33 0 -53 16.5zM103 527q0 5 4 10q14 24 62 70t68 59q3 2 6 2q2 0 6 -2q17 -10 63.5 -57t64.5 -72q4 -7 3.5 -11.5t-5.5 -4.5q-10 0 -18 11q-16 20 -61.5 66.5t-52.5 46.5
q-8 0 -55.5 -47.5t-60.5 -65.5q-8 -11 -17 -11q-7 0 -7 6z" />
    <glyph glyph-name="Ydieresis" unicode="&#x178;" horiz-adv-x="660" 
d="M227 9q0 10 17 10q42 0 57 3t18.5 13t3.5 39v194q0 12 -12 32l-204 342q-13 21 -22 29t-21.5 9.5t-44.5 0.5q-14 0 -14 10q0 11 14 11l125 -1q41 0 59 1q13 0 13 -10t-13 -10q-49 1 -67 -1.5t-18 -12.5q0 -6 8 -19l202 -339q2 -4 5 -3.5t5 4.5l203 342q5 8 5 13
q0 8 -14 11.5t-47 3.5l-39 -1q-12 0 -12 11q0 4 3.5 7t8.5 3h73h123q13 0 13 -10q0 -11 -13 -11q-31 1 -45 -1.5t-20.5 -9t-17.5 -25.5l-204 -344q-12 -21 -12 -31v-177q0 -40 3.5 -53t18 -16.5t57.5 -3.5q17 0 17 -10t-17 -10h-178q-17 0 -17 10zM399.5 748.5
q-8.5 8.5 -8.5 22.5t8.5 22t22.5 8q13 0 21.5 -8t8.5 -22t-8 -22.5t-22 -8.5t-22.5 8.5zM224.5 748.5q-8.5 8.5 -8.5 22.5t8.5 22t22.5 8q13 0 21.5 -8t8.5 -22t-8 -22.5t-22 -8.5t-22.5 8.5z" />
    <glyph glyph-name="Zacute" unicode="&#x179;" horiz-adv-x="574" 
d="M470.5 -7.5q-18.5 7.5 -45.5 7.5h-380q-6 0 -10.5 4t-4.5 10t7 15l468 644q3 3 1.5 5t-4.5 2h-332q-23 0 -34.5 -11t-22 -44.5t-31.5 -121.5q-2 -10 -4.5 -13.5t-7.5 -3.5q-4 0 -6 1.5t-2 7.5q0 11 23 107q19 76 24.5 94.5t12.5 18.5q4 0 18 -7.5t32 -7.5h356q5 0 9 -2.5
t4 -5.5q0 -4 -7 -15l-467 -642q-5 -7 -5 -10q0 -5 9 -5h376q20 0 31 10t23.5 47t33.5 125q3 13 12 13q5 0 5 -8q0 -14 -22 -109q-17 -73 -23.5 -93t-13.5 -20q-4 0 -22.5 7.5zM247 746q2 6 69.5 51l76.5 51l23 15q8 4 13 4q8 0 11.5 -2.5t2.5 -6.5q-1 -8 -45 -36.5t-92 -55
t-54 -25.5q-5 1 -5 5z" />
    <glyph glyph-name="zacute" unicode="&#x17a;" horiz-adv-x="461" 
d="M352.5 -3.5q-29.5 3.5 -59.5 3.5h-224q-14 0 -14 11q0 6 6 13l326 403l2 4q0 5 -7 5h-239q-19 0 -26 -5t-13 -26.5t-17 -81.5q-2 -8 -3.5 -11t-7.5 -3q-7 0 -7 11q0 9 3 34q1 5 2 13t2 20q4 31 6.5 49.5t5 22.5t7.5 4q4 0 25.5 -3.5t75.5 -3.5h212q15 0 15 -10
q0 -6 -10 -18l-321 -398q-3 -3 -3 -6q0 -4 9 -4h242q22 0 31 7t15.5 31t20.5 97q2 11 11 11q3 0 4.5 -2t1.5 -8q0 -12 -10 -78q-5 -34 -9 -54.5t-7 -25.5t-9 -5q-7 0 -36.5 3.5zM218 520q0 6 56.5 60t89.5 84q7 7 16 7q11 0 11 -7q0 -8 -38.5 -44t-81 -70t-48.5 -34
q-5 0 -5 4z" />
    <glyph glyph-name="Zdotaccent" unicode="&#x17b;" horiz-adv-x="574" 
d="M470.5 -7.5q-18.5 7.5 -45.5 7.5h-380q-6 0 -10.5 4t-4.5 10t7 15l468 644q3 3 1.5 5t-4.5 2h-332q-23 0 -34.5 -11t-22 -44.5t-31.5 -121.5q-2 -10 -4.5 -13.5t-7.5 -3.5q-4 0 -6 1.5t-2 7.5q0 11 23 107q19 76 24.5 94.5t12.5 18.5q4 0 18 -7.5t32 -7.5h356q5 0 9 -2.5
t4 -5.5q0 -4 -7 -15l-467 -642q-5 -7 -5 -10q0 -5 9 -5h376q20 0 31 10t23.5 47t33.5 125q3 13 12 13q5 0 5 -8q0 -14 -22 -109q-17 -73 -23.5 -93t-13.5 -20q-4 0 -22.5 7.5zM280.5 758.5q-8.5 8.5 -8.5 22.5t8.5 22t22.5 8q13 0 21.5 -8t8.5 -22t-8 -22.5t-22 -8.5
t-22.5 8.5z" />
    <glyph glyph-name="zdotaccent" unicode="&#x17c;" horiz-adv-x="461" 
d="M352.5 -3.5q-29.5 3.5 -59.5 3.5h-224q-14 0 -14 11q0 6 6 13l326 403l2 4q0 5 -7 5h-239q-19 0 -26 -5t-13 -26.5t-17 -81.5q-2 -8 -3.5 -11t-7.5 -3q-7 0 -7 11q0 9 3 34q1 5 2 13t2 20q4 31 6.5 49.5t5 22.5t7.5 4q4 0 25.5 -3.5t75.5 -3.5h212q15 0 15 -10
q0 -6 -10 -18l-321 -398q-3 -3 -3 -6q0 -4 9 -4h242q22 0 31 7t15.5 31t20.5 97q2 11 11 11q3 0 4.5 -2t1.5 -8q0 -12 -10 -78q-5 -34 -9 -54.5t-7 -25.5t-9 -5q-7 0 -36.5 3.5zM236.5 577.5q-8.5 8.5 -8.5 22.5t8.5 22t22.5 8q13 0 21.5 -8t8.5 -22t-8 -22.5t-22 -8.5
t-22.5 8.5z" />
    <glyph glyph-name="Zcaron" unicode="&#x17d;" horiz-adv-x="574" 
d="M470.5 -7.5q-18.5 7.5 -45.5 7.5h-380q-6 0 -10.5 4t-4.5 10t7 15l468 644q3 3 1.5 5t-4.5 2h-332q-23 0 -34.5 -11t-22 -44.5t-31.5 -121.5q-2 -10 -4.5 -13.5t-7.5 -3.5q-4 0 -6 1.5t-2 7.5q0 11 23 107q19 76 24.5 94.5t12.5 18.5q4 0 18 -7.5t32 -7.5h356q5 0 9 -2.5
t4 -5.5q0 -4 -7 -15l-467 -642q-5 -7 -5 -10q0 -5 9 -5h376q20 0 31 10t23.5 47t33.5 125q3 13 12 13q5 0 5 -8q0 -14 -22 -109q-17 -73 -23.5 -93t-13.5 -20q-4 0 -22.5 7.5zM163 862.5q17 -15.5 29 -28.5q25 -27 55 -53.5t34 -26.5t34 26.5t55 53.5q12 13 29 28.5t18 15.5
q4 0 4 -4q0 -11 -56.5 -69t-77.5 -72q-4 -2 -6 -2q-3 0 -6 2q-21 14 -77.5 72t-56.5 69q0 4 4 4q1 0 18 -15.5z" />
    <glyph glyph-name="zcaron" unicode="&#x17e;" horiz-adv-x="461" 
d="M352.5 -3.5q-29.5 3.5 -59.5 3.5h-224q-14 0 -14 11q0 6 6 13l326 403l2 4q0 5 -7 5h-239q-19 0 -26 -5t-13 -26.5t-17 -81.5q-2 -8 -3.5 -11t-7.5 -3q-7 0 -7 11q0 9 3 34q1 5 2 13t2 20q4 31 6.5 49.5t5 22.5t7.5 4q4 0 25.5 -3.5t75.5 -3.5h212q15 0 15 -10
q0 -6 -10 -18l-321 -398q-3 -3 -3 -6q0 -4 9 -4h242q22 0 31 7t15.5 31t20.5 97q2 11 11 11q3 0 4.5 -2t1.5 -8q0 -12 -10 -78q-5 -34 -9 -54.5t-7 -25.5t-9 -5q-7 0 -36.5 3.5zM144 652q13 -18 60.5 -65.5t55.5 -47.5q7 0 52.5 46.5t61.5 66.5q8 11 18 11q6 0 6 -5
q0 -6 -4 -11q-18 -25 -64.5 -72t-63.5 -57q-4 -2 -6 -2q-3 0 -6 2q-20 13 -68 59t-62 70q-4 5 -4 10q0 6 7 6q9 0 17 -11z" />
    <glyph glyph-name="uni018F" unicode="&#x18f;" horiz-adv-x="621" 
d="M153.5 22.5q-58.5 32.5 -91 91t-32.5 135.5q0 26 7 37t15.5 13.5t33.5 5.5l474 60q0 30 -5 65q-10 78 -47.5 137t-94.5 91t-126 32q-60 0 -108 -22.5t-75 -60.5t-27 -83q0 -5 3 -41q2 -18 2 -23q0 -17 -10 -22q-6 -3 -11 -3q-23 0 -23 64q0 62 35 110t93 74.5t124 26.5
q82 0 148.5 -44.5t104.5 -124t38 -182.5q0 -182 -78 -275.5t-216 -93.5q-75 0 -133.5 32.5zM435.5 50.5q61.5 40.5 92.5 111t31 162.5q0 10 -3 14t-12 4t-27 -3l-428 -55q-23 -3 -30.5 -9.5t-7.5 -25.5q0 -71 29.5 -125t83 -84t122.5 -30q88 0 149.5 40.5z" />
    <glyph glyph-name="florin" unicode="&#x192;" horiz-adv-x="310" 
d="M-88 -174q-10 0 -10 9q0 3 3 7t9 5q46 13 85.5 58.5t56.5 144.5l65 372v4q0 12 -14 12h-67q-3 0 -5.5 2t-2.5 5q0 4 3.5 7.5t7.5 3.5h84q1 4 1 14q0 14 -1 23l-1 35q0 27 4 51q10 58 52 94.5t104 36.5q44 0 74 -23t30 -62q0 -11 -1 -16q-3 -20 -19 -20q-7 0 -10.5 5.5
t-1.5 16.5q2 14 2 19q0 60 -77 60q-53 0 -88.5 -31t-44.5 -80q-5 -33 -5 -52q0 -16 2 -36q2 -26 0 -35h132q7 0 7 -7q0 -5 -3 -8t-7 -3h-110q-12 0 -17.5 -3.5t-7.5 -11.5l-65 -373q-18 -103 -61 -155.5t-96 -67.5q-3 -1 -7 -1z" />
    <glyph glyph-name="uni019D" unicode="&#x19d;" horiz-adv-x="671" 
d="M-87.5 -141q-23.5 26 -23.5 63q0 10 6.5 16.5t13.5 6.5q8 0 14 -6t5 -17q-2 -34 9.5 -52t44.5 -18q35 0 55 26t20 82v648q0 40 -3.5 53t-18 16.5t-57.5 3.5q-17 0 -17 10t17 10h98q6 0 11 -8l420 -647q4 -7 8 -7t4 11v573q0 25 -5 36.5t-21 16.5t-53 5q-17 0 -17 10
t17 10l89 -1l93 1q14 0 14 -10t-14 -10q-38 0 -55 -5t-22.5 -17t-5.5 -38v-611q0 -12 -10 -12q-15 0 -25 16l-420 648q-1 3 -4 3t-3 -4v-715q0 -51 -25 -82t-67 -31q-49 0 -72.5 26z" />
    <glyph glyph-name="Ohorn" unicode="&#x1a0;" horiz-adv-x="692" 
d="M606.5 547.5q45.5 -84.5 45.5 -195.5q0 -100 -38 -182.5t-108 -131t-160 -48.5q-84 0 -154 45t-111 127.5t-41 189.5q0 99 38 180.5t108 129.5t160 48q35 0 77 -10q22 -6 51 -6q50 0 79.5 26t36.5 77q1 8 8 8q5 0 8.5 -3.5t2.5 -10.5q-14 -111 -124 -117
q76 -42 121.5 -126.5zM490 52.5q65 42.5 103.5 120.5t38.5 179q0 93 -35.5 170.5t-101 122.5t-149.5 45q-79 0 -144 -42.5t-103.5 -119.5t-38.5 -176q0 -94 35.5 -172t101 -124t149.5 -46q79 0 144 42.5z" />
    <glyph glyph-name="ohorn" unicode="&#x1a1;" horiz-adv-x="501" 
d="M368 430q44 -30 68.5 -83t24.5 -119q0 -69 -26.5 -123.5t-74.5 -84.5t-109 -30t-109 30.5t-75 84.5t-27 123t27 123t75 84.5t109 30.5q40 0 76 -14q20 -2 33 -2q50 0 79.5 26t36.5 77q1 8 8 8q5 0 8.5 -3.5t2.5 -10.5q-14 -112 -127 -117zM405 360q-34 55 -92 75l-4 1
q-27 9 -58 9q-55 0 -98 -27.5t-67 -76.5t-24 -113t24 -113t67 -76.5t98 -27.5t98 27.5t66.5 76.5t23.5 113q0 77 -34 132z" />
    <glyph glyph-name="Uhorn" unicode="&#x1af;" horiz-adv-x="712" 
d="M168 47q-62 57 -62 170v391q0 38 -4.5 52t-19 17.5t-53.5 3.5q-17 0 -17 10t17 10l178 -1q17 0 17 -10t-17 -10q-43 0 -58 -2.5t-19 -12.5t-4 -39v-404q0 -108 57.5 -160t171.5 -52q108 0 168 52.5t60 151.5v375q0 49 -4 65.5t-18.5 21t-57.5 4.5q-16 0 -16 10t16 10h152
q31 2 47 7.5t27 26t15 63.5q1 8 8 8q5 0 8.5 -3.5t2.5 -10.5q-6 -50 -17.5 -72t-31 -28.5t-65.5 -10.5q-22 -2 -31.5 -9.5t-12 -24.5t-2.5 -57v-367q0 -115 -66 -173.5t-188 -58.5q-119 0 -181 57z" />
    <glyph glyph-name="uhorn" unicode="&#x1b0;" horiz-adv-x="530" 
d="M504 465.5q-27 -27.5 -79 -24.5v-390q0 -15 2.5 -21t12.5 -6q7 0 12 1q18 4 27 7q20 5 27 5q8 0 9 -6v-2q0 -11 -15 -13q-17 -3 -35 -8.5t-25 -7.5q-16 -6 -22 -6q-13 0 -13 18v70q0 14 -3 14q-1 0 -23 -52.5t-134 -52.5q-74 0 -114.5 48.5t-40.5 141.5v224q0 15 -2.5 21
t-12.5 6q-7 0 -12 -1q-18 -4 -27 -7q-20 -5 -27 -5q-8 0 -9 6v2q0 11 15 13q17 3 35 8.5t25 7.5q16 6 22 6q13 0 13 -18v-258q0 -87 35.5 -131t104.5 -44q38 0 73.5 20t58.5 63.5t23 108.5v202q0 15 -2.5 21t-12.5 6q-7 0 -12 -1q-18 -4 -27 -7q-20 -5 -27 -5q-8 0 -9 6v2
q0 11 15 13q17 3 35 8.5t25 7.5q17 6 22 6q3 0 4 -1q5 -1 15 -1q38 0 59 24t28 71q1 8 8 8q5 0 8.5 -3.5t2.5 -10.5q-6 -56 -33 -83.5z" />
    <glyph glyph-name="uni01CD" unicode="&#x1cd;" horiz-adv-x="701" 
d="M17 -2q-12 0 -12 10q0 5 5 7.5t10 2.5q34 0 48 3.5t22 14.5t19 39l224 581q3 8 3 12q0 12 -25 12q-15 0 -15 10t15 10h27q8 0 12 -3.5t8 -13.5l234 -608q11 -28 19 -39t22 -14.5t48 -3.5q15 0 15 -10q0 -12 -15 -10q-19 1 -88 1q-70 0 -93 -1q-17 0 -17 10t17 10
q49 0 65 3.5t16 17.5q0 9 -10 36l-51 132q-6 14 -11.5 19t-22.5 5h-261q-23 0 -30.5 -4t-13.5 -21l-51 -131q-10 -27 -10 -36q0 -14 16 -17.5t63 -3.5q19 0 19 -9q0 -11 -19 -11q-21 1 -91 1q-68 0 -88 -1h-3zM482 251q15 0 15 9q0 8 -4 17l-138 358q-5 12 -9 0l-140 -363
q-2 -8 -2 -10q0 -7 5 -9t16 -2h257zM213 862.5q17 -15.5 29 -28.5q25 -27 55 -53.5t34 -26.5t34 26.5t55 53.5q12 13 29 28.5t18 15.5q4 0 4 -4q0 -11 -56.5 -69t-77.5 -72q-4 -2 -6 -2q-3 0 -6 2q-21 14 -77.5 72t-56.5 69q0 4 4 4q1 0 18 -15.5z" />
    <glyph glyph-name="uni01CE" unicode="&#x1ce;" horiz-adv-x="493" 
d="M90.5 24q-35.5 34 -35.5 93q0 60 48.5 97t148.5 37q47 0 69 2t28.5 7.5t4.5 16.5l-4 31q-9 68 -41 103.5t-85 35.5q-55 0 -88 -27t-33 -74q0 -12 1 -18v-3q0 -9 -6 -15t-15 -6t-14.5 6.5t-5.5 19.5q0 36 20.5 67t57 50t83.5 19q59 0 98 -38.5t47 -109.5l24 -208
q6 -56 17 -76t28 -20q12 0 18 7t11 19q3 6 6 10.5t7 4.5q8 0 8 -12q0 -15 -13.5 -32t-35.5 -17q-29 0 -42.5 21t-20.5 68q-2 7 -5 7q-2 0 -21 -27t-58.5 -50t-100.5 -23q-65 0 -100.5 34zM284.5 34q40.5 24 62.5 63.5t17 83.5l-3 28q-1 15 -9 18.5t-36 3.5h-55
q-96 0 -140.5 -29.5t-44.5 -78.5q0 -113 119 -113q49 0 89.5 24zM107 652q13 -18 60.5 -65.5t55.5 -47.5q7 0 52.5 46.5t61.5 66.5q8 11 18 11q6 0 6 -5q0 -6 -4 -11q-18 -25 -64.5 -72t-63.5 -57q-4 -2 -6 -2q-3 0 -6 2q-20 13 -68 59t-62 70q-4 5 -4 10q0 6 7 6
q9 0 17 -11z" />
    <glyph glyph-name="uni01CF" unicode="&#x1cf;" horiz-adv-x="282" 
d="M52 -1q-17 0 -17 10t17 10q42 0 57 3t18.5 13t3.5 39v552q0 30 -3.5 40t-18 12.5t-57.5 2.5q-17 0 -17 10t17 10l80 -1h18l80 1q17 0 17 -10t-17 -10q-42 0 -57 -3t-18.5 -13t-3.5 -39v-552q0 -30 3.5 -40t18 -12.5t57.5 -2.5q17 0 17 -10t-17 -10l-80 1h-18zM3 862.5
q17 -15.5 29 -28.5q25 -27 55 -53.5t34 -26.5t34 26.5t55 53.5q12 13 29 28.5t18 15.5q4 0 4 -4q0 -11 -56.5 -69t-77.5 -72q-4 -2 -6 -2q-3 0 -6 2q-21 14 -77.5 72t-56.5 69q0 4 4 4q1 0 18 -15.5z" />
    <glyph glyph-name="uni01D0" unicode="&#x1d0;" horiz-adv-x="238" 
d="M38.5 0.5q-3.5 2.5 -3.5 6.5q0 10 13 10q35 0 48 3t16 12t3 36v338q0 15 -2.5 21t-12.5 6q-7 0 -12 -1q-18 -4 -27 -7q-20 -5 -27 -5q-8 0 -9 6v2q0 11 15 13q17 3 35 8.5t25 7.5q17 6 22 6q13 0 13 -18v-377q0 -27 3 -36t16.5 -12t49.5 -3q6 0 10 -3t4 -7t-3 -6.5
t-7 -2.5l-80 1l-80 -1q-6 0 -9.5 2.5zM-16 652q13 -18 60.5 -65.5t55.5 -47.5q7 0 52.5 46.5t61.5 66.5q8 11 18 11q6 0 6 -5q0 -6 -4 -11q-18 -25 -64.5 -72t-63.5 -57q-4 -2 -6 -2q-3 0 -6 2q-20 13 -68 59t-62 70q-4 5 -4 10q0 6 7 6q9 0 17 -11z" />
    <glyph glyph-name="uni01D1" unicode="&#x1d1;" horiz-adv-x="692" 
d="M192 35q-70 45 -111 127.5t-41 189.5q0 99 38 180.5t108 129.5t160 48q84 0 154 -45t111 -126.5t41 -186.5q0 -100 -38 -182.5t-108 -131t-160 -48.5q-84 0 -154 45zM490 52.5q65 42.5 103.5 120.5t38.5 179q0 93 -35.5 170.5t-101 122.5t-149.5 45q-79 0 -144 -42.5
t-103.5 -119.5t-38.5 -176q0 -94 35.5 -172t101 -124t149.5 -46q79 0 144 42.5zM208 862.5q17 -15.5 29 -28.5q25 -27 55 -53.5t34 -26.5t34 26.5t55 53.5q12 13 29 28.5t18 15.5q4 0 4 -4q0 -11 -56.5 -69t-77.5 -72q-4 -2 -6 -2q-3 0 -6 2q-21 14 -77.5 72t-56.5 69
q0 4 4 4q1 0 18 -15.5z" />
    <glyph glyph-name="uni01D2" unicode="&#x1d2;" horiz-adv-x="501" 
d="M142 20.5q-48 30.5 -75 84.5t-27 123t27 123t75 84.5t109 30.5t109 -30t74.5 -84.5t26.5 -123.5t-26.5 -123.5t-74.5 -84.5t-109 -30t-109 30.5zM349 38.5q43 27.5 66.5 76.5t23.5 113t-23.5 113t-66.5 76.5t-98 27.5t-98 -27.5t-67 -76.5t-24 -113t24 -113t67 -76.5
t98 -27.5t98 27.5zM136 652q13 -18 60.5 -65.5t55.5 -47.5q7 0 52.5 46.5t61.5 66.5q8 11 18 11q6 0 6 -5q0 -6 -4 -11q-18 -25 -64.5 -72t-63.5 -57q-4 -2 -6 -2q-3 0 -6 2q-20 13 -68 59t-62 70q-4 5 -4 10q0 6 7 6q9 0 17 -11z" />
    <glyph glyph-name="uni01D3" unicode="&#x1d3;" horiz-adv-x="712" 
d="M168 47q-62 57 -62 170v391q0 38 -4.5 52t-19 17.5t-53.5 3.5q-17 0 -17 10t17 10l178 -1q17 0 17 -10t-17 -10q-43 0 -58 -2.5t-19 -12.5t-4 -39v-404q0 -108 57.5 -160t171.5 -52q108 0 168 52.5t60 151.5v375q0 49 -4 65.5t-18.5 21t-57.5 4.5q-16 0 -16 10t16 10h90
q55 0 92 1q7 0 11 -3t4 -7t-4 -7t-11 -3q-42 0 -57.5 -4.5t-20 -22t-4.5 -65.5v-367q0 -115 -66 -173.5t-188 -58.5q-119 0 -181 57zM216 862.5q17 -15.5 29 -28.5q25 -27 55 -53.5t34 -26.5t34 26.5t55 53.5q12 13 29 28.5t18 15.5q4 0 4 -4q0 -11 -56.5 -69t-77.5 -72
q-4 -2 -6 -2q-3 0 -6 2q-21 14 -77.5 72t-56.5 69q0 4 4 4q1 0 18 -15.5z" />
    <glyph glyph-name="uni01D4" unicode="&#x1d4;" horiz-adv-x="530" 
d="M130.5 39.5q-40.5 48.5 -40.5 141.5v224q0 15 -2.5 21t-12.5 6q-7 0 -12 -1q-18 -4 -27 -7q-20 -5 -27 -5q-8 0 -9 6v2q0 11 15 13q17 3 35 8.5t25 7.5q16 6 22 6q13 0 13 -18v-258q0 -87 35.5 -131t104.5 -44q38 0 73.5 20t58.5 63.5t23 108.5v202q0 15 -2.5 21t-12.5 6
q-7 0 -12 -1q-18 -4 -27 -7q-20 -5 -27 -5q-8 0 -9 6v2q0 11 15 13q17 3 35 8.5t25 7.5q17 6 22 6q13 0 13 -18v-393q0 -15 2.5 -21t12.5 -6q7 0 12 1q18 4 27 7q20 5 27 5q8 0 9 -6v-2q0 -11 -15 -13q-17 -3 -35 -8.5t-25 -7.5q-16 -6 -22 -6q-13 0 -13 18v70q0 14 -3 14
q-1 0 -23 -52.5t-134 -52.5q-74 0 -114.5 48.5zM152 652q13 -18 60.5 -65.5t55.5 -47.5q7 0 52.5 46.5t61.5 66.5q8 11 18 11q6 0 6 -5q0 -6 -4 -11q-18 -25 -64.5 -72t-63.5 -57q-4 -2 -6 -2q-3 0 -6 2q-20 13 -68 59t-62 70q-4 5 -4 10q0 6 7 6q9 0 17 -11z" />
    <glyph glyph-name="uni01D5" unicode="&#x1d5;" horiz-adv-x="712" 
d="M168 47q-62 57 -62 170v391q0 38 -4.5 52t-19 17.5t-53.5 3.5q-17 0 -17 10t17 10l178 -1q17 0 17 -10t-17 -10q-43 0 -58 -2.5t-19 -12.5t-4 -39v-404q0 -108 57.5 -160t171.5 -52q108 0 168 52.5t60 151.5v375q0 49 -4 65.5t-18.5 21t-57.5 4.5q-16 0 -16 10t16 10h90
q55 0 92 1q7 0 11 -3t4 -7t-4 -7t-11 -3q-42 0 -57.5 -4.5t-20 -22t-4.5 -65.5v-367q0 -115 -66 -173.5t-188 -58.5q-119 0 -181 57zM419.5 748.5q-8.5 8.5 -8.5 22.5t8.5 22t22.5 8q13 0 21.5 -8t8.5 -22t-8 -22.5t-22 -8.5t-22.5 8.5zM244.5 748.5q-8.5 8.5 -8.5 22.5
t8.5 22t22.5 8q13 0 21.5 -8t8.5 -22t-8 -22.5t-22 -8.5t-22.5 8.5zM225.5 876q1.5 5 1.5 6q3 10 10 10l110 -1l110 1q6 0 6 -3t-1 -7q-4 -11 -10 -11q-29 1 -111 1t-110 -1q-7 0 -5.5 5z" />
    </font>
</defs>
</svg>
