<?xml version="1.0" standalone="no"?>
<!DOCTYPE svg PUBLIC "-//W3C//DTD SVG 1.1//EN" "http://www.w3.org/Graphics/SVG/1.1/DTD/svg11.dtd" >
<svg xmlns="http://www.w3.org/2000/svg" xmlns:xlink="http://www.w3.org/1999/xlink" version="1.1">
<metadata>
Created by FontForge 20170731 at Fri Sep 25 13:10:24 2020
 By Aleksey,,,
Copyright (c) 2020 by Francesco Canovaro, Mariachiara Fantini. All rights reserved.
</metadata>
<defs>
<font id="BogartTrial-ExtraboldItalic" horiz-adv-x="0" >
  <font-face 
    font-family="Bogart Trial Extrabold"
    font-weight="800"
    font-style="italic"
    font-stretch="normal"
    units-per-em="1000"
    panose-1="0 0 9 0 0 0 0 0 0 0"
    ascent="800"
    descent="-200"
    x-height="507"
    cap-height="701"
    bbox="-785 -392 1916 1059"
    underline-thickness="100"
    underline-position="-300"
    slope="-12"
    unicode-range="U+0020-FB06"
  />
<missing-glyph horiz-adv-x="630" 
 />
    <glyph glyph-name="f_f" unicode="ff" horiz-adv-x="746" 
d="M826.5 704.5q50.5 -31.5 50.5 -82.5q0 -5 -2 -19q-4 -22 -25 -40.5t-52 -18.5t-43.5 14t-24.5 47q-10 43 -49 43q-14 0 -25.5 -9t-15.5 -24q-2 -10 -2 -15q0 -13 4.5 -25.5t13.5 -29.5q15 -32 19 -44h94q15 0 22 -3t7 -16q0 -8 -1 -13q-6 -28 -23 -48t-36 -20h-23
q-14 0 -25 -7.5t-14 -23.5l-63 -307q-8 -39 -13 -89q-3 -33 -18.5 -49t-57 -23.5t-127.5 -9.5q-20 0 -30 9t-10 25q0 10 2 16l12 39q18 54 31 113l57 276q1 4 1 10q0 21 -28 21h-76q-14 0 -25 -7.5t-14 -23.5l-63 -307q-8 -39 -13 -89q-3 -33 -18.5 -49t-57 -23.5
t-127.5 -9.5q-20 0 -30 9t-10 25q0 10 2 16l12 39q18 54 31 113l57 276q1 4 1 10q0 21 -28 21h-22q-8 0 -12.5 7t-4.5 19q0 9 1 13q5 28 22.5 44.5t30.5 16.5h37q-1 8 -5 25t-4 34q0 16 4 35q7 36 34 67t71 50t99 19q65 0 105.5 -24.5t40.5 -66.5q0 -5 -2 -19
q-5 -27 -27 -44.5t-52 -17.5q-21 0 -34.5 9.5t-23.5 30.5q-8 17 -15.5 25t-19.5 8t-20 -7t-10 -19q-2 -7 -2 -21q0 -49 46 -84h169q-1 10 -5 29t-4 37q0 23 5 45q7 35 37 63t78.5 44.5t109.5 16.5q76 0 126.5 -31.5z" />
    <glyph glyph-name="f_f_i" unicode="ffi" horiz-adv-x="1088" 
d="M1043 173q10 0 16.5 -8.5t6.5 -23.5q0 -20 -11 -41q-22 -44 -73.5 -78t-109.5 -34q-66 0 -94.5 28.5t-28.5 81.5q0 40 17 106l28 111q6 24 6 40q0 23 -10.5 34.5t-29.5 11.5h-45q-14 0 -25 -7.5t-14 -23.5l-64 -307q-1 -8 -4.5 -30.5t-8.5 -58.5q-3 -33 -18 -49
t-56.5 -23.5t-127.5 -9.5q-20 0 -30.5 9.5t-10.5 24.5q0 7 3 16l13 45q18 55 29 107l58 276q1 3 1 9q0 22 -28 22h-76q-14 0 -25 -7.5t-14 -23.5l-63 -307q-8 -39 -13 -89q-3 -33 -18.5 -49t-57 -23.5t-127.5 -9.5q-20 0 -30 9t-10 25q0 10 2 16l12 39q18 54 31 113l57 276
q1 4 1 10q0 21 -28 21h-22q-8 0 -12.5 7t-4.5 19q0 9 1 13q5 28 22.5 44.5t30.5 16.5h37q-1 8 -5 25t-4 34q0 16 4 35q7 36 34 67t71 50t99 19q65 0 105.5 -24.5t40.5 -66.5q0 -5 -2 -19q-5 -27 -27 -44.5t-52 -17.5q-21 0 -34.5 9.5t-23.5 30.5q-8 17 -15.5 25t-19.5 8
t-20 -7t-10 -19q-2 -7 -2 -21q0 -49 46 -84h169l-4 21q-6 26 -6 45q0 18 6 45q7 35 37 63t78.5 44.5t109.5 16.5q75 0 125.5 -31.5t50.5 -81.5q0 -6 -2 -20q-4 -22 -24.5 -40.5t-51.5 -18.5q-32 0 -44.5 14t-24.5 47q-10 43 -48 43q-18 0 -30.5 -13t-12.5 -34
q0 -14 4.5 -26.5t13.5 -30.5q13 -25 19 -43h169q36 0 83 7q50 6 72 6q24 0 35 -7t11 -23q0 -5 -2 -17l-63 -277q-2 -7 -2 -19q0 -21 14 -21t35 17q8 6 16 6z" />
    <glyph glyph-name="f_f_l" unicode="ffl" horiz-adv-x="1102" 
d="M773 421q-17 -20 -36 -20h-22q-14 0 -25 -7.5t-14 -23.5l-63 -307q-7 -32 -14 -89q-3 -33 -18 -49t-56.5 -23.5t-127.5 -9.5q-20 0 -30.5 9.5t-10.5 24.5q0 7 3 16l13 45q18 55 29 107l58 276q1 3 1 9q0 22 -28 22h-76q-14 0 -25 -7.5t-14 -23.5l-63 -307q-8 -39 -13 -89
q-3 -33 -18.5 -49t-57 -23.5t-127.5 -9.5q-20 0 -30 9t-10 25q0 10 2 16l12 39q18 54 31 113l57 276q1 4 1 10q0 21 -28 21h-22q-8 0 -12.5 7t-4.5 19q0 9 1 13q5 28 22.5 44.5t30.5 16.5h37q-1 8 -5 25t-4 34q0 16 4 35q7 36 34 67t71 50t99 19q65 0 105.5 -24.5
t40.5 -66.5q0 -5 -2 -19q-5 -27 -27 -44.5t-52 -17.5q-21 0 -34.5 9.5t-23.5 30.5q-8 17 -15.5 25t-19.5 8t-20 -7t-10 -19q-2 -7 -2 -21q0 -49 46 -84h169h5q-1 5 -5.5 22.5t-4.5 35.5q0 17 4 34q8 36 34 67.5t68.5 51t96.5 19.5q67 0 105 -26t38 -66q0 -36 -24.5 -61
t-57.5 -25q-26 0 -39.5 10.5t-18.5 33.5q-5 18 -11 26t-18 8t-19 -8.5t-10 -21.5q-2 -14 -2 -19q0 -46 54 -81h94q16 0 23 -3t7 -16l-2 -13q-6 -28 -23 -48zM994 189q-2 -14 -2 -17q0 -22 14 -22q11 0 18 3.5t19 12.5q8 6 16 6q10 0 17 -8.5t7 -23.5q0 -17 -12 -40
q-23 -44 -75 -78t-110 -34q-65 0 -91.5 27.5t-26.5 79.5q0 42 15 110l64 308q5 28 5 39q0 12 -5 22q-3 7 -9 16.5t-6 18.5q0 22 14.5 35t46.5 24q49 18 86.5 28t70.5 10q25 0 35 -6t10 -21q0 -5 -2 -17z" />
    <glyph glyph-name="f_i" unicode="fi" horiz-adv-x="730" 
d="M3.5 -98.5q-10.5 9.5 -10.5 24.5q0 7 3 16l13 45q18 55 29 107l58 276q1 3 1 9q0 22 -29 22h-22q-10 0 -14 11t-2 28q5 28 22.5 44.5t30.5 16.5h33l-4 21q-6 26 -6 45q0 18 6 45q11 53 72 88.5t152 35.5q76 0 126.5 -31.5t50.5 -82.5q0 -5 -2 -19q-4 -22 -24.5 -40.5
t-51.5 -18.5q-32 0 -44.5 14t-24.5 47q-10 43 -49 43q-17 0 -29.5 -13.5t-12.5 -33.5q0 -13 4.5 -25t13.5 -31q14 -30 18 -44h169q38 0 83 7q50 6 73 6t34 -7t11 -23q0 -5 -2 -17l-62 -277q-3 -12 -3 -20q0 -20 15 -20q9 0 16 4t19 13q8 6 15 6q11 0 17.5 -9t6.5 -24
q0 -19 -11 -40q-23 -45 -74 -78.5t-110 -33.5q-66 0 -94.5 28.5t-28.5 80.5q0 43 18 107l28 111q6 23 6 40q0 46 -41 46h-45q-14 0 -25 -7.5t-14 -23.5l-63 -307q-1 -8 -4.5 -30.5t-8.5 -58.5q-3 -32 -18.5 -48.5t-57 -24t-127.5 -9.5q-19 0 -29.5 9.5z" />
    <glyph glyph-name="f_l" unicode="fl" horiz-adv-x="744" 
d="M3.5 -98.5q-10.5 9.5 -10.5 24.5q0 7 3 16l13 45q18 55 29 107l58 276q1 3 1 9q0 22 -29 22h-22q-10 0 -14 11t-2 28q5 28 22.5 44.5t30.5 16.5h37q-2 8 -5.5 25t-3.5 32q0 16 4 35q7 36 33 67.5t69 51t97 19.5q67 0 104.5 -25.5t37.5 -66.5q0 -35 -24 -60.5t-57 -25.5
q-27 0 -40 10.5t-19 33.5q-4 18 -10 26t-18 8q-22 0 -30 -30q-2 -12 -2 -18q0 -44 54 -82h95q15 0 22 -3t7 -16q0 -8 -1 -13q-6 -28 -23 -48t-36 -20h-23q-14 0 -25 -7.5t-14 -23.5l-63 -307q-1 -8 -4.5 -30.5t-8.5 -58.5q-3 -32 -18.5 -48.5t-57 -24t-127.5 -9.5
q-19 0 -29.5 9.5zM430.5 16q-26.5 28 -26.5 80q0 34 15 109l65 308q5 28 5 39q0 12 -5 22q-3 7 -8 14.5t-6.5 14t-0.5 15.5q4 18 18 28.5t42 21.5q51 18 88 28t70 10q24 0 34.5 -6t10.5 -22l-2 -16l-99 -473q-2 -7 -2 -19q0 -20 14 -20q11 0 18.5 4t17.5 12q8 6 16 6
q10 0 17 -8.5t7 -22.5q0 -17 -12 -41q-23 -45 -74.5 -78.5t-110.5 -33.5q-65 0 -91.5 28z" />
    <glyph glyph-name=".notdef" horiz-adv-x="630" 
 />
    <glyph glyph-name=".null" 
 />
    <glyph glyph-name="nonmarkingreturn" horiz-adv-x="333" 
 />
    <glyph glyph-name="space" unicode=" " horiz-adv-x="309" 
 />
    <glyph glyph-name="exclam" unicode="!" horiz-adv-x="325" 
d="M135.5 259q-8.5 11 -13.5 33q-8 38 -14 91.5t-6 103.5q0 49 8 91q13 63 52.5 99t97.5 36q48 0 73.5 -24.5t25.5 -69.5q0 -21 -4 -40q-11 -48 -55 -140t-80 -147q-29 -44 -58 -44q-18 0 -26.5 11zM38 11q-24 22 -24 60q0 13 3 26q10 51 47.5 82.5t87.5 31.5q43 0 68 -23.5
t25 -62.5t-19 -70t-51 -48.5t-71 -17.5q-42 0 -66 22z" />
    <glyph glyph-name="quotedbl" unicode="&#x22;" horiz-adv-x="381" 
d="M136.5 563.5q1.5 46.5 10.5 89.5q6 27 23 39.5t55 12.5q58 0 58 -41q0 -8 -1 -12q-13 -56 -41 -122t-31 -74q-5 -11 -17 -17.5t-25 -6.5t-22.5 6.5t-10.5 17.5q0 61 1.5 107.5zM322.5 563.5q1.5 46.5 10.5 89.5q6 27 23 39.5t55 12.5q58 0 58 -41q0 -8 -1 -12
q-13 -56 -41 -122t-31 -74q-5 -11 -17 -17.5t-25 -6.5t-22.5 6.5t-10.5 17.5q0 61 1.5 107.5z" />
    <glyph glyph-name="numbersign" unicode="#" horiz-adv-x="634" 
d="M10 12q0 9 5 19l63 137q1 3 1 8q0 10 -11 10h-23q-20 0 -29 5t-9 17q0 6 1 10q10 44 32 68.5t54 24.5h27q12 0 18 5t12 17l19 40q3 6 3 11q0 6 -3.5 9t-9.5 3h-29q-20 0 -29 4.5t-9 16.5q0 6 1 10q9 44 31 68.5t54 24.5h36q22 0 30 19l60 131q9 21 27 30.5t56 9.5
q48 0 48 -23q0 -10 -8 -26l-56 -120l-2 -8q0 -6 4 -9.5t9 -3.5h69q11 0 17.5 6.5t12.5 19.5l57 124q9 21 27 30.5t56 9.5q47 0 47 -22q0 -11 -8 -27l-53 -114q-3 -7 -3 -14q0 -6 2.5 -9.5t6.5 -3.5h20q20 0 28.5 -4.5t9.5 -16.5q0 -2 -2 -12q-9 -43 -31 -67t-52 -24h-22
q-14 0 -21 -6t-14 -20l-18 -39q-2 -3 -2 -9q0 -5 4 -8t10 -3h24q19 0 28.5 -5.5t9.5 -17.5q0 -7 -1 -11q-9 -43 -31 -67t-52 -24h-27q-16 0 -24.5 -5t-13.5 -17l-61 -133q-10 -23 -28.5 -32.5t-56.5 -9.5q-48 0 -48 23q0 9 5 19l60 130q4 10 4 13q0 6 -3.5 9t-8.5 3h-61
q-15 0 -23 -5t-13 -16l-61 -134q-10 -23 -28.5 -32.5t-56.5 -9.5q-47 0 -47 23zM353 311q13 0 20 5t12 15l17 37q4 8 4 15q0 6 -3 9.5t-7 3.5h-60q-16 0 -24.5 -5t-13.5 -16l-20 -43q-2 -4 -2 -10q0 -11 12 -11h65z" />
    <glyph glyph-name="dollar" unicode="$" horiz-adv-x="643" 
d="M572.5 379.5q42.5 -45.5 42.5 -111.5q0 -26 -6 -55q-14 -69 -63 -120t-117 -78t-139 -27l-22 -105q-2 -10 -13 -15.5t-25 -5.5t-22.5 5.5t-6.5 15.5l23 108q-35 3 -58 7.5t-27 5.5q-19 6 -34 6q-10 0 -19 -3.5t-11 -4.5q-8 -3 -18.5 -6t-22.5 -3q-15 0 -25 25t-15 66
q-3 30 -3 57q0 64 18 102t55 38q14 0 22.5 -6t15.5 -24t13 -55q18 -101 116 -101q34 0 59 18t33 55q2 8 2 21q0 26 -19.5 43t-65.5 36q-72 30 -109.5 75t-37.5 111q0 25 6 55q20 96 91 149.5t165 53.5h22l23 109q2 10 13 15t25 5t22.5 -5t6.5 -15l-24 -115q17 -3 47 -10
q24 -6 33 -6q17 0 33 9q18 8 32 8q17 0 29 -27.5t17 -63.5q4 -25 4 -58q0 -103 -67 -103q-21 0 -33 15t-26 56q-16 47 -40 63t-57 16q-34 0 -53 -20t-19 -52q0 -24 22.5 -44.5t78.5 -37.5q86 -26 128.5 -71.5z" />
    <glyph glyph-name="percent" unicode="%" horiz-adv-x="1094" 
 />
    <glyph glyph-name="ampersand" unicode="&#x26;" horiz-adv-x="791" 
d="M145.5 16q-70.5 28 -104.5 75.5t-34 105.5q0 19 5 44q11 52 45 88.5t67.5 55t74.5 35.5q13 6 13 9q0 2 -10 12q-28 26 -28 67q0 13 3 28q9 39 39.5 78t89.5 66t144 27q58 0 102.5 -21.5t44.5 -62.5q0 -6 -2 -16q-3 -13 -19 -24t-35 -11q-13 0 -33 13q-13 9 -25.5 14
t-30.5 5q-35 0 -57.5 -22t-27.5 -47q-1 -5 -1 -15q0 -23 12 -38t28 -12q7 2 18 2q18 0 18 -16q0 -9 -2 -14q-7 -18 -16 -29t-33 -20q-48 -16 -80 -51t-45 -97q-4 -16 -4 -36q0 -50 30 -82t83 -32q85 0 128 53t57 118q3 9 3 18q0 31 -39 31q-22 0 -37 -9t-27 -28
q-10 -14 -20 -21t-27 -7t-17 18q0 9 3 19q14 69 57 125.5t118 56.5q21 0 63 -6q44 -6 73 -6q39 0 58 28q17 21 27 29.5t22 8.5q19 0 19 -27q0 -11 -3 -26q-14 -67 -49.5 -98t-84.5 -31q-8 0 -8 -5q0 -3 10 -14t17 -24.5t7 -33.5q0 -10 -3 -24q-13 -59 -65.5 -117
t-139.5 -96.5t-195 -38.5q-106 0 -176.5 28z" />
    <glyph glyph-name="quotesingle" unicode="'" horiz-adv-x="264" 
d="M139.5 563.5q1.5 46.5 10.5 89.5q6 27 23 39.5t55 12.5q58 0 58 -41q0 -8 -1 -12q-13 -56 -41 -122t-31 -74q-5 -11 -17 -17.5t-25 -6.5t-22.5 6.5t-10.5 17.5q0 61 1.5 107.5z" />
    <glyph glyph-name="parenleft" unicode="(" horiz-adv-x="417" 
d="M296 -152q-15 0 -30 5q-115 41 -182.5 132t-67.5 217q0 55 11 104q23 110 86 201.5t152.5 155.5t192.5 96q19 6 33 6q26 0 26 -20q0 -13 -6 -20.5t-24 -19.5l-25 -19q-161 -123 -216 -380q-18 -87 -18 -154q0 -143 73 -225q6 -8 10.5 -13t7.5 -8q10 -10 13 -15.5t1 -14.5
q-6 -28 -37 -28z" />
    <glyph glyph-name="parenright" unicode=")" horiz-adv-x="419" 
d="M-70 -112q6 7 23 19q3 2 27 20q72 55 129 148t87 231q18 87 18 154q0 142 -73 226l-17 19q-10 10 -13.5 16.5t-2.5 15.5q7 28 37 28q12 0 30 -6q115 -40 183 -131.5t68 -219.5q0 -45 -11 -102q-23 -110 -86 -201.5t-152.5 -155.5t-192.5 -96q-16 -5 -33 -5q-27 0 -27 21
q0 12 6 19z" />
    <glyph glyph-name="asterisk" unicode="*" horiz-adv-x="383" 
d="M93 411q0 17 20 36q21 21 52 41q4 3 13.5 10t9.5 10q0 2 -10 2q-10 -1 -26 -1q-20 0 -31 2.5t-13 3.5q-30 7 -30 28q0 14 10 33q10 21 21 31t26 10q9 0 19 -3q27 -6 54 -30q11 -10 16 -10q3 0 3 6t-1 11q-2 14 -2 35q0 18 4 36q5 26 19 37t41 11q23 0 33.5 -7.5
t10.5 -24.5q0 -4 -2 -16q-1 -3 -5.5 -20t-23.5 -51q-6 -9 -6 -13q0 -2 2 -2q4 0 20 8q39 25 66 30q12 3 20 3q16 0 23.5 -11.5t7.5 -36.5q0 -22 -11 -35t-36 -19q-23 -7 -44 -7q-7 0 -29 2h-4q-7 0 -7 -4t11 -13q22 -18 29.5 -30.5t9.5 -15.5q7 -11 7 -23q0 -23 -34 -45
q-22 -15 -37 -15q-17 0 -31 23q-6 8 -10.5 28t-6.5 37q0 8 -5 8q-4 0 -8 -8q-8 -15 -22 -35.5t-23 -29.5q-25 -23 -41 -23q-15 0 -31 15q-18 15 -18 32z" />
    <glyph glyph-name="plus" unicode="+" horiz-adv-x="457" 
d="M139 107q0 10 3 23l13 62v4q0 13 -17 13h-74q-23 0 -36 7t-13 28q0 5 2 17q8 37 28.5 53.5t59.5 16.5h58q21 0 26 18l16 79q7 31 31 43.5t51 12.5q44 0 44 -34q0 -10 -3 -21l-18 -82q0 -1 -0.5 -2t0.5 -3q0 -11 12 -11h81q45 0 45 -45q0 -11 -3 -22q-7 -32 -24.5 -43.5
t-42.5 -11.5h-84q-12 0 -15 -13l-18 -82q-6 -27 -19.5 -42t-45.5 -15q-57 0 -57 50z" />
    <glyph glyph-name="comma" unicode="," horiz-adv-x="319" 
d="M-21.5 -132q-6.5 7 -6.5 16q0 21 26 31q30 11 51.5 29t24.5 36l1 7q0 12 -19 18q-51 17 -51 68q0 35 20 67.5t54 52t73 19.5q45 0 69.5 -24t24.5 -69q0 -24 -5 -45q-14 -65 -56.5 -113.5t-95 -74t-93.5 -25.5q-11 0 -17.5 7z" />
    <glyph glyph-name="hyphen" unicode="-" horiz-adv-x="317" 
d="M41 191q-32 0 -32 23q0 6 1 10q8 38 28 64t46 26h193q32 0 32 -23q0 -6 -1 -10q-8 -38 -28.5 -64t-46.5 -26h-192z" />
    <glyph glyph-name="period" unicode="." horiz-adv-x="307" 
d="M24.5 8.5q-22.5 19.5 -22.5 52.5q0 17 6 36q15 51 55.5 83t89.5 32q40 0 63.5 -21t23.5 -57q0 -17 -6 -37q-14 -48 -55.5 -78t-92.5 -30q-39 0 -61.5 19.5z" />
    <glyph glyph-name="slash" unicode="/" horiz-adv-x="558" 
d="M128 -99q-24 -36 -36 -51t-33 -23t-59 -8q-69 0 -69 31q0 18 25 56l479 723q26 38 38.5 53t33 23t58.5 8q68 0 68 -31q0 -19 -24 -57z" />
    <glyph glyph-name="zero" unicode="0" horiz-adv-x="607" 
d="M448.5 28.5q66.5 39.5 105 106.5t38.5 146q0 80 -40 146t-106 104.5t-142 38.5q-81 0 -147.5 -40t-104 -107t-37.5 -144q0 -76 38.5 -143t104.5 -107t145 -40t145.5 39.5zM128 475q36 31 81.5 48.5t94.5 17.5q48 0 92.5 -18t78.5 -48h-347zM497 454q66 -79 66 -175
q0 -46 -15.5 -88.5t-43.5 -77.5h-346zM108 104q-31 36 -48 81t-17 94q2 97 58 167h346zM129 84h349q-37 -30 -81.5 -47.5t-92.5 -17.5q-95 0 -175 65z" />
    <glyph glyph-name="one" unicode="1" horiz-adv-x="607" 
d="M448.5 28.5q66.5 39.5 105 106.5t38.5 146q0 80 -40 146t-106 104.5t-142 38.5q-81 0 -147.5 -40t-104 -107t-37.5 -144q0 -76 38.5 -143t104.5 -107t145 -40t145.5 39.5zM128 475q36 31 81.5 48.5t94.5 17.5q48 0 92.5 -18t78.5 -48h-347zM497 454q66 -79 66 -175
q0 -46 -15.5 -88.5t-43.5 -77.5h-346zM108 104q-31 36 -48 81t-17 94q2 97 58 167h346zM129 84h349q-37 -30 -81.5 -47.5t-92.5 -17.5q-95 0 -175 65z" />
    <glyph glyph-name="two" unicode="2" horiz-adv-x="607" 
d="M448.5 28.5q66.5 39.5 105 106.5t38.5 146q0 80 -40 146t-106 104.5t-142 38.5q-81 0 -147.5 -40t-104 -107t-37.5 -144q0 -76 38.5 -143t104.5 -107t145 -40t145.5 39.5zM128 475q36 31 81.5 48.5t94.5 17.5q48 0 92.5 -18t78.5 -48h-347zM497 454q66 -79 66 -175
q0 -46 -15.5 -88.5t-43.5 -77.5h-346zM108 104q-31 36 -48 81t-17 94q2 97 58 167h346zM129 84h349q-37 -30 -81.5 -47.5t-92.5 -17.5q-95 0 -175 65z" />
    <glyph glyph-name="three" unicode="3" horiz-adv-x="607" 
d="M448.5 28.5q66.5 39.5 105 106.5t38.5 146q0 80 -40 146t-106 104.5t-142 38.5q-81 0 -147.5 -40t-104 -107t-37.5 -144q0 -76 38.5 -143t104.5 -107t145 -40t145.5 39.5zM128 475q36 31 81.5 48.5t94.5 17.5q48 0 92.5 -18t78.5 -48h-347zM497 454q66 -79 66 -175
q0 -46 -15.5 -88.5t-43.5 -77.5h-346zM108 104q-31 36 -48 81t-17 94q2 97 58 167h346zM129 84h349q-37 -30 -81.5 -47.5t-92.5 -17.5q-95 0 -175 65z" />
    <glyph glyph-name="four" unicode="4" horiz-adv-x="607" 
d="M448.5 28.5q66.5 39.5 105 106.5t38.5 146q0 80 -40 146t-106 104.5t-142 38.5q-81 0 -147.5 -40t-104 -107t-37.5 -144q0 -76 38.5 -143t104.5 -107t145 -40t145.5 39.5zM128 475q36 31 81.5 48.5t94.5 17.5q48 0 92.5 -18t78.5 -48h-347zM497 454q66 -79 66 -175
q0 -46 -15.5 -88.5t-43.5 -77.5h-346zM108 104q-31 36 -48 81t-17 94q2 97 58 167h346zM129 84h349q-37 -30 -81.5 -47.5t-92.5 -17.5q-95 0 -175 65z" />
    <glyph glyph-name="five" unicode="5" horiz-adv-x="607" 
d="M448.5 28.5q66.5 39.5 105 106.5t38.5 146q0 80 -40 146t-106 104.5t-142 38.5q-81 0 -147.5 -40t-104 -107t-37.5 -144q0 -76 38.5 -143t104.5 -107t145 -40t145.5 39.5zM128 475q36 31 81.5 48.5t94.5 17.5q48 0 92.5 -18t78.5 -48h-347zM497 454q66 -79 66 -175
q0 -46 -15.5 -88.5t-43.5 -77.5h-346zM108 104q-31 36 -48 81t-17 94q2 97 58 167h346zM129 84h349q-37 -30 -81.5 -47.5t-92.5 -17.5q-95 0 -175 65z" />
    <glyph glyph-name="six" unicode="6" horiz-adv-x="607" 
d="M448.5 28.5q66.5 39.5 105 106.5t38.5 146q0 80 -40 146t-106 104.5t-142 38.5q-81 0 -147.5 -40t-104 -107t-37.5 -144q0 -76 38.5 -143t104.5 -107t145 -40t145.5 39.5zM128 475q36 31 81.5 48.5t94.5 17.5q48 0 92.5 -18t78.5 -48h-347zM497 454q66 -79 66 -175
q0 -46 -15.5 -88.5t-43.5 -77.5h-346zM108 104q-31 36 -48 81t-17 94q2 97 58 167h346zM129 84h349q-37 -30 -81.5 -47.5t-92.5 -17.5q-95 0 -175 65z" />
    <glyph glyph-name="seven" unicode="7" horiz-adv-x="607" 
d="M448.5 28.5q66.5 39.5 105 106.5t38.5 146q0 80 -40 146t-106 104.5t-142 38.5q-81 0 -147.5 -40t-104 -107t-37.5 -144q0 -76 38.5 -143t104.5 -107t145 -40t145.5 39.5zM128 475q36 31 81.5 48.5t94.5 17.5q48 0 92.5 -18t78.5 -48h-347zM497 454q66 -79 66 -175
q0 -46 -15.5 -88.5t-43.5 -77.5h-346zM108 104q-31 36 -48 81t-17 94q2 97 58 167h346zM129 84h349q-37 -30 -81.5 -47.5t-92.5 -17.5q-95 0 -175 65z" />
    <glyph glyph-name="eight" unicode="8" horiz-adv-x="607" 
d="M448.5 28.5q66.5 39.5 105 106.5t38.5 146q0 80 -40 146t-106 104.5t-142 38.5q-81 0 -147.5 -40t-104 -107t-37.5 -144q0 -76 38.5 -143t104.5 -107t145 -40t145.5 39.5zM128 475q36 31 81.5 48.5t94.5 17.5q48 0 92.5 -18t78.5 -48h-347zM497 454q66 -79 66 -175
q0 -46 -15.5 -88.5t-43.5 -77.5h-346zM108 104q-31 36 -48 81t-17 94q2 97 58 167h346zM129 84h349q-37 -30 -81.5 -47.5t-92.5 -17.5q-95 0 -175 65z" />
    <glyph glyph-name="nine" unicode="9" horiz-adv-x="607" 
d="M448.5 28.5q66.5 39.5 105 106.5t38.5 146q0 80 -40 146t-106 104.5t-142 38.5q-81 0 -147.5 -40t-104 -107t-37.5 -144q0 -76 38.5 -143t104.5 -107t145 -40t145.5 39.5zM128 475q36 31 81.5 48.5t94.5 17.5q48 0 92.5 -18t78.5 -48h-347zM497 454q66 -79 66 -175
q0 -46 -15.5 -88.5t-43.5 -77.5h-346zM108 104q-31 36 -48 81t-17 94q2 97 58 167h346zM129 84h349q-37 -30 -81.5 -47.5t-92.5 -17.5q-95 0 -175 65z" />
    <glyph glyph-name="colon" unicode=":" horiz-adv-x="308" 
d="M25.5 7.5q-22.5 19.5 -22.5 52.5q0 17 6 36q15 51 55.5 83t89.5 32q40 0 63.5 -21t23.5 -57q0 -17 -6 -37q-14 -48 -55.5 -78t-92.5 -30q-39 0 -61.5 19.5zM89.5 310.5q-22.5 19.5 -22.5 52.5q0 17 6 36q15 51 55.5 83t89.5 32q40 0 63.5 -21t23.5 -57q0 -17 -6 -37
q-14 -48 -55.5 -78t-92.5 -30q-39 0 -61.5 19.5z" />
    <glyph glyph-name="semicolon" unicode=";" horiz-adv-x="312" 
d="M93.5 309.5q-22.5 19.5 -22.5 53.5q0 16 6 35q15 51 55.5 83t89.5 32q40 0 63.5 -21t23.5 -57q0 -17 -6 -37q-14 -48 -55.5 -78t-92.5 -30q-39 0 -61.5 19.5zM-18 -107q-6 6 -6 15q0 8 6 15.5t18 11.5q26 10 45.5 26.5t22.5 32.5l1 6q0 11 -18 17q-45 15 -45 62
q0 32 18 60.5t48 46t66 17.5q41 0 63.5 -21.5t22.5 -62.5q0 -17 -5 -40q-13 -58 -51.5 -101.5t-86 -67t-83.5 -23.5q-10 0 -16 6z" />
    <glyph glyph-name="less" unicode="&#x3c;" horiz-adv-x="488" 
d="M376 37q-57 4 -143 36.5t-155 71.5q-64 36 -64 90q0 44 30 79t80 57q85 37 188 70.5t157 37.5q43 2 43 -35q0 -9 -3 -21q-7 -30 -24 -47.5t-52 -29.5q-15 -6 -51 -17q-17 -6 -76.5 -26t-90.5 -34q-9 -3 -11 -5t-4 -7v-1q0 -6 11 -11l184 -75q24 -9 35 -22t11 -32
q0 -10 -3 -24q-13 -57 -62 -55z" />
    <glyph glyph-name="equal" unicode="=" horiz-adv-x="480" 
d="M82 282q-28 0 -43 7t-11 25q9 38 37.5 64.5t68.5 26.5h303q59 0 52 -34q-7 -38 -36 -63.5t-70 -25.5h-301zM47 115q-28 0 -43 7t-11 25q9 38 37.5 64.5t68.5 26.5h303q59 0 52 -34q-7 -38 -36 -63.5t-70 -25.5h-301z" />
    <glyph glyph-name="greater" unicode="&#x3e;" horiz-adv-x="488" 
d="M5.5 141q17.5 18 53.5 29l216 75q14 5 15 12l1 4q0 3 -2.5 4.5t-7.5 3.5q-27 14 -79 35t-63 25q-33 12 -44 17q-25 10 -35.5 22.5t-10.5 31.5q0 11 3 23q8 33 24.5 45t38.5 11q53 -4 141.5 -37t157.5 -71q63 -34 63 -92q0 -7 -2 -21q-8 -35 -36 -64t-73 -49
q-87 -39 -187 -71.5t-158 -36.5q-42 -2 -42 35q0 8 3 20q6 31 23.5 49z" />
    <glyph glyph-name="question" unicode="?" horiz-adv-x="547" 
d="M228 277q0 3 2 15q9 40 29.5 70t54.5 66q28 30 41.5 48.5t18.5 40.5q6 29 6 45q0 44 -34 44q-19 0 -34 -16t-20 -41q-11 -52 -44 -79t-75 -27q-34 0 -56 19t-22 52q0 11 3 23q10 47 48 87t97 64t131 24q95 0 153.5 -35.5t58.5 -101.5q0 -9 -4 -33q-7 -36 -28.5 -65
t-48.5 -50t-72 -50q-37 -25 -62 -43.5t-44 -39.5q-19 -22 -34 -34t-32 -12q-33 0 -33 29zM145 11q-24 22 -24 60q0 13 3 26q10 51 47.5 82.5t87.5 31.5q43 0 68.5 -23.5t25.5 -63.5q0 -39 -19.5 -69.5t-52 -48t-70.5 -17.5q-42 0 -66 22z" />
    <glyph glyph-name="at" unicode="@" horiz-adv-x="689" 
d="M556.5 487q56.5 -25 90 -72t33.5 -110q0 -27 -5 -50q-16 -75 -60.5 -126t-101 -76t-110.5 -25q-42 0 -61.5 14.5t-19.5 43.5q-21 -26 -53 -42.5t-66 -16.5q-38 0 -60 21t-22 59q0 9 4 33q11 49 42 94t76 72.5t96 27.5t72 -28q19 15 52 21.5t67 6.5q6 0 11.5 -3t5.5 -10
q0 -6 -2 -10l-65 -143q-16 -36 -16 -48q0 -14 16 -14q22 0 49.5 17t50.5 50t33 79q4 17 4 37q0 45 -23.5 82.5t-69 60t-110.5 22.5q-78 0 -154.5 -39t-130.5 -105.5t-71 -144.5q-7 -37 -7 -60q0 -60 26.5 -106t74 -71.5t107.5 -25.5q80 0 138.5 27t110.5 69q12 10 27 10
t24 -6t9 -14q0 -3 -4 -9q-26 -30 -75 -61.5t-111.5 -52.5t-126.5 -21q-77 0 -137 30t-93.5 84.5t-33.5 125.5q0 35 7 67q22 101 86.5 183.5t158 130t196.5 47.5q65 0 121.5 -25zM360 234q0 29 -19 29q-16 0 -30 -19.5t-22.5 -47t-8.5 -49.5q0 -13 4.5 -21t12.5 -8
q15 0 32 25.5t26 58.5q5 20 5 32z" />
    <glyph glyph-name="A" unicode="A" horiz-adv-x="788" 
d="M-29 9.5q-11 10.5 -11 26.5q0 5 2 13q5 28 49 53q24 11 41 28t32 46q74 137 210 357q24 38 24 63q0 9 -2 13q-7 18 -7 33q0 5 2 17q3 17 21.5 31t53.5 14h100q51 0 78.5 -14.5t39 -38.5t19.5 -65q46 -243 68 -415q4 -27 11 -41t22 -24q10 -10 14.5 -17.5t4.5 -20.5
q0 -38 -24.5 -53t-54.5 -15h-211q-85 0 -85 40q0 29 30 53q21 14 29.5 24t7.5 30l-2 14q-1 16 -12.5 24t-30.5 8h-147q-20 0 -31 -5t-21 -20l-6 -12q-11 -22 -11 -34q0 -15 16 -25q11 -8 16.5 -15.5t5.5 -20.5q0 -8 -1 -12q-5 -25 -24 -37.5t-45 -12.5h-135q-25 0 -36 10.5z
M390 285q16 0 25 8.5t8 22.5q-9 92 -20 160q-3 18 -18 18q-14 0 -25 -18q-51 -89 -92 -164q-4 -7 -4 -13q0 -14 26 -14h100z" />
    <glyph glyph-name="B" unicode="B" horiz-adv-x="718" 
d="M-9 7.5q-15 7.5 -15 26.5q0 36 39 63q24 17 35.5 39t23.5 76l59 276q9 41 9 65q0 30 -19 49q-22 19 -20 39q3 29 22 44t65 15q72 0 147 5q84 4 123 4q142 0 201 -36.5t59 -94.5q0 -47 -17 -80t-41 -54t-60 -43q-10 -6 -10 -13q0 -5 8 -8q39 -14 72 -47.5t33 -91.5
q0 -96 -80.5 -173t-309.5 -77q-67 0 -142 5q-86 4 -131 4q-36 0 -51 7.5zM380 411q34 0 59 20t37.5 50.5t12.5 59.5q0 30 -16 46t-43 16h-26q-25 0 -31 -32l-30 -137q-1 -3 -1 -7q0 -16 20 -16h18zM341 110q39 0 67.5 23t43 58t14.5 70q0 36 -19 55t-52 19h-24
q-23 0 -38 -10.5t-19 -28.5l-30 -140q-2 -10 -2 -14q0 -14 9 -23t27 -9h23z" />
    <glyph glyph-name="C" unicode="C" horiz-adv-x="685" 
d="M166.5 24q-65.5 36 -101.5 101t-36 149q0 109 56 210t154.5 164.5t218.5 63.5q71 0 129.5 -21.5t92.5 -59.5t34 -86q0 -29 -15 -58.5t-44.5 -49t-70.5 -19.5q-38 0 -63.5 22t-41.5 82q-8 31 -23.5 47t-43.5 16q-39 0 -64 -35.5t-36 -86t-11 -96.5q0 -81 33.5 -129
t103.5 -48q52 0 91.5 20t62.5 50q19 19 41 19q18 0 29 -13t9 -36q-6 -50 -52 -107t-124.5 -96t-175.5 -39q-87 0 -152.5 36z" />
    <glyph glyph-name="D" unicode="D" horiz-adv-x="786" 
d="M175 -5q-72 5 -133 5q-36 0 -51 7.5t-15 26.5q0 36 39 63q25 18 36.5 39.5t22.5 77.5l59 272q10 43 10 65q0 31 -21 52t-19 39q3 28 22 43t65 15q34 0 144 5q74 4 101 4q174 0 269 -69.5t95 -203.5q0 -128 -57.5 -228.5t-173 -158.5t-281.5 -58q-32 0 -112 4zM459.5 166
q46.5 57 69 135.5t22.5 141.5q0 74 -33.5 115t-93.5 41q-17 0 -29.5 -9t-16.5 -27l-85 -400q-2 -7 -2 -19q0 -19 13 -27t42 -8q67 0 113.5 57z" />
    <glyph glyph-name="E" unicode="E" horiz-adv-x="667" 
d="M642 204q0 -40 -41 -122q-30 -60 -50.5 -80.5t-46.5 -20.5q-17 0 -42 7q-34 12 -80 12h-340q-35 0 -50.5 8t-15.5 27q0 22 10.5 36t28.5 26q25 18 36.5 39.5t22.5 77.5l59 272q9 47 9 68q0 17 -4.5 27.5t-15.5 21.5q-19 19 -19 38q0 6 1 10q6 27 25.5 38t60.5 11h319
q51 0 93 12q28 7 46 7q26 0 37.5 -20.5t15.5 -80.5q2 -17 2 -46q0 -117 -69 -117q-24 0 -37 12.5t-21 34.5q-11 40 -19.5 57.5t-25 26t-48.5 8.5h-61q-22 0 -32 -8t-16 -36l-24 -116q-1 -3 -1 -8q0 -10 14 -10h23q15 0 23 8t12 28q7 26 19 38.5t36 12.5q19 0 28.5 -9.5
t13 -33.5t4.5 -74q0 -56 -5 -85t-18 -42t-40 -13q-22 0 -32.5 10.5t-11.5 32.5q-2 16 -7.5 22t-24.5 6h-26q-16 0 -26.5 -11t-13.5 -27l-29 -131l-2 -16q0 -15 8.5 -20.5t28.5 -5.5h78q41 0 69 23t55 67q32 49 77 49q40 0 40 -41z" />
    <glyph glyph-name="F" unicode="F" horiz-adv-x="639" 
d="M-8.5 8q-15.5 8 -15.5 27q0 22 10.5 36t28.5 26q25 17 36 39t23 78l59 272q10 52 10 68t-5 27t-16 22q-19 19 -19 38q0 6 1 10q6 27 25.5 38t60.5 11h307q33 0 52.5 3t37.5 9q24 7 47 7q26 0 38 -21.5t16 -81.5q1 -13 1 -37q0 -62 -16.5 -93t-53.5 -31q-24 0 -36.5 12.5
t-19.5 35.5q-11 41 -19.5 59t-23.5 25t-46 7h-47q-25 0 -36 -8t-16 -33l-29 -136l-1 -7q0 -13 15 -13h20q18 0 25 8t10 28q5 26 18.5 38.5t40.5 12.5q24 0 33.5 -17t7.5 -62l4 -73q-2 -57 -16.5 -81t-47.5 -24q-22 0 -31.5 10t-11.5 33q-2 15 -10 21.5t-26 6.5h-22
q-20 0 -29 -10.5t-13 -31.5l-11 -48q-8 -40 -8 -58q0 -17 6.5 -27.5t22.5 -20.5q27 -15 27 -40q0 -8 -1 -12q-6 -28 -27.5 -39t-74.5 -11h-204q-35 0 -50.5 8z" />
    <glyph glyph-name="G" unicode="G" horiz-adv-x="747" 
d="M175 21.5q-70 33.5 -108.5 97t-38.5 150.5q0 110 58.5 213t158.5 166.5t217 63.5q76 0 138 -21t97.5 -59t35.5 -87q0 -33 -15 -64t-45.5 -50.5t-74.5 -19.5q-43 0 -69.5 22t-41.5 81q-8 36 -25 54.5t-48 18.5q-42 0 -67.5 -40.5t-36.5 -97t-11 -107.5q0 -88 29 -146
t83 -58q27 0 44 11.5t20 28.5l2 11q2 14 2 18q0 11 -6 18.5t-21 15.5q-12 6 -18.5 16.5t-6.5 23.5q0 32 19.5 46t65.5 16q62 2 100 2q32 0 82 -2q32 -2 45 -9t13 -24q0 -22 -9.5 -34t-32.5 -31q-15 -11 -23 -24t-14 -39l-4 -19q-10 -49 -50.5 -88.5t-111.5 -63t-169 -23.5
q-93 0 -163 33.5z" />
    <glyph glyph-name="H" unicode="H" horiz-adv-x="817" 
d="M-8.5 8q-15.5 8 -15.5 27q0 22 10.5 36t28.5 26q25 17 36 39t23 78l59 272q10 52 10 68t-5 27t-16 22q-19 19 -19 38q0 6 1 10q6 27 25.5 38t60.5 11h202q36 0 51.5 -7.5t15.5 -26.5q0 -22 -11 -36.5t-29 -26.5q-24 -17 -34.5 -36.5t-20.5 -63.5l-7 -28q-3 -12 -3 -22
q0 -20 11 -28.5t32 -8.5h93q26 0 42 14t24 47l6 29q7 28 7 47q0 16 -5.5 27.5t-16.5 22.5q-18 18 -18 37q0 7 1 11q6 27 25 38t60 11h202q36 0 51.5 -7.5t15.5 -26.5q0 -22 -11 -36.5t-29 -26.5q-25 -18 -36 -39.5t-23 -77.5l-58 -272q-10 -44 -10 -68q0 -17 5 -27.5
t16 -21.5q18 -18 18 -37q0 -7 -1 -11q-6 -27 -25 -38t-61 -11h-202q-36 0 -51 7.5t-15 26.5q0 22 10.5 36.5t28.5 26.5q25 17 36.5 37.5t20.5 66.5l7 34q3 17 3 27q0 22 -10.5 30.5t-30.5 8.5h-93q-27 0 -42 -13t-24 -52l-8 -35q-8 -32 -8 -55q0 -16 5 -27t16 -22
q19 -19 19 -38q0 -6 -1 -10q-6 -27 -25.5 -38t-60.5 -11h-202q-35 0 -50.5 8z" />
    <glyph glyph-name="I" unicode="I" horiz-adv-x="393" 
d="M42 0q-36 0 -51 7.5t-15 26.5q0 22 10.5 36.5t28.5 26.5q25 18 36.5 39.5t22.5 77.5l59 272q9 47 9 68q0 17 -4.5 27.5t-15.5 21.5q-19 19 -19 38q0 6 1 10q6 27 25.5 38t60.5 11h90h23h90q36 0 51.5 -7.5t15.5 -26.5q0 -22 -11 -36.5t-29 -26.5q-25 -18 -36 -39.5
t-23 -77.5l-59 -272q-9 -46 -9 -68q0 -17 4.5 -27.5t15.5 -21.5q19 -19 19 -38q0 -6 -1 -10q-6 -27 -25.5 -38t-60.5 -11h-90h-23h-90z" />
    <glyph glyph-name="J" unicode="J" horiz-adv-x="619" 
d="M59 40.5q-53 52.5 -53 127.5q0 25 4 42q11 53 49 86t89 33q42 0 63 -23.5t21 -57.5q0 -6 -2 -20l-9 -32q-2 -8 -4.5 -17t-4.5 -19q-2 -12 -2 -15q0 -36 43 -36q26 0 45 20.5t27 56.5q3 13 9 61q9 81 26 165l15 69q9 42 9 63q0 19 -6.5 30.5t-20.5 22.5q-11 9 -17 18
t-6 22q0 8 1 13q6 27 29 38.5t72 11.5h203q32 0 45.5 -7.5t13.5 -26.5q0 -22 -10.5 -36.5t-27.5 -26.5q-22 -19 -32.5 -40.5t-22.5 -76.5l-51 -241q-27 -122 -113 -189.5t-211 -67.5q-118 0 -171 52.5z" />
    <glyph glyph-name="K" unicode="K" horiz-adv-x="797" 
d="M-8.5 8q-15.5 8 -15.5 27q0 22 10.5 36t28.5 26q25 17 36 39t23 78l59 272q10 52 10 68t-5 27t-16 22q-19 19 -19 38q0 6 1 10q6 27 25.5 38t60.5 11h206q28 0 40.5 -7.5t12.5 -24.5q0 -23 -9.5 -38t-25.5 -27q-20 -17 -30 -36.5t-19 -62.5l-9 -40q-2 -12 -2 -15
q0 -13 8 -13q6 0 19 11l67 56q37 35 52 58t15 41q0 9 -6 25q-7 17 -5 30q6 28 34.5 37t90.5 9l36 -1l34 1q47 0 71 -8t24 -31q0 -6 -1 -10q-5 -25 -22 -35.5t-48 -19.5q-26 -7 -44 -17.5t-48 -37.5l-30 -29q-13 -12 -13 -33q0 -11 3 -19l87 -317q6 -23 17 -33.5t28 -18.5
q22 -11 22 -37q0 -6 -1 -10q-6 -26 -28.5 -36.5t-58.5 -10.5h-215q-28 0 -44.5 7t-16.5 26q0 6 1 10q3 13 8.5 20t12 12.5t9.5 8.5q9 8 13 16t4 20q0 10 -5 38l-30 119q-6 27 -20 27q-9 0 -19 -10l-17 -14q-13 -12 -21 -23t-11 -27l-6 -27q-7 -38 -7 -60q0 -15 4 -25.5
t13 -20.5t14 -21t2 -27q-6 -27 -24 -38t-56 -11h-204q-35 0 -50.5 8z" />
    <glyph glyph-name="L" unicode="L" horiz-adv-x="647" 
d="M450 -13q-22 6 -45 9.5t-60 3.5h-213h-90q-35 0 -50.5 8t-15.5 27q0 22 10.5 36t28.5 26q25 18 36.5 39.5t22.5 77.5l59 272q9 47 9 68q0 17 -4.5 27.5t-15.5 21.5q-19 19 -19 38q0 6 1 10q6 27 25.5 38t60.5 11h200q44 0 63 -8.5t19 -27.5q0 -21 -12 -35t-33 -26
q-30 -17 -42 -39t-24 -78l-73 -339q-2 -10 -2 -13q0 -15 10 -20.5t27 -5.5h61q37 0 67 20.5t60 67.5q17 25 37.5 37t39.5 12q39 0 39 -40q0 -39 -37 -116q-31 -65 -52 -86.5t-48 -21.5q-14 0 -40 6z" />
    <glyph glyph-name="M" unicode="M" horiz-adv-x="948" 
d="M-12.5 9.5q-15.5 9.5 -15.5 27.5q0 33 44 57q22 11 33.5 26.5t25.5 50.5l148 374q8 20 8 37q0 22 -18 40q-10 12 -15 22t-2 22q5 23 23 29t42 6l118 -1q38 0 47 -11.5t8.5 -30t-0.5 -24.5q0 -26 4 -41l55 -230q1 -8 5 -12t8 -4q8 0 18 16l147 229q13 19 21 52
q6 21 11.5 32t20.5 17.5t43 6.5q41 0 56 1q9 0 23 0.5t37 -0.5q36 0 52.5 -10t12.5 -32q-3 -12 -14 -21.5t-29 -21.5q-18 -11 -25 -26t-9 -46l-29 -377l-1 -17q0 -23 6.5 -36t21.5 -22q28 -14 22 -42q-5 -26 -24.5 -38t-41.5 -12h-234q-29 0 -45 9.5t-16 29.5q0 7 1 11
q7 27 38 44q23 12 32 25.5t10 41.5l15 169q0 6 -2.5 10t-6.5 4q-6 0 -16 -14l-208 -304q-9 -13 -15.5 -19t-13.5 -6t-11 5.5t-9 17.5l-81 311q-4 14 -12 14q-10 0 -15 -14l-68 -180q-6 -16 -6 -26q0 -16 8.5 -24t24.5 -15q20 -12 20 -30q0 -26 -19 -43t-55 -17h-114
q-24 0 -39.5 9.5z" />
    <glyph glyph-name="N" unicode="N" horiz-adv-x="755" 
d="M-26 31q0 21 11.5 35t31.5 26q21 11 31 23.5t19 44t25 108.5l45 211q14 68 14 89q0 15 -5 23.5t-18 17.5q-28 19 -23 47q5 22 21 33.5t53 11.5l148 -1q20 0 31 -5t19 -15l195 -259q10 -13 23 -13q7 0 13 6t8 17l17 76q9 39 9 58q0 16 -6 25t-19 18q-23 16 -23 38
q0 6 1 10q5 22 21.5 33.5t52.5 11.5h110q55 0 55 -32q0 -21 -11.5 -35t-30.5 -26q-21 -12 -30.5 -22.5t-17.5 -36t-22 -88.5l-90 -421q-4 -21 -16.5 -32t-28.5 -11q-23 0 -33 17l-298 393q-9 10 -18 10q-14 0 -19 -22l-37 -174q-13 -62 -13 -87q0 -16 5 -25t17 -17
q23 -16 23 -38q0 -6 -1 -10q-5 -22 -21 -33.5t-52 -11.5h-110q-56 0 -56 32z" />
    <glyph glyph-name="O" unicode="O" horiz-adv-x="800" 
d="M174.5 20.5q-71.5 32.5 -109.5 94t-38 146.5q0 113 57.5 217t165 169t247.5 65q99 0 171 -32.5t110 -94t38 -145.5q0 -114 -57.5 -218t-165 -169t-249.5 -65q-98 0 -169.5 32.5zM469.5 165.5q42.5 57.5 64 139t21.5 150.5q0 61 -20.5 99t-61.5 38q-59 0 -101 -57.5
t-63.5 -139.5t-21.5 -151q0 -60 20.5 -98t61.5 -38q58 0 100.5 57.5z" />
    <glyph glyph-name="P" unicode="P" horiz-adv-x="704" 
d="M-8.5 8q-15.5 8 -15.5 27q0 20 10.5 34.5t28.5 27.5q25 18 36.5 40t23.5 78l57 265l5 23q9 43 9 60q0 30 -22 44q-11 7 -16 15.5t-4 21.5q8 57 74 57q65 0 155 4q84 4 130 4q140 0 215.5 -46.5t75.5 -132.5q0 -60 -33.5 -122.5t-117 -107t-221.5 -44.5h-41
q-20 0 -26.5 -7t-10.5 -28l-7 -32q-4 -17 -4 -35q0 -17 7 -29t24 -24q25 -15 25 -39q0 -27 -18 -44.5t-82 -18.5l-207 1q-35 0 -50.5 8zM382 363q63 0 90.5 42t27.5 98q0 43 -21 67t-57 24h-12q-15 0 -22 -6.5t-12 -27.5l-37 -170q-1 -4 -1 -11q0 -9 6.5 -12.5t23.5 -3.5h14
z" />
    <glyph glyph-name="Q" unicode="Q" horiz-adv-x="800" 
d="M747 -41q0 -24 -22 -53t-65.5 -49.5t-102.5 -20.5q-56 0 -94.5 12.5t-83.5 36.5q-40 21 -69 31t-68 10q-13 0 -45 -2q-34 -2 -51 -2q-38 0 -58.5 9t-15.5 33q3 17 36 30.5t87 17.5q-81 30 -124.5 94t-43.5 155q0 113 57.5 217t165 169t247.5 65q99 0 171 -32.5t110 -94
t38 -145.5q0 -106 -50.5 -204.5t-145.5 -165t-221 -79.5l25 -8q41 -14 73 -20.5t78 -6.5q23 0 40.5 5t45.5 16q30 14 46 14t31 -11q9 -8 9 -21zM372 534.5q-42 -57.5 -63.5 -139.5t-21.5 -151q0 -60 20.5 -98t61.5 -38q58 0 100.5 57.5t64 139t21.5 150.5q0 61 -20.5 99
t-61.5 38q-59 0 -101 -57.5z" />
    <glyph glyph-name="R" unicode="R" horiz-adv-x="775" 
d="M-8.5 7.5q-14.5 7.5 -14.5 25.5q0 40 39 64q26 19 37 40.5t23 76.5l57 265q10 50 10 71q0 32 -20 52q-21 19 -18 41q2 22 9 34t26.5 18t56.5 6l154 5q33 1 63 2t52 1q144 0 217.5 -46.5t73.5 -126.5q0 -134 -171 -214q-7 -2 -8.5 -8t4.5 -7q51 -18 70.5 -47.5t27.5 -89.5
q6 -57 22 -64q3 -1 10 -3t10 -5q11 -8 11 -22q0 -39 -39 -63t-126 -24q-58 0 -85 18.5t-34 53.5t-7 102q0 59 -21.5 85t-54.5 26h-13q-19 0 -29 -7.5t-16 -31.5l-11 -46q-6 -32 -6 -42q0 -31 23 -51q22 -15 22 -35q0 -31 -19 -46.5t-77 -15.5l-200 1q-34 0 -48.5 7.5z
M391 371q57 0 83.5 37t26.5 87q0 42 -19 70.5t-55 28.5h-14q-17 0 -24 -6t-12 -29l-30 -137q-3 -16 -3 -27q0 -13 7.5 -18.5t26.5 -5.5h13z" />
    <glyph glyph-name="S" unicode="S" horiz-adv-x="630" 
d="M128 7q-64 19 -101.5 55t-37.5 86q0 46 23 77t67 31q72 0 87 -76q10 -79 81 -79q35 0 57 20.5t22 54.5q0 31 -23 50.5t-71 42.5q-69 32 -107 81.5t-38 121.5q0 61 31 116t96 89.5t161 34.5q72 0 134 -20t99 -58.5t37 -90.5q0 -36 -23.5 -60.5t-66.5 -24.5q-66 0 -76 67
q-6 42 -28.5 60.5t-52.5 18.5q-31 0 -46.5 -16t-15.5 -46q0 -28 24.5 -50.5t77.5 -43.5q61 -26 96.5 -51t54.5 -62t19 -94q0 -61 -36 -119t-112 -96t-188 -38q-80 0 -144 19z" />
    <glyph glyph-name="T" unicode="T" horiz-adv-x="713" 
d="M135.5 8.5q-20.5 8.5 -20.5 28.5q0 21 13 34.5t35 25.5q32 18 45 39.5t24 77.5l75 349q1 4 1 12q0 19 -19 19h-14q-21 0 -40 -19.5t-49 -62.5q-23 -34 -43.5 -50t-47.5 -16q-38 0 -38 38q0 41 42 133q49 102 91 102q15 0 40 -7q3 -1 26 -6.5t58 -5.5h267q57 0 100 13
q28 6 39 6q22 0 33.5 -22t14.5 -80q1 -14 1 -38q0 -69 -15 -101t-51 -32q-28 0 -42 16t-23 50q-12 43 -22.5 62.5t-30.5 19.5h-14q-13 0 -20.5 -6.5t-11.5 -24.5l-73 -342q-10 -47 -10 -72q0 -18 6.5 -29t22.5 -23q13 -8 20 -16.5t7 -19.5q0 -4 -2 -12q-6 -28 -30 -39
t-74 -11l-202 1q-48 0 -68.5 8.5z" />
    <glyph glyph-name="U" unicode="U" horiz-adv-x="762" 
d="M71 203q0 40 11 92l39 184q11 58 11 78q0 16 -4.5 26t-16.5 20q-19 14 -19 35q0 4 2 14q6 27 26 38t61 11l202 -1q35 0 50.5 -8.5t15.5 -27.5q0 -21 -10.5 -34.5t-28.5 -26.5q-26 -18 -37.5 -40t-22.5 -77l-40 -185q-7 -37 -7 -57q0 -55 30 -84t88 -29q135 0 168 153
l43 198q10 47 10 71q0 18 -5 28.5t-15 20.5q-18 18 -18 36q0 8 1 12q5 26 25 38t63 12h80q34 0 50.5 -9t16.5 -29t-10 -33t-30 -26q-23 -16 -34.5 -38.5t-25.5 -84.5l-40 -187q-33 -154 -117 -229.5t-229 -75.5q-283 0 -283 215z" />
    <glyph glyph-name="V" unicode="V" horiz-adv-x="773" 
d="M320 -6q-79 0 -96 83q-48 232 -76 440q-4 29 -13.5 46t-26.5 29q-21 18 -21 38q0 4 2 14q6 30 36 44t99 14h162q56 0 78.5 -11.5t22.5 -32.5q0 -19 -10 -34.5t-25 -25.5q-27 -13 -37.5 -28.5t-9.5 -42.5q7 -120 31 -231q7 -28 20 -28t31 27q64 103 132 238q7 17 7 28
t-6.5 18.5t-20.5 15.5q-18 13 -18 37q0 8 1 12q13 58 99 58l55 -1l55 1q32 0 47.5 -11.5t15.5 -31.5q0 -24 -11.5 -38.5t-34.5 -27.5q-22 -11 -39 -26.5t-33 -43.5q-128 -229 -263 -446q-24 -39 -55.5 -61t-65.5 -22h-32z" />
    <glyph glyph-name="W" unicode="W" horiz-adv-x="1135" 
d="M307 -6q-42 0 -63 20t-29 60q-43 220 -67 442q-4 32 -12.5 47.5t-27.5 28.5q-20 18 -20 39q0 8 1 13q7 36 36.5 46.5t100.5 10.5h163q55 0 76 -10t21 -30q0 -5 -2 -15q-2 -12 -11 -24t-21 -21q-21 -10 -28 -24t-7 -42q0 -107 15 -244q5 -25 15 -25q9 0 24 23
q52 89 84 153q13 28 17.5 47.5t4.5 45.5q4 36 -26 59q-3 4 -8.5 12t-8.5 15t-3 16q0 31 24 48t70 17h123h46q44 0 64.5 -9.5t20.5 -29.5q0 -7 -1 -11q-5 -25 -43 -57q-24 -12 -32.5 -25t-8.5 -40q0 -100 21 -242q5 -20 13 -20q9 0 23 20q85 134 138 245q9 23 9 29
q0 9 -7 16.5t-24 18.5q-19 16 -19 37q0 3 2 13q5 28 27.5 40.5t71.5 12.5h107q29 0 44.5 -10.5t15.5 -28.5q0 -7 -1 -11q-4 -20 -13.5 -31t-27.5 -22q-32 -17 -47.5 -30t-30.5 -43q-128 -244 -254 -446q-27 -42 -54.5 -63t-62.5 -21h-24q-75 0 -86 81q-11 99 -16 213
q0 22 -9 22t-21 -22q-57 -108 -123 -216q-51 -78 -114 -78h-25z" />
    <glyph glyph-name="X" unicode="X" horiz-adv-x="794" 
d="M-14.5 4.5q-16.5 9.5 -16.5 26.5q0 23 15 36.5t48 26.5l17 8.5t29 18.5t33 31l152 163q18 21 18 42q0 8 -3 15l-77 158q-14 30 -25.5 41.5t-34.5 21.5q-28 15 -28 40q0 8 1 13q6 29 29 42.5t71 13.5h237q43 0 61 -10.5t18 -29.5t-9.5 -31.5t-27.5 -23.5
q-15 -13 -22.5 -22t-7.5 -19q0 -8 5 -18l22 -47q10 -17 19 -17t22 16l46 52q16 17 16 34q0 15 -14 29q-13 13 -19 23t-3 23q5 23 24.5 31.5t53.5 8.5h136q65 0 65 -35q0 -23 -15 -36.5t-48 -26.5l-17 -8.5t-29 -19t-33 -30.5l-125 -132q-14 -17 -14 -36q0 -9 3 -17l96 -199
q13 -27 24.5 -37.5t31.5 -20.5q29 -14 29 -40q0 -4 -2 -14q-6 -27 -28.5 -41t-70.5 -14h-234q-44 0 -63 10t-19 30q0 8 1 12q3 16 12 25t26 20q14 12 20.5 20t6.5 19q0 10 -6 23l-37 78q-7 16 -17 16q-9 0 -24 -16l-76 -86q-16 -19 -16 -34q0 -16 15 -29q13 -13 18.5 -23.5
t2.5 -22.5q-5 -23 -24.5 -31.5t-53.5 -8.5h-136q-32 -1 -48.5 8.5z" />
    <glyph glyph-name="Y" unicode="Y" horiz-adv-x="717" 
d="M160 7.5q-15 7.5 -15 26.5q0 22 11 36.5t29 26.5q24 17 35 36t19 58l6 27q2 8 2 26q0 43 -15 90l-62 193q-6 19 -16 31t-19 19t-12 9q-5 4 -15 12.5t-15 16.5t-5 19q0 7 1 12q7 33 32.5 43.5t76.5 10.5h213q79 0 79 -35q0 -20 -9.5 -32t-29.5 -28q-13 -11 -19 -21t-6 -22
q0 -9 5 -26l24 -73q6 -17 17 -17q12 0 23 17l69 100q9 14 9 27q0 14 -15 31q-7 10 -9 18t0 18q6 24 26.5 33.5t54.5 9.5h107q32 0 48 -7t16 -24q0 -21 -12.5 -33.5t-27 -20.5t-19.5 -11q-15 -9 -28 -22t-35 -41l-150 -193q-18 -23 -33.5 -59t-23.5 -71l-5 -27q-6 -30 -6 -46
q0 -15 4.5 -25.5t15.5 -22.5q9 -9 14 -17t5 -19q0 -8 -1 -12q-6 -25 -24 -37.5t-58 -12.5l-206 1q-36 0 -51 7.5z" />
    <glyph glyph-name="Z" unicode="Z" horiz-adv-x="685" 
d="M466 -12q-79 12 -147 12h-298q-30 0 -42 10t-9 26q4 15 14 29t25 32l388 459q15 18 15 27q0 12 -24 12h-58q-40 0 -65 -19.5t-65 -74.5q-20 -25 -35 -35.5t-36 -10.5q-42 0 -42 44q0 41 41 119q23 44 38 65t27.5 28t30.5 7q11 0 43 -6q28 -6 51 -9t58 -3h350
q14 0 21.5 -5t9.5 -12q1 -3 1 -10q0 -20 -14 -34l-424 -473q-26 -29 -26 -44q0 -16 32 -16h81q39 0 65.5 21t62.5 74q19 23 35.5 34t35.5 11t29.5 -11t10.5 -34q0 -43 -40 -120q-22 -45 -37.5 -66t-28 -26.5t-30.5 -5.5q-14 0 -44 5z" />
    <glyph glyph-name="bracketleft" unicode="[" horiz-adv-x="417" 
d="M30 -148q-38 0 -52 8.5t-14 27.5q0 7 4 31l162 763q6 26 13.5 39.5t25.5 20t52 6.5h236q14 0 20 -4.5t6 -18.5q0 -9 -3 -24q-5 -24 -15.5 -34t-27.5 -10h-63q-23 0 -33 -9t-13 -26l-137 -642q-2 -12 -2 -15q0 -10 7 -15.5t25 -5.5h59q17 0 24.5 -6t7.5 -21q0 -5 -2 -17
q-6 -29 -16 -38.5t-28 -9.5h-236z" />
    <glyph glyph-name="backslash" unicode="\" horiz-adv-x="569" 
d="M115 625q-5 22 -5 35q0 27 19 40t66 13q38 0 55.5 -8t24 -23.5t14.5 -52.5l172 -723q5 -22 5 -34q0 -27 -19.5 -40t-66.5 -13q-38 0 -55 8t-23 22t-16 52z" />
    <glyph glyph-name="bracketright" unicode="]" horiz-adv-x="412" 
d="M-29 -148q-14 0 -20 4.5t-6 18.5q0 8 3 25q5 24 15.5 34t31.5 10h59q24 0 33.5 9t12.5 27l137 642q2 10 2 13q0 22 -32 22h-64q-27 0 -27 26q0 4 2 18q6 28 16 37.5t27 9.5h236q38 0 52.5 -8t14.5 -27q0 -11 -5 -31l-161 -763q-6 -26 -13.5 -40t-25.5 -20.5t-52 -6.5
h-236z" />
    <glyph glyph-name="asciicircum" unicode="^" horiz-adv-x="389" 
d="M86.5 533.5q-6.5 7.5 -6.5 16.5q0 26 44 64.5t103 74.5q33 18 63 18q17 0 29.5 -4t26.5 -14q37 -31 64.5 -70.5t27.5 -64.5q0 -10 -9.5 -19t-22.5 -9q-15 0 -28.5 4.5t-29.5 16.5q-63 46 -82 46q-6 0 -30 -10t-70 -36q-38 -21 -61 -21q-12 0 -18.5 7.5z" />
    <glyph glyph-name="underscore" unicode="_" horiz-adv-x="525" 
d="M-49 -157q-17 0 -26 6t-6 23q6 25 22 40.5t35 15.5h443q32 0 32 -19q0 -6 -1 -9q-5 -25 -21 -41t-35 -16h-443z" />
    <glyph glyph-name="grave" unicode="`" horiz-adv-x="264" 
d="M211 562q-44 27 -76.5 61.5t-27.5 57.5q4 20 23 28t64 8q50 0 74.5 -7t29.5 -34q9 -31 14.5 -65.5t2.5 -51.5q-7 -24 -37 -24q-23 0 -67 27z" />
    <glyph glyph-name="a" unicode="a" horiz-adv-x="659" 
d="M38.5 30.5q-35.5 42.5 -35.5 112.5q0 88 36 173t105.5 140t162.5 55q45 0 88 -15q31 -10 65 -10q24 0 57 11q6 2 18 6.5t21.5 6.5t20.5 2q17 0 24 -11t4 -26l-61 -285q-2 -8 -2 -20q0 -20 14 -20t35 16q9 6 17 6q9 0 15.5 -8.5t6.5 -22.5q0 -20 -12 -41
q-23 -45 -69.5 -78.5t-103.5 -33.5q-54 0 -84 31t-30 74q0 15 -7 15q-5 0 -13 -11q-31 -47 -68.5 -78t-92.5 -31q-76 0 -111.5 42.5zM310.5 179q21.5 27 32.5 70q25 94 25 128q0 25 -9 35.5t-25 10.5q-26 0 -49.5 -35.5t-37.5 -85t-14 -86.5q0 -64 32 -64q24 0 45.5 27z" />
    <glyph glyph-name="b" unicode="b" horiz-adv-x="608" 
d="M255.5 -8q-25.5 4 -44.5 11q-35 11 -66 11q-20 0 -43 -7q-16 -4 -24 -7q-40 -11 -54 -11q-30 0 -30 27q0 5 2 13q25 91 38 152l68 332q3 15 3 28q0 23 -16 35l-15 9t-14 12.5t-2 16.5q4 17 18.5 25.5t47.5 21.5q124 45 181 45q25 0 35.5 -6t10.5 -23q0 -3 -2 -15
l-49 -229q-3 -15 -4 -23t3 -8q5 0 11.5 8t7.5 9q34 47 73 71t87 24q64 0 95 -42t31 -118q0 -92 -36 -176t-104.5 -137t-161.5 -53q-21 0 -46.5 4zM322.5 113q22.5 36 36 85t13.5 81q0 30 -6.5 45t-25.5 15q-24 0 -46.5 -25.5t-34.5 -75.5q-9 -41 -15 -70t-6 -44
q0 -24 8.5 -35.5t28.5 -11.5q25 0 47.5 36z" />
    <glyph glyph-name="c" unicode="c" horiz-adv-x="517" 
d="M69 42.5q-59 54.5 -59 146.5q0 82 44 157.5t118.5 121.5t161.5 46q52 0 96 -17t69.5 -47.5t25.5 -69.5t-22 -64t-59 -25q-25 0 -39.5 9t-21.5 22t-18 41q-7 25 -17 36.5t-25 11.5q-35 0 -55.5 -48.5t-20.5 -118.5q0 -50 20.5 -79.5t59.5 -29.5q23 0 47 11.5t44 28.5
q20 15 36 15q15 0 23 -11.5t5 -31.5q-8 -33 -37 -69.5t-83.5 -63t-133.5 -26.5q-100 0 -159 54.5z" />
    <glyph glyph-name="d" unicode="d" horiz-adv-x="651" 
d="M39 30.5q-36 42.5 -36 111.5q0 89 35 174t102 140t159 55q37 0 61.5 -10t28.5 -10t7 10l5 25q2 10 2 15q0 22 -17 35q-5 3 -14 8t-13.5 10.5t-4.5 12.5q0 21 15 30.5t52 23.5q122 45 181 45q25 0 35 -6t10 -22q0 -4 -2 -16l-102 -485q-1 -4 -1 -12q0 -15 12 -15
q10 0 17.5 3t18.5 11q8 7 18 7t16.5 -8.5t6.5 -22.5q0 -20 -12 -40q-25 -46 -70.5 -79t-102.5 -33q-55 0 -84.5 32t-29.5 76q0 13 -6 13q-5 0 -13 -11q-72 -110 -162 -110q-76 0 -112 42.5zM311 178.5q21 26.5 33 70.5q25 87 25 128q0 25 -9 35.5t-25 10.5q-26 0 -49 -35
t-37.5 -84t-14.5 -87q0 -30 8 -47.5t24 -17.5q24 0 45 26.5z" />
    <glyph glyph-name="e" unicode="e" horiz-adv-x="508" 
d="M68.5 42q-59.5 54 -59.5 143q0 85 44.5 161t120.5 122t167 46q49 0 87 -17t59 -45.5t21 -62.5q-1 -49 -21.5 -81t-75 -54.5t-154.5 -36.5q-11 -2 -15.5 -6t-2.5 -14q12 -67 80 -67q29 0 51 12t48 34q17 12 32 12q14 0 23 -9t9 -23q0 -10 -4 -19q-25 -63 -85 -106
t-161 -43q-104 0 -163.5 54zM328.5 318q22.5 20 23.5 59q-1 27 -8 39.5t-24 12.5q-21 0 -39.5 -22.5t-29.5 -54t-12 -55.5q0 -14 8 -14q3 0 11 2q48 13 70.5 33z" />
    <glyph glyph-name="f" unicode="f" horiz-adv-x="387" 
d="M3.5 -98.5q-10.5 9.5 -10.5 24.5q0 7 3 16l13 45q18 55 29 107l58 276q1 3 1 9q0 22 -29 22h-22q-10 0 -14 11t-2 28q5 28 22.5 44.5t30.5 16.5h33l-4 21q-6 26 -6 45q0 18 6 45q11 53 72 88.5t152 35.5q76 0 126.5 -31.5t50.5 -82.5q0 -5 -2 -19q-4 -22 -24.5 -40.5
t-51.5 -18.5q-32 0 -44.5 14t-24.5 47q-10 43 -49 43q-17 0 -29.5 -13.5t-12.5 -33.5q0 -13 4.5 -25t13.5 -31q14 -30 18 -44h94q15 0 22 -3t7 -16q0 -8 -1 -13q-6 -28 -23 -48t-36 -20h-23q-14 0 -25 -7.5t-14 -23.5l-63 -307q-1 -8 -4.5 -30.5t-8.5 -58.5
q-3 -32 -18.5 -48.5t-57 -24t-127.5 -9.5q-19 0 -29.5 9.5z" />
    <glyph glyph-name="g" unicode="g" horiz-adv-x="602" 
d="M13 -152q-26 13 -39 34.5t-13 45.5q0 32 20.5 56t53.5 24q54 0 88 -50q16 -23 33.5 -33t50.5 -10q50 0 78 38t44 113l8 37q1 3 1 9q0 8 -5 8q-6 0 -14 -10q-31 -41 -69 -67t-95 -26q-77 0 -113.5 38.5t-36.5 105.5q0 83 36.5 164t103.5 133.5t154 52.5q42 0 96 -14
q14 -5 32 -8t29 -3q21 0 38 5t21 6q7 2 20 6.5t23 6.5t20 2q14 0 21.5 -7.5t7.5 -19.5q0 -7 -1 -10l-85 -402q-31 -146 -128.5 -200.5t-209.5 -54.5q-110 0 -170 30zM318 197q18 23 28 61l5 20q9 35 14 60t5 42q0 24 -8.5 33.5t-24.5 9.5q-26 0 -49.5 -33t-37.5 -79.5
t-14 -80.5q0 -56 41 -56q23 0 41 23z" />
    <glyph glyph-name="h" unicode="h" horiz-adv-x="677" 
d="M359.5 16.5q-27.5 28.5 -27.5 81.5q0 42 17 108l21 84q3 12 3 21q0 28 -27 28q-28 0 -56 -28t-39 -93q-14 -91 -19 -141q-3 -33 -18.5 -49t-57 -23.5t-127.5 -9.5q-20 0 -30 9t-10 25q0 10 2 16l12 39q18 52 31 113l68 316q3 15 3 28q0 23 -16 35l-15 9t-14 12.5t-2 16.5
q4 17 18.5 25.5t47.5 21.5q124 45 181 45q25 0 35.5 -6t10.5 -23q0 -3 -2 -15l-54 -248q-4 -17 3 -17q5 0 13 12q37 49 76 77t103 28q51 0 83 -26.5t32 -84.5q0 -25 -8 -62l-35 -151q-3 -12 -3 -20q0 -20 14 -20q18 0 35 16q8 6 16 6q10 0 17 -8.5t7 -23.5q0 -17 -12 -40
q-22 -44 -71.5 -78t-114.5 -34q-63 0 -90.5 28.5z" />
    <glyph glyph-name="i" unicode="i" horiz-adv-x="378" 
d="M62 16q-28 28 -28 80q0 42 17 108l28 111q4 13 4 26q0 22 -17 35q-5 4 -15 10t-14 12.5t-2 16.5q4 17 19 26t47 20q120 46 181 46q24 0 34.5 -6t10.5 -21q0 -5 -2 -17l-60 -273q-3 -12 -3 -20q0 -20 15 -20q9 0 16 4t19 13q8 6 15 6q11 0 17.5 -9t6.5 -24q0 -19 -11 -40
q-23 -45 -74 -78.5t-110 -33.5q-66 0 -94 28zM126.5 558.5q-20.5 14.5 -20.5 36.5q0 8 1 12q6 30 36.5 55.5t76 40.5t95.5 15q35 0 53.5 -14t18.5 -37q0 -8 -1 -12q-6 -30 -35.5 -55t-73 -40.5t-91.5 -15.5q-39 0 -59.5 14.5z" />
    <glyph glyph-name="j" unicode="j" horiz-adv-x="317" 
d="M-76 -181q-31 0 -47 13.5t-16 34.5q0 22 18 42.5t47 26.5q35 8 57 36.5t34 82.5l54 260q4 22 4 30q0 23 -14 31q-6 4 -15 8.5t-14 9.5t-5 13q0 18 18 30.5t48 22.5q69 23 108.5 35t64.5 12q27 0 40.5 -8t13.5 -28q0 -3 -2 -15l-81 -376q-24 -117 -103.5 -182t-194.5 -78
q-5 -1 -15 -1zM101.5 558.5q-20.5 14.5 -20.5 36.5q0 8 1 12q6 30 36.5 55.5t76 40.5t95.5 15q35 0 53.5 -14t18.5 -37q0 -8 -1 -12q-6 -30 -35.5 -55t-73 -40.5t-91.5 -15.5q-39 0 -59.5 14.5z" />
    <glyph glyph-name="k" unicode="k" horiz-adv-x="656" 
d="M341 53q-32 65 -43 175q-1 12 -10 12q-4 0 -9 -5l-17 -22q-11 -13 -14.5 -29t-4.5 -19q-10 -61 -12 -88q-3 -33 -18.5 -49t-57 -23.5t-127.5 -9.5q-20 0 -30 9t-10 25q0 10 2 16l12 39q18 54 31 113l69 317q3 15 3 27q0 23 -16 35l-15 9t-14 12.5t-2 16.5q4 17 18.5 25.5
t47.5 21.5q124 45 181 45q25 0 35.5 -6t10.5 -23q0 -3 -2 -15l-59 -279q-1 -5 -1 -12q0 -10 5 -10q6 0 18 12q69 75 118 107.5t111 32.5q49 0 79.5 -27.5t30.5 -66.5q0 -32 -17 -51.5t-49 -19.5q-39 0 -53 36q-5 14 -10.5 19.5t-15.5 5.5q-12 0 -30 -15q-15 -13 -15 -30
q0 -7 3 -18q28 -106 40 -145.5t23 -56.5t28 -17q10 0 16 3t12 7l9 6q7 4 14 4q10 0 17 -7.5t7 -19.5q0 -9 -2 -14q-18 -52 -63.5 -85t-109.5 -33q-82 0 -114 65z" />
    <glyph glyph-name="l" unicode="l" horiz-adv-x="362" 
d="M48.5 15.5q-26.5 27.5 -26.5 79.5q0 33 15 110l65 309q3 15 3 26q0 23 -16 36q-5 4 -14 9t-13.5 10t-4.5 13q0 20 14.5 29.5t52.5 23.5q121 45 181 45q24 0 34.5 -6t10.5 -22l-2 -16l-99 -473q-2 -7 -2 -19q0 -20 14 -20q11 0 17.5 3.5t18.5 12.5q8 6 16 6q10 0 17 -8.5
t7 -22.5q0 -17 -12 -41q-23 -45 -74.5 -78.5t-110.5 -33.5q-65 0 -91.5 27.5z" />
    <glyph glyph-name="m" unicode="m" horiz-adv-x="996" 
d="M679.5 17q-27.5 29 -27.5 84q0 42 16 103l14 58q8 29 8 49q0 28 -21 28q-26 0 -52 -28.5t-37 -92.5q-7 -42 -11.5 -73.5t-7.5 -67.5q-3 -33 -18.5 -49t-57 -23.5t-127.5 -9.5q-20 0 -30 9t-10 25q0 10 2 16l14 48q18 58 29 104l15 65q7 29 7 48q0 16 -6 22.5t-19 6.5
q-22 0 -47.5 -28.5t-38.5 -92.5q-12 -70 -20 -141q-3 -32 -18.5 -48.5t-57 -24t-126.5 -9.5q-20 0 -30.5 9.5t-10.5 24.5q0 7 3 16q5 18 15 48q19 60 28 104l27 118q3 15 3 27q0 23 -16 34q-6 4 -15.5 10t-13.5 12.5t-2 16.5q4 17 18.5 25.5t47.5 21.5q124 45 181 45
q24 0 34.5 -6.5t10.5 -21.5q0 -4 -2 -16l-12 -49q-4 -17 3 -17q2 0 14 12q74 105 166 105q53 0 81.5 -27.5t32.5 -77.5q0 -2 0.5 -7.5t1.5 -7.5t3 -2q4 0 6.5 2t7.5 11q24 41 69 75t100 34q120 0 120 -110q0 -25 -8 -63l-34 -151q-2 -14 -2 -18q0 -23 15 -23q14 0 34 17
q8 6 16 6q9 0 16 -9t7 -24q0 -18 -11 -39q-22 -44 -69 -78t-118 -34q-62 0 -89.5 29z" />
    <glyph glyph-name="n" unicode="n" horiz-adv-x="701" 
d="M355 101q0 40 17 105l22 84q3 14 3 22q0 27 -27 27q-29 0 -56.5 -28t-38.5 -93l-7 -42q-10 -66 -13 -99q-3 -32 -18.5 -48.5t-57 -24t-126.5 -9.5q-20 0 -30.5 9.5t-10.5 24.5q0 7 3 16l12 40q13 45 24 87.5t33 142.5q3 15 3 27q0 25 -16 34q-6 4 -15.5 10t-13.5 12.5
t-2 16.5q4 17 18.5 25.5t47.5 21.5q124 45 181 45q24 0 34.5 -6.5t10.5 -21.5q0 -4 -2 -16l-11 -49q-4 -17 3 -17q4 0 13 13q24 31 46 52.5t55.5 36.5t77.5 15q51 0 83 -26.5t32 -84.5q0 -25 -8 -62l-35 -151q-2 -7 -2 -19q0 -21 16 -21q14 0 33 16q8 6 16 6q10 0 16.5 -8.5
t6.5 -23.5q0 -19 -11 -40q-22 -44 -72 -78t-115 -34q-119 0 -119 113z" />
    <glyph glyph-name="o" unicode="o" horiz-adv-x="625" 
d="M74.5 44q-65.5 55 -65.5 146q0 68 38 143.5t120 128t206 52.5q116 0 179.5 -56.5t63.5 -148.5q0 -68 -37 -142t-116.5 -126t-200.5 -52q-122 0 -187.5 55zM341.5 137.5q24.5 48.5 36 108.5t11.5 92q0 74 -43 74q-38 0 -63 -48.5t-36.5 -108.5t-11.5 -92q0 -74 45 -74
q37 0 61.5 48.5z" />
    <glyph glyph-name="p" unicode="p" horiz-adv-x="626" 
d="M-17.5 -166q-10.5 9 -10.5 24q0 8 3 17l11 34q22 70 32 118l61 288q3 15 3 27q0 23 -16 34q-6 4 -15.5 10t-13.5 12.5t-2 16.5q4 17 18.5 25.5t47.5 21.5q124 45 181 45q24 0 34.5 -6.5t10.5 -22.5l-2 -16l-7 -35q-3 -12 -3.5 -19t2.5 -7q5 0 10.5 8t7.5 10
q35 46 74 70.5t87 24.5q63 0 94 -42t31 -118q0 -91 -34.5 -175.5t-98 -137.5t-145.5 -53q-55 0 -91 19q-7 4 -13 4q-8 0 -10 -9q-10 -49 -14 -96q-3 -32 -18.5 -48.5t-57 -24t-126.5 -8.5q-20 0 -30.5 9zM338.5 113.5q22.5 36.5 37 85.5t14.5 82q0 58 -32 58
q-26 0 -48 -27.5t-33 -77.5q-7 -28 -14 -62t-7 -50q0 -45 35 -45q25 0 47.5 36.5z" />
    <glyph glyph-name="q" unicode="q" horiz-adv-x="610" 
d="M506 -4l-3 -21q-1 -9 -5 -31t-5 -38q-3 -33 -18.5 -49t-57 -23.5t-127.5 -8.5q-20 0 -30 9t-10 25q0 10 2 16l14 42q21 64 31 110l9 35v5q0 9 -6 9t-15 -10q-59 -78 -135 -78t-111.5 42.5t-35.5 111.5q0 87 36.5 173t104 141t154.5 55q56 0 94 -14q37 -11 64 -11
q20 0 59 11l20 6q27 9 41 9q13 0 21.5 -7.5t8.5 -21.5q0 -6 -1 -9zM311 179q22 27 32 70q25 103 25 130q0 45 -34 45q-26 0 -49.5 -34.5t-37.5 -84t-14 -89.5q0 -64 32 -64q24 0 46 27z" />
    <glyph glyph-name="r" unicode="r" horiz-adv-x="530" 
d="M21.5 4.5q-10.5 9.5 -10.5 24.5q0 7 3 16q21 65 43 152l27 117q4 15 4 29q0 26 -17 33q-16 8 -24 14t-8 19q0 20 16.5 31t50.5 23q121 44 181 44q24 0 35 -6.5t11 -21.5q0 -6 -3 -17l-13 -55q-1 -3 -1 -8q0 -7 4 -7q3 0 7.5 4.5t8.5 11.5q31 48 65.5 77t75.5 29
q38 0 60 -28t22 -71q0 -44 -15.5 -76.5t-41 -49.5t-54.5 -17q-24 0 -37 7.5t-26 25.5q-3 5 -8.5 14.5t-10.5 13t-13 3.5q-22 0 -44.5 -30t-34.5 -88q-9 -45 -12.5 -71.5t-7.5 -69.5q-3 -33 -18 -49.5t-57 -24t-127 -8.5q-20 0 -30.5 9.5z" />
    <glyph glyph-name="s" unicode="s" horiz-adv-x="512" 
d="M94.5 9.5q-57.5 21.5 -82 53.5t-24.5 64q0 30 18.5 50t44.5 20q34 0 53 -17t41 -54q27 -49 75 -49q17 0 28.5 7.5t11.5 23.5q0 19 -16 32.5t-60 37.5q-69 37 -99.5 74t-30.5 84q0 86 59 132t154 46q96 0 164.5 -34.5t68.5 -98.5q0 -27 -17.5 -42.5t-46.5 -15.5
q-33 0 -52 14.5t-41 44.5q-15 23 -27.5 32.5t-31.5 9.5q-14 0 -25 -9.5t-11 -23.5t14 -27.5t50 -30.5q88 -41 127 -81t39 -95q0 -86 -66 -127.5t-168 -41.5q-92 0 -149.5 21.5z" />
    <glyph glyph-name="t" unicode="t" horiz-adv-x="447" 
d="M85 21q-40 32 -40 97q0 28 7 57l42 198q1 4 1 10q0 17 -18 17h-12q-27 0 -27 28q0 8 1 13q6 29 29.5 53t81.5 71q59 47 102.5 71t77.5 24q18 0 24.5 -6t6.5 -19q0 -10 -3 -27l-10 -49q-7 -38 -7 -44q0 -9 4 -11.5t15 -2.5h95q16 0 23 -4t7 -16q0 -4 -2 -16
q-7 -29 -24.5 -46.5t-39.5 -17.5h-74q-30 0 -36 -29l-37 -175q-2 -8 -2 -21q0 -45 41 -45q43 0 71 23q13 9 24 9q20 0 20 -21l-2 -12q-20 -67 -82.5 -104t-143.5 -37q-73 0 -113 32z" />
    <glyph glyph-name="u" unicode="u" horiz-adv-x="689" 
d="M78.5 23q-32.5 35 -32.5 97q0 31 7 60l29 134q3 15 3 27q0 24 -16 35q-6 4 -14.5 9t-13 10t-4.5 13q0 20 15.5 30t51.5 24q124 45 181 45q24 0 34.5 -6.5t10.5 -21.5q0 -4 -2 -16l-53 -251q-2 -7 -2 -20q0 -30 24 -30q28 0 53 28t37 86l7 39q3 17 3 28q0 23 -13 33
q-4 4 -13 9.5t-13 10t-4 12.5q0 20 16 31.5t51 24.5q118 43 176 43q24 0 34.5 -6.5t10.5 -21.5q0 -4 -2 -16l-59 -285q-1 -4 -1 -10q0 -18 15 -18q9 0 15.5 3.5t17.5 11.5q9 6 17 6q10 0 16.5 -8t6.5 -22q0 -19 -11 -41q-22 -47 -67 -79.5t-101 -32.5q-102 0 -116 114
q-2 10 -7 10q-6 0 -12 -9q-32 -46 -79 -80.5t-108 -34.5q-56 0 -88.5 35z" />
    <glyph glyph-name="v" unicode="v" horiz-adv-x="572" 
d="M33 120q0 21 7 58l30 137q3 15 3 27q0 23 -16 34q-7 5 -15.5 10t-13 9.5t-4.5 12.5q0 20 15.5 30.5t51.5 23.5q124 45 182 45q24 0 34 -6.5t10 -22.5q0 -10 -1 -15l-62 -299q-3 -15 -3 -27q0 -27 19 -27q23 0 51.5 34.5t49 80.5t20.5 75q0 21 -5.5 37.5t-19.5 34.5
q-21 34 -19 64q3 35 29 54t61 19q21 0 41.5 -7.5t33.5 -20.5q32 -31 42.5 -64.5t10.5 -71.5q0 -80 -51.5 -164t-136.5 -138.5t-179 -54.5q-165 0 -165 132z" />
    <glyph glyph-name="w" unicode="w" horiz-adv-x="858" 
d="M75.5 24.5q-41.5 36.5 -41.5 101.5q0 24 6 52l30 137q3 15 3 28q0 22 -15 33q-6 5 -15 10t-14 10t-5 13q0 20 15 29.5t54 23.5q122 45 181 45q24 0 34.5 -6.5t10.5 -22.5q0 -3 -2 -15l-63 -297q-3 -16 -3 -28q0 -28 19 -28q57 0 94 181l28 132q6 26 15 41t29 24.5
t57 12.5q9 1 26 1q47 0 65 -17t18 -41q0 -5 -3 -23l-54 -256q-3 -15 -3 -26q0 -29 19 -29q24 0 51 34.5t46 81t19 77.5q0 39 -28 80q-16 21 -16 49q0 5 2 17q6 31 29 47t54 16q25 0 49 -10.5t39 -29.5q46 -55 46 -127q0 -80 -50.5 -163.5t-130.5 -138t-163 -54.5
q-51 0 -83 23.5t-35 61.5q-1 4 -6 4t-8 -4q-26 -34 -72 -60t-115 -26q-72 0 -113.5 36.5z" />
    <glyph glyph-name="x" unicode="x" horiz-adv-x="611" 
d="M-4 4q-21 16 -21 46t13.5 62.5t35 54.5t42.5 22q14 0 23 -8.5t17 -24.5q7 -15 10.5 -19.5t10.5 -4.5q12 0 26 22.5t32 63.5q4 8 4 22q0 6 -2 16l-24 77q-10 30 -25 46t-40 29q-11 7 -15 13t-3 17t17 20t48 20q40 13 92.5 21t74.5 8q34 0 44 -40l25 -85q4 -7 5 -7q3 0 6 7
q28 61 69 96t91 35q41 0 62.5 -16t21.5 -46t-14 -63t-35 -55t-42 -22q-25 0 -41 33q-6 15 -9.5 19.5t-11.5 4.5q-12 0 -27 -24t-35 -66q-3 -7 -3 -18q0 -5 2 -13l22 -75q13 -45 38 -45q9 0 16 3.5t12.5 8t7.5 5.5q5 4 13 4q10 0 17.5 -8.5t7.5 -20.5q0 -7 -3 -16
q-16 -49 -62 -81.5t-110 -32.5q-56 0 -89.5 27t-58.5 100l-3 7q-1 6 -4 6t-5 -6q-28 -63 -69 -99t-91 -36q-42 0 -63 16z" />
    <glyph glyph-name="y" unicode="y" horiz-adv-x="630" 
d="M72 -165q-41 17 -63 43q-26 29 -26 64q0 32 20 55.5t51 23.5q28 0 43 -14.5t29 -45.5q14 -30 30 -41.5t44 -11.5q42 0 84 53t64 122q-35 -31 -71 -44t-68 -13q-162 0 -162 137q0 36 8 71l19 81q3 15 3 27q0 23 -16 34q-6 4 -15.5 10t-13.5 12.5t-2 16.5q4 17 18.5 25.5
t47.5 21.5q124 45 181 45q25 0 35.5 -6.5t10.5 -22.5q0 -3 -2 -15l-57 -267q-7 -29 -7 -47q0 -14 5.5 -19.5t16.5 -5.5q34 0 55.5 17t33.5 41.5t25 64.5q11 33 11 55q0 20 -8 36.5t-25 33.5q-11 11 -16.5 28t-4.5 36q2 35 31 55t69 20q54 0 90 -32q36 -30 54.5 -80
t15.5 -107q-5 -104 -42 -196.5t-100 -157.5q-57 -58 -132 -89t-166 -31q-57 0 -98 17z" />
    <glyph glyph-name="z" unicode="z" horiz-adv-x="513" 
d="M315 -9q-61 9 -119 9h-167q-50 0 -43 31q2 11 14.5 28.5t16.5 23.5l185 282l11 17q10 15 13 21t-4 6h-29q-16 0 -25.5 -7.5t-21 -21.5t-17.5 -21q-19 -19 -36.5 -28.5t-38.5 -9.5q-27 0 -27 26q0 17 14 41l52 88q13 23 29 30t34 7q13 0 26 -3q43 -9 111 -9h194
q22 0 27 -17q2 -6 -2 -17.5t-9 -19.5l-210 -317q-1 -2 -8.5 -12.5t-10 -18t3.5 -7.5h29q21 0 29.5 5t23.5 24q4 8 18 23q17 18 38 26.5t40 8.5q13 0 20.5 -5.5t7.5 -15.5q0 -15 -19 -43l-56 -83q-19 -28 -34.5 -36t-29.5 -8q-10 0 -30 3z" />
    <glyph glyph-name="braceleft" unicode="{" horiz-adv-x="386" 
d="M53.5 -124q-35.5 26 -35.5 76q0 22 7 57q8 36 17.5 71t12.5 47q3 11 10 36t11 44q3 15 3 24q0 14 -7.5 21t-28.5 15q-15 8 -21.5 14.5t-6.5 14.5q0 13 9.5 22.5t34.5 19.5q32 11 42 20.5t16 39.5q4 20 13 82q13 83 19 115q11 52 33 86t66.5 53.5t120.5 19.5q61 0 87 -13
t21 -36q-3 -17 -17.5 -21t-50.5 -4q-29 0 -41.5 -21t-22.5 -68t-16 -100q-5 -44 -11 -68q-11 -55 -35 -80t-74 -37q-5 -1 -6 -4.5t3 -4.5q36 -9 52 -24.5t16 -45.5q0 -19 -6 -45q-2 -12 -18 -66q-3 -11 -11.5 -41t-15.5 -61q-8 -42 -8 -55q0 -17 7.5 -25.5t25.5 -8.5
q36 0 49 -4t10 -21q-6 -23 -38 -36.5t-92 -13.5q-88 0 -123.5 26z" />
    <glyph glyph-name="bar" unicode="|" horiz-adv-x="179" 
d="M-51 -159q-16 6 -16 21q0 5 1 8l177 830q4 20 22.5 28.5t59.5 8.5q39 0 54.5 -8.5t11.5 -28.5l-177 -830q-4 -20 -22.5 -27.5t-58.5 -7.5q-36 0 -52 6z" />
    <glyph glyph-name="braceright" unicode="}" horiz-adv-x="387" 
d="M-43 -138.5q-27 11.5 -27 31.5q0 21 15 26.5t55 5.5q29 0 41 21t22 68q7 35 17 104q5 36 10 64q12 56 35.5 80t74.5 35q5 1 5.5 4.5t-3.5 4.5q-36 9 -51.5 25t-15.5 46q0 19 6 46q2 12 18 66q3 11 11.5 41t15.5 61q8 42 8 54q0 17 -7.5 26t-25.5 9q-37 0 -49.5 4t-9.5 21
q12 49 130 49q87 0 122.5 -26t35.5 -76q0 -22 -7 -57q-14 -65 -30 -120q-14 -48 -20 -77q-4 -15 -4 -26q0 -13 7.5 -19.5t27.5 -14.5q18 -9 24.5 -17t4.5 -19q-3 -11 -12.5 -18.5t-31.5 -16.5q-31 -11 -41 -21t-17 -39q-6 -28 -11 -73q-11 -80 -21 -125q-11 -52 -32.5 -86
t-66 -53.5t-120.5 -19.5q-56 0 -83 11.5z" />
    <glyph glyph-name="asciitilde" unicode="~" horiz-adv-x="441" 
d="M13.5 184q-7.5 7 -7.5 19q0 3 2 13q45 151 175 151q23 0 41.5 -8.5t45.5 -32.5q20 -16 29.5 -21t19.5 -5q22 0 35 8.5t24 29.5q8 15 17 21.5t23 6.5q27 0 27 -23q0 -8 -3 -17q-22 -77 -63 -114t-104 -37q-30 0 -52 9.5t-49 34.5q-14 14 -23 19t-19 5q-21 0 -35 -9.5
t-25 -30.5q-6 -14 -14.5 -20t-22.5 -6t-21.5 7z" />
    <glyph glyph-name="uni00A0" unicode="&#xa0;" horiz-adv-x="326" 
 />
    <glyph glyph-name="exclamdown" unicode="&#xa1;" horiz-adv-x="325" 
d="M286 491.5q26 -21.5 26 -56.5q0 -14 -2 -22q-10 -47 -48 -76.5t-89 -29.5q-42 0 -67 22.5t-25 59.5q0 53 39.5 88.5t95.5 35.5q44 0 70 -21.5zM193 261.5q9 -10.5 15 -29.5q9 -36 15.5 -93t6.5 -106q0 -42 -6 -69q-12 -58 -51.5 -91t-96.5 -33q-49 0 -75 23.5t-26 66.5
q0 18 4 35q12 52 52.5 131t78.5 136q14 20 27 30t31 10q16 0 25 -10.5z" />
    <glyph glyph-name="cent" unicode="&#xa2;" horiz-adv-x="544" 
d="M367 512q76 -5 127 -41t51 -89q0 -12 -3 -24q-6 -28 -28 -47.5t-54 -19.5q-36 0 -51.5 16.5t-28.5 52.5q-10 38 -32 48l-49 -266q21 -7 41 -7q27 0 55 11.5t50 29.5q21 15 36 15q14 0 22.5 -9t8.5 -24q0 -9 -3 -20q-11 -34 -43 -66.5t-82.5 -55t-112.5 -27.5l-11 -60
q-1 -8 -8 -12t-16 -4q-8 0 -13.5 4t-4.5 12l11 59q-101 3 -160.5 57.5t-59.5 142.5q0 23 7 60q16 74 63.5 133t113 93.5t132.5 38.5l16 86q1 7 8.5 10.5t15.5 3.5q9 0 14 -3.5t4 -10.5zM245 249q0 -47 18 -76l42 232q-18 -10 -31.5 -32.5t-20.5 -53.5q-8 -40 -8 -70z" />
    <glyph glyph-name="sterling" unicode="&#xa3;" horiz-adv-x="599" 
d="M528.5 692q46.5 -20 70.5 -53.5t24 -71.5q0 -35 -16 -60.5t-41 -38.5t-52 -13q-32 0 -52.5 16t-20.5 45q0 6 2 18q3 12 3 25q0 46 -46 46q-26 0 -47.5 -21.5t-27.5 -50.5q-3 -13 -3 -26q0 -19 5 -35.5t15 -43.5q2 -5 9 -24.5t10 -38.5h52q21 0 33 -4t10 -16
q-5 -23 -27 -39t-56 -16h-14q-5 -25 -27 -57.5t-45 -57.5q-7 -8 -7 -16q0 -5 3.5 -9t9.5 -5t41 -6t63 -5q45 0 73.5 14t52.5 51q2 3 8 13t13 14t17 4q13 0 18.5 -5t5.5 -15q0 -4 -2 -14q-11 -52 -40.5 -99.5t-76 -77.5t-104.5 -30q-44 0 -81 15.5t-72 46.5q-9 9 -16 9
t-14 -7q-33 -28 -58 -42t-57 -14q-34 0 -57 23.5t-23 58.5q0 14 2 21q9 44 34 66.5t61 22.5q20 0 32 -2q13 -2 21 2t16 15q21 37 32 86h-52q-22 0 -34 4.5t-9 16.5q5 22 27 38t55 16h7l-7 30q-17 57 -17 95q0 20 4 36q12 54 49.5 96.5t93 66t120.5 23.5q63 0 109.5 -20z" />
    <glyph glyph-name="currency" unicode="&#xa4;" horiz-adv-x="518" 
d="M20 123q-20 20 -20 43q0 24 22 43l21 18q17 15 21 25.5t2 28.5q-1 6 -1 16q0 20 5 42q5 25 25 65q11 19 11 27q0 7 -11 23l-17 21q-9 10 -9 23q0 7 1 10q5 22 38 49t55 27q15 0 28 -14l20 -24q12 -15 25 -15q3 0 15 2q43 12 78 12q38 0 66 -10q9 -3 15 -3q7 0 13 3.5
t17 13.5l23 20q16 16 34 16q21 0 41.5 -23t20.5 -46q0 -9 -5 -18t-17 -21l-24 -21q-14 -14 -18 -23t-3 -27q1 -8 1 -21q0 -19 -4 -35q-5 -28 -25 -66q-11 -20 -11 -29q0 -8 11 -22l16 -21q9 -10 9 -22q0 -6 -1 -10q-3 -14 -19.5 -32t-37 -30.5t-35.5 -12.5q-17 0 -28 14
l-20 24q-10 13 -25 13q-9 0 -15 -2q-43 -12 -77 -12q-38 0 -66 9q-7 3 -15 3q-12 0 -28 -13l-26 -22q-17 -16 -33 -16q-23 0 -43 20zM325 287.5q27 22.5 34 58.5q2 7 2 20q0 26 -16.5 41.5t-46.5 15.5q-35 0 -61.5 -22t-35.5 -60q-2 -12 -2 -18q0 -27 16.5 -42.5t46.5 -15.5
q36 0 63 22.5z" />
    <glyph glyph-name="yen" unicode="&#xa5;" horiz-adv-x="717" 
d="M785 693q16 -7 16 -24q0 -21 -12.5 -33.5t-27 -20.5t-19.5 -11q-15 -9 -27.5 -22t-35.5 -41l-150 -193q-3 -3 -4.5 -6t-3.5 -5h38q18 0 27.5 -4t7.5 -16q-6 -22 -24 -37.5t-44 -15.5h-40q-8 -20 -12 -37h62q39 0 34 -20q-5 -22 -23 -37.5t-44 -15.5h-42q-1 -19 3.5 -31.5
t16.5 -25.5q9 -9 14 -17t5 -19q0 -8 -1 -12q-6 -25 -24 -37.5t-58 -12.5l-206 1q-36 0 -51 7.5t-15 26.5q0 22 11 36.5t29 26.5q18 13 27.5 25.5t16.5 31.5h-75q-40 0 -35 20q5 22 23 37.5t44 15.5h60q3 15 1 37h-70q-18 0 -27.5 4t-7.5 16q5 22 23 37.5t44 15.5h22l-61 190
q-7 19 -17 31t-18.5 19t-11.5 9q-5 4 -15 12.5t-15 16.5t-5 19q0 7 1 12q7 33 32.5 43.5t76.5 10.5h213q79 0 79 -35q0 -20 -9.5 -32t-29.5 -28q-13 -11 -18.5 -20.5t-5.5 -22.5t4 -26l24 -73q6 -17 17 -17q12 0 23 17l69 100q9 14 9 27q0 14 -15 31q-7 10 -9 18t0 18
q6 24 26.5 33.5t54.5 9.5h107q32 0 48 -7z" />
    <glyph glyph-name="brokenbar" unicode="&#xa6;" horiz-adv-x="180" 
d="M50 331q-15 8 -12 28l73 341q5 20 23.5 28.5t58.5 8.5q35 0 51 -6.5t16 -21.5q0 -6 -1 -9l-73 -341q-3 -19 -21.5 -27.5t-59.5 -8.5q-40 0 -55 8zM-48.5 -152q-15.5 6 -15.5 20q0 6 1 9l72 342q5 20 23.5 29t59.5 9q34 0 50 -7t16 -22q0 -6 -1 -9l-72 -342
q-4 -19 -23 -27t-59 -8q-36 0 -51.5 6z" />
    <glyph glyph-name="section" unicode="&#xa7;" horiz-adv-x="544" 
d="M170 -101q-19 5 -38 14q-22 9 -33 9q-10 0 -16 -3t-14 -8q-15 -13 -36 -13q-14 0 -21.5 6.5t-11.5 29.5q-7 87 -6 136q1 22 18.5 36.5t34.5 14.5q25 0 37.5 -12.5t23.5 -49.5q15 -42 41 -61.5t59 -19.5q30 0 50 12.5t25 37.5q1 3 1 8q0 35 -72 64l-30 12q-58 23 -91 39.5
t-55 42t-22 61.5q0 13 3 28q9 40 33 67.5t60 54.5q5 4 10 7.5t9 7.5q-40 40 -40 90q0 18 4 34q10 48 46.5 86.5t90.5 60t114 21.5q27 0 44.5 -5t39.5 -14q20 -10 33 -10q10 0 16 3t14 8q15 13 36 13q14 0 22 -6t11 -29q9 -82 6 -137q-1 -21 -19 -35t-34 -14q-25 0 -37 12
t-25 48q-13 42 -39.5 61.5t-59.5 19.5q-28 0 -48.5 -13t-26.5 -36q-1 -3 -1 -10q0 -21 16.5 -33t56.5 -29q9 -4 46 -19q52 -21 82 -37t50 -40t20 -59q0 -48 -26 -81.5t-69 -68.5q-16 -12 -22 -18q20 -17 32 -35.5t12 -49.5q0 -18 -4 -37q-11 -49 -48 -87t-91 -59t-114 -21
q-28 0 -47 5zM370 246.5q10 13.5 12 26.5q1 4 1 10q0 17 -12 27.5t-32 19.5l-116 52q-10 -3 -20.5 -18.5t-13.5 -29.5q-1 -5 -1 -12q0 -26 30 -38q43 -19 129 -59q13 8 23 21.5z" />
    <glyph glyph-name="dieresis" unicode="&#xa8;" horiz-adv-x="506" 
d="M106.5 578q-18.5 15 -13.5 41q6 28 34 46.5t63 26.5t62 8q26 0 44 -10t18 -32q0 -6 -1 -10q-6 -29 -34.5 -48t-64 -28t-63.5 -9q-26 0 -44.5 15zM372.5 575q-17.5 12 -17.5 33q0 7 1 11q6 28 34 46.5t63 26.5t62 8q26 0 44 -10t18 -32q0 -6 -1 -10q-6 -29 -35 -48
t-64 -28t-63 -9q-24 0 -41.5 12z" />
    <glyph glyph-name="copyright" unicode="&#xa9;" horiz-adv-x="808" 
d="M191 22q-67 34 -103 96.5t-36 144.5q0 36 10 86q22 105 86 187.5t156.5 129t198.5 46.5q90 0 157 -34t103 -96.5t36 -145.5q0 -37 -10 -87q-22 -105 -85.5 -187t-156 -128t-198.5 -46q-91 0 -158 34zM527.5 84.5q77.5 38.5 130.5 107.5t72 157q8 35 8 74q0 69 -30 121.5
t-86 81t-132 28.5q-88 0 -166 -39t-131.5 -108.5t-72.5 -157.5q-8 -40 -8 -73q0 -69 30 -121t86.5 -80.5t132.5 -28.5q89 0 166.5 38.5zM262 184.5q-48 43.5 -48 115.5q0 27 5 48q13 59 53 107.5t95 75.5t109 27q62 0 101 -28t39 -75q0 -12 -3 -24q-7 -27 -29 -46.5
t-55 -19.5q-51 0 -51 62q0 13 1 20q2 16 2 22q0 31 -19 31q-16 0 -29.5 -18.5t-22.5 -58.5q-8 -42 -8 -70q0 -39 16 -59.5t53 -20.5q32 0 57 13t38 26q9 6 17 6q20 0 20 -17q0 -8 -3 -17q-12 -32 -39 -64.5t-71 -55.5t-101 -23q-79 0 -127 43.5z" />
    <glyph glyph-name="guillemotleft" unicode="&#xab;" horiz-adv-x="520" 
d="M120.5 31.5q-12.5 6.5 -25.5 24.5t-36 60q-29 52 -40.5 83t-8.5 41q4 19 27.5 51t77.5 86q39 40 62 59.5t38 25.5t33 6q15 0 31.5 -13t12.5 -26q-4 -16 -17 -35t-56 -73q-32 -39 -42 -57t-10 -30q0 -5 4.5 -18.5t6.5 -20.5l9 -24q20 -52 25 -71t3 -35q-3 -15 -25.5 -27.5
t-37.5 -12.5q-19 0 -31.5 6.5zM345.5 31.5q-12.5 6.5 -25.5 24.5t-36 60q-29 52 -40.5 83t-8.5 41q4 19 27.5 51t77.5 86q39 40 62 59.5t38 25.5t33 6q15 0 31.5 -13t12.5 -26q-4 -16 -17 -35t-56 -73q-32 -39 -42 -57t-10 -30q0 -5 4.5 -18.5t6.5 -20.5l9 -24
q20 -52 25 -71t3 -35q-3 -15 -25.5 -27.5t-37.5 -12.5q-19 0 -31.5 6.5z" />
    <glyph glyph-name="logicalnot" unicode="&#xac;" horiz-adv-x="486" 
d="M308 138q2 42 12 95l1 5q0 8 -10 8l-105 -1q-18 -1 -47 -1q-14 0 -60 2q-32 2 -46.5 11.5t-14.5 31.5q0 31 16.5 55t42.5 27q73 11 193 11q100 0 145 -8q38 -7 34 -54q-11 -83 -15 -101q-2 -9 -8.5 -37t-15.5 -48q-20 -43 -72 -43q-50 0 -50 47z" />
    <glyph glyph-name="uni00AD" unicode="&#xad;" horiz-adv-x="317" 
d="M41 191q-32 0 -32 23q0 6 1 10q8 38 28 64t46 26h193q32 0 32 -23q0 -6 -1 -10q-8 -38 -28.5 -64t-46.5 -26h-192z" />
    <glyph glyph-name="registered" unicode="&#xae;" horiz-adv-x="571" 
d="M544 656.5q59 -55.5 59 -148.5q0 -35 -7 -67q-17 -78 -64 -139t-115.5 -95.5t-146.5 -34.5q-68 0 -118 25.5t-77 71.5t-27 106q0 29 8 66q16 79 63.5 141t116.5 96t148 34q101 0 160 -55.5zM539 490q0 72 -45 115.5t-123 43.5q-60 0 -113.5 -26.5t-90 -74t-49.5 -107.5
q-5 -28 -5 -48q0 -71 45.5 -114.5t123.5 -43.5q61 0 113.5 26.5t89 73.5t49.5 106q5 21 5 49zM454.5 575.5q33.5 -18.5 33.5 -50.5q0 -29 -20.5 -50t-53.5 -34q24 -13 33 -47q1 -7 3.5 -15t3.5 -14q3 -10 9.5 -15t6.5 -11q0 -16 -15 -20.5t-41 -4.5q-44 0 -60 5t-16 21
q0 9 7 33q3 12 3 22q0 14 -5.5 21.5t-13.5 7.5h-2q-8 0 -12 -4.5t-6 -14.5l-2 -7q-1 -5 -1 -13q0 -14 7 -27q1 -2 6.5 -8.5t3.5 -13.5q-2 -11 -10 -15t-26 -4h-91q-16 0 -22.5 3t-6.5 11q0 10 9.5 18t10.5 9q18 18 24 49l21 97q3 14 3 23q0 11 -7 25q-1 2 -6 9t-2 15
q1 10 9.5 14t25.5 4h44h61q61 0 94.5 -18.5zM328 492q-2 -8 -2 -12q0 -14 12 -14h4q23 0 30 31q3 12 3 27q0 28 -15 28h-3q-6 0 -12.5 -5t-8.5 -16z" />
    <glyph glyph-name="macron" unicode="&#xaf;" horiz-adv-x="347" 
d="M94.5 566q-8.5 3 -8.5 12q0 11 12 33q15 29 25 38.5t29 9.5q100 -1 244 -1q19 0 19 -14q0 -10 -11 -32q-14 -31 -24 -40.5t-31 -9.5l-226 1q-20 0 -28.5 3z" />
    <glyph glyph-name="degree" unicode="&#xb0;" horiz-adv-x="349" 
d="M110 426.5q-35 33.5 -35 88.5q0 21 4 38q15 70 69.5 114t125.5 44q60 0 94 -33t34 -88q0 -20 -4 -39q-15 -69 -69 -113.5t-124 -44.5q-60 0 -95 33.5zM285.5 493q27.5 23 35.5 60q2 7 2 20q0 28 -18 45t-49 17q-36 0 -64.5 -23.5t-36.5 -60.5q-2 -7 -2 -20
q0 -28 18.5 -44.5t50.5 -16.5q36 0 63.5 23z" />
    <glyph glyph-name="plusminus" unicode="&#xb1;" horiz-adv-x="480" 
d="M420 359q45 0 45 -45q0 -12 -3 -23q-7 -32 -24.5 -43t-42.5 -11h-84q-12 0 -15 -14l-17 -76h104q59 0 52 -34q-7 -38 -36 -63.5t-70 -25.5h-301q-28 0 -43 7t-11 25q9 38 37.5 64.5t68.5 26.5h77l2 10l13 62v5q0 13 -17 13h-75q-23 0 -35.5 7t-12.5 27q0 5 2 17
q9 37 29 54t59 17h58q21 0 26 18l16 78q7 31 31 43.5t51 12.5q24 0 33.5 -9t9.5 -25q0 -7 -2 -21l-18 -81q0 -1 -0.5 -2t0.5 -3q0 -11 12 -11h81z" />
    <glyph glyph-name="acute" unicode="&#xb4;" horiz-adv-x="250" 
d="M81 555q0 14 16.5 45.5t43.5 75.5q16 27 39.5 34t71.5 7q45 0 61 -8t13 -28q-4 -23 -47 -57.5t-95 -61.5t-75 -27q-28 0 -28 20z" />
    <glyph glyph-name="uni00B5" unicode="&#xb5;" horiz-adv-x="680" 
d="M654.5 500.5q10.5 -6.5 10.5 -22.5q0 -3 -2 -15l-11 -54l-46 -217v-6q-3 -15 -3 -27q0 -23 16 -35l15 -9t14 -12.5t2 -16.5q-4 -17 -18.5 -25.5t-47.5 -21.5q-124 -45 -181 -45q-25 0 -35.5 6t-10.5 23q0 3 2 15l7 32l-2 -2q4 20 -1 20q-3 0 -6 -5t-6 -13
q-14 -34 -36 -57.5t-66 -23.5q-23 0 -39 11.5t-16 25.5q-1 5 -4 6t-5 -4q-2 -14 -2 -22q0 -9 5 -46q5 -27 5 -46q0 -14 -2 -21q-6 -32 -32.5 -48.5t-82.5 -16.5q-47 0 -65.5 12.5t-18.5 36.5q0 8 4 30l86 401v7q3 15 3 27q0 23 -16 34q-6 5 -14.5 10t-13 9.5t-4.5 12.5
q0 20 15.5 30t51.5 24q124 45 181 45q24 0 34.5 -6.5t10.5 -21.5q0 -4 -2 -16l-10 -54l-42 -200q-6 -30 -6 -47q0 -20 8 -28t25 -8q30 0 59 34.5t41 90.5l1 -2l13 59l-1 7q3 15 3 28q0 22 -15 33q-6 4 -16 9.5t-14 12t-2 17.5q4 17 19 26t48 21q122 45 180 45
q25 0 35.5 -6.5z" />
    <glyph glyph-name="paragraph" unicode="&#xb6;" horiz-adv-x="837" 
d="M146.5 -117.5q-11.5 9.5 -11.5 25.5q0 8 1 12q4 17 13 28.5t29 22.5q19 11 31 23q13 16 19 37l48 220q1 3 1 9q0 8 -4.5 11t-14.5 3q-108 0 -159 36.5t-51 114.5q0 29 8 69q22 100 89 157t163 57q83 0 138 -3q70 -2 121 -2l271 1q36 0 53 -15t12 -41q-5 -17 -13.5 -28.5
t-27.5 -21.5q-16 -9 -32 -23q-13 -15 -18 -37l-108 -505q-2 -8 -2 -20t4 -19q3 -6 10.5 -12.5t10.5 -8.5q22 -16 22 -34q0 -28 -18.5 -46.5t-53.5 -23.5q-31 -4 -102 -7t-150 -3q-200 0 -242 9q-25 5 -36.5 14.5zM537.5 3.5q14.5 15.5 24.5 59.5l95 441q5 28 5 40
q0 20 -9.5 27.5t-33.5 7.5t-37 -5.5t-21 -21t-15 -48.5l-93 -441q-6 -27 -6 -43q0 -19 9.5 -25.5t34.5 -6.5q32 0 46.5 15.5z" />
    <glyph glyph-name="periodcentered" unicode="&#xb7;" horiz-adv-x="308" 
d="M56.5 158.5q-22.5 19.5 -22.5 52.5q0 17 6 36q15 51 55.5 83t89.5 32q40 0 63.5 -21t23.5 -57q0 -17 -6 -37q-14 -48 -55.5 -78t-92.5 -30q-39 0 -61.5 19.5z" />
    <glyph glyph-name="cedilla" unicode="&#xb8;" horiz-adv-x="220" 
d="M-46 -168.5q-20 13.5 -20 30.5q0 20 21 18q21 -4 36 -4q18 0 30.5 10t12.5 24q0 22 -28 22q-22 0 -22 12q0 15 36 60l76 -3l-26 -41q59 -4 59 -51q0 -13 -2 -20q-6 -29 -36 -50t-79 -21q-38 0 -58 13.5z" />
    <glyph glyph-name="guillemotright" unicode="&#xbb;" horiz-adv-x="520" 
d="M14 37.5q-16 12.5 -13 27.5q4 15 17 34t55 72q25 30 36.5 46t13.5 24q1 3 1 9q0 19 -19 71q-20 55 -24.5 73.5t-2.5 34.5q2 13 24 26t38 13q17 0 29.5 -6t27 -25.5t36.5 -59.5q30 -54 40.5 -86t7.5 -51q-3 -10 -27.5 -41.5t-75.5 -82.5q-41 -41 -62 -59.5t-36.5 -25
t-34.5 -6.5q-15 0 -31 12.5zM239 37.5q-16 12.5 -13 27.5q4 15 17 34t56 72q29 37 38 49.5t11 20.5q1 3 1 10q0 23 -19 70q-19 53 -24 72.5t-3 35.5q3 14 25 26.5t38 12.5q17 0 29 -6t26.5 -25.5t37.5 -59.5q48 -85 48 -125q0 -8 -1 -12q-3 -10 -27.5 -41.5t-75.5 -82.5
q-40 -41 -61.5 -59.5t-36.5 -25t-35 -6.5q-15 0 -31 12.5z" />
    <glyph glyph-name="questiondown" unicode="&#xbf;" horiz-adv-x="529" 
d="M398.5 493.5q24.5 -21.5 24.5 -57.5q0 -14 -2 -22q-9 -47 -46 -76t-87 -29q-44 0 -70 22t-26 59q0 54 40.5 89.5t98.5 35.5q43 0 67.5 -21.5zM320 247q0 -3 -2 -13q-8 -37 -28 -64.5t-55 -62.5q-25 -25 -39 -43.5t-19 -38.5q-5 -27 -5 -39q0 -43 35 -43q19 0 34 15t19 38
q10 48 42.5 73.5t74.5 25.5q34 0 56.5 -18.5t22.5 -50.5q0 -5 -2 -19q-9 -43 -46 -80.5t-96 -60t-131 -22.5q-96 0 -155 33.5t-59 95.5q0 14 3 29q11 47 45.5 79t99.5 73q40 25 63.5 42t42.5 37q4 3 16.5 15.5t24.5 19t24 6.5q34 0 34 -27z" />
    <glyph glyph-name="Agrave" unicode="&#xc0;" horiz-adv-x="788" 
d="M-29 9.5q-11 10.5 -11 26.5q0 5 2 13q5 28 49 53q24 11 41 28t32 46q74 137 210 357q24 38 24 63q0 9 -2 13q-7 18 -7 33q0 5 2 17q3 17 21.5 31t53.5 14h100q51 0 78.5 -14.5t39 -38.5t19.5 -65q46 -243 68 -415q4 -27 11 -41t22 -24q10 -10 14.5 -17.5t4.5 -20.5
q0 -38 -24.5 -53t-54.5 -15h-211q-85 0 -85 40q0 29 30 53q21 14 29.5 24t7.5 30l-2 14q-1 16 -12.5 24t-30.5 8h-147q-20 0 -31 -5t-21 -20l-6 -12q-11 -22 -11 -34q0 -15 16 -25q11 -8 16.5 -15.5t5.5 -20.5q0 -8 -1 -12q-5 -25 -24 -37.5t-45 -12.5h-135q-25 0 -36 10.5z
M390 285q16 0 25 8.5t8 22.5q-9 92 -20 160q-3 18 -18 18q-14 0 -25 -18q-51 -89 -92 -164q-4 -7 -4 -13q0 -14 26 -14h100zM476 748q-46 22 -79.5 51t-28.5 52q5 20 24 28.5t64 8.5q49 0 73.5 -7.5t30.5 -33.5q2 -8 8 -24q5 -17 9.5 -34t4.5 -29q0 -34 -36 -34
q-24 0 -70 22z" />
    <glyph glyph-name="Aacute" unicode="&#xc1;" horiz-adv-x="788" 
d="M-29 9.5q-11 10.5 -11 26.5q0 5 2 13q5 28 49 53q24 11 41 28t32 46q74 137 210 357q24 38 24 63q0 9 -2 13q-7 18 -7 33q0 5 2 17q3 17 21.5 31t53.5 14h100q51 0 78.5 -14.5t39 -38.5t19.5 -65q46 -243 68 -415q4 -27 11 -41t22 -24q10 -10 14.5 -17.5t4.5 -20.5
q0 -38 -24.5 -53t-54.5 -15h-211q-85 0 -85 40q0 29 30 53q21 14 29.5 24t7.5 30l-2 14q-1 16 -12.5 24t-30.5 8h-147q-20 0 -31 -5t-21 -20l-6 -12q-11 -22 -11 -34q0 -15 16 -25q11 -8 16.5 -15.5t5.5 -20.5q0 -8 -1 -12q-5 -25 -24 -37.5t-45 -12.5h-135q-25 0 -36 10.5z
M390 285q16 0 25 8.5t8 22.5q-9 92 -20 160q-3 18 -18 18q-14 0 -25 -18q-51 -89 -92 -164q-4 -7 -4 -13q0 -14 26 -14h100zM347 743q0 13 9.5 28.5t29.5 42.5l24 33q18 26 46 33.5t77 7.5q45 0 60 -8.5t11 -27.5q-4 -23 -49.5 -52.5t-101 -51.5t-79.5 -22q-27 0 -27 17z
" />
    <glyph glyph-name="Acircumflex" unicode="&#xc2;" horiz-adv-x="788" 
d="M-29 9.5q-11 10.5 -11 26.5q0 5 2 13q5 28 49 53q24 11 41 28t32 46q74 137 210 357q24 38 24 63q0 9 -2 13q-7 18 -7 33q0 5 2 17q3 17 21.5 31t53.5 14h100q51 0 78.5 -14.5t39 -38.5t19.5 -65q46 -243 68 -415q4 -27 11 -41t22 -24q10 -10 14.5 -17.5t4.5 -20.5
q0 -38 -24.5 -53t-54.5 -15h-211q-85 0 -85 40q0 29 30 53q21 14 29.5 24t7.5 30l-2 14q-1 16 -12.5 24t-30.5 8h-147q-20 0 -31 -5t-21 -20l-6 -12q-11 -22 -11 -34q0 -15 16 -25q11 -8 16.5 -15.5t5.5 -20.5q0 -8 -1 -12q-5 -25 -24 -37.5t-45 -12.5h-135q-25 0 -36 10.5z
M390 285q16 0 25 8.5t8 22.5q-9 92 -20 160q-3 18 -18 18q-14 0 -25 -18q-51 -89 -92 -164q-4 -7 -4 -13q0 -14 26 -14h100zM295 734.5q-7 7.5 -7 16.5q0 39 146 129q40 23 64 23q15 0 27.5 -5.5t27.5 -17.5q43 -36 70 -69t22 -56q-2 -9 -12.5 -18.5t-20.5 -9.5
q-12 0 -23.5 4.5t-32.5 16.5q-65 36 -84 36q-16 0 -98 -36q-43 -21 -63 -21q-9 0 -16 7.5z" />
    <glyph glyph-name="Atilde" unicode="&#xc3;" horiz-adv-x="788" 
d="M-29 9.5q-11 10.5 -11 26.5q0 5 2 13q5 28 49 53q24 11 41 28t32 46q74 137 210 357q24 38 24 63q0 9 -2 13q-7 18 -7 33q0 5 2 17q3 17 21.5 31t53.5 14h100q51 0 78.5 -14.5t39 -38.5t19.5 -65q46 -243 68 -415q4 -27 11 -41t22 -24q10 -10 14.5 -17.5t4.5 -20.5
q0 -38 -24.5 -53t-54.5 -15h-211q-85 0 -85 40q0 29 30 53q21 14 29.5 24t7.5 30l-2 14q-1 16 -12.5 24t-30.5 8h-147q-20 0 -31 -5t-21 -20l-6 -12q-11 -22 -11 -34q0 -15 16 -25q11 -8 16.5 -15.5t5.5 -20.5q0 -8 -1 -12q-5 -25 -24 -37.5t-45 -12.5h-135q-25 0 -36 10.5z
M390 285q16 0 25 8.5t8 22.5q-9 92 -20 160q-3 18 -18 18q-14 0 -25 -18q-51 -89 -92 -164q-4 -7 -4 -13q0 -14 26 -14h100zM493 746.5q-21 7.5 -51 22.5q-17 8 -33.5 14.5t-27.5 6.5q-8 0 -12 -3.5t-11 -12.5q-29 -35 -58 -35q-19 0 -28.5 10.5t-9.5 29.5q0 34 18.5 59
t46 38t55.5 13q25 0 48.5 -8t51.5 -23q38 -20 57 -20q6 0 11 3.5t11 12.5q17 20 29 27.5t27 7.5q19 0 30 -11t11 -29q0 -34 -19 -59t-47 -38t-57 -13q-21 0 -42 7.5z" />
    <glyph glyph-name="Adieresis" unicode="&#xc4;" horiz-adv-x="788" 
d="M-29 9.5q-11 10.5 -11 26.5q0 5 2 13q5 28 49 53q24 11 41 28t32 46q74 137 210 357q24 38 24 63q0 9 -2 13q-7 18 -7 33q0 5 2 17q3 17 21.5 31t53.5 14h100q51 0 78.5 -14.5t39 -38.5t19.5 -65q46 -243 68 -415q4 -27 11 -41t22 -24q10 -10 14.5 -17.5t4.5 -20.5
q0 -38 -24.5 -53t-54.5 -15h-211q-85 0 -85 40q0 29 30 53q21 14 29.5 24t7.5 30l-2 14q-1 16 -12.5 24t-30.5 8h-147q-20 0 -31 -5t-21 -20l-6 -12q-11 -22 -11 -34q0 -15 16 -25q11 -8 16.5 -15.5t5.5 -20.5q0 -8 -1 -12q-5 -25 -24 -37.5t-45 -12.5h-135q-25 0 -36 10.5z
M390 285q16 0 25 8.5t8 22.5q-9 92 -20 160q-3 18 -18 18q-14 0 -25 -18q-51 -89 -92 -164q-4 -7 -4 -13q0 -14 26 -14h100zM239.5 748q-18.5 15 -13.5 41q6 28 34 46.5t63 26.5t62 8q26 0 44 -10t18 -32q0 -6 -1 -10q-6 -29 -34.5 -48t-64 -28t-63.5 -9q-26 0 -44.5 15z
M505.5 745q-17.5 12 -17.5 33q0 7 1 11q6 28 34 46.5t63 26.5t62 8q26 0 44 -10t18 -32q0 -6 -1 -10q-6 -29 -35 -48t-64 -28t-63 -9q-24 0 -41.5 12z" />
    <glyph glyph-name="Aring" unicode="&#xc5;" horiz-adv-x="788" 
d="M-29 9.5q-11 10.5 -11 26.5q0 5 2 13q5 28 49 53q24 11 41 28t32 46q74 137 210 357q24 38 24 63q0 9 -2 13q-7 18 -7 33q0 5 2 17q3 17 21.5 31t53.5 14h100q51 0 78.5 -14.5t39 -38.5t19.5 -65q46 -243 68 -415q4 -27 11 -41t22 -24q10 -10 14.5 -17.5t4.5 -20.5
q0 -38 -24.5 -53t-54.5 -15h-211q-85 0 -85 40q0 29 30 53q21 14 29.5 24t7.5 30l-2 14q-1 16 -12.5 24t-30.5 8h-147q-20 0 -31 -5t-21 -20l-6 -12q-11 -22 -11 -34q0 -15 16 -25q11 -8 16.5 -15.5t5.5 -20.5q0 -8 -1 -12q-5 -25 -24 -37.5t-45 -12.5h-135q-25 0 -36 10.5z
M390 285q16 0 25 8.5t8 22.5q-9 92 -20 160q-3 18 -18 18q-14 0 -25 -18q-51 -89 -92 -164q-4 -7 -4 -13q0 -14 26 -14h100zM403 744.5q-28 15.5 -28 45.5q0 4 2 16q10 37 46.5 56.5t82.5 19.5q41 0 70 -17t29 -47q0 -4 -2 -16q-9 -36 -47 -54.5t-83 -18.5q-42 0 -70 15.5z
M502.5 782q7.5 7 9.5 17t2 14q0 23 -18 23q-23 0 -29 -28q-1 -3 -1 -10q0 -10 5 -16.5t14 -6.5q10 0 17.5 7z" />
    <glyph glyph-name="AE" unicode="&#xc6;" horiz-adv-x="1059" 
d="M853 -12q-34 12 -80 12h-340q-35 0 -50.5 8t-15.5 27q0 22 10.5 36t28.5 26q21 16 29 27t11 23l2 7q5 24 -27 24h-142q-20 0 -32 -3.5t-20 -14.5l-20 -26q-15 -20 -15 -33q0 -18 25 -26q16 -8 24 -15.5t5 -22.5q-6 -27 -31.5 -35t-72.5 -8h-106q-45 0 -61.5 9t-16.5 25
q0 6 1 9q4 21 20.5 31.5t49.5 19.5q23 7 38.5 20.5t51.5 62.5l303 400q9 12 12.5 24t5.5 29q2 16 4 24q7 24 39.5 41.5t93.5 17.5q73 0 123 -5q20 -2 28 -2h172q50 0 94 12q26 7 45 7q26 0 37.5 -20.5t15.5 -80.5q2 -17 2 -46q0 -117 -69 -117q-24 0 -36.5 12.5t-20.5 34.5
q-12 40 -20.5 57.5t-25 26t-48.5 8.5h-60q-22 0 -32.5 -8t-16.5 -36l-24 -116q-1 -3 -1 -7q0 -11 14 -11h23q16 0 23.5 7.5t11.5 28.5q8 27 20 39t36 12q20 0 29.5 -10.5t12.5 -36.5t3 -82q0 -50 -5 -77t-18.5 -39t-38.5 -12q-23 0 -33.5 10.5t-11.5 32.5q-2 16 -7.5 22
t-24.5 6h-26q-16 0 -26.5 -11t-13.5 -27l-28 -131q-2 -14 -2 -18q0 -13 8.5 -18.5t28.5 -5.5h77q41 0 69.5 23.5t54.5 66.5q36 49 78 49q39 0 39 -40q0 -41 -41 -123q-30 -60 -50.5 -80.5t-46.5 -20.5q-17 0 -42 7zM446 274q33 -1 40 36l40 188q3 14 3 23q0 20 -10 20
t-25 -21l-165 -221q-4 -5 -4 -11t5.5 -9.5t11.5 -3.5z" />
    <glyph glyph-name="Ccedilla" unicode="&#xc7;" horiz-adv-x="685" 
d="M348 549.5q-25 -35.5 -36 -86t-11 -96.5q0 -81 33.5 -129t103.5 -48q52 0 91.5 20t62.5 50q19 19 41 19q18 0 29 -13t9 -36q-6 -49 -50 -104.5t-119 -95t-169 -42.5l-18 -28q59 -4 59 -51q0 -13 -2 -20q-6 -29 -36 -50t-79 -21q-38 0 -58 13.5t-20 30.5q0 20 21 18
q21 -4 36 -4q18 0 30.5 10t12.5 24q0 22 -28 22q-12 0 -17 2.5t-5 9.5q0 14 28 49q-105 19 -166.5 94.5t-61.5 186.5q0 109 56 210t154.5 164.5t218.5 63.5q71 0 129.5 -21.5t92.5 -59.5t34 -86q0 -29 -15 -58.5t-44.5 -49t-70.5 -19.5q-38 0 -63.5 22t-41.5 82
q-8 31 -23.5 47t-43.5 16q-39 0 -64 -35.5z" />
    <glyph glyph-name="Egrave" unicode="&#xc8;" horiz-adv-x="667" 
d="M642 204q0 -40 -41 -122q-30 -60 -50.5 -80.5t-46.5 -20.5q-17 0 -42 7q-34 12 -80 12h-340q-35 0 -50.5 8t-15.5 27q0 22 10.5 36t28.5 26q25 18 36.5 39.5t22.5 77.5l59 272q9 47 9 68q0 17 -4.5 27.5t-15.5 21.5q-19 19 -19 38q0 6 1 10q6 27 25.5 38t60.5 11h319
q51 0 93 12q28 7 46 7q26 0 37.5 -20.5t15.5 -80.5q2 -17 2 -46q0 -117 -69 -117q-24 0 -37 12.5t-21 34.5q-11 40 -19.5 57.5t-25 26t-48.5 8.5h-61q-22 0 -32 -8t-16 -36l-24 -116q-1 -3 -1 -8q0 -10 14 -10h23q15 0 23 8t12 28q7 26 19 38.5t36 12.5q19 0 28.5 -9.5
t13 -33.5t4.5 -74q0 -56 -5 -85t-18 -42t-40 -13q-22 0 -32.5 10.5t-11.5 32.5q-2 16 -7.5 22t-24.5 6h-26q-16 0 -26.5 -11t-13.5 -27l-29 -131l-2 -16q0 -15 8.5 -20.5t28.5 -5.5h78q41 0 69 23t55 67q32 49 77 49q40 0 40 -41zM435 748q-46 22 -79.5 51t-28.5 52
q5 20 24 28.5t64 8.5q49 0 73.5 -7.5t30.5 -33.5q2 -8 8 -24q5 -17 9.5 -34t4.5 -29q0 -34 -36 -34q-24 0 -70 22z" />
    <glyph glyph-name="Eacute" unicode="&#xc9;" horiz-adv-x="667" 
d="M642 204q0 -40 -41 -122q-30 -60 -50.5 -80.5t-46.5 -20.5q-17 0 -42 7q-34 12 -80 12h-340q-35 0 -50.5 8t-15.5 27q0 22 10.5 36t28.5 26q25 18 36.5 39.5t22.5 77.5l59 272q9 47 9 68q0 17 -4.5 27.5t-15.5 21.5q-19 19 -19 38q0 6 1 10q6 27 25.5 38t60.5 11h319
q51 0 93 12q28 7 46 7q26 0 37.5 -20.5t15.5 -80.5q2 -17 2 -46q0 -117 -69 -117q-24 0 -37 12.5t-21 34.5q-11 40 -19.5 57.5t-25 26t-48.5 8.5h-61q-22 0 -32 -8t-16 -36l-24 -116q-1 -3 -1 -8q0 -10 14 -10h23q15 0 23 8t12 28q7 26 19 38.5t36 12.5q19 0 28.5 -9.5
t13 -33.5t4.5 -74q0 -56 -5 -85t-18 -42t-40 -13q-22 0 -32.5 10.5t-11.5 32.5q-2 16 -7.5 22t-24.5 6h-26q-16 0 -26.5 -11t-13.5 -27l-29 -131l-2 -16q0 -15 8.5 -20.5t28.5 -5.5h78q41 0 69 23t55 67q32 49 77 49q40 0 40 -41zM305 743q0 13 9.5 28.5t29.5 42.5l24 33
q18 26 46 33.5t77 7.5q45 0 60 -8.5t11 -27.5q-4 -23 -49.5 -52.5t-101 -51.5t-79.5 -22q-27 0 -27 17z" />
    <glyph glyph-name="Ecircumflex" unicode="&#xca;" horiz-adv-x="667" 
d="M642 204q0 -40 -41 -122q-30 -60 -50.5 -80.5t-46.5 -20.5q-17 0 -42 7q-34 12 -80 12h-340q-35 0 -50.5 8t-15.5 27q0 22 10.5 36t28.5 26q25 18 36.5 39.5t22.5 77.5l59 272q9 47 9 68q0 17 -4.5 27.5t-15.5 21.5q-19 19 -19 38q0 6 1 10q6 27 25.5 38t60.5 11h319
q51 0 93 12q28 7 46 7q26 0 37.5 -20.5t15.5 -80.5q2 -17 2 -46q0 -117 -69 -117q-24 0 -37 12.5t-21 34.5q-11 40 -19.5 57.5t-25 26t-48.5 8.5h-61q-22 0 -32 -8t-16 -36l-24 -116q-1 -3 -1 -8q0 -10 14 -10h23q15 0 23 8t12 28q7 26 19 38.5t36 12.5q19 0 28.5 -9.5
t13 -33.5t4.5 -74q0 -56 -5 -85t-18 -42t-40 -13q-22 0 -32.5 10.5t-11.5 32.5q-2 16 -7.5 22t-24.5 6h-26q-16 0 -26.5 -11t-13.5 -27l-29 -131l-2 -16q0 -15 8.5 -20.5t28.5 -5.5h78q41 0 69 23t55 67q32 49 77 49q40 0 40 -41zM253 734.5q-7 7.5 -7 16.5q0 39 146 129
q40 23 64 23q15 0 27.5 -5.5t27.5 -17.5q43 -36 70 -69t22 -56q-2 -9 -12.5 -18.5t-20.5 -9.5q-12 0 -23.5 4.5t-32.5 16.5q-65 36 -84 36q-16 0 -98 -36q-43 -21 -63 -21q-9 0 -16 7.5z" />
    <glyph glyph-name="Edieresis" unicode="&#xcb;" horiz-adv-x="667" 
d="M642 204q0 -40 -41 -122q-30 -60 -50.5 -80.5t-46.5 -20.5q-17 0 -42 7q-34 12 -80 12h-340q-35 0 -50.5 8t-15.5 27q0 22 10.5 36t28.5 26q25 18 36.5 39.5t22.5 77.5l59 272q9 47 9 68q0 17 -4.5 27.5t-15.5 21.5q-19 19 -19 38q0 6 1 10q6 27 25.5 38t60.5 11h319
q51 0 93 12q28 7 46 7q26 0 37.5 -20.5t15.5 -80.5q2 -17 2 -46q0 -117 -69 -117q-24 0 -37 12.5t-21 34.5q-11 40 -19.5 57.5t-25 26t-48.5 8.5h-61q-22 0 -32 -8t-16 -36l-24 -116q-1 -3 -1 -8q0 -10 14 -10h23q15 0 23 8t12 28q7 26 19 38.5t36 12.5q19 0 28.5 -9.5
t13 -33.5t4.5 -74q0 -56 -5 -85t-18 -42t-40 -13q-22 0 -32.5 10.5t-11.5 32.5q-2 16 -7.5 22t-24.5 6h-26q-16 0 -26.5 -11t-13.5 -27l-29 -131l-2 -16q0 -15 8.5 -20.5t28.5 -5.5h78q41 0 69 23t55 67q32 49 77 49q40 0 40 -41zM197.5 748q-18.5 15 -13.5 41q6 28 34 46.5
t63 26.5t62 8q26 0 44 -10t18 -32q0 -6 -1 -10q-6 -29 -34.5 -48t-64 -28t-63.5 -9q-26 0 -44.5 15zM463.5 745q-17.5 12 -17.5 33q0 7 1 11q6 28 34 46.5t63 26.5t62 8q26 0 44 -10t18 -32q0 -6 -1 -10q-6 -29 -35 -48t-64 -28t-63 -9q-24 0 -41.5 12z" />
    <glyph glyph-name="Igrave" unicode="&#xcc;" horiz-adv-x="393" 
d="M42 0q-36 0 -51 7.5t-15 26.5q0 22 10.5 36.5t28.5 26.5q25 18 36.5 39.5t22.5 77.5l59 272q9 47 9 68q0 17 -4.5 27.5t-15.5 21.5q-19 19 -19 38q0 6 1 10q6 27 25.5 38t60.5 11h90h23h90q36 0 51.5 -7.5t15.5 -26.5q0 -22 -11 -36.5t-29 -26.5q-25 -18 -36 -39.5
t-23 -77.5l-59 -272q-9 -46 -9 -68q0 -17 4.5 -27.5t15.5 -21.5q19 -19 19 -38q0 -6 -1 -10q-6 -27 -25.5 -38t-60.5 -11h-90h-23h-90zM315 748q-46 22 -79.5 51t-28.5 52q5 20 24 28.5t64 8.5q49 0 73.5 -7.5t30.5 -33.5q2 -8 8 -24q5 -17 9.5 -34t4.5 -29q0 -34 -36 -34
q-24 0 -70 22z" />
    <glyph glyph-name="Iacute" unicode="&#xcd;" horiz-adv-x="393" 
d="M42 0q-36 0 -51 7.5t-15 26.5q0 22 10.5 36.5t28.5 26.5q25 18 36.5 39.5t22.5 77.5l59 272q9 47 9 68q0 17 -4.5 27.5t-15.5 21.5q-19 19 -19 38q0 6 1 10q6 27 25.5 38t60.5 11h90h23h90q36 0 51.5 -7.5t15.5 -26.5q0 -22 -11 -36.5t-29 -26.5q-25 -18 -36 -39.5
t-23 -77.5l-59 -272q-9 -46 -9 -68q0 -17 4.5 -27.5t15.5 -21.5q19 -19 19 -38q0 -6 -1 -10q-6 -27 -25.5 -38t-60.5 -11h-90h-23h-90zM186 743q0 13 9.5 28.5t29.5 42.5l24 33q18 26 46 33.5t77 7.5q45 0 60 -8.5t11 -27.5q-4 -23 -49.5 -52.5t-101 -51.5t-79.5 -22
q-27 0 -27 17z" />
    <glyph glyph-name="Icircumflex" unicode="&#xce;" horiz-adv-x="393" 
d="M42 0q-36 0 -51 7.5t-15 26.5q0 22 10.5 36.5t28.5 26.5q25 18 36.5 39.5t22.5 77.5l59 272q9 47 9 68q0 17 -4.5 27.5t-15.5 21.5q-19 19 -19 38q0 6 1 10q6 27 25.5 38t60.5 11h90h23h90q36 0 51.5 -7.5t15.5 -26.5q0 -22 -11 -36.5t-29 -26.5q-25 -18 -36 -39.5
t-23 -77.5l-59 -272q-9 -46 -9 -68q0 -17 4.5 -27.5t15.5 -21.5q19 -19 19 -38q0 -6 -1 -10q-6 -27 -25.5 -38t-60.5 -11h-90h-23h-90zM134 734.5q-7 7.5 -7 16.5q0 39 146 129q40 23 64 23q15 0 27.5 -5.5t27.5 -17.5q43 -36 70 -69t22 -56q-2 -9 -12.5 -18.5t-20.5 -9.5
q-12 0 -23.5 4.5t-32.5 16.5q-65 36 -84 36q-16 0 -98 -36q-43 -21 -63 -21q-9 0 -16 7.5z" />
    <glyph glyph-name="Idieresis" unicode="&#xcf;" horiz-adv-x="393" 
d="M42 0q-36 0 -51 7.5t-15 26.5q0 22 10.5 36.5t28.5 26.5q25 18 36.5 39.5t22.5 77.5l59 272q9 47 9 68q0 17 -4.5 27.5t-15.5 21.5q-19 19 -19 38q0 6 1 10q6 27 25.5 38t60.5 11h90h23h90q36 0 51.5 -7.5t15.5 -26.5q0 -22 -11 -36.5t-29 -26.5q-25 -18 -36 -39.5
t-23 -77.5l-59 -272q-9 -46 -9 -68q0 -17 4.5 -27.5t15.5 -21.5q19 -19 19 -38q0 -6 -1 -10q-6 -27 -25.5 -38t-60.5 -11h-90h-23h-90zM78.5 748q-18.5 15 -13.5 41q6 28 34 46.5t63 26.5t62 8q26 0 44 -10t18 -32q0 -6 -1 -10q-6 -29 -34.5 -48t-64 -28t-63.5 -9
q-26 0 -44.5 15zM344.5 745q-17.5 12 -17.5 33q0 7 1 11q6 28 34 46.5t63 26.5t62 8q26 0 44 -10t18 -32q0 -6 -1 -10q-6 -29 -35 -48t-64 -28t-63 -9q-24 0 -41.5 12z" />
    <glyph glyph-name="Eth" unicode="&#xd0;" horiz-adv-x="786" 
d="M704 639.5q95 -69.5 95 -203.5q0 -128 -57.5 -228.5t-173 -158.5t-281.5 -58q-32 0 -112 4q-72 5 -133 5q-36 0 -51 7.5t-15 26.5q0 36 39 63q25 18 36.5 39.5t22.5 77.5l15 67q0 17 -17 17h-29q-27 0 -27 27q0 12 2 19q5 22 15 32t28 10h29q20 0 26 24l2 5l1 7q0 2 1 3
l13 61q10 43 10 65q0 31 -21 52t-19 39q3 28 22 43t65 15q34 0 144 5q74 4 101 4q174 0 269 -69.5zM459.5 166q46.5 57 69 135.5t22.5 141.5q0 74 -33.5 115t-93.5 41q-17 0 -29.5 -9t-16.5 -27l-35 -166q2 -12 13 -12h91q29 0 29 -26q0 -4 -2 -16q-4 -23 -15 -33t-30 -10
h-90q-12 0 -19 -10l-27 -127q-2 -7 -2 -19q0 -19 13 -27t42 -8q67 0 113.5 57z" />
    <glyph glyph-name="Ntilde" unicode="&#xd1;" horiz-adv-x="755" 
d="M-26 31q0 21 11.5 35t31.5 26q21 11 31 23.5t19 44t25 108.5l45 211q14 68 14 89q0 15 -5 23.5t-18 17.5q-28 19 -23 47q5 22 21 33.5t53 11.5l148 -1q20 0 31 -5t19 -15l195 -259q10 -13 23 -13q7 0 13 6t8 17l17 76q9 39 9 58q0 16 -6 25t-19 18q-23 16 -23 38
q0 6 1 10q5 22 21.5 33.5t52.5 11.5h110q55 0 55 -32q0 -21 -11.5 -35t-30.5 -26q-21 -12 -30.5 -22.5t-17.5 -36t-22 -88.5l-90 -421q-4 -21 -16.5 -32t-28.5 -11q-23 0 -33 17l-298 393q-9 10 -18 10q-14 0 -19 -22l-37 -174q-13 -62 -13 -87q0 -16 5 -25t17 -17
q23 -16 23 -38q0 -6 -1 -10q-5 -22 -21 -33.5t-52 -11.5h-110q-56 0 -56 32zM515 746.5q-21 7.5 -51 22.5q-17 8 -33.5 14.5t-27.5 6.5q-8 0 -12 -3.5t-11 -12.5q-29 -35 -58 -35q-19 0 -28.5 10.5t-9.5 29.5q0 34 18.5 59t46 38t55.5 13q25 0 48.5 -8t51.5 -23
q38 -20 57 -20q6 0 11 3.5t11 12.5q17 20 29 27.5t27 7.5q19 0 30 -11t11 -29q0 -34 -19 -59t-47 -38t-57 -13q-21 0 -42 7.5z" />
    <glyph glyph-name="Ograve" unicode="&#xd2;" horiz-adv-x="800" 
d="M174.5 20.5q-71.5 32.5 -109.5 94t-38 146.5q0 113 57.5 217t165 169t247.5 65q99 0 171 -32.5t110 -94t38 -145.5q0 -114 -57.5 -218t-165 -169t-249.5 -65q-98 0 -169.5 32.5zM469.5 165.5q42.5 57.5 64 139t21.5 150.5q0 61 -20.5 99t-61.5 38q-59 0 -101 -57.5
t-63.5 -139.5t-21.5 -151q0 -60 20.5 -98t61.5 -38q58 0 100.5 57.5zM508 748q-46 22 -79.5 51t-28.5 52q5 20 24 28.5t64 8.5q49 0 73.5 -7.5t30.5 -33.5q2 -8 8 -24q5 -17 9.5 -34t4.5 -29q0 -34 -36 -34q-24 0 -70 22z" />
    <glyph glyph-name="Oacute" unicode="&#xd3;" horiz-adv-x="800" 
d="M174.5 20.5q-71.5 32.5 -109.5 94t-38 146.5q0 113 57.5 217t165 169t247.5 65q99 0 171 -32.5t110 -94t38 -145.5q0 -114 -57.5 -218t-165 -169t-249.5 -65q-98 0 -169.5 32.5zM469.5 165.5q42.5 57.5 64 139t21.5 150.5q0 61 -20.5 99t-61.5 38q-59 0 -101 -57.5
t-63.5 -139.5t-21.5 -151q0 -60 20.5 -98t61.5 -38q58 0 100.5 57.5zM379 743q0 13 9.5 28.5t29.5 42.5l24 33q18 26 46 33.5t77 7.5q45 0 60 -8.5t11 -27.5q-4 -23 -49.5 -52.5t-101 -51.5t-79.5 -22q-27 0 -27 17z" />
    <glyph glyph-name="Ocircumflex" unicode="&#xd4;" horiz-adv-x="800" 
d="M174.5 20.5q-71.5 32.5 -109.5 94t-38 146.5q0 113 57.5 217t165 169t247.5 65q99 0 171 -32.5t110 -94t38 -145.5q0 -114 -57.5 -218t-165 -169t-249.5 -65q-98 0 -169.5 32.5zM469.5 165.5q42.5 57.5 64 139t21.5 150.5q0 61 -20.5 99t-61.5 38q-59 0 -101 -57.5
t-63.5 -139.5t-21.5 -151q0 -60 20.5 -98t61.5 -38q58 0 100.5 57.5zM327 734.5q-7 7.5 -7 16.5q0 39 146 129q40 23 64 23q15 0 27.5 -5.5t27.5 -17.5q43 -36 70 -69t22 -56q-2 -9 -12.5 -18.5t-20.5 -9.5q-12 0 -23.5 4.5t-32.5 16.5q-65 36 -84 36q-16 0 -98 -36
q-43 -21 -63 -21q-9 0 -16 7.5z" />
    <glyph glyph-name="Otilde" unicode="&#xd5;" horiz-adv-x="800" 
d="M174.5 20.5q-71.5 32.5 -109.5 94t-38 146.5q0 113 57.5 217t165 169t247.5 65q99 0 171 -32.5t110 -94t38 -145.5q0 -114 -57.5 -218t-165 -169t-249.5 -65q-98 0 -169.5 32.5zM469.5 165.5q42.5 57.5 64 139t21.5 150.5q0 61 -20.5 99t-61.5 38q-59 0 -101 -57.5
t-63.5 -139.5t-21.5 -151q0 -60 20.5 -98t61.5 -38q58 0 100.5 57.5zM525 746.5q-21 7.5 -51 22.5q-17 8 -33.5 14.5t-27.5 6.5q-8 0 -12 -3.5t-11 -12.5q-29 -35 -58 -35q-19 0 -28.5 10.5t-9.5 29.5q0 34 18.5 59t46 38t55.5 13q25 0 48.5 -8t51.5 -23q38 -20 57 -20
q6 0 11 3.5t11 12.5q17 20 29 27.5t27 7.5q19 0 30 -11t11 -29q0 -34 -19 -59t-47 -38t-57 -13q-21 0 -42 7.5z" />
    <glyph glyph-name="Odieresis" unicode="&#xd6;" horiz-adv-x="800" 
d="M174.5 20.5q-71.5 32.5 -109.5 94t-38 146.5q0 113 57.5 217t165 169t247.5 65q99 0 171 -32.5t110 -94t38 -145.5q0 -114 -57.5 -218t-165 -169t-249.5 -65q-98 0 -169.5 32.5zM469.5 165.5q42.5 57.5 64 139t21.5 150.5q0 61 -20.5 99t-61.5 38q-59 0 -101 -57.5
t-63.5 -139.5t-21.5 -151q0 -60 20.5 -98t61.5 -38q58 0 100.5 57.5zM271.5 748q-18.5 15 -13.5 41q6 28 34 46.5t63 26.5t62 8q26 0 44 -10t18 -32q0 -6 -1 -10q-6 -29 -34.5 -48t-64 -28t-63.5 -9q-26 0 -44.5 15zM537.5 745q-17.5 12 -17.5 33q0 7 1 11q6 28 34 46.5
t63 26.5t62 8q26 0 44 -10t18 -32q0 -6 -1 -10q-6 -29 -35 -48t-64 -28t-63 -9q-24 0 -41.5 12z" />
    <glyph glyph-name="multiply" unicode="&#xd7;" horiz-adv-x="442" 
d="M30 188q0 25 35 48l53 34q7 6 7 12t-7 13l-53 53q-21 21 -21 35q0 17 25 34q28 18 52 18q30 0 60 -30l41 -41q8 -9 19 -9q6 0 12 3l67 44q17 11 35 11q32 0 63 -29q18 -18 18 -32q0 -11 -8 -19t-21 -17l-70 -45q-7 -4 -7 -11q0 -5 4 -9l58 -57q15 -15 15 -31
q0 -24 -33 -47q-21 -14 -40 -14q-23 0 -46 23l-60 60q-5 5 -10 5q-4 0 -10 -4l-70 -45q-23 -16 -43 -16q-22 0 -43 21q-22 22 -22 42z" />
    <glyph glyph-name="Oslash" unicode="&#xd8;" horiz-adv-x="800" 
d="M750 718q12 11 38 11q24 0 43.5 -10.5t19.5 -28.5q0 -17 -23 -39l-58 -53q46 -64 46 -158q0 -114 -57.5 -218t-165 -169t-249.5 -65q-117 0 -195 46l-58 -53q-13 -12 -40 -12q-24 0 -43 10.5t-19 27.5q0 19 24 40l60 55q-46 66 -46 159q0 113 57.5 217t165 169t247.5 65
q118 0 196 -46zM383 547.5q-39 -44.5 -62 -112t-31 -136.5l255 232q-9 29 -27.5 45t-44.5 16q-51 0 -90 -44.5zM458.5 152.5q38.5 44.5 62 111.5t31.5 136l-255 -231q21 -61 72 -61t89.5 44.5z" />
    <glyph glyph-name="Ugrave" unicode="&#xd9;" horiz-adv-x="762" 
d="M71 203q0 40 11 92l39 184q11 58 11 78q0 16 -4.5 26t-16.5 20q-19 14 -19 35q0 4 2 14q6 27 26 38t61 11l202 -1q35 0 50.5 -8.5t15.5 -27.5q0 -21 -10.5 -34.5t-28.5 -26.5q-26 -18 -37.5 -40t-22.5 -77l-40 -185q-7 -37 -7 -57q0 -55 30 -84t88 -29q135 0 168 153
l43 198q10 47 10 71q0 18 -5 28.5t-15 20.5q-18 18 -18 36q0 8 1 12q5 26 25 38t63 12h80q34 0 50.5 -9t16.5 -29t-10 -33t-30 -26q-23 -16 -34.5 -38.5t-25.5 -84.5l-40 -187q-33 -154 -117 -229.5t-229 -75.5q-283 0 -283 215zM523 748q-46 22 -79.5 51t-28.5 52
q5 20 24 28.5t64 8.5q49 0 73.5 -7.5t30.5 -33.5q2 -8 8 -24q5 -17 9.5 -34t4.5 -29q0 -34 -36 -34q-24 0 -70 22z" />
    <glyph glyph-name="Uacute" unicode="&#xda;" horiz-adv-x="762" 
d="M71 203q0 40 11 92l39 184q11 58 11 78q0 16 -4.5 26t-16.5 20q-19 14 -19 35q0 4 2 14q6 27 26 38t61 11l202 -1q35 0 50.5 -8.5t15.5 -27.5q0 -21 -10.5 -34.5t-28.5 -26.5q-26 -18 -37.5 -40t-22.5 -77l-40 -185q-7 -37 -7 -57q0 -55 30 -84t88 -29q135 0 168 153
l43 198q10 47 10 71q0 18 -5 28.5t-15 20.5q-18 18 -18 36q0 8 1 12q5 26 25 38t63 12h80q34 0 50.5 -9t16.5 -29t-10 -33t-30 -26q-23 -16 -34.5 -38.5t-25.5 -84.5l-40 -187q-33 -154 -117 -229.5t-229 -75.5q-283 0 -283 215zM393 743q0 13 9.5 28.5t29.5 42.5l24 33
q18 26 46 33.5t77 7.5q45 0 60 -8.5t11 -27.5q-4 -23 -49.5 -52.5t-101 -51.5t-79.5 -22q-27 0 -27 17z" />
    <glyph glyph-name="Ucircumflex" unicode="&#xdb;" horiz-adv-x="762" 
d="M71 203q0 40 11 92l39 184q11 58 11 78q0 16 -4.5 26t-16.5 20q-19 14 -19 35q0 4 2 14q6 27 26 38t61 11l202 -1q35 0 50.5 -8.5t15.5 -27.5q0 -21 -10.5 -34.5t-28.5 -26.5q-26 -18 -37.5 -40t-22.5 -77l-40 -185q-7 -37 -7 -57q0 -55 30 -84t88 -29q135 0 168 153
l43 198q10 47 10 71q0 18 -5 28.5t-15 20.5q-18 18 -18 36q0 8 1 12q5 26 25 38t63 12h80q34 0 50.5 -9t16.5 -29t-10 -33t-30 -26q-23 -16 -34.5 -38.5t-25.5 -84.5l-40 -187q-33 -154 -117 -229.5t-229 -75.5q-283 0 -283 215zM341 734.5q-7 7.5 -7 16.5q0 39 146 129
q40 23 64 23q15 0 27.5 -5.5t27.5 -17.5q43 -36 70 -69t22 -56q-2 -9 -12.5 -18.5t-20.5 -9.5q-12 0 -23.5 4.5t-32.5 16.5q-65 36 -84 36q-16 0 -98 -36q-43 -21 -63 -21q-9 0 -16 7.5z" />
    <glyph glyph-name="Udieresis" unicode="&#xdc;" horiz-adv-x="762" 
d="M71 203q0 40 11 92l39 184q11 58 11 78q0 16 -4.5 26t-16.5 20q-19 14 -19 35q0 4 2 14q6 27 26 38t61 11l202 -1q35 0 50.5 -8.5t15.5 -27.5q0 -21 -10.5 -34.5t-28.5 -26.5q-26 -18 -37.5 -40t-22.5 -77l-40 -185q-7 -37 -7 -57q0 -55 30 -84t88 -29q135 0 168 153
l43 198q10 47 10 71q0 18 -5 28.5t-15 20.5q-18 18 -18 36q0 8 1 12q5 26 25 38t63 12h80q34 0 50.5 -9t16.5 -29t-10 -33t-30 -26q-23 -16 -34.5 -38.5t-25.5 -84.5l-40 -187q-33 -154 -117 -229.5t-229 -75.5q-283 0 -283 215zM285.5 748q-18.5 15 -13.5 41q6 28 34 46.5
t63 26.5t62 8q26 0 44 -10t18 -32q0 -6 -1 -10q-6 -29 -34.5 -48t-64 -28t-63.5 -9q-26 0 -44.5 15zM551.5 745q-17.5 12 -17.5 33q0 7 1 11q6 28 34 46.5t63 26.5t62 8q26 0 44 -10t18 -32q0 -6 -1 -10q-6 -29 -35 -48t-64 -28t-63 -9q-24 0 -41.5 12z" />
    <glyph glyph-name="Yacute" unicode="&#xdd;" horiz-adv-x="717" 
d="M160 7.5q-15 7.5 -15 26.5q0 22 11 36.5t29 26.5q24 17 35 36t19 58l6 27q2 8 2 26q0 43 -15 90l-62 193q-6 19 -16 31t-19 19t-12 9q-5 4 -15 12.5t-15 16.5t-5 19q0 7 1 12q7 33 32.5 43.5t76.5 10.5h213q79 0 79 -35q0 -20 -9.5 -32t-29.5 -28q-13 -11 -19 -21t-6 -22
q0 -9 5 -26l24 -73q6 -17 17 -17q12 0 23 17l69 100q9 14 9 27q0 14 -15 31q-7 10 -9 18t0 18q6 24 26.5 33.5t54.5 9.5h107q32 0 48 -7t16 -24q0 -21 -12.5 -33.5t-27 -20.5t-19.5 -11q-15 -9 -28 -22t-35 -41l-150 -193q-18 -23 -33.5 -59t-23.5 -71l-5 -27q-6 -30 -6 -46
q0 -15 4.5 -25.5t15.5 -22.5q9 -9 14 -17t5 -19q0 -8 -1 -12q-6 -25 -24 -37.5t-58 -12.5l-206 1q-36 0 -51 7.5zM383 743q0 13 9.5 28.5t29.5 42.5l24 33q18 26 46 33.5t77 7.5q45 0 60 -8.5t11 -27.5q-4 -23 -49.5 -52.5t-101 -51.5t-79.5 -22q-27 0 -27 17z" />
    <glyph glyph-name="Thorn" unicode="&#xde;" horiz-adv-x="684" 
d="M-8.5 8q-15.5 8 -15.5 27q0 22 10.5 36t28.5 26q25 18 36.5 39.5t22.5 77.5l57 265q11 50 11 76q0 16 -4.5 26t-14.5 22q-19 19 -19 39q0 7 1 11q9 48 74 48l215 -1q34 0 49.5 -8t15.5 -26q0 -23 -10 -36t-29 -27q-24 -17 -33.5 -26t-11.5 -18v-3l-1 -6q0 -12 17 -12h14
q147 0 224 -40t77 -112q0 -14 -3 -31q-19 -88 -111.5 -136t-248.5 -48h-29q-11 0 -18.5 -7.5t-9.5 -19.5l-1 -4q-2 -9 0.5 -14.5t10.5 -13t14 -14.5q19 -19 19 -39q0 -7 -1 -11q-6 -28 -25.5 -38.5t-65.5 -10.5l-195 1q-35 0 -50.5 8zM360 267q33 0 55.5 22t32.5 65
q3 17 3 30q0 28 -13.5 43t-39.5 15h-12q-37 0 -49 -61l-12 -54q-4 -17 -4 -31q0 -29 26 -29h13z" />
    <glyph glyph-name="germandbls" unicode="&#xdf;" horiz-adv-x="697" 
d="M638 358.5q37 -45.5 37 -106.5q0 -74 -40 -134.5t-105 -95t-137 -34.5q-64 0 -92.5 25.5t-28.5 66.5q0 24 8.5 44t27.5 20q9 0 14 -6.5t3 -15.5q-3 -14 6 -22t25 -8q25 0 44 25.5t30 60.5t11 63q0 45 -25.5 74t-63.5 29q-19 0 -28.5 7.5t-9.5 25.5q0 25 10 37.5t40 31.5
q45 27 62.5 58.5t17.5 73.5q0 20 -9 31.5t-26 11.5q-33 0 -57.5 -30.5t-32.5 -67.5l-77 -359q-5 -28 -5 -40q0 -14 3 -28q3 -30 3 -37q0 -35 -25 -47t-79 -12h-41h-77q-52 0 -71 9.5t-14 33.5q3 13 11 21t22 16q29 17 40.5 41.5t25.5 88.5l6 30l51 239q49 233 339 233
q94 0 149 -39.5t55 -102.5q0 -100 -101 -148q67 -18 104 -63.5z" />
    <glyph glyph-name="agrave" unicode="&#xe0;" horiz-adv-x="659" 
d="M38.5 30.5q-35.5 42.5 -35.5 112.5q0 88 36 173t105.5 140t162.5 55q45 0 88 -15q31 -10 65 -10q24 0 57 11q6 2 18 6.5t21.5 6.5t20.5 2q17 0 24 -11t4 -26l-61 -285q-2 -8 -2 -20q0 -20 14 -20t35 16q9 6 17 6q9 0 15.5 -8.5t6.5 -22.5q0 -20 -12 -41
q-23 -45 -69.5 -78.5t-103.5 -33.5q-54 0 -84 31t-30 74q0 15 -7 15q-5 0 -13 -11q-31 -47 -68.5 -78t-92.5 -31q-76 0 -111.5 42.5zM310.5 179q21.5 27 32.5 70q25 94 25 128q0 25 -9 35.5t-25 10.5q-26 0 -49.5 -35.5t-37.5 -85t-14 -86.5q0 -64 32 -64q24 0 45.5 27z
M365 584q-44 27 -76.5 61.5t-27.5 57.5q4 20 23 28t64 8q50 0 74.5 -7t29.5 -34q9 -31 14.5 -65.5t2.5 -51.5q-7 -24 -37 -24q-23 0 -67 27z" />
    <glyph glyph-name="aacute" unicode="&#xe1;" horiz-adv-x="659" 
d="M38.5 30.5q-35.5 42.5 -35.5 112.5q0 88 36 173t105.5 140t162.5 55q45 0 88 -15q31 -10 65 -10q24 0 57 11q6 2 18 6.5t21.5 6.5t20.5 2q17 0 24 -11t4 -26l-61 -285q-2 -8 -2 -20q0 -20 14 -20t35 16q9 6 17 6q9 0 15.5 -8.5t6.5 -22.5q0 -20 -12 -41
q-23 -45 -69.5 -78.5t-103.5 -33.5q-54 0 -84 31t-30 74q0 15 -7 15q-5 0 -13 -11q-31 -47 -68.5 -78t-92.5 -31q-76 0 -111.5 42.5zM310.5 179q21.5 27 32.5 70q25 94 25 128q0 25 -9 35.5t-25 10.5q-26 0 -49.5 -35.5t-37.5 -85t-14 -86.5q0 -64 32 -64q24 0 45.5 27z
M331 577q0 14 16.5 45.5t43.5 75.5q16 27 39.5 34t71.5 7q45 0 61 -8t13 -28q-4 -23 -47 -57.5t-95 -61.5t-75 -27q-28 0 -28 20z" />
    <glyph glyph-name="acircumflex" unicode="&#xe2;" horiz-adv-x="659" 
d="M38.5 30.5q-35.5 42.5 -35.5 112.5q0 88 36 173t105.5 140t162.5 55q45 0 88 -15q31 -10 65 -10q24 0 57 11q6 2 18 6.5t21.5 6.5t20.5 2q17 0 24 -11t4 -26l-61 -285q-2 -8 -2 -20q0 -20 14 -20t35 16q9 6 17 6q9 0 15.5 -8.5t6.5 -22.5q0 -20 -12 -41
q-23 -45 -69.5 -78.5t-103.5 -33.5q-54 0 -84 31t-30 74q0 15 -7 15q-5 0 -13 -11q-31 -47 -68.5 -78t-92.5 -31q-76 0 -111.5 42.5zM310.5 179q21.5 27 32.5 70q25 94 25 128q0 25 -9 35.5t-25 10.5q-26 0 -49.5 -35.5t-37.5 -85t-14 -86.5q0 -64 32 -64q24 0 45.5 27z
M226.5 555.5q-6.5 7.5 -6.5 16.5q0 26 44 64.5t103 74.5q33 18 63 18q17 0 29.5 -4t26.5 -14q37 -31 64.5 -70.5t27.5 -64.5q0 -10 -9.5 -19t-22.5 -9q-15 0 -28.5 4.5t-29.5 16.5q-63 46 -82 46q-6 0 -30 -10t-70 -36q-38 -21 -61 -21q-12 0 -18.5 7.5z" />
    <glyph glyph-name="atilde" unicode="&#xe3;" horiz-adv-x="659" 
d="M38.5 30.5q-35.5 42.5 -35.5 112.5q0 88 36 173t105.5 140t162.5 55q45 0 88 -15q31 -10 65 -10q24 0 57 11q6 2 18 6.5t21.5 6.5t20.5 2q17 0 24 -11t4 -26l-61 -285q-2 -8 -2 -20q0 -20 14 -20t35 16q9 6 17 6q9 0 15.5 -8.5t6.5 -22.5q0 -20 -12 -41
q-23 -45 -69.5 -78.5t-103.5 -33.5q-54 0 -84 31t-30 74q0 15 -7 15q-5 0 -13 -11q-31 -47 -68.5 -78t-92.5 -31q-76 0 -111.5 42.5zM310.5 179q21.5 27 32.5 70q25 94 25 128q0 25 -9 35.5t-25 10.5q-26 0 -49.5 -35.5t-37.5 -85t-14 -86.5q0 -64 32 -64q24 0 45.5 27z
M437 576.5q-21 7.5 -51 22.5q-17 8 -33.5 14.5t-27.5 6.5q-8 0 -12 -3.5t-11 -12.5q-29 -35 -58 -35q-19 0 -28.5 10.5t-9.5 29.5q0 34 18.5 59t46 38t55.5 13q25 0 48.5 -8t51.5 -23q38 -20 57 -20q6 0 11 3.5t11 12.5q17 20 29 27.5t27 7.5q19 0 30 -11t11 -29
q0 -34 -19 -59t-47 -38t-57 -13q-21 0 -42 7.5z" />
    <glyph glyph-name="adieresis" unicode="&#xe4;" horiz-adv-x="659" 
d="M38.5 30.5q-35.5 42.5 -35.5 112.5q0 88 36 173t105.5 140t162.5 55q45 0 88 -15q31 -10 65 -10q24 0 57 11q6 2 18 6.5t21.5 6.5t20.5 2q17 0 24 -11t4 -26l-61 -285q-2 -8 -2 -20q0 -20 14 -20t35 16q9 6 17 6q9 0 15.5 -8.5t6.5 -22.5q0 -20 -12 -41
q-23 -45 -69.5 -78.5t-103.5 -33.5q-54 0 -84 31t-30 74q0 15 -7 15q-5 0 -13 -11q-31 -47 -68.5 -78t-92.5 -31q-76 0 -111.5 42.5zM310.5 179q21.5 27 32.5 70q25 94 25 128q0 25 -9 35.5t-25 10.5q-26 0 -49.5 -35.5t-37.5 -85t-14 -86.5q0 -64 32 -64q24 0 45.5 27z
M186.5 600q-18.5 15 -13.5 41q6 28 34 46.5t63 26.5t62 8q26 0 44 -10t18 -32q0 -6 -1 -10q-6 -29 -34.5 -48t-64 -28t-63.5 -9q-26 0 -44.5 15zM452.5 597q-17.5 12 -17.5 33q0 7 1 11q6 28 34 46.5t63 26.5t62 8q26 0 44 -10t18 -32q0 -6 -1 -10q-6 -29 -35 -48t-64 -28
t-63 -9q-24 0 -41.5 12z" />
    <glyph glyph-name="aring" unicode="&#xe5;" horiz-adv-x="659" 
d="M38.5 30.5q-35.5 42.5 -35.5 112.5q0 88 36 173t105.5 140t162.5 55q45 0 88 -15q31 -10 65 -10q24 0 57 11q6 2 18 6.5t21.5 6.5t20.5 2q17 0 24 -11t4 -26l-61 -285q-2 -8 -2 -20q0 -20 14 -20t35 16q9 6 17 6q9 0 15.5 -8.5t6.5 -22.5q0 -20 -12 -41
q-23 -45 -69.5 -78.5t-103.5 -33.5q-54 0 -84 31t-30 74q0 15 -7 15q-5 0 -13 -11q-31 -47 -68.5 -78t-92.5 -31q-76 0 -111.5 42.5zM310.5 179q21.5 27 32.5 70q25 94 25 128q0 25 -9 35.5t-25 10.5q-26 0 -49.5 -35.5t-37.5 -85t-14 -86.5q0 -64 32 -64q24 0 45.5 27z
M325.5 576q-27.5 18 -27.5 54q0 5 2 19q9 44 46 67t82 23q41 0 70 -19.5t29 -55.5q0 -6 -2 -20q-9 -43 -47 -64.5t-83 -21.5q-42 0 -69.5 18zM424.5 621q7.5 8 9.5 20t2 17q0 26 -18 26q-21 0 -29 -33q-1 -3 -1 -10q0 -12 5 -20t15 -8q9 0 16.5 8z" />
    <glyph glyph-name="ae" unicode="&#xe6;" horiz-adv-x="817" 
d="M769 176q10 0 15.5 -7t5.5 -18q0 -9 -3 -18q-25 -63 -86.5 -104t-153.5 -41q-64 0 -112.5 21.5t-76.5 60.5q-82 -82 -218 -82q-80 0 -115.5 32t-35.5 85q0 19 5 42q14 67 86.5 106t173.5 46q7 0 33.5 1t37.5 7.5t12 19.5l3 46q2 24 2 30q0 20 -7 29t-27 9q-25 0 -38 -16
t-26 -47q-16 -34 -42.5 -49.5t-64.5 -15.5q-22 0 -37 12.5t-15 35.5q0 4 2 16q9 40 47.5 71t97 48.5t122.5 17.5q105 0 151 -39q73 39 161 39q44 0 80 -17t56.5 -46t20.5 -62q0 -48 -22 -79t-77.5 -52.5t-157.5 -35.5q-10 -2 -14 -5t-4 -9q0 -35 17.5 -60t55.5 -25
q41 0 70.5 12.5t54.5 31.5q12 9 23 9zM588.5 411.5q-18.5 -23.5 -29 -56.5t-11.5 -59q0 -7 1.5 -10t6.5 -3q3 0 11 2q50 13 75 33.5t26 58.5q0 58 -36 58q-25 0 -43.5 -23.5zM300.5 100q21.5 21 24.5 67q-1 6 -1 18q0 11 2 33q-3 16 -11.5 21t-27.5 5q-53 0 -68 -61
q-5 -27 -5 -42q0 -29 10.5 -45.5t28.5 -16.5q26 0 47.5 21z" />
    <glyph glyph-name="ccedilla" unicode="&#xe7;" horiz-adv-x="517" 
d="M267.5 362.5q-20.5 -48.5 -20.5 -118.5q0 -50 20.5 -79.5t59.5 -29.5q23 0 47 11.5t44 28.5q20 15 36 15q15 0 23 -11.5t5 -31.5q-7 -29 -30 -61.5t-66 -59t-105 -34.5l-20 -32q59 -4 59 -51q0 -13 -2 -20q-6 -29 -36 -50t-79 -21q-38 0 -58 13.5t-20 30.5q0 20 21 18
q21 -4 36 -4q18 0 30.5 10t12.5 24q0 22 -28 22q-12 0 -17 2.5t-5 9.5q0 13 25 45q-89 8 -139.5 61.5t-50.5 138.5q0 82 44 157.5t118.5 121.5t161.5 46q52 0 96 -17t69.5 -47.5t25.5 -69.5t-22 -64t-59 -25q-25 0 -39.5 9t-21.5 22t-18 41q-7 25 -17 36.5t-25 11.5
q-35 0 -55.5 -48.5z" />
    <glyph glyph-name="egrave" unicode="&#xe8;" horiz-adv-x="508" 
d="M68.5 42q-59.5 54 -59.5 143q0 85 44.5 161t120.5 122t167 46q49 0 87 -17t59 -45.5t21 -62.5q-1 -49 -21.5 -81t-75 -54.5t-154.5 -36.5q-11 -2 -15.5 -6t-2.5 -14q12 -67 80 -67q29 0 51 12t48 34q17 12 32 12q14 0 23 -9t9 -23q0 -10 -4 -19q-25 -63 -85 -106
t-161 -43q-104 0 -163.5 54zM328.5 318q22.5 20 23.5 59q-1 27 -8 39.5t-24 12.5q-21 0 -39.5 -22.5t-29.5 -54t-12 -55.5q0 -14 8 -14q3 0 11 2q48 13 70.5 33zM306 584q-44 27 -76.5 61.5t-27.5 57.5q4 20 23 28t64 8q50 0 74.5 -7t29.5 -34q9 -31 14.5 -65.5t2.5 -51.5
q-7 -24 -37 -24q-23 0 -67 27z" />
    <glyph glyph-name="eacute" unicode="&#xe9;" horiz-adv-x="508" 
d="M68.5 42q-59.5 54 -59.5 143q0 85 44.5 161t120.5 122t167 46q49 0 87 -17t59 -45.5t21 -62.5q-1 -49 -21.5 -81t-75 -54.5t-154.5 -36.5q-11 -2 -15.5 -6t-2.5 -14q12 -67 80 -67q29 0 51 12t48 34q17 12 32 12q14 0 23 -9t9 -23q0 -10 -4 -19q-25 -63 -85 -106
t-161 -43q-104 0 -163.5 54zM328.5 318q22.5 20 23.5 59q-1 27 -8 39.5t-24 12.5q-21 0 -39.5 -22.5t-29.5 -54t-12 -55.5q0 -14 8 -14q3 0 11 2q48 13 70.5 33zM272 577q0 14 16.5 45.5t43.5 75.5q16 27 39.5 34t71.5 7q45 0 61 -8t13 -28q-4 -23 -47 -57.5t-95 -61.5
t-75 -27q-28 0 -28 20z" />
    <glyph glyph-name="ecircumflex" unicode="&#xea;" horiz-adv-x="508" 
d="M68.5 42q-59.5 54 -59.5 143q0 85 44.5 161t120.5 122t167 46q49 0 87 -17t59 -45.5t21 -62.5q-1 -49 -21.5 -81t-75 -54.5t-154.5 -36.5q-11 -2 -15.5 -6t-2.5 -14q12 -67 80 -67q29 0 51 12t48 34q17 12 32 12q14 0 23 -9t9 -23q0 -10 -4 -19q-25 -63 -85 -106
t-161 -43q-104 0 -163.5 54zM328.5 318q22.5 20 23.5 59q-1 27 -8 39.5t-24 12.5q-21 0 -39.5 -22.5t-29.5 -54t-12 -55.5q0 -14 8 -14q3 0 11 2q48 13 70.5 33zM166.5 555.5q-6.5 7.5 -6.5 16.5q0 26 44 64.5t103 74.5q33 18 63 18q17 0 29.5 -4t26.5 -14
q37 -31 64.5 -70.5t27.5 -64.5q0 -10 -9.5 -19t-22.5 -9q-15 0 -28.5 4.5t-29.5 16.5q-63 46 -82 46q-6 0 -30 -10t-70 -36q-38 -21 -61 -21q-12 0 -18.5 7.5z" />
    <glyph glyph-name="edieresis" unicode="&#xeb;" horiz-adv-x="508" 
d="M68.5 42q-59.5 54 -59.5 143q0 85 44.5 161t120.5 122t167 46q49 0 87 -17t59 -45.5t21 -62.5q-1 -49 -21.5 -81t-75 -54.5t-154.5 -36.5q-11 -2 -15.5 -6t-2.5 -14q12 -67 80 -67q29 0 51 12t48 34q17 12 32 12q14 0 23 -9t9 -23q0 -10 -4 -19q-25 -63 -85 -106
t-161 -43q-104 0 -163.5 54zM328.5 318q22.5 20 23.5 59q-1 27 -8 39.5t-24 12.5q-21 0 -39.5 -22.5t-29.5 -54t-12 -55.5q0 -14 8 -14q3 0 11 2q48 13 70.5 33zM126.5 600q-18.5 15 -13.5 41q6 28 34 46.5t63 26.5t62 8q26 0 44 -10t18 -32q0 -6 -1 -10q-6 -29 -34.5 -48
t-64 -28t-63.5 -9q-26 0 -44.5 15zM392.5 597q-17.5 12 -17.5 33q0 7 1 11q6 28 34 46.5t63 26.5t62 8q26 0 44 -10t18 -32q0 -6 -1 -10q-6 -29 -35 -48t-64 -28t-63 -9q-24 0 -41.5 12z" />
    <glyph glyph-name="igrave" unicode="&#xec;" horiz-adv-x="376" 
d="M62 16q-28 28 -28 80q0 42 17 108l28 111q4 13 4 26q0 22 -17 35q-5 4 -15 10t-14 12.5t-2 16.5q4 17 19 26t47 20q120 46 181 46q24 0 34.5 -6t10.5 -21q0 -5 -2 -17l-60 -273q-3 -12 -3 -20q0 -20 15 -20q9 0 16 4t19 13q8 6 15 6q11 0 17.5 -9t6.5 -24q0 -19 -11 -40
q-23 -45 -74 -78.5t-110 -33.5q-66 0 -94 28zM202 584q-44 27 -76.5 61.5t-27.5 57.5q4 20 23 28t64 8q50 0 74.5 -7t29.5 -34q9 -31 14.5 -65.5t2.5 -51.5q-7 -24 -37 -24q-23 0 -67 27z" />
    <glyph glyph-name="iacute" unicode="&#xed;" horiz-adv-x="376" 
d="M62 16q-28 28 -28 80q0 42 17 108l28 111q4 13 4 26q0 22 -17 35q-5 4 -15 10t-14 12.5t-2 16.5q4 17 19 26t47 20q120 46 181 46q24 0 34.5 -6t10.5 -21q0 -5 -2 -17l-60 -273q-3 -12 -3 -20q0 -20 15 -20q9 0 16 4t19 13q8 6 15 6q11 0 17.5 -9t6.5 -24q0 -19 -11 -40
q-23 -45 -74 -78.5t-110 -33.5q-66 0 -94 28zM169 577q0 14 16.5 45.5t43.5 75.5q16 27 39.5 34t71.5 7q45 0 61 -8t13 -28q-4 -23 -47 -57.5t-95 -61.5t-75 -27q-28 0 -28 20z" />
    <glyph glyph-name="icircumflex" unicode="&#xee;" horiz-adv-x="376" 
d="M62 16q-28 28 -28 80q0 42 17 108l28 111q4 13 4 26q0 22 -17 35q-5 4 -15 10t-14 12.5t-2 16.5q4 17 19 26t47 20q120 46 181 46q24 0 34.5 -6t10.5 -21q0 -5 -2 -17l-60 -273q-3 -12 -3 -20q0 -20 15 -20q9 0 16 4t19 13q8 6 15 6q11 0 17.5 -9t6.5 -24q0 -19 -11 -40
q-23 -45 -74 -78.5t-110 -33.5q-66 0 -94 28zM63.5 555.5q-6.5 7.5 -6.5 16.5q0 26 44 64.5t103 74.5q33 18 63 18q17 0 29.5 -4t26.5 -14q37 -31 64.5 -70.5t27.5 -64.5q0 -10 -9.5 -19t-22.5 -9q-15 0 -28.5 4.5t-29.5 16.5q-63 46 -82 46q-6 0 -30 -10t-70 -36
q-38 -21 -61 -21q-12 0 -18.5 7.5z" />
    <glyph glyph-name="idieresis" unicode="&#xef;" horiz-adv-x="376" 
d="M62 16q-28 28 -28 80q0 42 17 108l28 111q4 13 4 26q0 22 -17 35q-5 4 -15 10t-14 12.5t-2 16.5q4 17 19 26t47 20q120 46 181 46q24 0 34.5 -6t10.5 -21q0 -5 -2 -17l-60 -273q-3 -12 -3 -20q0 -20 15 -20q9 0 16 4t19 13q8 6 15 6q11 0 17.5 -9t6.5 -24q0 -19 -11 -40
q-23 -45 -74 -78.5t-110 -33.5q-66 0 -94 28zM23.5 600q-18.5 15 -13.5 41q6 28 34 46.5t63 26.5t62 8q26 0 44 -10t18 -32q0 -6 -1 -10q-6 -29 -34.5 -48t-64 -28t-63.5 -9q-26 0 -44.5 15zM289.5 597q-17.5 12 -17.5 33q0 7 1 11q6 28 34 46.5t63 26.5t62 8q26 0 44 -10
t18 -32q0 -6 -1 -10q-6 -29 -35 -48t-64 -28t-63 -9q-24 0 -41.5 12z" />
    <glyph glyph-name="eth" unicode="&#xf0;" horiz-adv-x="648" 
d="M444 665q91 -52 145 -140t54 -186q0 -37 -7 -69q-20 -97 -79 -160.5t-135.5 -92.5t-152.5 -29q-122 0 -190 53.5t-68 151.5q0 30 8 68q16 77 62.5 130.5t107 80t118.5 26.5q27 0 52.5 -7.5t34.5 -17.5q2 -2 7 -2t7 4.5t1 10.5q-10 60 -69 98l-87 -67q-11 -6 -17 -6
q-14 0 -15 22q0 12 4.5 21.5t16.5 18.5l49 37q-34 14 -66 22q-19 5 -29.5 16t-10.5 24q0 18 16 30.5t44 13.5q77 0 148 -27l83 63q9 8 17 8q13 0 13 -22q0 -16 -4.5 -24.5t-16.5 -17.5zM400 279q0 61 -15 102.5t-47 41.5q-25 0 -46 -23t-30 -63q-12 -57 -12 -120
q0 -61 14 -101t43 -40q34 0 53.5 27.5t27.5 62.5q12 51 12 113z" />
    <glyph glyph-name="ntilde" unicode="&#xf1;" horiz-adv-x="701" 
d="M355 101q0 40 17 105l22 84q3 14 3 22q0 27 -27 27q-29 0 -56.5 -28t-38.5 -93l-7 -42q-10 -66 -13 -99q-3 -32 -18.5 -48.5t-57 -24t-126.5 -9.5q-20 0 -30.5 9.5t-10.5 24.5q0 7 3 16l12 40q13 45 24 87.5t33 142.5q3 15 3 27q0 25 -16 34q-6 4 -15.5 10t-13.5 12.5
t-2 16.5q4 17 18.5 25.5t47.5 21.5q124 45 181 45q24 0 34.5 -6.5t10.5 -21.5q0 -4 -2 -16l-11 -49q-4 -17 3 -17q4 0 13 13q24 31 46 52.5t55.5 36.5t77.5 15q51 0 83 -26.5t32 -84.5q0 -25 -8 -62l-35 -151q-2 -7 -2 -19q0 -21 16 -21q14 0 33 16q8 6 16 6q10 0 16.5 -8.5
t6.5 -23.5q0 -19 -11 -40q-22 -44 -72 -78t-115 -34q-119 0 -119 113zM468 576.5q-21 7.5 -51 22.5q-17 8 -33.5 14.5t-27.5 6.5q-8 0 -12 -3.5t-11 -12.5q-29 -35 -58 -35q-19 0 -28.5 10.5t-9.5 29.5q0 34 18.5 59t46 38t55.5 13q25 0 48.5 -8t51.5 -23q38 -20 57 -20
q6 0 11 3.5t11 12.5q17 20 29 27.5t27 7.5q19 0 30 -11t11 -29q0 -34 -19 -59t-47 -38t-57 -13q-21 0 -42 7.5z" />
    <glyph glyph-name="ograve" unicode="&#xf2;" horiz-adv-x="625" 
d="M74.5 44q-65.5 55 -65.5 146q0 68 38 143.5t120 128t206 52.5q116 0 179.5 -56.5t63.5 -148.5q0 -68 -37 -142t-116.5 -126t-200.5 -52q-122 0 -187.5 55zM341.5 137.5q24.5 48.5 36 108.5t11.5 92q0 74 -43 74q-38 0 -63 -48.5t-36.5 -108.5t-11.5 -92q0 -74 45 -74
q37 0 61.5 48.5zM356 584q-44 27 -76.5 61.5t-27.5 57.5q4 20 23 28t64 8q50 0 74.5 -7t29.5 -34q9 -31 14.5 -65.5t2.5 -51.5q-7 -24 -37 -24q-23 0 -67 27z" />
    <glyph glyph-name="oacute" unicode="&#xf3;" horiz-adv-x="625" 
d="M74.5 44q-65.5 55 -65.5 146q0 68 38 143.5t120 128t206 52.5q116 0 179.5 -56.5t63.5 -148.5q0 -68 -37 -142t-116.5 -126t-200.5 -52q-122 0 -187.5 55zM341.5 137.5q24.5 48.5 36 108.5t11.5 92q0 74 -43 74q-38 0 -63 -48.5t-36.5 -108.5t-11.5 -92q0 -74 45 -74
q37 0 61.5 48.5zM323 577q0 14 16.5 45.5t43.5 75.5q16 27 39.5 34t71.5 7q45 0 61 -8t13 -28q-4 -23 -47 -57.5t-95 -61.5t-75 -27q-28 0 -28 20z" />
    <glyph glyph-name="ocircumflex" unicode="&#xf4;" horiz-adv-x="625" 
d="M74.5 44q-65.5 55 -65.5 146q0 68 38 143.5t120 128t206 52.5q116 0 179.5 -56.5t63.5 -148.5q0 -68 -37 -142t-116.5 -126t-200.5 -52q-122 0 -187.5 55zM341.5 137.5q24.5 48.5 36 108.5t11.5 92q0 74 -43 74q-38 0 -63 -48.5t-36.5 -108.5t-11.5 -92q0 -74 45 -74
q37 0 61.5 48.5zM217.5 555.5q-6.5 7.5 -6.5 16.5q0 26 44 64.5t103 74.5q33 18 63 18q17 0 29.5 -4t26.5 -14q37 -31 64.5 -70.5t27.5 -64.5q0 -10 -9.5 -19t-22.5 -9q-15 0 -28.5 4.5t-29.5 16.5q-63 46 -82 46q-6 0 -30 -10t-70 -36q-38 -21 -61 -21q-12 0 -18.5 7.5z
" />
    <glyph glyph-name="otilde" unicode="&#xf5;" horiz-adv-x="625" 
d="M74.5 44q-65.5 55 -65.5 146q0 68 38 143.5t120 128t206 52.5q116 0 179.5 -56.5t63.5 -148.5q0 -68 -37 -142t-116.5 -126t-200.5 -52q-122 0 -187.5 55zM341.5 137.5q24.5 48.5 36 108.5t11.5 92q0 74 -43 74q-38 0 -63 -48.5t-36.5 -108.5t-11.5 -92q0 -74 45 -74
q37 0 61.5 48.5zM428 576.5q-21 7.5 -51 22.5q-17 8 -33.5 14.5t-27.5 6.5q-8 0 -12 -3.5t-11 -12.5q-29 -35 -58 -35q-19 0 -28.5 10.5t-9.5 29.5q0 34 18.5 59t46 38t55.5 13q25 0 48.5 -8t51.5 -23q38 -20 57 -20q6 0 11 3.5t11 12.5q17 20 29 27.5t27 7.5q19 0 30 -11
t11 -29q0 -34 -19 -59t-47 -38t-57 -13q-21 0 -42 7.5z" />
    <glyph glyph-name="odieresis" unicode="&#xf6;" horiz-adv-x="625" 
d="M74.5 44q-65.5 55 -65.5 146q0 68 38 143.5t120 128t206 52.5q116 0 179.5 -56.5t63.5 -148.5q0 -68 -37 -142t-116.5 -126t-200.5 -52q-122 0 -187.5 55zM341.5 137.5q24.5 48.5 36 108.5t11.5 92q0 74 -43 74q-38 0 -63 -48.5t-36.5 -108.5t-11.5 -92q0 -74 45 -74
q37 0 61.5 48.5zM177.5 600q-18.5 15 -13.5 41q6 28 34 46.5t63 26.5t62 8q26 0 44 -10t18 -32q0 -6 -1 -10q-6 -29 -34.5 -48t-64 -28t-63.5 -9q-26 0 -44.5 15zM443.5 597q-17.5 12 -17.5 33q0 7 1 11q6 28 34 46.5t63 26.5t62 8q26 0 44 -10t18 -32q0 -6 -1 -10
q-6 -29 -35 -48t-64 -28t-63 -9q-24 0 -41.5 12z" />
    <glyph glyph-name="divide" unicode="&#xf7;" horiz-adv-x="480" 
d="M233 364q-18 16 -18 42q0 11 5 28q12 41 44 66.5t71 25.5q33 0 51.5 -17t18.5 -46q0 -31 -17 -57.5t-45.5 -42t-60.5 -15.5q-31 0 -49 16zM66 203q-28 0 -43 7t-11 25q9 38 37.5 64.5t68.5 26.5h303q59 0 52 -34q-7 -38 -36 -63.5t-70 -25.5h-301zM160 20q-18 16 -18 42
q0 11 5 28q12 41 44 66.5t71 25.5q33 0 51.5 -17t18.5 -46q0 -31 -17 -57.5t-45.5 -42t-60.5 -15.5q-31 0 -49 16z" />
    <glyph glyph-name="oslash" unicode="&#xf8;" horiz-adv-x="625" 
d="M568 530q8 8 20 8q16 0 29.5 -13.5t13.5 -29.5q0 -11 -11 -22l-44 -40q40 -50 40 -124q0 -68 -37 -142t-116.5 -126t-200.5 -52q-85 0 -144 28l-47 -43q-8 -8 -21 -8q-16 0 -29.5 14t-13.5 30q0 13 10 22l36 33q-44 50 -44 125q0 68 38 143.5t120 128t206 52.5
q84 0 143 -31zM280.5 359.5q-25.5 -52.5 -37.5 -123.5l144 130q-8 46 -41 46q-40 0 -65.5 -52.5zM341.5 138q24.5 49 37.5 116l-140 -127q10 -38 41 -38q37 0 61.5 49z" />
    <glyph glyph-name="ugrave" unicode="&#xf9;" horiz-adv-x="689" 
d="M78.5 23q-32.5 35 -32.5 97q0 31 7 60l29 134q3 15 3 27q0 24 -16 35q-6 4 -14.5 9t-13 10t-4.5 13q0 20 15.5 30t51.5 24q124 45 181 45q24 0 34.5 -6.5t10.5 -21.5q0 -4 -2 -16l-53 -251q-2 -7 -2 -20q0 -30 24 -30q28 0 53 28t37 86l7 39q3 17 3 28q0 23 -13 33
q-4 4 -13 9.5t-13 10t-4 12.5q0 20 16 31.5t51 24.5q118 43 176 43q24 0 34.5 -6.5t10.5 -21.5q0 -4 -2 -16l-59 -285q-1 -4 -1 -10q0 -18 15 -18q9 0 15.5 3.5t17.5 11.5q9 6 17 6q10 0 16.5 -8t6.5 -22q0 -19 -11 -41q-22 -47 -67 -79.5t-101 -32.5q-102 0 -116 114
q-2 10 -7 10q-6 0 -12 -9q-32 -46 -79 -80.5t-108 -34.5q-56 0 -88.5 35zM362 584q-44 27 -76.5 61.5t-27.5 57.5q4 20 23 28t64 8q50 0 74.5 -7t29.5 -34q9 -31 14.5 -65.5t2.5 -51.5q-7 -24 -37 -24q-23 0 -67 27z" />
    <glyph glyph-name="uacute" unicode="&#xfa;" horiz-adv-x="689" 
d="M78.5 23q-32.5 35 -32.5 97q0 31 7 60l29 134q3 15 3 27q0 24 -16 35q-6 4 -14.5 9t-13 10t-4.5 13q0 20 15.5 30t51.5 24q124 45 181 45q24 0 34.5 -6.5t10.5 -21.5q0 -4 -2 -16l-53 -251q-2 -7 -2 -20q0 -30 24 -30q28 0 53 28t37 86l7 39q3 17 3 28q0 23 -13 33
q-4 4 -13 9.5t-13 10t-4 12.5q0 20 16 31.5t51 24.5q118 43 176 43q24 0 34.5 -6.5t10.5 -21.5q0 -4 -2 -16l-59 -285q-1 -4 -1 -10q0 -18 15 -18q9 0 15.5 3.5t17.5 11.5q9 6 17 6q10 0 16.5 -8t6.5 -22q0 -19 -11 -41q-22 -47 -67 -79.5t-101 -32.5q-102 0 -116 114
q-2 10 -7 10q-6 0 -12 -9q-32 -46 -79 -80.5t-108 -34.5q-56 0 -88.5 35zM329 577q0 14 16.5 45.5t43.5 75.5q16 27 39.5 34t71.5 7q45 0 61 -8t13 -28q-4 -23 -47 -57.5t-95 -61.5t-75 -27q-28 0 -28 20z" />
    <glyph glyph-name="ucircumflex" unicode="&#xfb;" horiz-adv-x="689" 
d="M78.5 23q-32.5 35 -32.5 97q0 31 7 60l29 134q3 15 3 27q0 24 -16 35q-6 4 -14.5 9t-13 10t-4.5 13q0 20 15.5 30t51.5 24q124 45 181 45q24 0 34.5 -6.5t10.5 -21.5q0 -4 -2 -16l-53 -251q-2 -7 -2 -20q0 -30 24 -30q28 0 53 28t37 86l7 39q3 17 3 28q0 23 -13 33
q-4 4 -13 9.5t-13 10t-4 12.5q0 20 16 31.5t51 24.5q118 43 176 43q24 0 34.5 -6.5t10.5 -21.5q0 -4 -2 -16l-59 -285q-1 -4 -1 -10q0 -18 15 -18q9 0 15.5 3.5t17.5 11.5q9 6 17 6q10 0 16.5 -8t6.5 -22q0 -19 -11 -41q-22 -47 -67 -79.5t-101 -32.5q-102 0 -116 114
q-2 10 -7 10q-6 0 -12 -9q-32 -46 -79 -80.5t-108 -34.5q-56 0 -88.5 35zM223.5 555.5q-6.5 7.5 -6.5 16.5q0 26 44 64.5t103 74.5q33 18 63 18q17 0 29.5 -4t26.5 -14q37 -31 64.5 -70.5t27.5 -64.5q0 -10 -9.5 -19t-22.5 -9q-15 0 -28.5 4.5t-29.5 16.5q-63 46 -82 46
q-6 0 -30 -10t-70 -36q-38 -21 -61 -21q-12 0 -18.5 7.5z" />
    <glyph glyph-name="udieresis" unicode="&#xfc;" horiz-adv-x="689" 
d="M78.5 23q-32.5 35 -32.5 97q0 31 7 60l29 134q3 15 3 27q0 24 -16 35q-6 4 -14.5 9t-13 10t-4.5 13q0 20 15.5 30t51.5 24q124 45 181 45q24 0 34.5 -6.5t10.5 -21.5q0 -4 -2 -16l-53 -251q-2 -7 -2 -20q0 -30 24 -30q28 0 53 28t37 86l7 39q3 17 3 28q0 23 -13 33
q-4 4 -13 9.5t-13 10t-4 12.5q0 20 16 31.5t51 24.5q118 43 176 43q24 0 34.5 -6.5t10.5 -21.5q0 -4 -2 -16l-59 -285q-1 -4 -1 -10q0 -18 15 -18q9 0 15.5 3.5t17.5 11.5q9 6 17 6q10 0 16.5 -8t6.5 -22q0 -19 -11 -41q-22 -47 -67 -79.5t-101 -32.5q-102 0 -116 114
q-2 10 -7 10q-6 0 -12 -9q-32 -46 -79 -80.5t-108 -34.5q-56 0 -88.5 35zM183.5 600q-18.5 15 -13.5 41q6 28 34 46.5t63 26.5t62 8q26 0 44 -10t18 -32q0 -6 -1 -10q-6 -29 -34.5 -48t-64 -28t-63.5 -9q-26 0 -44.5 15zM449.5 597q-17.5 12 -17.5 33q0 7 1 11q6 28 34 46.5
t63 26.5t62 8q26 0 44 -10t18 -32q0 -6 -1 -10q-6 -29 -35 -48t-64 -28t-63 -9q-24 0 -41.5 12z" />
    <glyph glyph-name="yacute" unicode="&#xfd;" horiz-adv-x="630" 
d="M72 -165q-41 17 -63 43q-26 29 -26 64q0 32 20 55.5t51 23.5q28 0 43 -14.5t29 -45.5q14 -30 30 -41.5t44 -11.5q42 0 84 53t64 122q-35 -31 -71 -44t-68 -13q-162 0 -162 137q0 36 8 71l19 81q3 15 3 27q0 23 -16 34q-6 4 -15.5 10t-13.5 12.5t-2 16.5q4 17 18.5 25.5
t47.5 21.5q124 45 181 45q25 0 35.5 -6.5t10.5 -22.5q0 -3 -2 -15l-57 -267q-7 -29 -7 -47q0 -14 5.5 -19.5t16.5 -5.5q34 0 55.5 17t33.5 41.5t25 64.5q11 33 11 55q0 20 -8 36.5t-25 33.5q-11 11 -16.5 28t-4.5 36q2 35 31 55t69 20q54 0 90 -32q36 -30 54.5 -80
t15.5 -107q-5 -104 -42 -196.5t-100 -157.5q-57 -58 -132 -89t-166 -31q-57 0 -98 17zM337 577q0 14 16.5 45.5t43.5 75.5q16 27 39.5 34t71.5 7q45 0 61 -8t13 -28q-4 -23 -47 -57.5t-95 -61.5t-75 -27q-28 0 -28 20z" />
    <glyph glyph-name="thorn" unicode="&#xfe;" horiz-adv-x="626" 
d="M-17 -166q-10 9 -10 25q0 10 2 16l12 37q21 63 31 115l103 487q3 17 3 29q0 22 -15 33l-15 9t-14 12.5t-2 16.5q4 17 18.5 25.5t47.5 21.5q122 45 181 45q25 0 35 -6t10 -23q0 -9 -1 -15l-51 -236q-3 -10 -3 -20q0 -7 4 -7q3 0 16 16q32 40 71 69.5t91 29.5
q64 0 95 -41.5t31 -113.5q0 -91 -37.5 -176.5t-109 -140t-166.5 -54.5q-22 0 -35 4.5t-25 14.5q-2 2 -5.5 5t-5.5 3q-6 0 -11 -18l-3 -10q-4 -16 -5 -38q-1 -8 -5 -43q-3 -32 -18 -48.5t-57 -24t-127 -8.5q-20 0 -30 9zM340.5 112.5q22.5 35.5 36.5 84t14 81.5
q0 30 -8.5 45.5t-29.5 15.5q-25 0 -44 -23.5t-28 -65.5q-24 -101 -24 -126q0 -24 7 -35.5t29 -11.5q25 0 47.5 35.5z" />
    <glyph glyph-name="ydieresis" unicode="&#xff;" horiz-adv-x="630" 
d="M72 -165q-41 17 -63 43q-26 29 -26 64q0 32 20 55.5t51 23.5q28 0 43 -14.5t29 -45.5q14 -30 30 -41.5t44 -11.5q42 0 84 53t64 122q-35 -31 -71 -44t-68 -13q-162 0 -162 137q0 36 8 71l19 81q3 15 3 27q0 23 -16 34q-6 4 -15.5 10t-13.5 12.5t-2 16.5q4 17 18.5 25.5
t47.5 21.5q124 45 181 45q25 0 35.5 -6.5t10.5 -22.5q0 -3 -2 -15l-57 -267q-7 -29 -7 -47q0 -14 5.5 -19.5t16.5 -5.5q34 0 55.5 17t33.5 41.5t25 64.5q11 33 11 55q0 20 -8 36.5t-25 33.5q-11 11 -16.5 28t-4.5 36q2 35 31 55t69 20q54 0 90 -32q36 -30 54.5 -80
t15.5 -107q-5 -104 -42 -196.5t-100 -157.5q-57 -58 -132 -89t-166 -31q-57 0 -98 17zM191.5 600q-18.5 15 -13.5 41q6 28 34 46.5t63 26.5t62 8q26 0 44 -10t18 -32q0 -6 -1 -10q-6 -29 -34.5 -48t-64 -28t-63.5 -9q-26 0 -44.5 15zM457.5 597q-17.5 12 -17.5 33q0 7 1 11
q6 28 34 46.5t63 26.5t62 8q26 0 44 -10t18 -32q0 -6 -1 -10q-6 -29 -35 -48t-64 -28t-63 -9q-24 0 -41.5 12z" />
    <glyph glyph-name="Amacron" unicode="&#x100;" horiz-adv-x="788" 
d="M-29 9.5q-11 10.5 -11 26.5q0 5 2 13q5 28 49 53q24 11 41 28t32 46q74 137 210 357q24 38 24 63q0 9 -2 13q-7 18 -7 33q0 5 2 17q3 17 21.5 31t53.5 14h100q51 0 78.5 -14.5t39 -38.5t19.5 -65q46 -243 68 -415q4 -27 11 -41t22 -24q10 -10 14.5 -17.5t4.5 -20.5
q0 -38 -24.5 -53t-54.5 -15h-211q-85 0 -85 40q0 29 30 53q21 14 29.5 24t7.5 30l-2 14q-1 16 -12.5 24t-30.5 8h-147q-20 0 -31 -5t-21 -20l-6 -12q-11 -22 -11 -34q0 -15 16 -25q11 -8 16.5 -15.5t5.5 -20.5q0 -8 -1 -12q-5 -25 -24 -37.5t-45 -12.5h-135q-25 0 -36 10.5z
M390 285q16 0 25 8.5t8 22.5q-9 92 -20 160q-3 18 -18 18q-14 0 -25 -18q-51 -89 -92 -164q-4 -7 -4 -13q0 -14 26 -14h100zM311.5 748q-8.5 3 -8.5 12q0 11 12 33q15 29 25 38.5t29 9.5q100 -1 244 -1q19 0 19 -14q0 -10 -11 -32q-14 -31 -24 -40.5t-31 -9.5l-226 1
q-20 0 -28.5 3z" />
    <glyph glyph-name="amacron" unicode="&#x101;" horiz-adv-x="659" 
d="M38.5 30.5q-35.5 42.5 -35.5 112.5q0 88 36 173t105.5 140t162.5 55q45 0 88 -15q31 -10 65 -10q24 0 57 11q6 2 18 6.5t21.5 6.5t20.5 2q17 0 24 -11t4 -26l-61 -285q-2 -8 -2 -20q0 -20 14 -20t35 16q9 6 17 6q9 0 15.5 -8.5t6.5 -22.5q0 -20 -12 -41
q-23 -45 -69.5 -78.5t-103.5 -33.5q-54 0 -84 31t-30 74q0 15 -7 15q-5 0 -13 -11q-31 -47 -68.5 -78t-92.5 -31q-76 0 -111.5 42.5zM310.5 179q21.5 27 32.5 70q25 94 25 128q0 25 -9 35.5t-25 10.5q-26 0 -49.5 -35.5t-37.5 -85t-14 -86.5q0 -64 32 -64q24 0 45.5 27z
M254.5 588q-8.5 3 -8.5 12q0 11 12 33q15 29 25 38.5t29 9.5q100 -1 244 -1q19 0 19 -14q0 -10 -11 -32q-14 -31 -24 -40.5t-31 -9.5l-226 1q-20 0 -28.5 3z" />
    <glyph glyph-name="Abreve" unicode="&#x102;" horiz-adv-x="788" 
d="M-29 9.5q-11 10.5 -11 26.5q0 5 2 13q5 28 49 53q24 11 41 28t32 46q74 137 210 357q24 38 24 63q0 9 -2 13q-7 18 -7 33q0 5 2 17q3 17 21.5 31t53.5 14h100q51 0 78.5 -14.5t39 -38.5t19.5 -65q46 -243 68 -415q4 -27 11 -41t22 -24q10 -10 14.5 -17.5t4.5 -20.5
q0 -38 -24.5 -53t-54.5 -15h-211q-85 0 -85 40q0 29 30 53q21 14 29.5 24t7.5 30l-2 14q-1 16 -12.5 24t-30.5 8h-147q-20 0 -31 -5t-21 -20l-6 -12q-11 -22 -11 -34q0 -15 16 -25q11 -8 16.5 -15.5t5.5 -20.5q0 -8 -1 -12q-5 -25 -24 -37.5t-45 -12.5h-135q-25 0 -36 10.5z
M390 285q16 0 25 8.5t8 22.5q-9 92 -20 160q-3 18 -18 18q-14 0 -25 -18q-51 -89 -92 -164q-4 -7 -4 -13q0 -14 26 -14h100zM347.5 762.5q-41.5 36.5 -41.5 93.5q0 14 3 29q5 23 23 23q8 0 18 -12q24 -31 53.5 -49.5t72.5 -18.5q39 0 72 15.5t66 43.5q11 10 22.5 15.5
t17.5 5.5q17 0 12 -21q-9 -44 -41 -81t-77.5 -58.5t-93.5 -21.5q-65 0 -106.5 36.5z" />
    <glyph glyph-name="abreve" unicode="&#x103;" horiz-adv-x="659" 
d="M38.5 30.5q-35.5 42.5 -35.5 112.5q0 88 36 173t105.5 140t162.5 55q45 0 88 -15q31 -10 65 -10q24 0 57 11q6 2 18 6.5t21.5 6.5t20.5 2q17 0 24 -11t4 -26l-61 -285q-2 -8 -2 -20q0 -20 14 -20t35 16q9 6 17 6q9 0 15.5 -8.5t6.5 -22.5q0 -20 -12 -41
q-23 -45 -69.5 -78.5t-103.5 -33.5q-54 0 -84 31t-30 74q0 15 -7 15q-5 0 -13 -11q-31 -47 -68.5 -78t-92.5 -31q-76 0 -111.5 42.5zM310.5 179q21.5 27 32.5 70q25 94 25 128q0 25 -9 35.5t-25 10.5q-26 0 -49.5 -35.5t-37.5 -85t-14 -86.5q0 -64 32 -64q24 0 45.5 27z
M285.5 584.5q-41.5 36.5 -41.5 93.5q0 14 3 29q5 23 23 23q8 0 18 -12q24 -31 53.5 -49.5t72.5 -18.5q39 0 72 15.5t66 43.5q11 10 22.5 15.5t17.5 5.5q17 0 12 -21q-9 -44 -41 -81t-77.5 -58.5t-93.5 -21.5q-65 0 -106.5 36.5z" />
    <glyph glyph-name="Aogonek" unicode="&#x104;" horiz-adv-x="788" 
d="M738.5 88.5q4.5 -7.5 4.5 -20.5q0 -38 -24.5 -53t-54.5 -15h-74q-34 -26 -51.5 -44.5t-17.5 -39.5t23 -21q18 0 46 14q4 2 8 2q16 0 16 -15q0 -17 -17 -35.5t-47 -30.5t-67 -12q-36 0 -55.5 15.5t-19.5 44.5q0 72 90 122h-45q-85 0 -85 40q0 29 30 53q21 14 29.5 24
t7.5 30l-2 14q-1 16 -12.5 24t-30.5 8h-147q-20 0 -31 -5t-21 -20l-6 -12q-11 -22 -11 -34q0 -15 16 -25q11 -8 16.5 -15.5t5.5 -20.5q0 -8 -1 -12q-5 -25 -24 -37.5t-45 -12.5h-135q-25 0 -36 10.5t-11 26.5q0 5 2 13q5 28 49 53q24 11 41 28t32 46q74 137 210 357
q24 38 24 63q0 9 -2 13q-7 18 -7 33q0 5 2 17q3 17 21.5 31t53.5 14h100q51 0 78.5 -14.5t39 -38.5t19.5 -65q46 -243 68 -415q4 -27 11 -41t22 -24q10 -10 14.5 -17.5zM390 285q16 0 25 8.5t8 22.5q-9 92 -20 160q-3 18 -18 18q-14 0 -25 -18q-51 -89 -92 -164
q-4 -7 -4 -13q0 -14 26 -14h100z" />
    <glyph glyph-name="aogonek" unicode="&#x105;" horiz-adv-x="659" 
d="M608 172q9 0 15.5 -8.5t6.5 -22.5q0 -20 -12 -41q-14 -27 -37.5 -51.5t-53.5 -39.5q-34 -27 -51 -45t-17 -39t23 -21q18 0 46 14q4 2 8 2q16 0 16 -15q0 -17 -17 -35.5t-47 -30.5t-67 -12q-36 0 -55.5 15.5t-19.5 44.5q0 58 64 105q-38 10 -58.5 38t-20.5 63q0 15 -7 15
q-5 0 -13 -11q-31 -47 -68.5 -78t-92.5 -31q-76 0 -111.5 42.5t-35.5 112.5q0 88 36 173t105.5 140t162.5 55q45 0 88 -15q31 -10 65 -10q24 0 57 11q6 2 18 6.5t21.5 6.5t20.5 2q17 0 24 -11t4 -26l-61 -285q-2 -8 -2 -20q0 -20 14 -20t35 16q9 6 17 6zM368 377
q0 25 -9 35.5t-25 10.5q-26 0 -49.5 -35.5t-37.5 -85t-14 -86.5q0 -64 32 -64q24 0 45.5 27t32.5 70q25 94 25 128z" />
    <glyph glyph-name="Cacute" unicode="&#x106;" horiz-adv-x="685" 
d="M166.5 24q-65.5 36 -101.5 101t-36 149q0 109 56 210t154.5 164.5t218.5 63.5q71 0 129.5 -21.5t92.5 -59.5t34 -86q0 -29 -15 -58.5t-44.5 -49t-70.5 -19.5q-38 0 -63.5 22t-41.5 82q-8 31 -23.5 47t-43.5 16q-39 0 -64 -35.5t-36 -86t-11 -96.5q0 -81 33.5 -129
t103.5 -48q52 0 91.5 20t62.5 50q19 19 41 19q18 0 29 -13t9 -36q-6 -50 -52 -107t-124.5 -96t-175.5 -39q-87 0 -152.5 36zM357 743q0 13 9.5 28.5t29.5 42.5l24 33q18 26 46 33.5t77 7.5q45 0 60 -8.5t11 -27.5q-4 -23 -49.5 -52.5t-101 -51.5t-79.5 -22q-27 0 -27 17z
" />
    <glyph glyph-name="cacute" unicode="&#x107;" horiz-adv-x="517" 
d="M69 42.5q-59 54.5 -59 146.5q0 82 44 157.5t118.5 121.5t161.5 46q52 0 96 -17t69.5 -47.5t25.5 -69.5t-22 -64t-59 -25q-25 0 -39.5 9t-21.5 22t-18 41q-7 25 -17 36.5t-25 11.5q-35 0 -55.5 -48.5t-20.5 -118.5q0 -50 20.5 -79.5t59.5 -29.5q23 0 47 11.5t44 28.5
q20 15 36 15q15 0 23 -11.5t5 -31.5q-8 -33 -37 -69.5t-83.5 -63t-133.5 -26.5q-100 0 -159 54.5zM269 580q0 14 16.5 45.5t43.5 75.5q16 27 39.5 34t71.5 7q45 0 61 -8t13 -28q-4 -23 -47 -57.5t-95 -61.5t-75 -27q-28 0 -28 20z" />
    <glyph glyph-name="Ccircumflex" unicode="&#x108;" horiz-adv-x="685" 
d="M166.5 24q-65.5 36 -101.5 101t-36 149q0 109 56 210t154.5 164.5t218.5 63.5q71 0 129.5 -21.5t92.5 -59.5t34 -86q0 -29 -15 -58.5t-44.5 -49t-70.5 -19.5q-38 0 -63.5 22t-41.5 82q-8 31 -23.5 47t-43.5 16q-39 0 -64 -35.5t-36 -86t-11 -96.5q0 -81 33.5 -129
t103.5 -48q52 0 91.5 20t62.5 50q19 19 41 19q18 0 29 -13t9 -36q-6 -50 -52 -107t-124.5 -96t-175.5 -39q-87 0 -152.5 36zM305 734.5q-7 7.5 -7 16.5q0 39 146 129q40 23 64 23q15 0 27.5 -5.5t27.5 -17.5q43 -36 70 -69t22 -56q-2 -9 -12.5 -18.5t-20.5 -9.5
q-12 0 -23.5 4.5t-32.5 16.5q-65 36 -84 36q-16 0 -98 -36q-43 -21 -63 -21q-9 0 -16 7.5z" />
    <glyph glyph-name="ccircumflex" unicode="&#x109;" horiz-adv-x="517" 
d="M69 42.5q-59 54.5 -59 146.5q0 82 44 157.5t118.5 121.5t161.5 46q52 0 96 -17t69.5 -47.5t25.5 -69.5t-22 -64t-59 -25q-25 0 -39.5 9t-21.5 22t-18 41q-7 25 -17 36.5t-25 11.5q-35 0 -55.5 -48.5t-20.5 -118.5q0 -50 20.5 -79.5t59.5 -29.5q23 0 47 11.5t44 28.5
q20 15 36 15q15 0 23 -11.5t5 -31.5q-8 -33 -37 -69.5t-83.5 -63t-133.5 -26.5q-100 0 -159 54.5zM163.5 558.5q-6.5 7.5 -6.5 16.5q0 26 44 64.5t103 74.5q33 18 63 18q17 0 29.5 -4t26.5 -14q37 -31 64.5 -70.5t27.5 -64.5q0 -10 -9.5 -19t-22.5 -9q-15 0 -28.5 4.5
t-29.5 16.5q-63 46 -82 46q-6 0 -30 -10t-70 -36q-38 -21 -61 -21q-12 0 -18.5 7.5z" />
    <glyph glyph-name="Cdotaccent" unicode="&#x10a;" horiz-adv-x="685" 
d="M166.5 24q-65.5 36 -101.5 101t-36 149q0 109 56 210t154.5 164.5t218.5 63.5q71 0 129.5 -21.5t92.5 -59.5t34 -86q0 -29 -15 -58.5t-44.5 -49t-70.5 -19.5q-38 0 -63.5 22t-41.5 82q-8 31 -23.5 47t-43.5 16q-39 0 -64 -35.5t-36 -86t-11 -96.5q0 -81 33.5 -129
t103.5 -48q52 0 91.5 20t62.5 50q19 19 41 19q18 0 29 -13t9 -36q-6 -50 -52 -107t-124.5 -96t-175.5 -39q-87 0 -152.5 36zM396 738q-16 11 -16 28q0 26 23 49t61 36.5t79 13.5q30 0 45 -11t15 -29q0 -25 -22.5 -48t-59.5 -36.5t-78 -13.5q-31 0 -47 11z" />
    <glyph glyph-name="cdotaccent" unicode="&#x10b;" horiz-adv-x="517" 
d="M69 42.5q-59 54.5 -59 146.5q0 82 44 157.5t118.5 121.5t161.5 46q52 0 96 -17t69.5 -47.5t25.5 -69.5t-22 -64t-59 -25q-25 0 -39.5 9t-21.5 22t-18 41q-7 25 -17 36.5t-25 11.5q-35 0 -55.5 -48.5t-20.5 -118.5q0 -50 20.5 -79.5t59.5 -29.5q23 0 47 11.5t44 28.5
q20 15 36 15q15 0 23 -11.5t5 -31.5q-8 -33 -37 -69.5t-83.5 -63t-133.5 -26.5q-100 0 -159 54.5zM230.5 577.5q-20.5 14.5 -20.5 36.5q0 8 1 12q6 30 36.5 55.5t76 40.5t95.5 15q35 0 53.5 -14t18.5 -37q0 -8 -1 -12q-6 -30 -35.5 -55t-73 -40.5t-91.5 -15.5
q-39 0 -59.5 14.5z" />
    <glyph glyph-name="Ccaron" unicode="&#x10c;" horiz-adv-x="685" 
d="M166.5 24q-65.5 36 -101.5 101t-36 149q0 109 56 210t154.5 164.5t218.5 63.5q71 0 129.5 -21.5t92.5 -59.5t34 -86q0 -29 -15 -58.5t-44.5 -49t-70.5 -19.5q-38 0 -63.5 22t-41.5 82q-8 31 -23.5 47t-43.5 16q-39 0 -64 -35.5t-36 -86t-11 -96.5q0 -81 33.5 -129
t103.5 -48q52 0 91.5 20t62.5 50q19 19 41 19q18 0 29 -13t9 -36q-6 -50 -52 -107t-124.5 -96t-175.5 -39q-87 0 -152.5 36zM411 879q36 -20 56.5 -28t25.5 -8q18 0 99 36q21 10 37.5 16t27.5 6q9 0 15.5 -8t6.5 -17q0 -39 -146 -129q-39 -23 -65 -23t-53 23
q-43 34 -70.5 68t-23.5 57q2 10 13 19.5t22 9.5q18 0 55 -22z" />
    <glyph glyph-name="ccaron" unicode="&#x10d;" horiz-adv-x="517" 
d="M69 42.5q-59 54.5 -59 146.5q0 82 44 157.5t118.5 121.5t161.5 46q52 0 96 -17t69.5 -47.5t25.5 -69.5t-22 -64t-59 -25q-25 0 -39.5 9t-21.5 22t-18 41q-7 25 -17 36.5t-25 11.5q-35 0 -55.5 -48.5t-20.5 -118.5q0 -50 20.5 -79.5t59.5 -29.5q23 0 47 11.5t44 28.5
q20 15 36 15q15 0 23 -11.5t5 -31.5q-8 -33 -37 -69.5t-83.5 -63t-133.5 -26.5q-100 0 -159 54.5zM272 710q35 -26 54 -36t25 -10q8 0 32 9.5t71 36.5q38 21 64 21q11 0 17 -7t6 -16q-1 -27 -45 -65.5t-104 -74.5q-30 -19 -63 -19q-34 0 -56 19q-37 29 -64 69t-27 65
q0 12 8.5 20.5t21.5 8.5q32 0 60 -21z" />
    <glyph glyph-name="Dcaron" unicode="&#x10e;" horiz-adv-x="786" 
d="M175 -5q-72 5 -133 5q-36 0 -51 7.5t-15 26.5q0 36 39 63q25 18 36.5 39.5t22.5 77.5l59 272q10 43 10 65q0 31 -21 52t-19 39q3 28 22 43t65 15q34 0 144 5q74 4 101 4q174 0 269 -69.5t95 -203.5q0 -128 -57.5 -228.5t-173 -158.5t-281.5 -58q-32 0 -112 4zM459.5 166
q46.5 57 69 135.5t22.5 141.5q0 74 -33.5 115t-93.5 41q-17 0 -29.5 -9t-16.5 -27l-85 -400q-2 -7 -2 -19q0 -19 13 -27t42 -8q67 0 113.5 57zM371 879q36 -20 56.5 -28t25.5 -8q18 0 99 36q21 10 37.5 16t27.5 6q9 0 15.5 -8t6.5 -17q0 -39 -146 -129q-39 -23 -65 -23
t-53 23q-43 34 -70.5 68t-23.5 57q2 10 13 19.5t22 9.5q18 0 55 -22z" />
    <glyph glyph-name="dcaron" unicode="&#x10f;" horiz-adv-x="729" 
d="M39 30.5q-36 42.5 -36 111.5q0 89 35 174t102 140t159 55q37 0 61.5 -10t28.5 -10t7 10l5 25q2 10 2 15q0 22 -17 35q-5 3 -14 8t-13.5 10.5t-4.5 12.5q0 21 15 30.5t52 23.5q122 45 181 45q25 0 35 -6t10 -22q0 -4 -2 -16l-102 -485q-1 -4 -1 -12q0 -15 12 -15
q10 0 17.5 3t18.5 11q8 7 18 7t16.5 -8.5t6.5 -22.5q0 -20 -12 -40q-25 -46 -70.5 -79t-102.5 -33q-55 0 -84.5 32t-29.5 76q0 13 -6 13q-5 0 -13 -11q-72 -110 -162 -110q-76 0 -112 42.5zM311 178.5q21 26.5 33 70.5q25 87 25 128q0 25 -9 35.5t-25 10.5q-26 0 -49 -35
t-37.5 -84t-14.5 -87q0 -30 8 -47.5t24 -17.5q24 0 45 26.5zM644.5 563.5q1.5 46.5 10.5 89.5q6 27 23 39.5t55 12.5q58 0 58 -41q0 -8 -1 -12q-13 -56 -41 -122t-31 -74q-5 -11 -17 -17.5t-25 -6.5t-22.5 6.5t-10.5 17.5q0 61 1.5 107.5z" />
    <glyph glyph-name="Dcroat" unicode="&#x110;" horiz-adv-x="786" 
d="M704 639.5q95 -69.5 95 -203.5q0 -128 -57.5 -228.5t-173 -158.5t-281.5 -58q-32 0 -112 4q-72 5 -133 5q-36 0 -51 7.5t-15 26.5q0 36 39 63q25 18 36.5 39.5t22.5 77.5l15 67q0 17 -17 17h-29q-27 0 -27 27q0 12 2 19q5 22 15 32t28 10h29q20 0 26 24l2 5l1 7q0 2 1 3
l13 61q10 43 10 65q0 31 -21 52t-19 39q3 28 22 43t65 15q34 0 144 5q74 4 101 4q174 0 269 -69.5zM459.5 166q46.5 57 69 135.5t22.5 141.5q0 74 -33.5 115t-93.5 41q-17 0 -29.5 -9t-16.5 -27l-35 -166q2 -12 13 -12h91q29 0 29 -26q0 -4 -2 -16q-4 -23 -15 -33t-30 -10
h-90q-12 0 -19 -10l-27 -127q-2 -7 -2 -19q0 -19 13 -27t42 -8q67 0 113.5 57z" />
    <glyph glyph-name="dcroat" unicode="&#x111;" horiz-adv-x="651" 
d="M653 556q0 -5 -8 -15q-8 -12 -14.5 -17.5t-16.5 -7.5l-71 -339q-1 -4 -1 -12q0 -15 12 -15q10 0 17.5 3t18.5 11q8 7 18 7t16.5 -8.5t6.5 -22.5q0 -20 -12 -40q-25 -46 -70.5 -79t-102.5 -33q-55 0 -84.5 32t-29.5 76q0 13 -6 13q-5 0 -13 -11q-72 -110 -162 -110
q-76 0 -112 42.5t-36 111.5q0 89 35 174t102 140t159 55q37 0 61.5 -10t28.5 -10t7 10l3 14h-79q-21 0 -30 2t-9 7q0 4 10 16q13 15 22 20t28 5h56q-5 6 -11 11q-5 3 -14 8t-13.5 10.5t-4.5 12.5q0 21 15 30.5t52 23.5q122 45 181 45q25 0 35 -6t10 -22q0 -4 -2 -16l-21 -98
h8q21 0 21 -8zM369 377q0 25 -9 35.5t-25 10.5q-26 0 -49 -35t-37.5 -84t-14.5 -87q0 -30 8 -47.5t24 -17.5q24 0 45 26.5t33 70.5q25 87 25 128z" />
    <glyph glyph-name="Emacron" unicode="&#x112;" horiz-adv-x="667" 
d="M642 204q0 -40 -41 -122q-30 -60 -50.5 -80.5t-46.5 -20.5q-17 0 -42 7q-34 12 -80 12h-340q-35 0 -50.5 8t-15.5 27q0 22 10.5 36t28.5 26q25 18 36.5 39.5t22.5 77.5l59 272q9 47 9 68q0 17 -4.5 27.5t-15.5 21.5q-19 19 -19 38q0 6 1 10q6 27 25.5 38t60.5 11h319
q51 0 93 12q28 7 46 7q26 0 37.5 -20.5t15.5 -80.5q2 -17 2 -46q0 -117 -69 -117q-24 0 -37 12.5t-21 34.5q-11 40 -19.5 57.5t-25 26t-48.5 8.5h-61q-22 0 -32 -8t-16 -36l-24 -116q-1 -3 -1 -8q0 -10 14 -10h23q15 0 23 8t12 28q7 26 19 38.5t36 12.5q19 0 28.5 -9.5
t13 -33.5t4.5 -74q0 -56 -5 -85t-18 -42t-40 -13q-22 0 -32.5 10.5t-11.5 32.5q-2 16 -7.5 22t-24.5 6h-26q-16 0 -26.5 -11t-13.5 -27l-29 -131l-2 -16q0 -15 8.5 -20.5t28.5 -5.5h78q41 0 69 23t55 67q32 49 77 49q40 0 40 -41zM270.5 748q-8.5 3 -8.5 12q0 11 12 33
q15 29 25 38.5t29 9.5q100 -1 244 -1q19 0 19 -14q0 -10 -11 -32q-14 -31 -24 -40.5t-31 -9.5l-226 1q-20 0 -28.5 3z" />
    <glyph glyph-name="emacron" unicode="&#x113;" horiz-adv-x="508" 
d="M68.5 42q-59.5 54 -59.5 143q0 85 44.5 161t120.5 122t167 46q49 0 87 -17t59 -45.5t21 -62.5q-1 -49 -21.5 -81t-75 -54.5t-154.5 -36.5q-11 -2 -15.5 -6t-2.5 -14q12 -67 80 -67q29 0 51 12t48 34q17 12 32 12q14 0 23 -9t9 -23q0 -10 -4 -19q-25 -63 -85 -106
t-161 -43q-104 0 -163.5 54zM328.5 318q22.5 20 23.5 59q-1 27 -8 39.5t-24 12.5q-21 0 -39.5 -22.5t-29.5 -54t-12 -55.5q0 -14 8 -14q3 0 11 2q48 13 70.5 33zM194.5 588q-8.5 3 -8.5 12q0 11 12 33q15 29 25 38.5t29 9.5q100 -1 244 -1q19 0 19 -14q0 -10 -11 -32
q-14 -31 -24 -40.5t-31 -9.5l-226 1q-20 0 -28.5 3z" />
    <glyph glyph-name="Ebreve" unicode="&#x114;" horiz-adv-x="667" 
d="M642 204q0 -40 -41 -122q-30 -60 -50.5 -80.5t-46.5 -20.5q-17 0 -42 7q-34 12 -80 12h-340q-35 0 -50.5 8t-15.5 27q0 22 10.5 36t28.5 26q25 18 36.5 39.5t22.5 77.5l59 272q9 47 9 68q0 17 -4.5 27.5t-15.5 21.5q-19 19 -19 38q0 6 1 10q6 27 25.5 38t60.5 11h319
q51 0 93 12q28 7 46 7q26 0 37.5 -20.5t15.5 -80.5q2 -17 2 -46q0 -117 -69 -117q-24 0 -37 12.5t-21 34.5q-11 40 -19.5 57.5t-25 26t-48.5 8.5h-61q-22 0 -32 -8t-16 -36l-24 -116q-1 -3 -1 -8q0 -10 14 -10h23q15 0 23 8t12 28q7 26 19 38.5t36 12.5q19 0 28.5 -9.5
t13 -33.5t4.5 -74q0 -56 -5 -85t-18 -42t-40 -13q-22 0 -32.5 10.5t-11.5 32.5q-2 16 -7.5 22t-24.5 6h-26q-16 0 -26.5 -11t-13.5 -27l-29 -131l-2 -16q0 -15 8.5 -20.5t28.5 -5.5h78q41 0 69 23t55 67q32 49 77 49q40 0 40 -41zM305.5 762.5q-41.5 36.5 -41.5 93.5
q0 14 3 29q5 23 23 23q8 0 18 -12q24 -31 53.5 -49.5t72.5 -18.5q39 0 72 15.5t66 43.5q11 10 22.5 15.5t17.5 5.5q17 0 12 -21q-9 -44 -41 -81t-77.5 -58.5t-93.5 -21.5q-65 0 -106.5 36.5z" />
    <glyph glyph-name="ebreve" unicode="&#x115;" horiz-adv-x="508" 
d="M68.5 42q-59.5 54 -59.5 143q0 85 44.5 161t120.5 122t167 46q49 0 87 -17t59 -45.5t21 -62.5q-1 -49 -21.5 -81t-75 -54.5t-154.5 -36.5q-11 -2 -15.5 -6t-2.5 -14q12 -67 80 -67q29 0 51 12t48 34q17 12 32 12q14 0 23 -9t9 -23q0 -10 -4 -19q-25 -63 -85 -106
t-161 -43q-104 0 -163.5 54zM328.5 318q22.5 20 23.5 59q-1 27 -8 39.5t-24 12.5q-21 0 -39.5 -22.5t-29.5 -54t-12 -55.5q0 -14 8 -14q3 0 11 2q48 13 70.5 33zM226.5 584.5q-41.5 36.5 -41.5 93.5q0 14 3 29q5 23 23 23q8 0 18 -12q24 -31 53.5 -49.5t72.5 -18.5
q39 0 72 15.5t66 43.5q11 10 22.5 15.5t17.5 5.5q17 0 12 -21q-9 -44 -41 -81t-77.5 -58.5t-93.5 -21.5q-65 0 -106.5 36.5z" />
    <glyph glyph-name="Edotaccent" unicode="&#x116;" horiz-adv-x="667" 
d="M642 204q0 -40 -41 -122q-30 -60 -50.5 -80.5t-46.5 -20.5q-17 0 -42 7q-34 12 -80 12h-340q-35 0 -50.5 8t-15.5 27q0 22 10.5 36t28.5 26q25 18 36.5 39.5t22.5 77.5l59 272q9 47 9 68q0 17 -4.5 27.5t-15.5 21.5q-19 19 -19 38q0 6 1 10q6 27 25.5 38t60.5 11h319
q51 0 93 12q28 7 46 7q26 0 37.5 -20.5t15.5 -80.5q2 -17 2 -46q0 -117 -69 -117q-24 0 -37 12.5t-21 34.5q-11 40 -19.5 57.5t-25 26t-48.5 8.5h-61q-22 0 -32 -8t-16 -36l-24 -116q-1 -3 -1 -8q0 -10 14 -10h23q15 0 23 8t12 28q7 26 19 38.5t36 12.5q19 0 28.5 -9.5
t13 -33.5t4.5 -74q0 -56 -5 -85t-18 -42t-40 -13q-22 0 -32.5 10.5t-11.5 32.5q-2 16 -7.5 22t-24.5 6h-26q-16 0 -26.5 -11t-13.5 -27l-29 -131l-2 -16q0 -15 8.5 -20.5t28.5 -5.5h78q41 0 69 23t55 67q32 49 77 49q40 0 40 -41zM344 738q-16 11 -16 28q0 26 23 49t61 36.5
t79 13.5q30 0 45 -11t15 -29q0 -25 -22.5 -48t-59.5 -36.5t-78 -13.5q-31 0 -47 11z" />
    <glyph glyph-name="edotaccent" unicode="&#x117;" horiz-adv-x="508" 
d="M68.5 42q-59.5 54 -59.5 143q0 85 44.5 161t120.5 122t167 46q49 0 87 -17t59 -45.5t21 -62.5q-1 -49 -21.5 -81t-75 -54.5t-154.5 -36.5q-11 -2 -15.5 -6t-2.5 -14q12 -67 80 -67q29 0 51 12t48 34q17 12 32 12q14 0 23 -9t9 -23q0 -10 -4 -19q-25 -63 -85 -106
t-161 -43q-104 0 -163.5 54zM328.5 318q22.5 20 23.5 59q-1 27 -8 39.5t-24 12.5q-21 0 -39.5 -22.5t-29.5 -54t-12 -55.5q0 -14 8 -14q3 0 11 2q48 13 70.5 33zM234.5 574.5q-20.5 14.5 -20.5 36.5q0 8 1 12q6 30 36.5 55.5t76 40.5t95.5 15q35 0 53.5 -14t18.5 -37
q0 -8 -1 -12q-6 -30 -35.5 -55t-73 -40.5t-91.5 -15.5q-39 0 -59.5 14.5z" />
    <glyph glyph-name="Eogonek" unicode="&#x118;" horiz-adv-x="667" 
d="M350 434q-1 -3 -1 -8q0 -10 14 -10h23q15 0 23 8t12 28q7 26 19 38.5t36 12.5q19 0 28.5 -9.5t13 -33.5t4.5 -74q0 -56 -5 -85t-18 -42t-40 -13q-22 0 -32.5 10.5t-11.5 32.5q-2 16 -7.5 22t-24.5 6h-26q-16 0 -26.5 -11t-13.5 -27l-29 -131l-2 -16q0 -15 8.5 -20.5
t28.5 -5.5h78q41 0 69 23t55 67q32 49 77 49q40 0 40 -41q0 -40 -41 -122q-22 -43 -38 -65t-32 -30q-27 -21 -44 -40t-17 -38q0 -21 23 -21q18 0 46 14q4 2 8 2q16 0 16 -15q0 -17 -17 -35.5t-47 -30.5t-67 -12q-36 0 -55.5 15.5t-19.5 44.5q0 72 90 122q-26 7 -65 7h-340
q-35 0 -50.5 8t-15.5 27q0 22 10.5 36t28.5 26q25 18 36.5 39.5t22.5 77.5l59 272q9 47 9 68q0 17 -4.5 27.5t-15.5 21.5q-19 19 -19 38q0 6 1 10q6 27 25.5 38t60.5 11h319q51 0 93 12q28 7 46 7q26 0 37.5 -20.5t15.5 -80.5q2 -17 2 -46q0 -117 -69 -117q-24 0 -37 12.5
t-21 34.5q-11 40 -19.5 57.5t-25 26t-48.5 8.5h-61q-22 0 -32 -8t-16 -36z" />
    <glyph glyph-name="eogonek" unicode="&#x119;" horiz-adv-x="508" 
d="M450 188q14 0 23 -9t9 -23q0 -10 -4 -19q-16 -40 -47.5 -74t-79.5 -54q-25 -20 -39.5 -37t-14.5 -35q0 -21 23 -21q18 0 46 14q4 2 8 2q16 0 16 -15q0 -17 -17 -35.5t-47 -30.5t-67 -12q-36 0 -55.5 15.5t-19.5 44.5q0 47 44 89q-102 1 -160.5 55t-58.5 142
q0 85 44.5 161t120.5 122t167 46q49 0 87 -17t59 -45.5t21 -62.5q-1 -49 -21.5 -81t-75 -54.5t-154.5 -36.5q-11 -2 -15.5 -6t-2.5 -14q12 -67 80 -67q29 0 51 12t48 34q17 12 32 12zM280.5 406.5q-18.5 -22.5 -29.5 -54t-12 -55.5q0 -14 8 -14q3 0 11 2q48 13 70.5 33
t23.5 59q-1 27 -8 39.5t-24 12.5q-21 0 -39.5 -22.5z" />
    <glyph glyph-name="Ecaron" unicode="&#x11a;" horiz-adv-x="667" 
d="M642 204q0 -40 -41 -122q-30 -60 -50.5 -80.5t-46.5 -20.5q-17 0 -42 7q-34 12 -80 12h-340q-35 0 -50.5 8t-15.5 27q0 22 10.5 36t28.5 26q25 18 36.5 39.5t22.5 77.5l59 272q9 47 9 68q0 17 -4.5 27.5t-15.5 21.5q-19 19 -19 38q0 6 1 10q6 27 25.5 38t60.5 11h319
q51 0 93 12q28 7 46 7q26 0 37.5 -20.5t15.5 -80.5q2 -17 2 -46q0 -117 -69 -117q-24 0 -37 12.5t-21 34.5q-11 40 -19.5 57.5t-25 26t-48.5 8.5h-61q-22 0 -32 -8t-16 -36l-24 -116q-1 -3 -1 -8q0 -10 14 -10h23q15 0 23 8t12 28q7 26 19 38.5t36 12.5q19 0 28.5 -9.5
t13 -33.5t4.5 -74q0 -56 -5 -85t-18 -42t-40 -13q-22 0 -32.5 10.5t-11.5 32.5q-2 16 -7.5 22t-24.5 6h-26q-16 0 -26.5 -11t-13.5 -27l-29 -131l-2 -16q0 -15 8.5 -20.5t28.5 -5.5h78q41 0 69 23t55 67q32 49 77 49q40 0 40 -41zM360 879q36 -20 56.5 -28t25.5 -8
q18 0 99 36q21 10 37.5 16t27.5 6q9 0 15.5 -8t6.5 -17q0 -39 -146 -129q-39 -23 -65 -23t-53 23q-43 34 -70.5 68t-23.5 57q2 10 13 19.5t22 9.5q18 0 55 -22z" />
    <glyph glyph-name="ecaron" unicode="&#x11b;" horiz-adv-x="508" 
d="M68.5 42q-59.5 54 -59.5 143q0 85 44.5 161t120.5 122t167 46q49 0 87 -17t59 -45.5t21 -62.5q-1 -49 -21.5 -81t-75 -54.5t-154.5 -36.5q-11 -2 -15.5 -6t-2.5 -14q12 -67 80 -67q29 0 51 12t48 34q17 12 32 12q14 0 23 -9t9 -23q0 -10 -4 -19q-25 -63 -85 -106
t-161 -43q-104 0 -163.5 54zM328.5 318q22.5 20 23.5 59q-1 27 -8 39.5t-24 12.5q-21 0 -39.5 -22.5t-29.5 -54t-12 -55.5q0 -14 8 -14q3 0 11 2q48 13 70.5 33zM275 707q35 -26 54 -36t25 -10q8 0 32 9.5t71 36.5q38 21 64 21q11 0 17 -7t6 -16q-1 -27 -45 -65.5
t-104 -74.5q-30 -19 -63 -19q-34 0 -56 19q-37 29 -64 69t-27 65q0 12 8.5 20.5t21.5 8.5q32 0 60 -21z" />
    <glyph glyph-name="Gcircumflex" unicode="&#x11c;" horiz-adv-x="747" 
d="M175 21.5q-70 33.5 -108.5 97t-38.5 150.5q0 110 58.5 213t158.5 166.5t217 63.5q76 0 138 -21t97.5 -59t35.5 -87q0 -33 -15 -64t-45.5 -50.5t-74.5 -19.5q-43 0 -69.5 22t-41.5 81q-8 36 -25 54.5t-48 18.5q-42 0 -67.5 -40.5t-36.5 -97t-11 -107.5q0 -88 29 -146
t83 -58q27 0 44 11.5t20 28.5l2 11q2 14 2 18q0 11 -6 18.5t-21 15.5q-12 6 -18.5 16.5t-6.5 23.5q0 32 19.5 46t65.5 16q62 2 100 2q32 0 82 -2q32 -2 45 -9t13 -24q0 -22 -9.5 -34t-32.5 -31q-15 -11 -23 -24t-14 -39l-4 -19q-10 -49 -50.5 -88.5t-111.5 -63t-169 -23.5
q-93 0 -163 33.5zM317 734.5q-7 7.5 -7 16.5q0 39 146 129q40 23 64 23q15 0 27.5 -5.5t27.5 -17.5q43 -36 70 -69t22 -56q-2 -9 -12.5 -18.5t-20.5 -9.5q-12 0 -23.5 4.5t-32.5 16.5q-65 36 -84 36q-16 0 -98 -36q-43 -21 -63 -21q-9 0 -16 7.5z" />
    <glyph glyph-name="gcircumflex" unicode="&#x11d;" horiz-adv-x="602" 
d="M13 -152q-26 13 -39 34.5t-13 45.5q0 32 20.5 56t53.5 24q54 0 88 -50q16 -23 33.5 -33t50.5 -10q50 0 78 38t44 113l8 37q1 3 1 9q0 8 -5 8q-6 0 -14 -10q-31 -41 -69 -67t-95 -26q-77 0 -113.5 38.5t-36.5 105.5q0 83 36.5 164t103.5 133.5t154 52.5q42 0 96 -14
q14 -5 32 -8t29 -3q21 0 38 5t21 6q7 2 20 6.5t23 6.5t20 2q14 0 21.5 -7.5t7.5 -19.5q0 -7 -1 -10l-85 -402q-31 -146 -128.5 -200.5t-209.5 -54.5q-110 0 -170 30zM318 197q18 23 28 61l5 20q9 35 14 60t5 42q0 24 -8.5 33.5t-24.5 9.5q-26 0 -49.5 -33t-37.5 -79.5
t-14 -80.5q0 -56 41 -56q23 0 41 23zM215.5 555.5q-6.5 7.5 -6.5 16.5q0 26 44 64.5t103 74.5q33 18 63 18q17 0 29.5 -4t26.5 -14q37 -31 64.5 -70.5t27.5 -64.5q0 -10 -9.5 -19t-22.5 -9q-15 0 -28.5 4.5t-29.5 16.5q-63 46 -82 46q-6 0 -30 -10t-70 -36q-38 -21 -61 -21
q-12 0 -18.5 7.5z" />
    <glyph glyph-name="Gbreve" unicode="&#x11e;" horiz-adv-x="747" 
d="M175 21.5q-70 33.5 -108.5 97t-38.5 150.5q0 110 58.5 213t158.5 166.5t217 63.5q76 0 138 -21t97.5 -59t35.5 -87q0 -33 -15 -64t-45.5 -50.5t-74.5 -19.5q-43 0 -69.5 22t-41.5 81q-8 36 -25 54.5t-48 18.5q-42 0 -67.5 -40.5t-36.5 -97t-11 -107.5q0 -88 29 -146
t83 -58q27 0 44 11.5t20 28.5l2 11q2 14 2 18q0 11 -6 18.5t-21 15.5q-12 6 -18.5 16.5t-6.5 23.5q0 32 19.5 46t65.5 16q62 2 100 2q32 0 82 -2q32 -2 45 -9t13 -24q0 -22 -9.5 -34t-32.5 -31q-15 -11 -23 -24t-14 -39l-4 -19q-10 -49 -50.5 -88.5t-111.5 -63t-169 -23.5
q-93 0 -163 33.5zM369.5 762.5q-41.5 36.5 -41.5 93.5q0 14 3 29q5 23 23 23q8 0 18 -12q24 -31 53.5 -49.5t72.5 -18.5q39 0 72 15.5t66 43.5q11 10 22.5 15.5t17.5 5.5q17 0 12 -21q-9 -44 -41 -81t-77.5 -58.5t-93.5 -21.5q-65 0 -106.5 36.5z" />
    <glyph glyph-name="gbreve" unicode="&#x11f;" horiz-adv-x="602" 
d="M13 -152q-26 13 -39 34.5t-13 45.5q0 32 20.5 56t53.5 24q54 0 88 -50q16 -23 33.5 -33t50.5 -10q50 0 78 38t44 113l8 37q1 3 1 9q0 8 -5 8q-6 0 -14 -10q-31 -41 -69 -67t-95 -26q-77 0 -113.5 38.5t-36.5 105.5q0 83 36.5 164t103.5 133.5t154 52.5q42 0 96 -14
q14 -5 32 -8t29 -3q21 0 38 5t21 6q7 2 20 6.5t23 6.5t20 2q14 0 21.5 -7.5t7.5 -19.5q0 -7 -1 -10l-85 -402q-31 -146 -128.5 -200.5t-209.5 -54.5q-110 0 -170 30zM318 197q18 23 28 61l5 20q9 35 14 60t5 42q0 24 -8.5 33.5t-24.5 9.5q-26 0 -49.5 -33t-37.5 -79.5
t-14 -80.5q0 -56 41 -56q23 0 41 23zM275.5 584.5q-41.5 36.5 -41.5 93.5q0 14 3 29q5 23 23 23q8 0 18 -12q24 -31 53.5 -49.5t72.5 -18.5q39 0 72 15.5t66 43.5q11 10 22.5 15.5t17.5 5.5q17 0 12 -21q-9 -44 -41 -81t-77.5 -58.5t-93.5 -21.5q-65 0 -106.5 36.5z" />
    <glyph glyph-name="Gdotaccent" unicode="&#x120;" horiz-adv-x="747" 
d="M175 21.5q-70 33.5 -108.5 97t-38.5 150.5q0 110 58.5 213t158.5 166.5t217 63.5q76 0 138 -21t97.5 -59t35.5 -87q0 -33 -15 -64t-45.5 -50.5t-74.5 -19.5q-43 0 -69.5 22t-41.5 81q-8 36 -25 54.5t-48 18.5q-42 0 -67.5 -40.5t-36.5 -97t-11 -107.5q0 -88 29 -146
t83 -58q27 0 44 11.5t20 28.5l2 11q2 14 2 18q0 11 -6 18.5t-21 15.5q-12 6 -18.5 16.5t-6.5 23.5q0 32 19.5 46t65.5 16q62 2 100 2q32 0 82 -2q32 -2 45 -9t13 -24q0 -22 -9.5 -34t-32.5 -31q-15 -11 -23 -24t-14 -39l-4 -19q-10 -49 -50.5 -88.5t-111.5 -63t-169 -23.5
q-93 0 -163 33.5zM408 738q-16 11 -16 28q0 26 23 49t61 36.5t79 13.5q30 0 45 -11t15 -29q0 -25 -22.5 -48t-59.5 -36.5t-78 -13.5q-31 0 -47 11z" />
    <glyph glyph-name="gdotaccent" unicode="&#x121;" horiz-adv-x="602" 
d="M13 -152q-26 13 -39 34.5t-13 45.5q0 32 20.5 56t53.5 24q54 0 88 -50q16 -23 33.5 -33t50.5 -10q50 0 78 38t44 113l8 37q1 3 1 9q0 8 -5 8q-6 0 -14 -10q-31 -41 -69 -67t-95 -26q-77 0 -113.5 38.5t-36.5 105.5q0 83 36.5 164t103.5 133.5t154 52.5q42 0 96 -14
q14 -5 32 -8t29 -3q21 0 38 5t21 6q7 2 20 6.5t23 6.5t20 2q14 0 21.5 -7.5t7.5 -19.5q0 -7 -1 -10l-85 -402q-31 -146 -128.5 -200.5t-209.5 -54.5q-110 0 -170 30zM318 197q18 23 28 61l5 20q9 35 14 60t5 42q0 24 -8.5 33.5t-24.5 9.5q-26 0 -49.5 -33t-37.5 -79.5
t-14 -80.5q0 -56 41 -56q23 0 41 23zM283.5 574.5q-20.5 14.5 -20.5 36.5q0 8 1 12q6 30 36.5 55.5t76 40.5t95.5 15q35 0 53.5 -14t18.5 -37q0 -8 -1 -12q-6 -30 -35.5 -55t-73 -40.5t-91.5 -15.5q-39 0 -59.5 14.5z" />
    <glyph glyph-name="uni0122" unicode="&#x122;" horiz-adv-x="747" 
d="M175 21.5q-70 33.5 -108.5 97t-38.5 150.5q0 110 58.5 213t158.5 166.5t217 63.5q76 0 138 -21t97.5 -59t35.5 -87q0 -33 -15 -64t-45.5 -50.5t-74.5 -19.5q-43 0 -69.5 22t-41.5 81q-8 36 -25 54.5t-48 18.5q-42 0 -67.5 -40.5t-36.5 -97t-11 -107.5q0 -88 29 -146
t83 -58q27 0 44 11.5t20 28.5l2 11q2 14 2 18q0 11 -6 18.5t-21 15.5q-12 6 -18.5 16.5t-6.5 23.5q0 32 19.5 46t65.5 16q62 2 100 2q32 0 82 -2q32 -2 45 -9t13 -24q0 -22 -9.5 -34t-32.5 -31q-15 -11 -23 -24t-14 -39l-4 -19q-10 -49 -50.5 -88.5t-111.5 -63t-169 -23.5
q-93 0 -163 33.5zM252.5 -186q-3.5 3 -3.5 8q0 4 3.5 8.5t9.5 6.5q13 4 23 13t12 17v4q0 6 -8 8q-24 6 -24 32q0 25 20 45t49 20q21 0 32.5 -11t11.5 -33q0 -13 -2 -21q-7 -30 -27 -52.5t-44.5 -35t-43.5 -12.5q-5 0 -8.5 3z" />
    <glyph glyph-name="uni0123" unicode="&#x123;" horiz-adv-x="602" 
d="M13 -152q-26 13 -39 34.5t-13 45.5q0 32 20.5 56t53.5 24q54 0 88 -50q16 -23 33.5 -33t50.5 -10q50 0 78 38t44 113l8 37q1 3 1 9q0 8 -5 8q-6 0 -14 -10q-31 -41 -69 -67t-95 -26q-77 0 -113.5 38.5t-36.5 105.5q0 83 36.5 164t103.5 133.5t154 52.5q42 0 96 -14
q14 -5 32 -8t29 -3q21 0 38 5t21 6q7 2 20 6.5t23 6.5t20 2q14 0 21.5 -7.5t7.5 -19.5q0 -7 -1 -10l-85 -402q-31 -146 -128.5 -200.5t-209.5 -54.5q-110 0 -170 30zM318 197q18 23 28 61l5 20q9 35 14 60t5 42q0 24 -8.5 33.5t-24.5 9.5q-26 0 -49.5 -33t-37.5 -79.5
t-14 -80.5q0 -56 41 -56q23 0 41 23zM490.5 775.5q4.5 -4.5 4.5 -10.5q0 -13 -16 -19q-19 -6 -33 -17.5t-16 -23.5v-4q0 -8 12 -13q13 -3 22.5 -13t9.5 -29q0 -33 -27.5 -60t-65.5 -27q-28 0 -43.5 15t-15.5 43q0 9 4 29q8 40 35 70.5t59.5 47t58.5 16.5q7 0 11.5 -4.5z" />
    <glyph glyph-name="Hcircumflex" unicode="&#x124;" horiz-adv-x="817" 
d="M-8.5 8q-15.5 8 -15.5 27q0 22 10.5 36t28.5 26q25 17 36 39t23 78l59 272q10 52 10 68t-5 27t-16 22q-19 19 -19 38q0 6 1 10q6 27 25.5 38t60.5 11h202q36 0 51.5 -7.5t15.5 -26.5q0 -22 -11 -36.5t-29 -26.5q-24 -17 -34.5 -36.5t-20.5 -63.5l-7 -28q-3 -12 -3 -22
q0 -20 11 -28.5t32 -8.5h93q26 0 42 14t24 47l6 29q7 28 7 47q0 16 -5.5 27.5t-16.5 22.5q-18 18 -18 37q0 7 1 11q6 27 25 38t60 11h202q36 0 51.5 -7.5t15.5 -26.5q0 -22 -11 -36.5t-29 -26.5q-25 -18 -36 -39.5t-23 -77.5l-58 -272q-10 -44 -10 -68q0 -17 5 -27.5
t16 -21.5q18 -18 18 -37q0 -7 -1 -11q-6 -27 -25 -38t-61 -11h-202q-36 0 -51 7.5t-15 26.5q0 22 10.5 36.5t28.5 26.5q25 17 36.5 37.5t20.5 66.5l7 34q3 17 3 27q0 22 -10.5 30.5t-30.5 8.5h-93q-27 0 -42 -13t-24 -52l-8 -35q-8 -32 -8 -55q0 -16 5 -27t16 -22
q19 -19 19 -38q0 -6 -1 -10q-6 -27 -25.5 -38t-60.5 -11h-202q-35 0 -50.5 8zM345 734.5q-7 7.5 -7 16.5q0 39 146 129q40 23 64 23q15 0 27.5 -5.5t27.5 -17.5q43 -36 70 -69t22 -56q-2 -9 -12.5 -18.5t-20.5 -9.5q-12 0 -23.5 4.5t-32.5 16.5q-65 36 -84 36q-16 0 -98 -36
q-43 -21 -63 -21q-9 0 -16 7.5z" />
    <glyph glyph-name="hcircumflex" unicode="&#x125;" horiz-adv-x="677" 
d="M359.5 16.5q-27.5 28.5 -27.5 81.5q0 42 17 108l21 84q3 12 3 21q0 28 -27 28q-28 0 -56 -28t-39 -93q-14 -91 -19 -141q-3 -33 -18.5 -49t-57 -23.5t-127.5 -9.5q-20 0 -30 9t-10 25q0 10 2 16l12 39q18 52 31 113l68 316q3 15 3 28q0 23 -16 35l-15 9t-14 12.5t-2 16.5
q4 17 18.5 25.5t47.5 21.5q124 45 181 45q25 0 35.5 -6t10.5 -23q0 -3 -2 -15l-54 -248q-4 -17 3 -17q5 0 13 12q37 49 76 77t103 28q51 0 83 -26.5t32 -84.5q0 -25 -8 -62l-35 -151q-3 -12 -3 -20q0 -20 14 -20q18 0 35 16q8 6 16 6q10 0 17 -8.5t7 -23.5q0 -17 -12 -40
q-22 -44 -71.5 -78t-114.5 -34q-63 0 -90.5 28.5zM88 726.5q-7 7.5 -7 16.5q0 39 146 129q40 23 64 23q15 0 27.5 -5.5t27.5 -17.5q43 -36 70 -69t22 -56q-2 -9 -12.5 -18.5t-20.5 -9.5q-12 0 -23.5 4.5t-32.5 16.5q-65 36 -84 36q-16 0 -98 -36q-43 -21 -63 -21
q-9 0 -16 7.5z" />
    <glyph glyph-name="Hbar" unicode="&#x126;" horiz-adv-x="817" 
d="M818.5 579.5q-9.5 -11.5 -17.5 -31.5h44q10 0 15 -7t5 -18q0 -16 -10 -31t-25 -15h-47l-56 -263q-10 -44 -10 -68q0 -17 5 -27.5t16 -21.5q18 -18 18 -37q0 -7 -1 -11q-6 -27 -25 -38t-61 -11h-202q-36 0 -51 7.5t-15 26.5q0 22 10.5 36.5t28.5 26.5q25 17 36.5 37.5
t20.5 66.5l7 34q3 17 3 27q0 22 -10.5 30.5t-30.5 8.5h-93q-27 0 -42 -13t-24 -52l-8 -35q-8 -32 -8 -55q0 -16 5 -27t16 -22q19 -19 19 -38q0 -6 -1 -10q-6 -27 -25.5 -38t-60.5 -11h-202q-35 0 -50.5 8t-15.5 27q0 22 10.5 36t28.5 26q25 17 36 39t23 78l57 263h-51
q-10 0 -15 7t-5 18q0 16 10 31t25 15h48q1 19 -4 31t-17 24q-19 19 -19 38q0 6 1 10q6 27 25.5 38t60.5 11h202q36 0 51.5 -7.5t15.5 -26.5q0 -22 -11 -36.5t-29 -26.5q-17 -12 -26.5 -24t-16.5 -31h193q1 18 -4.5 30.5t-17.5 24.5q-18 18 -18 37q0 7 1 11q6 27 25 38t60 11
h202q36 0 51.5 -7.5t15.5 -26.5q0 -22 -11 -36.5t-29 -26.5q-16 -12 -25.5 -23.5zM490 416q26 0 42 14t24 47h-198l-1 -2q-3 -12 -3 -22q0 -20 11 -28.5t32 -8.5h93z" />
    <glyph glyph-name="hbar" unicode="&#x127;" horiz-adv-x="677" 
d="M624 172q10 0 17 -8.5t7 -23.5q0 -17 -12 -40q-22 -44 -71.5 -78t-114.5 -34q-63 0 -90.5 28.5t-27.5 81.5q0 42 17 108l21 84q3 12 3 21q0 28 -27 28q-28 0 -56 -28t-39 -93q-14 -91 -19 -141q-3 -33 -18.5 -49t-57 -23.5t-127.5 -9.5q-20 0 -30 9t-10 25q0 10 2 16
l12 39q18 52 31 113l61 282h-35q-20 0 -28.5 2t-8.5 8q0 8 12 24q15 20 25.5 27t29.5 7h15q-2 19 -16 29l-15 9t-14 12.5t-2 16.5q4 17 18.5 25.5t47.5 21.5q124 45 181 45q25 0 35.5 -6t10.5 -23q0 -3 -2 -15l-25 -116h57q19 0 19 -10q0 -7 -11 -22q-14 -23 -25 -30t-35 -6
h-20l-14 -64q-4 -17 3 -17q5 0 13 12q37 49 76 77t103 28q51 0 83 -26.5t32 -84.5q0 -25 -8 -62l-35 -151q-3 -12 -3 -20q0 -20 14 -20q18 0 35 16q8 6 16 6z" />
    <glyph glyph-name="Itilde" unicode="&#x128;" horiz-adv-x="393" 
d="M42 0q-36 0 -51 7.5t-15 26.5q0 22 10.5 36.5t28.5 26.5q25 18 36.5 39.5t22.5 77.5l59 272q9 47 9 68q0 17 -4.5 27.5t-15.5 21.5q-19 19 -19 38q0 6 1 10q6 27 25.5 38t60.5 11h90h23h90q36 0 51.5 -7.5t15.5 -26.5q0 -22 -11 -36.5t-29 -26.5q-25 -18 -36 -39.5
t-23 -77.5l-59 -272q-9 -46 -9 -68q0 -17 4.5 -27.5t15.5 -21.5q19 -19 19 -38q0 -6 -1 -10q-6 -27 -25.5 -38t-60.5 -11h-90h-23h-90zM332 746.5q-21 7.5 -51 22.5q-17 8 -33.5 14.5t-27.5 6.5q-8 0 -12 -3.5t-11 -12.5q-29 -35 -58 -35q-19 0 -28.5 10.5t-9.5 29.5
q0 34 18.5 59t46 38t55.5 13q25 0 48.5 -8t51.5 -23q38 -20 57 -20q6 0 11 3.5t11 12.5q17 20 29 27.5t27 7.5q19 0 30 -11t11 -29q0 -34 -19 -59t-47 -38t-57 -13q-21 0 -42 7.5z" />
    <glyph glyph-name="itilde" unicode="&#x129;" horiz-adv-x="376" 
d="M62 16q-28 28 -28 80q0 42 17 108l28 111q4 13 4 26q0 22 -17 35q-5 4 -15 10t-14 12.5t-2 16.5q4 17 19 26t47 20q120 46 181 46q24 0 34.5 -6t10.5 -21q0 -5 -2 -17l-60 -273q-3 -12 -3 -20q0 -20 15 -20q9 0 16 4t19 13q8 6 15 6q11 0 17.5 -9t6.5 -24q0 -19 -11 -40
q-23 -45 -74 -78.5t-110 -33.5q-66 0 -94 28zM274 576.5q-21 7.5 -51 22.5q-17 8 -33.5 14.5t-27.5 6.5q-8 0 -12 -3.5t-11 -12.5q-29 -35 -58 -35q-19 0 -28.5 10.5t-9.5 29.5q0 34 18.5 59t46 38t55.5 13q25 0 48.5 -8t51.5 -23q38 -20 57 -20q6 0 11 3.5t11 12.5
q17 20 29 27.5t27 7.5q19 0 30 -11t11 -29q0 -34 -19 -59t-47 -38t-57 -13q-21 0 -42 7.5z" />
    <glyph glyph-name="Imacron" unicode="&#x12a;" horiz-adv-x="393" 
d="M42 0q-36 0 -51 7.5t-15 26.5q0 22 10.5 36.5t28.5 26.5q25 18 36.5 39.5t22.5 77.5l59 272q9 47 9 68q0 17 -4.5 27.5t-15.5 21.5q-19 19 -19 38q0 6 1 10q6 27 25.5 38t60.5 11h90h23h90q36 0 51.5 -7.5t15.5 -26.5q0 -22 -11 -36.5t-29 -26.5q-25 -18 -36 -39.5
t-23 -77.5l-59 -272q-9 -46 -9 -68q0 -17 4.5 -27.5t15.5 -21.5q19 -19 19 -38q0 -6 -1 -10q-6 -27 -25.5 -38t-60.5 -11h-90h-23h-90zM150.5 748q-8.5 3 -8.5 12q0 11 12 33q15 29 25 38.5t29 9.5q100 -1 244 -1q19 0 19 -14q0 -10 -11 -32q-14 -31 -24 -40.5t-31 -9.5
l-226 1q-20 0 -28.5 3z" />
    <glyph glyph-name="imacron" unicode="&#x12b;" horiz-adv-x="376" 
d="M62 16q-28 28 -28 80q0 42 17 108l28 111q4 13 4 26q0 22 -17 35q-5 4 -15 10t-14 12.5t-2 16.5q4 17 19 26t47 20q120 46 181 46q24 0 34.5 -6t10.5 -21q0 -5 -2 -17l-60 -273q-3 -12 -3 -20q0 -20 15 -20q9 0 16 4t19 13q8 6 15 6q11 0 17.5 -9t6.5 -24q0 -19 -11 -40
q-23 -45 -74 -78.5t-110 -33.5q-66 0 -94 28zM91.5 588q-8.5 3 -8.5 12q0 11 12 33q15 29 25 38.5t29 9.5q100 -1 244 -1q19 0 19 -14q0 -10 -11 -32q-14 -31 -24 -40.5t-31 -9.5l-226 1q-20 0 -28.5 3z" />
    <glyph glyph-name="Ibreve" unicode="&#x12c;" horiz-adv-x="393" 
d="M42 0q-36 0 -51 7.5t-15 26.5q0 22 10.5 36.5t28.5 26.5q25 18 36.5 39.5t22.5 77.5l59 272q9 47 9 68q0 17 -4.5 27.5t-15.5 21.5q-19 19 -19 38q0 6 1 10q6 27 25.5 38t60.5 11h90h23h90q36 0 51.5 -7.5t15.5 -26.5q0 -22 -11 -36.5t-29 -26.5q-25 -18 -36 -39.5
t-23 -77.5l-59 -272q-9 -46 -9 -68q0 -17 4.5 -27.5t15.5 -21.5q19 -19 19 -38q0 -6 -1 -10q-6 -27 -25.5 -38t-60.5 -11h-90h-23h-90zM186.5 762.5q-41.5 36.5 -41.5 93.5q0 14 3 29q5 23 23 23q8 0 18 -12q24 -31 53.5 -49.5t72.5 -18.5q39 0 72 15.5t66 43.5
q11 10 22.5 15.5t17.5 5.5q17 0 12 -21q-9 -44 -41 -81t-77.5 -58.5t-93.5 -21.5q-65 0 -106.5 36.5z" />
    <glyph glyph-name="ibreve" unicode="&#x12d;" horiz-adv-x="376" 
d="M62 16q-28 28 -28 80q0 42 17 108l28 111q4 13 4 26q0 22 -17 35q-5 4 -15 10t-14 12.5t-2 16.5q4 17 19 26t47 20q120 46 181 46q24 0 34.5 -6t10.5 -21q0 -5 -2 -17l-60 -273q-3 -12 -3 -20q0 -20 15 -20q9 0 16 4t19 13q8 6 15 6q11 0 17.5 -9t6.5 -24q0 -19 -11 -40
q-23 -45 -74 -78.5t-110 -33.5q-66 0 -94 28zM122.5 584.5q-41.5 36.5 -41.5 93.5q0 14 3 29q5 23 23 23q8 0 18 -12q24 -31 53.5 -49.5t72.5 -18.5q39 0 72 15.5t66 43.5q11 10 22.5 15.5t17.5 5.5q17 0 12 -21q-9 -44 -41 -81t-77.5 -58.5t-93.5 -21.5q-65 0 -106.5 36.5z
" />
    <glyph glyph-name="Iogonek" unicode="&#x12e;" horiz-adv-x="393" 
d="M444.5 692.5q15.5 -7.5 15.5 -26.5q0 -22 -11 -36.5t-29 -26.5q-25 -18 -36 -39.5t-23 -77.5l-59 -272q-9 -46 -9 -68q0 -17 4.5 -27.5t15.5 -21.5q19 -19 19 -38q0 -6 -1 -10q-6 -27 -25.5 -38t-60.5 -11h-58q-34 -26 -51.5 -44.5t-17.5 -39.5t23 -21q18 0 46 14
q4 2 8 2q16 0 16 -15q0 -17 -17 -35.5t-47 -30.5t-67 -12q-36 0 -55.5 15.5t-19.5 44.5q0 72 90 122h-53q-36 0 -51 7.5t-15 26.5q0 22 10.5 36.5t28.5 26.5q25 18 36.5 39.5t22.5 77.5l59 272q9 47 9 68q0 17 -4.5 27.5t-15.5 21.5q-19 19 -19 38q0 6 1 10q6 27 25.5 38
t60.5 11h90h23h90q36 0 51.5 -7.5z" />
    <glyph glyph-name="iogonek" unicode="&#x12f;" horiz-adv-x="378" 
d="M368 704q19 -14 19 -37q0 -8 -1 -12q-7 -30 -36 -55.5t-72.5 -40.5t-91.5 -15q-39 0 -59.5 14t-20.5 36q0 33 29 61.5t76.5 45.5t100.5 17q37 0 56 -14zM327 173q11 0 17.5 -9t6.5 -24q0 -19 -11 -40q-13 -26 -38 -50t-57 -40l9 -1q-34 -26 -51.5 -44.5t-17.5 -39.5
t23 -21q18 0 46 14q4 2 8 2q16 0 16 -15q0 -17 -17 -35.5t-47 -30.5t-67 -12q-36 0 -55.5 15.5t-19.5 44.5q0 57 60 102q-53 5 -75.5 32.5t-22.5 75.5q0 41 17 107l28 111q4 13 4 26q0 22 -17 35q-5 4 -15 10t-14 12.5t-2 16.5q4 17 19 26t47 20q120 46 181 46q24 0 34.5 -6
t10.5 -21q0 -5 -2 -17l-60 -273q-3 -12 -3 -20q0 -20 15 -20q9 0 16 4t19 13q8 6 15 6z" />
    <glyph glyph-name="Idotaccent" unicode="&#x130;" horiz-adv-x="393" 
d="M42 0q-36 0 -51 7.5t-15 26.5q0 22 10.5 36.5t28.5 26.5q25 18 36.5 39.5t22.5 77.5l59 272q9 47 9 68q0 17 -4.5 27.5t-15.5 21.5q-19 19 -19 38q0 6 1 10q6 27 25.5 38t60.5 11h90h23h90q36 0 51.5 -7.5t15.5 -26.5q0 -22 -11 -36.5t-29 -26.5q-25 -18 -36 -39.5
t-23 -77.5l-59 -272q-9 -46 -9 -68q0 -17 4.5 -27.5t15.5 -21.5q19 -19 19 -38q0 -6 -1 -10q-6 -27 -25.5 -38t-60.5 -11h-90h-23h-90zM225 738q-16 11 -16 28q0 26 23 49t61 36.5t79 13.5q30 0 45 -11t15 -29q0 -25 -22.5 -48t-59.5 -36.5t-78 -13.5q-31 0 -47 11z" />
    <glyph glyph-name="dotlessi" unicode="&#x131;" horiz-adv-x="376" 
d="M62 16q-28 28 -28 80q0 42 17 108l28 111q4 13 4 26q0 22 -17 35q-5 4 -15 10t-14 12.5t-2 16.5q4 17 19 26t47 20q120 46 181 46q24 0 34.5 -6t10.5 -21q0 -5 -2 -17l-60 -273q-3 -12 -3 -20q0 -20 15 -20q9 0 16 4t19 13q8 6 15 6q11 0 17.5 -9t6.5 -24q0 -19 -11 -40
q-23 -45 -74 -78.5t-110 -33.5q-66 0 -94 28z" />
    <glyph glyph-name="IJ" unicode="&#x132;" horiz-adv-x="990" 
d="M42 0q-36 0 -51 7.5t-15 26.5q0 22 10.5 36.5t28.5 26.5q25 18 36.5 39.5t22.5 77.5l59 272q9 47 9 68q0 17 -4.5 27.5t-15.5 21.5q-19 19 -19 38q0 6 1 10q6 27 25.5 38t60.5 11h90h23h90q36 0 51.5 -7.5t15.5 -26.5q0 -22 -11 -36.5t-29 -26.5q-25 -18 -36 -39.5
t-23 -77.5l-59 -272q-9 -46 -9 -68q0 -17 4.5 -27.5t15.5 -21.5q19 -19 19 -38q0 -6 -1 -10q-6 -27 -25.5 -38t-60.5 -11h-90h-23h-90zM429 40.5q-53 52.5 -53 127.5q0 25 4 42q11 53 49 86t89 33q42 0 63 -23.5t21 -57.5q0 -6 -2 -20l-9 -32q-2 -8 -4.5 -17t-4.5 -19
q-2 -12 -2 -15q0 -36 43 -36q26 0 45 20.5t27 56.5q3 13 9 61q9 81 26 165l15 69q9 42 9 63q0 19 -6.5 30.5t-20.5 22.5q-11 9 -17 18t-6 22q0 8 1 13q6 27 29 38.5t72 11.5h203q32 0 45.5 -7.5t13.5 -26.5q0 -22 -10.5 -36.5t-27.5 -26.5q-22 -19 -32.5 -40.5t-22.5 -76.5
l-51 -241q-27 -122 -113 -189.5t-211 -67.5q-118 0 -171 52.5z" />
    <glyph glyph-name="ij" unicode="&#x133;" horiz-adv-x="695" 
d="M62 16q-28 28 -28 80q0 42 17 108l28 111q4 13 4 26q0 22 -17 35q-5 4 -15 10t-14 12.5t-2 16.5q4 17 19 26t47 20q120 46 181 46q24 0 34.5 -6t10.5 -21q0 -5 -2 -17l-60 -273q-3 -12 -3 -20q0 -20 15 -20q9 0 16 4t19 13q8 6 15 6q11 0 17.5 -9t6.5 -24q0 -19 -11 -40
q-23 -45 -74 -78.5t-110 -33.5q-66 0 -94 28zM126.5 558.5q-20.5 14.5 -20.5 36.5q0 8 1 12q6 30 36.5 55.5t76 40.5t95.5 15q35 0 53.5 -14t18.5 -37q0 -8 -1 -12q-6 -30 -35.5 -55t-73 -40.5t-91.5 -15.5q-39 0 -59.5 14.5zM302 -181q-31 0 -47 13.5t-16 34.5
q0 22 18 42.5t47 26.5q35 8 57 36.5t34 82.5l54 260q4 22 4 30q0 23 -14 31q-6 4 -15 8.5t-14 9.5t-5 13q0 18 18 30.5t48 22.5q69 23 108.5 35t64.5 12q27 0 40.5 -8t13.5 -28q0 -3 -2 -15l-81 -376q-24 -117 -103.5 -182t-194.5 -78q-5 -1 -15 -1zM479.5 558.5
q-20.5 14.5 -20.5 36.5q0 8 1 12q6 30 36.5 55.5t76 40.5t95.5 15q35 0 53.5 -14t18.5 -37q0 -8 -1 -12q-6 -30 -35.5 -55t-73 -40.5t-91.5 -15.5q-39 0 -59.5 14.5z" />
    <glyph glyph-name="Jcircumflex" unicode="&#x134;" horiz-adv-x="619" 
d="M59 40.5q-53 52.5 -53 127.5q0 25 4 42q11 53 49 86t89 33q42 0 63 -23.5t21 -57.5q0 -6 -2 -20l-9 -32q-2 -8 -4.5 -17t-4.5 -19q-2 -12 -2 -15q0 -36 43 -36q26 0 45 20.5t27 56.5q3 13 9 61q9 81 26 165l15 69q9 42 9 63q0 19 -6.5 30.5t-20.5 22.5q-11 9 -17 18
t-6 22q0 8 1 13q6 27 29 38.5t72 11.5h203q32 0 45.5 -7.5t13.5 -26.5q0 -22 -10.5 -36.5t-27.5 -26.5q-22 -19 -32.5 -40.5t-22.5 -76.5l-51 -241q-27 -122 -113 -189.5t-211 -67.5q-118 0 -171 52.5zM350 734.5q-7 7.5 -7 16.5q0 39 146 129q40 23 64 23q15 0 27.5 -5.5
t27.5 -17.5q43 -36 70 -69t22 -56q-2 -9 -12.5 -18.5t-20.5 -9.5q-12 0 -23.5 4.5t-32.5 16.5q-65 36 -84 36q-16 0 -98 -36q-43 -21 -63 -21q-9 0 -16 7.5z" />
    <glyph glyph-name="jcircumflex" unicode="&#x135;" horiz-adv-x="317" 
d="M-76 -181q-31 0 -47 13.5t-16 34.5q0 22 18 42.5t47 26.5q35 8 57 36.5t34 82.5l54 260q4 22 4 30q0 23 -14 31q-6 4 -15 8.5t-14 9.5t-5 13q0 18 18 30.5t48 22.5q69 23 108.5 35t64.5 12q27 0 40.5 -8t13.5 -28q0 -3 -2 -15l-81 -376q-24 -117 -103.5 -182t-194.5 -78
q-5 -1 -15 -1zM35.5 555.5q-6.5 7.5 -6.5 16.5q0 26 44 64.5t103 74.5q33 18 63 18q17 0 29.5 -4t26.5 -14q37 -31 64.5 -70.5t27.5 -64.5q0 -10 -9.5 -19t-22.5 -9q-15 0 -28.5 4.5t-29.5 16.5q-63 46 -82 46q-6 0 -30 -10t-70 -36q-38 -21 -61 -21q-12 0 -18.5 7.5z" />
    <glyph glyph-name="uni0136" unicode="&#x136;" horiz-adv-x="797" 
d="M-8.5 8q-15.5 8 -15.5 27q0 22 10.5 36t28.5 26q25 17 36 39t23 78l59 272q10 52 10 68t-5 27t-16 22q-19 19 -19 38q0 6 1 10q6 27 25.5 38t60.5 11h206q28 0 40.5 -7.5t12.5 -24.5q0 -23 -9.5 -38t-25.5 -27q-20 -17 -30 -36.5t-19 -62.5l-9 -40q-2 -12 -2 -15
q0 -13 8 -13q6 0 19 11l67 56q37 35 52 58t15 41q0 9 -6 25q-7 17 -5 30q6 28 34.5 37t90.5 9l36 -1l34 1q47 0 71 -8t24 -31q0 -6 -1 -10q-5 -25 -22 -35.5t-48 -19.5q-26 -7 -44 -17.5t-48 -37.5l-30 -29q-13 -12 -13 -33q0 -11 3 -19l87 -317q6 -23 17 -33.5t28 -18.5
q22 -11 22 -37q0 -6 -1 -10q-6 -26 -28.5 -36.5t-58.5 -10.5h-215q-28 0 -44.5 7t-16.5 26q0 6 1 10q3 13 8.5 20t12 12.5t9.5 8.5q9 8 13 16t4 20q0 10 -5 38l-30 119q-6 27 -20 27q-9 0 -19 -10l-17 -14q-13 -12 -21 -23t-11 -27l-6 -27q-7 -38 -7 -60q0 -15 4 -25.5
t13 -20.5t14 -21t2 -27q-6 -27 -24 -38t-56 -11h-204q-35 0 -50.5 8zM261.5 -186q-3.5 3 -3.5 8q0 4 3.5 8.5t9.5 6.5q13 4 23 13t12 17v4q0 6 -8 8q-24 6 -24 32q0 25 20 45t49 20q21 0 32.5 -11t11.5 -33q0 -13 -2 -21q-7 -30 -27 -52.5t-44.5 -35t-43.5 -12.5
q-5 0 -8.5 3z" />
    <glyph glyph-name="uni0137" unicode="&#x137;" horiz-adv-x="656" 
d="M341 53q-32 65 -43 175q-1 12 -10 12q-4 0 -9 -5l-17 -22q-11 -13 -14.5 -29t-4.5 -19q-10 -61 -12 -88q-3 -33 -18.5 -49t-57 -23.5t-127.5 -9.5q-20 0 -30 9t-10 25q0 10 2 16l12 39q18 54 31 113l69 317q3 15 3 27q0 23 -16 35l-15 9t-14 12.5t-2 16.5q4 17 18.5 25.5
t47.5 21.5q124 45 181 45q25 0 35.5 -6t10.5 -23q0 -3 -2 -15l-59 -279q-1 -5 -1 -12q0 -10 5 -10q6 0 18 12q69 75 118 107.5t111 32.5q49 0 79.5 -27.5t30.5 -66.5q0 -32 -17 -51.5t-49 -19.5q-39 0 -53 36q-5 14 -10.5 19.5t-15.5 5.5q-12 0 -30 -15q-15 -13 -15 -30
q0 -7 3 -18q28 -106 40 -145.5t23 -56.5t28 -17q10 0 16 3t12 7l9 6q7 4 14 4q10 0 17 -7.5t7 -19.5q0 -9 -2 -14q-18 -52 -63.5 -85t-109.5 -33q-82 0 -114 65zM194.5 -186q-3.5 3 -3.5 8q0 4 3.5 8.5t9.5 6.5q13 4 23 13t12 17v4q0 6 -8 8q-24 6 -24 32q0 25 20 45t49 20
q21 0 32.5 -11t11.5 -33q0 -13 -2 -21q-7 -30 -27 -52.5t-44.5 -35t-43.5 -12.5q-5 0 -8.5 3z" />
    <glyph glyph-name="kgreenlandic" unicode="&#x138;" horiz-adv-x="673" 
d="M-19 3.5q-21 7.5 -21 25.5q0 19 7.5 27t26.5 21q32 17 45.5 45t23.5 82l24 104v7q3 15 3 27q0 23 -16 34q-6 5 -14.5 10t-13 9.5t-4.5 12.5q0 20 15.5 30t51.5 24q124 45 181 45q24 0 34.5 -6.5t10.5 -21.5q0 -4 -2 -16l-10 -54l-7 -35q-2 -12 -2 -16q0 -14 10 -14t23 13
l46 40q16 14 16 24v2q0 10 -13 13q-8 11 -8 25q0 26 26.5 33.5t75.5 7.5h104q32 0 47.5 -4.5t15.5 -25.5q0 -8 -1 -12q-10 -42 -56 -46q-25 -2 -42.5 -7.5t-33.5 -18.5l-19 -15q-15 -12 -15 -23q0 -7 4 -15l85 -197q11 -26 15.5 -33.5t15.5 -16.5q12 -10 17.5 -17t5.5 -19
q0 -28 -25.5 -42t-65.5 -14l-51 1l-51 -1q-54 0 -75 9.5t-21 28.5q0 7 3 15t4 10q9 16 9 31q0 10 -4 21l-32 78q-4 10 -9.5 14t-11 4.5t-5.5 -0.5l-11 -9q-20 -27 -20 -66q0 -32 27 -53l8.5 -8.5t8.5 -11t3 -12.5q0 -5 -1 -8q-5 -24 -27 -33.5t-79 -9.5l-78 1l-75 -1
q-52 0 -73 7.5z" />
    <glyph glyph-name="Lacute" unicode="&#x139;" horiz-adv-x="647" 
d="M450 -13q-22 6 -45 9.5t-60 3.5h-213h-90q-35 0 -50.5 8t-15.5 27q0 22 10.5 36t28.5 26q25 18 36.5 39.5t22.5 77.5l59 272q9 47 9 68q0 17 -4.5 27.5t-15.5 21.5q-19 19 -19 38q0 6 1 10q6 27 25.5 38t60.5 11h200q44 0 63 -8.5t19 -27.5q0 -21 -12 -35t-33 -26
q-30 -17 -42 -39t-24 -78l-73 -339q-2 -10 -2 -13q0 -15 10 -20.5t27 -5.5h61q37 0 67 20.5t60 67.5q17 25 37.5 37t39.5 12q39 0 39 -40q0 -39 -37 -116q-31 -65 -52 -86.5t-48 -21.5q-14 0 -40 6zM201 743q0 13 9.5 28.5t29.5 42.5l24 33q18 26 46 33.5t77 7.5
q45 0 60 -8.5t11 -27.5q-4 -23 -49.5 -52.5t-101 -51.5t-79.5 -22q-27 0 -27 17z" />
    <glyph glyph-name="lacute" unicode="&#x13a;" horiz-adv-x="362" 
d="M48.5 15.5q-26.5 27.5 -26.5 79.5q0 33 15 110l65 309q3 15 3 26q0 23 -16 36q-5 4 -14 9t-13.5 10t-4.5 13q0 20 14.5 29.5t52.5 23.5q121 45 181 45q24 0 34.5 -6t10.5 -22l-2 -16l-99 -473q-2 -7 -2 -19q0 -20 14 -20q11 0 17.5 3.5t18.5 12.5q8 6 16 6q10 0 17 -8.5
t7 -22.5q0 -17 -12 -41q-23 -45 -74.5 -78.5t-110.5 -33.5q-65 0 -91.5 27.5zM152 778q0 13 9.5 28.5t29.5 42.5l24 33q18 26 46 33.5t77 7.5q45 0 60 -8.5t11 -27.5q-4 -23 -49.5 -52.5t-101 -51.5t-79.5 -22q-27 0 -27 17z" />
    <glyph glyph-name="uni013B" unicode="&#x13b;" horiz-adv-x="647" 
d="M450 -13q-22 6 -45 9.5t-60 3.5h-213h-90q-35 0 -50.5 8t-15.5 27q0 22 10.5 36t28.5 26q25 18 36.5 39.5t22.5 77.5l59 272q9 47 9 68q0 17 -4.5 27.5t-15.5 21.5q-19 19 -19 38q0 6 1 10q6 27 25.5 38t60.5 11h200q44 0 63 -8.5t19 -27.5q0 -21 -12 -35t-33 -26
q-30 -17 -42 -39t-24 -78l-73 -339q-2 -10 -2 -13q0 -15 10 -20.5t27 -5.5h61q37 0 67 20.5t60 67.5q17 25 37.5 37t39.5 12q39 0 39 -40q0 -39 -37 -116q-31 -65 -52 -86.5t-48 -21.5q-14 0 -40 6zM182.5 -186q-3.5 3 -3.5 8q0 4 3.5 8.5t9.5 6.5q13 4 23 13t12 17v4
q0 6 -8 8q-24 6 -24 32q0 25 20 45t49 20q21 0 32.5 -11t11.5 -33q0 -13 -2 -21q-7 -30 -27 -52.5t-44.5 -35t-43.5 -12.5q-5 0 -8.5 3z" />
    <glyph glyph-name="uni013C" unicode="&#x13c;" horiz-adv-x="362" 
d="M48.5 15.5q-26.5 27.5 -26.5 79.5q0 33 15 110l65 309q3 15 3 26q0 23 -16 36q-5 4 -14 9t-13.5 10t-4.5 13q0 20 14.5 29.5t52.5 23.5q121 45 181 45q24 0 34.5 -6t10.5 -22l-2 -16l-99 -473q-2 -7 -2 -19q0 -20 14 -20q11 0 17.5 3.5t18.5 12.5q8 6 16 6q10 0 17 -8.5
t7 -22.5q0 -17 -12 -41q-23 -45 -74.5 -78.5t-110.5 -33.5q-65 0 -91.5 27.5zM28.5 -186q-3.5 3 -3.5 8q0 4 3.5 8.5t9.5 6.5q13 4 23 13t12 17v4q0 6 -8 8q-24 6 -24 32q0 25 20 45t49 20q21 0 32.5 -11t11.5 -33q0 -13 -2 -21q-7 -30 -27 -52.5t-44.5 -35t-43.5 -12.5
q-5 0 -8.5 3z" />
    <glyph glyph-name="Lcaron" unicode="&#x13d;" horiz-adv-x="647" 
d="M450 -13q-22 6 -45 9.5t-60 3.5h-213h-90q-35 0 -50.5 8t-15.5 27q0 22 10.5 36t28.5 26q25 18 36.5 39.5t22.5 77.5l59 272q9 47 9 68q0 17 -4.5 27.5t-15.5 21.5q-19 19 -19 38q0 6 1 10q6 27 25.5 38t60.5 11h200q44 0 63 -8.5t19 -27.5q0 -21 -12 -35t-33 -26
q-30 -17 -42 -39t-24 -78l-73 -339q-2 -10 -2 -13q0 -15 10 -20.5t27 -5.5h61q37 0 67 20.5t60 67.5q17 25 37.5 37t39.5 12q39 0 39 -40q0 -39 -37 -116q-31 -65 -52 -86.5t-48 -21.5q-14 0 -40 6zM583.5 563.5q1.5 46.5 10.5 89.5q6 27 23 39.5t55 12.5q58 0 58 -41
q0 -8 -1 -12q-13 -56 -41 -122t-31 -74q-5 -11 -17 -17.5t-25 -6.5t-22.5 6.5t-10.5 17.5q0 61 1.5 107.5z" />
    <glyph glyph-name="lcaron" unicode="&#x13e;" horiz-adv-x="450" 
d="M48.5 15.5q-26.5 27.5 -26.5 79.5q0 33 15 110l65 309q3 15 3 26q0 23 -16 36q-5 4 -14 9t-13.5 10t-4.5 13q0 20 14.5 29.5t52.5 23.5q121 45 181 45q24 0 34.5 -6t10.5 -22l-2 -16l-99 -473q-2 -7 -2 -19q0 -20 14 -20q11 0 17.5 3.5t18.5 12.5q8 6 16 6q10 0 17 -8.5
t7 -22.5q0 -17 -12 -41q-23 -45 -74.5 -78.5t-110.5 -33.5q-65 0 -91.5 27.5zM404.5 563.5q1.5 46.5 10.5 89.5q6 27 23 39.5t55 12.5q58 0 58 -41q0 -8 -1 -12q-13 -56 -41 -122t-31 -74q-5 -11 -17 -17.5t-25 -6.5t-22.5 6.5t-10.5 17.5q0 61 1.5 107.5z" />
    <glyph glyph-name="Ldot" unicode="&#x13f;" horiz-adv-x="647" 
d="M450 -13q-22 6 -45 9.5t-60 3.5h-213h-90q-35 0 -50.5 8t-15.5 27q0 22 10.5 36t28.5 26q25 18 36.5 39.5t22.5 77.5l59 272q9 47 9 68q0 17 -4.5 27.5t-15.5 21.5q-19 19 -19 38q0 6 1 10q6 27 25.5 38t60.5 11h200q44 0 63 -8.5t19 -27.5q0 -21 -12 -35t-33 -26
q-30 -17 -42 -39t-24 -78l-73 -339q-2 -10 -2 -13q0 -15 10 -20.5t27 -5.5h61q37 0 67 20.5t60 67.5q17 25 37.5 37t39.5 12q39 0 39 -40q0 -39 -37 -116q-31 -65 -52 -86.5t-48 -21.5q-14 0 -40 6zM452.5 313.5q-17.5 15.5 -17.5 41.5q0 11 5 28q12 40 43.5 65t69.5 25
q32 0 50.5 -16.5t18.5 -44.5q0 -12 -5 -29q-11 -37 -43.5 -61t-72.5 -24q-31 0 -48.5 15.5z" />
    <glyph glyph-name="ldot" unicode="&#x140;" horiz-adv-x="433" 
d="M48.5 15.5q-26.5 27.5 -26.5 79.5q0 33 15 110l65 309q3 15 3 26q0 23 -16 36q-5 4 -14 9t-13.5 10t-4.5 13q0 20 14.5 29.5t52.5 23.5q121 45 181 45q24 0 34.5 -6t10.5 -22l-2 -16l-99 -473q-2 -7 -2 -19q0 -20 14 -20q11 0 17.5 3.5t18.5 12.5q8 6 16 6q10 0 17 -8.5
t7 -22.5q0 -17 -12 -41q-23 -45 -74.5 -78.5t-110.5 -33.5q-65 0 -91.5 27.5zM357 300q-13 11 -13 31q0 9 3 19q9 29 32 47t51 18q23 0 36 -12t13 -32q0 -34 -26 -58t-61 -24q-22 0 -35 11z" />
    <glyph glyph-name="Lslash" unicode="&#x141;" horiz-adv-x="647" 
d="M627 205q0 -39 -37 -116q-31 -65 -52 -86.5t-48 -21.5q-14 0 -40 6q-22 6 -45 9.5t-60 3.5h-213h-90q-35 0 -50.5 8t-15.5 27q0 22 10.5 36t28.5 26q25 18 36.5 39.5t22.5 77.5l6 27l-36 -13q-26 -8 -36 -8q-9 0 -13 5t-4 16q0 9 5 36q7 34 14 45t26 17l71 26l26 121
q9 47 9 68q0 17 -4.5 27.5t-15.5 21.5q-19 19 -19 38q0 6 1 10q6 27 25.5 38t60.5 11h200q44 0 63 -8.5t19 -27.5q0 -21 -12 -35t-33 -26q-30 -17 -42 -39t-24 -78l-7 -31l40 14q26 9 37 9q14 0 14 -18q0 -14 -4 -31q-8 -38 -15 -51.5t-24 -19.5l-74 -27l-40 -184
q-2 -10 -2 -13q0 -15 10 -20.5t27 -5.5h61q37 0 67 20.5t60 67.5q17 25 37.5 37t39.5 12q39 0 39 -40z" />
    <glyph glyph-name="lslash" unicode="&#x142;" horiz-adv-x="362" 
d="M355 488q26 9 37 9q14 0 14 -18q0 -14 -4 -31q-8 -38 -15 -51.5t-24 -19.5l-81 -29l-33 -159q-2 -7 -2 -19q0 -20 14 -20q11 0 17.5 3.5t18.5 12.5q8 6 16 6q10 0 17 -8.5t7 -22.5q0 -17 -12 -41q-23 -45 -74.5 -78.5t-110.5 -33.5q-65 0 -91.5 27.5t-26.5 79.5
q0 33 15 110l12 58l-44 -16q-26 -8 -36 -8q-9 0 -13 5t-4 16q0 9 5 36q7 34 14 45t26 17l78 28l27 128q3 15 3 26q0 23 -16 36q-5 4 -14 9t-13.5 10t-4.5 13q0 20 14.5 29.5t52.5 23.5q121 45 181 45q24 0 34.5 -6t10.5 -22l-2 -16l-40 -191z" />
    <glyph glyph-name="Nacute" unicode="&#x143;" horiz-adv-x="755" 
d="M-26 31q0 21 11.5 35t31.5 26q21 11 31 23.5t19 44t25 108.5l45 211q14 68 14 89q0 15 -5 23.5t-18 17.5q-28 19 -23 47q5 22 21 33.5t53 11.5l148 -1q20 0 31 -5t19 -15l195 -259q10 -13 23 -13q7 0 13 6t8 17l17 76q9 39 9 58q0 16 -6 25t-19 18q-23 16 -23 38
q0 6 1 10q5 22 21.5 33.5t52.5 11.5h110q55 0 55 -32q0 -21 -11.5 -35t-30.5 -26q-21 -12 -30.5 -22.5t-17.5 -36t-22 -88.5l-90 -421q-4 -21 -16.5 -32t-28.5 -11q-23 0 -33 17l-298 393q-9 10 -18 10q-14 0 -19 -22l-37 -174q-13 -62 -13 -87q0 -16 5 -25t17 -17
q23 -16 23 -38q0 -6 -1 -10q-5 -22 -21 -33.5t-52 -11.5h-110q-56 0 -56 32zM369 743q0 13 9.5 28.5t29.5 42.5l24 33q18 26 46 33.5t77 7.5q45 0 60 -8.5t11 -27.5q-4 -23 -49.5 -52.5t-101 -51.5t-79.5 -22q-27 0 -27 17z" />
    <glyph glyph-name="nacute" unicode="&#x144;" horiz-adv-x="701" 
d="M355 101q0 40 17 105l22 84q3 14 3 22q0 27 -27 27q-29 0 -56.5 -28t-38.5 -93l-7 -42q-10 -66 -13 -99q-3 -32 -18.5 -48.5t-57 -24t-126.5 -9.5q-20 0 -30.5 9.5t-10.5 24.5q0 7 3 16l12 40q13 45 24 87.5t33 142.5q3 15 3 27q0 25 -16 34q-6 4 -15.5 10t-13.5 12.5
t-2 16.5q4 17 18.5 25.5t47.5 21.5q124 45 181 45q24 0 34.5 -6.5t10.5 -21.5q0 -4 -2 -16l-11 -49q-4 -17 3 -17q4 0 13 13q24 31 46 52.5t55.5 36.5t77.5 15q51 0 83 -26.5t32 -84.5q0 -25 -8 -62l-35 -151q-2 -7 -2 -19q0 -21 16 -21q14 0 33 16q8 6 16 6q10 0 16.5 -8.5
t6.5 -23.5q0 -19 -11 -40q-22 -44 -72 -78t-115 -34q-119 0 -119 113zM363 577q0 14 16.5 45.5t43.5 75.5q16 27 39.5 34t71.5 7q45 0 61 -8t13 -28q-4 -23 -47 -57.5t-95 -61.5t-75 -27q-28 0 -28 20z" />
    <glyph glyph-name="uni0145" unicode="&#x145;" horiz-adv-x="755" 
d="M-26 31q0 21 11.5 35t31.5 26q21 11 31 23.5t19 44t25 108.5l45 211q14 68 14 89q0 15 -5 23.5t-18 17.5q-28 19 -23 47q5 22 21 33.5t53 11.5l148 -1q20 0 31 -5t19 -15l195 -259q10 -13 23 -13q7 0 13 6t8 17l17 76q9 39 9 58q0 16 -6 25t-19 18q-23 16 -23 38
q0 6 1 10q5 22 21.5 33.5t52.5 11.5h110q55 0 55 -32q0 -21 -11.5 -35t-30.5 -26q-21 -12 -30.5 -22.5t-17.5 -36t-22 -88.5l-90 -421q-4 -21 -16.5 -32t-28.5 -11q-23 0 -33 17l-298 393q-9 10 -18 10q-14 0 -19 -22l-37 -174q-13 -62 -13 -87q0 -16 5 -25t17 -17
q23 -16 23 -38q0 -6 -1 -10q-5 -22 -21 -33.5t-52 -11.5h-110q-56 0 -56 32zM252.5 -186q-3.5 3 -3.5 8q0 4 3.5 8.5t9.5 6.5q13 4 23 13t12 17v4q0 6 -8 8q-24 6 -24 32q0 25 20 45t49 20q21 0 32.5 -11t11.5 -33q0 -13 -2 -21q-7 -30 -27 -52.5t-44.5 -35t-43.5 -12.5
q-5 0 -8.5 3z" />
    <glyph glyph-name="uni0146" unicode="&#x146;" horiz-adv-x="701" 
d="M355 101q0 40 17 105l22 84q3 14 3 22q0 27 -27 27q-29 0 -56.5 -28t-38.5 -93l-7 -42q-10 -66 -13 -99q-3 -32 -18.5 -48.5t-57 -24t-126.5 -9.5q-20 0 -30.5 9.5t-10.5 24.5q0 7 3 16l12 40q13 45 24 87.5t33 142.5q3 15 3 27q0 25 -16 34q-6 4 -15.5 10t-13.5 12.5
t-2 16.5q4 17 18.5 25.5t47.5 21.5q124 45 181 45q24 0 34.5 -6.5t10.5 -21.5q0 -4 -2 -16l-11 -49q-4 -17 3 -17q4 0 13 13q24 31 46 52.5t55.5 36.5t77.5 15q51 0 83 -26.5t32 -84.5q0 -25 -8 -62l-35 -151q-2 -7 -2 -19q0 -21 16 -21q14 0 33 16q8 6 16 6q10 0 16.5 -8.5
t6.5 -23.5q0 -19 -11 -40q-22 -44 -72 -78t-115 -34q-119 0 -119 113zM232.5 -186q-3.5 3 -3.5 8q0 4 3.5 8.5t9.5 6.5q13 4 23 13t12 17v4q0 6 -8 8q-24 6 -24 32q0 25 20 45t49 20q21 0 32.5 -11t11.5 -33q0 -13 -2 -21q-7 -30 -27 -52.5t-44.5 -35t-43.5 -12.5
q-5 0 -8.5 3z" />
    <glyph glyph-name="Ncaron" unicode="&#x147;" horiz-adv-x="755" 
d="M-26 31q0 21 11.5 35t31.5 26q21 11 31 23.5t19 44t25 108.5l45 211q14 68 14 89q0 15 -5 23.5t-18 17.5q-28 19 -23 47q5 22 21 33.5t53 11.5l148 -1q20 0 31 -5t19 -15l195 -259q10 -13 23 -13q7 0 13 6t8 17l17 76q9 39 9 58q0 16 -6 25t-19 18q-23 16 -23 38
q0 6 1 10q5 22 21.5 33.5t52.5 11.5h110q55 0 55 -32q0 -21 -11.5 -35t-30.5 -26q-21 -12 -30.5 -22.5t-17.5 -36t-22 -88.5l-90 -421q-4 -21 -16.5 -32t-28.5 -11q-23 0 -33 17l-298 393q-9 10 -18 10q-14 0 -19 -22l-37 -174q-13 -62 -13 -87q0 -16 5 -25t17 -17
q23 -16 23 -38q0 -6 -1 -10q-5 -22 -21 -33.5t-52 -11.5h-110q-56 0 -56 32zM423 879q36 -20 56.5 -28t25.5 -8q18 0 99 36q21 10 37.5 16t27.5 6q9 0 15.5 -8t6.5 -17q0 -39 -146 -129q-39 -23 -65 -23t-53 23q-43 34 -70.5 68t-23.5 57q2 10 13 19.5t22 9.5q18 0 55 -22z
" />
    <glyph glyph-name="ncaron" unicode="&#x148;" horiz-adv-x="701" 
d="M355 101q0 40 17 105l22 84q3 14 3 22q0 27 -27 27q-29 0 -56.5 -28t-38.5 -93l-7 -42q-10 -66 -13 -99q-3 -32 -18.5 -48.5t-57 -24t-126.5 -9.5q-20 0 -30.5 9.5t-10.5 24.5q0 7 3 16l12 40q13 45 24 87.5t33 142.5q3 15 3 27q0 25 -16 34q-6 4 -15.5 10t-13.5 12.5
t-2 16.5q4 17 18.5 25.5t47.5 21.5q124 45 181 45q24 0 34.5 -6.5t10.5 -21.5q0 -4 -2 -16l-11 -49q-4 -17 3 -17q4 0 13 13q24 31 46 52.5t55.5 36.5t77.5 15q51 0 83 -26.5t32 -84.5q0 -25 -8 -62l-35 -151q-2 -7 -2 -19q0 -21 16 -21q14 0 33 16q8 6 16 6q10 0 16.5 -8.5
t6.5 -23.5q0 -19 -11 -40q-22 -44 -72 -78t-115 -34q-119 0 -119 113zM366 707q35 -26 54 -36t25 -10q8 0 32 9.5t71 36.5q38 21 64 21q11 0 17 -7t6 -16q-1 -27 -45 -65.5t-104 -74.5q-30 -19 -63 -19q-34 0 -56 19q-37 29 -64 69t-27 65q0 12 8.5 20.5t21.5 8.5
q32 0 60 -21z" />
    <glyph glyph-name="Eng" unicode="&#x14a;" horiz-adv-x="755" 
d="M834 669q0 -21 -11.5 -35t-30.5 -26q-21 -12 -30.5 -22.5t-17.5 -36t-22 -88.5l-76 -358l-30 -140q-14 -66 -57 -103t-95 -37q-38 0 -66.5 16t-28.5 52q0 10 3 22q2 13 11.5 25t21.5 14q9 1 18.5 -4t11.5 -6q17 -11 28 -11q15 0 22 8t11 25l15 72l6 27l-261 344
q-9 10 -18 10q-14 0 -19 -22l-37 -174q-13 -62 -13 -87q0 -16 5 -25t17 -17q23 -16 23 -38q0 -6 -1 -10q-5 -22 -21 -33.5t-52 -11.5h-110q-56 0 -56 32q0 21 11.5 35t31.5 26q21 11 31 23.5t19 44t25 108.5l45 211q14 68 14 89q0 15 -5 23.5t-18 17.5q-28 19 -23 47
q5 22 21 33.5t53 11.5l148 -1q20 0 31 -5t19 -15l195 -259q10 -13 23 -13q7 0 13 6t8 17l17 76q9 39 9 58q0 16 -6 25t-19 18q-23 16 -23 38q0 6 1 10q5 22 21.5 33.5t52.5 11.5h110q55 0 55 -32z" />
    <glyph glyph-name="eng" unicode="&#x14b;" horiz-adv-x="661" 
d="M609 487.5q39 -26.5 39 -83.5q0 -20 -4 -37l-57 -268l-8 -40q-18 -81 -43 -131t-71 -77.5t-121 -27.5q-45 0 -83 18.5t-38 57.5q0 5 2 17q3 17 14.5 28.5t22.5 11.5q10 0 19.5 -5t11.5 -6q14 -9 23 -10q32 -3 38 29q2 10 2 30q0 43 10 85l3 20l47 214q3 14 3 23
q0 39 -39 39q-21 0 -46.5 -27t-40.5 -72l-22 -110q-1 -7 -6 -36.5t-7 -52.5q-3 -33 -18.5 -49t-57 -23.5t-127.5 -9.5q-20 0 -30 9t-10 25q0 10 2 16l12 39q18 54 31 113l24 111v7q3 15 3 27q0 23 -16 34q-6 4 -15.5 10t-13.5 12.5t-2 16.5q4 17 18.5 25.5t47.5 21.5
q124 45 181 45q24 0 34.5 -6.5t10.5 -21.5q0 -4 -2 -16l-4 -19l2 1q-3 -16 -3.5 -24t2.5 -8t15 14q31 36 70 61.5t104 25.5q54 0 93 -26.5z" />
    <glyph glyph-name="Omacron" unicode="&#x14c;" horiz-adv-x="800" 
d="M174.5 20.5q-71.5 32.5 -109.5 94t-38 146.5q0 113 57.5 217t165 169t247.5 65q99 0 171 -32.5t110 -94t38 -145.5q0 -114 -57.5 -218t-165 -169t-249.5 -65q-98 0 -169.5 32.5zM469.5 165.5q42.5 57.5 64 139t21.5 150.5q0 61 -20.5 99t-61.5 38q-59 0 -101 -57.5
t-63.5 -139.5t-21.5 -151q0 -60 20.5 -98t61.5 -38q58 0 100.5 57.5zM343.5 748q-8.5 3 -8.5 12q0 11 12 33q15 29 25 38.5t29 9.5q100 -1 244 -1q19 0 19 -14q0 -10 -11 -32q-14 -31 -24 -40.5t-31 -9.5l-226 1q-20 0 -28.5 3z" />
    <glyph glyph-name="omacron" unicode="&#x14d;" horiz-adv-x="625" 
d="M74.5 44q-65.5 55 -65.5 146q0 68 38 143.5t120 128t206 52.5q116 0 179.5 -56.5t63.5 -148.5q0 -68 -37 -142t-116.5 -126t-200.5 -52q-122 0 -187.5 55zM341.5 137.5q24.5 48.5 36 108.5t11.5 92q0 74 -43 74q-38 0 -63 -48.5t-36.5 -108.5t-11.5 -92q0 -74 45 -74
q37 0 61.5 48.5zM245.5 588q-8.5 3 -8.5 12q0 11 12 33q15 29 25 38.5t29 9.5q100 -1 244 -1q19 0 19 -14q0 -10 -11 -32q-14 -31 -24 -40.5t-31 -9.5l-226 1q-20 0 -28.5 3z" />
    <glyph glyph-name="Obreve" unicode="&#x14e;" horiz-adv-x="800" 
d="M174.5 20.5q-71.5 32.5 -109.5 94t-38 146.5q0 113 57.5 217t165 169t247.5 65q99 0 171 -32.5t110 -94t38 -145.5q0 -114 -57.5 -218t-165 -169t-249.5 -65q-98 0 -169.5 32.5zM469.5 165.5q42.5 57.5 64 139t21.5 150.5q0 61 -20.5 99t-61.5 38q-59 0 -101 -57.5
t-63.5 -139.5t-21.5 -151q0 -60 20.5 -98t61.5 -38q58 0 100.5 57.5zM379.5 762.5q-41.5 36.5 -41.5 93.5q0 14 3 29q5 23 23 23q8 0 18 -12q24 -31 53.5 -49.5t72.5 -18.5q39 0 72 15.5t66 43.5q11 10 22.5 15.5t17.5 5.5q17 0 12 -21q-9 -44 -41 -81t-77.5 -58.5
t-93.5 -21.5q-65 0 -106.5 36.5z" />
    <glyph glyph-name="obreve" unicode="&#x14f;" horiz-adv-x="625" 
d="M74.5 44q-65.5 55 -65.5 146q0 68 38 143.5t120 128t206 52.5q116 0 179.5 -56.5t63.5 -148.5q0 -68 -37 -142t-116.5 -126t-200.5 -52q-122 0 -187.5 55zM341.5 137.5q24.5 48.5 36 108.5t11.5 92q0 74 -43 74q-38 0 -63 -48.5t-36.5 -108.5t-11.5 -92q0 -74 45 -74
q37 0 61.5 48.5zM276.5 584.5q-41.5 36.5 -41.5 93.5q0 14 3 29q5 23 23 23q8 0 18 -12q24 -31 53.5 -49.5t72.5 -18.5q39 0 72 15.5t66 43.5q11 10 22.5 15.5t17.5 5.5q17 0 12 -21q-9 -44 -41 -81t-77.5 -58.5t-93.5 -21.5q-65 0 -106.5 36.5z" />
    <glyph glyph-name="Ohungarumlaut" unicode="&#x150;" horiz-adv-x="800" 
d="M174.5 20.5q-71.5 32.5 -109.5 94t-38 146.5q0 113 57.5 217t165 169t247.5 65q99 0 171 -32.5t110 -94t38 -145.5q0 -114 -57.5 -218t-165 -169t-249.5 -65q-98 0 -169.5 32.5zM469.5 165.5q42.5 57.5 64 139t21.5 150.5q0 61 -20.5 99t-61.5 38q-59 0 -101 -57.5
t-63.5 -139.5t-21.5 -151q0 -60 20.5 -98t61.5 -38q58 0 100.5 57.5zM287 741q0 5 1 8q3 11 12.5 26.5t20.5 31.5q11 15 20 29q16 24 41.5 30.5t69.5 6.5q36 0 50.5 -5.5t14.5 -19.5q0 -6 -1 -9q-5 -21 -46 -47.5t-90 -46t-70 -19.5q-23 0 -23 15zM501 740q0 3 2 9
q5 18 34 60l18 27q16 24 41.5 30.5t69.5 6.5q41 0 55 -8t10 -26q-5 -21 -46 -47.5t-90 -46t-71 -19.5q-23 0 -23 14z" />
    <glyph glyph-name="ohungarumlaut" unicode="&#x151;" horiz-adv-x="625" 
d="M74.5 44q-65.5 55 -65.5 146q0 68 38 143.5t120 128t206 52.5q116 0 179.5 -56.5t63.5 -148.5q0 -68 -37 -142t-116.5 -126t-200.5 -52q-122 0 -187.5 55zM341.5 137.5q24.5 48.5 36 108.5t11.5 92q0 74 -43 74q-38 0 -63 -48.5t-36.5 -108.5t-11.5 -92q0 -74 45 -74
q37 0 61.5 48.5zM247 569q0 6 4 13q38 74 50 99q11 19 21 26.5t25 9.5t52 2q75 0 68 -29q-5 -24 -44 -56t-86 -55t-71 -23q-19 0 -19 13zM461 570q0 5 3 12q15 27 42 81q3 5 5.5 10t4.5 8q10 19 20.5 26.5t25.5 9.5t51 2q69 0 69 -24t-38.5 -57t-88 -57.5t-75.5 -24.5
q-19 0 -19 14z" />
    <glyph glyph-name="OE" unicode="&#x152;" horiz-adv-x="1060" 
d="M855 -12q-17 6 -34.5 9t-46.5 3h-320q-52 -12 -110 -12q-98 0 -169.5 34t-109.5 96.5t-38 146.5q0 37 10 87q22 105 87.5 186.5t162.5 127.5t211 46q59 0 105 -12h298q50 0 94 12q26 7 45 7q18 0 28 -8t16 -29.5t10 -63.5q2 -30 2 -43q0 -120 -70 -120q-24 0 -36.5 12.5
t-20.5 34.5q-11 39 -19.5 57t-25.5 26.5t-49 8.5h-60q-22 0 -32 -8t-16 -36l-25 -116l-1 -7q0 -11 14 -11h23q16 0 24 7.5t12 28.5q7 27 18.5 39t36.5 12q19 0 28.5 -9.5t13 -33.5t4.5 -74q0 -56 -5 -85t-18.5 -42t-39.5 -13q-22 0 -32.5 10.5t-12.5 32.5q-1 16 -6.5 22
t-25.5 6h-26q-15 0 -25.5 -11t-14.5 -27l-28 -131q-2 -14 -2 -18q0 -13 8.5 -18.5t28.5 -5.5h77q41 0 69.5 23.5t54.5 66.5q36 49 78 49q40 0 40 -41q0 -40 -41 -122q-31 -60 -51.5 -80.5t-46.5 -20.5q-18 0 -41 7zM431.5 126.5q24.5 36.5 35.5 87.5l58 272q7 33 7 57
q0 67 -56 67q-58 0 -103 -66.5t-71 -192.5q-17 -76 -17 -137q0 -124 81 -124q41 0 65.5 36.5z" />
    <glyph glyph-name="oe" unicode="&#x153;" horiz-adv-x="887" 
d="M838 176q10 0 15.5 -7t5.5 -18q0 -9 -3 -18q-25 -63 -86.5 -104t-153.5 -41q-98 0 -159 50q-82 -49 -195 -49q-122 0 -187.5 55t-65.5 146q0 68 38 143.5t120 128t206 52.5q111 0 176 -54q84 54 187 54q44 0 80 -17t56 -46t20 -62q0 -48 -22 -79t-77.5 -52.5
t-157.5 -35.5q-9 -2 -13 -4.5t-4 -8.5q0 -36 17 -61t55 -25q41 0 70.5 12.5t54.5 31.5q12 9 23 9zM657.5 411.5q-18.5 -23.5 -29 -56.5t-11.5 -59q1 -8 3 -10.5t6 -2.5q2 0 10 2q51 13 75.5 33t25.5 59q-1 28 -9 43t-27 15q-25 0 -43.5 -23.5zM339.5 130.5
q25.5 53.5 37.5 120t12 99.5q0 74 -41 74q-38 0 -63.5 -54t-37.5 -120.5t-12 -98.5q0 -74 42 -74q37 0 62.5 53.5z" />
    <glyph glyph-name="Racute" unicode="&#x154;" horiz-adv-x="775" 
d="M-8.5 7.5q-14.5 7.5 -14.5 25.5q0 40 39 64q26 19 37 40.5t23 76.5l57 265q10 50 10 71q0 32 -20 52q-21 19 -18 41q2 22 9 34t26.5 18t56.5 6l154 5q33 1 63 2t52 1q144 0 217.5 -46.5t73.5 -126.5q0 -134 -171 -214q-7 -2 -8.5 -8t4.5 -7q51 -18 70.5 -47.5t27.5 -89.5
q6 -57 22 -64q3 -1 10 -3t10 -5q11 -8 11 -22q0 -39 -39 -63t-126 -24q-58 0 -85 18.5t-34 53.5t-7 102q0 59 -21.5 85t-54.5 26h-13q-19 0 -29 -7.5t-16 -31.5l-11 -46q-6 -32 -6 -42q0 -31 23 -51q22 -15 22 -35q0 -31 -19 -46.5t-77 -15.5l-200 1q-34 0 -48.5 7.5z
M391 371q57 0 83.5 37t26.5 87q0 42 -19 70.5t-55 28.5h-14q-17 0 -24 -6t-12 -29l-30 -137q-3 -16 -3 -27q0 -13 7.5 -18.5t26.5 -5.5h13zM328 743q0 13 9.5 28.5t29.5 42.5l24 33q18 26 46 33.5t77 7.5q45 0 60 -8.5t11 -27.5q-4 -23 -49.5 -52.5t-101 -51.5t-79.5 -22
q-27 0 -27 17z" />
    <glyph glyph-name="racute" unicode="&#x155;" horiz-adv-x="530" 
d="M21.5 4.5q-10.5 9.5 -10.5 24.5q0 7 3 16q21 65 43 152l27 117q4 15 4 29q0 26 -17 33q-16 8 -24 14t-8 19q0 20 16.5 31t50.5 23q121 44 181 44q24 0 35 -6.5t11 -21.5q0 -6 -3 -17l-13 -55q-1 -3 -1 -8q0 -7 4 -7q3 0 7.5 4.5t8.5 11.5q31 48 65.5 77t75.5 29
q38 0 60 -28t22 -71q0 -44 -15.5 -76.5t-41 -49.5t-54.5 -17q-24 0 -37 7.5t-26 25.5q-3 5 -8.5 14.5t-10.5 13t-13 3.5q-22 0 -44.5 -30t-34.5 -88q-9 -45 -12.5 -71.5t-7.5 -69.5q-3 -33 -18 -49.5t-57 -24t-127 -8.5q-20 0 -30.5 9.5zM257 577q0 14 16.5 45.5t43.5 75.5
q16 27 39.5 34t71.5 7q45 0 61 -8t13 -28q-4 -23 -47 -57.5t-95 -61.5t-75 -27q-28 0 -28 20z" />
    <glyph glyph-name="uni0156" unicode="&#x156;" horiz-adv-x="775" 
d="M-8.5 7.5q-14.5 7.5 -14.5 25.5q0 40 39 64q26 19 37 40.5t23 76.5l57 265q10 50 10 71q0 32 -20 52q-21 19 -18 41q2 22 9 34t26.5 18t56.5 6l154 5q33 1 63 2t52 1q144 0 217.5 -46.5t73.5 -126.5q0 -134 -171 -214q-7 -2 -8.5 -8t4.5 -7q51 -18 70.5 -47.5t27.5 -89.5
q6 -57 22 -64q3 -1 10 -3t10 -5q11 -8 11 -22q0 -39 -39 -63t-126 -24q-58 0 -85 18.5t-34 53.5t-7 102q0 59 -21.5 85t-54.5 26h-13q-19 0 -29 -7.5t-16 -31.5l-11 -46q-6 -32 -6 -42q0 -31 23 -51q22 -15 22 -35q0 -31 -19 -46.5t-77 -15.5l-200 1q-34 0 -48.5 7.5z
M391 371q57 0 83.5 37t26.5 87q0 42 -19 70.5t-55 28.5h-14q-17 0 -24 -6t-12 -29l-30 -137q-3 -16 -3 -27q0 -13 7.5 -18.5t26.5 -5.5h13zM270.5 -186q-3.5 3 -3.5 8q0 4 3.5 8.5t9.5 6.5q13 4 23 13t12 17v4q0 6 -8 8q-24 6 -24 32q0 25 20 45t49 20q21 0 32.5 -11
t11.5 -33q0 -13 -2 -21q-7 -30 -27 -52.5t-44.5 -35t-43.5 -12.5q-5 0 -8.5 3z" />
    <glyph glyph-name="uni0157" unicode="&#x157;" horiz-adv-x="530" 
d="M21.5 4.5q-10.5 9.5 -10.5 24.5q0 7 3 16q21 65 43 152l27 117q4 15 4 29q0 26 -17 33q-16 8 -24 14t-8 19q0 20 16.5 31t50.5 23q121 44 181 44q24 0 35 -6.5t11 -21.5q0 -6 -3 -17l-13 -55q-1 -3 -1 -8q0 -7 4 -7q3 0 7.5 4.5t8.5 11.5q31 48 65.5 77t75.5 29
q38 0 60 -28t22 -71q0 -44 -15.5 -76.5t-41 -49.5t-54.5 -17q-24 0 -37 7.5t-26 25.5q-3 5 -8.5 14.5t-10.5 13t-13 3.5q-22 0 -44.5 -30t-34.5 -88q-9 -45 -12.5 -71.5t-7.5 -69.5q-3 -33 -18 -49.5t-57 -24t-127 -8.5q-20 0 -30.5 9.5zM61.5 -186q-3.5 3 -3.5 8
q0 4 3.5 8.5t9.5 6.5q13 4 23 13t12 17v4q0 6 -8 8q-24 6 -24 32q0 25 20 45t49 20q21 0 32.5 -11t11.5 -33q0 -13 -2 -21q-7 -30 -27 -52.5t-44.5 -35t-43.5 -12.5q-5 0 -8.5 3z" />
    <glyph glyph-name="Rcaron" unicode="&#x158;" horiz-adv-x="775" 
d="M-8.5 7.5q-14.5 7.5 -14.5 25.5q0 40 39 64q26 19 37 40.5t23 76.5l57 265q10 50 10 71q0 32 -20 52q-21 19 -18 41q2 22 9 34t26.5 18t56.5 6l154 5q33 1 63 2t52 1q144 0 217.5 -46.5t73.5 -126.5q0 -134 -171 -214q-7 -2 -8.5 -8t4.5 -7q51 -18 70.5 -47.5t27.5 -89.5
q6 -57 22 -64q3 -1 10 -3t10 -5q11 -8 11 -22q0 -39 -39 -63t-126 -24q-58 0 -85 18.5t-34 53.5t-7 102q0 59 -21.5 85t-54.5 26h-13q-19 0 -29 -7.5t-16 -31.5l-11 -46q-6 -32 -6 -42q0 -31 23 -51q22 -15 22 -35q0 -31 -19 -46.5t-77 -15.5l-200 1q-34 0 -48.5 7.5z
M391 371q57 0 83.5 37t26.5 87q0 42 -19 70.5t-55 28.5h-14q-17 0 -24 -6t-12 -29l-30 -137q-3 -16 -3 -27q0 -13 7.5 -18.5t26.5 -5.5h13zM382 879q36 -20 56.5 -28t25.5 -8q18 0 99 36q21 10 37.5 16t27.5 6q9 0 15.5 -8t6.5 -17q0 -39 -146 -129q-39 -23 -65 -23t-53 23
q-43 34 -70.5 68t-23.5 57q2 10 13 19.5t22 9.5q18 0 55 -22z" />
    <glyph glyph-name="rcaron" unicode="&#x159;" horiz-adv-x="530" 
d="M21.5 4.5q-10.5 9.5 -10.5 24.5q0 7 3 16q21 65 43 152l27 117q4 15 4 29q0 26 -17 33q-16 8 -24 14t-8 19q0 20 16.5 31t50.5 23q121 44 181 44q24 0 35 -6.5t11 -21.5q0 -6 -3 -17l-13 -55q-1 -3 -1 -8q0 -7 4 -7q3 0 7.5 4.5t8.5 11.5q31 48 65.5 77t75.5 29
q38 0 60 -28t22 -71q0 -44 -15.5 -76.5t-41 -49.5t-54.5 -17q-24 0 -37 7.5t-26 25.5q-3 5 -8.5 14.5t-10.5 13t-13 3.5q-22 0 -44.5 -30t-34.5 -88q-9 -45 -12.5 -71.5t-7.5 -69.5q-3 -33 -18 -49.5t-57 -24t-127 -8.5q-20 0 -30.5 9.5zM260 707q35 -26 54 -36t25 -10
q8 0 32 9.5t71 36.5q38 21 64 21q11 0 17 -7t6 -16q-1 -27 -45 -65.5t-104 -74.5q-30 -19 -63 -19q-34 0 -56 19q-37 29 -64 69t-27 65q0 12 8.5 20.5t21.5 8.5q32 0 60 -21z" />
    <glyph glyph-name="Sacute" unicode="&#x15a;" horiz-adv-x="630" 
d="M128 7q-64 19 -101.5 55t-37.5 86q0 46 23 77t67 31q72 0 87 -76q10 -79 81 -79q35 0 57 20.5t22 54.5q0 31 -23 50.5t-71 42.5q-69 32 -107 81.5t-38 121.5q0 61 31 116t96 89.5t161 34.5q72 0 134 -20t99 -58.5t37 -90.5q0 -36 -23.5 -60.5t-66.5 -24.5q-66 0 -76 67
q-6 42 -28.5 60.5t-52.5 18.5q-31 0 -46.5 -16t-15.5 -46q0 -28 24.5 -50.5t77.5 -43.5q61 -26 96.5 -51t54.5 -62t19 -94q0 -61 -36 -119t-112 -96t-188 -38q-80 0 -144 19zM266 743q0 13 9.5 28.5t29.5 42.5l24 33q18 26 46 33.5t77 7.5q45 0 60 -8.5t11 -27.5
q-4 -23 -49.5 -52.5t-101 -51.5t-79.5 -22q-27 0 -27 17z" />
    <glyph glyph-name="sacute" unicode="&#x15b;" horiz-adv-x="512" 
d="M94.5 9.5q-57.5 21.5 -82 53.5t-24.5 64q0 30 18.5 50t44.5 20q34 0 53 -17t41 -54q27 -49 75 -49q17 0 28.5 7.5t11.5 23.5q0 19 -16 32.5t-60 37.5q-69 37 -99.5 74t-30.5 84q0 86 59 132t154 46q96 0 164.5 -34.5t68.5 -98.5q0 -27 -17.5 -42.5t-46.5 -15.5
q-33 0 -52 14.5t-41 44.5q-15 23 -27.5 32.5t-31.5 9.5q-14 0 -25 -9.5t-11 -23.5t14 -27.5t50 -30.5q88 -41 127 -81t39 -95q0 -86 -66 -127.5t-168 -41.5q-92 0 -149.5 21.5zM246 577q0 14 16.5 45.5t43.5 75.5q16 27 39.5 34t71.5 7q45 0 61 -8t13 -28q-4 -23 -47 -57.5
t-95 -61.5t-75 -27q-28 0 -28 20z" />
    <glyph glyph-name="Scircumflex" unicode="&#x15c;" horiz-adv-x="630" 
d="M128 7q-64 19 -101.5 55t-37.5 86q0 46 23 77t67 31q72 0 87 -76q10 -79 81 -79q35 0 57 20.5t22 54.5q0 31 -23 50.5t-71 42.5q-69 32 -107 81.5t-38 121.5q0 61 31 116t96 89.5t161 34.5q72 0 134 -20t99 -58.5t37 -90.5q0 -36 -23.5 -60.5t-66.5 -24.5q-66 0 -76 67
q-6 42 -28.5 60.5t-52.5 18.5q-31 0 -46.5 -16t-15.5 -46q0 -28 24.5 -50.5t77.5 -43.5q61 -26 96.5 -51t54.5 -62t19 -94q0 -61 -36 -119t-112 -96t-188 -38q-80 0 -144 19zM214 734.5q-7 7.5 -7 16.5q0 39 146 129q40 23 64 23q15 0 27.5 -5.5t27.5 -17.5q43 -36 70 -69
t22 -56q-2 -9 -12.5 -18.5t-20.5 -9.5q-12 0 -23.5 4.5t-32.5 16.5q-65 36 -84 36q-16 0 -98 -36q-43 -21 -63 -21q-9 0 -16 7.5z" />
    <glyph glyph-name="scircumflex" unicode="&#x15d;" horiz-adv-x="512" 
d="M94.5 9.5q-57.5 21.5 -82 53.5t-24.5 64q0 30 18.5 50t44.5 20q34 0 53 -17t41 -54q27 -49 75 -49q17 0 28.5 7.5t11.5 23.5q0 19 -16 32.5t-60 37.5q-69 37 -99.5 74t-30.5 84q0 86 59 132t154 46q96 0 164.5 -34.5t68.5 -98.5q0 -27 -17.5 -42.5t-46.5 -15.5
q-33 0 -52 14.5t-41 44.5q-15 23 -27.5 32.5t-31.5 9.5q-14 0 -25 -9.5t-11 -23.5t14 -27.5t50 -30.5q88 -41 127 -81t39 -95q0 -86 -66 -127.5t-168 -41.5q-92 0 -149.5 21.5zM141.5 555.5q-6.5 7.5 -6.5 16.5q0 26 44 64.5t103 74.5q33 18 63 18q17 0 29.5 -4t26.5 -14
q37 -31 64.5 -70.5t27.5 -64.5q0 -10 -9.5 -19t-22.5 -9q-15 0 -28.5 4.5t-29.5 16.5q-63 46 -82 46q-6 0 -30 -10t-70 -36q-38 -21 -61 -21q-12 0 -18.5 7.5z" />
    <glyph glyph-name="Scedilla" unicode="&#x15e;" horiz-adv-x="630" 
d="M351.5 588q-15.5 -16 -15.5 -46q0 -28 24.5 -50.5t77.5 -43.5q61 -26 96.5 -51t54.5 -62t19 -94q0 -58 -33.5 -114.5t-103.5 -95t-174 -42.5l-18 -29q59 -4 59 -51q0 -13 -2 -20q-6 -29 -36 -50t-79 -21q-38 0 -58 13.5t-20 30.5q0 20 21 18q21 -4 36 -4q18 0 30.5 10
t12.5 24q0 22 -28 22q-22 0 -22 12q0 14 25 46q-102 9 -165.5 50.5t-63.5 107.5q0 46 23 77t67 31q72 0 87 -76q10 -79 81 -79q35 0 57 20.5t22 54.5q0 31 -23 50.5t-71 42.5q-69 32 -107 81.5t-38 121.5q0 61 31 116t96 89.5t161 34.5q72 0 134 -20t99 -58.5t37 -90.5
q0 -36 -23.5 -60.5t-66.5 -24.5q-66 0 -76 67q-6 42 -28.5 60.5t-52.5 18.5q-31 0 -46.5 -16z" />
    <glyph glyph-name="scedilla" unicode="&#x15f;" horiz-adv-x="512" 
d="M259 414.5q-11 -9.5 -11 -23.5t14 -27.5t50 -30.5q88 -41 127 -81t39 -95q0 -86 -66 -127.5t-168 -41.5h-6l-18 -28q59 -4 59 -51q0 -13 -2 -20q-6 -29 -36 -50t-79 -21q-38 0 -58 13.5t-20 30.5q0 20 21 18q21 -4 36 -4q18 0 30.5 10t12.5 24q0 22 -28 22q-12 0 -17 2.5
t-5 9.5q0 13 28 50q-91 13 -132.5 52t-41.5 81q0 30 18.5 50t44.5 20q34 0 53 -17t41 -54q27 -49 75 -49q17 0 28.5 7.5t11.5 23.5q0 19 -16 32.5t-60 37.5q-69 37 -99.5 74t-30.5 84q0 86 59 132t154 46q96 0 164.5 -34.5t68.5 -98.5q0 -27 -17.5 -42.5t-46.5 -15.5
q-33 0 -52 14.5t-41 44.5q-15 23 -27.5 32.5t-31.5 9.5q-14 0 -25 -9.5z" />
    <glyph glyph-name="Scaron" unicode="&#x160;" horiz-adv-x="630" 
d="M128 7q-64 19 -101.5 55t-37.5 86q0 46 23 77t67 31q72 0 87 -76q10 -79 81 -79q35 0 57 20.5t22 54.5q0 31 -23 50.5t-71 42.5q-69 32 -107 81.5t-38 121.5q0 61 31 116t96 89.5t161 34.5q72 0 134 -20t99 -58.5t37 -90.5q0 -36 -23.5 -60.5t-66.5 -24.5q-66 0 -76 67
q-6 42 -28.5 60.5t-52.5 18.5q-31 0 -46.5 -16t-15.5 -46q0 -28 24.5 -50.5t77.5 -43.5q61 -26 96.5 -51t54.5 -62t19 -94q0 -61 -36 -119t-112 -96t-188 -38q-80 0 -144 19zM321 879q36 -20 56.5 -28t25.5 -8q18 0 99 36q21 10 37.5 16t27.5 6q9 0 15.5 -8t6.5 -17
q0 -39 -146 -129q-39 -23 -65 -23t-53 23q-43 34 -70.5 68t-23.5 57q2 10 13 19.5t22 9.5q18 0 55 -22z" />
    <glyph glyph-name="scaron" unicode="&#x161;" horiz-adv-x="512" 
d="M94.5 9.5q-57.5 21.5 -82 53.5t-24.5 64q0 30 18.5 50t44.5 20q34 0 53 -17t41 -54q27 -49 75 -49q17 0 28.5 7.5t11.5 23.5q0 19 -16 32.5t-60 37.5q-69 37 -99.5 74t-30.5 84q0 86 59 132t154 46q96 0 164.5 -34.5t68.5 -98.5q0 -27 -17.5 -42.5t-46.5 -15.5
q-33 0 -52 14.5t-41 44.5q-15 23 -27.5 32.5t-31.5 9.5q-14 0 -25 -9.5t-11 -23.5t14 -27.5t50 -30.5q88 -41 127 -81t39 -95q0 -86 -66 -127.5t-168 -41.5q-92 0 -149.5 21.5zM250 707q35 -26 54 -36t25 -10q8 0 32 9.5t71 36.5q38 21 64 21q11 0 17 -7t6 -16
q-1 -27 -45 -65.5t-104 -74.5q-30 -19 -63 -19q-34 0 -56 19q-37 29 -64 69t-27 65q0 12 8.5 20.5t21.5 8.5q32 0 60 -21z" />
    <glyph glyph-name="uni0162" unicode="&#x162;" horiz-adv-x="713" 
d="M769 579q0 -69 -15 -101t-51 -32q-28 0 -42 16t-23 50q-12 43 -22.5 62.5t-30.5 19.5h-14q-13 0 -20.5 -6.5t-11.5 -24.5l-73 -342q-10 -47 -10 -72q0 -18 6.5 -29t22.5 -23q13 -8 20 -16.5t7 -19.5q0 -4 -2 -12q-6 -28 -30 -39t-74 -11h-46l-25 -39q59 -4 59 -51
q0 -13 -2 -20q-6 -29 -36 -50t-79 -21q-38 0 -58 13.5t-20 30.5q0 20 21 18q21 -4 36 -4q18 0 30.5 10t12.5 24q0 22 -28 22q-22 0 -22 12q0 14 33 56h-78q-48 0 -68.5 8.5t-20.5 28.5q0 21 13 34.5t35 25.5q32 18 45 39.5t24 77.5l75 349q1 4 1 12q0 19 -19 19h-14
q-21 0 -40 -19.5t-49 -62.5q-23 -34 -43.5 -50t-47.5 -16q-38 0 -38 38q0 41 42 133q49 102 91 102q15 0 40 -7q3 -1 26 -6.5t58 -5.5h267q57 0 100 13q28 6 39 6q22 0 33.5 -22t14.5 -80q1 -14 1 -38z" />
    <glyph glyph-name="uni0163" unicode="&#x163;" horiz-adv-x="447" 
d="M455 501q16 0 23 -4t7 -16q0 -4 -2 -16q-7 -29 -24.5 -46.5t-39.5 -17.5h-74q-30 0 -36 -29l-37 -175q-2 -8 -2 -21q0 -45 41 -45q43 0 71 23q13 9 24 9q20 0 20 -21l-2 -12q-17 -57 -65 -92.5t-113 -45.5l-21 -32q59 -4 59 -51q0 -13 -2 -20q-6 -29 -36 -50t-79 -21
q-38 0 -58 13.5t-20 30.5q0 20 21 18q21 -4 36 -4q18 0 30.5 10t12.5 24q0 22 -28 22q-22 0 -22 12t26 47q-58 7 -89 38.5t-31 88.5q0 28 7 57l42 198q1 4 1 10q0 17 -18 17h-12q-27 0 -27 28q0 8 1 13q6 29 29.5 53t81.5 71q59 47 102.5 71t77.5 24q18 0 24.5 -6t6.5 -19
q0 -10 -3 -27l-10 -49q-7 -38 -7 -44q0 -9 4 -11.5t15 -2.5h95z" />
    <glyph glyph-name="Tcaron" unicode="&#x164;" horiz-adv-x="713" 
d="M135.5 8.5q-20.5 8.5 -20.5 28.5q0 21 13 34.5t35 25.5q32 18 45 39.5t24 77.5l75 349q1 4 1 12q0 19 -19 19h-14q-21 0 -40 -19.5t-49 -62.5q-23 -34 -43.5 -50t-47.5 -16q-38 0 -38 38q0 41 42 133q49 102 91 102q15 0 40 -7q3 -1 26 -6.5t58 -5.5h267q57 0 100 13
q28 6 39 6q22 0 33.5 -22t14.5 -80q1 -14 1 -38q0 -69 -15 -101t-51 -32q-28 0 -42 16t-23 50q-12 43 -22.5 62.5t-30.5 19.5h-14q-13 0 -20.5 -6.5t-11.5 -24.5l-73 -342q-10 -47 -10 -72q0 -18 6.5 -29t22.5 -23q13 -8 20 -16.5t7 -19.5q0 -4 -2 -12q-6 -28 -30 -39
t-74 -11l-202 1q-48 0 -68.5 8.5zM404 879q36 -20 56.5 -28t25.5 -8q18 0 99 36q21 10 37.5 16t27.5 6q9 0 15.5 -8t6.5 -17q0 -39 -146 -129q-39 -23 -65 -23t-53 23q-43 34 -70.5 68t-23.5 57q2 10 13 19.5t22 9.5q18 0 55 -22z" />
    <glyph glyph-name="tcaron" unicode="&#x165;" horiz-adv-x="447" 
d="M85 21q-40 32 -40 97q0 28 7 57l42 198q1 4 1 10q0 17 -18 17h-12q-27 0 -27 28q0 8 1 13q6 29 29.5 53t81.5 71q59 47 102.5 71t77.5 24q18 0 24.5 -6t6.5 -19q0 -10 -3 -27l-10 -49q-7 -38 -7 -44q0 -9 4 -11.5t15 -2.5h95q16 0 23 -4t7 -16q0 -4 -2 -16
q-7 -29 -24.5 -46.5t-39.5 -17.5h-74q-30 0 -36 -29l-37 -175q-2 -8 -2 -21q0 -45 41 -45q43 0 71 23q13 9 24 9q20 0 20 -21l-2 -12q-20 -67 -82.5 -104t-143.5 -37q-73 0 -113 32zM460.5 690.5q1.5 46.5 10.5 89.5q6 27 23 39.5t55 12.5q58 0 58 -41q0 -8 -1 -12
q-13 -56 -41 -122t-31 -74q-5 -11 -17 -17.5t-25 -6.5t-22.5 6.5t-10.5 17.5q0 61 1.5 107.5z" />
    <glyph glyph-name="Tbar" unicode="&#x166;" horiz-adv-x="713" 
d="M769 579q0 -69 -15 -101t-51 -32q-28 0 -42 16t-23 50q-12 43 -22.5 62.5t-30.5 19.5h-14q-13 0 -20.5 -6.5t-11.5 -24.5l-34 -161v-3q0 -14 14 -14h59q29 0 29 -26q0 -4 -2 -16q-4 -22 -15 -32.5t-30 -10.5h-59q-16 0 -21 -14l-14 -65q-10 -47 -10 -72q0 -18 6.5 -29
t22.5 -23q13 -8 20 -16.5t7 -19.5q0 -4 -2 -12q-6 -28 -30 -39t-74 -11l-202 1q-48 0 -68.5 8.5t-20.5 28.5q0 21 13 34.5t35 25.5q32 18 45 39.5t24 77.5l15 72q-1 13 -16 13h-57q-27 0 -27 26q0 12 2 19q5 22 15 32t28 10h57q16 0 23 14l35 163q1 4 1 12q0 19 -19 19h-14
q-21 0 -40 -19.5t-49 -62.5q-23 -34 -43.5 -50t-47.5 -16q-38 0 -38 38q0 41 42 133q49 102 91 102q15 0 40 -7q3 -1 26 -6.5t58 -5.5h267q57 0 100 13q28 6 39 6q22 0 33.5 -22t14.5 -80q1 -14 1 -38z" />
    <glyph glyph-name="tbar" unicode="&#x167;" horiz-adv-x="447" 
d="M455 501q16 0 23 -4t7 -16q0 -4 -2 -16q-7 -29 -24.5 -46.5t-39.5 -17.5h-74q-30 0 -36 -29l-10 -49h67q19 0 19 -14q0 -10 -11 -32q-14 -32 -25 -41.5t-35 -8.5h-36l-6 -30q-2 -8 -2 -21q0 -45 41 -45q43 0 71 23q13 9 24 9q20 0 20 -21l-2 -12q-20 -67 -82.5 -104
t-143.5 -37q-73 0 -113 32t-40 97q0 28 7 57l11 53h-18q-20 0 -28.5 3t-8.5 12q0 10 12 32q15 29 25.5 39t29.5 10h9l10 49q1 4 1 10q0 17 -18 17h-12q-27 0 -27 28q0 8 1 13q6 29 29.5 53t81.5 71q59 47 102.5 71t77.5 24q18 0 24.5 -6t6.5 -19q0 -10 -3 -27l-10 -49
q-7 -38 -7 -44q0 -9 4 -11.5t15 -2.5h95z" />
    <glyph glyph-name="Utilde" unicode="&#x168;" horiz-adv-x="762" 
d="M71 203q0 40 11 92l39 184q11 58 11 78q0 16 -4.5 26t-16.5 20q-19 14 -19 35q0 4 2 14q6 27 26 38t61 11l202 -1q35 0 50.5 -8.5t15.5 -27.5q0 -21 -10.5 -34.5t-28.5 -26.5q-26 -18 -37.5 -40t-22.5 -77l-40 -185q-7 -37 -7 -57q0 -55 30 -84t88 -29q135 0 168 153
l43 198q10 47 10 71q0 18 -5 28.5t-15 20.5q-18 18 -18 36q0 8 1 12q5 26 25 38t63 12h80q34 0 50.5 -9t16.5 -29t-10 -33t-30 -26q-23 -16 -34.5 -38.5t-25.5 -84.5l-40 -187q-33 -154 -117 -229.5t-229 -75.5q-283 0 -283 215zM539 746.5q-21 7.5 -51 22.5
q-17 8 -33.5 14.5t-27.5 6.5q-8 0 -12 -3.5t-11 -12.5q-29 -35 -58 -35q-19 0 -28.5 10.5t-9.5 29.5q0 34 18.5 59t46 38t55.5 13q25 0 48.5 -8t51.5 -23q38 -20 57 -20q6 0 11 3.5t11 12.5q17 20 29 27.5t27 7.5q19 0 30 -11t11 -29q0 -34 -19 -59t-47 -38t-57 -13
q-21 0 -42 7.5z" />
    <glyph glyph-name="utilde" unicode="&#x169;" horiz-adv-x="689" 
d="M78.5 23q-32.5 35 -32.5 97q0 31 7 60l29 134q3 15 3 27q0 24 -16 35q-6 4 -14.5 9t-13 10t-4.5 13q0 20 15.5 30t51.5 24q124 45 181 45q24 0 34.5 -6.5t10.5 -21.5q0 -4 -2 -16l-53 -251q-2 -7 -2 -20q0 -30 24 -30q28 0 53 28t37 86l7 39q3 17 3 28q0 23 -13 33
q-4 4 -13 9.5t-13 10t-4 12.5q0 20 16 31.5t51 24.5q118 43 176 43q24 0 34.5 -6.5t10.5 -21.5q0 -4 -2 -16l-59 -285q-1 -4 -1 -10q0 -18 15 -18q9 0 15.5 3.5t17.5 11.5q9 6 17 6q10 0 16.5 -8t6.5 -22q0 -19 -11 -41q-22 -47 -67 -79.5t-101 -32.5q-102 0 -116 114
q-2 10 -7 10q-6 0 -12 -9q-32 -46 -79 -80.5t-108 -34.5q-56 0 -88.5 35zM434 576.5q-21 7.5 -51 22.5q-17 8 -33.5 14.5t-27.5 6.5q-8 0 -12 -3.5t-11 -12.5q-29 -35 -58 -35q-19 0 -28.5 10.5t-9.5 29.5q0 34 18.5 59t46 38t55.5 13q25 0 48.5 -8t51.5 -23q38 -20 57 -20
q6 0 11 3.5t11 12.5q17 20 29 27.5t27 7.5q19 0 30 -11t11 -29q0 -34 -19 -59t-47 -38t-57 -13q-21 0 -42 7.5z" />
    <glyph glyph-name="Umacron" unicode="&#x16a;" horiz-adv-x="762" 
d="M71 203q0 40 11 92l39 184q11 58 11 78q0 16 -4.5 26t-16.5 20q-19 14 -19 35q0 4 2 14q6 27 26 38t61 11l202 -1q35 0 50.5 -8.5t15.5 -27.5q0 -21 -10.5 -34.5t-28.5 -26.5q-26 -18 -37.5 -40t-22.5 -77l-40 -185q-7 -37 -7 -57q0 -55 30 -84t88 -29q135 0 168 153
l43 198q10 47 10 71q0 18 -5 28.5t-15 20.5q-18 18 -18 36q0 8 1 12q5 26 25 38t63 12h80q34 0 50.5 -9t16.5 -29t-10 -33t-30 -26q-23 -16 -34.5 -38.5t-25.5 -84.5l-40 -187q-33 -154 -117 -229.5t-229 -75.5q-283 0 -283 215zM358.5 748q-8.5 3 -8.5 12q0 11 12 33
q15 29 25 38.5t29 9.5q100 -1 244 -1q19 0 19 -14q0 -10 -11 -32q-14 -31 -24 -40.5t-31 -9.5l-226 1q-20 0 -28.5 3z" />
    <glyph glyph-name="umacron" unicode="&#x16b;" horiz-adv-x="689" 
d="M78.5 23q-32.5 35 -32.5 97q0 31 7 60l29 134q3 15 3 27q0 24 -16 35q-6 4 -14.5 9t-13 10t-4.5 13q0 20 15.5 30t51.5 24q124 45 181 45q24 0 34.5 -6.5t10.5 -21.5q0 -4 -2 -16l-53 -251q-2 -7 -2 -20q0 -30 24 -30q28 0 53 28t37 86l7 39q3 17 3 28q0 23 -13 33
q-4 4 -13 9.5t-13 10t-4 12.5q0 20 16 31.5t51 24.5q118 43 176 43q24 0 34.5 -6.5t10.5 -21.5q0 -4 -2 -16l-59 -285q-1 -4 -1 -10q0 -18 15 -18q9 0 15.5 3.5t17.5 11.5q9 6 17 6q10 0 16.5 -8t6.5 -22q0 -19 -11 -41q-22 -47 -67 -79.5t-101 -32.5q-102 0 -116 114
q-2 10 -7 10q-6 0 -12 -9q-32 -46 -79 -80.5t-108 -34.5q-56 0 -88.5 35zM251.5 588q-8.5 3 -8.5 12q0 11 12 33q15 29 25 38.5t29 9.5q100 -1 244 -1q19 0 19 -14q0 -10 -11 -32q-14 -31 -24 -40.5t-31 -9.5l-226 1q-20 0 -28.5 3z" />
    <glyph glyph-name="Ubreve" unicode="&#x16c;" horiz-adv-x="762" 
d="M71 203q0 40 11 92l39 184q11 58 11 78q0 16 -4.5 26t-16.5 20q-19 14 -19 35q0 4 2 14q6 27 26 38t61 11l202 -1q35 0 50.5 -8.5t15.5 -27.5q0 -21 -10.5 -34.5t-28.5 -26.5q-26 -18 -37.5 -40t-22.5 -77l-40 -185q-7 -37 -7 -57q0 -55 30 -84t88 -29q135 0 168 153
l43 198q10 47 10 71q0 18 -5 28.5t-15 20.5q-18 18 -18 36q0 8 1 12q5 26 25 38t63 12h80q34 0 50.5 -9t16.5 -29t-10 -33t-30 -26q-23 -16 -34.5 -38.5t-25.5 -84.5l-40 -187q-33 -154 -117 -229.5t-229 -75.5q-283 0 -283 215zM393.5 762.5q-41.5 36.5 -41.5 93.5
q0 14 3 29q5 23 23 23q8 0 18 -12q24 -31 53.5 -49.5t72.5 -18.5q39 0 72 15.5t66 43.5q11 10 22.5 15.5t17.5 5.5q17 0 12 -21q-9 -44 -41 -81t-77.5 -58.5t-93.5 -21.5q-65 0 -106.5 36.5z" />
    <glyph glyph-name="ubreve" unicode="&#x16d;" horiz-adv-x="689" 
d="M78.5 23q-32.5 35 -32.5 97q0 31 7 60l29 134q3 15 3 27q0 24 -16 35q-6 4 -14.5 9t-13 10t-4.5 13q0 20 15.5 30t51.5 24q124 45 181 45q24 0 34.5 -6.5t10.5 -21.5q0 -4 -2 -16l-53 -251q-2 -7 -2 -20q0 -30 24 -30q28 0 53 28t37 86l7 39q3 17 3 28q0 23 -13 33
q-4 4 -13 9.5t-13 10t-4 12.5q0 20 16 31.5t51 24.5q118 43 176 43q24 0 34.5 -6.5t10.5 -21.5q0 -4 -2 -16l-59 -285q-1 -4 -1 -10q0 -18 15 -18q9 0 15.5 3.5t17.5 11.5q9 6 17 6q10 0 16.5 -8t6.5 -22q0 -19 -11 -41q-22 -47 -67 -79.5t-101 -32.5q-102 0 -116 114
q-2 10 -7 10q-6 0 -12 -9q-32 -46 -79 -80.5t-108 -34.5q-56 0 -88.5 35zM282.5 584.5q-41.5 36.5 -41.5 93.5q0 14 3 29q5 23 23 23q8 0 18 -12q24 -31 53.5 -49.5t72.5 -18.5q39 0 72 15.5t66 43.5q11 10 22.5 15.5t17.5 5.5q17 0 12 -21q-9 -44 -41 -81t-77.5 -58.5
t-93.5 -21.5q-65 0 -106.5 36.5z" />
    <glyph glyph-name="Uring" unicode="&#x16e;" horiz-adv-x="762" 
d="M71 203q0 40 11 92l39 184q11 58 11 78q0 16 -4.5 26t-16.5 20q-19 14 -19 35q0 4 2 14q6 27 26 38t61 11l202 -1q35 0 50.5 -8.5t15.5 -27.5q0 -21 -10.5 -34.5t-28.5 -26.5q-26 -18 -37.5 -40t-22.5 -77l-40 -185q-7 -37 -7 -57q0 -55 30 -84t88 -29q135 0 168 153
l43 198q10 47 10 71q0 18 -5 28.5t-15 20.5q-18 18 -18 36q0 8 1 12q5 26 25 38t63 12h80q34 0 50.5 -9t16.5 -29t-10 -33t-30 -26q-23 -16 -34.5 -38.5t-25.5 -84.5l-40 -187q-33 -154 -117 -229.5t-229 -75.5q-283 0 -283 215zM450 744.5q-28 15.5 -28 45.5q0 4 2 16
q10 37 46.5 56.5t82.5 19.5q41 0 70 -17t29 -47q0 -4 -2 -16q-9 -36 -47 -54.5t-83 -18.5q-42 0 -70 15.5zM549.5 782q7.5 7 9.5 17t2 14q0 23 -18 23q-23 0 -29 -28q-1 -3 -1 -10q0 -10 5 -16.5t14 -6.5q10 0 17.5 7z" />
    <glyph glyph-name="uring" unicode="&#x16f;" horiz-adv-x="689" 
d="M78.5 23q-32.5 35 -32.5 97q0 31 7 60l29 134q3 15 3 27q0 24 -16 35q-6 4 -14.5 9t-13 10t-4.5 13q0 20 15.5 30t51.5 24q124 45 181 45q24 0 34.5 -6.5t10.5 -21.5q0 -4 -2 -16l-53 -251q-2 -7 -2 -20q0 -30 24 -30q28 0 53 28t37 86l7 39q3 17 3 28q0 23 -13 33
q-4 4 -13 9.5t-13 10t-4 12.5q0 20 16 31.5t51 24.5q118 43 176 43q24 0 34.5 -6.5t10.5 -21.5q0 -4 -2 -16l-59 -285q-1 -4 -1 -10q0 -18 15 -18q9 0 15.5 3.5t17.5 11.5q9 6 17 6q10 0 16.5 -8t6.5 -22q0 -19 -11 -41q-22 -47 -67 -79.5t-101 -32.5q-102 0 -116 114
q-2 10 -7 10q-6 0 -12 -9q-32 -46 -79 -80.5t-108 -34.5q-56 0 -88.5 35zM322.5 576q-27.5 18 -27.5 54q0 5 2 19q9 44 46 67t82 23q41 0 70 -19.5t29 -55.5q0 -6 -2 -20q-9 -43 -47 -64.5t-83 -21.5q-42 0 -69.5 18zM421.5 621q7.5 8 9.5 20t2 17q0 26 -18 26
q-21 0 -29 -33q-1 -3 -1 -10q0 -12 5 -20t15 -8q9 0 16.5 8z" />
    <glyph glyph-name="Uhungarumlaut" unicode="&#x170;" horiz-adv-x="762" 
d="M71 203q0 40 11 92l39 184q11 58 11 78q0 16 -4.5 26t-16.5 20q-19 14 -19 35q0 4 2 14q6 27 26 38t61 11l202 -1q35 0 50.5 -8.5t15.5 -27.5q0 -21 -10.5 -34.5t-28.5 -26.5q-26 -18 -37.5 -40t-22.5 -77l-40 -185q-7 -37 -7 -57q0 -55 30 -84t88 -29q135 0 168 153
l43 198q10 47 10 71q0 18 -5 28.5t-15 20.5q-18 18 -18 36q0 8 1 12q5 26 25 38t63 12h80q34 0 50.5 -9t16.5 -29t-10 -33t-30 -26q-23 -16 -34.5 -38.5t-25.5 -84.5l-40 -187q-33 -154 -117 -229.5t-229 -75.5q-283 0 -283 215zM301 741q0 5 1 8q3 11 12.5 26.5t20.5 31.5
q11 15 20 29q16 24 41.5 30.5t69.5 6.5q36 0 50.5 -5.5t14.5 -19.5q0 -6 -1 -9q-5 -21 -46 -47.5t-90 -46t-70 -19.5q-23 0 -23 15zM515 740q0 3 2 9q5 18 34 60l18 27q16 24 41.5 30.5t69.5 6.5q41 0 55 -8t10 -26q-5 -21 -46 -47.5t-90 -46t-71 -19.5q-23 0 -23 14z" />
    <glyph glyph-name="uhungarumlaut" unicode="&#x171;" horiz-adv-x="689" 
d="M78.5 23q-32.5 35 -32.5 97q0 31 7 60l29 134q3 15 3 27q0 24 -16 35q-6 4 -14.5 9t-13 10t-4.5 13q0 20 15.5 30t51.5 24q124 45 181 45q24 0 34.5 -6.5t10.5 -21.5q0 -4 -2 -16l-53 -251q-2 -7 -2 -20q0 -30 24 -30q28 0 53 28t37 86l7 39q3 17 3 28q0 23 -13 33
q-4 4 -13 9.5t-13 10t-4 12.5q0 20 16 31.5t51 24.5q118 43 176 43q24 0 34.5 -6.5t10.5 -21.5q0 -4 -2 -16l-59 -285q-1 -4 -1 -10q0 -18 15 -18q9 0 15.5 3.5t17.5 11.5q9 6 17 6q10 0 16.5 -8t6.5 -22q0 -19 -11 -41q-22 -47 -67 -79.5t-101 -32.5q-102 0 -116 114
q-2 10 -7 10q-6 0 -12 -9q-32 -46 -79 -80.5t-108 -34.5q-56 0 -88.5 35zM253 569q0 6 4 13q38 74 50 99q11 19 21 26.5t25 9.5t52 2q75 0 68 -29q-5 -24 -44 -56t-86 -55t-71 -23q-19 0 -19 13zM467 570q0 5 3 12q15 27 42 81q3 5 5.5 10t4.5 8q10 19 20.5 26.5t25.5 9.5
t51 2q69 0 69 -24t-38.5 -57t-88 -57.5t-75.5 -24.5q-19 0 -19 14z" />
    <glyph glyph-name="Uogonek" unicode="&#x172;" horiz-adv-x="762" 
d="M823.5 691q16.5 -9 16.5 -29t-10 -33t-30 -26q-23 -16 -34.5 -38.5t-25.5 -84.5l-40 -187q-21 -98 -61.5 -163t-103.5 -100l6 -1q-34 -26 -51.5 -44.5t-17.5 -39.5t23 -21q18 0 46 14q4 2 8 2q16 0 16 -15q0 -17 -17 -35.5t-47 -30.5t-67 -12q-36 0 -55.5 15.5
t-19.5 44.5q0 13 2 20q8 35 36 63q-28 -2 -43 -2q-283 0 -283 215q0 40 11 92l39 184q11 58 11 78q0 16 -4.5 26t-16.5 20q-19 14 -19 35q0 4 2 14q6 27 26 38t61 11l202 -1q35 0 50.5 -8.5t15.5 -27.5q0 -21 -10.5 -34.5t-28.5 -26.5q-26 -18 -37.5 -40t-22.5 -77l-40 -185
q-7 -37 -7 -57q0 -55 30 -84t88 -29q135 0 168 153l43 198q10 47 10 71q0 18 -5 28.5t-15 20.5q-18 18 -18 36q0 8 1 12q5 26 25 38t63 12h80q34 0 50.5 -9z" />
    <glyph glyph-name="uogonek" unicode="&#x173;" horiz-adv-x="689" 
d="M645 171q10 0 16.5 -8t6.5 -22q0 -19 -11 -41q-17 -35 -46.5 -63t-67.5 -40q-29 -23 -45 -41t-16 -37q0 -21 23 -21q18 0 46 14q4 2 8 2q16 0 16 -15q0 -17 -17 -35.5t-47 -30.5t-67 -12q-36 0 -55.5 15.5t-19.5 44.5q0 13 2 20q13 54 74 94q-60 20 -72 107q-2 10 -7 10
q-6 0 -12 -9q-32 -46 -79 -80.5t-108 -34.5q-56 0 -88.5 35t-32.5 97q0 31 7 60l29 134q3 15 3 27q0 24 -16 35q-6 4 -14.5 9t-13 10t-4.5 13q0 20 15.5 30t51.5 24q124 45 181 45q24 0 34.5 -6.5t10.5 -21.5q0 -4 -2 -16l-53 -251q-2 -7 -2 -20q0 -30 24 -30q28 0 53 28
t37 86l7 39q3 17 3 28q0 23 -13 33q-4 4 -13 9.5t-13 10t-4 12.5q0 20 16 31.5t51 24.5q118 43 176 43q24 0 34.5 -6.5t10.5 -21.5q0 -4 -2 -16l-59 -285q-1 -4 -1 -10q0 -18 15 -18q9 0 15.5 3.5t17.5 11.5q9 6 17 6z" />
    <glyph glyph-name="Wcircumflex" unicode="&#x174;" horiz-adv-x="1135" 
d="M307 -6q-42 0 -63 20t-29 60q-43 220 -67 442q-4 32 -12.5 47.5t-27.5 28.5q-20 18 -20 39q0 8 1 13q7 36 36.5 46.5t100.5 10.5h163q55 0 76 -10t21 -30q0 -5 -2 -15q-2 -12 -11 -24t-21 -21q-21 -10 -28 -24t-7 -42q0 -107 15 -244q5 -25 15 -25q9 0 24 23
q52 89 84 153q13 28 17.5 47.5t4.5 45.5q4 36 -26 59q-3 4 -8.5 12t-8.5 15t-3 16q0 31 24 48t70 17h123h46q44 0 64.5 -9.5t20.5 -29.5q0 -7 -1 -11q-5 -25 -43 -57q-24 -12 -32.5 -25t-8.5 -40q0 -100 21 -242q5 -20 13 -20q9 0 23 20q85 134 138 245q9 23 9 29
q0 9 -7 16.5t-24 18.5q-19 16 -19 37q0 3 2 13q5 28 27.5 40.5t71.5 12.5h107q29 0 44.5 -10.5t15.5 -28.5q0 -7 -1 -11q-4 -20 -13.5 -31t-27.5 -22q-32 -17 -47.5 -30t-30.5 -43q-128 -244 -254 -446q-27 -42 -54.5 -63t-62.5 -21h-24q-75 0 -86 81q-11 99 -16 213
q0 22 -9 22t-21 -22q-57 -108 -123 -216q-51 -78 -114 -78h-25zM557 734.5q-7 7.5 -7 16.5q0 39 146 129q40 23 64 23q15 0 27.5 -5.5t27.5 -17.5q43 -36 70 -69t22 -56q-2 -9 -12.5 -18.5t-20.5 -9.5q-12 0 -23.5 4.5t-32.5 16.5q-65 36 -84 36q-16 0 -98 -36
q-43 -21 -63 -21q-9 0 -16 7.5z" />
    <glyph glyph-name="wcircumflex" unicode="&#x175;" horiz-adv-x="858" 
d="M75.5 24.5q-41.5 36.5 -41.5 101.5q0 24 6 52l30 137q3 15 3 28q0 22 -15 33q-6 5 -15 10t-14 10t-5 13q0 20 15 29.5t54 23.5q122 45 181 45q24 0 34.5 -6.5t10.5 -22.5q0 -3 -2 -15l-63 -297q-3 -16 -3 -28q0 -28 19 -28q57 0 94 181l28 132q6 26 15 41t29 24.5
t57 12.5q9 1 26 1q47 0 65 -17t18 -41q0 -5 -3 -23l-54 -256q-3 -15 -3 -26q0 -29 19 -29q24 0 51 34.5t46 81t19 77.5q0 39 -28 80q-16 21 -16 49q0 5 2 17q6 31 29 47t54 16q25 0 49 -10.5t39 -29.5q46 -55 46 -127q0 -80 -50.5 -163.5t-130.5 -138t-163 -54.5
q-51 0 -83 23.5t-35 61.5q-1 4 -6 4t-8 -4q-26 -34 -72 -60t-115 -26q-72 0 -113.5 36.5zM335.5 555.5q-6.5 7.5 -6.5 16.5q0 26 44 64.5t103 74.5q33 18 63 18q17 0 29.5 -4t26.5 -14q37 -31 64.5 -70.5t27.5 -64.5q0 -10 -9.5 -19t-22.5 -9q-15 0 -28.5 4.5t-29.5 16.5
q-63 46 -82 46q-6 0 -30 -10t-70 -36q-38 -21 -61 -21q-12 0 -18.5 7.5z" />
    <glyph glyph-name="Ycircumflex" unicode="&#x176;" horiz-adv-x="717" 
d="M160 7.5q-15 7.5 -15 26.5q0 22 11 36.5t29 26.5q24 17 35 36t19 58l6 27q2 8 2 26q0 43 -15 90l-62 193q-6 19 -16 31t-19 19t-12 9q-5 4 -15 12.5t-15 16.5t-5 19q0 7 1 12q7 33 32.5 43.5t76.5 10.5h213q79 0 79 -35q0 -20 -9.5 -32t-29.5 -28q-13 -11 -19 -21t-6 -22
q0 -9 5 -26l24 -73q6 -17 17 -17q12 0 23 17l69 100q9 14 9 27q0 14 -15 31q-7 10 -9 18t0 18q6 24 26.5 33.5t54.5 9.5h107q32 0 48 -7t16 -24q0 -21 -12.5 -33.5t-27 -20.5t-19.5 -11q-15 -9 -28 -22t-35 -41l-150 -193q-18 -23 -33.5 -59t-23.5 -71l-5 -27q-6 -30 -6 -46
q0 -15 4.5 -25.5t15.5 -22.5q9 -9 14 -17t5 -19q0 -8 -1 -12q-6 -25 -24 -37.5t-58 -12.5l-206 1q-36 0 -51 7.5zM331 734.5q-7 7.5 -7 16.5q0 39 146 129q40 23 64 23q15 0 27.5 -5.5t27.5 -17.5q43 -36 70 -69t22 -56q-2 -9 -12.5 -18.5t-20.5 -9.5q-12 0 -23.5 4.5
t-32.5 16.5q-65 36 -84 36q-16 0 -98 -36q-43 -21 -63 -21q-9 0 -16 7.5z" />
    </font>
</defs>
</svg>
